<svg xmlns="http://www.w3.org/2000/svg" xmlns:xlink="http://www.w3.org/1999/xlink" width="90" height="90" viewBox="0 0 90 90">
  <defs>
    <clipPath id="clip-path">
      <rect id="Rectángulo_459527" data-name="Rectángulo 459527" width="51.453" height="63.971" fill="none"/>
    </clipPath>
  </defs>
  <g id="Grupo_1209352" data-name="Grupo 1209352" transform="translate(-1171.711 -1450)">
    <circle id="Elipse_13692" data-name="Elipse 13692" cx="45" cy="45" r="45" transform="translate(1171.711 1450)" fill="#fff"/>
    <g id="Grupo_1209340" data-name="Grupo 1209340" transform="translate(1192.711 1460.696)">
      <g id="Grupo_1209339" data-name="Grupo 1209339" clip-path="url(#clip-path)">
        <path id="Trazado_1269553" data-name="Trazado 1269553" d="M43.944,186.5c.637,0,.841.188.924.816.463,3.479-.461,8.027.006,11.54.161,1.214,3.259,2.2,1.324,3.546l-45.036.043c-1.891-.09-.941-1.157-.807-2.1.774-5.468-.473-12.937-.016-18.7a9.218,9.218,0,0,1,7.444-8.126c8.513-.439,17.08-.1,25.613-.191a4.856,4.856,0,0,1,6.437-3.5c.395.124.816.544,1.1.568.359.03,1.1-.508,1.55-.642a4.759,4.759,0,0,1,6.222,4.85c.925.082,2.858-.432,2.742.993-.131,1.6-2.593.441-3.262.867a5.668,5.668,0,0,1-.392.8c-.577.679-2.792,2.51-3.029,3.027-.333.726.923,3.658-.82,3.657-1.161,0-.917-.937-.917-1.831-1.016.234-1.156,1.634-2.434,1.245-.693-.211-4.119-4.186-5.079-4.815-.881-.4-3.238.491-3.313-.918-.072-1.368,1.3-1.022,1.485-1.193a3.553,3.553,0,0,0-.29-1.109l-25.031.062c-2.724.115-6.188,3.573-6.188,6.269V190.9H8.041v-5.221c0-.733,2.015-.913,2.015.183v7.053l6.4-5.049c.449-.546.4-1.7.658-2.456.489-1.431,5.326-6.389,6.677-7.428a2.611,2.611,0,0,1,2.278-.62,12.741,12.741,0,0,1,4.319,2.274c.867,1.1.28,1.845.645,2.652.319.7,1.648,1.518,2.192,2.937.654,1.7.037,2.484,1.525,3.82.082.074-.017.336.4.207v-3.389c0-1.1,2.015-.917,2.015-.183V190.9h5.862c.279-1.125-.748-4.393.916-4.4M46.875,174.6a2.971,2.971,0,0,0-4.716-2.609c-.427.259-.719.838-1.228.788-.369-.036-1.044-.914-1.649-1.118a2.985,2.985,0,0,0-4.118,3.011,5.361,5.361,0,0,0,.756,1.722c1.036.6,2.018-1.814,2.987-1.813.8,0,1.532,1.551,1.99,1.472.258-.045,1.352-1.452,1.491-1.452Zm-.916,1.832H43.12c-.183,0-1.61,1.919-2.227,1.977-.709.067-1.37-1.285-1.84-1.408-.45-.118-1.41.724-.981,1.363a21.541,21.541,0,0,0,2.859,2.658.672.672,0,0,0,.55-.183ZM27.192,189.539c.479-.586,1.012-1.268.462-2.043-1.2-1.693-2.86,1.518-3.626,1.727a.951.951,0,0,1-.976-1.541c.812-1.085,5.9-5.377,6.031-6.26.11-.755-2.949-2.282-3.535-2.246a1.53,1.53,0,0,0-.841.453c-1.184.9-5.486,5.323-5.868,6.588a9.745,9.745,0,0,1-.567,2.364c-.358.614-1.69,1.3-1.628,1.848.025.223,2.941,2.528,3.137,3.2l.248.01c1.273-2.094,3.482-1.335,5.178-2.335a14.157,14.157,0,0,0,1.986-1.764M27.458,192a2.2,2.2,0,0,1,1.16.4c.578.363,1.167,1.542,1.646,1.415.495-.132,2.611-2.742,3.226-3.21-.29-.708-1.039-.986-1.362-1.714a19.766,19.766,0,0,1-.509-2.605,5.411,5.411,0,0,0-1.9-2.512A5.022,5.022,0,0,0,28,185.492c3.105,1.867,1.626,4.6-.547,6.5m-20.15,4.215c.071-.311-.1-.725.088-1.1.134-.265.6-.282.648-.49.121-.495-.092-1.333,0-1.887H2.179v6.411c.627-.119,1.528-1.3,1.962-1.432.568-.171.838.133,1.152.15.767,1.427-.947,1.873-1.649,2.748h9.434a18.315,18.315,0,0,0,2.663-2.839c.011-.162-.1-.256-.179-.375-.182-.273-3.1-3.2-3.313-3.3a.5.5,0,0,0-.534.005c-1.284.495-2.869,3.39-4.407,2.109m35.721-3.48h-4.4c-.08.32.132.366.274.551a33.82,33.82,0,0,0,3.572,3.572c.185.141.231.353.551.274ZM32.77,200.607a3.041,3.041,0,0,0-.74-1.184c-.75-.992-4.041-5.291-4.851-5.59a8.2,8.2,0,0,0-4.77.168l-6.492,6.606Zm10.808,0-5.953-5.868a28.806,28.806,0,0,0-3.729,3.618c-.136.485,1.391,2.25,1.531,2.25Z" transform="translate(0 -138.476)" fill="#050403"/>
        <path id="Trazado_1269554" data-name="Trazado 1269554" d="M53.661,212.3c-1.664,0-.637,3.271-.916,4.4H46.883v-5.221c0-.733-2.015-.913-2.015.183v3.389c-.418.129-.319-.134-.4-.207-1.488-1.336-.871-2.116-1.525-3.82-.544-1.419-1.874-2.232-2.192-2.937-.365-.807.222-1.549-.645-2.652a12.741,12.741,0,0,0-4.319-2.274,2.611,2.611,0,0,0-2.278.62c-1.35,1.04-6.188,6-6.677,7.428-.26.761-.209,1.911-.658,2.456l-6.4,5.049V211.66c0-1.1-2.015-.917-2.015-.183V216.7H11.895v-9.251c0-2.7,3.464-6.154,6.188-6.269l25.031-.062a3.552,3.552,0,0,1,.29,1.109c-.188.171-1.558-.175-1.485,1.193.075,1.409,2.432.518,3.313.918.96.629,4.386,4.6,5.079,4.815,1.278.389,1.418-1.011,2.434-1.245,0,.894-.244,1.831.917,1.831Z" transform="translate(-9.716 -164.275)" fill="#9fc0f8"/>
        <path id="Trazado_1269555" data-name="Trazado 1269555" d="M82.558,11.152c.485,1.155,1.191,2.019,1.6,3.25,1.078,3.2.3,6.461.227,9.756-.514.062-.615.451-.962.595-1.444.6-2.049-.938-3.129-.566-1,.344-.2,4.388-.514,5.35-.18.547-2.778-.006-2.284,1.587.4,1.291,2.717.656,3.452,0a6.559,6.559,0,0,0,.689-1.011V26.722a8.777,8.777,0,0,0,2.565-.183,10.59,10.59,0,0,1-10.258,11.54c-4.379-2.763-4.218-5.271-4.582-9.981a62.084,62.084,0,0,1-.524-8.4c.052-.7.6-2.331.532-2.762-.059-.4-.537-.616-.555-.834-.039-.453,1.083-1.755,1.1-2.015,1.327.5,2.3-1.244,3.423-1.98a10.223,10.223,0,0,1,9.216-.951m-5,14.6c.421-.529.357-1.472-.413-1.6-1.076-.175-1.61,1.2-2.967.6-.271-.12-.459-.476-.726-.557-1.171-.359-1.784.735-1.074,1.627,1.016,1.276,4.173,1.2,5.179-.068" transform="translate(-56.199 -8.555)" fill="#e59a8b"/>
        <path id="Trazado_1269556" data-name="Trazado 1269556" d="M44.713,5.528c.016-.266-.335-.707-.147-1.336.247-.825,3.074-2.642,3.928-3.034A11.93,11.93,0,0,1,65.412,13.589c4.117.042,4.227,3.15,3.36,6.381A4.771,4.771,0,0,1,65.6,23.761c-.286.11-.752.024-.89.113s-.762,2.367-1.031,2.909c-4.116,8.3-16.358,8.133-20.281-.246-.226-.482-.792-2.587-.91-2.663s-.672-.027-1.02-.169c-2.522-1.026-3.195-3.326-3.484-5.858-.3-2.587,1.145-4.384,3.8-4.258.265-.257-.734-6.592,1.831-6.046.019.218.5.429.555.834.063.43-.48,2.064-.532,2.762a62.081,62.081,0,0,0,.524,8.4c.364,4.711.2,7.218,4.582,9.981,6.45,4.071,13.51-.4,14.286-7.6.314-2.917.875-9.76.283-12.369A10.456,10.456,0,0,0,57.353,2.6a10.222,10.222,0,0,0-9.216.951c-1.127.736-2.1,2.477-3.423,1.98M41.94,15.63a1.543,1.543,0,0,0-2.177,1.34,17.805,17.805,0,0,0,.817,3.59,2.1,2.1,0,0,0,1.751,1.27Zm22.924,6.2c1.842.216,2.715-4.029,2.493-5.135-.182-.9-1.334-1.655-2.135-.97Z" transform="translate(-30.994 0)" fill="#050403"/>
        <path id="Trazado_1269557" data-name="Trazado 1269557" d="M101.4,232.545a14.156,14.156,0,0,1-1.986,1.764c-1.7,1-3.905.241-5.178,2.335l-.249-.01c-.2-.672-3.112-2.977-3.137-3.2-.062-.549,1.271-1.233,1.628-1.848a9.746,9.746,0,0,0,.567-2.364c.381-1.265,4.684-5.692,5.868-6.588a1.53,1.53,0,0,1,.841-.453c.587-.036,3.646,1.491,3.535,2.246-.129.883-5.218,5.175-6.031,6.26a.951.951,0,0,0,.976,1.541c.766-.209,2.424-3.421,3.626-1.727.55.775.017,1.457-.462,2.043" transform="translate(-74.204 -181.482)" fill="#d4e4ff"/>
        <path id="Trazado_1269558" data-name="Trazado 1269558" d="M103.748,307.643H86.895l6.492-6.606a8.2,8.2,0,0,1,4.77-.168c.81.3,4.1,4.6,4.851,5.59a3.04,3.04,0,0,1,.74,1.184" transform="translate(-70.977 -245.512)" fill="#9fc0f8"/>
        <path id="Trazado_1269559" data-name="Trazado 1269559" d="M23.559,305.414c1.538,1.281,3.123-1.614,4.407-2.109a.5.5,0,0,1,.534-.005c.212.1,3.132,3.024,3.313,3.3.079.119.189.213.179.375a18.313,18.313,0,0,1-2.663,2.839H19.9c.7-.875,2.416-1.321,1.649-2.748a5.49,5.49,0,0,0,2.015-1.649" transform="translate(-16.251 -247.679)" fill="#e59a8b"/>
        <path id="Trazado_1269560" data-name="Trazado 1269560" d="M203.589,183.126H199.1c-.138,0-1.232,1.407-1.491,1.452-.458.08-1.187-1.47-1.99-1.471-.969,0-1.951,2.415-2.987,1.813a5.36,5.36,0,0,1-.756-1.722A2.985,2.985,0,0,1,196,180.186c.605.2,1.28,1.082,1.649,1.118.51.05.8-.529,1.228-.788a2.971,2.971,0,0,1,4.716,2.609" transform="translate(-156.714 -147.006)" fill="#8d1939"/>
        <path id="Trazado_1269561" data-name="Trazado 1269561" d="M194.682,313.011H186.53c-.14,0-1.667-1.765-1.531-2.25a28.807,28.807,0,0,1,3.729-3.618Z" transform="translate(-151.103 -250.88)" fill="#e59a8b"/>
        <path id="Trazado_1269562" data-name="Trazado 1269562" d="M149.9,255.474c2.173-1.9,3.652-4.636.547-6.5a5.02,5.02,0,0,1,1.718-1.725,5.409,5.409,0,0,1,1.9,2.512,19.787,19.787,0,0,0,.509,2.606c.323.728,1.072,1.005,1.362,1.714-.614.468-2.731,3.078-3.226,3.21-.478.128-1.068-1.052-1.646-1.415a2.2,2.2,0,0,0-1.16-.4" transform="translate(-122.438 -201.954)" fill="#d4e4ff"/>
        <path id="Trazado_1269563" data-name="Trazado 1269563" d="M15.009,301.307c-.315-.017-.584-.32-1.152-.15-.434.131-1.334,1.313-1.962,1.432v-6.411h5.862c-.088.554.125,1.392,0,1.887-.051.208-.515.225-.648.49-.191.379-.017.793-.088,1.1a5.491,5.491,0,0,1-2.015,1.649" transform="translate(-9.716 -241.924)" fill="#d58777"/>
        <path id="Trazado_1269564" data-name="Trazado 1269564" d="M215.244,207.178l-4.478,4.406a.672.672,0,0,1-.55.183,21.536,21.536,0,0,1-2.859-2.658c-.429-.638.532-1.48.981-1.363.47.123,1.131,1.475,1.84,1.408.616-.058,2.044-1.977,2.227-1.977Z" transform="translate(-169.284 -169.227)" fill="#8d1939"/>
        <path id="Trazado_1269565" data-name="Trazado 1269565" d="M215.214,296.178v4.4c-.32.08-.366-.132-.551-.274a33.829,33.829,0,0,1-3.572-3.572c-.141-.185-.353-.231-.274-.551Z" transform="translate(-172.185 -241.924)" fill="#c76d58"/>
        <path id="Trazado_1269566" data-name="Trazado 1269566" d="M96.895,41.106a10.59,10.59,0,0,0,10.258-11.54c1.463-.577,1.925-2.591.183-2.381.077-3.3.851-6.552-.227-9.756-.414-1.23-1.12-2.095-1.6-3.25a10.455,10.455,0,0,1,5.96,6.955c.592,2.609.031,9.451-.283,12.369-.776,7.2-7.836,11.675-14.286,7.6" transform="translate(-79.146 -11.581)" fill="#c76d58"/>
        <path id="Trazado_1269567" data-name="Trazado 1269567" d="M122.9,85.043c1.742-.209,1.28,1.8-.183,2.381a8.777,8.777,0,0,1-2.565.183V91a6.539,6.539,0,0,1-.69,1.011c-.735.658-3.051,1.293-3.451,0-.495-1.593,2.1-1.04,2.284-1.587.317-.961-.485-5.005.514-5.35,1.08-.372,1.685,1.165,3.129.566.347-.144.448-.533.962-.594" transform="translate(-94.709 -69.439)" fill="#050403"/>
        <path id="Trazado_1269568" data-name="Trazado 1269568" d="M92.147,86.626c-1.006,1.264-4.163,1.344-5.179.068-.71-.892-.1-1.986,1.074-1.627.267.082.454.437.726.557,1.357.6,1.891-.771,2.967-.6.77.125.834,1.068.413,1.6" transform="translate(-70.789 -69.428)" fill="#050403"/>
        <path id="Trazado_1269569" data-name="Trazado 1269569" d="M50.05,84.6l.391,6.2a2.1,2.1,0,0,1-1.751-1.27,17.818,17.818,0,0,1-.817-3.59A1.543,1.543,0,0,1,50.05,84.6" transform="translate(-39.104 -68.971)" fill="#e59a8b"/>
        <path id="Trazado_1269570" data-name="Trazado 1269570" d="M184.9,90.765l.358-6.1c.8-.685,1.953.065,2.135.97.222,1.106-.651,5.351-2.493,5.135" transform="translate(-151.03 -68.934)" fill="#c76d58"/>
      </g>
    </g>
  </g>
</svg>
