<svg xmlns="http://www.w3.org/2000/svg" xmlns:xlink="http://www.w3.org/1999/xlink" width="150" height="150" viewBox="0 0 150 150">
  <defs>
    <clipPath id="clip-path">
      <rect id="Rectángulo_459521" data-name="Rectángulo 459521" width="84" height="78.791" fill="#6a2874"/>
    </clipPath>
  </defs>
  <g id="Grupo_1208491" data-name="Grupo 1208491" transform="translate(-561.711 -8567.084)">
    <g id="Grupo_1207828" data-name="Grupo 1207828" transform="translate(561.711 8567.084)">
      <g id="Grupo_1177470" data-name="Grupo 1177470" transform="translate(0 0)">
        <circle id="Elipse_13609" data-name="Elipse 13609" cx="75" cy="75" r="75" fill="#f6e1fe"/>
        <g id="Grupo_1207827" data-name="Grupo 1207827" transform="translate(32.621 32.621)">
          <g id="Grupo_1099618" data-name="Grupo 1099618" transform="translate(1.091 5.563)">
            <rect id="Rectángulo_401104" data-name="Rectángulo 401104" width="84.532" height="84.532" transform="translate(0)" fill="none"/>
          </g>
          <g id="Grupo_1209328" data-name="Grupo 1209328" transform="translate(1.091 8.563)">
            <g id="Grupo_1209327" data-name="Grupo 1209327" clip-path="url(#clip-path)">
              <path id="Trazado_1269510" data-name="Trazado 1269510" d="M28.349,63.818c-3.351-.835-6.469-2.392-9.973-2.639l-17.287-.73A1.291,1.291,0,0,1,.48,58.17c6.1-.276,12.253.555,18.377.606,3.876.245,7.312,2.055,11.042,2.889L45.893,60.1,41.558,48.685c-.559-.122-.384.074-.535.308a19.924,19.924,0,0,0-1.562,3.236c-.431,1.188-.928,5.091-1.241,5.485a1.564,1.564,0,0,1-1.544.3c-1-.346-.482-3.033-.339-3.864.547-3.195,2.355-5.957,3.938-8.711-1.646-4.594-3.677-9.27-4.892-14-.595-2.315-.961-3.406-.437-5.826,1.139-5.263,4.412-7.991,9.5-9.249-.674-1.489-1.5-2.969-1.45-4.676a5.879,5.879,0,0,1-7.007-8.331C37.662-.034,42.15-.7,45.048,1.541,47.4-.422,54.966-.379,57.477.937a6.349,6.349,0,0,1,2.318,2.488c.856,1.951.7,8.505.092,10.612a7.761,7.761,0,0,1-3.669,4.622l.006.347c1.688.856,1.843,6.909,1.213,7.9a1.489,1.489,0,0,1-2.064-.078c-.777-1.305,1-5.784-1.727-6.931a10.337,10.337,0,0,1-3.05.176c-1.356-.154-3.356-1.416-4.1-1.421a13.769,13.769,0,0,0-6.079,2.1c-.183.127-.385-.026-.27.391,5.033,8.072,7.31,17.524,11.012,26.237l.61.587,8.25-21.3,3.152-5.825c-1.081-.35-2.178-1.148-1.549-2.423.83-1.682,3.783,1.259,4.439,2.048,5.973,7.182-1.012,17.576-3.01,25.119,1.664,2.741,3.376,5.564,3.947,8.776.166.934.487,6.379.752,6.577a6.214,6.214,0,0,1,2.54-1.18c1.874-.255,5.393.387,6.9-.017.287-.077.954-1.829,2.94-1.936,2.3-.125,3.545,1.618,3.724,3.726a56.768,56.768,0,0,1-.029,8.635,6.129,6.129,0,0,1-3.658,4.51c-2.137.8-9.043.67-11.212-.168-.846-.327-2.04-1.357-2.583-1.5a14.949,14.949,0,0,0-3.3-.052c-1.722.329-3.936,5.356-7.936,5.757l-39.645.013c-.877.419-2.484-1.211-2.633-1.211H.6c-.943-.918-.787-1.966.532-2.351l11.333-.079a7.122,7.122,0,0,1,3.622-4.665,13.582,13.582,0,0,1,2.771-1.073h9.489ZM40.051,2.85A4.213,4.213,0,0,0,38.234,4.4a3.446,3.446,0,0,0,2.509,5.109C44,9.9,42.836,7.577,43,5.321c.04-.55.495-1.356.438-1.65-.2-1.009-2.619-1-3.389-.821m5.357,4.994,3.483-1.905c2.69,1.488,5.4,3.069,8.613,2.832.631-.209.441-2.765.336-3.391a3.375,3.375,0,0,0-2.035-2.53,56.237,56.237,0,0,0-8.307,0c-1.947.439-2.321,3.361-2.09,4.994M57.9,11.208a15.778,15.778,0,0,1-9.008-2.386l-3.508,2.262c.337,8.6,12.108,8.728,12.516.123M48.5,47.934,48.412,47C45,39.138,42.958,30.6,38.56,23.22c-3.01,4.386.186,10.909,1.8,15.5,1.286,3.667,2.9,7.223,4.092,10.924Zm10.357,1.711c1.363-4.177,3.147-8.211,4.571-12.368,1.474-4.3,4.242-9.92,1.316-14.057-4.413,7.437-6.527,16.03-9.915,23.967l-.025.746ZM56.7,60.93c2.89,1.2,5.072,3.922,8.4,3.749l.48-.283c-.881-5.294-.139-11.312-3.714-15.711Zm.935-9.1L53.45,49.951c-2.229,1.357-1.955,3.711-1.8,6.057a24.422,24.422,0,0,0,.287,2.6c.334,1.2,2.262,1.371,3.08.3a53.812,53.812,0,0,0,2.518-6.13,1.5,1.5,0,0,0,.092-.94m-7.9-1.7-4.1,1.819a50.93,50.93,0,0,0,2.482,6.648,2.8,2.8,0,0,0,1.265,1.138c.573.171.274-.244.251-.49-.189-2.018-.66-4.6-.625-6.581a13.582,13.582,0,0,1,.728-2.533m24.024,22.58h4.684a7.284,7.284,0,0,0,2.178-1.185,5.456,5.456,0,0,0,.809-1.834,51.81,51.81,0,0,0,0-8.137,1.079,1.079,0,1,0-2.142-.251c-.607,1.614-.531,6.113-1.561,7.088-.615.582-1.628.854-2.413,1.671-.293.3-1.827,2.4-1.556,2.648m-43-8.648v5.285h25.1a8.807,8.807,0,0,1,2.4,1.2L59.7,72.464c2.013-1.282,1.19-3.74,1.526-5.844-2.722-1.765-6.105-4.638-9.451-4.676Zm45.884-1.922H70.51c-1.593,0-2.212,5.045-3.123,5.045H63.663v3.124a20.557,20.557,0,0,1,3.381.1c1.207.289,2.294,2.214,3.915,2.078a11.806,11.806,0,0,1,4.9-5.841ZM38.2,71.746H19.581a15.412,15.412,0,0,0-2.295.827,3.954,3.954,0,0,0-2.39,3.5H38.2Zm2.4,4.324H56.1a3.856,3.856,0,0,0,.973-1.187c.392-1.216-.366-3.137-1.694-3.137H40.961l-.36.36Z" transform="translate(0 0)" fill="#6a2874"/>
            </g>
          </g>
        </g>
      </g>
      <ellipse id="Elipse_13678" data-name="Elipse 13678" cx="18.074" cy="18.074" rx="18.074" ry="18.074" transform="translate(0.769 113.817)" fill="#da9dfe"/>
      <g id="Grupo_1207826" data-name="Grupo 1207826" transform="translate(0 116.123)">
        <path id="Trazado_998481" data-name="Trazado 998481" d="M0,13.012q4.541.393,9.077.815l-.253.1,1.3-2.34a.35.35,0,0,1,.4-.123.254.254,0,0,1,.184.174l0,.009,1.114,5.034-.836-.059,1.8-4.073,1.816-4.068,1.822-4.067L18.27.354a.772.772,0,0,1,.885-.326.543.543,0,0,1,.472.536V.572L18.9,7.156l-.762,6.581-.773,6.58-.8,6.579-1.5-.222c1.16-2.774,2.354-5.539,3.536-8.307l1.778-4.152,1.8-4.146,0-.01a.657.657,0,0,1,.753-.287.475.475,0,0,1,.413.442L23.082,15.5l-.295,5.285-.776-.111,2.607-5,0-.008a.274.274,0,0,1,.277-.117l4.931.63,4.928.647-4.969-.438-4.966-.456.281-.125L22.763,20.88a.443.443,0,0,1-.508.185.318.318,0,0,1-.269-.285v-.011l.074-5.289.1-5.289,1.17.145-1.676,4.175-1.7,4.17c-1.136,2.779-2.26,5.561-3.418,8.335a.838.838,0,0,1-.96.376c-.35-.082-.566-.334-.536-.6v0l.762-6.581.791-6.579.8-6.579L18.234.48,19.59.7,17.666,4.738,15.723,8.774l-1.948,4.035-1.966,4.029-.005.01a.482.482,0,0,1-.552.192.359.359,0,0,1-.279-.261L10.1,11.718l.586.059-1.431,2.3,0,.007a.257.257,0,0,1-.249.1Q4.5,13.609,0,13.012" transform="translate(0 4.236) rotate(-7)" fill="#fff"/>
      </g>
    </g>
    <path id="Trazado_1267128" data-name="Trazado 1267128" d="M77.377,52.427V64.859a.84.84,0,0,1-.841.84h-10a.841.841,0,0,0-.841.841v10a.841.841,0,0,1-.841.841H52.427a.841.841,0,0,1-.841-.841v-10a.841.841,0,0,0-.84-.841H40.713a.841.841,0,0,1-.841-.84V52.427a.841.841,0,0,1,.841-.841H50.745a.84.84,0,0,0,.84-.84V40.714a.841.841,0,0,1,.841-.841H64.858a.841.841,0,0,1,.841.841V50.746a.841.841,0,0,0,.841.84h10a.841.841,0,0,1,.841.841" transform="translate(630.197 8531.593)" fill="#8d1939"/>
  </g>
</svg>
