<svg xmlns="http://www.w3.org/2000/svg" xmlns:xlink="http://www.w3.org/1999/xlink" width="90" height="90" viewBox="0 0 90 90">
  <defs>
    <clipPath id="clip-path">
      <rect id="Rectángulo_459526" data-name="Rectángulo 459526" width="60.214" height="60.01" fill="none"/>
    </clipPath>
  </defs>
  <g id="Grupo_1209338" data-name="Grupo 1209338" transform="translate(-754.711 -1450)">
    <circle id="Elipse_13690" data-name="Elipse 13690" cx="45" cy="45" r="45" transform="translate(754.711 1450)" fill="#fff"/>
    <g id="Grupo_1209336" data-name="Grupo 1209336" transform="translate(769.894 1465.313)">
      <g id="Grupo_1209335" data-name="Grupo 1209335" clip-path="url(#clip-path)">
        <path id="Trazado_1269535" data-name="Trazado 1269535" d="M10.432,19.613A4.023,4.023,0,0,1,7.109,18.9c-.677-.46-1.437-1.678-1.842-1.939-.521-.334-1.525-.376-2.311-.955a4.687,4.687,0,0,1,.621-7.972c.291-.164,1.246-.418,1.316-.489.054-.055.334-1.122.519-1.458a4.827,4.827,0,0,1,6.206-1.837c.337.169.887.762,1.134.763a15.559,15.559,0,0,1,2.138-1.134,5.271,5.271,0,0,1,3.144.313c.372.167,1.065.836,1.39.78.177-.031.846-.588,1.141-.746S21.6,3.9,21.736,3.763c.169-.169.528-1.442.9-1.937A4.685,4.685,0,0,1,28.2.388c.375.156,1.243.839,1.395.839.231,0,1.022-.656,1.416-.824a4.726,4.726,0,0,1,6.068,2.1c.223.379.272.952.5,1.218.264.308.832.32,1.2.522.3.167.833.694,1,.737.352.092,1.2-.688,1.65-.872a4.977,4.977,0,0,1,4.016.173c.3.14.843.663,1.031.691a18.374,18.374,0,0,1,2.244-1.135,4.741,4.741,0,0,1,5.293,2.53c.187.316.308,1.017.462,1.171s1.323.481,1.737.755a4.767,4.767,0,0,1-.24,7.952c-.435.242-1.2.375-1.46.6s-.443,1.028-.789,1.445c-.918,1.105-2.574,1.353-3.926,1.487v3.609h9.538c.147,0,.815.511.77.777.592,8.9-.973,17-6.459,24.125A29.776,29.776,0,0,1,7.343,49.6C1.047,42.383-.486,33.553.124,24.171c-.045-.266.623-.777.77-.777h9.538ZM31.743,2.255c-.937.448-.965,1.029-1.479,1.356-1.14.727-1.369-.385-1.953-.932A2.847,2.847,0,0,0,24,3.194c-.393.665-.418,1.892-.837,2.257-.437.381-.887.167-1.4.321-2.438.733-2.6,4.509-.136,5.306a7.578,7.578,0,0,1,1.411.308c.918.477,1.621,2.525,3.16,2.7,1.67.188.926-1.084,1.087-2.274a2.851,2.851,0,0,1,5.656.242c.068.655-.05,1.4,0,2.063.787-.052,2.273-.253,2.62-1.074.219-.517.012-1.184.478-1.584.633-.544,1.914.036,2.917-1.38A2.806,2.806,0,0,0,37.555,5.81c-.526-.161-1.225-.033-1.6-.466-.541-.632-.01-1.73-1.213-2.74a2.447,2.447,0,0,0-3-.348m-15.3,3.437a2.891,2.891,0,0,0-2.011.481c-.622.42-.962,1.426-1.684,1.427S11.9,6.856,11.47,6.46a2.856,2.856,0,0,0-4.275.377c-.5.743-.412,1.8-.7,2.22-.482.7-2.283,0-3.2,1.781a2.8,2.8,0,0,0,1.637,4.055c.407.126.835.007,1.206.169.791.344,1.688,2.661,3.221,2.8a5.814,5.814,0,0,0,1.068-.144c.08-.081-.023-1.828.051-2.27.536-3.205,5.239-3.117,5.629.476.052.481-.034.979,0,1.46.012.165-.079.511.089.518.757-.19,2.059-.213,2.453-.984.261-.511.111-1.294.556-1.678.544-.47,1.762-.12,2.666-1.115,1.115-1.228-.472-1.008-1.3-1.382a11.342,11.342,0,0,1-1.89-1.547c-.138-.643-.578-1.148-.672-1.82-.238-1.7.971-3.408-1.562-3.68m33.341,0c-2.044.04-2.282,1.83-3.192,1.887-.825.052-1.106-.919-1.707-1.37a2.674,2.674,0,0,0-3.062-.143c-1.129.74-.345,1.73-.479,2.959a4.9,4.9,0,0,1-1.917,3.237c-.884.619-3.146.984-1.488,2.269.777.6,1.524.267,2.118.632.383.236,1.06,1.554,1.738,2.044a2.5,2.5,0,0,0,2.31.507c-.448-2.255.808-5.1,3.456-4.556,2.3.473,2.358,2.828,2.226,4.736.205.066.4-.157.515-.171,1.416-.176,2.375-.252,2.234-2.062.245-.1.3-.472,1.031-.687a5.151,5.151,0,0,0,1.324-.309,2.822,2.822,0,0,0-.464-5.109,6.61,6.61,0,0,0-.86-.081c-.77-.187-.69-.511-1.031-.687a2.739,2.739,0,0,0-2.75-3.094M31.056,18.926v-6.96c0-.831-1.89-.831-1.89,0v6.96ZM14.213,23.394V15.746c0-.925-1.89-.925-1.89,0v7.648Zm1.89-3.609v3.609h5.242c.195,0,2.3-2.249,2.85-2.65a7.372,7.372,0,0,1,3.062-1.492l.016-3.42c-.959.833-3.337-.924-3.659-.842-.256.065-.891.908-1.267,1.156-.49.322-1.357.456-1.6.631-.166.118-.387.941-.614,1.276-.9,1.332-2.574,1.5-4.027,1.73M47.9,23.394V15.746c0-.925-1.89-.925-1.89,0v7.648Zm-3.781-3.781a4.574,4.574,0,0,1-4.047-1.367c-.375-.352-.6-.93-1.021-1.213a14.849,14.849,0,0,0-1.752-.654c-.385-.19-1.247-1-1.367-1.028-.391-.077-2.3.9-2.983.655l.074,3.1a12.577,12.577,0,0,1,5.162,2.744c.279.231,1.442,1.542,1.551,1.542h4.382ZM36.9,23.394c-3.082-3.359-9.772-3.764-12.718,0Zm21.311,1.89H2.011v1.89H15.33a5.068,5.068,0,0,1,2.739,1.73,4.27,4.27,0,0,1-1.117,6.079c-1.828,1.253-4.6.245-6.6.617-.752.14-1.122,1.263-.507,1.7.93.664,2.9-.509,4.463,1.037a4.109,4.109,0,0,1,.021,4.933,9.231,9.231,0,0,1-1.231.745H5.964A6.052,6.052,0,0,0,7.272,46.4,28.344,28.344,0,0,0,36.554,57.421l-1.534-.783c-1.931-1.373-.8-4.455-1.5-4.9-.738-.466-4.619.072-6.111-.378-4.081-1.233-3.686-7.328.2-8.125,1.1-.226,3.457.335,3.457-1.537,0-1.947-3.216-1.179-4.561-1.292-3.952-.332-6.633-3.419-5.537-7.423.506-1.847,2.89-4.09,4.847-4.09h32.4ZM14.987,29.066H2.011A29.038,29.038,0,0,0,3.555,39.294c.269.775.813,2.745,1.626,2.843a49.121,49.121,0,0,0,7.066,0c1.547-.153,1.09-2.5.3-2.723a23.8,23.8,0,0,0-2.527-.051,2.853,2.853,0,0,1-1.481-4.888c2.035-1.754,6.171.153,7.747-1.362a2.406,2.406,0,0,0-1.3-4.047M36.04,54.845c.029.046-.059.241.107.356a33.531,33.531,0,0,0,5.654.164c1.209-.147,4.6-2.582,5.662-3.446A29.435,29.435,0,0,0,58.2,31.063c-.108-.284-.34-.26-.581-.288-2.239-.258-5.463.017-7.828.008-7.759-.027-15.524.019-23.286,0a3.894,3.894,0,0,0-3.5,5.555c1.791,3.73,6.687.638,9.079,3.123a3.376,3.376,0,0,1-1.844,5.543c-1.414.234-3.473-.334-3.814,1.856-.7,4.514,6,1.923,8.058,3.263,1.828,1.19.925,2.707,1.214,4.293.065.355.285.339.341.425" transform="translate(0 0)" fill="#040504"/>
        <path id="Trazado_1269536" data-name="Trazado 1269536" d="M67.9,147.122v3.609H35.5c-1.957,0-4.341,2.242-4.847,4.09-1.1,4,1.585,7.091,5.537,7.423,1.345.113,4.561-.656,4.561,1.292,0,1.872-2.355,1.311-3.457,1.537-3.885.8-4.281,6.893-.2,8.125,1.491.45,5.373-.088,6.111.378.7.445-.431,3.527,1.5,4.9l1.534.783a28.344,28.344,0,0,1-29.283-11.016,6.052,6.052,0,0,1-1.308-2.387h7.132a9.23,9.23,0,0,0,1.231-.745,4.109,4.109,0,0,0-.021-4.933c-1.564-1.546-3.533-.373-4.463-1.037-.614-.438-.244-1.562.507-1.7,2-.372,4.774.636,6.6-.617a4.27,4.27,0,0,0,1.117-6.079,5.068,5.068,0,0,0-2.739-1.73H11.7v-1.89Z" transform="translate(-9.689 -121.837)" fill="#9fc0f8"/>
        <path id="Trazado_1269537" data-name="Trazado 1269537" d="M158.711,179.079a29.4,29.4,0,0,1-13.749,24.061c-.056-.086-.276-.07-.341-.425-.289-1.586.614-3.1-1.214-4.293-2.059-1.34-8.762,1.251-8.058-3.263.341-2.19,2.4-1.622,3.814-1.856a3.376,3.376,0,0,0,1.844-5.543c-2.392-2.485-7.287.607-9.079-3.123a3.894,3.894,0,0,1,3.5-5.555c7.761.017,15.526-.029,23.286,0" transform="translate(-108.923 -148.295)" fill="#d0f8df"/>
        <path id="Trazado_1269538" data-name="Trazado 1269538" d="M223.449,178.547c2.365.008,5.589-.267,7.828-.008.241.028.473,0,.581.288a29.435,29.435,0,0,1-10.733,20.855c-1.067.864-4.453,3.3-5.663,3.446a33.531,33.531,0,0,1-5.654-.164c-.167-.115-.078-.311-.107-.356a29.4,29.4,0,0,0,13.749-24.061" transform="translate(-173.661 -147.763)" fill="#b1f5ca"/>
        <path id="Trazado_1269539" data-name="Trazado 1269539" d="M24.628,169.122a2.406,2.406,0,0,1,1.3,4.047c-1.576,1.515-5.712-.392-7.747,1.362a2.853,2.853,0,0,0,1.481,4.888,23.791,23.791,0,0,1,2.527.051c.792.228,1.249,2.571-.3,2.723a49.12,49.12,0,0,1-7.066,0c-.813-.1-1.357-2.068-1.626-2.843a29.038,29.038,0,0,1-1.544-10.229Z" transform="translate(-9.642 -140.056)" fill="#d0f8df"/>
        <path id="Trazado_1269540" data-name="Trazado 1269540" d="M30.616,33.022c-.186,1.983-.492,3.479,1.2,4.9a10.981,10.981,0,0,0,1.033.6,11.342,11.342,0,0,0,1.89,1.547c.009.917-1.295,2.031-2.091,2.291-.354.115-1.005.062-1.186.189s-.338,2.014-1.192,2.16c-.036-.481.05-.979,0-1.46-.39-3.593-5.093-3.681-5.629-.476-.074.441.029,2.189-.051,2.27a5.814,5.814,0,0,1-1.068.144c-1.534-.134-2.43-2.451-3.221-2.8-.371-.161-.8-.043-1.206-.169a2.8,2.8,0,0,1-1.637-4.055c.92-1.786,2.721-1.084,3.2-1.781.289-.418.2-1.477.7-2.22a2.856,2.856,0,0,1,4.275-.377c.427.4.572,1.142,1.283,1.141s1.061-1.007,1.684-1.427a2.891,2.891,0,0,1,2.011-.481" transform="translate(-14.169 -27.33)" fill="#d0f8df"/>
        <path id="Trazado_1269541" data-name="Trazado 1269541" d="M229.767,32.923c.068.641.685,1.065.82,1.671.063.281,0,1.041.039,1.079.068.068,1.538.162,1.89.344s.262.5,1.031.687c.113.651.641,1.044.783,1.709a5.043,5.043,0,0,1-.783,3.791c-.729.216-.786.587-1.031.687-.229.094-1.818.28-1.883.35s-.043,1.386-.351,1.712c-.11.014-.309.238-.515.171.132-1.908.072-4.263-2.226-4.736-2.648-.545-3.9,2.3-3.456,4.556a2.5,2.5,0,0,1-2.31-.507c-.678-.49-1.354-1.808-1.738-2.044-.594-.365-1.341-.03-2.118-.632-1.658-1.284.6-1.649,1.488-2.269a4.9,4.9,0,0,0,1.917-3.237c.135-1.229-.65-2.22.479-2.959a2.674,2.674,0,0,1,3.062.143c.6.452.882,1.422,1.707,1.37.91-.057,1.148-1.848,3.192-1.887" transform="translate(-179.979 -27.231)" fill="#d0f8df"/>
        <path id="Trazado_1269542" data-name="Trazado 1269542" d="M127.442,11.527c.064.525.473.854.614,1.362.077.278.046,1,.081,1.037.06.065,1.3.242,1.713.435,3.255,1.537,2.493,6.843-1.205,6.962a2.851,2.851,0,0,0-5.656-.242c-.161,1.19.583,2.462-1.087,2.274-1.539-.173-2.242-2.221-3.16-2.7a7.579,7.579,0,0,0-1.411-.308c-2.464-.8-2.3-4.573.136-5.306.511-.154.961.06,1.4-.321.419-.365.444-1.591.837-2.257a2.847,2.847,0,0,1,4.309-.515c.584.547.813,1.659,1.953.932.513-.327.541-.908,1.479-1.356" transform="translate(-95.699 -9.272)" fill="#d0f8df"/>
        <path id="Trazado_1269543" data-name="Trazado 1269543" d="M184.7,11.4a2.447,2.447,0,0,1,3,.348c1.2,1.011.672,2.108,1.213,2.74.371.433,1.071.306,1.6.466a2.806,2.806,0,0,1,1.407,4.266c-1,1.416-2.284.836-2.917,1.38-.466.4-.259,1.067-.478,1.584-.347.821-1.833,1.023-2.62,1.074-.051-.668.067-1.408,0-2.063,3.7-.12,4.46-5.425,1.205-6.962-.408-.193-1.652-.371-1.713-.435-.035-.038,0-.759-.081-1.037-.141-.508-.55-.837-.614-1.362" transform="translate(-152.957 -9.146)" fill="#b1f5ca"/>
        <path id="Trazado_1269544" data-name="Trazado 1269544" d="M153.418,123.241H140.7c2.946-3.764,9.636-3.359,12.718,0" transform="translate(-116.519 -99.847)" fill="#d5a880"/>
        <path id="Trazado_1269545" data-name="Trazado 1269545" d="M73.59,95.926H71.7V88.278c0-.925,1.89-.925,1.89,0Z" transform="translate(-59.378 -72.532)" fill="#d5a880"/>
        <path id="Trazado_1269546" data-name="Trazado 1269546" d="M269.59,95.926H267.7V88.278c0-.925,1.89-.925,1.89,0Z" transform="translate(-221.693 -72.532)" fill="#d5a880"/>
        <path id="Trazado_1269547" data-name="Trazado 1269547" d="M171.59,73.58H169.7V66.62c0-.831,1.89-.831,1.89,0Z" transform="translate(-140.535 -54.654)" fill="#d5a880"/>
        <path id="Trazado_1269548" data-name="Trazado 1269548" d="M311.7,60.622a5.043,5.043,0,0,0,.783-3.791c-.142-.665-.67-1.058-.783-1.709a6.609,6.609,0,0,1,.86.081,2.822,2.822,0,0,1,.464,5.109,5.151,5.151,0,0,1-1.324.309" transform="translate(-258.131 -45.649)" fill="#b1f5ca"/>
        <path id="Trazado_1269549" data-name="Trazado 1269549" d="M98.1,74.122c.824.373,2.411.154,1.3,1.382-.9.995-2.122.645-2.666,1.115-.445.384-.295,1.167-.556,1.678-.394.771-1.7.794-2.453.984-.167-.007-.076-.354-.089-.518.853-.146,1.007-2.03,1.192-2.16s.832-.074,1.186-.189c.8-.26,2.1-1.374,2.091-2.291" transform="translate(-77.529 -61.383)" fill="#60973b"/>
        <path id="Trazado_1269550" data-name="Trazado 1269550" d="M97.218,38.622a10.98,10.98,0,0,1-1.033-.6c-1.693-1.42-1.387-2.916-1.2-4.9,2.533.272,1.324,1.981,1.562,3.68.094.672.535,1.177.672,1.82" transform="translate(-78.537 -27.43)" fill="#b1f5ca"/>
        <path id="Trazado_1269551" data-name="Trazado 1269551" d="M292.45,36.213c-.352-.182-1.822-.276-1.89-.344-.038-.038.024-.8-.039-1.079-.135-.606-.752-1.03-.82-1.671a2.739,2.739,0,0,1,2.75,3.094" transform="translate(-239.912 -27.427)" fill="#60973b"/>
        <path id="Trazado_1269552" data-name="Trazado 1269552" d="M294.934,91.122c.141,1.811-.818,1.886-2.234,2.062.308-.326.291-1.647.351-1.712s1.654-.256,1.883-.35" transform="translate(-242.396 -75.462)" fill="#60973b"/>
      </g>
    </g>
  </g>
</svg>
