<svg xmlns="http://www.w3.org/2000/svg" xmlns:xlink="http://www.w3.org/1999/xlink" width="150" height="150" viewBox="0 0 150 150">
  <defs>
    <clipPath id="clip-path">
      <rect id="Rectángulo_459524" data-name="Rectángulo 459524" width="81.285" height="81.439" fill="#6a2874"/>
    </clipPath>
  </defs>
  <g id="Grupo_1208493" data-name="Grupo 1208493" transform="translate(-561.711 -8567.084)">
    <g id="Grupo_1207828" data-name="Grupo 1207828" transform="translate(561.711 8567.084)">
      <g id="Grupo_1177470" data-name="Grupo 1177470" transform="translate(0 0)">
        <circle id="Elipse_13609" data-name="Elipse 13609" cx="75" cy="75" r="75" fill="#f6e1fe"/>
        <g id="Grupo_1207827" data-name="Grupo 1207827" transform="translate(32.621 32.621)">
          <g id="Grupo_1099618" data-name="Grupo 1099618" transform="translate(0.09 -0.437)">
            <rect id="Rectángulo_401104" data-name="Rectángulo 401104" width="84.532" height="84.532" transform="translate(0)" fill="none"/>
          </g>
          <g id="Grupo_1209332" data-name="Grupo 1209332" transform="translate(2.09 1.563)">
            <g id="Grupo_1209331" data-name="Grupo 1209331" clip-path="url(#clip-path)">
              <path id="Trazado_1269516" data-name="Trazado 1269516" d="M102.72,132.253H99.9v-3.59H93.746l1.41-2.821H99.9V96.226L73.36,76.869,46.821,96.226v29.617h4.744l1.41,2.821H46.821v3.59H44V94.944L72.57,73.77a1.365,1.365,0,0,1,1.731.107L102.72,94.944Z" transform="translate(-32.717 -54.66)" fill="#6a2874"/>
              <path id="Trazado_1269517" data-name="Trazado 1269517" d="M112.173,224.612h-5.816L94.9,202.35,83.453,224.612H77.637c-1.069-2.768-3.547-5.758-4.458-8.493a1.465,1.465,0,0,1-.162-1.024c.135-.491,3.28-2.957,3.944-3.512,5.679-4.75,11.695-9.237,17.49-13.809h.906L116.7,214.917a1.114,1.114,0,0,1,.012,1.022c-.732,2.622-3.589,5.971-4.544,8.673M90.417,204.656,76.426,215.678l-.074.58,4.194,7.625Zm18.722,19.228,4.228-7.451.016-.755L99.392,204.656Z" transform="translate(-54.262 -147.061)" fill="#6a2874"/>
              <rect id="Rectángulo_459523" data-name="Rectángulo 459523" width="81.285" height="2.821" transform="translate(0 78.619)" fill="#6a2874"/>
              <path id="Trazado_1269518" data-name="Trazado 1269518" d="M153,1.308A1.789,1.789,0,0,1,154.662.15c5.13.362,10.861-.465,15.915-.008,1.053.1,1.771.271,1.923,1.41a76.844,76.844,0,0,1,0,11.049c-.047.553-.157,1.656-.908,1.656h-15.77v4.1a2.925,2.925,0,0,0-2.821,0Zm16.667,1.667H155.821v8.462h13.847Z" transform="translate(-113.768 0)" fill="#6a2874"/>
              <path id="Trazado_1269519" data-name="Trazado 1269519" d="M131.5,117.481c12.707-1.848,14.27,16.436,2.47,17.6-11.163,1.1-13.02-16.065-2.47-17.6m.251,2.815c-6.685,1.144-5.786,12.589,1.956,11.97,8.061-.645,7.155-13.529-1.956-11.97" transform="translate(-92.584 -87.259)" fill="#6a2874"/>
              <path id="Trazado_1269520" data-name="Trazado 1269520" d="M17.681,189.525l-4.9,20.1-2.8-.106,7.7-31.921Z" transform="translate(-7.425 -132.06)" fill="#6a2874"/>
              <path id="Trazado_1269521" data-name="Trazado 1269521" d="M277,177.6l7.7,31.921-2.8.106-4.9-20.1Z" transform="translate(-205.971 -132.06)" fill="#6a2874"/>
              <path id="Trazado_1269522" data-name="Trazado 1269522" d="M149.126,137.6l0,2.31,2.31,0v2.823l-2.31,0,0,2.31H146.3l0-2.31-2.31,0V139.9l2.31,0,0-2.31Z" transform="translate(-107.072 -102.313)" fill="#6a2874"/>
            </g>
          </g>
        </g>
      </g>
      <ellipse id="Elipse_13678" data-name="Elipse 13678" cx="18.074" cy="18.074" rx="18.074" ry="18.074" transform="translate(0.769 113.817)" fill="#da9dfe"/>
      <g id="Grupo_1207826" data-name="Grupo 1207826" transform="translate(0 116.123)">
        <path id="Trazado_998481" data-name="Trazado 998481" d="M0,13.012q4.541.393,9.077.815l-.253.1,1.3-2.34a.35.35,0,0,1,.4-.123.254.254,0,0,1,.184.174l0,.009,1.114,5.034-.836-.059,1.8-4.073,1.816-4.068,1.822-4.067L18.27.354a.772.772,0,0,1,.885-.326.543.543,0,0,1,.472.536V.572L18.9,7.156l-.762,6.581-.773,6.58-.8,6.579-1.5-.222c1.16-2.774,2.354-5.539,3.536-8.307l1.778-4.152,1.8-4.146,0-.01a.657.657,0,0,1,.753-.287.475.475,0,0,1,.413.442L23.082,15.5l-.295,5.285-.776-.111,2.607-5,0-.008a.274.274,0,0,1,.277-.117l4.931.63,4.928.647-4.969-.438-4.966-.456.281-.125L22.763,20.88a.443.443,0,0,1-.508.185.318.318,0,0,1-.269-.285v-.011l.074-5.289.1-5.289,1.17.145-1.676,4.175-1.7,4.17c-1.136,2.779-2.26,5.561-3.418,8.335a.838.838,0,0,1-.96.376c-.35-.082-.566-.334-.536-.6v0l.762-6.581.791-6.579.8-6.579L18.234.48,19.59.7,17.666,4.738,15.723,8.774l-1.948,4.035-1.966,4.029-.005.01a.482.482,0,0,1-.552.192.359.359,0,0,1-.279-.261L10.1,11.718l.586.059-1.431,2.3,0,.007a.257.257,0,0,1-.249.1Q4.5,13.609,0,13.012" transform="translate(0 4.236) rotate(-7)" fill="#fff"/>
      </g>
    </g>
    <path id="Trazado_1267128" data-name="Trazado 1267128" d="M77.377,52.427V64.859a.84.84,0,0,1-.841.84h-10a.841.841,0,0,0-.841.841v10a.841.841,0,0,1-.841.841H52.427a.841.841,0,0,1-.841-.841v-10a.841.841,0,0,0-.84-.841H40.713a.841.841,0,0,1-.841-.84V52.427a.841.841,0,0,1,.841-.841H50.745a.84.84,0,0,0,.84-.84V40.714a.841.841,0,0,1,.841-.841H64.858a.841.841,0,0,1,.841.841V50.746a.841.841,0,0,0,.841.84h10a.841.841,0,0,1,.841.841" transform="translate(630.197 8531.593)" fill="#8d1939"/>
  </g>
</svg>
