<svg xmlns="http://www.w3.org/2000/svg" xmlns:xlink="http://www.w3.org/1999/xlink" width="150" height="150" viewBox="0 0 150 150">
  <defs>
    <clipPath id="clip-path">
      <rect id="Rectángulo_459522" data-name="Rectángulo 459522" width="81.524" height="75.312" fill="#6a2874"/>
    </clipPath>
  </defs>
  <g id="Grupo_1208492" data-name="Grupo 1208492" transform="translate(-561.711 -8567.084)">
    <g id="Grupo_1207828" data-name="Grupo 1207828" transform="translate(561.711 8567.084)">
      <g id="Grupo_1177470" data-name="Grupo 1177470" transform="translate(0 0)">
        <circle id="Elipse_13609" data-name="Elipse 13609" cx="75" cy="75" r="75" fill="#f6e1fe"/>
        <g id="Grupo_1207827" data-name="Grupo 1207827" transform="translate(32.621 32.621)">
          <g id="Grupo_1099618" data-name="Grupo 1099618" transform="translate(0.149 -0.437)">
            <rect id="Rectángulo_401104" data-name="Rectángulo 401104" width="84.532" height="84.532" transform="translate(0)" fill="none"/>
          </g>
          <g id="Grupo_1209330" data-name="Grupo 1209330" transform="translate(1.149 4.563)">
            <g id="Grupo_1209329" data-name="Grupo 1209329" clip-path="url(#clip-path)">
              <path id="Trazado_1269511" data-name="Trazado 1269511" d="M30.784,114.6c.322.3,1.73,1.821,2.011,1.781,2.308-1.86,3.616-5.075,7.193-3.647.9.361,1.435,1.474,1.543,1.49.446.063,1.053-.534,1.575-.661a3.713,3.713,0,0,1,4.11,1.405c1.344,1.908.1,3.352.415,4.3.1.3.676.487.936.827,1.31,1.714.974,3.6-.105,5.317,2.932,3.116,6.5,5.673,8.229,9.714.654,1.531,1.1,3.378,1.625,4.976,1.858-.685,2.553-.753,4.112.491,1.92,1.532,4.175,3.989,2.1,6.348L51.765,159.32c-2.545,1.722-7.968-3.678-6.174-6.152-.049-.638-5.286-1.657-6.144-1.8a40.24,40.24,0,0,0-14.791.259A45.116,45.116,0,0,0,20,152.825c-.2.624.227,1.224.205,1.822-.07,1.961-5.04,7.026-7.21,4.258C9.745,154.782,4.2,151.16,1.042,147.2c-1.217-1.525-1.457-2.833-.241-4.487,1.378-1.875,3.817-4.1,6.22-2.615,1.19-6.489,5.25-10.427,9.855-14.689a4.33,4.33,0,0,1,1.035-6.347c-1.87-4.038,2.279-7.179,5.9-4.841.754-1.742,3.343-2.28,4.961-1.475a9.673,9.673,0,0,1,2.01,1.856m.948,18.465a1.629,1.629,0,0,1-.073-1.821L44.88,118.08c.707-1.25.062-2.5-1.4-1.645l-13.8,13.835a1.492,1.492,0,0,1-2.7-.945l12.173-12.491c.779-1.163-.551-2.134-1.646-1.4L23.522,129.106l-1.251-.272a1.924,1.924,0,0,1-.268-1.5c.334-1.171,6.794-6.348,7.8-7.9.643-2.142-.906-2.192-2.249-1-4.371,3.869-8.275,8.806-12.688,12.7-3.362,2.961-4.288,7.026-5.814,11.039l8.8,8.637c7.444-3.087,15.726-2.508,23.535-3.981-1.844-5.338-6.6-1.027-9.845-2.725-3.225-1.687.85-6.328,2.248-7.982,3.8-4.5,8.536-8.519,12.589-12.8a1.083,1.083,0,0,0-.846-1.828L33.41,133.252a1.772,1.772,0,0,1-1.678-.184M20.5,116.232a3.016,3.016,0,0,0-.3,1.1c.044.988,1.535,1.82,2.133,2.6l1.351-1.58c-.649-.64-2.167-2.758-3.186-2.117m-.033,5.447c-.576-.155-.988-.32-1.5.116l-.243,1.373c.272.307,1.816-1.4,1.741-1.49m22.658,27.387c.038.387.378.377.638.479.562.22,3.154,1.172,3.532,1.225a.662.662,0,0,0,.551-.08l8.442-8.526c-1.377-3.9-2.171-6.99-4.94-10.163-.54-.619-4.5-4.608-4.861-4.608l-.634.371c-2.922,3.225-6.442,6.116-9.328,9.344-.686.768-3.129,3.6-3.354,4.365-.159.542.35.375.613.366,3.011-.108,5.055-1.739,7.968.756,1.286,1.1,4.6,6.071,1.375,6.47M12.9,149.92l-7.74-7.575-2.347,2.4,11.948,11.919c.882.315,2.115-1.727,2.709-2.243Zm37.346,2.27a26.525,26.525,0,0,0-2.382,2.226c.77.524,2.028,2.687,2.978,2.249l11.473-11.453c.59-.858-1.68-2.133-2.131-2.866-3.308,3.283-6.579,6.634-9.937,9.845" transform="translate(0 -84.401)" fill="#6a2874"/>
              <path id="Trazado_1269512" data-name="Trazado 1269512" d="M202.894,16.61H207a2.228,2.228,0,0,1,.494.5,53.719,53.719,0,0,1,.08,7.791c-.477,1.6-5.278.681-6.675.918-.448,2.063,1.259,6.4-1.611,6.729-1.04.121-6.312.121-6.951-.281a2.453,2.453,0,0,1-.648-.846v-3.61c-1.854.941-4.015,3.553-6.237,2.874-1.275-.389-5.419-3.53-6.684-4.518-1.727-1.349-5.764-4.674-6.716-6.478-.849-1.611.436-2.8,1.94-1.942a43.694,43.694,0,0,0,5.877,5.824c1.082.876,5.119,3.936,6.173,4.3.221.078.358.172.588,0l3.067-2.057h-3.61c-.767,0-1.074-1.235-1.132-1.856-.094-1.015-.109-6.372.242-6.937a1.677,1.677,0,0,1,.641-.419h5.851V10.759c0-.621.867-.817,1.365-.871a49.761,49.761,0,0,1,7.174.05c1.015.3.643,2.179.672,3.065.01.3-.186.927.246.867C204.2,6,197.352-.254,189.872,4.21c-.878.524-2.847,2.467-3.535,2.467S183.68,4.734,182.8,4.21c-4.506-2.689-10.084-1.8-11.653,3.685-.388,1.355-.019,3.959-1.741,3.965-3.144.012-.282-6.862.876-8.316,4.094-5.14,11.5-4.221,16.053-.2,4.754-4.106,12.16-4.959,16.265.49,2.923,3.88,2.417,8.665.292,12.78m-4.731-3.984h-3.735v5.851a4.206,4.206,0,0,1-1.12.871h-5.6v3.735h6.1a3.816,3.816,0,0,1,.622.871v5.851h3.735V24.2a4.207,4.207,0,0,1,.871-1.12h5.851V19.348h-5.353c-.357,0-1.369-.733-1.369-1.12Z" transform="translate(-126.157 0)" fill="#6a2874"/>
              <path id="Trazado_1269513" data-name="Trazado 1269513" d="M106.591,32.863c.742.16,2.4,2.567,2.86,2.24.582-1.256,2.552-6.91,3.493-7.342a1.333,1.333,0,0,1,1.238,0c1.058.486,3.887,6.989,4.739,8.336.578.128.4-.075.553-.318.608-.947,2.97-5.9,3.592-6.114,1.877-.656,3.224,2.77,4.491,3.146,1.154.343,3.569-.548,4.182.8,1.016,2.239-4.563,2.016-5.676,1.686-.574-.171-1.467-1.553-2.043-1.936-.373,0-3.035,5.676-3.75,6.453-.966,1.05-1.635.843-2.46-.247-.749-.989-3.543-6.988-4-7.2-.491-.114-.345.191-.5.484-.647,1.261-2.158,6.061-3.524,6.184-1.068.1-3.481-3.172-4.322-3.553-.985-.447-2.661.161-3.732-.251a1.559,1.559,0,0,1,.127-2.368Z" transform="translate(-76.039 -20.735)" fill="#6a2874"/>
              <path id="Trazado_1269514" data-name="Trazado 1269514" d="M19.028,239.009c1.146,1.158-.744,2.77-1.706,1.579a1.169,1.169,0,0,1,1.706-1.579" transform="translate(-12.813 -179.265)" fill="#6a2874"/>
              <path id="Trazado_1269515" data-name="Trazado 1269515" d="M238.028,239.009c1.146,1.158-.744,2.77-1.706,1.579a1.169,1.169,0,0,1,1.706-1.579" transform="translate(-177.287 -179.265)" fill="#6a2874"/>
            </g>
          </g>
        </g>
      </g>
      <ellipse id="Elipse_13678" data-name="Elipse 13678" cx="18.074" cy="18.074" rx="18.074" ry="18.074" transform="translate(0.769 113.817)" fill="#da9dfe"/>
      <g id="Grupo_1207826" data-name="Grupo 1207826" transform="translate(0 116.123)">
        <path id="Trazado_998481" data-name="Trazado 998481" d="M0,13.012q4.541.393,9.077.815l-.253.1,1.3-2.34a.35.35,0,0,1,.4-.123.254.254,0,0,1,.184.174l0,.009,1.114,5.034-.836-.059,1.8-4.073,1.816-4.068,1.822-4.067L18.27.354a.772.772,0,0,1,.885-.326.543.543,0,0,1,.472.536V.572L18.9,7.156l-.762,6.581-.773,6.58-.8,6.579-1.5-.222c1.16-2.774,2.354-5.539,3.536-8.307l1.778-4.152,1.8-4.146,0-.01a.657.657,0,0,1,.753-.287.475.475,0,0,1,.413.442L23.082,15.5l-.295,5.285-.776-.111,2.607-5,0-.008a.274.274,0,0,1,.277-.117l4.931.63,4.928.647-4.969-.438-4.966-.456.281-.125L22.763,20.88a.443.443,0,0,1-.508.185.318.318,0,0,1-.269-.285v-.011l.074-5.289.1-5.289,1.17.145-1.676,4.175-1.7,4.17c-1.136,2.779-2.26,5.561-3.418,8.335a.838.838,0,0,1-.96.376c-.35-.082-.566-.334-.536-.6v0l.762-6.581.791-6.579.8-6.579L18.234.48,19.59.7,17.666,4.738,15.723,8.774l-1.948,4.035-1.966,4.029-.005.01a.482.482,0,0,1-.552.192.359.359,0,0,1-.279-.261L10.1,11.718l.586.059-1.431,2.3,0,.007a.257.257,0,0,1-.249.1Q4.5,13.609,0,13.012" transform="translate(0 4.236) rotate(-7)" fill="#fff"/>
      </g>
    </g>
    <path id="Trazado_1267128" data-name="Trazado 1267128" d="M77.377,52.427V64.859a.84.84,0,0,1-.841.84h-10a.841.841,0,0,0-.841.841v10a.841.841,0,0,1-.841.841H52.427a.841.841,0,0,1-.841-.841v-10a.841.841,0,0,0-.84-.841H40.713a.841.841,0,0,1-.841-.84V52.427a.841.841,0,0,1,.841-.841H50.745a.84.84,0,0,0,.84-.84V40.714a.841.841,0,0,1,.841-.841H64.858a.841.841,0,0,1,.841.841V50.746a.841.841,0,0,0,.841.84h10a.841.841,0,0,1,.841.841" transform="translate(630.197 8531.593)" fill="#8d1939"/>
  </g>
</svg>
