<svg xmlns="http://www.w3.org/2000/svg" xmlns:xlink="http://www.w3.org/1999/xlink" width="113.341" height="113.341" viewBox="0 0 113.341 113.341">
  <defs>
    <clipPath id="clip-path">
      <rect id="Rectángulo_459531" data-name="Rectángulo 459531" width="77.216" height="62.597" fill="#6a2874"/>
    </clipPath>
  </defs>
  <g id="Grupo_1209839" data-name="Grupo 1209839" transform="translate(-587.643 -3401.806)">
    <path id="Trazado_998483" data-name="Trazado 998483" d="M125.718,69.047a56.67,56.67,0,1,1-56.67-56.67,56.671,56.671,0,0,1,56.67,56.67" transform="translate(575.266 3389.429)" fill="#fff"/>
    <g id="Grupo_1209359" data-name="Grupo 1209359" transform="translate(603.711 3428)" clip-path="url(#clip-path)">
      <path id="Trazado_1269595" data-name="Trazado 1269595" d="M37.268,52.523a19.936,19.936,0,1,1-30.661-24.7c-4.8-6.37,2.1-10.965,8.2-8.267L15.971,4.9A6.376,6.376,0,0,1,21.328.3c12.758.73,26.545-.941,39.182,0,6.009.447,5.677,5.411,6.078,9.853.283,3.132.546,6.282.885,9.406,2.467-1.163,6.85-1.1,8.626,1.218a5,5,0,0,1-4.645,8.076l1.7,4.6c.5,3.883,2.208,8.128,2.663,11.94.449,3.759-1.066,6.281-4.781,7.166-.346,2.988,1.275,9.238-3.031,9.912a38.487,38.487,0,0,1-6.384-.006c-.993-.135-3.007-1.566-3.007-2.525v-7.08l-.332-.332ZM65.257,23.758,63.906,6.413C63.528,4,62.244,2.9,59.846,2.729c-12.3-.892-25.66.688-38.068.009a3.76,3.76,0,0,0-3.326,2.648L17.022,22.873c.568,0,2.451-.068,2.626-.582l.942-14.1c.229-1.988.881-2.841,2.95-3.024l36.147.159a2.491,2.491,0,0,1,1.76,2l1.185,15.409ZM59.062,7.828H23.217L22.11,22.653l2.848-.03a8.747,8.747,0,0,1,17.288.029H60.169ZM39.591,22.652c-1.177-6.518-10.768-6.522-11.948,0ZM9,21.6c-1.881.475-1.9,3.974-.45,4.34.383.1,2.608-1.271,3.234-1.557.589-.269,2.663-.785,2.785-1.213.574-2.021-4.546-1.828-5.568-1.57m65.033,4.075a2.467,2.467,0,0,0-1.359-4.135,12.333,12.333,0,0,0-4.18.256c-1.479.753-.959,3.81.528,4.5.909.424,4.2.183,5.01-.624m-54.845-.524C5.3,25.7-2.328,41.7,5.867,52.947A17.445,17.445,0,1,0,19.189,25.152m38.767-.066h-28.1c1.108,1.154,2.6,1.887,3.764,2.984a22.144,22.144,0,0,1,5.664,9.642l11.6-.12a11.467,11.467,0,0,1,1.867-3.222,13.126,13.126,0,0,1,3.424-1.887Zm12.391,7.523A11.56,11.56,0,0,0,62,25.361c-.515-.089-1.21-.3-1.419.25-.792,2.073-1.111,4.827-1.738,7ZM73.223,45l-2.575-9.927c-4.228.2-8.853-.366-13.032-.038a4.587,4.587,0,0,0-3.2,1.227A5.633,5.633,0,0,0,53.3,38.454c0,.079.852.7,1.082,1.158a10.2,10.2,0,0,1,.475,1.295V45ZM42.246,40.132H39.812V45h2.434Zm5.089,0H44.9V45h2.434Zm2.434,0V45H52.2V40.907c0-.888-1.833-.826-2.434-.774m23.454,7.523H39.148l-.664,2.434H70.9c.67,0,2.523-1.537,2.323-2.434m-7.3,12.391c.9.138,2.655.009,2.655-1.217V52.855l-.332-.332H61.054v6.749c0,.662,1.873.961,2.434.774V55.289c.583-.63,1.643-.232,2.434-.332Z" transform="translate(0 0)" fill="#6a2874"/>
      <path id="Trazado_1269596" data-name="Trazado 1269596" d="M27.084,146.795c3.728-.443,12.538-.382,15.909,1,7.438,3.06,13.255,16.081,2.846,18.856-6.027-.46-12.889.587-18.814-.012-6.309-.637-5.983-8.2-5.654-12.951.247-3.559,1.916-6.447,5.713-6.9m.438,2.43a3.927,3.927,0,0,0-3.468,3.17,56.456,56.456,0,0,0-.006,8.818,3.772,3.772,0,0,0,3.628,3.009c5.63.5,12-.395,17.711-.008,4.361-.614,3.885-5.162,2.547-8.3a11.148,11.148,0,0,0-7.086-6.19c-2.844-.749-10.388-.92-13.327-.5" transform="translate(-16.528 -114.123)" fill="#6a2874"/>
      <path id="Trazado_1269597" data-name="Trazado 1269597" d="M260.442,167.234l.44-.144c1.913-5.851,10.073-1.155,6.411,3.347a3.681,3.681,0,0,1-6.52-1.653c-.4.345-.369.9-.674,1.317a3.727,3.727,0,1,1-6.074-4.3c1.818-2.463,6.039-1.645,6.417,1.437m-3.623-.385c-1.416.152-1.561,2.708.4,2.379a1.208,1.208,0,0,0-.4-2.379m7.528-.011a1.217,1.217,0,1,0,.4,2.388c1.374-.226.872-2.5-.4-2.388" transform="translate(-197.174 -127.986)" fill="#6a2874"/>
      <path id="Trazado_1269598" data-name="Trazado 1269598" d="M55.141,174.17c1.085-6.128,10.238-4.977,9.735,1.436-.442,5.635-9.041,6.062-9.735.335-.575.584-.713,1.5-1.23,2.2-3.227,4.344-10.42.889-8.663-4.68a5.017,5.017,0,0,1,8.529-1.573c.6.74.718,1.662,1.364,2.285m-5.81-1.5c-2.581.524-2.479,4.673.385,4.832,3.9.217,3.4-5.6-.385-4.832m9.957,0c-2.514.511-2.508,4.674.385,4.832,3.949.216,3.386-5.6-.385-4.832" transform="translate(-35.024 -132.489)" fill="#6a2874"/>
    </g>
  </g>
</svg>
