<svg xmlns="http://www.w3.org/2000/svg" xmlns:xlink="http://www.w3.org/1999/xlink" width="69" height="69" viewBox="0 0 69 69">
  <defs>
    <clipPath id="clip-path">
      <rect id="Rectángulo_459539" data-name="Rectángulo 459539" width="42" height="42" fill="#fff"/>
    </clipPath>
  </defs>
  <g id="Grupo_1208502" data-name="Grupo 1208502" transform="translate(-305.059 -11337.507)">
    <g id="Elipse_13679" data-name="Elipse 13679" transform="translate(305.059 11337.507)" fill="#6a2874" stroke="#707070" stroke-width="1">
      <circle cx="34.5" cy="34.5" r="34.5" stroke="none"/>
      <circle cx="34.5" cy="34.5" r="34" fill="none"/>
    </g>
    <g id="Grupo_1209373" data-name="Grupo 1209373" transform="translate(319.059 11351.507)">
      <g id="Grupo_1209372" data-name="Grupo 1209372" clip-path="url(#clip-path)">
        <path id="Trazado_1269628" data-name="Trazado 1269628" d="M33.684,4.166C36.5,6.919,39.311,9.7,42,12.587l-.009,16.84L29.43,42l-16.913-.038L0,29.343.066,12.5,12.6.022,29.331,0c1.477,1.31,2.922,2.767,4.353,4.166M13.926,3.535,3.5,14.011v14L13.926,38.488H28.1L38.532,28.011v-14L28.1,3.535Z" fill="#fff"/>
        <path id="Trazado_1269629" data-name="Trazado 1269629" d="M60.251,37.107l9.686,9.732V60.112l-9.974,9.872H46.751l-9.974-9.871V46.839l9.974-9.871,12.881-.03ZM47.389,45.239v9.992l-.859-2.1c-.831-1.778-2.9-3.111-4.856-2.366-1.182.451-1.175,1.407-.778,2.454a46.269,46.269,0,0,0,3.067,6c1.148,1.834,2.992,3.519,4.2,5.345l.371.233,10.875-.091c2.377-1.3,3.151-4.329,3.295-6.864a78.188,78.188,0,0,0-.007-9.815c-.183-1.81-1.8-2.444-3.373-1.758C59.6,43.989,57.8,42.6,55.709,43.6a2.481,2.481,0,0,0-4.945.363,2.62,2.62,0,0,0-2.82.375,5.724,5.724,0,0,0-.554.9" transform="translate(-32.343 -32.464)" fill="#fff"/>
        <path id="Trazado_1269630" data-name="Trazado 1269630" d="M91,94.429a2.131,2.131,0,0,0,.155-.752c.223-2.883-.182-6.046,0-8.96a1.257,1.257,0,0,1,2.4,0c.184,2.79-.221,5.84,0,8.6.081,1,.707,1.393,1.082.351l.077-6.468a1.241,1.241,0,0,1,2.341.664,74.6,74.6,0,0,1,.007,9.208c-.12,2.275-.611,4.982-2.663,6.288l-10.24,0-4.081-5.106c-.337-1.149-3.262-5.649-3.135-6.493.153-1.012,2.167-.559,2.812-.087,1.5,1.1,1.623,3.034,2.328,4.565.4.871,1.465,1.876,1.6.345.309-3.635-.247-7.7,0-11.383a1.227,1.227,0,0,1,2.407.112c.308,2.646-.389,6.15.005,8.715.028.183.122.482.314.541.693.079.724-.317.767-.892.262-3.432-.211-7.189,0-10.655a1.5,1.5,0,0,1,2.879.122c.3,3.406-.376,7.444.006,10.774.066.575.55.964.937.512" transform="translate(-67.664 -72.056)" fill="#fff"/>
      </g>
    </g>
  </g>
</svg>
