<svg xmlns="http://www.w3.org/2000/svg" width="113.341" height="113.341" viewBox="0 0 113.341 113.341">
  <g id="Grupo_1209838" data-name="Grupo 1209838" transform="translate(-275.643 -3401.806)">
    <path id="Trazado_998483" data-name="Trazado 998483" d="M125.718,69.047a56.67,56.67,0,1,1-56.67-56.67,56.671,56.671,0,0,1,56.67,56.67" transform="translate(263.266 3389.429)" fill="#fff"/>
    <path id="Trazado_1269599" data-name="Trazado 1269599" d="M11.686,34.868h3.958v3.77H11.686Zm0-15.455h3.958v11.5H11.686Zm0-7.728h3.958v3.77H11.686Zm7.728-3.958H54.281V42.6H19.413ZM3.958,3.958H7.916v65.4H3.958ZM0,0V73.317H11.686V42.6h3.958v3.77h42.6V4.052l-.283-.283H15.644V7.727H11.686V0Z" transform="translate(303.711 3422)" fill="#6a2874"/>
  </g>
</svg>
