<svg xmlns="http://www.w3.org/2000/svg" xmlns:xlink="http://www.w3.org/1999/xlink" width="113.341" height="113.341" viewBox="0 0 113.341 113.341">
  <defs>
    <clipPath id="clip-path">
      <rect id="Rectángulo_459529" data-name="Rectángulo 459529" width="76.991" height="68.72" fill="#6a2874"/>
    </clipPath>
  </defs>
  <g id="Grupo_1209840" data-name="Grupo 1209840" transform="translate(-899.643 -3401.806)">
    <path id="Trazado_998483" data-name="Trazado 998483" d="M125.718,69.047a56.67,56.67,0,1,1-56.67-56.67,56.671,56.671,0,0,1,56.67,56.67" transform="translate(887.266 3389.429)" fill="#fff"/>
    <g id="Grupo_1209355" data-name="Grupo 1209355" transform="translate(917.711 3422.789)" clip-path="url(#clip-path)">
      <path id="Trazado_1269583" data-name="Trazado 1269583" d="M48.449,15.83c.406.3,3.467-2.9,3.884-3.03a1.63,1.63,0,0,1,1.786.539c.787.824,2.636,4.09,1.253,4.918-1.951,1.168-2.577-1.521-2.865-1.544a15.284,15.284,0,0,1-4.6,2.637c-3.4.9-2.335-1.861-2.561-4.042-.34-3.289-2.5-7.52-4.579-10.01a45.328,45.328,0,0,1-5.31,11.478c-3.024,4.388-3.782-.082-6.536-1.941l-.548.123a143.267,143.267,0,0,0-7.8,16.449,7.478,7.478,0,0,1,7.434,4.527c.427.9.048,1.671,1.543,1.379A21.049,21.049,0,0,1,33,29.234c.938-1.488,5.134-7.453,6.332-8.148,1.536-.892,2.892,1.232,3.527,2.42a8.025,8.025,0,0,1,.984,4.612c2.381-.434,2.4-.259,3.6,1.554a19.777,19.777,0,0,1,3.222,7.639h2.37a7.394,7.394,0,0,1,1.783-3.592,25.527,25.527,0,0,1,2.3-1.649c.517-.844-.633-3.441,1.106-3.735,2-.339,1.973,1.652,1.852,3.075a7.249,7.249,0,0,1,7.483,5.9c.294.253,6.6-.145,7.755.035,1.053.165,1.362.88,1.45,1.842a93.486,93.486,0,0,1-.009,13.177,9.335,9.335,0,0,1-4.1,5.994c-4.057,2.514-9.355.8-13.891,1.469l-9.115,8.878-32.7.013c-3.786-.262-5.866-3.754-8.437-6.045s-7.151-4.7-8.057-8.18c-.617-2.367-.5-9.981-.293-12.672C.67,35.095,9.292,37.954,13.748,37.3A11.931,11.931,0,0,1,15,34.5c.5-.709,1.9-1.581,2.168-2,.321-.5.741-2.537,1.055-3.333a154.507,154.507,0,0,1,8.712-17.777,2.336,2.336,0,0,1,1.03-.541c1.283-.094,4.236,3.1,5.34,3.889C35.491,10.325,38.221,5.926,38.668.9,40.3-1.54,42.141,1.61,43.14,3.035a29.3,29.3,0,0,1,5.309,12.8m-15.8,21.5H47.569c-.277-2.266-1.6-4.171-2.677-6.1-1.219-.285-2.32.732-3.447.045-1.326-.809-.438-2.528-.452-3.7a9.446,9.446,0,0,0-.777-2.757c-.393-.006-1.228,1.212-1.511,1.561C36.2,29.48,33.5,33.426,32.648,37.334m-12.787-2.8c-4.456.905-4.2,8.32.6,8.738,7.2.627,6.57-10.193-.6-8.738m39.28,0A4.551,4.551,0,0,0,55.926,37.9c-1.021,7.351,10.222,7.037,8.66-.36-.505-2.392-3.21-3.388-5.445-3.007M7.634,40.406H4.013c-.8,0-.887,2.246-.768,2.853H6.866c.693,0,.926-2.3.768-2.853m-.549,5.924c-1.122.186-2.663-.136-3.84,0v4.388H9.279c.249,0,1.426.866,1.426,1.207V58.18l8.667-5.924h18.1V40.406H28.589c-.744,1.642-1.195,2.963-2.638,4.164a7.541,7.541,0,0,1-12.2-4.135L10.7,40.405c.436,2.328-1.157,5.517-3.619,5.926m45.969-5.924H40.328V52.255h8.228c2.088,0,4.455,3.578,6.144,4.608h9.984V52.145c0-.567,1.112-1.426,1.646-1.426H73.68V46.331h-7.79c-.345,0-1.16-.836-.99-1.317a16,16,0,0,1-3.839,1.314,7.408,7.408,0,0,1-8.008-5.922m20.626,0H67.756v2.853H73.68ZM7.634,53.791H3.465c.488,2.077,2.731,3.044,4.169,4.388Zm65.388,0H67.756v3.072a6.986,6.986,0,0,0,5.266-3.072M34.184,65.859h3.4c1.049-.852,2.187-4.536,3.528-4.606a1.482,1.482,0,0,1,1.64,1.431c.009,1.287-1.122,1.961-1.328,3.175h7.131l5.817-6.032c-2.63-.473-3.863-2.99-5.915-4.4L20.9,55.316a1.853,1.853,0,0,0-1.053.264c-1.552.67-6,4.158-7.576,5.378a1.341,1.341,0,0,1-.685.3c-.087.32.087.365.213.549,1.091,1.593,3.852,3.854,5.822,4.052,4.073.409,8.765-.307,12.907.012.795-1.008,3.956-7.2,4.686-7.429,1.1-.34,2.405.308,2.226,1.553-.112.78-3.531,5.624-3.255,5.867" transform="translate(0 0)" fill="#6a2874"/>
      <path id="Trazado_1269584" data-name="Trazado 1269584" d="M254.993,99.053c2.443-.734,2.894,3.714-.224,2.765-1.185-.361-.894-2.429.224-2.765" transform="translate(-198.271 -77.254)" fill="#6a2874"/>
      <path id="Trazado_1269585" data-name="Trazado 1269585" d="M209.387,213.344c-.718.765-4.735.858-5.4-.3-1.668-2.891,5.214-2.857,5.637-1.468a2.431,2.431,0,0,1-.235,1.766" transform="translate(-159.022 -164.436)" fill="#6a2874"/>
      <path id="Trazado_1269586" data-name="Trazado 1269586" d="M130.738,210.818c1-.229,4.4-.358,4.792.817.994,2.988-4.912,2.641-5.621,1.455a1.508,1.508,0,0,1,.828-2.272" transform="translate(-101.225 -164.44)" fill="#6a2874"/>
      <path id="Trazado_1269587" data-name="Trazado 1269587" d="M92.065,170.492c1.229,1.525-1.135,3.486-2.281,2.067-1.266-1.567,1.041-3.605,2.281-2.067" transform="translate(-69.796 -132.656)" fill="#6a2874"/>
      <path id="Trazado_1269588" data-name="Trazado 1269588" d="M269.248,170.2a1.529,1.529,0,1,1,.37,3.036,1.529,1.529,0,0,1-.37-3.036" transform="translate(-209.229 -132.829)" fill="#6a2874"/>
    </g>
  </g>
</svg>
