<svg xmlns="http://www.w3.org/2000/svg" xmlns:xlink="http://www.w3.org/1999/xlink" width="187.711" height="135.207" viewBox="0 0 187.711 135.207">
  <defs>
    <clipPath id="clip-path">
      <rect id="Rectángulo_459383" data-name="Rectángulo 459383" width="118.087" height="118.334" fill="none"/>
    </clipPath>
  </defs>
  <g id="Grupo_1209132" data-name="Grupo 1209132" transform="translate(-185.711 -1047)">
    <g id="Grupo_1208298" data-name="Grupo 1208298" transform="translate(-103.566 -7821.039)">
      <g id="Grupo_1204518" data-name="Grupo 1204518" transform="translate(289.277 8868.039)">
        <rect id="Rectángulo_455283" data-name="Rectángulo 455283" width="187.711" height="135.207" rx="19" fill="#e9c3ff"/>
      </g>
    </g>
    <g id="Grupo_1209131" data-name="Grupo 1209131" transform="translate(220.711 1055)">
      <g id="Grupo_1209130" data-name="Grupo 1209130" clip-path="url(#clip-path)">
        <path id="Trazado_1269035" data-name="Trazado 1269035" d="M92.752,38.865c6.4-.3,10.792,3.253,13.757,8.558,1.785,3.193,8.479,15.911,8.917,18.679.612,3.866-.358,8.407.138,12.127.185,1.39,1.6,3.474,1.973,5.182,1.4,6.491-.288,13.2-.609,19.659-.3,5.976.641,12.972.015,18.753a5.626,5.626,0,0,1-3.9,4.955c-9.483,2.71-6.665-12.981-8.2-18.077-.942-.067-6.9,2.639-7.484,3.418-2.193,2.914-1.619,10.94-3.747,12.948-2.87,2.708-8.339.754-8.385-3.241-.024-2.043,1.955-12.885,2.816-14.592.495-.98,4.359-5.219,4.027-5.678a14.944,14.944,0,0,0-7.97-1.331c-12.364,1.319-26.323,6.775-38.865,8.49l-3.494,2.3-10.313.42c-.871.885,3.765,5.525,4.368,6.7,1.023,2,2.735,11.788,2.808,14.242.111,3.76-2.974,5.719-6.5,4.784-5.158-1.366-1.943-11.956-7.133-15.01A42.334,42.334,0,0,0,19,119.6l-1.219,14.122c-1.137,5.939-9.875,5.631-10.548.029-.591-4.919.268-11.226.022-16.375-.308-6.442-1.754-12.844-1.371-19.4.067-1.156,1.228-4.47.342-5.124a24.212,24.212,0,0,1-2.709-1.037,7.572,7.572,0,0,1-3.09-5.086C1.435,73.112-.921,57.536.431,44.148a10.945,10.945,0,0,1,10.052-9.367l60.485.146c1.559.491,2.375,3.573,3.275,3.88,1.162.4,3.547-.169,4.885.059-.923-11.909,14.652-11.92,13.624,0m-3.746,0c.328-2.42-.343-5.266-3.244-5.144-3.277.138-3.29,5.144-2.377,5.144Zm6.471,28.279c-2.892-.349-23,.649-23.879-.48a1.794,1.794,0,0,1-.323-1.039c-.9-7.281.717-16.367,0-23.846-.136-.814-1.5-2.959-2.267-3.184l-58.184-.066c-4.044.512-6.365,2.883-6.662,6.965-.952,13.1.748,27.341.007,40.565a3.255,3.255,0,0,0,2.989,3.151c2.581.41,3.7-2.792,6.557-2.309C14.087,86.58,11.4,84.5,11,84c-3.846-4.831-2.327-12.4,3.32-15.06,9.748-4.592,18.643,7.329,11.671,15.419l-2.733,2.2A14.879,14.879,0,0,1,28.09,87c1.213.44,1.966,1.91,2.476,1.968l45.675.34c2.191-2.98,5.707-2.2,8.942-3.338,4.889-1.725,5.553-5.43,8.755-8.62,2.256-2.248,4-1.683,6.99-1.7-.554-.707-1.492-1.009-2.22-1.693a9.255,9.255,0,0,1-3.232-6.819m-.168-24.531H75.038V63.393l1.02,0c-.025-2.032-.286-3.6,1.016-5.3.275-.359,1.051-.429,1.051-.679,0-.635-1.747-2.749-1.983-4.151A6.993,6.993,0,0,1,88,47.2c3.009,3.023,2.365,7.272-.355,10.228,2.193,1.3,3.548,2.132,4.737,4.474.2.4.355,1.4.412,1.455a15.072,15.072,0,0,0,3.316-.016c.174-.109,1.266-2.7,2.083-3.537a10.4,10.4,0,0,1,8.53-2.883c-1.985-4.222-3.787-10.467-8.071-12.878a18.673,18.673,0,0,0-3.34-1.429M85.494,49.87c-2.6-2.807-7.361.542-5.161,3.97,2.452,3.82,8.278-.611,5.161-3.97m3.172,13.523c.137-1-2.445-2.726-3.237-2.726H79.808v2.726Zm15.241-2.642a6.326,6.326,0,0,0-4.6,4.6c-1.088,6.476,6.649,10.159,10.655,5.207,3.754-4.64-.226-10.8-6.058-9.8M14.173,82.013c5.622,6,14.682-3.114,8.584-8.755-5.79-5.357-13.775,3.215-8.584,8.755M111.831,74.3l-2.381,1.358,2.381.343ZM87.644,89.626H98.205c1.645-4.166,3.855-9.9,9.436-7.562a5.309,5.309,0,0,1,3.021,5.876c-.27,1.321-3.688,8.1-4.554,9.418-2.5,3.8-5.616,2.689-9.592,2.844.211,3.8-4.148,6.237-5.291,9.188-1.327,3.427-1.141,8.722-2.181,12.379.306.523,1.348,1.274,1.833.56.522-.769,1.276-6.738,1.788-8.434,1.634-5.416,4.933-6.969,10.135-8.6,2.569-.806,4.59-1.429,5.895,1.61.67,4.543.224,10.158,1.118,14.554.53,2.609,2.955,2.5,3.364,0,.838-5.111-.265-13.159.005-18.732.153-3.15.928-6.652,1.05-9.852.126-3.308.4-12.76-3.952-13.452-3.855-.612-9.191.367-13.212.036-2.233,2.553-3.894,5.589-6.537,7.772-.387.32-3.461,1.895-2.887,2.393m17.626-4.384c-2.018.281-3.409,7.092-5.1,7.882-1.186.553-8.443.306-10.327.267-1.824-.038-6.92-1.315-7.82.674-.669,1.477.728,2.232,2.037,2.384,4.026.469,9.744-.035,13.989-.023,1.725,0,3.482,1,4.876-.887.441-.6,4-7.727,4.085-8.213a1.744,1.744,0,0,0-1.74-2.083m-68.391,14.95C32,98.746,29.9,93.551,26.419,90.378c-3.371.354-12.521-1.231-14.754,1.213-4.008,4.386-.948,19.6-.662,25.447.239,4.877-.628,11.092-.03,15.7a1.563,1.563,0,0,0,3.014.6l1.454-15.58c1.4-4.043,8.451-.524,11.007.87,3.017,1.646,3.722,2.943,4.73,6.172.489,1.565,1.407,7.918,1.775,8.445.485.695,1.907.422,1.9-.53-.793-3.514-.91-7.715-1.815-11.138-1-3.784-5.4-5.87-5.742-10.1-2.978-.163-6.546.552-8.761-1.97a83.659,83.659,0,0,1-5.085-9.9c-.895-4.32,2.064-7.744,6.489-6.828,3.83.792,4.795,7.543,6.266,8.04,3.26-.136,6.573-.111,9.829-.284.384-.02.935.223.844-.337m27.256-7.157-30.663-.169c1.848,3.414,6.713,5.262,10.4,5.306,3.762.044,15.129-3.34,19.439-4.45.564-.145,1,.348.829-.686m13.893,1.78a2.641,2.641,0,0,0-2.041-.349l-28.008,6.7-.534,3.105,30.762-6.54c.965-.035.126-2.6-.179-2.918M17.688,96.494c-.759.266-.939,1.295-.766,1.988a81.326,81.326,0,0,0,4,7.956,2.553,2.553,0,0,0,1.294,1.091c1.724.54,9.48.251,11.785.167,1.787-.065,4.857-.122,6.475-.339,2.128-.285,2.006-2.754.315-3.072-4.657-.015-9.314-.01-13.972-.025-1.611-.005-2.481.916-3.855-.886-.991-1.3-2.427-5.841-3.281-6.6a2.151,2.151,0,0,0-1.993-.283" transform="translate(0 -19.733)" fill="#050505"/>
        <path id="Trazado_1269036" data-name="Trazado 1269036" d="M218.863,11.3c1.326-.2,6.031,4.535,5.83,5.83-.713,4.6-7.328-2.014-7.437-3.694a2.092,2.092,0,0,1,1.606-2.136" transform="translate(-143.237 -7.447)" fill="#050505"/>
        <path id="Trazado_1269037" data-name="Trazado 1269037" d="M247.222.115c4.039-1.246,3.495,8.089,1.28,8.457C244.7,9.2,245.573.623,247.222.115" transform="translate(-162.067 0)" fill="#050505"/>
        <path id="Trazado_1269038" data-name="Trazado 1269038" d="M270.325,12.226a1.916,1.916,0,0,1,2.3,2.66,56.105,56.105,0,0,1-4.26,4.256c-2.15.918-3.784-.568-2.675-2.673.388-.737,3.871-4.084,4.633-4.243" transform="translate(-174.938 -8.026)" fill="#050505"/>
        <path id="Trazado_1269039" data-name="Trazado 1269039" d="M274.02,44.763c-1.151-.322-1.322-2.825.259-3.489,1.023-.43,6.019-.485,6.869.108,1.372.957.466,3.381-.314,3.381-1.512,0-5.731.3-6.814,0" transform="translate(-180.074 -26.995)" fill="#050505"/>
        <path id="Trazado_1269040" data-name="Trazado 1269040" d="M102.95,83.779a9.256,9.256,0,0,0,3.231,6.819c.727.684,1.666.986,2.22,1.693-2.989.016-4.733-.549-6.99,1.7-3.2,3.191-3.866,6.895-8.755,8.62-3.236,1.142-6.751.358-8.942,3.338l-45.676-.34c-.51-.059-1.264-1.528-2.476-1.968a14.872,14.872,0,0,0-4.835-.448l2.733-2.2c6.972-8.089-1.923-20.01-11.671-15.419-5.646,2.66-7.166,10.229-3.32,15.061.4.506,3.09,2.584,2.715,2.9-2.855-.483-3.976,2.718-6.557,2.309a3.255,3.255,0,0,1-2.989-3.151c.742-13.224-.958-27.463-.006-40.565.3-4.083,2.618-6.453,6.662-6.965l58.184.066c.766.225,2.131,2.371,2.267,3.184.72,7.479-.895,16.565,0,23.846a1.8,1.8,0,0,0,.323,1.039c.881,1.128,20.987.13,23.88.479m-49.058-10.9V65.21a6.371,6.371,0,0,0-.82-1.565c-.664-.519-9.376-.5-10.191.007a2.3,2.3,0,0,0-.573.877v8.347H33.962a2.3,2.3,0,0,0-.877.573c-.459.74-.484,7.908-.294,9.115.062.395.527,1.555.83,1.555h8.688v8.347a3.36,3.36,0,0,0,.887,1.157c.876.55,6.808.538,8.149.384,1.13-.13,2.548-1.042,2.548-2.222V84.118h8.347c1.571,0,1.329-7.394,1.208-8.7-.058-.629-.518-2.539-1.208-2.539Z" transform="translate(-7.473 -36.37)" fill="#fff"/>
        <path id="Trazado_1269041" data-name="Trazado 1269041" d="M257.114,185.011c-.574-.5,2.5-2.073,2.888-2.393,2.642-2.183,4.3-5.219,6.537-7.772,4.021.33,9.357-.649,13.212-.036,4.356.692,4.077,10.144,3.951,13.452-.122,3.2-.9,6.7-1.05,9.852-.27,5.573.833,13.622-.005,18.732-.408,2.493-2.833,2.6-3.363,0-.894-4.4-.448-10.011-1.118-14.554-1.3-3.039-3.326-2.416-5.895-1.61-5.2,1.634-8.5,3.187-10.135,8.6-.512,1.7-1.266,7.665-1.788,8.433-.485.714-1.527-.037-1.833-.56,1.04-3.657.854-8.952,2.181-12.379,1.143-2.951,5.5-5.389,5.291-9.188,3.976-.155,7.095.954,9.592-2.844.866-1.317,4.284-8.1,4.554-9.418a5.309,5.309,0,0,0-3.021-5.876c-5.581-2.34-7.792,3.395-9.436,7.562Z" transform="translate(-169.471 -115.118)" fill="#eabb5d"/>
        <path id="Trazado_1269042" data-name="Trazado 1269042" d="M55.488,216.819c.092.56-.459.316-.844.337-3.256.172-6.569.148-9.829.284-1.472-.5-2.437-7.248-6.266-8.04-4.426-.915-7.384,2.508-6.489,6.828a83.66,83.66,0,0,0,5.085,9.9c2.214,2.522,5.783,1.807,8.761,1.97.343,4.231,4.741,6.317,5.742,10.1.905,3.423,1.022,7.624,1.815,11.138.007.952-1.415,1.225-1.9.53-.368-.527-1.286-6.88-1.775-8.445-1.008-3.229-1.714-4.526-4.73-6.172-2.557-1.394-9.611-4.912-11.007-.87L32.6,249.964a1.563,1.563,0,0,1-3.014-.6c-.6-4.61.268-10.825.03-15.7-.286-5.842-3.346-21.061.662-25.447,2.234-2.444,11.383-.859,14.754-1.213,3.485,3.173,5.581,8.368,10.459,9.814" transform="translate(-18.61 -136.36)" fill="#9fc0f8"/>
        <path id="Trazado_1269043" data-name="Trazado 1269043" d="M240.523,67.152a18.639,18.639,0,0,1,3.34,1.429c4.284,2.411,6.086,8.656,8.071,12.878a10.4,10.4,0,0,0-8.53,2.883c-.817.84-1.91,3.428-2.084,3.536a15.028,15.028,0,0,1-3.316.016c-.057-.05-.21-1.057-.412-1.455-1.189-2.342-2.544-3.175-4.737-4.474,2.721-2.956,3.364-7.206.355-10.228A6.992,6.992,0,0,0,221.357,77.8c.235,1.4,1.983,3.515,1.982,4.151,0,.25-.776.32-1.051.679-1.3,1.7-1.041,3.271-1.016,5.3l-1.021,0V67.152Z" transform="translate(-145.215 -44.274)" fill="#d4e4ff"/>
        <path id="Trazado_1269044" data-name="Trazado 1269044" d="M295.893,120.187c5.832-1,9.812,5.163,6.058,9.8-4.006,4.952-11.743,1.269-10.655-5.207a6.327,6.327,0,0,1,4.6-4.6" transform="translate(-191.986 -79.169)" fill="#f6ceb6"/>
        <path id="Trazado_1269045" data-name="Trazado 1269045" d="M38.353,162.586c-5.191-5.54,2.794-14.112,8.584-8.755,6.1,5.642-2.962,14.756-8.584,8.755" transform="translate(-24.18 -100.305)" fill="#f6ceb6"/>
        <path id="Trazado_1269046" data-name="Trazado 1269046" d="M169.84,219.594c.3.315,1.144,2.883.179,2.918l-30.762,6.54.534-3.105,28.008-6.7a2.639,2.639,0,0,1,2.041.349" transform="translate(-91.814 -144.511)" fill="#f6ceb6"/>
        <path id="Trazado_1269047" data-name="Trazado 1269047" d="M50.318,225.078a2.151,2.151,0,0,1,1.993.283c.854.756,2.29,5.3,3.281,6.6,1.374,1.8,2.243.881,3.855.886,4.658.015,9.315.01,13.972.025,1.691.318,1.812,2.787-.315,3.072-1.618.217-4.688.274-6.475.339-2.305.084-10.061.373-11.785-.167a2.553,2.553,0,0,1-1.294-1.091,81.325,81.325,0,0,1-4-7.956c-.173-.693.007-1.722.766-1.988" transform="translate(-32.631 -148.316)" fill="#f6ceb6"/>
        <path id="Trazado_1269048" data-name="Trazado 1269048" d="M263.663,192.259a1.744,1.744,0,0,1,1.74,2.083c-.082.485-3.645,7.615-4.085,8.213-1.394,1.891-3.151.892-4.876.887-4.245-.011-9.963.492-13.989.023-1.309-.152-2.706-.907-2.037-2.384.9-1.989,6-.712,7.82-.674,1.884.04,9.141.286,10.327-.267,1.691-.789,3.083-7.6,5.1-7.882" transform="translate(-158.394 -126.75)" fill="#f6ceb6"/>
        <path id="Trazado_1269049" data-name="Trazado 1269049" d="M239.861,86.431c3.117,3.359-2.709,7.79-5.161,3.97-2.2-3.428,2.556-6.777,5.161-3.97" transform="translate(-154.368 -56.294)" fill="#f6ceb6"/>
        <path id="Trazado_1269050" data-name="Trazado 1269050" d="M249.371,46.19H243.75c-.913,0-.9-5.006,2.377-5.144,2.9-.122,3.572,2.724,3.244,5.144" transform="translate(-160.365 -27.06)" fill="#ff9ebf"/>
        <path id="Trazado_1269051" data-name="Trazado 1269051" d="M243.11,122.878h-8.858v-2.726h5.621c.792,0,3.374,1.723,3.237,2.726" transform="translate(-154.445 -79.218)" fill="#60afef"/>
        <path id="Trazado_1269052" data-name="Trazado 1269052" d="M323.638,160.157v1.7l-2.381-.343Z" transform="translate(-211.808 -105.594)" fill="#ffe19a"/>
        <path id="Trazado_1269053" data-name="Trazado 1269053" d="M95.2,88.552h8.347c.691,0,1.151,1.911,1.208,2.539.121,1.31.363,8.7-1.208,8.7H95.2v7.666c0,1.18-1.418,2.092-2.548,2.222-1.341.155-7.272.166-8.149-.384a3.36,3.36,0,0,1-.887-1.157V99.8H74.93c-.3,0-.768-1.16-.83-1.555-.19-1.207-.165-8.376.294-9.115a2.3,2.3,0,0,1,.877-.573h8.347V80.206a2.3,2.3,0,0,1,.573-.877c.814-.505,9.526-.526,10.191-.007a6.37,6.37,0,0,1,.82,1.565Zm-3.748-5.792H87.365v8.006A3.327,3.327,0,0,1,85.832,92.3H77.825v4.088h8.688a5.223,5.223,0,0,1,.852,1.192v8.347c.886-.14,3.479.342,3.94-.319.8-1.151-.632-7.921.627-8.913,1.23-.969,7.667.293,8.742-.456.661-.461.179-3.054.319-3.94H92.645a7.987,7.987,0,0,1-1.192-1.192Z" transform="translate(-48.781 -52.047)" fill="#050505"/>
        <path id="Trazado_1269054" data-name="Trazado 1269054" d="M98.88,90.152V98.5a7.987,7.987,0,0,0,1.192,1.192h8.347c-.14.886.342,3.479-.319,3.94-1.076.749-7.512-.513-8.742.456-1.258.991.175,7.762-.627,8.913-.461.661-3.054.179-3.94.319v-8.347a5.223,5.223,0,0,0-.852-1.192H85.252V99.691h8.006a3.327,3.327,0,0,0,1.533-1.533V90.152Z" transform="translate(-56.208 -59.438)" fill="#8d1939"/>
      </g>
    </g>
  </g>
</svg>
