<svg xmlns="http://www.w3.org/2000/svg" xmlns:xlink="http://www.w3.org/1999/xlink" width="96" height="96" viewBox="0 0 96 96">
  <defs>
    <clipPath id="clip-path">
      <rect id="Rectángulo_455595" data-name="Rectángulo 455595" width="96" height="96" fill="none"/>
    </clipPath>
    <clipPath id="clip-path-2">
      <rect id="Rectángulo_459387" data-name="Rectángulo 459387" width="54.349" height="43.551" fill="#fff"/>
    </clipPath>
  </defs>
  <g id="Grupo_1208346" data-name="Grupo 1208346" transform="translate(-735.746 -9118)">
    <g id="Grupo_1180407" data-name="Grupo 1180407" transform="translate(735.746 9117.971)">
      <g id="Grupo_1179172" data-name="Grupo 1179172" transform="translate(0 0.03)" clip-path="url(#clip-path)">
        <path id="Trazado_998483" data-name="Trazado 998483" d="M92.562,52.469A40.092,40.092,0,1,1,52.469,12.377,40.093,40.093,0,0,1,92.562,52.469" transform="translate(-4.455 -4.484)" fill="#8d1939"/>
        <path id="Trazado_998485" data-name="Trazado 998485" d="M90.9,46.451A44.45,44.45,0,1,1,46.451,2,44.45,44.45,0,0,1,90.9,46.451Z" transform="translate(1.564 1.535)" fill="none" stroke="#8d1939" stroke-miterlimit="10" stroke-width="4"/>
      </g>
    </g>
    <g id="Grupo_1180408" data-name="Grupo 1180408" transform="translate(755.746 9137)">
      <g id="Grupo_1099618" data-name="Grupo 1099618" transform="translate(-0.035 -0.227)">
        <rect id="Rectángulo_401104" data-name="Rectángulo 401104" width="56.349" height="57.028" transform="translate(0)" fill="none"/>
      </g>
      <g id="Grupo_1209136" data-name="Grupo 1209136" transform="translate(0.965 6.773)">
        <g id="Grupo_1209135" data-name="Grupo 1209135" clip-path="url(#clip-path-2)">
          <path id="Trazado_1269059" data-name="Trazado 1269059" d="M41.169,5.733V15.1h12.4c.969,0,.795,3.468.727,4.257-.033.386-.369,1.466-.727,1.466H49.806l-.08,22.2-.442.388-43.55.14-1.112-.528-.08-22.2H.784c-.359,0-.694-1.08-.727-1.466-.067-.79-.242-4.257.727-4.257h12.4V5.733H10.22c-.737,0-.643-3.942-.55-4.586A1.267,1.267,0,0,1,11.012,0L43.639.02a1.27,1.27,0,0,1,1.04,1.127c.094.654.185,4.586-.55,4.586Zm1.759-3.816H11.42V3.826H42.928ZM39.41,5.733H14.939V15.1H39.41ZM52.525,17.007H1.824v1.908h50.7Zm-4.478,3.816H6.3V41.635H9.661V24.378c0-.534.793-.748,1.192-.788a53.6,53.6,0,0,1,8.327,0c.364.047,1.037.35,1.037.784V41.635h27.83ZM18.457,25.505H11.42v15.87l.24.26h6.8Z" transform="translate(0 0)" fill="#fff"/>
          <path id="Trazado_1269060" data-name="Trazado 1269060" d="M78.02,158.057c.325.043,1.3-.129,1.479.176a10.64,10.64,0,0,1,0,3.073c-.263.4-1.073.221-1.478.257-.043.449.157,1.3-.255,1.584a7.952,7.952,0,0,1-2.593.071c-.575-.2-.345-1.153-.386-1.655-.392-.027-1.317.145-1.52-.318a14.282,14.282,0,0,1,.016-2.952c.158-.4,1.153-.183,1.5-.236.049-.432-.148-1.358.2-1.642a5.69,5.69,0,0,1,2.77-.038c.44.276.211,1.2.263,1.681m-1.077-.639H75.864c.119,1.575-.037,1.982-1.568,1.807v1.17c1.564-.139,1.677.012,1.568,1.7h1.079c.038-.373-.126-1.444.194-1.649l1.374-.052v-1.17c-.511-.043-1.146.181-1.52-.318Z" transform="translate(-61.49 -129.129)" fill="#fff"/>
          <path id="Trazado_1269061" data-name="Trazado 1269061" d="M169.494,136.275l18.081.09.279.217V146.3l-.394.267-18.205-.048c-.4-.205-.474-.746-.516-1.175a59.237,59.237,0,0,1-.007-7.637c.047-.608.106-1.292.761-1.43m16.839,1.87H170.5v6.591h15.834Z" transform="translate(-141.645 -112.64)" fill="#fff"/>
          <rect id="Rectángulo_459386" data-name="Rectángulo 459386" width="1.175" height="6.181" transform="translate(21.737 7.249)" fill="#fff"/>
          <path id="Trazado_1269062" data-name="Trazado 1269062" d="M151.231,45.8v2.178h-1.174V41.795h2.224a2.4,2.4,0,0,1,1.129.255,1.789,1.789,0,0,1,.75.724,2.151,2.151,0,0,1,.262,1.068,1.844,1.844,0,0,1-.574,1.433,2.265,2.265,0,0,1-1.587.524Zm0-1.031h1.049a.979.979,0,0,0,.71-.238.9.9,0,0,0,.245-.679,1.07,1.07,0,0,0-.247-.734.885.885,0,0,0-.681-.289h-1.077Z" transform="translate(-126.057 -34.546)" fill="#fff"/>
          <path id="Trazado_1269063" data-name="Trazado 1269063" d="M184.092,45.949a.676.676,0,0,0-.235-.554,2.967,2.967,0,0,0-.845-.408,5.745,5.745,0,0,1-.967-.422,1.721,1.721,0,0,1-.971-1.532,1.581,1.581,0,0,1,.26-.894,1.722,1.722,0,0,1,.748-.613,2.621,2.621,0,0,1,1.094-.221,2.4,2.4,0,0,1,1.088.24,1.78,1.78,0,0,1,.742.677,1.884,1.884,0,0,1,.264.993H184.1a.869.869,0,0,0-.247-.66.962.962,0,0,0-.693-.236,1.022,1.022,0,0,0-.669.2.642.642,0,0,0-.239.52.607.607,0,0,0,.28.505,3.036,3.036,0,0,0,.824.382,3.478,3.478,0,0,1,1.46.811,1.685,1.685,0,0,1,.458,1.206,1.535,1.535,0,0,1-.56,1.259,2.315,2.315,0,0,1-1.507.456,2.719,2.719,0,0,1-1.2-.261,1.868,1.868,0,0,1-1.108-1.768h1.179q0,1.023,1.127,1.023a1.033,1.033,0,0,0,.654-.185.619.619,0,0,0,.235-.516" transform="translate(-151.964 -34.141)" fill="#fff"/>
        </g>
      </g>
    </g>
  </g>
</svg>
