<svg xmlns="http://www.w3.org/2000/svg" xmlns:xlink="http://www.w3.org/1999/xlink" width="96" height="96" viewBox="0 0 96 96">
  <defs>
    <clipPath id="clip-path">
      <rect id="Rectángulo_455595" data-name="Rectángulo 455595" width="96" height="96" fill="none"/>
    </clipPath>
    <clipPath id="clip-path-2">
      <rect id="Rectángulo_459385" data-name="Rectángulo 459385" width="51.363" height="54.537" fill="#fff"/>
    </clipPath>
  </defs>
  <g id="Grupo_1208345" data-name="Grupo 1208345" transform="translate(-735.746 -9118)">
    <g id="Grupo_1180407" data-name="Grupo 1180407" transform="translate(735.746 9117.971)">
      <g id="Grupo_1179172" data-name="Grupo 1179172" transform="translate(0 0.03)" clip-path="url(#clip-path)">
        <path id="Trazado_998483" data-name="Trazado 998483" d="M92.562,52.469A40.092,40.092,0,1,1,52.469,12.377,40.093,40.093,0,0,1,92.562,52.469" transform="translate(-4.455 -4.484)" fill="#8d1939"/>
        <path id="Trazado_998485" data-name="Trazado 998485" d="M90.9,46.451A44.45,44.45,0,1,1,46.451,2,44.45,44.45,0,0,1,90.9,46.451Z" transform="translate(1.564 1.535)" fill="none" stroke="#8d1939" stroke-miterlimit="10" stroke-width="4"/>
      </g>
    </g>
    <g id="Grupo_1180408" data-name="Grupo 1180408" transform="translate(755.746 9137)">
      <g id="Grupo_1099618" data-name="Grupo 1099618" transform="translate(-0.035 -0.227)">
        <rect id="Rectángulo_401104" data-name="Rectángulo 401104" width="56.349" height="57.028" transform="translate(0)" fill="none"/>
      </g>
      <g id="Grupo_1209134" data-name="Grupo 1209134" transform="translate(2.965 0.773)">
        <g id="Grupo_1209133" data-name="Grupo 1209133" clip-path="url(#clip-path-2)">
          <path id="Trazado_1269055" data-name="Trazado 1269055" d="M27.945,115.065H44.182V126.93H37.859c-.444.412-.164,1.159-.234,1.717H51.363v4.684H49.8v4.84h-4.84v-1.561h3.122v-3.279H3.279v3.279H43.4v1.561H1.561v-4.84H0v-4.684H7.182v-5.854a8.475,8.475,0,0,1,.781-1.561,13.89,13.89,0,0,1,1.873-1.561v-8.352H11.4v7.65a1.847,1.847,0,0,0,.634-.069c.395-.092,3.074-1.024,3.312-1.178.292-.189.353-1.395.192-1.721-.1-.2-.64-.445-.867-.693a7.062,7.062,0,0,1-1.71-3.754v-3.279l.234-.234h6.245c.164,0,.4-.669.65-.755a9.591,9.591,0,0,1,1.234-.037l.77.792h2.576v4.293a15.857,15.857,0,0,1-.836,1.974c-.673,1.085-2.18,1.553-1.636,3.153.125.367,3.419,1.373,4.034,1.508V106.712c0-1.477-2.056-4.03-3.292-4.826C17.257,98.231,10.575,103.21,11.4,109.6H9.836v-2.42c0-3.8,4.214-7.7,7.887-8.038,4.849-.449,10.223,3.207,10.223,8.35Zm-4.84-5.464c-.772.387-2.038-.474-2.421-.461-.3.009-.654.461-.779.461h-5.23v2.576a9.859,9.859,0,0,0,.713,1.473,4.3,4.3,0,0,0,7.153-.321,9.569,9.569,0,0,0,.565-1.465Zm19.515,7.025H27.945v8.743h4.84v-1.561h4.84v1.561h5Zm-25.369,4.059H20.53c.58-1.114.049-2.668,0-3.905a5.316,5.316,0,0,1-3.353,0c-.015.613-.457,3.738.076,3.9m-1.8-1.249c-1.631.607-4.814,1.268-6,2.513a8.79,8.79,0,0,0-.717,1.156v5.542h6.713Zm10.772,1.249-3.9-1.249v9.211H28.8c.3-.2.244-.539.244-.859a2.735,2.735,0,0,0-.035-.6l-.209-.259H26.228Zm-5.464,1.561H17.017v6.4H20.53l.234-.234Zm15.3,3.122H34.5v3.279h1.561Zm-3.279,1.561H30.6v1.717h2.186ZM49.8,130.208H1.561v1.561H49.8Z" transform="translate(0 -83.633)" fill="#fff"/>
          <path id="Trazado_1269056" data-name="Trazado 1269056" d="M182,20.5c-.1-.1.07-2.4-.007-2.881a12.79,12.79,0,0,0-.845-1.653C176.064,3.308,191.717-5.59,199.882,4.108c7.46,8.861-2.2,21.911-13.035,17.407a17.067,17.067,0,0,0-1.962-1c-.481-.077-2.779.094-2.881-.007m1.561-1.561c.069.069,1.592-.059,1.945.006.439.081,1.885,1.093,2.706,1.353,10.722,3.389,17.414-10.889,8.512-16.943-8-5.442-18.061,2.923-14.234,11.736.228.524,1,1.54,1.063,1.9s-.062,1.876.006,1.945" transform="translate(-152.03 0)" fill="#fff"/>
          <path id="Trazado_1269057" data-name="Trazado 1269057" d="M253.628,221.324v1.563h-1.719c.05-.364-.139-1.295.147-1.494Z" transform="translate(-212.568 -186.771)" fill="#fff"/>
          <rect id="Rectángulo_459384" data-name="Rectángulo 459384" width="1.563" height="1.563" transform="translate(36.219 34.553)" fill="#fff"/>
          <path id="Trazado_1269058" data-name="Trazado 1269058" d="M224.274,36.329V38.9l.234.234h2.576V44.6h-2.576l-.234.234v2.576h-5.62V44.6H216V39.139h2.654v-2.81Zm-1.561,1.561h-2.342V40.7h-2.81v2.342h2.81v2.81h2.342v-2.81h2.81V40.7h-2.81Z" transform="translate(-182.278 -30.657)" fill="#fff"/>
        </g>
      </g>
    </g>
  </g>
</svg>
