<svg xmlns="http://www.w3.org/2000/svg" xmlns:xlink="http://www.w3.org/1999/xlink" width="96" height="96" viewBox="0 0 96 96">
  <defs>
    <clipPath id="clip-path">
      <rect id="Rectángulo_455595" data-name="Rectángulo 455595" width="96" height="96" fill="none"/>
    </clipPath>
    <clipPath id="clip-path-2">
      <rect id="Rectángulo_459396" data-name="Rectángulo 459396" width="53.653" height="52.645" fill="#fff"/>
    </clipPath>
  </defs>
  <g id="Grupo_1208350" data-name="Grupo 1208350" transform="translate(-735.746 -9118)">
    <g id="Grupo_1180407" data-name="Grupo 1180407" transform="translate(735.746 9117.971)">
      <g id="Grupo_1179172" data-name="Grupo 1179172" transform="translate(0 0.03)" clip-path="url(#clip-path)">
        <path id="Trazado_998483" data-name="Trazado 998483" d="M92.562,52.469A40.092,40.092,0,1,1,52.469,12.377,40.093,40.093,0,0,1,92.562,52.469" transform="translate(-4.455 -4.484)" fill="#8d1939"/>
        <path id="Trazado_998485" data-name="Trazado 998485" d="M90.9,46.451A44.45,44.45,0,1,1,46.451,2,44.45,44.45,0,0,1,90.9,46.451Z" transform="translate(1.564 1.535)" fill="none" stroke="#8d1939" stroke-miterlimit="10" stroke-width="4"/>
      </g>
    </g>
    <g id="Grupo_1180408" data-name="Grupo 1180408" transform="translate(755.746 9137)">
      <g id="Grupo_1099618" data-name="Grupo 1099618" transform="translate(-0.035 -0.227)">
        <rect id="Rectángulo_401104" data-name="Rectángulo 401104" width="56.349" height="57.028" transform="translate(0)" fill="none"/>
      </g>
      <g id="Grupo_1209142" data-name="Grupo 1209142" transform="translate(0.965 1.773)">
        <g id="Grupo_1209141" data-name="Grupo 1209141" clip-path="url(#clip-path-2)">
          <path id="Trazado_1269086" data-name="Trazado 1269086" d="M110.464,148.729l-.075-2c-3.517-2.178-4.434-5.875-4.066-9.817l-1.383-.074c-.836-1.272.194-1.651,1.383-1.458-.514-3.94,1.568-7.749,5.682-8.353.333-.235-.15-1.412.751-1.7a15.758,15.758,0,0,1,3.961.046c.764.35.316,1.427.643,1.658,4.108.6,6.2,4.411,5.682,8.353,1.206-.2,2.214.2,1.383,1.458l-1.383.074c.368,3.941-.548,7.638-4.066,9.817l-.075,2h2.531c1.67,0,3.776,2.329,4.028,3.948a29.045,29.045,0,0,1,.029,4.864,1.8,1.8,0,0,1-1.027,1.12l-19.762-.1a1.753,1.753,0,0,1-.824-1.017,27.438,27.438,0,0,1,.062-4.985c.287-1.575,2.365-3.828,4-3.828Zm5.062-21.782h-1.687V129.4h1.687Zm-3.375,1.841c-1.709-.148-4.142,2.486-4.142,4.065v2.531h13.345v-2.531c0-1.618-2.409-4.207-4.142-4.065v5.139a1.505,1.505,0,0,1-.694.533,24.215,24.215,0,0,1-3.905-.076,2.652,2.652,0,0,1-.463-.457Zm3.375,2.3h-1.689v1.689h1.689Zm5.828,5.83H108.009v3.6a7.849,7.849,0,0,0,.951,2.424,6.7,6.7,0,0,0,11.443,0,9.1,9.1,0,0,0,.951-2.423ZM117.212,147.5a9.9,9.9,0,0,1-5.06,0c.069.546-.215,1.312.244,1.672a8.878,8.878,0,0,0,2.485.986,18.38,18.38,0,0,0,2.257-1.123c.207-.344.012-1.117.075-1.535m-3.374,4.141c-.834-.129-1.813-1.039-2.566-1.193a16.522,16.522,0,0,0-3.177-.025c-.8.125-2.54,1.613-2.54,2.368v4.218h8.283Zm9.971,5.369v-4.218c0-.755-1.74-2.243-2.54-2.368a16.521,16.521,0,0,0-3.177.025c-.752.154-1.732,1.064-2.566,1.193v5.369Z" transform="translate(-87.868 -106.016)" fill="#fff"/>
          <path id="Trazado_1269087" data-name="Trazado 1269087" d="M245.114,122.5l-.032-1.81c-2.723-1.49-3.669-4.4-3.342-7.394-2.249.311-2.353-2.1,0-1.686-.421-3.029.88-6.093,4.127-6.611.029-.618-.132-1.516.619-1.759a18.154,18.154,0,0,1,3.463-.071c1.13.133,1,.9,1.008,1.83,3.226.5,4.533,3.6,4.127,6.611,2.368-.425,2.184,2,0,1.686.308,2.956-.63,5.93-3.342,7.394l-.032,1.81h2.531c.659,0,1.983,1.266,2.253,1.889a16.318,16.318,0,0,1,.274,4.933.9.9,0,0,1-.984.7l-15.269-.09a1.314,1.314,0,0,1-.383-.383,18.515,18.515,0,0,1,.083-4.819c.231-.826,1.5-2.234,2.368-2.234Zm4.142-17.641h-1.689v1.689h1.689Zm-3.375,1.841a3.63,3.63,0,0,0-2.454,2.378v2.531H253.4V109.23a3.544,3.544,0,0,0-2.454-2.531v3.451a2.651,2.651,0,0,1-.463.457,16.652,16.652,0,0,1-4.341-.063,1.034,1.034,0,0,1-.258-.395Zm3.375,1.533h-1.689V109h1.689ZM253.4,113.3h-9.971v2.684a7.619,7.619,0,0,0,1.164,2.211,5.049,5.049,0,0,0,8.252-.925,9.438,9.438,0,0,0,.555-1.44Zm-3.376,8.13a7.291,7.291,0,0,1-3.219,0l.031,1.5,1.694.929,1.463-.929Zm-2.453,6.9V125.49a6.414,6.414,0,0,0-2.064-1.311,14.521,14.521,0,0,0-2.73.045c-.336.085-1.035.823-1.035,1.112v2.991Zm1.687-2.838v2.838h5.829v-2.991a2.27,2.27,0,0,0-1.034-1.11,9.884,9.884,0,0,0-3.2.1,11.826,11.826,0,0,0-1.6,1.162" transform="translate(-203.19 -87.302)" fill="#fff"/>
          <path id="Trazado_1269088" data-name="Trazado 1269088" d="M5.109,122.5l-.032-1.81c-2.672-1.473-3.667-4.45-3.342-7.394-2.18.315-2.372-2.11,0-1.686C1.33,108.6,2.63,105.5,5.861,105c.029-.618-.132-1.516.619-1.759a18.154,18.154,0,0,1,3.463-.071c1.13.133,1,.9,1.008,1.83,3.237.512,4.551,3.577,4.127,6.611,2.36-.41,2.242,2,0,1.686.327,2.991-.619,5.9-3.342,7.394L11.7,122.5h2.531c.7,0,1.979,1.225,2.254,1.887a16.328,16.328,0,0,1,.273,4.935.9.9,0,0,1-.984.7L.51,129.935a1.314,1.314,0,0,1-.383-.383A17.857,17.857,0,0,1,.24,124.61c.249-.728,1.583-2.111,2.337-2.111Zm4.142-17.641H7.562v1.689H9.251ZM5.876,106.7a3.544,3.544,0,0,0-2.454,2.531v2.378h9.971v-2.531a3.55,3.55,0,0,0-2.454-2.378v3.451a1.035,1.035,0,0,1-.258.395,16.652,16.652,0,0,1-4.341.063,2.651,2.651,0,0,1-.463-.457Zm3.375,1.533H7.562V109H9.251Zm4.141,5.063H3.421v2.531a9.438,9.438,0,0,0,.555,1.44,5.049,5.049,0,0,0,8.252.925,7.619,7.619,0,0,0,1.164-2.211Zm-3.376,8.13a7.291,7.291,0,0,1-3.219,0l.031,1.5,1.694.929c1.213-.683,1.752-.847,1.494-2.431m-2.453,6.9V125.49A6.414,6.414,0,0,0,5.5,124.179a13.991,13.991,0,0,0-2.73.048,2.27,2.27,0,0,0-1.034,1.11v2.991ZM9.25,125.49v2.838h5.829v-2.991a2.27,2.27,0,0,0-1.034-1.11,9.884,9.884,0,0,0-3.2.1,11.826,11.826,0,0,0-1.6,1.162" transform="translate(0 -87.302)" fill="#fff"/>
          <path id="Trazado_1269089" data-name="Trazado 1269089" d="M130.56.1c1.7-.489,4.767.885,6.1,1.966,4.007,3.253,4.859,9.6.615,13.031-4.322,3.5-11.265,1.071-12.123-4.437a30.6,30.6,0,0,1,.008-5.224c.253-.532,1.5-.458,2.113-.648A4.317,4.317,0,0,0,129.955,1.8c.123-.551-.173-1.473.605-1.7m-3.771,6.584c.006,1.655-.238,3.16.366,4.732a5.846,5.846,0,0,0,10.324.972c2.712-4.35-.858-10.254-5.787-10.62a6.05,6.05,0,0,1-4.9,4.915" transform="translate(-105.861 0)" fill="#fff"/>
          <path id="Trazado_1269090" data-name="Trazado 1269090" d="M146.177,18.588c.94-.142,2.994,1.628,3.545,2.377,2.881,3.919.743,9.528-4.5,8.948-3.089-.342-4.776-3.752-4.138-6.594.366-.509,1.032-.574,1.557-.9a8.574,8.574,0,0,0,2.109-1.879c.409-.54.829-1.863,1.427-1.953m.578,1.975a10.261,10.261,0,0,1-4.037,3.774A3.366,3.366,0,0,0,148.5,27.2c1.807-1.995.495-5.51-1.741-6.639" transform="translate(-119.33 -15.73)" fill="#fff"/>
        </g>
      </g>
    </g>
  </g>
</svg>
