<svg xmlns="http://www.w3.org/2000/svg" xmlns:xlink="http://www.w3.org/1999/xlink" width="69" height="69" viewBox="0 0 69 69">
  <defs>
    <clipPath id="clip-path">
      <rect id="Rectángulo_459420" data-name="Rectángulo 459420" width="37" height="42" fill="#fff"/>
    </clipPath>
  </defs>
  <g id="Grupo_1208362" data-name="Grupo 1208362" transform="translate(-617.133 -749.337)">
    <circle id="Elipse_13676" data-name="Elipse 13676" cx="34.5" cy="34.5" r="34.5" transform="translate(617.133 749.337)" fill="#6a2874"/>
    <g id="Grupo_1209156" data-name="Grupo 1209156" transform="translate(633.133 763.337)">
      <g id="Grupo_1209155" data-name="Grupo 1209155" clip-path="url(#clip-path)">
        <path id="Trazado_1269145" data-name="Trazado 1269145" d="M68.773,103.445V98.15a6.052,6.052,0,0,0-2.22-.913v4.442a11.91,11.91,0,0,1-1.021,3.141,7.314,7.314,0,0,1-13.429-.686,11.413,11.413,0,0,1-.758-2.82V97.237l-2.147.879.037,5.327c-3.595-1.075-5.752-4.707-1.7-7.278,4.984-3.161,17.647-3.132,22.681-.087,4.171,2.523,2.286,6.127-1.445,7.366" transform="translate(-40.311 -82.379)" fill="#fff"/>
        <path id="Trazado_1269146" data-name="Trazado 1269146" d="M178.4,269.582V263.01l6.729-3.89c2.292.753,5.09,1.241,7.287,2.215,2.57,1.139,3.782,4.135,3.4,7.08-.048.369-.5,1.167-.822,1.167Zm4.478-2.841a1.853,1.853,0,0,0,1.124.411,41.052,41.052,0,0,0,6.219-.006c1.881-.207,1.733-2.329.438-2.547-2.2.218-4.956-.325-7.087,0a1.294,1.294,0,0,0-.694,2.138" transform="translate(-158.599 -227.582)" fill="#fff"/>
        <path id="Trazado_1269147" data-name="Trazado 1269147" d="M17.472,263.009v6.572H.877c-.418,0-.792-.987-.833-1.4-.318-3.181,1.09-5.927,3.826-7,2.166-.852,4.647-1.365,6.873-2.06ZM5.233,264.62a1.275,1.275,0,0,0,.319,2.514,38.677,38.677,0,0,0,6.525,0A1.275,1.275,0,0,0,12.3,264.6c-2.11-.329-4.888.2-7.068.018" transform="translate(0 -227.581)" fill="#fff"/>
        <path id="Trazado_1269148" data-name="Trazado 1269148" d="M108.324,10.477a21.835,21.835,0,0,0-3.177-.715,36.036,36.036,0,0,0-13.692.659c-.144.036-.122.138-.117-.129a7.252,7.252,0,0,1,.234-1.328,8.894,8.894,0,0,1,6.99-6.941c.128-.936.259-2.08,1.381-2.021,1.247.065.965,1.867,1.162,2.021a9,9,0,0,1,7.219,8.454M99.412,5.026a1.292,1.292,0,0,0-.156,2.19c1.953,1.271,2.463-2.944.156-2.19" transform="translate(-81.196 0)" fill="#fff"/>
        <path id="Trazado_1269149" data-name="Trazado 1269149" d="M131.725,225.2V228l-5.143,3.016-5.18-3.2V225.08a8.829,8.829,0,0,0,3.2,1.425,9.057,9.057,0,0,0,6.124-.759,10.794,10.794,0,0,1,1-.543" transform="translate(-107.926 -197.685)" fill="#fff"/>
      </g>
    </g>
  </g>
</svg>
