<svg xmlns="http://www.w3.org/2000/svg" xmlns:xlink="http://www.w3.org/1999/xlink" width="109.796" height="109.796" viewBox="0 0 109.796 109.796">
  <defs>
    <clipPath id="clip-path">
      <rect id="Rectángulo_459424" data-name="Rectángulo 459424" width="66.574" height="72.667" fill="#6a2874"/>
    </clipPath>
  </defs>
  <g id="Grupo_1209825" data-name="Grupo 1209825" transform="translate(-591.705 -3493.098)">
    <path id="Trazado_998483" data-name="Trazado 998483" d="M122.173,67.275a54.9,54.9,0,1,1-54.9-54.9,54.9,54.9,0,0,1,54.9,54.9" transform="translate(579.328 3480.721)" fill="#fff"/>
    <g id="Grupo_1209167" data-name="Grupo 1209167" transform="translate(613.711 3512.599)" clip-path="url(#clip-path)">
      <path id="Trazado_1269174" data-name="Trazado 1269174" d="M12.229,63.218a8.512,8.512,0,0,1,5.078,1.674c1.524,1.19,7.788,7.484,8.558,8.972,3.6,6.959-2.687,9.63-5.889,13.885-.722.959-.523,1.119.02,2.084,2.219,3.944,9.116,10.589,12.862,13.243,1.087.77,1.957,1.7,3.231.786,1.59-1.142,3.234-3.541,4.857-4.861a8.054,8.054,0,0,1,8.9-1.095c1.584.783,8.688,7.882,9.585,9.47,5.391,9.546-9.373,15.952-16.763,16.4-10.238.618-18.548-3.395-25.927-10.1C6.665,104.52-1.587,94.025.26,79.467,1,73.653,5.331,63.416,12.229,63.218M11.835,65.7c-4.984.608-8.467,9.288-9.074,13.6C.8,93.256,8.724,103.1,18.357,111.859c7.9,7.181,17.375,11.3,28.243,8.8,5.145-1.181,15.275-6.511,10.157-12.9a73.373,73.373,0,0,0-7.465-7.4,5.788,5.788,0,0,0-6.824.544c-2.921,2.312-5.3,7.579-9.689,5.107C28.932,103.849,20,94.9,17.821,91.054c-2.689-4.753,3.646-7.072,5.721-10.6a5.664,5.664,0,0,0-.319-6.235,75.987,75.987,0,0,0-7.436-7.426A6.043,6.043,0,0,0,11.835,65.7" transform="translate(0 -51.17)" fill="#6a2874"/>
      <path id="Trazado_1269175" data-name="Trazado 1269175" d="M151.2.049,176.488,0a4.817,4.817,0,0,1,4.487,4.66V37.829a4.863,4.863,0,0,1-4.1,4.472l-22.85.015L143.9,45.165a2.478,2.478,0,0,1-2.567-2.388c0-2.07,5.039-7.563,5.708-9.921.5-9.021-.621-18.68,0-27.626.19-2.723,1.4-4.592,4.155-5.182m26.657,3.064a2.586,2.586,0,0,0-1.359-.641L150.91,2.62a2.591,2.591,0,0,0-1.39,2.231l0,28.577L144,42.68l9.433-2.665c7.185-.424,15,.558,22.108,0,1.273-.1,2.405-.4,2.857-1.716l0-34.311a6.626,6.626,0,0,0-.549-.881" transform="translate(-114.4 -0.001)" fill="#6a2874"/>
      <path id="Trazado_1269176" data-name="Trazado 1269176" d="M32.464,92c1.141,1.082-.423,2.078-.98,2.828a19.241,19.241,0,0,0-3.733,13.031c.069,1.192.7,3.357.563,4.368-.187,1.366-1.845,1.43-2.341.078a24.414,24.414,0,0,1-.7-4.827A22.421,22.421,0,0,1,29,94.06c.62-.858,2.289-3.173,3.459-2.064" transform="translate(-20.442 -74.228)" fill="#6a2874"/>
      <path id="Trazado_1269177" data-name="Trazado 1269177" d="M196.505,316.071c1.29-.2,1.8,1.331.727,2.455-4.35,4.547-12.525,5.753-18.468,4.733-.825-.142-2.207-.315-2.375-1.262-.421-2.381,4.094-.891,5.4-.813a19.7,19.7,0,0,0,10.822-2.322c.734-.413,3.619-2.749,3.891-2.791" transform="translate(-142.757 -255.83)" fill="#6a2874"/>
      <path id="Trazado_1269178" data-name="Trazado 1269178" d="M233.345,91.454c4.651-.076,4.934,6.717.288,7.24a51.451,51.451,0,0,1-7.62,0,3.676,3.676,0,0,1,.1-7.347l-.008-8.465c-4.625,0-4.84-6.729-.285-7.242a26.2,26.2,0,0,1,4.367.017,3.74,3.74,0,0,1,3.168,3.31c.351,3.975-.277,8.461-.009,12.49m-2.05,2.05a3.856,3.856,0,0,1-.434-1.567c-.351-4.206.312-8.86-.032-13.115a1.221,1.221,0,0,0-.424-.528,18.39,18.39,0,0,0-4.735-.139,1.343,1.343,0,0,0-.466,2.007c.877.937,2.981-.291,3.339,1.328-.224,3.463.44,7.637.045,11.015-.2,1.675-1.182,1.076-2.342,1.279-1.675.293-1.857,2.227-.049,2.437,2.327.27,5.2-.175,7.586-.045,2.768-2.829-1.952-2.135-2.488-2.673" transform="translate(-180.117 -61.158)" fill="#6a2874"/>
      <path id="Trazado_1269179" data-name="Trazado 1269179" d="M244.929,25.142c4.547-.35,5.221,6.585,1.073,7.185-5.521.8-5.851-6.817-1.073-7.185m-.008,2.468a1.233,1.233,0,0,0,.485,2.413,1.233,1.233,0,0,0-.485-2.413" transform="translate(-195.552 -20.341)" fill="#6a2874"/>
    </g>
  </g>
</svg>
