<svg xmlns="http://www.w3.org/2000/svg" xmlns:xlink="http://www.w3.org/1999/xlink" width="69" height="69" viewBox="0 0 69 69">
  <defs>
    <clipPath id="clip-path">
      <rect id="Rectángulo_459419" data-name="Rectángulo 459419" width="42" height="33" fill="#fff"/>
    </clipPath>
  </defs>
  <g id="Grupo_1208361" data-name="Grupo 1208361" transform="translate(-616.422 -749.337)">
    <circle id="Elipse_13676" data-name="Elipse 13676" cx="34.5" cy="34.5" r="34.5" transform="translate(616.422 749.337)" fill="#6a2874"/>
    <g id="Grupo_1209154" data-name="Grupo 1209154" transform="translate(630.422 767.337)">
      <g id="Grupo_1209153" data-name="Grupo 1209153" clip-path="url(#clip-path)">
        <path id="Trazado_1269141" data-name="Trazado 1269141" d="M14.9,58.819a6.267,6.267,0,0,0-2.724-3.84c-4.506-2.656-9.971.966-9.122,5.894A3.088,3.088,0,0,1,.086,58.739L0,37.443a1.973,1.973,0,0,1,1.368-1.5l20.28-.052c2.241.364,2.764,3.416,3.874,4.965.349.2,3.686-.015,4.457.059,1.011.1,1.133.509,1.677,1.205,1.646,2.106,3.029,4.559,4.61,6.723,1.391.839,3.484,1.437,4.784,2.328a2.069,2.069,0,0,1,.839,1.307,38.223,38.223,0,0,1-.013,5.982,2.73,2.73,0,0,1-1.7,2.065,5.449,5.449,0,0,0-1.4-4.463,6.129,6.129,0,0,0-9.686.905,8.616,8.616,0,0,0-.756,1.739v2.173H14.9c-.064-.647.088-1.428,0-2.055m1.343-14.973c-.177-.929.549-2.959-.8-3.165a8.867,8.867,0,0,0-2.663.126c-.829.406-.294,2.244-.443,3.038-2.723-.045-3.72-.4-3.424,2.646.18,1.848,2.053,1.068,3.424,1.228.154.819-.42,2.722.519,3.082a7.938,7.938,0,0,0,2.946-.042c.793-.429.312-2.26.441-3.04,2.769.079,3.776.291,3.42-2.759-.2-1.726-2.192-.952-3.42-1.115m11.325-1.617a1.064,1.064,0,0,0-.947.968,32.075,32.075,0,0,0,0,4.938.888.888,0,0,0,.911.885c2.083.194,4.488-.165,6.609,0L34.5,48.9l.154-.315-4.118-6.094a5.932,5.932,0,0,0-2.97-.259m-.248,9.039a.964.964,0,0,0,.338,1.858c.958.109,2.539.118,2.238-1.209-.188-.827-1.943-.826-2.576-.648" transform="translate(0 -31.673)" fill="#fff"/>
        <path id="Trazado_1269142" data-name="Trazado 1269142" d="M37.78,198.866c6.367-.225,6.935,9.006.813,9.6-7.025.681-7.482-9.365-.813-9.6m1.687,3.535c-1.818-1.958-4.9.919-2.846,2.737,1.811,1.6,4.512-.941,2.846-2.737" transform="translate(-29.005 -175.508)" fill="#fff"/>
        <path id="Trazado_1269143" data-name="Trazado 1269143" d="M245.133,198.876c6.267-.127,6.766,8.971.816,9.6-7.162.761-7.59-9.465-.816-9.6m-.254,2.936a1.917,1.917,0,0,0,.028,3.8c2.937.487,3.1-4.281-.028-3.8" transform="translate(-210.96 -175.519)" fill="#fff"/>
        <path id="Trazado_1269144" data-name="Trazado 1269144" d="M104.931,3.247h-3.908V1.309a5.007,5.007,0,0,1,.366-.587,2.117,2.117,0,0,1,2.8-.346,4.005,4.005,0,0,1,.74.933Z" transform="translate(-88.687 0)" fill="#fff"/>
      </g>
    </g>
  </g>
</svg>
