<svg xmlns="http://www.w3.org/2000/svg" xmlns:xlink="http://www.w3.org/1999/xlink" width="187.711" height="135.207" viewBox="0 0 187.711 135.207">
  <defs>
    <clipPath id="clip-path">
      <rect id="Rectángulo_459421" data-name="Rectángulo 459421" width="124.289" height="109.524" fill="none"/>
    </clipPath>
  </defs>
  <g id="Grupo_1209160" data-name="Grupo 1209160" transform="translate(-289.711 -3198)">
    <g id="Grupo_1208363" data-name="Grupo 1208363" transform="translate(0.434 -5670.039)">
      <g id="Grupo_1204518" data-name="Grupo 1204518" transform="translate(289.277 8868.039)">
        <rect id="Rectángulo_455283" data-name="Rectángulo 455283" width="187.711" height="135.207" rx="19" fill="#e9c3ff"/>
      </g>
    </g>
    <g id="Grupo_1209159" data-name="Grupo 1209159" transform="translate(-4)">
      <rect id="Rectángulo_459422" data-name="Rectángulo 459422" width="58" height="27" rx="4" transform="translate(390.031 3241.483) rotate(-13)" fill="#ffe19a"/>
      <g id="Grupo_1209158" data-name="Grupo 1209158" transform="translate(321.711 3211)">
        <g id="Grupo_1209157" data-name="Grupo 1209157" clip-path="url(#clip-path)">
          <path id="Trazado_1269150" data-name="Trazado 1269150" d="M4.924,90.037c.111-.175,1.373-.094,1.584-1.709L6.481,13.643c.594-6.328,9.636-3.135,13.936-3.928,1.127,4.3,1.924,8.857,7.248,9.432a89.45,89.45,0,0,0,13.179,0,7.136,7.136,0,0,0,6.029-4.95c.4-1.122.548-3.268,1.027-4.149l.314-.314c2.5.056,5.028-.076,7.528,0a7.573,7.573,0,0,1,1.579,4.224c.932,10.815-1.1,23.34-.011,34.046-2.392-3.048-5.139-5.858-9.257-6.271C31.5,40.074,28.828,62.115,42.624,65.983,47.871,67.454,54.313,65.1,57,60.237c.519.326.314,1.19.319,1.721.164,15.582-.143,31.172.006,46.755a7.526,7.526,0,0,1-1.579,4.223c-.468-.037-1.071.161-1.418-.306s-.777-3.493-1.163-4.485a6.855,6.855,0,0,0-6.348-4.631c-8.317-.715-17.792.441-26.221.151-4.9.843-5.42,5.116-6.552,9.132-2.6.456-6.878.377-7.473-2.916-.8-4.433.45-10.657-.082-15.288a1.822,1.822,0,0,0-1.561-1.42c.129-.617-.182-2.849,0-3.137M23.775,49.913C28,48.242,33.281,47.95,32.141,41.96a68.222,68.222,0,0,0-3.323-8.6c-1.012-2.087-2.313-3.4-4.87-3.218-1.244.088-8.543,2.9-9.921,3.591a7.044,7.044,0,0,0-4.008,5.089c-.348,2.2.041,7.544.241,9.959A63.534,63.534,0,0,0,27.832,87.362a7.843,7.843,0,0,0,4.9,2.654c1.659.116,10.231-3.067,11.882-4.049a4.914,4.914,0,0,0,2.36-4.558c-.115-1.243-3.113-9.023-3.836-10.293-1.274-2.239-3.158-2.815-5.673-2.335-1.222.233-5.115,2.55-6.044,1.839a54.912,54.912,0,0,1-3.65-5.467,34.134,34.134,0,0,1-3.994-15.24" transform="translate(-3.339 -6.584)" fill="#fff5d4"/>
          <path id="Trazado_1269151" data-name="Trazado 1269151" d="M1.619,136.028a1.822,1.822,0,0,1,1.561,1.42c.533,4.632-.719,10.855.082,15.288.595,3.292,4.877,3.372,7.473,2.916,1.132-4.016,1.65-8.288,6.552-9.132,8.429.29,17.9-.866,26.221-.151A6.855,6.855,0,0,1,49.856,151c.386.992.82,4.023,1.163,4.484s.95.269,1.418.306c2.838.225,5.919-.272,6.273-3.608l-.015-78.436c-.148-.742.976-1.671,1.584-1.71a1.8,1.8,0,0,1,1.585,1.709v79.082a6.95,6.95,0,0,1-6.435,6.113c-16.759-.17-33.58.28-50.3-.228a7.12,7.12,0,0,1-5.057-5.295L.05,137.126c.038-.674.963-1.115,1.569-1.1M47.731,155.79c-.578-3.8-.893-5.978-5.162-6.288-7.859-.57-16.47.391-24.406.089-3.164.532-3.5,3.583-4,6.2Z" transform="translate(-0.034 -49.438)" fill="#030303"/>
          <path id="Trazado_1269152" data-name="Trazado 1269152" d="M60.244,19.461a2.452,2.452,0,0,1-1.177-.387c-.858-.883-.188-9.981-.38-12.015-.377-4.014-3.114-3.812-6.286-3.909-2.5-.076-5.027.056-7.528,0-.2.026-.234.167-.314.314-.479.881-.626,3.027-1.027,4.149a7.136,7.136,0,0,1-6.029,4.95,89.364,89.364,0,0,1-13.179,0C19,11.987,18.2,7.429,17.078,3.13c-4.3.793-13.342-2.4-13.936,3.928l.028,74.685c-.211,1.615-1.473,1.535-1.584,1.709C.141,83.324.112,82.7,0,81.427L0,6.113A6.95,6.95,0,0,1,6.435,0L56.5.152c2.464.692,4.9,2.732,5.294,5.371A91.787,91.787,0,0,1,61.8,18.355c-.174.907-.708,1.1-1.56,1.106M41.109,3.149H20.72c.1,2.377.793,5.506,3.442,6.127,2.072.485,10.019.372,12.412.16,3.824-.339,4.4-2.905,4.536-6.287" fill="#030303"/>
          <path id="Trazado_1269153" data-name="Trazado 1269153" d="M167.053,10.04c3.171.1,5.909-.1,6.286,3.909.191,2.034-.478,11.132.38,12.015a2.452,2.452,0,0,0,1.177.387v3.137c-.608.039-1.732.968-1.584,1.71l.015,78.436c-.355,3.335-3.435,3.833-6.273,3.608a7.528,7.528,0,0,0,1.579-4.224c-.149-15.583.158-31.173-.006-46.755-.005-.531.2-1.4-.319-1.721,2.91-5.276.8-7.473.314-12.234-1.088-10.706.943-23.232.011-34.046a7.572,7.572,0,0,0-1.579-4.224" transform="translate(-114.651 -6.891)" fill="#ffe19a"/>
          <path id="Trazado_1269154" data-name="Trazado 1269154" d="M34.746,94.841a34.126,34.126,0,0,0,3.994,15.24,54.814,54.814,0,0,0,3.65,5.467c.929.711,4.822-1.606,6.044-1.839,2.515-.48,4.4.1,5.673,2.335.723,1.27,3.721,9.05,3.836,10.293a4.912,4.912,0,0,1-2.36,4.558c-1.65.982-10.222,4.165-11.881,4.049a7.845,7.845,0,0,1-4.9-2.654A63.539,63.539,0,0,1,21.231,93.713c-.2-2.415-.588-7.756-.241-9.959A7.045,7.045,0,0,1,25,78.664c1.378-.695,8.677-3.5,9.921-3.591,2.557-.18,3.858,1.132,4.87,3.218a68.219,68.219,0,0,1,3.322,8.6c1.14,5.99-4.136,6.282-8.365,7.953m2.509-4.765c1.442.2,2.909-.325,2.786-1.966a88.42,88.42,0,0,0-3.266-8.685c-.363-.621-.71-1.188-1.534-1.157-.574.022-2.212.544-1.763,1.29Zm-6.962-9.667c-1.644.335-4.792,1.145-5.574,2.682-.858,1.686-.268,10.4,0,12.781A60.409,60.409,0,0,0,40.983,129.8c3.068,3.132,4.222,1.268,7.839.45-.124-1.5-3.6-11.49-4.216-11.557-.69-.076-2.28,1.428-3.913.1a53.394,53.394,0,0,1-4.347-6.318,36.2,36.2,0,0,1-3.732-9.129,54.132,54.132,0,0,1-1.335-8.987c.1-1.639,1.661-2.5,3.116-2.695Zm21.7,48.27c.609.441,3.228-1.018,2.678-2.194-1.374-2.319-2.06-7.045-3.5-9.066-.862-1.208-3.283-.472-3.23.386.825,1.271,3.583,10.533,4.053,10.873" transform="translate(-14.311 -51.512)" fill="#030303"/>
          <path id="Trazado_1269155" data-name="Trazado 1269155" d="M120.519,118.126c.484,4.761,2.6,6.958-.314,12.234-2.683,4.865-9.125,7.216-14.372,5.745-13.8-3.867-11.124-25.909,5.429-24.25,4.118.413,6.865,3.223,9.257,6.271m-12.943-3.062c-9.677,1.526-9.781,16.438-.314,18.044,14.736,2.5,14.554-20.289.314-18.044" transform="translate(-66.548 -76.707)" fill="#030303"/>
          <path id="Trazado_1269156" data-name="Trazado 1269156" d="M142.053,10.354c.08-.147.116-.288.314-.314Z" transform="translate(-97.493 -6.891)" fill="#bbd6f9"/>
          <path id="Trazado_1269157" data-name="Trazado 1269157" d="M78.617,324.88H45.053c.492-2.616.832-5.667,4-6.2,7.936.3,16.547-.659,24.406-.089,4.269.31,4.584,2.492,5.162,6.288" transform="translate(-30.921 -218.528)" fill="#d4e4ff"/>
          <path id="Trazado_1269158" data-name="Trazado 1269158" d="M86.443,10.04c-.138,3.381-.711,5.947-4.536,6.287-2.392.212-10.339.325-12.412-.16-2.65-.62-3.343-3.75-3.442-6.127Z" transform="translate(-45.333 -6.891)" fill="#d4e4ff"/>
          <path id="Trazado_1269159" data-name="Trazado 1269159" d="M37.776,92.12l4.1,11.256c-1.455.2-3.021,1.056-3.116,2.695a54.1,54.1,0,0,0,1.335,8.987,36.213,36.213,0,0,0,3.733,9.129,53.339,53.339,0,0,0,4.347,6.318c1.632,1.324,3.222-.179,3.913-.1.614.067,4.092,10.062,4.215,11.557-3.616.818-4.771,2.682-7.839-.45A60.408,60.408,0,0,1,32.2,107.583c-.266-2.385-.856-11.095,0-12.781.782-1.537,3.93-2.347,5.574-2.682" transform="translate(-21.793 -63.223)" fill="#ff9ebf"/>
          <path id="Trazado_1269160" data-name="Trazado 1269160" d="M64.713,97.1,60.936,86.58c-.449-.747,1.19-1.269,1.763-1.291.825-.032,1.172.535,1.534,1.157A88.387,88.387,0,0,1,67.5,95.131c.123,1.641-1.344,2.163-2.786,1.966" transform="translate(-41.768 -58.534)" fill="#ff9ebf"/>
          <path id="Trazado_1269161" data-name="Trazado 1269161" d="M111.247,219.974c-.47-.34-3.228-9.6-4.053-10.873-.053-.859,2.368-1.595,3.23-.386,1.44,2.02,2.126,6.747,3.5,9.066.551,1.176-2.068,2.635-2.678,2.194" transform="translate(-73.568 -142.808)" fill="#ff9ebf"/>
          <path id="Trazado_1269162" data-name="Trazado 1269162" d="M114.74,121.94c14.239-2.245,14.422,20.544-.314,18.044-9.467-1.606-9.363-16.518.314-18.044m-1.265,5.318c-2.33.708.416,3.4.418,3.86,0,.835-2.173,1.505-.976,3.16,1.429,1.975,2.966-.9,3.589-.786.526.093,1.967,2.615,3.341,1.082,1.437-1.6-1-3.294-.927-3.728.088-.493,2.249-1.558.95-3.207-1.266-1.606-2.641.826-3.323.826-.846,0-1.14-1.792-3.072-1.205" transform="translate(-73.713 -83.582)" fill="#ff9ebf"/>
          <path id="Trazado_1269163" data-name="Trazado 1269163" d="M124.707,138.866c1.933-.587,2.226,1.205,3.072,1.205.682,0,2.057-2.432,3.323-.826,1.3,1.649-.862,2.715-.95,3.207-.077.435,2.364,2.126.927,3.728-1.374,1.532-2.815-.989-3.341-1.082-.623-.111-2.16,2.761-3.589.786-1.2-1.655.98-2.326.976-3.16,0-.46-2.748-3.152-.418-3.86" transform="translate(-84.945 -95.19)" fill="#030303"/>
          <path id="Trazado_1269164" data-name="Trazado 1269164" d="M228.828,117.8c2.691-1.119,3.661-3.964,4.472-6.51l17.9-4.554a4.8,4.8,0,0,0,2.5-3.347c.173-1.286-.631-3.685,1.416-3.338,1.829.31.848,4.747.162,6-1.205,2.2-3.184,2.976-5.455,3.637-4.749,1.381-9.732,2.131-14.5,3.465-.406.218-.807,1.944-1.123,2.557a11.442,11.442,0,0,1-5.317,4.856c-5.77,2.347-2.14-2.261-2.006-5.142-.355-.327-6.908,1.643-8.119,1.726a7.2,7.2,0,0,1-7.352-4.762c-2.691-7.367-3.5-16.778-5.93-24.373a7.23,7.23,0,0,1,3.938-7.265,90.325,90.325,0,0,1,13.264-3.41c2.005-.22,2.431,1.69.96,2.265-3.845,1.192-8.478,1.638-12.224,2.928-2.3.791-3.822,2.531-3.581,5.071,2.2,7.554,3.262,16.122,5.685,23.536,2.172,6.644,9.16,2.152,13.74,1.511,2.432-.34,2.084,3.675,1.567,5.15" transform="translate(-140.993 -53.065)"/>
          <path id="Trazado_1269165" data-name="Trazado 1269165" d="M240.791,116a.785.785,0,0,1-.762-.6l-3.672-15.142-3.714,2.214a.784.784,0,0,1-1.164-.489l-.819-3.379a.784.784,0,0,1,.331-.84l7.984-5.252a.78.78,0,0,1,.247-.107l.45-.109a.784.784,0,0,1,.946.577l5.126,21.141a.784.784,0,0,1-.577.947l-4.19,1.016a.786.786,0,0,1-.185.022M236.87,98.254a.784.784,0,0,1,.762.6l3.738,15.413,2.666-.646-4.718-19.457-7,4.606.439,1.809,3.714-2.214a.781.781,0,0,1,.4-.111" transform="translate(-158.29 -63.327)"/>
          <path id="Trazado_1269166" data-name="Trazado 1269166" d="M287.44,104.73a.784.784,0,0,1-.762-.6l-.7-2.871a.785.785,0,0,1,.08-.571l5.064-8.935a16.631,16.631,0,0,0,1.362-3.027,3.693,3.693,0,0,0,.136-1.927,2.592,2.592,0,0,0-.934-1.581,1.888,1.888,0,0,0-1.591-.193,2.082,2.082,0,0,0-1.484,1.107,3.209,3.209,0,0,0-.136,2.24.784.784,0,0,1-.578.947l-4.2,1.02a.784.784,0,0,1-.947-.577,7.923,7.923,0,0,1,.077-4.152,7.479,7.479,0,0,1,2.224-3.494,8.952,8.952,0,0,1,3.933-2.01,8.485,8.485,0,0,1,5.991.4,6.475,6.475,0,0,1,3.28,4.5,8.108,8.108,0,0,1-.037,3.746,19.064,19.064,0,0,1-1.943,4.662L293.6,98.067l7.3-1.771a.786.786,0,0,1,.947.577l.819,3.378a.784.784,0,0,1-.577.947l-14.47,3.509a.786.786,0,0,1-.185.022m.14-3.539.438,1.807,12.946-3.139-.45-1.854-8.315,2.016a.784.784,0,0,1-.865-1.152l3.572-6.224a17.552,17.552,0,0,0,1.782-4.245,6.566,6.566,0,0,0,.041-3.026,4.917,4.917,0,0,0-2.476-3.473,6.991,6.991,0,0,0-4.9-.271,7.4,7.4,0,0,0-3.254,1.652,5.857,5.857,0,0,0-1.768,2.77,6.257,6.257,0,0,0-.2,2.568l2.684-.651a4.457,4.457,0,0,1,.393-2.531,3.611,3.611,0,0,1,2.521-1.937,3.4,3.4,0,0,1,2.859.431,4.093,4.093,0,0,1,1.56,2.5,5.218,5.218,0,0,1-.158,2.751,18.138,18.138,0,0,1-1.494,3.337Z" transform="translate(-193.89 -54.739)"/>
          <path id="Trazado_1269167" data-name="Trazado 1269167" d="M346,90.64a7.977,7.977,0,0,1-3.548-.794,6.378,6.378,0,0,1-3.495-4.441.784.784,0,0,1,.578-.947l4.19-1.016a.793.793,0,0,1,.593.093.784.784,0,0,1,.354.485,1.715,1.715,0,0,0,.952,1.211,2.6,2.6,0,0,0,1.844.16,2.632,2.632,0,0,0,1.681-1.028,2.04,2.04,0,0,0,.232-1.684c-.407-1.681-1.393-2.2-3.3-1.74l-2.218.538a.785.785,0,0,1-.947-.577l-.795-3.277a.784.784,0,0,1,.578-.947l2.233-.541a2.528,2.528,0,0,0,1.678-1,2.238,2.238,0,0,0,.17-1.722,1.9,1.9,0,0,0-.866-1.3,2.273,2.273,0,0,0-1.7-.124,2.4,2.4,0,0,0-1.416.861,1.394,1.394,0,0,0-.257,1.255.785.785,0,0,1-.577.947l-4.19,1.016a.784.784,0,0,1-.947-.577,6.1,6.1,0,0,1,.2-3.642,6.919,6.919,0,0,1,2.243-3,9.382,9.382,0,0,1,3.654-1.743,8.911,8.911,0,0,1,6.172.39,6.4,6.4,0,0,1,3.382,4.472,5.361,5.361,0,0,1-.274,3.365A6.572,6.572,0,0,1,351.208,77a5.609,5.609,0,0,1,2.051,1.152,6.143,6.143,0,0,1,1.848,3.2,6.493,6.493,0,0,1-1.093,5.661,9.282,9.282,0,0,1-5.462,3.306A10.839,10.839,0,0,1,346,90.64m-5.287-4.854a4.7,4.7,0,0,0,2.429,2.651,7.316,7.316,0,0,0,5.044.356,7.77,7.77,0,0,0,4.576-2.721,4.927,4.927,0,0,0,.824-4.352,4.541,4.541,0,0,0-1.37-2.4,4.666,4.666,0,0,0-2.684-1.072.784.784,0,0,1-.4-1.4,5.107,5.107,0,0,0,1.625-2.115,3.773,3.773,0,0,0,.2-2.4,4.839,4.839,0,0,0-2.558-3.438,7.417,7.417,0,0,0-5.1-.269,7.821,7.821,0,0,0-3.049,1.448,5.369,5.369,0,0,0-1.749,2.318,4.4,4.4,0,0,0-.273,1.945l2.7-.655a2.953,2.953,0,0,1,.627-1.791,3.959,3.959,0,0,1,2.294-1.435,3.808,3.808,0,0,1,2.837.281,3.422,3.422,0,0,1,1.62,2.3,3.776,3.776,0,0,1-.34,2.884,3.991,3.991,0,0,1-2.663,1.737l-1.471.357.425,1.753,1.456-.353c2.735-.663,4.579.365,5.193,2.894a3.573,3.573,0,0,1-.447,2.917,4.605,4.605,0,0,1-5.535,1.407,3.237,3.237,0,0,1-1.511-1.5Z" transform="translate(-231.04 -45.808)"/>
        </g>
      </g>
    </g>
  </g>
</svg>
