<svg xmlns="http://www.w3.org/2000/svg" xmlns:xlink="http://www.w3.org/1999/xlink" width="162.25" height="162.25" viewBox="0 0 162.25 162.25">
  <defs>
    <clipPath id="clip-path">
      <rect id="Rectángulo_459433" data-name="Rectángulo 459433" width="84" height="83.933" fill="#6a2874"/>
    </clipPath>
  </defs>
  <g id="Grupo_1208375" data-name="Grupo 1208375" transform="translate(-305.146 -10012.459)">
    <g id="Grupo_1177470" data-name="Grupo 1177470" transform="translate(305.146 10012.421)">
      <circle id="Elipse_13609" data-name="Elipse 13609" cx="81.125" cy="81.125" r="81.125" transform="translate(0 0.038)" fill="#f6e1fe"/>
      <g id="Grupo_1207827" data-name="Grupo 1207827" transform="translate(35.635 35.96)">
        <g id="Grupo_1099618" data-name="Grupo 1099618" transform="translate(0.365 0.078)">
          <rect id="Rectángulo_401104" data-name="Rectángulo 401104" width="90" height="90" transform="translate(0)" fill="none"/>
        </g>
        <g id="Grupo_1209180" data-name="Grupo 1209180" transform="translate(3.365 3.078)">
          <g id="Grupo_1209179" data-name="Grupo 1209179" clip-path="url(#clip-path)">
            <path id="Trazado_1269219" data-name="Trazado 1269219" d="M38.027,67.567c4.509-.652,4.438,2.987,6.2,5.707.151.233-.026.432.536.309l6.625-16.126L56.8,70.937c.563.119.385-.076.537-.31.736-1.138,1.138-3.059,2.95-3.059H73.166v2.888H60.53c-1.434,1.951-2.153,4.69-3.432,6.67-.151.234.026.431-.536.31l-5.3-12.755L45,80.323l-5.052-9.868H30.807c-.07,4.559,1.36,8.983,1.925,13.478H0V50.118a20.85,20.85,0,0,1,.847-3.244A15.077,15.077,0,0,1,4.291,41.7c-1.476-1.262-1.181-3.208-1.784-4.676-.263-.64-.937-1.074-1.264-1.624-2.9-4.879.367-8.794,1.094-13.749C3.355,14.71,1.384,7.38,10.217,4.5a12.2,12.2,0,0,0,4.63-2.109C21.517-1.874,29.914-.438,33.74,6.751c2.267,4.26,1.081,9.275,1.669,13.975.734,5.862,4.488,9.487.892,15.151-.27.425-.906.833-1.039,1.128a13.258,13.258,0,0,0-.229,2.177,12.005,12.005,0,0,1-1.26,2.51,18.5,18.5,0,0,1,3.517,5.794,20.15,20.15,0,0,1,.737,3.595Zm-8.183-50.9c.2,1.5-.148,3.383,0,4.934l2.887.24C31.984,15.648,34.217,8.5,28.145,4.4a10.334,10.334,0,0,0-11.517.006c-.688.443-2.093,2-2.432,2.141-1.86.792-3.309.14-5.611,1.85-3.361,2.5-2.8,4.89-3.052,8.5-.1,1.493-.38,3.085-.483,4.576-.028.4-.036.392.364.364a10.006,10.006,0,0,1,2.77-.243c-.152-2.025.053-3.4,1.7-4.679,1.228-.956,1.508-1.335,2.549-2.265,3.021-2.7,6.035.07,9.18.855a16.634,16.634,0,0,0,5.1.551c-.462-1.741-2.251-2.175-3.746-2.631l.381-2.665c3.034.418,6.067,2.716,6.5,5.9M27.2,18.949a27.6,27.6,0,0,1-7.591-1.194c-1.387-.434-4.1-2.156-5.339-1.142-.454.372-.913,2.016-1.267,2.22-.542.313-1.789-.14-2.119,1.01a46.647,46.647,0,0,0-.06,6.937,8.7,8.7,0,0,0,3.3,6.328c1.8,1.331,2.45.452,2.24,3.287A4.332,4.332,0,0,1,13.7,40.518c.245.89.9,5.113,1.616,5.355l7.576-.11c.29-1.329,1.5-3.949,1.181-5.223-.036-.143-1.652-1.2-2.053-2.094a8.344,8.344,0,0,1-.36-3.733c.113-.6,2.161-1.524,2.8-2.13,3.715-3.5,2.536-9.047,2.733-13.635M6.671,24.3a1.354,1.354,0,0,0-.311,2.613c2.14.886,1.934-.606,1.789-2.268l-.361-.364a2.53,2.53,0,0,0-1.117.019m23.172,2.839c3.555.378,3.552-3.27,0-2.891ZM8.626,29.82c-1.967.06-3.829-.1-5.137-1.723a5.675,5.675,0,0,0,.5,6.476c.345.461,1.258,1.117,1.419,1.47.368.812-.239,3.5,1.014,3.817a34.6,34.6,0,0,0,3.441-1.3c.946-.273,3.256-.226,3.564-1.247a2.925,2.925,0,0,0-.006-1.468c-.083-.145-2.034-1.461-2.586-2.1A14.449,14.449,0,0,1,8.626,29.82m26.029-1.483c-.945.351-1.559,1.117-2.631,1.337a24.766,24.766,0,0,1-2.875.135,8.043,8.043,0,0,1-1.612,3.32c-.54.7-3.023,2.711-3.12,2.909-1.068,2.186,3.014,2.35,4.409,2.822.942.319,1.786.815,2.706,1.162,1.36-1.082.614-3.188,1.084-4.221.2-.439,1.288-1.156,1.665-1.7a6.244,6.244,0,0,0,.374-5.76M8.424,81.286h9.146V54.691a25.142,25.142,0,0,1-6.5-13.6c-5.025,1.246-8.055,5.355-8.431,10.461a50.707,50.707,0,0,0,.009,7.471c.051.274.083.487.4.568l2.733.032a14.812,14.812,0,0,1,.68-8.345c.233-.574,1.5-3.234,2.048-3.182l2.085,1.184c-1,1.865-2.183,3.712-2.4,5.895-.288,2.851.643,4.667,1.13,7.289,1.192,6.419.4,12.507-.891,18.822M20.217,54.931V80.925l.361.361h8.664l.266-.5-1.6-10.323-3.2-.046c-.619-.2-.527-2.5-.169-2.749l3.52-.33c-.153-4.65,2.557-8.894,1.437-13.5a23.963,23.963,0,0,0-2.037-4.42c.415-.357,1.9-1.585,2.361-1.319A15.215,15.215,0,0,1,32.25,59.624h2.889V49.877c0-.129-.379-1.422-.468-1.7a11.278,11.278,0,0,0-7.6-7.044L25,47.677a29.8,29.8,0,0,1-4.779,7.254m1.2-6.137H16.607l2.171,3.37c.288.2,2.419-2.985,2.643-3.37M6.5,62.272H2.647V80.925c.323.535,2.594.481,2.9.257,1.487-6.143,2.4-12.629.947-18.91m28.641,0h-3.49a13.145,13.145,0,0,0-.842,5.295h4.332Z" transform="translate(0 0)" fill="#6a2874"/>
            <path id="Trazado_1269220" data-name="Trazado 1269220" d="M169.749,22.488A13.736,13.736,0,0,1,181,25.747a13.14,13.14,0,0,1,19.471,1.994,18.1,18.1,0,0,1-1.056,22.729L181,68.872,161.983,49.866c-7.57-7.988-3.926-25.795,7.767-27.378M180.659,65l.467-.088,16.482-16.491a15.522,15.522,0,0,0,2.33-16.295c-3.717-8.314-13.257-9.576-18.94-2.485-10.36-11.609-23.676.607-19.623,13.61.9,2.89,2.48,4.6,4.446,6.753,4.216,4.623,9.256,9.131,13.746,13.566.265.261,1.008,1.4,1.092,1.43" transform="translate(-119.987 -16.953)" fill="#6a2874"/>
            <rect id="Rectángulo_459430" data-name="Rectángulo 459430" width="2.65" height="2.65" transform="translate(59.687 59.623)" fill="#6a2874"/>
            <rect id="Rectángulo_459431" data-name="Rectángulo 459431" width="2.65" height="2.65" transform="translate(64.982 59.623)" fill="#6a2874"/>
            <rect id="Rectángulo_459432" data-name="Rectángulo 459432" width="2.65" height="2.65" transform="translate(70.517 59.623)" fill="#6a2874"/>
            <path id="Trazado_1269221" data-name="Trazado 1269221" d="M91.413,236.189c1.933.009,1.677,2.756,0,2.761-1.607.006-1.847-2.77,0-2.761" transform="translate(-68.427 -179.344)" fill="#6a2874"/>
            <path id="Trazado_1269222" data-name="Trazado 1269222" d="M92.364,258.872c1.316,1.313-.968,3.539-2.123,1.761-.879-1.354,1.092-2.79,2.123-1.761" transform="translate(-68.355 -196.302)" fill="#6a2874"/>
            <path id="Trazado_1269223" data-name="Trazado 1269223" d="M65.839,119.769c1.227,1.378,2.279,1.056,3.577.009l1.832,1.788a4.635,4.635,0,0,1-7.2.215Z" transform="translate(-48.63 -90.943)" fill="#6a2874"/>
            <path id="Trazado_1269224" data-name="Trazado 1269224" d="M57.331,89.792a1.364,1.364,0,0,1,.857,2.565,1.364,1.364,0,1,1-.857-2.565" transform="translate(-42.711 -68.157)" fill="#6a2874"/>
            <path id="Trazado_1269225" data-name="Trazado 1269225" d="M91.212,89.8c1.935-.374,2.235,3.3-.247,2.563a1.333,1.333,0,0,1,.247-2.563" transform="translate(-68.41 -68.167)" fill="#6a2874"/>
            <path id="Trazado_1269226" data-name="Trazado 1269226" d="M227.16,83.932c-.46,2.125-4.246,2.007-5.9,1.811-2.511-.3-2.333-3.375-2.28-5.3-2.45.054-5.009.336-5.308-2.755-.437-4.522.646-5.859,5.308-5.426-.021-1.517-.211-4.194,1.352-5.026,1.34-.713,4.7-.723,5.93.2a8.249,8.249,0,0,1,.9,1.331v3.49c4.126-.263,5.819.283,5.546,4.7-.228,3.689-2.388,3.614-5.546,3.479-.148,1.023.2,2.55,0,3.49m-2.647-14.32h-2.647v5.295H216.69c-.492.371-.425,1.22-.373,1.818a3.047,3.047,0,0,0,.051.671l.323.4h5.175V83.09h2.647V77.8h5.295V74.907h-5.295Z" transform="translate(-162.177 -50.662)" fill="#6a2874"/>
          </g>
        </g>
      </g>
    </g>
    <ellipse id="Elipse_13678" data-name="Elipse 13678" cx="19.243" cy="19.243" rx="19.243" ry="19.243" transform="translate(305.965 10136.186)" fill="#da9dfe"/>
    <g id="Grupo_1207826" data-name="Grupo 1207826" transform="translate(305.146 10138.641)">
      <path id="Trazado_998481" data-name="Trazado 998481" d="M0,13.854q4.835.419,9.664.868l-.27.112,1.389-2.491a.373.373,0,0,1,.426-.131.271.271,0,0,1,.2.185l0,.01,1.186,5.359L11.7,17.7l1.915-4.337,1.934-4.332,1.94-4.33L19.452.377A.822.822,0,0,1,20.394.03.578.578,0,0,1,20.9.6V.609l-.77,7.01-.812,7.007-.823,7.006-.854,7L16.044,28.4c1.235-2.953,2.506-5.9,3.765-8.845l1.893-4.42,1.917-4.414,0-.011a.7.7,0,0,1,.8-.305.505.505,0,0,1,.439.47l-.29,5.628-.314,5.627-.826-.118,2.776-5.324,0-.009a.291.291,0,0,1,.3-.125l5.25.671,5.247.689-5.291-.467-5.287-.485.3-.133-2.494,5.4a.472.472,0,0,1-.54.2.338.338,0,0,1-.286-.3v-.012l.079-5.631.1-5.631L24.836,11,23.051,15.45l-1.809,4.44c-1.209,2.959-2.407,5.921-3.64,8.874a.892.892,0,0,1-1.022.4c-.373-.087-.6-.356-.57-.635v0l.812-7.007.842-7,.854-7,.9-7,1.444.232-2.048,4.3-2.069,4.3-2.074,4.3-2.093,4.29-.005.011a.513.513,0,0,1-.588.2.382.382,0,0,1-.3-.278l-.924-5.388.624.063L9.86,14.986l0,.007a.273.273,0,0,1-.265.1q-4.8-.609-9.59-1.244" transform="translate(0 4.51) rotate(-7)" fill="#fff"/>
    </g>
  </g>
</svg>
