<svg xmlns="http://www.w3.org/2000/svg" xmlns:xlink="http://www.w3.org/1999/xlink" width="85" height="85" viewBox="0 0 85 85">
  <defs>
    <clipPath id="clip-path">
      <rect id="Rectángulo_459427" data-name="Rectángulo 459427" width="63.422" height="55.038" fill="#8d1939" stroke="#8d1939" stroke-width="1"/>
    </clipPath>
  </defs>
  <g id="Grupo_1208370" data-name="Grupo 1208370" transform="translate(-705.631 -410)">
    <path id="Sustracción_110" data-name="Sustracción 110" d="M15975.961,19829.512h85v85h-85Z" transform="translate(-15270.33 -19419.512)" fill="#ffe19a"/>
    <g id="Grupo_1209174" data-name="Grupo 1209174" transform="translate(716.42 424.981)">
      <g id="Grupo_1209173" data-name="Grupo 1209173" clip-path="url(#clip-path)">
        <path id="Trazado_1269202" data-name="Trazado 1269202" d="M49.264,46.819h9.9a6.7,6.7,0,0,1,2.817,1.594,5.394,5.394,0,0,1,0,7.345,7.227,7.227,0,0,1-2.817,1.594H8.309a1.118,1.118,0,0,1-.463-.645c-.1-.232.33-.808.463-.808H58.8c.063,0,1.007-.39,1.163-.471,3.366-1.752,2.277-6.818-1.7-7.163-3.127-.271-6.639.21-9.809.011-1.007.789-1.719,1.811-2.836,2.613C34.28,59.024,16.866,44.838,9.675,36.371,2.819,28.3-6.5,11.139,6.58,4.045c7.008-3.8,9.132,2.016,10.485,7.683.548,2.295.87,4.821-.764,6.761-1.475,1.752-3.251,1.449-3,4.447.492,5.789,11.766,17.23,17.675,17.094,2.452-.056,2.437-2.088,4.128-3.278a6.569,6.569,0,0,1,4.235-.988c1.661.149,7.688,1.944,8.917,2.888,2.875,2.207,2.435,5.213,1,8.168M10.356,4.37c-3.338.1-7.041,3.787-8.085,6.807C-1.4,21.8,10.147,36.007,17.757,42.456,24.3,48,37.364,55.9,45.353,49.175c2.479-2.088,5.7-7.428,1.608-9.588-1.4-.737-7.2-2.481-8.679-2.4-3.343.191-3.166,2.9-5.365,3.908-1.866.857-3.637.342-5.445-.366-5.8-2.271-16.23-12.424-15.629-19.074.288-3.19,3.755-3.018,4.168-6C16.3,13.58,14.84,9,13.986,7c-.7-1.64-1.721-2.681-3.63-2.627" transform="translate(0 -2.315)" fill="#8d1939" stroke="#8d1939" stroke-width="1"/>
        <path id="Trazado_1269203" data-name="Trazado 1269203" d="M164.58.98A3.59,3.59,0,0,1,165.553,3c-.365,5.451.483,11.522.007,16.9a3.4,3.4,0,0,1-3.361,3.177c-6.72.581-14.255-.457-21.062.005l-7.45,4.352-.479-.261c-.476-.612-.016-3.233.018-4.1a3.621,3.621,0,0,1-3.8-2.831c.4-5.476-.6-11.871-.017-17.238a3.385,3.385,0,0,1,3.171-3h29.8a3.459,3.459,0,0,1,2.2.98M134.5,25.251l6.093-3.622,22.062-.095a2.076,2.076,0,0,0,1.457-1.994c.494-5.1-.391-10.991,0-16.177a2.082,2.082,0,0,0-1.452-1.817H132.312a2.081,2.081,0,0,0-1.452,1.817l.016,16.52c.425,2.171,2.06,1.408,3.312,1.774,1.008.294.233,2.771.31,3.595" transform="translate(-105.755)" fill="#8d1939" stroke="#8d1939" stroke-width="1"/>
        <path id="Trazado_1269204" data-name="Trazado 1269204" d="M197.55,25.765h4.086a5.014,5.014,0,0,1,.585.231c.322.292.352,4.364.137,4.85-.458,1.038-3.771.354-4.81.548-.209,1.13.568,4.408-.715,4.824a16.2,16.2,0,0,1-4.328-.052c-1.024-.489-.427-3.73-.585-4.773-1.26-.282-4.687.779-4.914-.989a22.969,22.969,0,0,1,.1-4.092c.458-1.038,3.771-.354,4.81-.548.16-1.023-.4-4.143.44-4.736a13.643,13.643,0,0,1,4.749,0,3.44,3.44,0,0,1,.441.649Zm-1.635-3.451h-2.361v4.268a1.774,1.774,0,0,1-.817.817H188.65V29.76h4.086a1.774,1.774,0,0,1,.817.817v4.086h2.361V30.4a4.259,4.259,0,0,1,.636-.636H201V27.4h-4.268a1.774,1.774,0,0,1-.817-.817Z" transform="translate(-153.008 -17.04)" fill="#8d1939" stroke="#8d1939" stroke-width="1"/>
      </g>
    </g>
  </g>
</svg>
