<svg xmlns="http://www.w3.org/2000/svg" xmlns:xlink="http://www.w3.org/1999/xlink" width="69" height="69" viewBox="0 0 69 69">
  <defs>
    <clipPath id="clip-path">
      <rect id="Rectángulo_459078" data-name="Rectángulo 459078" width="42.446" height="41.969" fill="#fff"/>
    </clipPath>
  </defs>
  <g id="Grupo_1180561" data-name="Grupo 1180561" transform="translate(-616.711 -749)">
    <circle id="Elipse_13676" data-name="Elipse 13676" cx="34.5" cy="34.5" r="34.5" transform="translate(616.711 749)" fill="#6a2874"/>
    <g id="Grupo_1208890" data-name="Grupo 1208890" transform="translate(629.711 764.516)">
      <g id="Grupo_1208889" data-name="Grupo 1208889" clip-path="url(#clip-path)">
        <path id="Trazado_1267500" data-name="Trazado 1267500" d="M41.8,16.154l-10.883-4.02L18.283,16.985,18.21,27.607c.3,3.668,2.559,6.351,5.137,8.738a5.754,5.754,0,0,1-2.254,1.295,66.4,66.4,0,0,1-9.6-6.78C6.657,26.759.635,20.177.054,13.569A12.143,12.143,0,0,1,19.453,2.5c.418.3,1.317,1.322,1.746,1.322S22.526,2.8,22.944,2.5c9.847-7.172,22.4,2.27,18.86,13.657M4.616,12.13A7.52,7.52,0,0,1,15.492,5.347a17.073,17.073,0,0,1,1.96,1.375L18.482,5.7C12.818.058,2.939,4.117,3.088,12.13Z" transform="translate(0 -0.001)" fill="#fff"/>
        <path id="Trazado_1267501" data-name="Trazado 1267501" d="M146.107,120.467c-2.14-2.272-4.12-3.925-4.388-7.339-.241-3.082.137-6.538.069-9.655L153.034,99.3l11.246,4.171c-.067,3.072.307,6.479.069,9.516a10.293,10.293,0,0,1-2.293,5.339l-9.022,9.162-.284-.135c-2.178-2.332-4.457-4.567-6.643-6.889m14-2.353a10.681,10.681,0,0,0,1.906-2.468c1.495-3.115.531-7.075.815-10.439l-.274-.559-9.513-3.95-9.718,4.029c.064,2.674-.321,5.765-.067,8.4a8.849,8.849,0,0,0,2.148,4.513c2.1,2.455,4.916,4.632,7.071,7.082.574.369,1.031.006,1.466-.352a72.826,72.826,0,0,0,6.167-6.251" transform="translate(-121.983 -85.522)" fill="#fff"/>
        <path id="Trazado_1267502" data-name="Trazado 1267502" d="M163.016,124.274l8.377-3.427,8.238,3.5c-.238,3.138.771,7.04-.978,9.81l-7.261,7.446-6.8-6.8c-2.416-2.921-1.386-7.021-1.575-10.529m14.224,2.489-5.642,5.615c-.149.108-.258.07-.411,0-.387-.179-1.608-1.818-1.9-1.868l-1.012,1.012c.516.424,2.544,2.822,2.979,2.868a.791.791,0,0,0,.445-.109l6.5-6.419c.184-.259-.8-1.126-.961-1.1" transform="translate(-140.342 -104.077)" fill="#fff"/>
      </g>
    </g>
  </g>
</svg>
