<svg xmlns="http://www.w3.org/2000/svg" xmlns:xlink="http://www.w3.org/1999/xlink" width="69" height="69" viewBox="0 0 69 69">
  <defs>
    <clipPath id="clip-path">
      <rect id="Rectángulo_459076" data-name="Rectángulo 459076" width="41.869" height="50.272" fill="#fff"/>
    </clipPath>
  </defs>
  <g id="Grupo_1209791" data-name="Grupo 1209791" transform="translate(-304.711 -734)">
    <circle id="Elipse_13675" data-name="Elipse 13675" cx="34.5" cy="34.5" r="34.5" transform="translate(304.711 734)" fill="#6a2874"/>
    <g id="Grupo_1208886" data-name="Grupo 1208886" transform="translate(318.711 743.364)">
      <g id="Grupo_1208885" data-name="Grupo 1208885" clip-path="url(#clip-path)">
        <path id="Trazado_1267492" data-name="Trazado 1267492" d="M27.2,0V4.176H23.026V8.5a20.506,20.506,0,0,1,7.614,2.249c.825.418,1.551,1.042,2.4,1.366L36.2,9.063a.552.552,0,0,1,.3.145c.2.133,2.509,2.437,2.593,2.6.071.138.071.147,0,.286-.267.518-2.872,2.56-2.8,2.932A20.963,20.963,0,1,1,4.456,42.257,21.052,21.052,0,0,1,5.59,15.027c.068-.373-2.538-2.414-2.8-2.932-.071-.139-.071-.147,0-.286.084-.163,2.39-2.467,2.593-2.6a.552.552,0,0,1,.3-.145c.684.3,2.749,3.026,3.307,3.03A21.2,21.2,0,0,1,18.85,8.5V4.176H14.674V0ZM19.973,12.57C6.577,13.444-.591,28.9,7.705,39.585a16.783,16.783,0,0,0,28.823-4.123C40.96,24.144,32.117,11.779,19.973,12.57" transform="translate(0)" fill="#fff"/>
        <path id="Trazado_1267493" data-name="Trazado 1267493" d="M57.908,128.638H70.436V116.182c0-.072.238-.237.358-.221a12.823,12.823,0,0,1,10.78,6.65,12.585,12.585,0,1,1-23.666,6.026" transform="translate(-49.569 -99.262)" fill="#fff"/>
      </g>
    </g>
  </g>
</svg>
