<svg xmlns="http://www.w3.org/2000/svg" xmlns:xlink="http://www.w3.org/1999/xlink" width="69" height="69" viewBox="0 0 69 69">
  <defs>
    <clipPath id="clip-path">
      <rect id="Rectángulo_459077" data-name="Rectángulo 459077" width="41.89" height="41.872" fill="#fff"/>
    </clipPath>
  </defs>
  <g id="Grupo_1180560" data-name="Grupo 1180560" transform="translate(-616.711 -749)">
    <circle id="Elipse_13676" data-name="Elipse 13676" cx="34.5" cy="34.5" r="34.5" transform="translate(616.711 749)" fill="#6a2874"/>
    <g id="Grupo_1208888" data-name="Grupo 1208888" transform="translate(629.711 762.574)">
      <g id="Grupo_1208887" data-name="Grupo 1208887" clip-path="url(#clip-path)">
        <path id="Trazado_1267494" data-name="Trazado 1267494" d="M159.9,167.05a14.366,14.366,0,0,1-2.134,9.094,13.962,13.962,0,0,1-16.388,5.6l.043-.334,4.092-7.079a17.9,17.9,0,0,0,2.4-.39,5.906,5.906,0,0,0,3.757-4.679Z" transform="translate(-124.216 -146.77)" fill="#fff"/>
        <path id="Trazado_1267495" data-name="Trazado 1267495" d="M8.007,138.26a14.057,14.057,0,0,1,.759-7.071c.1-.248.339-1.094.618-1.05l7.07,4.11a5.888,5.888,0,0,0,2.1,6.639L14.5,147.979c-.5.081-2.908-2.248-3.329-2.741a12.4,12.4,0,0,1-2.431-4.307h2.61c.446,0,.622-1.335,0-1.335H3.515v4.067a2.971,2.971,0,0,1,1.753,4.545A2.89,2.89,0,0,1,.1,145.83a3.375,3.375,0,0,1,2.065-2.184c.215-1.014-.287-4.373.15-5.07a1.2,1.2,0,0,1,.412-.316Zm-6.272,7.2c-1.443,1.491.926,3.691,2.333,2.151a1.588,1.588,0,0,0-2.333-2.151" transform="translate(0 -114.338)" fill="#fff"/>
        <path id="Trazado_1267496" data-name="Trazado 1267496" d="M212.729,3.687h-6.374l-.182.182v9.105a1.179,1.179,0,0,0,.448.524c1.166.363.839-.961.887-1.619.013-.181-.094-.351.18-.3a15.3,15.3,0,0,1,3.947,6.068l-8.051,2.073a5.593,5.593,0,0,0-2.633-2.679V8.3a13.308,13.308,0,0,1,3.885,1.335V3.019c0-.372.435-.629.787-.668,2.188-.24,4.789.175,7.023,0,1.288-3.911,7.012-2.07,5.567,1.778a2.885,2.885,0,0,1-5.486-.447m3.965.445c1.424-1.466-.929-3.687-2.333-2.151a1.587,1.587,0,0,0,2.333,2.151" transform="translate(-176.557 -0.16)" fill="#fff"/>
        <path id="Trazado_1267497" data-name="Trazado 1267497" d="M99.633,65.046V73.3a14.189,14.189,0,0,0-1.733.392c-.47.17-1.523.987-1.819.923l-7.132-4.17a13.718,13.718,0,0,1,10.684-5.4" transform="translate(-78.15 -57.149)" fill="#fff"/>
        <path id="Trazado_1267498" data-name="Trazado 1267498" d="M35.682,2.175l4.513.131,2.34,5.475-1.161.48L39.356,3.518l-3.673.024c-.986,3.919-6.824,2.187-5.537-1.591a2.893,2.893,0,0,1,5.536.223m-3.206-.806c-2.218.456-.9,4.085,1.169,2.867a1.561,1.561,0,0,0-1.169-2.867" transform="translate(-26.324 0)" fill="#fff"/>
        <path id="Trazado_1267499" data-name="Trazado 1267499" d="M244.374,281.048l1.9,4.229,3.545,0a2.9,2.9,0,0,1,5.594-.159c1.028,3.808-4.457,5.222-5.659,1.506-.967-.159-3.6.285-4.336-.13-.665-.378-1.645-3.881-2.231-4.662Zm8.107,3.3a1.579,1.579,0,1,0,.445,3.127c1.948-.287,1.514-3.347-.445-3.127" transform="translate(-213.666 -246.928)" fill="#fff"/>
      </g>
    </g>
  </g>
</svg>
