<svg xmlns="http://www.w3.org/2000/svg" xmlns:xlink="http://www.w3.org/1999/xlink" width="69" height="69" viewBox="0 0 69 69">
  <defs>
    <clipPath id="clip-path">
      <rect id="Rectángulo_459079" data-name="Rectángulo 459079" width="40.313" height="43.529" fill="#fff"/>
    </clipPath>
  </defs>
  <g id="Grupo_1180562" data-name="Grupo 1180562" transform="translate(-616.711 -749)">
    <circle id="Elipse_13676" data-name="Elipse 13676" cx="34.5" cy="34.5" r="34.5" transform="translate(616.711 749)" fill="#6a2874"/>
    <g id="Grupo_1208892" data-name="Grupo 1208892" transform="translate(631.711 759.906)">
      <g id="Grupo_1208891" data-name="Grupo 1208891" clip-path="url(#clip-path)">
        <path id="Trazado_1267503" data-name="Trazado 1267503" d="M26.312,22.966l3.7,1.722c5.671,2.926,10.82,10.942,10.263,17.409-.068.787-.453,1.4-1.307,1.434L.8,43.43c-.911-.5-.813-1.42-.778-2.334A20.9,20.9,0,0,1,.8,36.644,20.19,20.19,0,0,1,13.975,23.087l-2.308-1.739C2.328,12.323,11.355-3.315,23.917.625c10.1,3.166,11.615,17.222,2.4,22.341M21.161,8.552a1.558,1.558,0,0,1,.1,1.949c-.619.818-2.177.127-2.419,1.693a10.4,10.4,0,0,0,.051,2.425,1.33,1.33,0,0,0,2.529-.094c.068-.348-.057-.916.089-1.157A9.983,9.983,0,0,0,23.3,12.04c2.994-3.973-2.441-8.686-5.946-5.323-1.068,1.025-2.091,4.259.171,4.17,1.419-.056.967-1.864,1.717-2.42a1.479,1.479,0,0,1,1.92.085M21.04,18.813A1.286,1.286,0,0,0,19.464,16.8c-1.609,1,.254,3.182,1.576,2.011" transform="translate(0 0)" fill="#fff"/>
      </g>
    </g>
  </g>
</svg>
