<svg xmlns="http://www.w3.org/2000/svg" xmlns:xlink="http://www.w3.org/1999/xlink" width="96" height="96" viewBox="0 0 96 96">
  <defs>
    <clipPath id="clip-path">
      <rect id="Rectángulo_455595" data-name="Rectángulo 455595" width="96" height="96" fill="none"/>
    </clipPath>
    <clipPath id="clip-path-2">
      <rect id="Rectángulo_459101" data-name="Rectángulo 459101" width="50.379" height="52.046" fill="#fff"/>
    </clipPath>
  </defs>
  <g id="Grupo_1207711" data-name="Grupo 1207711" transform="translate(-735.746 -9118)">
    <g id="Grupo_1180407" data-name="Grupo 1180407" transform="translate(735.746 9117.971)">
      <g id="Grupo_1179172" data-name="Grupo 1179172" transform="translate(0 0.03)" clip-path="url(#clip-path)">
        <path id="Trazado_998483" data-name="Trazado 998483" d="M92.627,52.5A40.125,40.125,0,1,1,52.5,12.377,40.125,40.125,0,0,1,92.627,52.5" transform="translate(-4.488 -4.517)" fill="#8d1939"/>
        <path id="Trazado_998485" data-name="Trazado 998485" d="M90.973,46.487A44.486,44.486,0,1,1,46.487,2,44.486,44.486,0,0,1,90.973,46.487Z" transform="translate(1.527 1.499)" fill="none" stroke="#8d1939" stroke-miterlimit="10" stroke-width="4"/>
      </g>
    </g>
    <g id="Grupo_1180408" data-name="Grupo 1180408" transform="translate(755.746 9137)">
      <g id="Grupo_1099618" data-name="Grupo 1099618" transform="translate(-0.035 0)">
        <rect id="Rectángulo_401104" data-name="Rectángulo 401104" width="56.349" height="57.028" transform="translate(0)" fill="none"/>
      </g>
      <g id="Grupo_1208913" data-name="Grupo 1208913" transform="translate(2.965 2)">
        <g id="Grupo_1208912" data-name="Grupo 1208912" clip-path="url(#clip-path-2)">
          <path id="Trazado_1267921" data-name="Trazado 1267921" d="M9.3,219.291a3.31,3.31,0,0,1,.673,1.116c2.2.4,3.983-.9,6.063-1.275,4.386-.8,7.461.722,10.578,3.655,2.471.324,6.256-.567,8.449.651.323.179.481.628.918.589l8.73-4.413c3.873-1.74,7.364,2.362,4.767,5.812-4.821,3.44-9.762,7.6-14.778,10.731-2.368,1.477-3.854,2.041-6.7,1.51-5-.931-10.242-3.1-15.284-4.109l-2.662-.005a3.184,3.184,0,0,1-2.149,1.91,32.139,32.139,0,0,1-5.335.036A2.8,2.8,0,0,1,.125,233.02C.342,229.22-.221,225,.1,221.246a2.822,2.822,0,0,1,2.466-2.755,33.128,33.128,0,0,1,5.209.014,3.091,3.091,0,0,1,1.526.786m-6.251,1.176a1.457,1.457,0,0,0-.72.324l-.107,12.217a1.029,1.029,0,0,0,.8.542,25.966,25.966,0,0,0,4.4-.059,1.3,1.3,0,0,0,.451-.294l.11-12.215a.553.553,0,0,0-.277-.319c-.473-.33-3.956-.32-4.656-.2m7.05,11h2.76l15.851,4.288c2.613.333,3.653-.532,5.664-1.868,4.506-2.994,8.737-6.432,13.243-9.432a1.8,1.8,0,0,0-1.423-3.219l-9.343,4.776a3.9,3.9,0,0,1-3.4,4.715c-3.318.247-6.944-.194-10.3-.01a.993.993,0,0,1,0-1.932c3.159-.24,6.743.3,9.849,0a1.951,1.951,0,0,0,.519-3.816c-2.02-.527-6.395.552-8.053-.45-1.782-1.078-2.544-2.587-4.93-3.275-4.088-1.178-6.522,1.409-10.443,1.268Z" transform="translate(0 -185.816)" fill="#fff"/>
          <path id="Trazado_1267922" data-name="Trazado 1267922" d="M127.939,7.794l-.032,9.891a7.887,7.887,0,0,0,.618,1.769c.33.757,1.646,2.578,1.743,3.04a1.055,1.055,0,0,1-1.723,1.041c-.119-.1-.759-1.159-.908-1.4a12.561,12.561,0,0,1-1.8-4.465,68.669,68.669,0,0,1-.024-9.534c.165-2.119,1.329-2.247,3.037-3.079,3.715-1.81,7.585-3.368,11.361-5.052a2.838,2.838,0,0,1,.924.278c3.107,1.193,6.908,3.051,9.948,4.522.689.334,2.883,1.312,3.211,1.861a3.622,3.622,0,0,1,.321,1.32c.178,2.095.257,9.014-.233,10.817-1.146,4.212-7.5,11.348-11.123,13.789-2.455,1.656-3.743,1.558-6.15-.088-.59-.4-2.6-1.916-2.721-2.506a1.062,1.062,0,0,1,1.432-1.131c1.292.857,3.229,3.247,4.888,2.818,1.443-.372,5.113-3.91,6.221-5.118,1.62-1.767,5.2-6.333,5.556-8.616l-.037-10.185-12.235-5.61Z" transform="translate(-106.914)" fill="#fff"/>
          <path id="Trazado_1267923" data-name="Trazado 1267923" d="M168.19,62.69c-.6-.127-.766-.9-.818-1.419a28.969,28.969,0,0,1,.137-5.528c.5-1.278,3.065-.354,4.2-.726.63-1.462-.862-4.209,1.4-4.417a36.9,36.9,0,0,1,5.609.074c1.425.433.34,3.262.878,4.344.8.269,3.5-.219,4,.253a2.208,2.208,0,0,1,.34.927,36.161,36.161,0,0,1,0,5.377c-.045.389-.429,1.116-.824,1.116h-3.655v3.8c0,.188-.57.5-.813.53a41.511,41.511,0,0,1-5.982,0c-.323-.044-.813-.378-.813-.679V62.69c-1.055-.152-2.679.206-3.655,0m9.324-9.995h-3.58V56.2a3.19,3.19,0,0,1-.671.82h-3.8V60.6h3.506a1.344,1.344,0,0,1,.97.97v3.506h3.356l.224-.224v-3.58c0-.232.607-.671.82-.671h3.506v-3.58h-3.8a3.5,3.5,0,0,1-.522-.522Z" transform="translate(-142.348 -42.992)" fill="#fff"/>
          <path id="Trazado_1267924" data-name="Trazado 1267924" d="M163.539,170.483a1.016,1.016,0,0,1,0,2.03,1.016,1.016,0,0,1,0-2.03" transform="translate(-138.294 -145.051)" fill="#fff"/>
        </g>
      </g>
    </g>
  </g>
</svg>
