<svg xmlns="http://www.w3.org/2000/svg" xmlns:xlink="http://www.w3.org/1999/xlink" width="96" height="96" viewBox="0 0 96 96">
  <defs>
    <clipPath id="clip-path">
      <rect id="Rectángulo_455595" data-name="Rectángulo 455595" width="96" height="96" fill="none"/>
    </clipPath>
    <clipPath id="clip-path-2">
      <rect id="Rectángulo_459102" data-name="Rectángulo 459102" width="56.349" height="37.109" fill="#fff"/>
    </clipPath>
  </defs>
  <g id="Grupo_1207710" data-name="Grupo 1207710" transform="translate(-735.746 -9118)">
    <g id="Grupo_1180407" data-name="Grupo 1180407" transform="translate(735.746 9117.971)">
      <g id="Grupo_1179172" data-name="Grupo 1179172" transform="translate(0 0.03)" clip-path="url(#clip-path)">
        <path id="Trazado_998483" data-name="Trazado 998483" d="M92.627,52.5A40.125,40.125,0,1,1,52.5,12.377,40.125,40.125,0,0,1,92.627,52.5" transform="translate(-4.488 -4.517)" fill="#8d1939"/>
        <path id="Trazado_998485" data-name="Trazado 998485" d="M90.973,46.487A44.486,44.486,0,1,1,46.487,2,44.486,44.486,0,0,1,90.973,46.487Z" transform="translate(1.527 1.499)" fill="none" stroke="#8d1939" stroke-miterlimit="10" stroke-width="4"/>
      </g>
    </g>
    <g id="Grupo_1180408" data-name="Grupo 1180408" transform="translate(755.746 9137)">
      <g id="Grupo_1099618" data-name="Grupo 1099618" transform="translate(-0.035 0)">
        <rect id="Rectángulo_401104" data-name="Rectángulo 401104" width="56.349" height="57.028" transform="translate(0)" fill="none"/>
      </g>
      <g id="Grupo_1208915" data-name="Grupo 1208915" transform="translate(-0.035 10)">
        <g id="Grupo_1208914" data-name="Grupo 1208914" clip-path="url(#clip-path-2)">
          <path id="Trazado_1267925" data-name="Trazado 1267925" d="M30.029,36.225c-.1.49-.759.71-1.211.726-6.114-.782-17.741,2.862-19.574-5.61-.489-2.262.528-4.6.926-6.82-1.506,1.969-2.416,4.414-3.805,6.445a4.95,4.95,0,0,1-2.884,2.12,2.666,2.666,0,0,1-3.1-3.905c.439-.763,2.81-2.486,3.505-1.523C4.976,29.165.9,29.307,1.813,31.019c.451.844,1.541.382,2.175-.01,1.965-1.217,4.98-8.791,6.694-10.9l1.844-1.4c.188-.359-1.147-2.226-1.483-2.575-1.159.829-2.461,1.483-3.157,2.79-1.056,1.984-1.667,4.6-2.738,6.625-1.441.956-1.67-.095-1.232-1.394C4.5,22.423,6.273,17.9,7.429,16.692a66.917,66.917,0,0,1,7.8-5.763,4.672,4.672,0,0,1,1.669-.6c.45-.029,1.325.318,1.526.051.539-1.2,1.041-2.1.628-3.451-1.393,1.4-3.059,1.9-4.427.15a18.328,18.328,0,0,1-2.036-4.111A2.724,2.724,0,0,1,14.176.515,13.253,13.253,0,0,1,18.323.144c.74.073,2.428.812,2.751.8.252-.006,1.5-.955,2.56-.948a17.8,17.8,0,0,1,5.429,2.157,2.978,2.978,0,0,1,1.13,2.915A17.359,17.359,0,0,1,27.856,10a4.806,4.806,0,0,1-3.774,1.15l-.511,1.424c3.562,1,6.212,4.052,9.326,5.942.635.159,1.118-.347,1.748-.437a4.256,4.256,0,0,1,2.962.561L46.494,29.93,50.766,30c.912-.168,2.766-2.459,3.593-2.7a1.434,1.434,0,0,1,1.989,1.491,44.875,44.875,0,0,1-.853,5.778,2.8,2.8,0,0,1-2.94,2.388c-6.179.483-12.976-.376-19.221,0-.66-.047-1.233-.462-1.017-1.18a2.328,2.328,0,0,1,.537-.6h6.538V31.462L30.029,31.3ZM20.02,2.243A9.922,9.922,0,0,0,15.6,1.936c-.761.121-1.387.233-1.226,1.182.03.177,1.557,3.042,1.69,3.161a.949.949,0,0,0,1.223-.073,30.177,30.177,0,0,0,2.091-2.268,5.2,5.2,0,0,0,.644-1.7m.646,4.518,2.579-2.033c1.078.142,4.349.6,5.17.016.343-.244-.035-.969-.252-1.2A30.58,30.58,0,0,0,24.26,1.8c-2.712-.511-3.616,2.9-3.594,4.965m7.1-.16a12,12,0,0,1-2.347.166c-.5-.024-1.409-.355-1.805-.209A29.528,29.528,0,0,0,20.825,9.1a14.48,14.48,0,0,0-.8,1.768l1.94.827c.584-.688.689-2.639,1.835-2.513.263.029.476.246.7.288,1.913.354,2.793-1.325,3.271-2.869m-10.71,5.374c-1.05.053-3.573,2.522-4.617,3.1l1.606,2.435c.163.11.289.02.436-.05a31.644,31.644,0,0,0,3.169-2.169c.612-.5,1.18-.924,1.073-1.814a1.785,1.785,0,0,0-1.665-1.5M12.27,23.55l6.779,2.676L23.6,19.467c.309-.784.72-4.311.3-4.888-.364-.5-2.875-1.176-3.563-1.52.589,3.541-4.375,4.9-6.571,6.827Zm14.35-4.532,1.31-2-2.1-1.539c-.037,1.209-.913,3.337.788,3.538m4.538.5-1.851-1.452-1.537,2.018c.919.973,2.258-.55,3.387-.567m2.1,5.975c.656-.061.971-.754,1.685-.651.679.1,1.1,1.484,1.6,1.435.177-.017,2.768-1.554,3.073-1.775.132-.1.293-.141.247-.354a31.022,31.022,0,0,0-3.206-4.07c-1.6-1.123-3.378.6-5.011.9Zm-9.365-3.231,2.58-1.048-1.354-.878ZM20.527,27.4c1.989,1.575,3.292,2.557,6.022,2.116.295-.048,4.526-2.5,4.925-2.823.162-.13.326-.229.322-.47l-1.685-4.607-8.054,3.247c-.29.433-1.779,2.109-1.53,2.538m7.726,3.9H24.136c-1.843,0-4.056-2.4-5.56-3.319l-6.7-2.807c-.2.077-.191.24-.246.4-.51,1.512-1.06,4.421-.608,5.921.4,1.323,2.475,3.677,3.91,3.677H28.253Zm15.983-1.453-3.164-4.184L37.465,27.6c-.153.222,1.227,1.977,1.524,2.245Zm-9.53-3.065-4.838,2.9,6.78.162c.252-.23-1.879-2.593-1.942-3.064m17.279,4.6v3.794l1.627-.269.958-5.459Zm-7.588.242H41.168v3.552h9.2v-3.31l-.242-.242H46.576c-.676.576-1.117,2.43-2.342,1.7-.818-.49.3-1.572.163-1.7" transform="translate(0 0)" fill="#fff"/>
          <path id="Trazado_1267926" data-name="Trazado 1267926" d="M295.315,120.843a.863.863,0,0,1,1.131.828,37.29,37.29,0,0,1-.8,3.864c-.279.636-1.153.859-1.491.287-.275-.464.375-3.622.608-4.238.106-.28.238-.646.556-.742" transform="translate(-246.607 -101.301)" fill="#fff"/>
          <path id="Trazado_1267927" data-name="Trazado 1267927" d="M271.286,130.94c.565-.108.818.238.969.742.18.6.5,2.413-.029,2.8-1.492,1.08-2.237-3.29-.941-3.538" transform="translate(-226.931 -109.785)" fill="#fff"/>
          <path id="Trazado_1267928" data-name="Trazado 1267928" d="M315.216,141.094l.785.451c.366.656-1.111,2.817-1.624,2.906-2.195.381-.151-3.069.84-3.356" transform="translate(-262.803 -118.316)" fill="#fff"/>
        </g>
      </g>
    </g>
  </g>
</svg>
