<svg xmlns="http://www.w3.org/2000/svg" xmlns:xlink="http://www.w3.org/1999/xlink" width="96" height="96" viewBox="0 0 96 96">
  <defs>
    <clipPath id="clip-path">
      <rect id="Rectángulo_455595" data-name="Rectángulo 455595" width="96" height="96" fill="none"/>
    </clipPath>
    <clipPath id="clip-path-2">
      <rect id="Rectángulo_459103" data-name="Rectángulo 459103" width="55.765" height="51.7" fill="#fff"/>
    </clipPath>
  </defs>
  <g id="Grupo_1207708" data-name="Grupo 1207708" transform="translate(-735.746 -9118)">
    <g id="Grupo_1180407" data-name="Grupo 1180407" transform="translate(735.746 9117.971)">
      <g id="Grupo_1179172" data-name="Grupo 1179172" transform="translate(0 0.03)" clip-path="url(#clip-path)">
        <path id="Trazado_998483" data-name="Trazado 998483" d="M92.627,52.5A40.125,40.125,0,1,1,52.5,12.377,40.125,40.125,0,0,1,92.627,52.5" transform="translate(-4.488 -4.517)" fill="#8d1939"/>
        <path id="Trazado_998485" data-name="Trazado 998485" d="M90.973,46.487A44.486,44.486,0,1,1,46.487,2,44.486,44.486,0,0,1,90.973,46.487Z" transform="translate(1.527 1.499)" fill="none" stroke="#8d1939" stroke-miterlimit="10" stroke-width="4"/>
      </g>
    </g>
    <g id="Grupo_1180408" data-name="Grupo 1180408" transform="translate(755.746 9137)">
      <g id="Grupo_1099618" data-name="Grupo 1099618" transform="translate(-0.035 -0.119)">
        <rect id="Rectángulo_401104" data-name="Rectángulo 401104" width="56.349" height="57.028" transform="translate(0)" fill="none"/>
      </g>
      <g id="Grupo_1208917" data-name="Grupo 1208917" transform="translate(-0.035 2.881)">
        <g id="Grupo_1208916" data-name="Grupo 1208916" transform="translate(0 0)" clip-path="url(#clip-path-2)">
          <path id="Trazado_1267929" data-name="Trazado 1267929" d="M35.346,33.6a1.2,1.2,0,1,1-1.21,1.2,1.2,1.2,0,0,1,1.21-1.2" transform="translate(-2.677 -2.635)" fill="#fff"/>
          <path id="Trazado_1267930" data-name="Trazado 1267930" d="M55.544,3.6a1.2,1.2,0,1,1-1.21,1.2,1.2,1.2,0,0,1,1.21-1.2" transform="translate(-4.262 -0.282)" fill="#fff"/>
          <path id="Trazado_1267931" data-name="Trazado 1267931" d="M58.069,22.3a1.2,1.2,0,1,1-1.209,1.2,1.2,1.2,0,0,1,1.209-1.2" transform="translate(-4.46 -1.749)" fill="#fff"/>
          <path id="Trazado_1267932" data-name="Trazado 1267932" d="M24.034,33.6a1.2,1.2,0,1,1-1.21,1.2,1.2,1.2,0,0,1,1.21-1.2" transform="translate(-1.79 -2.635)" fill="#fff"/>
          <path id="Trazado_1267933" data-name="Trazado 1267933" d="M13.935,28.6a1.2,1.2,0,1,1-1.21,1.2,1.2,1.2,0,0,1,1.21-1.2" transform="translate(-0.998 -2.243)" fill="#fff"/>
          <path id="Trazado_1267934" data-name="Trazado 1267934" d="M3.835,17.3a1.2,1.2,0,1,1-1.209,1.2,1.2,1.2,0,0,1,1.209-1.2" transform="translate(-0.206 -1.357)" fill="#fff"/>
          <path id="Trazado_1267935" data-name="Trazado 1267935" d="M52.4,28.9a3.19,3.19,0,0,0-2.606,1.2l-2.327,2.673a8.358,8.358,0,0,1-6.235,2.765h-.745c-4.654,0-10.145,4.423-10.145,10.045v6.082H25.688V45.58A10.119,10.119,0,0,0,15.542,35.535H14.8a8.358,8.358,0,0,1-6.236-2.765L6.142,30.1a3.477,3.477,0,0,0-2.605-1.2A3.442,3.442,0,0,0,0,32.31a3.52,3.52,0,0,0,.838,2.3L6.7,41.156a10.9,10.9,0,0,0,8,3.5,1.561,1.561,0,0,1,1.582,1.566V51.57H12.751a1.2,1.2,0,1,0,0,2.4H43a1.2,1.2,0,1,0,0-2.4H39.462V46.224a1.561,1.561,0,0,1,1.582-1.566,10.9,10.9,0,0,0,8-3.5l5.864-6.542a3.52,3.52,0,0,0,.838-2.3A3.23,3.23,0,0,0,52.4,28.9M18.708,51.663V46.318A3.914,3.914,0,0,0,14.8,42.447a8.358,8.358,0,0,1-6.236-2.765L2.7,33.139A1.041,1.041,0,0,1,2.42,32.4a1.167,1.167,0,0,1,2.048-.737l2.419,2.673a10.9,10.9,0,0,0,8,3.5h.746a7.826,7.826,0,0,1,7.818,7.741v6.082ZM53.33,33.139l-5.864,6.543a8.358,8.358,0,0,1-6.235,2.765,3.914,3.914,0,0,0-3.909,3.871v5.345H32.668V45.58a7.552,7.552,0,0,1,2.606-5.437,8.036,8.036,0,0,1,5.212-2.3h.745a10.9,10.9,0,0,0,8-3.5l2.42-2.673A1.167,1.167,0,0,1,53.7,32.4a1.843,1.843,0,0,1-.372.738" transform="translate(0 -2.266)" fill="#fff"/>
          <path id="Trazado_1267936" data-name="Trazado 1267936" d="M7.572,16.034a1.2,1.2,0,1,0,0,2.4h5.212c3.444,4.147,9.307,7.556,14.985,13.27a1.187,1.187,0,0,0,1.674,0c6.236-6.174,12.566-9.676,15.915-14.376h3.072a1.2,1.2,0,1,0,0-2.4H46.662a12.178,12.178,0,0,0,1.024-4.976A10.02,10.02,0,0,0,37.634,0C33.167,0,30.747,2.12,28.7,5.345,26.745,2.027,24.232,0,19.764,0A10.019,10.019,0,0,0,9.713,9.953,12.2,12.2,0,0,0,11.3,16.127H7.572ZM28.607,29.121c-4.84-4.608-9.494-7.648-12.659-10.782h6.795a1.169,1.169,0,0,0,1.117-.828l1.024-3.134L27.4,24.328a1.166,1.166,0,0,0,2.234,0l2.047-7.188H42.288c-3.072,3.6-8.377,6.821-13.682,11.98M11.854,9.86a7.668,7.668,0,0,1,7.725-7.649c3.63,0,5.585,1.475,7.912,5.99a1.152,1.152,0,0,0,2.047,0c2.234-4.515,4.282-5.99,7.912-5.99A7.668,7.668,0,0,1,45.173,9.86a9.681,9.681,0,0,1-1.3,4.976H30.84a1.2,1.2,0,0,0-1.116.83l-1.117,3.963-2.42-9.676a1.116,1.116,0,0,0-1.117-.83,1.029,1.029,0,0,0-1.117.83l-2.048,6.081H13.994A9.768,9.768,0,0,1,11.854,9.86" transform="translate(-0.499 0)" fill="#fff"/>
        </g>
      </g>
    </g>
  </g>
</svg>
