<svg xmlns="http://www.w3.org/2000/svg" xmlns:xlink="http://www.w3.org/1999/xlink" width="292" height="215.96" viewBox="0 0 292 215.96">
  <defs>
    <clipPath id="clip-path">
      <rect id="Rectángulo_459107" data-name="Rectángulo 459107" width="292" height="210.721" fill="none"/>
    </clipPath>
  </defs>
  <g id="Grupo_1208925" data-name="Grupo 1208925" transform="translate(-1018 -2089)">
    <path id="Trazado_1267954" data-name="Trazado 1267954" d="M236.21,26.991c5.583,13.538-10.473,23.621-3.079,43.651,7.616,20.636,32.111,28.472,27.545,54.3-7.3,43.045-19.489,52.53-49.307,72.7-46.758,29.045-190.837,4.783-185.358-10.522-1.793-2.22-25.567-49.741,0-88,9.8-14.449,16.622-19.143,26.13-37.566,7.385-14.311-1.06-22.215,3.293-32.706C68.35-2.284,174.115-8.47,218.413,11.609c8.8,3.988,15.222,9.138,17.8,15.382" transform="translate(1023.473 2088.978)" fill="#ffe19a" fill-rule="evenodd"/>
    <g id="Grupo_1208924" data-name="Grupo 1208924" transform="translate(1018 2094.238)">
      <g id="Grupo_1208923" data-name="Grupo 1208923" transform="translate(0 0)" clip-path="url(#clip-path)">
        <path id="Trazado_1267955" data-name="Trazado 1267955" d="M167.941,64.41c-6.9,2.692-14.476,2.786-21.469,5.16-1.577.536-3.1,1.471-4.73,1.734-1.526.244-3.122.058-4.689.384a33.432,33.432,0,0,0-9.871,3.958,132.979,132.979,0,0,0-12.394,8.77c-20.942,15.57-45.028,26.228-68.124,38.378-3.033,1.6-7.676,3.484-8.717,7.027-2.209,7.522,4.375,13.372,11.431,14,5.158.456,10.144-1.92,14.476-4.754,8-5.237,14.729-12.17,22.178-18.165s16.053-11.209,25.581-12.018a4.66,4.66,0,0,1,2.8.391,3.287,3.287,0,0,1,1.386,3.1,7.649,7.649,0,0,1-1.28,3.3c-4.52,7.345-12.522,11.639-19.848,16.19a167.541,167.541,0,0,0-14.662,10.231C77.551,144,66.384,152.708,72,156.04a7.426,7.426,0,0,0,4.561.58c13.681-1.4,26.073-8.582,37.284-16.55s21.843-16.963,34.261-22.876c5.629-2.68,11.554-4.692,17.2-7.333a84.829,84.829,0,0,0,33.812-28.71c3.378-4.926,6.932-10.716,12.807-11.793,2.313-.423,4.991.138,6.36,2.048,1.478,2.062.8,4.491,0,6.662-.357.968-1.471,1.654-2.294,2.229-1.041.724-2.144,1.357-3.192,2.074a49.2,49.2,0,0,0-7.836,7.191c-.234.249-.473.645-.237.889a.643.643,0,0,0,.447.145c2.506.118,4.858-1.4,7.367-1.391a2.622,2.622,0,0,1,1.591.43,3.091,3.091,0,0,1,.8,2.743q-.062.877-.2,1.743a3.747,3.747,0,0,0-.041,1.652,1.148,1.148,0,0,0,1.227.889,2.057,2.057,0,0,0,.744-.442,2.384,2.384,0,0,1,2.514-.4,4.853,4.853,0,0,1,.857.736,3.226,3.226,0,0,0,3.559.71,3.666,3.666,0,0,0,1.618-2.255,8.03,8.03,0,0,1,.471-1.388,1.574,1.574,0,0,1,1.1-.889c.64-.092,1.236.377,1.883.391,2.241.046,1.932-3.352,1.272-4.619-1.371-2.639-2.907-5.332-2.043-8.5a12.709,12.709,0,0,1,2.77-4.484c1.519-1.852,2.992-3.748,4.349-5.725a20.243,20.243,0,0,0,3.813-8.533c.65-4.849-1.755-9.721-5.266-13.128-5.737-5.566-13.945-7.686-21.85-8.886a99.518,99.518,0,0,0-21.563-1.111,25.391,25.391,0,0,1,.756,6.957c-.164,2.352-.966,4.832-2.861,6.28-2.086,1.591-4.337,3.028-6.447,4.612-4.276,3.211-8.635,6.462-13.657,8.42" transform="translate(53.066 53.697)" fill="#eabb5d"/>
        <path id="Trazado_1267956" data-name="Trazado 1267956" d="M4.238,72.51C9.613,74.7,15.761,73.62,21.406,74.963c8.2,1.951,14.314,8.669,19.481,15.331s10.255,13.875,17.8,17.634c5.967,2.972,12.872,3.443,19.527,3.079,8.495-.468,17.253-2.371,23.924-7.652s10.67-14.58,7.807-22.589a23.92,23.92,0,0,0-5.665-8.434c-5.45-5.58-12.288-9.593-19.25-13.109a189.909,189.909,0,0,0-21.645-9.287,5.568,5.568,0,0,0-2.777-.476,6.026,6.026,0,0,0-2.509,1.4A40.325,40.325,0,0,1,46.521,57.17C33.2,61.716,17.85,58.447,5.161,64.539c-1.741.833-3.8,2.263-4.2,4.31-.389,2,1.664,3.006,3.274,3.661" transform="translate(1.296 69.905)" fill="#eabb5d"/>
        <path id="Trazado_1267957" data-name="Trazado 1267957" d="M120.959,33.437a4.692,4.692,0,0,0-.763-1.678,1.982,1.982,0,0,0-2.919-.316c-.724.657-.751,2.072-.944,2.956q-1.058,4.806-2.383,9.555-.714,2.557-1.507,5.092c-.082.266-1.4.758-1.671.905-.558.3-1.116.6-1.671.9l-3.344,1.811c-2.229,1.207-17.494,9.712-19.6,10.733a29.953,29.953,0,0,1-4.424,1.937,21.59,21.59,0,0,1-4.655.826,6.739,6.739,0,0,0-3.593,1.111,14.181,14.181,0,0,0-6.034,8.775,1.178,1.178,0,0,0,.128,1.05,1.157,1.157,0,0,0,.985.227,18.724,18.724,0,0,0,5.107-1.507c14.273-5.81,27.838-13.206,41.368-20.582a7.71,7.71,0,0,0,2.453-1.821c.652-.823.522-1.736.855-2.68.867-2.477,1.8-4.936,2.422-7.49a19.485,19.485,0,0,0,.193-9.806" transform="translate(95.33 43.765)" fill="#ffb78c"/>
        <path id="Trazado_1267958" data-name="Trazado 1267958" d="M101.02,25.521a11.918,11.918,0,0,0-3.815.519,9.449,9.449,0,0,0-2.939,1.154A11.986,11.986,0,0,0,91.2,30.8,43.582,43.582,0,0,0,86.387,40.9a3,3,0,0,0-.208,1.169,2.487,2.487,0,0,0,.321.937,8.026,8.026,0,0,0,7.372,4.226c.56-6.068,5.756-10.815,6.894-16.8a5.728,5.728,0,0,0,.075-1.637,8.918,8.918,0,0,1,.024-1.586,7.953,7.953,0,0,1,.155-1.69" transform="translate(121.904 36.078)" fill="#ffcce2"/>
        <path id="Trazado_1267959" data-name="Trazado 1267959" d="M82.158,57.5q-2.894,2.072-5.667,4.284A59.168,59.168,0,0,0,63.93,75.22a6.382,6.382,0,0,0-.886,1.652,6.567,6.567,0,0,0-.181,1.922,19.517,19.517,0,0,0,.949,7.2,12,12,0,0,0,8.509,6.788,5.322,5.322,0,0,0,2.362.126,6.416,6.416,0,0,0,1.8-.814q1.373-.793,2.755-1.57,9.87-5.549,20.177-10.267c3.422-1.565,6.87-3.156,10.39-4.5,1.487-.567,2.263-.7,3.108-2.226a14.764,14.764,0,0,0,1.374-4.315,109.509,109.509,0,0,0,2.065-18.115,36.125,36.125,0,0,1,.913-9.05C104.5,43.984,92.715,49.953,82.158,57.5" transform="translate(88.927 59.492)" fill="#379799"/>
        <path id="Trazado_1267960" data-name="Trazado 1267960" d="M53.292,101.541a10.927,10.927,0,0,1-4.378-12.906,9.9,9.9,0,0,1,2.422-3.668c1.2-.983,2.617-1.635,3.878-2.526a7.9,7.9,0,0,0,1.678-1.531c.6-.756,1-1.654,1.611-2.4a6.5,6.5,0,0,1,4.9-2.26,9.345,9.345,0,0,1,5.237,1.635,5.659,5.659,0,0,0-2.96,1.668c-2.719,2.419-5.324,5.138-6.657,8.524-1.521,3.873-1.224,8.178-1.178,12.339a7.867,7.867,0,0,1-.039,2.009c-.157.57-.534.449-1.065.372a9.054,9.054,0,0,1-3.446-1.253" transform="translate(68.208 107.86)" fill="#64bcbe"/>
        <path id="Trazado_1267961" data-name="Trazado 1267961" d="M67.884,77.919a26.776,26.776,0,0,0-3.542-.239,6.89,6.89,0,0,0-4.436,1.509c-1.335,1.193-1.572,2.929-2.615,4.288-1.374,1.789-3.83,2.337-5.549,3.793-3.75,3.17-2.956,9.115-.662,12.87,1.019,1.671,2.832,3.6,4.921,3.644a4.561,4.561,0,0,0,3.395-1.531,5.78,5.78,0,0,0,1.415-3.487A3.275,3.275,0,0,1,62.2,96.1a15.524,15.524,0,0,1,3.349-1.854,76.688,76.688,0,0,0,9.83-5.363,17.326,17.326,0,0,0,4.89-4.214,3.294,3.294,0,0,0,.5-.913,3.391,3.391,0,0,0,.106-1.169,8.253,8.253,0,0,0-1.83-5.059c-1.118-1.3-3.55-2.731-5.163-1.555-.819.6-1.743.963-2.579,1.507a3.054,3.054,0,0,1-2.19.555c-.408-.031-.819-.072-1.227-.116" transform="translate(69.521 106.856)" fill="#0e1b47"/>
        <path id="Trazado_1267962" data-name="Trazado 1267962" d="M157.064,67.919c-2.267-6.445-7.891-11.131-13.79-14.575a50.074,50.074,0,0,0-14.181-5.761c-2.043-.459-4.45-.343-6.382-1.05-.9-.331-3.33-2.506-2.135-3.692a21.42,21.42,0,0,0-4.887,22.106,3.377,3.377,0,0,1,.336,1.958,3.074,3.074,0,0,1-.669,1.132,125.07,125.07,0,0,1-9.106,10.084c-3.042,3.021-6.4,5.578-9.523,8.444q-3.912,3.589-7.773,7.234-9.714,9.12-19.365,18.313c-2.453,2.328-9.224,8.813-10.25,9.644a.94.94,0,0,0-.285.309.958.958,0,0,0-.043.476.2.2,0,0,0,.031.111.18.18,0,0,0,.14.046,5.822,5.822,0,0,1,1.739.085,7.684,7.684,0,0,1,5.278,6.546,3.259,3.259,0,0,1-.268,1.562c-.133.4-.369,1.06-.046,1.43.263.3.872.135,1.222.036a12.1,12.1,0,0,0,3-1.726c5.346-3.284,10.342-7.283,15.367-11.023,6.845-5.095,13.715-10.221,20.2-15.775a44.557,44.557,0,0,1,8.582-6.278c6.095-3.166,12.51-4.969,19-7.051,6.317-2.026,13.351-3.958,18.559-8.224,4.165-3.412,7.181-8.881,5.252-14.36" transform="translate(83.465 60.604)" fill="#64bcbe"/>
        <path id="Trazado_1267963" data-name="Trazado 1267963" d="M109.05,26.226a14.583,14.583,0,0,0-3.426.922,7.252,7.252,0,0,0-3.813,4.96,62.836,62.836,0,0,0-2.019,10.436c-.613,5.761-.662,12.187-4.655,16.383-1.879,1.973-4.4,3.168-6.759,4.537a45.508,45.508,0,0,0-9.18,7.048,83.253,83.253,0,0,1,28.143,9.506,60.436,60.436,0,0,1,21.548,20.23c1.794-10.6,6.85-20.454,13.375-29s14.5-15.871,22.722-22.794a2.548,2.548,0,0,0,.956-1.222,2.382,2.382,0,0,0-.246-1.446c-1.886-4.54-5.559-8.154-9.7-10.8A72.959,72.959,0,0,0,142.638,28.8a69.342,69.342,0,0,0-7.14-2.514c-2.192-.577-4.387-.541-6.587-.905-4.812-.8-10.337,0-15.183.382-1.461.116-3.1.217-4.677.468" transform="translate(112.037 35.414)" fill="#ff9ebf"/>
        <path id="Trazado_1267964" data-name="Trazado 1267964" d="M118.6,64.163a14.291,14.291,0,0,0-5.935-8.758,7.44,7.44,0,0,0-3.32-1.222c-1.1-.087-1.55.379-2.393,1-4,2.943-7.4,6.527-11.45,9.422C81.314,74.753,67.1,84.871,52.544,94.476c-2.569,1.7-6.181,2.953-9.306,2.313a30.994,30.994,0,0,1-3.576-1.263,4.853,4.853,0,0,0-3.7-.017,4.217,4.217,0,0,0-2.009,3.779,8.663,8.663,0,0,0,.9,3.694,7.14,7.14,0,0,0,2.376,3.011c1.425.947,3.214,1.079,4.89,1.415a18.646,18.646,0,0,1,6.425,2.613,32.625,32.625,0,0,1,4.194,3.366,9.553,9.553,0,0,0,2.666,1.932,4.711,4.711,0,0,0,4.812-.814c3.535-3.139,1.891-9.026,5.889-11.9,2.7-1.941,6.235-3.047,9.354-4.141,3.414-1.2,6.884-2.229,10.325-3.347,2.13-.693,4.25-1.417,6.336-2.234a15.161,15.161,0,0,0,4.361-2.349c1.876-1.589,2.953-3.907,4.441-5.865,3.68-4.844,9.6-7.225,15.434-9.161a3.485,3.485,0,0,0,2.345-2.668,21.139,21.139,0,0,0-.1-8.678" transform="translate(48.035 76.634)" fill="#ffe5cc"/>
        <path id="Trazado_1267965" data-name="Trazado 1267965" d="M94.524,63.215a92.829,92.829,0,0,0-11.607,6.891q-17.646,11.735-34.7,24.32c-2.313,1.707-4.721,3.472-7.539,4.042a31.2,31.2,0,0,1,5.435-4.747C61.347,82.5,78.189,73.458,92.544,61.134c3.636-3.12,7.162-6.486,11.455-8.613a7.73,7.73,0,0,0,3.038,3.859c-2.362,3.815-8.664,5.018-12.513,6.836" transform="translate(57.54 74.297)" fill="#379799"/>
        <path id="Trazado_1267966" data-name="Trazado 1267966" d="M104.829,69.643a8.252,8.252,0,0,0,.292-1.478,19.125,19.125,0,0,0-2.031-10.086,10.255,10.255,0,0,0-1.864-3.074,3.713,3.713,0,0,0-3.257-1.2c-1.444.295-1.625,1.372-1.932,2.552a10.865,10.865,0,0,1-1.932,3.682c-5.52,7.6-11.09,15.248-18.008,21.6A141.244,141.244,0,0,1,62.848,91.993Q57.556,95.8,52.269,99.6a16.7,16.7,0,0,0-4.45,4.107c1.444.72,1.449,2.7.983,4.059a11.965,11.965,0,0,1-1.816,3.081c8.533-3.381,15.253-10.161,23.337-14.51,3.851-2.074,8.072-3.632,11.3-6.582,1.582-1.446,2.871-3.178,4.305-4.769a36.385,36.385,0,0,1,2.842-2.818A28,28,0,0,1,91.3,79.832a60.439,60.439,0,0,1,6.884-3.646q1.293-.666,2.538-1.42a9.094,9.094,0,0,0,4.11-5.124" transform="translate(66.468 76.044)" fill="#379799"/>
        <path id="Trazado_1267967" data-name="Trazado 1267967" d="M95.949,63.253a12.241,12.241,0,0,1-6.486,8.606,43.535,43.535,0,0,1-5.583,2.06,36.206,36.206,0,0,0-9.446,4.868c-4.759,3.4-8.635,7.9-13.259,11.489s-10.467,6.285-16.219,5.218a6.023,6.023,0,0,1-3.709-2.212c.336-.184.671-.382.978-.58C56.781,83.1,71,72.987,85.178,62.826c3.173-2.258,5.935-4.928,8.91-7.4a10.643,10.643,0,0,1,1.862,7.828" transform="translate(58.351 78.405)" fill="#ff695e"/>
        <path id="Trazado_1267968" data-name="Trazado 1267968" d="M103.248,18.683c-.186.285-.365.577-.536.874-1.405,2.429-1.772,4.955-2.63,7.575a10.7,10.7,0,0,1-2.374,3.451,25.086,25.086,0,0,0-2.567,3.632,12.212,12.212,0,0,0-1.748,6.732,8.015,8.015,0,0,0,6.223,7.507c2.842.519,5.725-.659,8.2-2.154a22.987,22.987,0,0,0,7.746-7.319,7.238,7.238,0,0,0,1.072-6.249,27.958,27.958,0,0,0-1.258-4.378,11.8,11.8,0,0,0-4.358-4.651,8.538,8.538,0,0,1-1.787-1.335c-1.1-1.215-.732-2.881-.454-4.327a19.8,19.8,0,0,1,1.987-5.636,6.4,6.4,0,0,0-2.987,1.413,19.221,19.221,0,0,0-4.53,4.866" transform="translate(132.088 17.548)" fill="#0e1b47"/>
        <path id="Trazado_1267969" data-name="Trazado 1267969" d="M118.064,31.413a5.87,5.87,0,0,1-2.2-2.564,11.651,11.651,0,0,1-.734-3.612c-.056-.592-.113-1.186-.169-1.777-.488.584-.546,1.524-1.021,2.019a6.523,6.523,0,0,1-2.7,1.041,11.8,11.8,0,0,1-7.353-.147,16.951,16.951,0,0,0-1.946-.794,2.384,2.384,0,0,0-2.016.251,1.317,1.317,0,0,0-.311,1.842l-.227.722a.067.067,0,0,1,.075-.01.185.185,0,0,1,.063.152c.126,1.553-.046,3.344-1.292,4.281-.922.693-2.144.814-1.415,2.3a3.25,3.25,0,0,0,1.176,1.224c1.772,1.164,4,1.33,6.114,1.384,4.37.109,8.838-.14,12.906-1.729a7.82,7.82,0,0,0,2.731-1.62,1.6,1.6,0,0,0,.512-.86,1.371,1.371,0,0,0-.577-1.2,7.54,7.54,0,0,0-1.215-.676q-.2-.109-.4-.232" transform="translate(136.644 33.185)" fill="#ffb78c"/>
        <path id="Trazado_1267970" data-name="Trazado 1267970" d="M120.107,39.394a2.276,2.276,0,0,0,.538.072,3,3,0,0,0,1.376-.509,8.067,8.067,0,0,0,2.243-2.18,18.74,18.74,0,0,0,3.668-10.426,15.048,15.048,0,0,0-.49-4.573,13.773,13.773,0,0,0-6.676-8.256,14.179,14.179,0,0,0-5.641-1.4,14.625,14.625,0,0,0-6.392.968,27.308,27.308,0,0,0-5.315,2.982A14.533,14.533,0,0,0,101.56,17.5,11.574,11.574,0,0,0,98.2,24.454c-.08.869-.014,1.8-.157,2.663a7.874,7.874,0,0,1-.809,2.009,13.749,13.749,0,0,0-1.084,6.836,35.756,35.756,0,0,0,1.357,6.853,5.123,5.123,0,0,0,1.683,3.055,4.587,4.587,0,0,0,2.482.608c4.779.135,9.439-1.454,13.831-3.347a5,5,0,0,0,2.9-2.294c.222-.536.331-1.227.867-1.442a1.363,1.363,0,0,1,.833,0" transform="translate(135.949 17.091)" fill="#ffe5cc"/>
        <path id="Trazado_1267971" data-name="Trazado 1267971" d="M105.483,23.66A2.662,2.662,0,1,1,102.82,21a2.664,2.664,0,0,1,2.663,2.663" transform="translate(141.689 29.702)" fill="#ff8c8c"/>
        <path id="Trazado_1267972" data-name="Trazado 1267972" d="M103.2,17.99a10.146,10.146,0,0,1,3.414.307,4.768,4.768,0,0,1,2.731,1.97,2.448,2.448,0,0,0-.988-.369,48.6,48.6,0,0,0-7.893-.85,1.707,1.707,0,0,1-.531-.08.57.57,0,0,1-.365-.367c-.167-.635,1.142-.444,1.487-.466.715-.043,1.429-.111,2.144-.145" transform="translate(140.839 25.417)" fill="#0e1b47"/>
        <path id="Trazado_1267973" data-name="Trazado 1267973" d="M99.179,18.848c.191.082.382.169.577.234.819.266.546-.471.159-.848a4.171,4.171,0,0,0-1.285-.9,2.153,2.153,0,0,0-1.352-.128c-.307.08-.625.256-.413.6a1.635,1.635,0,0,0,.944.546,13.262,13.262,0,0,1,1.369.5" transform="translate(136.932 24.255)" fill="#0e1b47"/>
        <path id="Trazado_1267974" data-name="Trazado 1267974" d="M104.718,19.766c1.5.2,3.021.229,4.513.49a8.049,8.049,0,0,1,4.1,1.8,5.906,5.906,0,0,1,1.857,4.122c.063,1.862-.705,3.69-.543,5.546a5.635,5.635,0,0,0,1.483,3.332c-.217-.234.758-1.367.92-1.512a4.422,4.422,0,0,1,1.4-.761c1.664-.592,2.878.432,1.951,2.077-1.094,1.944-3.1,3.154-4.74,4.668a15.607,15.607,0,0,0-4.875,9.7c-.526,4.89,2.3,10.219,7.831,9.888a13.79,13.79,0,0,0,6.085-2.178,19.479,19.479,0,0,0,7.3-6.969,10.867,10.867,0,0,0,.669-9.8,11.8,11.8,0,0,0-4.358-4.651,8.617,8.617,0,0,1-1.789-1.335c-1.28-1.417-.621-3.552-.251-5.184a16.972,16.972,0,0,0,.456-5.575,13.34,13.34,0,0,0-3.342-7.254,15.433,15.433,0,0,0-19.631-2.977,20.818,20.818,0,0,0-3.122,2.448,28.4,28.4,0,0,0-2.444,2.946,2.688,2.688,0,0,1,3.125-.328,7.754,7.754,0,0,0,3.409,1.509" transform="translate(138.895 15.46)" fill="#0e1b47"/>
        <path id="Trazado_1267975" data-name="Trazado 1267975" d="M97.746,25.567l.019-.065c-.024.017-.039.041-.019.065" transform="translate(138.263 36.075)" fill="#4f4732"/>
        <path id="Trazado_1267976" data-name="Trazado 1267976" d="M136.379,73.739a6.854,6.854,0,0,0,.08-2.5c-.884-5.66-2.948-11.032-4.518-16.523-1.777-6.218-2.885-12.706-5.841-18.46-.951-1.85-2.557-4.636-4.7-5.307-2.284-.717-5.153,1.287-6.469,2.96a13.194,13.194,0,0,0-2.475,6.93,23.785,23.785,0,0,0,1.405,10.383c1.123,3.074,2.811,5.906,4.214,8.864a73.886,73.886,0,0,1,3.335,8.555c.845,2.567,1.26,4.672.171,7.268-1.306,3.11-2.881,5.957-4.255,9a11.59,11.59,0,0,1-2.473,3.313c-.947.944-2.255,1.34-3.231,2.238-1.113,1.026-1.526,2.579-2.115,3.975a14.381,14.381,0,0,1-2.564,4.016c-.406.449-.857,1.125-.464,1.582a.9.9,0,0,0,.584.268,2.83,2.83,0,0,0,2.079-.811,38.8,38.8,0,0,0,2.98-3.335c.357-.379.845-.763,1.347-.623.456.128.688.625.843,1.075,1.014,2.958,1.21,6.145,2.18,9.118a1.048,1.048,0,0,0,.29.514.7.7,0,0,0,.809-.017,1.522,1.522,0,0,0,.5-.693c.623-1.5.249-3.207.362-4.829a.5.5,0,0,1,.14-.374.353.353,0,0,1,.466.1,1.061,1.061,0,0,1,.167.5,18.225,18.225,0,0,0,1.468,4.9,2.875,2.875,0,0,0,1.19,1.456,1.132,1.132,0,0,0,1.582-.553,2.445,2.445,0,0,0,1.8-.085c.9-.526.886-1.806.741-2.837q-.359-2.528-.884-5.03c.71-.065,1.181.683,1.545,1.3a10.77,10.77,0,0,0,2.605,2.963c.232.184.553.362.807.21a.661.661,0,0,0,.244-.331,3.753,3.753,0,0,0-.1-2.823,14.024,14.024,0,0,0-1.461-2.5,35.1,35.1,0,0,1-2.106-3.665,9.264,9.264,0,0,1-1.263-4.631c.1-1.42,1.345-2.383,2.234-3.393l3.023-3.436c2.1-2.388,5.025-5.375,5.732-8.722" transform="translate(150.415 43.563)" fill="#ffe5cc"/>
        <path id="Trazado_1267977" data-name="Trazado 1267977" d="M110.375,34.493a16.578,16.578,0,0,0-1.912,6.792A39.439,39.439,0,0,0,110.126,55.8c.333,1.159.705,2.306,1.1,3.443a3.8,3.8,0,0,0,.524,1.335,4.014,4.014,0,0,0,1.671.512,15.573,15.573,0,0,0,6.925-.616A17.145,17.145,0,0,0,126,58.043a15.686,15.686,0,0,0,3.569-3.844c.785-1.125.227-2.313-.2-3.446-.406-1.079-.683-2.212-1.07-3.3a80.946,80.946,0,0,0-4.414-10.822,13.058,13.058,0,0,0-4.127-5.085c-3.545-2.3-7.442-.415-9.381,2.951" transform="translate(153.251 43.185)" fill="#ffcce2"/>
        <path id="Trazado_1267978" data-name="Trazado 1267978" d="M86.476,116.873a4.3,4.3,0,0,0-.773-2.325,4.724,4.724,0,0,0-.976-.814q-1.612-1.112-3.221-2.226a16.358,16.358,0,0,1-2.919-2.369,12.475,12.475,0,0,1-2.656-6.418c-.437-2.881-.99-5.778-1.48-8.669q-1.51-8.921-2.543-17.917a42.172,42.172,0,0,0-3.617-13.044l-.036-.08a19.108,19.108,0,0,1-1.4-4.281c-.879-4.421-1.413-8.91-1.917-13.394A57.219,57.219,0,0,1,65.1,32.243a30.568,30.568,0,0,0,.41-4.894,28.586,28.586,0,0,0-.386-4.841A17.993,17.993,0,0,0,59.3,11.636c.751.628-2.972,3.917-3.453,4.221-3.6,2.284-6.157,3.748-8.275,11.293a16.446,16.446,0,0,0-.671,4.433,37.881,37.881,0,0,0,.918,7.222c.724,3.653,1.521,7.292,2.122,10.967,1.186,7.239,6.375,27.626,7.519,30.49,2.632,6.59,5.457,13.1,8.28,19.609,2.32,5.353,4.279,10.989,7.266,15.992.973,1.632,1.34,3.562,2.4,5.15,1.635,2.448,4.841,3.591,7.582,3.784a4.688,4.688,0,0,0,2.84-.664.936.936,0,0,0,.237-.21,1.4,1.4,0,0,0,.225-.637,23.3,23.3,0,0,0,.191-6.413" transform="translate(66.344 16.46)" fill="#ffb78c"/>
        <path id="Trazado_1267979" data-name="Trazado 1267979" d="M37.034,84.42,90.054,54.032l11.187,11.124L47.967,96.373S36.65,84.548,37.034,84.42" transform="translate(52.376 76.435)" fill="#ffa3a7"/>
        <path id="Trazado_1267980" data-name="Trazado 1267980" d="M55.523,46.579a18.832,18.832,0,0,0,4.028-.092,25.193,25.193,0,0,0,9.666-3.69c-.4.246-1.4-6.491-1.454-6.9q-.587-4.252-1.516-8.446c-.893-4.03-.717-8.031-2.572-11.9a2.179,2.179,0,0,0-1.222-1.311c-1.41-.372-2.477,1.364-3.429,2.106-3.629,2.835-9.567,4.916-11.479,9.5-.925,2.212-.623,4.74-.316,7.048.275,2.06.611,4.112.877,6.172.184,1.432-.111,4.861,1.041,5.585a14.381,14.381,0,0,0,6.377,1.929" transform="translate(66.382 20.067)" fill="#c1204c"/>
        <path id="Trazado_1267981" data-name="Trazado 1267981" d="M70.508,62.366a9.111,9.111,0,0,1,1.311,1.5,2.294,2.294,0,0,1,.41,1.253,1.222,1.222,0,0,1-.654,1.089,1.887,1.887,0,0,1-1.707-.408c-2.2-1.439-4.156-3.274-6.524-4.414-1.483-.712-3.17-1.186-4.243-2.434a3.573,3.573,0,0,1-.835-3.006,2.838,2.838,0,0,1,2.127-2.19,4.213,4.213,0,0,1,2.719.616,10.048,10.048,0,0,1,3.207,3.255,48.756,48.756,0,0,0,4.189,4.738" transform="translate(82.331 75.977)" fill="#ffe5cc"/>
        <path id="Trazado_1267982" data-name="Trazado 1267982" d="M53.3,57.728c.679,6.268.913,30.132.415,35.754q-.829,9.381-1.656,18.759a13.474,13.474,0,0,1-1.263,5.435c-1.7,3.057-5.747,4.32-9.125,3.414a12.755,12.755,0,0,1-7.659-6.725,30.622,30.622,0,0,1-2.695-10.088c-1.3-9.965-1.164-20.058-.862-30.1.222-7.338.534-14.683,1.413-21.973a40.1,40.1,0,0,1,2.784-11.66,12.94,12.94,0,0,1,4.233-5.525,12.042,12.042,0,0,1,4.428-1.76,7.951,7.951,0,0,1,5.392.435c3.187,1.736,2.755,7.017,3.083,10.047q.753,6.994,1.512,13.99" transform="translate(42.803 46.673)" fill="#379799"/>
        <path id="Trazado_1267983" data-name="Trazado 1267983" d="M14.328,52.355a8.572,8.572,0,0,0,3-1.287c2.54-1.731,4.286-4.2,7.476-4.827a6.486,6.486,0,0,1,4.7.765,4.78,4.78,0,0,1,2.27,4.071c-2.5-1.579-5.233-.212-7.22,1.49a59.948,59.948,0,0,1-4.725,4.074A14.591,14.591,0,0,1,12.249,59.2a3.9,3.9,0,0,1-2.2-.389c-1.4-.835-1.717-3.395-1.048-4.8.8-1.671,3.825-1.333,5.324-1.654" transform="translate(12.262 65.217)" fill="#379799"/>
        <path id="Trazado_1267984" data-name="Trazado 1267984" d="M16.484,64.61c-2.089.089-4.32.336-6.143-.688a5.079,5.079,0,0,1-2.526-4.37,5.3,5.3,0,0,1,2.5-4.4c2.263-1.381,5.177-.908,7.715-1.671a8.1,8.1,0,0,0,3.059-1.71c1.089-.968,1.905-2.224,3.057-3.12a8.37,8.37,0,0,1,3.757-1.55,8.364,8.364,0,0,1,3.757.145,7.961,7.961,0,0,1,4.04,2.48,51.208,51.208,0,0,1,2.741,4.769c1.2,2.052,2.963,4.052,5.319,4.375a14.424,14.424,0,0,1-2.5,6.232c-1.13,1.6-2.388,3.47-4.421,3.941-1.372.316-2.644-.548-3.837-1.106a35.723,35.723,0,0,0-10.349-3.04,35.2,35.2,0,0,0-6.174-.283" transform="translate(11.055 66.419)" fill="#0e1b47"/>
        <path id="Trazado_1267985" data-name="Trazado 1267985" d="M52.875,96.1a24.769,24.769,0,0,1-5.962-3.178,37.586,37.586,0,0,1-5.575-5.744,148.466,148.466,0,0,0-19.889-19.24,7.72,7.72,0,0,1-2.156-2.253,5.4,5.4,0,0,1-.553-2.045A12.182,12.182,0,0,1,21.3,55.326a21.847,21.847,0,0,1,6.771-5.686A190.449,190.449,0,0,0,53.505,70.679c4.146,2.931,8.468,5.86,11.313,10.064,3.465,5.124,4.938,16.811-3.7,17.074A21.106,21.106,0,0,1,52.875,96.1" transform="translate(26.443 70.222)" fill="#379799"/>
        <path id="Trazado_1267986" data-name="Trazado 1267986" d="M.537,67.361A10.873,10.873,0,0,1,0,64.384a9.324,9.324,0,0,1,4.2-7.869c1.343-.876,3.1-.944,4.624-1.425a13.714,13.714,0,0,0,4.639-2.33C15,51.5,16.212,49.718,18.1,49.092a6.566,6.566,0,0,1,3.3-.077,4.694,4.694,0,0,1,3.455,2.1,5.689,5.689,0,0,1,.229,3.349c-2.11-1.164-4.088.058-6.005.976a31.871,31.871,0,0,0-5.87,3.494,15.156,15.156,0,0,0-5.583,7.9,18.613,18.613,0,0,1-1.012,3.7c-.389.782-1.065,1.69-1.99,1.64a3.32,3.32,0,0,1-1.99-.944,8.876,8.876,0,0,1-2.1-3.868" transform="translate(0 69.094)" fill="#64bcbe"/>
        <path id="Trazado_1267987" data-name="Trazado 1267987" d="M9.159,68.934a7.083,7.083,0,0,1-.437.71,4,4,0,0,1-2.741,1.6,4.583,4.583,0,0,1-3.914-1.775A7.228,7.228,0,0,1,.374,63.851a7.867,7.867,0,0,1,5.389-6.28c2.19-.662,4.5-1.029,6.5-2.139,2.229-1.236,3.912-3.313,6.179-4.474a8.967,8.967,0,0,1,3.221-.944,4.013,4.013,0,0,1,2.675.507,4.787,4.787,0,0,1,1.524,2.267c.918,2.263,1.594,4.622,2.564,6.862a14.882,14.882,0,0,0,4.194,5.916,7.887,7.887,0,0,0-6.959,4.783c-.485,1.183-1.253,2.352-2.588,1.456a37.722,37.722,0,0,0-3.687-2.359,23.46,23.46,0,0,0-5.3-1.98c-1.427-.343-3.226-.963-4.286.41a8.151,8.151,0,0,0-.647,1.058" transform="translate(0.447 70.703)" fill="#0e1b47"/>
        <path id="Trazado_1267988" data-name="Trazado 1267988" d="M53.238,103a17.547,17.547,0,0,1-8.232-2.062,59.707,59.707,0,0,1-12.341-7.657C23.275,85.728,16.422,75.55,9.719,65.539a5.33,5.33,0,0,1-1.053-2.294,4.229,4.229,0,0,1,.324-1.915,10.566,10.566,0,0,1,7.872-6.606,1.709,1.709,0,0,1,.862,0,1.938,1.938,0,0,1,.758.613c7.4,8.376,18.262,12.655,27.479,18.972a8.39,8.39,0,0,1,1.908,1.625,12.166,12.166,0,0,1,1.4,2.7,28.591,28.591,0,0,0,5.819,7.9,26.387,26.387,0,0,1,4.351,5.194A7.428,7.428,0,0,1,53.238,103" transform="translate(12.235 77.336)" fill="#379799"/>
        <path id="Trazado_1267989" data-name="Trazado 1267989" d="M57.833,68.749a4.269,4.269,0,0,1-3.687,1.664c-1.125,5.406-1.369,10.933-1.838,16.434-.481,5.653-.753,11.322-1.014,16.989-.227,4.916-.442,9.835-.775,14.746-.268,3.936.278,8.55-2.036,11.885-2.016,2.907-5.539,5.008-9.031,4.428a9.866,9.866,0,0,1-6.587-5.092,29.3,29.3,0,0,1-2.714-8.132q-4.39-19.3-8.777-38.591c-1.934-8.5-3.878-17.072-4.129-25.788s1.294-17.7,5.889-25.107C27.187,38.66,34.732,42.21,42.247,43.6c1.707.316,3.431.551,5.141.857,1.367.246,3.253,1.169,4.578,1.145,1.717-.031,3.265-1.729,4.37-2.854.548-.558,3.453-3.412,3.195-4.218C62.153,46.7,61.54,55.6,59.736,63.99a11.946,11.946,0,0,1-1.613,4.383c-.089.128-.188.254-.29.377" transform="translate(24.359 45.528)" fill="#64bcbe"/>
        <path id="Trazado_1267990" data-name="Trazado 1267990" d="M83.978,8.315c4.568-.089,9.4.283,13.1,2.941a14.9,14.9,0,0,1,5.665,9.567A21.007,21.007,0,0,1,101.31,33.21a21.406,21.406,0,0,1-4.827,5.935c-4.6,4.259-9.844,7.775-14.623,11.839s-9.19,8.84-11.436,14.7a37.783,37.783,0,0,0-2.115,10.8,10.361,10.361,0,0,1-.835,4.1,7.631,7.631,0,0,1-2.108,2.352A22.3,22.3,0,0,1,52.6,87.322a47.926,47.926,0,0,1-13.57-1.666C31.51,83.833,23.785,80.981,18.862,75.01a2.758,2.758,0,0,1-.676-1.217,2.911,2.911,0,0,1,.338-1.606,85.7,85.7,0,0,1,7.14-13.341c1.5-2.294,2.929-4.566,4.255-6.966,1.236-2.241,1.758-4.764,2.605-7.191A83.1,83.1,0,0,1,39.8,29.221c2.825-4.684,6.2-9.168,10.714-12.259a46.269,46.269,0,0,1,15.263-6.384A87.2,87.2,0,0,1,83.668,8.322l.309-.007" transform="translate(25.693 11.745)" fill="#8d1939"/>
        <path id="Trazado_1267991" data-name="Trazado 1267991" d="M51.316,29.759c-.84.121-1.57.671-2.41.79-1.417.2-2.7-.85-3.61-1.953a17.69,17.69,0,0,1-3.767-9.011c-.3-2.352-.29-5.189,1.021-7.232a6.393,6.393,0,0,1,1.591-1.886,5.507,5.507,0,0,1,3.748-.63,12.944,12.944,0,0,0,3.866.157c1.9-.372,3.412-1.84,5.281-2.32a3.37,3.37,0,0,1,.362,2.613,24.782,24.782,0,0,1-.891,2.866A12.143,12.143,0,0,0,56.2,16.6a19.678,19.678,0,0,0,1.062,6.824,18.969,18.969,0,0,1,1.084,3.352,3.724,3.724,0,0,1-.874,3.277,4.03,4.03,0,0,1-1.644.867,2.086,2.086,0,0,1-2.188-.181,2.779,2.779,0,0,0-2.32-.98" transform="translate(58.523 10.852)" fill="#ffb78c"/>
        <path id="Trazado_1267992" data-name="Trazado 1267992" d="M44.852,26.218a22.869,22.869,0,0,1,.379-5.677,32.185,32.185,0,0,1,1.161-5.223,20.336,20.336,0,0,1,5.324-8.842,20.991,20.991,0,0,1,9.709-5.165,17.526,17.526,0,0,1,3.18-.268,18.621,18.621,0,0,1,7.526,1.323,18.047,18.047,0,0,1,7.152,6,18.734,18.734,0,0,1,3.269,13.45,20.394,20.394,0,0,1-3.805,9.217,25.7,25.7,0,0,1-3.284,3.47,12.265,12.265,0,0,1-4.185,2.927,2.509,2.509,0,0,0-1.113.584,2.157,2.157,0,0,0-.394.947q-.471,2-.944,3.991c-.147.621-.374,1.335-.973,1.553-.548.2-1.132-.116-1.688-.3-1.7-.57-3.554.113-5.153.927S57.8,46.924,56.01,46.97a6.838,6.838,0,0,1-4.89-2.246,20.262,20.262,0,0,1-3.086-4.573q-.775-1.413-1.553-2.83a8.483,8.483,0,0,1-1.036-2.463c-.34-1.78.464-3.559,1.248-5.194a4.269,4.269,0,0,1-1.842-3.446" transform="translate(63.353 1.474)" fill="#ffe5cc"/>
        <path id="Trazado_1267993" data-name="Trazado 1267993" d="M49.9,18.428a2.352,2.352,0,1,0,2.352-2.352A2.352,2.352,0,0,0,49.9,18.428" transform="translate(70.591 22.741)" fill="#ff8c8c"/>
        <path id="Trazado_1267994" data-name="Trazado 1267994" d="M51.9,15.024A10.413,10.413,0,0,0,59.21,18.24a3.312,3.312,0,0,0,1.314-.186c.338-.14.864-.575.336-.806a2.977,2.977,0,0,0-1-.094c-.669-.036-1.338-.1-2-.205a21.338,21.338,0,0,1-3.9-.976,5.478,5.478,0,0,1-2.4-1.34c.113.133.232.263.353.391" transform="translate(72.926 20.699)" fill="#0e1b47"/>
        <path id="Trazado_1267995" data-name="Trazado 1267995" d="M58.141,16.822a5.124,5.124,0,0,1-1.4.437.314.314,0,0,1-.28-.043c-.126-.123.01-.331.155-.427.5-.338,1.145-.4,1.644-.739.611-.41.961-1.28,1.707-1.483.355.57-.7,1.519-1.1,1.813a4.293,4.293,0,0,1-.727.442" transform="translate(79.808 20.606)" fill="#0e1b47"/>
        <path id="Trazado_1267996" data-name="Trazado 1267996" d="M63.943,2.147c-.123.326-.222.616-.249.7a3.256,3.256,0,0,0-.208,1.681,10.508,10.508,0,0,0,1.55,3.757,14.653,14.653,0,0,0,2.557,3.687c1.087.99,2.381,1.724,3.477,2.7a5.137,5.137,0,0,1,1.982,3.776c-.031,1.26-.756,2.084-1.33,3.122-.5.9-.872,1.83-1.384,2.721a28.264,28.264,0,0,0-1.47,3.513c-.367.9-.546,2.031-1.471,2.552a3.8,3.8,0,0,1-2.5.089,17.4,17.4,0,0,0-5.65-.019,24.776,24.776,0,0,1-4.414.633,1.252,1.252,0,0,1-.589-.118,1.064,1.064,0,0,1-.406-.5c-.681-1.475.3-3.158.35-4.783A4.607,4.607,0,0,0,51.744,21.6a5.194,5.194,0,0,0-2.89-.577,5.433,5.433,0,0,0-2.685,1.244,2.54,2.54,0,0,0-1.07,1.813c-.6-.9-.435-2.545-.357-3.578a23.48,23.48,0,0,1,.674-3.834,24,24,0,0,1,2.258-5.839,19.481,19.481,0,0,1,8.154-8.048,17.283,17.283,0,0,1,8.729-1.8c-.14-.01-.41.628-.613,1.164" transform="translate(63.178 1.349)" fill="#0e1b47"/>
        <path id="Trazado_1267997" data-name="Trazado 1267997" d="M74.777,29.924A10.106,10.106,0,0,1,71.3,28.649c-3.774-2.084-6.942-5.6-7.741-9.835q-.333,1.029-.671,2.052A24.373,24.373,0,0,1,57.66,8.354,3.112,3.112,0,0,1,55.313,7.6c-2.033-1.372-4.269-2.912-6.7-2.584A8.284,8.284,0,0,1,53.661.61,14.374,14.374,0,0,1,60.48.236,23.183,23.183,0,0,1,76.071,10.324a23.148,23.148,0,0,1,3.282,16.89,2.932,2.932,0,0,1-1.586,2.325,5.531,5.531,0,0,1-2.989.384" transform="translate(68.776 0)" fill="#172d75"/>
        <path id="Trazado_1267998" data-name="Trazado 1267998" d="M63.482,150.347a34.994,34.994,0,0,1-1.425-4.146q-.576-2.231-1.149-4.465a22.115,22.115,0,0,0-.7-2.362,17.162,17.162,0,0,0-4.259-5.962c-4.6-4.5-5.252-10.11-6.442-16.161q-2.1-10.7-4.2-21.386c-.666-3.395-1.664-6.836-1.787-10.306-.215-6.07.806-12.109,1.106-18.163.406-8.222-.08-16.625,2.253-24.521,1.05-3.547,2.646-6.908,3.8-10.422s1.847-7.3,1.029-10.909a10.757,10.757,0,0,0-5.049-7.085c-2.178-1.159-5.682-.34-7.71.84a13.231,13.231,0,0,0-4.076,4.018,40.639,40.639,0,0,0-4.629,10,79.869,79.869,0,0,0-3.1,11.1c-1.71,9.014-1.017,18.238-.176,27.307.471,5.092.992,10.183,1.188,15.294a76.225,76.225,0,0,0,1.541,13.974,188.478,188.478,0,0,0,6.034,20.459c1.178,3.364,2.417,6.7,3.682,10.03,1.333,3.508,2.784,6.669,3.436,10.41a17.371,17.371,0,0,1-.365,5.764,6.061,6.061,0,0,0-.07,2.835,5.285,5.285,0,0,0,2.023,2.506,6.111,6.111,0,0,0,2.813,1.367,7.315,7.315,0,0,1,.857.116,5.232,5.232,0,0,1,.864.369,10.862,10.862,0,0,0,1.69.57c.222.063.447.126.671.186a5.45,5.45,0,0,0,3.2.227,3.181,3.181,0,0,0,2.632.611,6.252,6.252,0,0,0,2.5-1.183,4.242,4.242,0,0,0,2.516.879c.6.007,1.318-.215,1.471-.8a1.627,1.627,0,0,0-.167-.99" transform="translate(36.895 19.664)" fill="#ffe5cc"/>
        <path id="Trazado_1267999" data-name="Trazado 1267999" d="M38.073,16.46a23.293,23.293,0,0,0-5.66,7.2,74.376,74.376,0,0,0-4.192,10.093q-1.355,3.774-2.709,7.551a1.257,1.257,0,0,0,.43,1.722c3.523,3.209,7.78,5.858,12.51,6.428,4.165.5,8.328-.64,12.46-1.359,1.34-5.865,2.272-11.815,3.023-17.784.519-4.112.707-8.125-1.3-11.856a9.57,9.57,0,0,0-2.9-3.723,7.227,7.227,0,0,0-4.752-1.388,13.443,13.443,0,0,0-6.9,3.117" transform="translate(35.851 18.832)" fill="#c1204c"/>
      </g>
    </g>
  </g>
</svg>
