<svg xmlns="http://www.w3.org/2000/svg" xmlns:xlink="http://www.w3.org/1999/xlink" width="69" height="69" viewBox="0 0 69 69">
  <defs>
    <clipPath id="clip-path">
      <rect id="Rectángulo_459109" data-name="Rectángulo 459109" width="42" height="41.039" fill="#fff"/>
    </clipPath>
  </defs>
  <g id="Grupo_1207722" data-name="Grupo 1207722" transform="translate(-616.711 -749.381)">
    <circle id="Elipse_13676" data-name="Elipse 13676" cx="34.5" cy="34.5" r="34.5" transform="translate(616.711 749.381)" fill="#6a2874"/>
    <g id="Grupo_1208929" data-name="Grupo 1208929" transform="translate(630.711 763.381)">
      <g id="Grupo_1208928" data-name="Grupo 1208928" clip-path="url(#clip-path)">
        <path id="Trazado_1268003" data-name="Trazado 1268003" d="M105.766,107.121H83.982V93.1a13.815,13.815,0,0,1,.98-3.473c3.588-8.208,16.235-8.21,19.824,0a13.815,13.815,0,0,1,.98,3.473ZM97.308,87.167a.922.922,0,0,0-.5,1.412c.213.321,1.353.74,1.8,1.093,2.133,1.7,2.261,4.119,2.6,6.546a.956.956,0,0,0,1.89.226c.336-1.5-.724-4.793-1.519-6.133-.692-1.166-2.774-3.472-4.266-3.144" transform="translate(-73.874 -73.423)" fill="#fff"/>
        <path id="Trazado_1268004" data-name="Trazado 1268004" d="M65.487,301.36H30.945a5.372,5.372,0,0,1,4.869-5.421l25.249.036a5.418,5.418,0,0,1,4.424,5.385" transform="translate(-27.216 -260.321)" fill="#fff"/>
        <path id="Trazado_1268005" data-name="Trazado 1268005" d="M264.106,46.915c1.086-.24,1.518.78.928,1.653a37.268,37.268,0,0,1-3.553,3.548c-1.124.784-2.153-.186-1.488-1.247a45.284,45.284,0,0,1,3.663-3.679,1.132,1.132,0,0,1,.451-.275" transform="translate(-228.516 -41.237)" fill="#fff"/>
        <path id="Trazado_1268006" data-name="Trazado 1268006" d="M50.366,54.282c-.529.528-1.124.174-1.594-.2a32.787,32.787,0,0,1-3.406-3.454c-.748-1.146.358-2.1,1.426-1.306A43.875,43.875,0,0,1,50.454,53a1.061,1.061,0,0,1-.088,1.285" transform="translate(-39.69 -43.125)" fill="#fff"/>
        <path id="Trazado_1268007" data-name="Trazado 1268007" d="M168.088,7.064a.974.974,0,0,1-1.638-.393c-.256-1.813.166-4.138-.008-6.009a.942.942,0,0,1,1.8,0c-.116,1.87.165,3.934.008,5.779a1.035,1.035,0,0,1-.161.622" transform="translate(-146.342 0)" fill="#fff"/>
        <path id="Trazado_1268008" data-name="Trazado 1268008" d="M7.064,166.746a.974.974,0,0,1-.393,1.638c-1.813.256-4.138-.166-6.009.008a.942.942,0,0,1,0-1.8c1.87.116,3.934-.164,5.779-.008a1.035,1.035,0,0,1,.622.161" transform="translate(0 -146.492)" fill="#fff"/>
        <path id="Trazado_1268009" data-name="Trazado 1268009" d="M288.1,168.088a.974.974,0,0,1,.393-1.638c1.813-.256,4.138.166,6.009-.008a.942.942,0,0,1,0,1.8c-1.87-.116-3.934.164-5.779.008a1.035,1.035,0,0,1-.622-.161" transform="translate(-253.167 -146.342)" fill="#fff"/>
      </g>
    </g>
  </g>
</svg>
