<svg xmlns="http://www.w3.org/2000/svg" xmlns:xlink="http://www.w3.org/1999/xlink" width="96" height="96" viewBox="0 0 96 96">
  <defs>
    <clipPath id="clip-path">
      <rect id="Rectángulo_455595" data-name="Rectángulo 455595" width="96" height="96" fill="none"/>
    </clipPath>
    <clipPath id="clip-path-2">
      <rect id="Rectángulo_459113" data-name="Rectángulo 459113" width="52.508" height="54.587" fill="#fff"/>
    </clipPath>
  </defs>
  <g id="Grupo_1180554" data-name="Grupo 1180554" transform="translate(-735.746 -9118)">
    <g id="Grupo_1180407" data-name="Grupo 1180407" transform="translate(735.746 9117.971)">
      <g id="Grupo_1179172" data-name="Grupo 1179172" transform="translate(0 0.03)" clip-path="url(#clip-path)">
        <path id="Trazado_998483" data-name="Trazado 998483" d="M92.562,52.469A40.092,40.092,0,1,1,52.469,12.377,40.093,40.093,0,0,1,92.562,52.469" transform="translate(-4.455 -4.484)" fill="#8d1939"/>
        <path id="Trazado_998485" data-name="Trazado 998485" d="M90.9,46.451A44.45,44.45,0,1,1,46.451,2,44.45,44.45,0,0,1,90.9,46.451Z" transform="translate(1.564 1.535)" fill="none" stroke="#8d1939" stroke-miterlimit="10" stroke-width="4"/>
      </g>
    </g>
    <g id="Grupo_1180408" data-name="Grupo 1180408" transform="translate(755.746 9137)">
      <g id="Grupo_1099618" data-name="Grupo 1099618" transform="translate(-0.035 -0.225)">
        <rect id="Rectángulo_401104" data-name="Rectángulo 401104" width="56.349" height="57.028" transform="translate(0)" fill="none"/>
      </g>
      <g id="Grupo_1208937" data-name="Grupo 1208937" transform="translate(1.965 0.774)">
        <g id="Grupo_1208936" data-name="Grupo 1208936" clip-path="url(#clip-path-2)">
          <path id="Trazado_1268017" data-name="Trazado 1268017" d="M30.838,41.282l1.1-2.332-1.516-1.224L4.664,37.678A5.239,5.239,0,0,1,.1,31.272a10.387,10.387,0,0,1,1.311-2.756C6.2,19.707,11.693,11.257,16.485,2.446a5.228,5.228,0,0,1,8.169-.871l9.322,15.871a16.3,16.3,0,0,0,2.786-.824A12.768,12.768,0,0,1,51.924,32.879,12.931,12.931,0,0,1,38.9,41.768c-1.083-.071-2.158-.494-3.2-.561l-1.1,2.048c.013.439.881.295.591,1.362-1.585,2.549-2.76,5.5-4.316,8.043-2.424,3.958-7.643,1.218-6.107-2.822,1.035-2.722,3.382-5.686,4.537-8.446.652-.84,1.216.117,1.532-.11M4.334,36.13h24.8c-.18-.455-.457-1.284-1.008-1.26l-23.3-.005a2.43,2.43,0,0,1-2.061-2.808C7.613,23.4,12.433,14.672,17.526,6.146c1.213-2.031,2.27-4.73,5.1-2.7l9.013,15.627,1.082-.719L23.878,2.977a3.709,3.709,0,0,0-5.626-.328C12.528,12.28,6.746,21.989,1.479,31.865A3.9,3.9,0,0,0,4.334,36.13m23.387-2.816a13.074,13.074,0,0,1,2.744-12.988l.05-.349L21.365,4.392a.789.789,0,0,0-1.077.137L4.484,31.742a1.16,1.16,0,0,0,.163,1.572ZM38.167,17.87c-7.645.862-11.877,9.632-8.338,16.386a11.265,11.265,0,0,0,20.239-.729c3.552-8.237-3.089-16.65-11.9-15.656M33.193,42.7l1.082-2.115-1.142-.557-1.009,1.947c.057.305.8.574,1.069.725m-2.876.166-4.212,7.683a1.833,1.833,0,0,0,3.18,1.773l4.2-7.669Z" transform="translate(0 0)" fill="#fff"/>
          <path id="Trazado_1268018" data-name="Trazado 1268018" d="M203.1,21.929c1.251-.269,1.724.653.724,1.349a57.113,57.113,0,0,1-5.333,2.334c-.349.068-.755.139-.967-.213l-.142-.576.3-.5Z" transform="translate(-166.501 -18.458)" fill="#fff"/>
          <path id="Trazado_1268019" data-name="Trazado 1268019" d="M32.184,24.338c.222.355-.007,1.164-.531,1.231-.958.123-4.836-2.209-6.057-2.5-.639-.777.063-1.567.992-1.19.7.448,5.388,2.126,5.6,2.458" transform="translate(-21.384 -18.376)" fill="#fff"/>
          <path id="Trazado_1268020" data-name="Trazado 1268020" d="M30.385,61.019a1.277,1.277,0,0,1-.174-.952c.186-.582,3.219-.505,3.8-.409,1.147.188,1.1,1.376.162,1.551a13.52,13.52,0,0,1-3.791-.19" transform="translate(-25.465 -50.269)" fill="#fff"/>
          <path id="Trazado_1268021" data-name="Trazado 1268021" d="M211.665,59.968a.848.848,0,0,1-.513,1.367,21.282,21.282,0,0,1-3.277,0,.848.848,0,0,1-.513-1.367,10.269,10.269,0,0,1,4.3,0" transform="translate(-174.752 -50.394)" fill="#fff"/>
          <path id="Trazado_1268022" data-name="Trazado 1268022" d="M61.726,6.577a.821.821,0,0,1-.986.048c-.154-.09-2.425-2.355-2.5-2.517a.744.744,0,0,1,1.106-.944c.154.09,2.425,2.355,2.5,2.517a.9.9,0,0,1-.12.9" transform="translate(-49.06 -2.555)" fill="#fff"/>
          <path id="Trazado_1268023" data-name="Trazado 1268023" d="M187.89,2.946a.739.739,0,0,1,.805,1.129,18.253,18.253,0,0,1-2.725,2.608.724.724,0,0,1-.772-1.1,30.149,30.149,0,0,1,2.692-2.64" transform="translate(-156.146 -2.461)" fill="#fff"/>
          <path id="Trazado_1268024" data-name="Trazado 1268024" d="M115.4,68.731a15.772,15.772,0,0,1,3.774.071,1.685,1.685,0,0,1,1.114,1.4c-.55,3.875-.123,8.18-.634,12.012-.329,2.47-4.555,2.04-4.827.318l-.638-12.353a1.84,1.84,0,0,1,1.209-1.45m3.331,1.532h-2.972c.155,3.985.333,8,.608,11.954l1.739.092Z" transform="translate(-96.324 -57.911)" fill="#fff"/>
          <path id="Trazado_1268025" data-name="Trazado 1268025" d="M119.176,168.9c4.287-.721,4,5.849.032,5.054-2.769-.554-2.63-4.618-.032-5.054m-.235,1.719c-.975.975.673,2.667,1.62,1.542.963-1.144-.753-2.408-1.62-1.542" transform="translate(-98.848 -142.435)" fill="#fff"/>
          <path id="Trazado_1268026" data-name="Trazado 1268026" d="M194.383,139.443c-9.085-8.888,4.516-22.732,13.641-13.875,9.1,8.833-4.4,22.918-13.641,13.875m6.014-15.073c-11.279,1.092-8.656,18.7,2.7,16.152,9.683-2.169,7.514-17.141-2.7-16.152" transform="translate(-161.445 -103.524)" fill="#fff"/>
        </g>
      </g>
    </g>
  </g>
</svg>
