<svg xmlns="http://www.w3.org/2000/svg" xmlns:xlink="http://www.w3.org/1999/xlink" width="96" height="96" viewBox="0 0 96 96">
  <defs>
    <clipPath id="clip-path">
      <rect id="Rectángulo_455595" data-name="Rectángulo 455595" width="96" height="96" fill="none"/>
    </clipPath>
    <clipPath id="clip-path-2">
      <rect id="Rectángulo_459118" data-name="Rectángulo 459118" width="52.346" height="52.589" fill="#fff"/>
    </clipPath>
  </defs>
  <g id="Grupo_1207824" data-name="Grupo 1207824" transform="translate(-735.746 -9118)">
    <g id="Grupo_1180407" data-name="Grupo 1180407" transform="translate(735.746 9117.971)">
      <g id="Grupo_1179172" data-name="Grupo 1179172" transform="translate(0 0.03)" clip-path="url(#clip-path)">
        <path id="Trazado_998483" data-name="Trazado 998483" d="M92.562,52.469A40.092,40.092,0,1,1,52.469,12.377,40.093,40.093,0,0,1,92.562,52.469" transform="translate(-4.455 -4.484)" fill="#8d1939"/>
        <path id="Trazado_998485" data-name="Trazado 998485" d="M90.9,46.451A44.45,44.45,0,1,1,46.451,2,44.45,44.45,0,0,1,90.9,46.451Z" transform="translate(1.564 1.535)" fill="none" stroke="#8d1939" stroke-miterlimit="10" stroke-width="4"/>
      </g>
    </g>
    <g id="Grupo_1180408" data-name="Grupo 1180408" transform="translate(755.746 9137)">
      <g id="Grupo_1099618" data-name="Grupo 1099618" transform="translate(-0.035 -0.227)">
        <rect id="Rectángulo_401104" data-name="Rectángulo 401104" width="56.349" height="57.028" transform="translate(0)" fill="none"/>
      </g>
      <g id="Grupo_1208947" data-name="Grupo 1208947" transform="translate(1.965 1.774)">
        <g id="Grupo_1208946" data-name="Grupo 1208946" clip-path="url(#clip-path-2)">
          <path id="Trazado_1268042" data-name="Trazado 1268042" d="M114.531,31.667c-.258,1.692,2.743,5.082-.835,4.113a8.067,8.067,0,0,1-5.284-5.679L96.043,27.03a5.4,5.4,0,0,1-3.078-5.968c1.7-5.514,2.459-11.618,4.2-17.08a5.243,5.243,0,0,1,5.72-3.96l23.805,5.8a5.3,5.3,0,0,1,3.635,5.718c-1.713,5.669-2.446,12.2-4.322,17.762-1.885,5.586-7.288,3.229-11.476,2.367m-1.441,1.758c-.381-.761-.523-3.357.431-3.647,1.074-.327,5.245,1.229,6.707,1.392a3.489,3.489,0,0,0,4.179-2.669c1.757-5.372,2.466-11.517,4.164-16.958a3.632,3.632,0,0,0-2.287-4.032c-7.52-1.5-15.136-4.131-22.634-5.53-2.3-.43-3.834-.046-4.759,2.286-.86,5.476-3.445,11.572-4.167,16.957-.267,2,.289,3.485,2.206,4.28l12.7,3.142c.55.329.56,1.419.821,2.06a5.074,5.074,0,0,0,2.639,2.72" transform="translate(-78.033 0)" fill="#fff"/>
          <path id="Trazado_1268043" data-name="Trazado 1268043" d="M17.294,155.8c1.989-.828,2.707-2.93,3.306-4.813l13.237-3.367a3.549,3.549,0,0,0,1.846-2.475c.128-.95-.466-2.724,1.047-2.468,1.352.229.627,3.51.12,4.435-.891,1.629-2.354,2.2-4.032,2.689-3.511,1.021-7.2,1.575-10.721,2.562-.3.161-.6,1.437-.83,1.89a8.46,8.46,0,0,1-3.931,3.59c-4.265,1.735-1.582-1.672-1.483-3.8-.263-.241-5.107,1.215-6,1.276A5.319,5.319,0,0,1,4.415,151.8c-1.99-5.446-2.588-12.4-4.384-18.018a5.345,5.345,0,0,1,2.911-5.371,66.792,66.792,0,0,1,9.806-2.521c1.482-.162,1.8,1.25.71,1.674-2.842.881-6.268,1.211-9.037,2.165a3.508,3.508,0,0,0-2.647,3.749c1.625,5.585,2.411,11.919,4.2,17.4,1.605,4.912,6.772,1.591,10.158,1.117,1.8-.252,1.541,2.717,1.159,3.807" transform="translate(0 -105.73)" fill="#fff"/>
          <path id="Trazado_1268044" data-name="Trazado 1268044" d="M87.774,180.919a5.9,5.9,0,0,1-2.347.856c.329,1.125,1.083,2.275.248,3.366a5.627,5.627,0,0,1-3.049,1.127c-2.058-.067-1.666-2.545-2.259-2.723-1.653.434-2.956,1.157-3.818-.813a9.338,9.338,0,0,1-.578-2c-.007-2.07,2.831-1.953,2.874-2.4-.413-1.022-1.092-2.506-.089-3.4a12.376,12.376,0,0,1,2.9-1c1.591.065,1.706,1.658,2.169,2.807.241.168,1.712-.609,2.307-.569,1.645.112,2.827,3.607,1.646,4.74m-6.04-5.053-1.749.307c-.2.191,1.175,2.793.723,3.361l-2.967,1.211.494,1.5c.87.016,2.511-1.106,3.252-.618.579.381.923,2.177,1.065,2.86l1.741-.568c-.126-.814-1.075-2.351-.707-3.108.2-.527,2.964-1.042,2.964-1.2l-.485-1.677c-.769.235-2.646,1.154-3.362.723-.343-.207-.848-2.293-.969-2.789" transform="translate(-63.813 -146.106)" fill="#fff"/>
          <path id="Trazado_1268045" data-name="Trazado 1268045" d="M163.74,46.162c3.241.441,5.092,2.419,3.874,5.715-1,2.7-3.607,2.794-5.952,1.807-.507,2.339-.928,5.434-3.928,5.6a23.237,23.237,0,0,1-4.8-1.115,3.324,3.324,0,0,1-1.913-1.768c-.855-1.944.205-3.52.561-5.44-3.48-.318-5.186-2.591-3.807-5.968,1.016-2.489,3.729-2.294,5.886-1.553.434-2.36.919-5.444,3.927-5.609a22.35,22.35,0,0,1,5.505,1.538c2.48,1.686,1.158,4.464.65,6.79m-6.28-6.53a2.006,2.006,0,0,0-1.408,1.323l-3.68,13.932a2.067,2.067,0,0,0,1.015,1.55,26.308,26.308,0,0,0,4.188,1.094,1.854,1.854,0,0,0,1.606-1.126l3.705-14.137a1.843,1.843,0,0,0-.9-1.476,23.385,23.385,0,0,0-3.973-1.159,1.486,1.486,0,0,0-.557,0m-4.453,5.422c-1.6-.362-3.019-.967-3.714.984-.862,2.423.744,2.913,2.764,3.326Zm9.132,7.029c1.357.262,3,1.071,3.762-.638,1.051-2.353-.335-3.414-2.625-3.507Z" transform="translate(-123.723 -31.779)" fill="#fff"/>
          <path id="Trazado_1268046" data-name="Trazado 1268046" d="M192.792,66.076c1-.085,3.844.805,3.577,2.283-.9,2.693-1.255,6.329-2.336,8.881a1.784,1.784,0,0,1-1.742,1.27,10.3,10.3,0,0,1-2.579-.786,1.729,1.729,0,0,1-.728-1.686,69.7,69.7,0,0,1,2.283-8.765,1.911,1.911,0,0,1,1.525-1.2m1.8,2.207-1.758-.319-2.055,7.963c-.267.571,1.545.852,1.651.681Z" transform="translate(-158.738 -55.497)" fill="#fff"/>
        </g>
      </g>
    </g>
  </g>
</svg>
