<svg xmlns="http://www.w3.org/2000/svg" xmlns:xlink="http://www.w3.org/1999/xlink" width="96" height="96" viewBox="0 0 96 96">
  <defs>
    <clipPath id="clip-path">
      <rect id="Rectángulo_455595" data-name="Rectángulo 455595" width="96" height="96" fill="none"/>
    </clipPath>
    <clipPath id="clip-path-2">
      <rect id="Rectángulo_459116" data-name="Rectángulo 459116" width="52.298" height="51.142" fill="#fff"/>
    </clipPath>
  </defs>
  <g id="Grupo_1207823" data-name="Grupo 1207823" transform="translate(-735.746 -9118)">
    <g id="Grupo_1180407" data-name="Grupo 1180407" transform="translate(735.746 9117.971)">
      <g id="Grupo_1179172" data-name="Grupo 1179172" transform="translate(0 0.03)" clip-path="url(#clip-path)">
        <path id="Trazado_998483" data-name="Trazado 998483" d="M92.562,52.469A40.092,40.092,0,1,1,52.469,12.377,40.093,40.093,0,0,1,92.562,52.469" transform="translate(-4.455 -4.484)" fill="#8d1939"/>
        <path id="Trazado_998485" data-name="Trazado 998485" d="M90.9,46.451A44.45,44.45,0,1,1,46.451,2,44.45,44.45,0,0,1,90.9,46.451Z" transform="translate(1.564 1.535)" fill="none" stroke="#8d1939" stroke-miterlimit="10" stroke-width="4"/>
      </g>
    </g>
    <g id="Grupo_1180408" data-name="Grupo 1180408" transform="translate(755.746 9137)">
      <g id="Grupo_1099618" data-name="Grupo 1099618" transform="translate(-0.035 -0.227)">
        <rect id="Rectángulo_401104" data-name="Rectángulo 401104" width="56.349" height="57.028" transform="translate(0)" fill="none"/>
      </g>
      <g id="Grupo_1208943" data-name="Grupo 1208943" transform="translate(1.965 2.774)">
        <g id="Grupo_1208942" data-name="Grupo 1208942" transform="translate(0 0)" clip-path="url(#clip-path-2)">
          <path id="Trazado_1268029" data-name="Trazado 1268029" d="M36.57,32.456a2.2,2.2,0,0,0-3.167,0c-3.98,3.942-3.8,3.673-3.89,3.852-1.538,1.344-5.338.448-9.68-3.852-2.716-2.688-3.8-4.838-4.163-6.182-.271-.9-.633-2.509.362-3.494l.182-.179,3.62-3.584a2.151,2.151,0,0,0,0-3.136L10.784,6.922a2.2,2.2,0,0,0-3.167,0l-3.8,3.763A12.148,12.148,0,0,0,.56,22.69c1.175,5.2,5.158,11.02,11.582,17.47,6.425,6.361,12.4,10.124,17.824,11.289,4.433.9,8.776.09,11.854-3.046.089-.09.089-.09.18-.179l3.62-3.584a2.151,2.151,0,0,0,0-3.136ZM9.155,8.445,18.2,17.4l-2.986,2.957L6.169,11.4ZM30.508,49.12c-4.976-1.075-10.676-4.659-16.738-10.661C6.712,31.47-1.7,20.629,4.632,13.014l9.138,9.049A5.849,5.849,0,0,0,13.5,26.9a17.85,17.85,0,0,0,4.8,7.078c3.347,3.315,6.786,5.107,9.591,5.107a4.829,4.829,0,0,0,2.532-.627l9.139,9.049a10.736,10.736,0,0,1-9.048,1.613M41.1,45.894l-9.05-8.959,2.986-2.957,9.048,8.959Z" transform="translate(-0.016 -0.651)" fill="#fff"/>
          <path id="Trazado_1268030" data-name="Trazado 1268030" d="M34.1,3.7a1.165,1.165,0,1,1-1.177,1.165A1.17,1.17,0,0,1,34.1,3.7" transform="translate(-3.427 -0.385)" fill="#fff"/>
          <path id="Trazado_1268031" data-name="Trazado 1268031" d="M3.8,37.5a1.165,1.165,0,1,1-1.177,1.165A1.17,1.17,0,0,1,3.8,37.5" transform="translate(-0.273 -3.903)" fill="#fff"/>
          <path id="Trazado_1268032" data-name="Trazado 1268032" d="M15.214,51.2a1.165,1.165,0,1,1-1.177,1.165A1.17,1.17,0,0,1,15.214,51.2" transform="translate(-1.461 -5.329)" fill="#fff"/>
          <path id="Trazado_1268033" data-name="Trazado 1268033" d="M53.087,0a1.165,1.165,0,1,1-1.175,1.165A1.17,1.17,0,0,1,53.087,0" transform="translate(-5.403 0)" fill="#fff"/>
          <path id="Trazado_1268034" data-name="Trazado 1268034" d="M45.512,13.7a1.165,1.165,0,1,1-1.176,1.165A1.17,1.17,0,0,1,45.512,13.7" transform="translate(-4.615 -1.426)" fill="#fff"/>
          <path id="Trazado_1268035" data-name="Trazado 1268035" d="M10.589,51.3H3.8a1.165,1.165,0,1,0,0,2.33h6.786a1.192,1.192,0,0,0,1.175-1.166A1.134,1.134,0,0,0,10.589,51.3" transform="translate(-0.273 -5.339)" fill="#fff"/>
          <path id="Trazado_1268036" data-name="Trazado 1268036" d="M8.053,48.665A1.191,1.191,0,0,0,6.877,47.5h-5.7a1.165,1.165,0,1,0,0,2.329h5.7a1.334,1.334,0,0,0,1.175-1.165" transform="translate(0 -4.944)" fill="#fff"/>
          <path id="Trazado_1268037" data-name="Trazado 1268037" d="M53.934,8.8H29.051a1.193,1.193,0,0,0-1.177,1.165V25.554a1.192,1.192,0,0,0,1.177,1.165h3.62L31.4,29.675a1.04,1.04,0,0,0,.362,1.254,1.092,1.092,0,0,0,1.357.09l6.515-4.3H54.024A1.191,1.191,0,0,0,55.2,25.554V9.875A1.264,1.264,0,0,0,53.934,8.8M52.848,24.479H39.275a1.7,1.7,0,0,0-.633.179l-3.62,2.419.452-.986a1.091,1.091,0,0,0-1-1.522H30.318V11.13h22.62V24.479Z" transform="translate(-2.901 -0.916)" fill="#fff"/>
          <path id="Trazado_1268038" data-name="Trazado 1268038" d="M34.1,16.029h6.786a1.165,1.165,0,1,0,0-2.329H34.1a1.193,1.193,0,0,0-1.177,1.165A1.26,1.26,0,0,0,34.1,16.029" transform="translate(-3.427 -1.426)" fill="#fff"/>
          <path id="Trazado_1268039" data-name="Trazado 1268039" d="M34.1,19.729H49.935a1.165,1.165,0,1,0,0-2.329H34.1a1.193,1.193,0,0,0-1.177,1.165A1.26,1.26,0,0,0,34.1,19.729" transform="translate(-3.427 -1.811)" fill="#fff"/>
          <path id="Trazado_1268040" data-name="Trazado 1268040" d="M34.1,23.529H49.935a1.165,1.165,0,1,0,0-2.329H34.1a1.193,1.193,0,0,0-1.177,1.165A1.26,1.26,0,0,0,34.1,23.529" transform="translate(-3.427 -2.207)" fill="#fff"/>
        </g>
      </g>
    </g>
  </g>
</svg>
