<svg xmlns="http://www.w3.org/2000/svg" xmlns:xlink="http://www.w3.org/1999/xlink" width="162.25" height="162.25" viewBox="0 0 162.25 162.25">
  <defs>
    <clipPath id="clip-path">
      <rect id="Rectángulo_459120" data-name="Rectángulo 459120" width="79.956" height="85.408" fill="#6a2874"/>
    </clipPath>
  </defs>
  <g id="Grupo_1207828" data-name="Grupo 1207828" transform="translate(-305.146 -10012.459)">
    <g id="Grupo_1177470" data-name="Grupo 1177470" transform="translate(305.146 10012.421)">
      <circle id="Elipse_13609" data-name="Elipse 13609" cx="81.125" cy="81.125" r="81.125" transform="translate(0 0.038)" fill="#f6e1fe"/>
      <g id="Grupo_1207827" data-name="Grupo 1207827" transform="translate(35.635 35.96)">
        <g id="Grupo_1099618" data-name="Grupo 1099618" transform="translate(0.365 0.078)">
          <rect id="Rectángulo_401104" data-name="Rectángulo 401104" width="90" height="90" transform="translate(0)" fill="none"/>
        </g>
        <g id="Grupo_1208951" data-name="Grupo 1208951" transform="translate(5.366 2.078)">
          <g id="Grupo_1208950" data-name="Grupo 1208950" clip-path="url(#clip-path)">
            <path id="Trazado_1268055" data-name="Trazado 1268055" d="M56.134,40.729c6.134-.407,12.181-.441,18.2.962,1.914.447,5.255.892,5.5,2.98.987,8.321-4.134,20.516-9.508,26.772C47.718,97.762,4.64,84.693.306,50.489-.139,46.976-.242,40.2,1,36.922c.6-1.583,4.526-2.044,6.185-2.3a51.815,51.815,0,0,1,37.155,8.664L52.5,41.037l-.144-2.815c-5.8-.216-14.2-2.465-10.709-10.086.816-1.781,3.979-4.492,4.212-5.76.288-1.567-1.918-3.193-2.229-4.675a6.354,6.354,0,0,1,.51-3.744C45.441,12.375,51.951.422,52.82.118,54.173-.356,54.891.69,55.7,1.53c2.714,2.815,8.628,9.935,9.584,13.523.851,3.191.491,6.412.265,9.667.276,1.26,3.02,2.031,3.762,4.148,2.36,6.731-8.138,9.262-12.9,9.355ZM52.625,26.688V16.012c0-1.572,3.217-1.725,3.217-.292v5.7c.839-.707,2.235-1.873,3.235-.748,1.638,1.841-2.207,4.258-3.235,5.574v9.214c3.672-.536,8.059-.818,10.49-4.009.35-1.348-2.087-2.331-2.784-3.111-2.55-2.854-.89-7.082-1.269-10.577-.492-4.537-5.9-9.669-8.48-13.306L46.842,15.792c-.453,1.7,1.485,2.99,1.85,4.736,1.128,5.388-4.881,7.229-4.852,10.7.026,3.122,6.558,3.794,8.782,4.236-.153-1.145.255-2.839-.057-3.889-.334-1.125-3.384-2.662-3.48-4.155-.147-2.3,2.287-1.786,3.54-.732M40.34,44.819c.466-.625-7.694-4.336-8.4-4.608A51.929,51.929,0,0,0,12.41,36.928c-1.446.073-7.352.744-8.429,1.223-.852.378-1.162,3.645-1.048,4.595a87.629,87.629,0,0,1,9.526,3.2c2.006.866,7.8,3.091,4.568,5.569-.766.215-6.356-2.777-7.7-3.316-.8-.321-5.832-2.234-6.132-1.909A36.761,36.761,0,0,0,9.682,65.974c.655.936,3.375,4.539,4.191,4.878.491.2.395-.2.5-.371,1.07-1.813,1.89-3.9,3.03-5.747A51.4,51.4,0,0,1,40.34,44.819M57.977,55.727a37.639,37.639,0,0,1,5.074-2.673,57.665,57.665,0,0,1,12.489-3.891c1.957-3.152.547-3.407-2.2-4.143A49.031,49.031,0,0,0,16.672,73.6a37.74,37.74,0,0,0,19.091,8.041c2.21-3.938,4.126-7.977,6.8-11.643.8-1.1,4.575-5.864,5.469-6.245a1.63,1.63,0,0,1,2.212,1.911c-.18.655-2.918,3.445-3.581,4.339a48.674,48.674,0,0,0-6.9,11.96C54.589,82.145,68.925,72.5,73.6,58.339c.168-.51,1.7-5.589,1.1-5.623a59.044,59.044,0,0,0-10.577,3.463c-.939.394-4.416,2.368-4.945,2.4-1.359.08-2.1-1.759-1.205-2.85" transform="translate(0 0)" fill="#6a2874"/>
            <path id="Trazado_1268056" data-name="Trazado 1268056" d="M77.04,45.447a6.391,6.391,0,0,1,5.313,10.31c-4.381,5.736-13.28.9-11.025-6.052a6.829,6.829,0,0,1,5.711-4.258m-.011,3.2c-3.692.415-3.86,5.848-.351,6.364,5.21.765,5-6.886.351-6.364" transform="translate(-50.21 -32.147)" fill="#6a2874"/>
            <path id="Trazado_1268057" data-name="Trazado 1268057" d="M177.423,200.219a1.869,1.869,0,0,1,1.865.353c1.6,2-4.034,5.506-4.421,2.644-.168-1.242,1.474-2.749,2.556-3" transform="translate(-123.711 -141.591)" fill="#6a2874"/>
            <path id="Trazado_1268058" data-name="Trazado 1268058" d="M68.013,174.274c1.857-.5,3.5,2.793,1.329,3.415-2.454.7-3.29-2.891-1.329-3.415" transform="translate(-47.35 -123.264)" fill="#6a2874"/>
          </g>
        </g>
      </g>
    </g>
    <ellipse id="Elipse_13678" data-name="Elipse 13678" cx="19.243" cy="19.243" rx="19.243" ry="19.243" transform="translate(305.965 10136.186)" fill="#da9dfe"/>
    <g id="Grupo_1207826" data-name="Grupo 1207826" transform="translate(305.146 10138.641)">
      <path id="Trazado_998481" data-name="Trazado 998481" d="M0,13.854q4.835.419,9.664.868l-.27.112,1.389-2.491a.373.373,0,0,1,.426-.131.271.271,0,0,1,.2.185l0,.01,1.186,5.359L11.7,17.7l1.915-4.337,1.934-4.332,1.94-4.33L19.452.377A.822.822,0,0,1,20.394.03.578.578,0,0,1,20.9.6V.609l-.77,7.01-.812,7.007-.823,7.006-.854,7L16.044,28.4c1.235-2.953,2.506-5.9,3.765-8.845l1.893-4.42,1.917-4.414,0-.011a.7.7,0,0,1,.8-.305.505.505,0,0,1,.439.47l-.29,5.628-.314,5.627-.826-.118,2.776-5.324,0-.009a.291.291,0,0,1,.3-.125l5.25.671,5.247.689-5.291-.467-5.287-.485.3-.133-2.494,5.4a.472.472,0,0,1-.54.2.338.338,0,0,1-.286-.3v-.012l.079-5.631.1-5.631L24.836,11,23.051,15.45l-1.809,4.44c-1.209,2.959-2.407,5.921-3.64,8.874a.892.892,0,0,1-1.022.4c-.373-.087-.6-.356-.57-.635v0l.812-7.007.842-7,.854-7,.9-7,1.444.232-2.048,4.3-2.069,4.3-2.074,4.3-2.093,4.29-.005.011a.513.513,0,0,1-.588.2.382.382,0,0,1-.3-.278l-.924-5.388.624.063L9.86,14.986l0,.007a.273.273,0,0,1-.265.1q-4.8-.609-9.59-1.244" transform="translate(0 4.51) rotate(-7)" fill="#fff"/>
    </g>
  </g>
</svg>
