<svg xmlns="http://www.w3.org/2000/svg" xmlns:xlink="http://www.w3.org/1999/xlink" width="96" height="96" viewBox="0 0 96 96">
  <defs>
    <clipPath id="clip-path">
      <rect id="Rectángulo_455595" data-name="Rectángulo 455595" width="96" height="96" fill="none"/>
    </clipPath>
    <clipPath id="clip-path-2">
      <rect id="Rectángulo_459127" data-name="Rectángulo 459127" width="54.349" height="54.281" fill="#fff"/>
    </clipPath>
  </defs>
  <g id="Grupo_1207884" data-name="Grupo 1207884" transform="translate(-735.746 -9118)">
    <g id="Grupo_1180407" data-name="Grupo 1180407" transform="translate(735.746 9117.971)">
      <g id="Grupo_1179172" data-name="Grupo 1179172" transform="translate(0 0.03)" clip-path="url(#clip-path)">
        <path id="Trazado_998483" data-name="Trazado 998483" d="M92.261,52.319A39.942,39.942,0,1,1,52.319,12.377,39.942,39.942,0,0,1,92.261,52.319" transform="translate(-4.304 -4.333)" fill="#8d1939"/>
        <path id="Trazado_998485" data-name="Trazado 998485" d="M90.566,46.284A44.283,44.283,0,1,1,46.284,2,44.283,44.283,0,0,1,90.566,46.284Z" transform="translate(1.731 1.702)" fill="none" stroke="#8d1939" stroke-miterlimit="10" stroke-width="4"/>
      </g>
    </g>
    <g id="Grupo_1180408" data-name="Grupo 1180408" transform="translate(755.746 9137)">
      <g id="Grupo_1099618" data-name="Grupo 1099618" transform="translate(-0.035 0.358)">
        <rect id="Rectángulo_401104" data-name="Rectángulo 401104" width="56.349" height="57.028" transform="translate(0)" fill="none"/>
      </g>
      <g id="Grupo_1208964" data-name="Grupo 1208964" transform="translate(0.965 1.358)">
        <g id="Grupo_1208963" data-name="Grupo 1208963" clip-path="url(#clip-path-2)">
          <path id="Trazado_1268179" data-name="Trazado 1268179" d="M173.518,37.659a5.357,5.357,0,0,1-5.211-4.187,63.342,63.342,0,0,1,.128-11.693c.872-3.876,4.793-6.3,8.656-6.025a8.868,8.868,0,0,1-2.8-6.128c-.428-6.538,2.653-10.177,9.4-9.558,7.545.693,8.29,11.31,3.653,15.686a8.134,8.134,0,0,1,8.862,7.529c.149,2.127.27,9.007-.274,10.769a5.3,5.3,0,0,1-5.015,3.607V54.28h-17.4ZM188.275,8.3V6.046A8,8,0,0,0,186.8,3.328c-2.114-2.114-7.063-2.137-9.163,0a8.151,8.151,0,0,0-1.477,2.562V8.3c.542-.62.548-1.367,1.162-2.022a2.832,2.832,0,0,1,1.352-.823,33.955,33.955,0,0,1,6.269-.113,3.157,3.157,0,0,1,2.1.856c.693.675.586,1.5,1.237,2.1m-.012,2.033c-1.7,0-1.91-2.75-2.85-3.132a30.209,30.209,0,0,0-5.61-.149c-1.875.175-1.278,1.291-2.25,2.41a4.059,4.059,0,0,1-1.407.958,6.1,6.1,0,0,0,12.118-.087M169.945,22.978c-.089.751.064,1.639,0,2.408h3.573V21.969h1.709V34.086h13.981V21.969h1.709v3.418h3.573a8.214,8.214,0,0,0-1.114-5.177c-1.729-2.387-4.117-2.859-6.946-2.571-.977,4.5-7.505,4.529-8.413-.012-1.781-.039-3.335-.175-4.947.71a6.666,6.666,0,0,0-3.125,4.642m14.6-5.359h-4.816c.992,2.155,4,2.318,4.816,0M173.518,27.25h-3.573v1.709h3.34c.442-.41.163-1.154.233-1.709m20.972,0h-3.573l.145,1.641h3.282Zm-20.972,3.418h-3.573c-.151,1.968.13,4.2,2.218,5.006.349.135,1.129.4,1.355.043Zm20.972,0h-3.573v5.049c.8.456,2.149-.357,2.706-1.022.918-1.1.895-2.681.867-4.027m-5.282,5.282H175.226v6.058h6.058V39.6c.239-.318.788-.274,1.173-.241a1.968,1.968,0,0,1,.433.033l.258.208v2.408h6.058Zm-7.923,7.767h-5.825l-.233.233V46.2l5.907-1.317Zm7.923,8.855V43.95l-.233-.233h-5.825v8.855Zm-7.923-5.9-6.05,1.249-.007,1.7,6.042-1.258Zm0,5.9V50.086l-5.969,1.38-.09,1.105Z" transform="translate(-141.983 0)" fill="#fff"/>
          <path id="Trazado_1268180" data-name="Trazado 1268180" d="M1.709.422v4.35H19.263V.422h1.709V54.637H19.263v-4.35H1.709v4.35H0V.422ZM1.942,6.48l-.233.233V48.346l.233.233H19.03l.233-.233V6.713L19.03,6.48Z" transform="translate(0 -0.356)" fill="#fff"/>
          <rect id="Rectángulo_459126" data-name="Rectángulo 459126" width="4.35" height="1.709" transform="translate(23.612 44.65)" fill="#fff"/>
          <path id="Trazado_1268181" data-name="Trazado 1268181" d="M156.213,248.445l3.273,1.7c.057.563-.324,1.66-1.021,1.489A22.405,22.405,0,0,1,155.426,250Z" transform="translate(-131.281 -209.85)" fill="#fff"/>
          <path id="Trazado_1268182" data-name="Trazado 1268182" d="M158.728,316.531c.309-.028.9,1.31.758,1.534l-3.353,1.644-.707-1.491Z" transform="translate(-131.281 -267.359)" fill="#fff"/>
          <path id="Trazado_1268183" data-name="Trazado 1268183" d="M245.57,158.417l0,1.71,1.71,0v1.71l-1.71,0,0,1.71H243.7l0-1.71-1.71,0v-1.71l1.71,0,0-1.71Z" transform="translate(-204.402 -133.808)" fill="#fff"/>
          <path id="Trazado_1268184" data-name="Trazado 1268184" d="M35.092,52.077c1.289,1.288,1.365,6.467-1.03,7.021l-10.17.062c-1.557-.45-2.011-1.675-2.113-3.168-.121-1.757,0-3.764,1.866-4.516L33.672,51.4a3.194,3.194,0,0,1,1.42.677M24.225,53.145c-.806.231-.659,2.569-.586,3.317.047.48.107.742.586.967l9.453-.113c.549-.328.517-3.349.233-3.825a1,1,0,0,0-.431-.346Z" transform="translate(-18.367 -43.415)" fill="#fff"/>
          <path id="Trazado_1268185" data-name="Trazado 1268185" d="M49.35,152.422v2.641h2.641v1.709H49.35v2.641H47.641v-2.641H45v-1.709h2.641v-2.641Z" transform="translate(-38.009 -128.744)" fill="#fff"/>
        </g>
      </g>
    </g>
  </g>
</svg>
