<svg xmlns="http://www.w3.org/2000/svg" xmlns:xlink="http://www.w3.org/1999/xlink" width="96" height="96" viewBox="0 0 96 96">
  <defs>
    <clipPath id="clip-path">
      <rect id="Rectángulo_455595" data-name="Rectángulo 455595" width="96" height="96" fill="none"/>
    </clipPath>
    <clipPath id="clip-path-2">
      <rect id="Rectángulo_459128" data-name="Rectángulo 459128" width="41.718" height="57.028" fill="#fff"/>
    </clipPath>
    <clipPath id="clip-path-3">
      <rect id="Rectángulo_459129" data-name="Rectángulo 459129" width="13.5" height="13.979" transform="translate(0 0)" fill="#fff"/>
    </clipPath>
  </defs>
  <g id="Grupo_1207885" data-name="Grupo 1207885" transform="translate(-735.746 -9118)">
    <g id="Grupo_1180407" data-name="Grupo 1180407" transform="translate(735.746 9117.971)">
      <g id="Grupo_1179172" data-name="Grupo 1179172" transform="translate(0 0.03)" clip-path="url(#clip-path)">
        <path id="Trazado_998483" data-name="Trazado 998483" d="M92.261,52.319A39.942,39.942,0,1,1,52.319,12.377,39.942,39.942,0,0,1,92.261,52.319" transform="translate(-4.304 -4.333)" fill="#8d1939"/>
        <path id="Trazado_998485" data-name="Trazado 998485" d="M90.566,46.284A44.283,44.283,0,1,1,46.284,2,44.283,44.283,0,0,1,90.566,46.284Z" transform="translate(1.731 1.702)" fill="none" stroke="#8d1939" stroke-miterlimit="10" stroke-width="4"/>
      </g>
    </g>
    <g id="Grupo_1180408" data-name="Grupo 1180408" transform="translate(755.746 9137)">
      <g id="Grupo_1099618" data-name="Grupo 1099618" transform="translate(-0.289 0.358)">
        <rect id="Rectángulo_401104" data-name="Rectángulo 401104" width="56.349" height="57.028" transform="translate(0)" fill="none"/>
      </g>
      <g id="Grupo_1208966" data-name="Grupo 1208966" transform="translate(7.711 0.358)">
        <g id="Grupo_1208965" data-name="Grupo 1208965" clip-path="url(#clip-path-2)">
          <path id="Trazado_1268186" data-name="Trazado 1268186" d="M.676.476A2.518,2.518,0,0,1,2.115,0H39.6a2.179,2.179,0,0,1,2.115,2.115v52.8A2.179,2.179,0,0,1,39.6,57.027H2.115A2.179,2.179,0,0,1,0,54.912l.1-53.5A8.142,8.142,0,0,1,.676.476m38.816,1.75H2.226V54.8H39.492Z" transform="translate(0)" fill="#fff"/>
          <path id="Trazado_1268187" data-name="Trazado 1268187" d="M27.11,109.265l29.464.063.619.992c-.35,4.811.429,10.186,0,14.926a1.667,1.667,0,0,1-.614,1.4H26.966a1.589,1.589,0,0,1-.608-1.2c-.538-4.6.421-10.209-.008-14.924a1.208,1.208,0,0,1,.76-1.254m27.857,2.173H28.579v13.093H54.967Z" transform="translate(-20.914 -87.255)" fill="#fff"/>
          <path id="Trazado_1268188" data-name="Trazado 1268188" d="M80.719,30.675c.8.051,2.706-.274,3.124.6a24.951,24.951,0,0,1-.034,5.595c-.318.752-2.364.353-3.09.448-.082.668.244,2.673-.335,3.039a21.41,21.41,0,0,1-5.863.051c-.76-.324-.347-2.369-.448-3.09-.668-.082-2.673.244-3.039-.334a25.219,25.219,0,0,1-.146-5.568c.312-1.04,2.368-.7,3.185-.743.081-1.051-.343-2.355.6-3.124h5.44c.946.769.522,2.073.6,3.124m-2.214-1.009H76.287c.236,3.2-.025,3.459-3.223,3.223v2.218c.824.069,2.5-.276,3.037.488.506.714-.205,2.671.517,2.907l1.8-.16c-.057-3.02.187-3.487,3.312-3.235V32.889c-3.2.236-3.459-.025-3.223-3.223" transform="translate(-47.631 -22.001)" fill="#fff"/>
          <path id="Trazado_1268189" data-name="Trazado 1268189" d="M64.173,239.466a1.239,1.239,0,0,1-.4,1.818l-24.43.153c-1.66-.075-1.827-2.371,0-2.228,7.693.508,16.191-.647,23.787,0,.314.027.825.034,1.05.258" transform="translate(-30.37 -190.86)" fill="#fff"/>
          <path id="Trazado_1268190" data-name="Trazado 1268190" d="M38.182,213.555c-.655-.653-.079-1.8.87-1.954a42.277,42.277,0,0,1,6.622,0,1.192,1.192,0,0,1,1.106,1.1,1.233,1.233,0,0,1-.9,1.1,45.2,45.2,0,0,1-6.652.012c-.314-.027-.825-.033-1.05-.258" transform="translate(-30.267 -168.873)" fill="#fff"/>
          <path id="Trazado_1268191" data-name="Trazado 1268191" d="M70.868,135.423a1.257,1.257,0,0,1,1.308-1.414c.762-.088,4.856-.131,5.155.339,1.713,2.692-3.859,1.575-4.455,1.973-.5.713-.6,2.666-1.406,3.03a1.284,1.284,0,0,1-1.417-.243c-.567-.7-1.974-4.649-2.509-4.892-.353-.16-.985,1.5-1.318,1.7a1.274,1.274,0,0,1-.707.3,28.712,28.712,0,0,1-4.616.007,1.222,1.222,0,0,1-.725-1.875c.455-.716,3.755-.076,4.649-.435.909-.821,2.253-4.48,3.719-2.714.231.278,2.075,4.478,2.321,4.224" transform="translate(-47.896 -104.391)" fill="#fff"/>
        </g>
      </g>
      <g id="Grupo_1208968" data-name="Grupo 1208968" transform="translate(12.711 5.358)">
        <g id="Grupo_1208967" data-name="Grupo 1208967" transform="translate(0 0)" clip-path="url(#clip-path-3)">
          <path id="Trazado_1268192" data-name="Trazado 1268192" d="M6.371.01c9.467-.43,9.406,13.925.412,13.969C-1.939,14.022-2.434.409,6.371.01M5.588,1.853C.56,2.632.31,11.328,5.9,12.093,13.706,13.162,13.83.577,5.588,1.853" transform="translate(0 -0.001)" fill="#fff"/>
          <path id="Trazado_1268193" data-name="Trazado 1268193" d="M30.014,26.768c1.062,1.062-1.415,2.2-1.337,2.636.445.7,2.288,1.466,1.539,2.5-.918,1.264-2.541-1.388-2.992-1.309-.6.389-1.421,1.763-2.171,1.687-1.761-.912.1-1.994.83-2.874.081-.465-2.445-1.76-1.155-2.684,1.057-.757,1.758,1.073,2.631,1.359.6-.463,1.866-2.1,2.655-1.311" transform="translate(-20.574 -22.452)" fill="#fff"/>
        </g>
      </g>
    </g>
  </g>
</svg>
