<svg xmlns="http://www.w3.org/2000/svg" xmlns:xlink="http://www.w3.org/1999/xlink" width="85" height="85" viewBox="0 0 85 85">
  <defs>
    <clipPath id="clip-path">
      <rect id="Rectángulo_459148" data-name="Rectángulo 459148" width="65.755" height="63" fill="#8d1939"/>
    </clipPath>
  </defs>
  <g id="Grupo_1208181" data-name="Grupo 1208181" transform="translate(-707.629 -410)">
    <path id="Sustracción_110" data-name="Sustracción 110" d="M15975.961,19829.512h85v85h-85Z" transform="translate(-15268.332 -19419.512)" fill="#ffe19a"/>
    <g id="Grupo_1208994" data-name="Grupo 1208994" transform="translate(717.629 421)">
      <g id="Grupo_1208993" data-name="Grupo 1208993" clip-path="url(#clip-path)">
        <path id="Trazado_1268320" data-name="Trazado 1268320" d="M50.347,31.306c.847,13.91-6.247,30.733-22,31.652C12.381,63.89,3.381,48.69,3.513,34.346,1.456,34.349.475,33.1.268,31.151A104.174,104.174,0,0,1,.236,16.657c.207-2.62.876-2.055,1.942-3.576.355-.507.527-1.353.892-1.969C6.693,5,12.231.67,19.55.2A142.361,142.361,0,0,1,34.694.2C43.306.7,49.914,6.327,52.3,14.476c.264.9.944,3.252,1.07,4.04a69.577,69.577,0,0,1,.017,10.212c-.2,1.643-1.558,2.349-3.044,2.578m-.436-14.95A16.42,16.42,0,0,0,34.478,2.87c-4.83-.32-15.072-.5-19.419,1.017C11.653,5.072,6.2,9.457,5.152,12.99c-.118.4.079.263.3.3,11.983,1.825,24.555,2.081,36.587,3.847ZM3.1,15.745v5.314L28.248,18.5Zm47.625,3.27L3.1,23.921v7.461l47.625-4.6ZM17.208,36.491c-.181-1.029.132-2.491,0-3.577L6.26,34.128C6.026,42.965,9.973,53.684,18.093,58.09a18.688,18.688,0,0,0,20.889-2.278c6.89-6.015,9.108-16.112,8.475-24.94-1.718.017-3.786-.583-5.437-.6-1.921-.014-4.219.752-6.211.6.175.378.717.243,1.129.605.684.6.664,4.068.462,4.971-.325,1.451-2.352,1.619-2.609.242a23.22,23.22,0,0,1,.18-5.124c.183-.241.662-.16.631-.489L20.2,32.533c-.78.252.029,3.655-.527,4.584a1.4,1.4,0,0,1-2.465-.626" transform="translate(0 0)" fill="#8d1939"/>
        <path id="Trazado_1268321" data-name="Trazado 1268321" d="M250.247,155.95a2.569,2.569,0,0,1,2.883,1.111c1.142,1.585,5.418,9.4,5.7,11.056,2.094,12.161-17.393,13.138-15.867.174.2-1.681,4.386-9.374,5.531-11.025a3.3,3.3,0,0,1,1.75-1.316m.567,2.614c-1.377,2.9-3.762,6.091-4.839,9.056a5.362,5.362,0,0,0,8.929,5.659c1.934-2.171,1.552-4.365.411-6.751-1.3-2.72-2.994-5.35-4.5-7.963" transform="translate(-193.236 -124.01)" fill="#8d1939"/>
        <path id="Trazado_1268322" data-name="Trazado 1268322" d="M99.018,219.482a9.386,9.386,0,0,1,10.954-1.388c1.1.6,2.559,1.506,1.948,2.948-.73,1.722-3.242-.706-4.434-1.075a6.4,6.4,0,0,0-6.807,1.688c-.941,1-1.212,2.881-2.955,2.145s.514-3.559,1.294-4.317" transform="translate(-77.241 -172.597)" fill="#8d1939"/>
        <path id="Trazado_1268323" data-name="Trazado 1268323" d="M275.926,214.982c2.855-.641,1.7,3.648-.16,4.953-1.137.8-4.536,1.434-4.705-.393-.205-2.21,2.162-1.143,3.162-1.763,1.125-.7.3-2.484,1.7-2.8" transform="translate(-215.646 -170.989)" fill="#8d1939"/>
      </g>
    </g>
  </g>
</svg>
