<svg xmlns="http://www.w3.org/2000/svg" xmlns:xlink="http://www.w3.org/1999/xlink" width="150" height="150.001" viewBox="0 0 150 150.001">
  <defs>
    <clipPath id="clip-path">
      <rect id="Rectángulo_459136" data-name="Rectángulo 459136" width="84.6" height="94.5" fill="#fff"/>
    </clipPath>
  </defs>
  <g id="Grupo_1207904" data-name="Grupo 1207904" transform="translate(-308.711 -5910)">
    <g id="Grupo_1207900" data-name="Grupo 1207900" transform="translate(-167.789 -38.844)">
      <path id="Trazado_1267157" data-name="Trazado 1267157" d="M143.529,77.953A65.576,65.576,0,1,1,77.953,12.377a65.577,65.577,0,0,1,65.576,65.576" transform="translate(473.548 5945.891)" fill="#6a2874"/>
      <path id="Trazado_1267158" data-name="Trazado 1267158" d="M75.5,150.5A75.02,75.02,0,0,1,46.306,6.4a75.019,75.019,0,0,1,58.388,138.211A74.532,74.532,0,0,1,75.5,150.5Zm0-145.086A70.086,70.086,0,1,0,145.586,75.5,70.166,70.166,0,0,0,75.5,5.414Z" transform="translate(476 5948.344)" fill="#6a2874"/>
    </g>
    <g id="Grupo_1207901" data-name="Grupo 1207901" transform="translate(339.711 5941)">
      <g id="Grupo_1099618" data-name="Grupo 1099618">
        <rect id="Rectángulo_401104" data-name="Rectángulo 401104" width="87.065" height="88.114" transform="translate(0)" fill="none"/>
      </g>
      <g id="Grupo_1208976" data-name="Grupo 1208976" transform="translate(2 -3)">
        <g id="Grupo_1208975" data-name="Grupo 1208975" clip-path="url(#clip-path)">
          <path id="Trazado_1268211" data-name="Trazado 1268211" d="M43.073,49.713V39.779c0-1.653,2.6-2.814,4.006-2.814,13.554,0,19.7-.014,33.218-.014,1.744.149,3.146.58,4.065,2.162L84.6,91.091c.012,1.987-1.93,3.225-3.72,3.4-14.975,0-19.72.011-33.816.011-1.423,0-3.991-1.2-3.991-2.829V83.22H6.156c-1.86,0-4.449-1.981-5.242-3.653-1.622-3.421-.607-8.278-.528-11.9.112-5.117-1.415-10.1,2.949-13.656,2.149-1.75,8.577-3.82,9.422-4.663a19.993,19.993,0,0,1,.832-1.986c.475-.7,2.941-2.928,3.047-3.471a54.514,54.514,0,0,1-2.7-6.4c-.508-1.765-.63-4.539-1.186-5.93-.387-.966-2.785-3.162-3.637-4.963-2.89-6.109-2.1-15.582,4.1-19.339.764-.463,2.3-.868,2.782-1.221C16.445,5.7,17.443,4.2,18.161,3.6,31.059-7.23,58.7,8.016,45.566,27.447c-.609.9-2.83,3.114-3.023,3.8-.223.786.046,1.733-.1,2.57A22.962,22.962,0,0,1,38.07,43.985c-.063.41,2.787,3.14,3.237,3.787.573.824.062,1.718,1.766,1.941m-.3-23.724c2.38-4.265,3.974-8.145,2.223-13.038C41.9,4.3,26.583.184,19.8,6.423c-.724.666-1.108,1.648-1.944,2.208-.979.655-2.313.836-3.4,1.645C9.945,13.652,9.7,21.828,12.681,26.286c.245-4.035,1.505-8.075,4.75-10.666,1.421-1.134,5.338-3.1,7.112-3,1.437.084,1.744,1.879,2.838,2.82,3.034,2.609,6.871,2.515,10.5,2.846,4.46.408,4.219,3.9,4.3,7.555ZM23.136,16.252a11.828,11.828,0,0,0-4.227,2.329c-4.253,4.144-3.272,13.875-1.562,19.051,3.143,9.512,12.142,12.765,18.559,3.876,4.35-6.026,3.492-12.444,2.976-19.48l-.446-.443c-4.649.13-9.25-.785-13-3.606-.735-.553-1.345-1.823-2.3-1.727M46.779,40.224l-.445.445V90.781l.445.445h34.1a2.647,2.647,0,0,0,.589-.6V40.822a2.647,2.647,0,0,0-.589-.6ZM18.5,46.492l-1.778,2.423,6.039,7.908c.361,0,3.22-4.973,4.448-4.769,1.779,0,3.768,4.659,4.712,4.464l5.774-7.6-1.883-2.4c-4.743,3.918-9.458,4.635-14.837,1.417-.662-.4-1.851-1.811-2.475-1.449M6.156,79.958H42.628l.445-.445V53.271l-3.526-1.46c-1.229,1.491-5.591,8.434-6.857,9.013-2.27,1.039-3.865-2.95-5.188-4.3-1.364-.007-3.352,5.744-5.782,4.305l-6.96-8.978c-3.065,1.792-10.531,3.467-11.133,7.486a94.963,94.963,0,0,0-.288,17.206,4.031,4.031,0,0,0,2.817,3.41" transform="translate(0 0)" fill="#fff"/>
          <path id="Trazado_1268212" data-name="Trazado 1268212" d="M165.255,223.126c8.36.441,17.8-.834,26.033-.083,1.1.1,2.506.265,2.523,1.628l-.169,17.353-.741.741-28.46.008a2.34,2.34,0,0,1-.9-1.773,109.6,109.6,0,0,1,0-16.024c.143-1.221.485-1.627,1.708-1.851m5.71,5.562-.278-2.243-3.744.148-.13,2.095Zm19.57-2.372H174.227v2.372h16.309Zm-19.57,5.634h-4.151l.278,2.243,3.744-.148Zm19.57,0H174.227v2.372h16.309Zm-19.57,5.634h-4.151v2.076h4.151Zm19.57,0H174.227v2.076h16.309Z" transform="translate(-114.845 -156.736)" fill="#fff"/>
          <path id="Trazado_1268213" data-name="Trazado 1268213" d="M185.066,142.746a43.94,43.94,0,0,1,10.508.585c1.255.562,1.166,1.707,1.815,2.633,1.876,2.675,2.476,1.713,1.586,5.651a22.183,22.183,0,0,1-6.432,10.766c-.744.656-3.479,2.7-4.328,2.808-2.289.305-6.628-4.134-7.956-5.951-1.76-2.409-3.706-6.371-4-9.346-.239-2.448.528-1.9,1.574-3.4a33.448,33.448,0,0,1,1.784-2.961c.744-.538,4.312-.714,5.446-.781m-.3,3.262c-.951.08-1.953.246-2.907.355-.445.981-2.358,2.647-2.318,3.477.092,1.936,2.061,5.867,3.261,7.446.728.959,4,4.45,5.116,4.359,2.661-.219,8.459-8.96,8.092-11.984l-2.493-3.387a43.865,43.865,0,0,0-8.752-.265" transform="translate(-123.966 -100.359)" fill="#fff"/>
          <path id="Trazado_1268214" data-name="Trazado 1268214" d="M24.089,228.846l15.5.1c1.315.537,1.116,6.487.749,7.259-.27.566-1.185.827-1.773.9-4.366.51-9.906-.267-14.383-.16-1.811-.817-1.631-7.63-.1-8.093m13.139,3.205H26.256v1.779H37.227Z" transform="translate(-16.097 -160.988)" fill="#fff"/>
          <path id="Trazado_1268215" data-name="Trazado 1268215" d="M79.748,124.755c.932-.168,1.832.562,2.892.568,1.352.009,3.366-1.44,4.148.281,1.591,3.5-7.959,3.833-8.4.964a1.709,1.709,0,0,1,1.357-1.813" transform="translate(-55.136 -87.745)" fill="#fff"/>
          <path id="Trazado_1268216" data-name="Trazado 1268216" d="M201.831,158.533c7.354-1.522,8.927,9.186,2.233,10.242-6.948,1.1-8.306-8.986-2.233-10.242m.591,3.251c-2.174.644-1.416,4.2,1.05,3.752a1.958,1.958,0,1,0-1.05-3.752" transform="translate(-139.269 -111.421)" fill="#fff"/>
        </g>
      </g>
    </g>
  </g>
</svg>
