<svg xmlns="http://www.w3.org/2000/svg" xmlns:xlink="http://www.w3.org/1999/xlink" width="85" height="85" viewBox="0 0 85 85">
  <defs>
    <clipPath id="clip-path">
      <rect id="Rectángulo_459146" data-name="Rectángulo 459146" width="65" height="64.856" fill="#8d1939"/>
    </clipPath>
  </defs>
  <g id="Grupo_1208013" data-name="Grupo 1208013" transform="translate(-705.629 -410)">
    <path id="Sustracción_110" data-name="Sustracción 110" d="M15975.961,19829.512h85v85h-85Z" transform="translate(-15270.332 -19419.512)" fill="#ffe19a"/>
    <g id="Grupo_1208990" data-name="Grupo 1208990" transform="translate(715.629 420)">
      <g id="Grupo_1208989" data-name="Grupo 1208989" clip-path="url(#clip-path)">
        <path id="Trazado_1268311" data-name="Trazado 1268311" d="M52.082,16.609l.1.553c2.941,4.04,6.094,7.953,8.98,12.032,1.456,2.057,2.922,3.826,3.479,6.376,1.86,8.512-5.958,15.024-13.74,15.979-5.841,17.751-31.028,17.737-36.866,0C5.235,50.519-2.991,42.4,1.1,33.215c3.576-5.668,7.944-10.809,11.752-16.327.051-.416-.062-.224-.281-.278C9.082,15.763.4,14.2.015,9.633-.278,6.145,3.727,4.38,6.43,3.4c1.668-.6,6.3-2.457,6.324.654C12.767,6.173,9.98,6.169,8.429,6.7c-1.116.384-3.351,1.166-4.14,2s.081,1.18.806,1.623C8.073,12.14,12.6,12.773,16,13.359,24.941,5.148,40.137,5.4,49.156,13.4c3.434-.767,7.916-1.282,10.907-3.224,1.434-.931,1.121-1.163-.186-2.015-6.5-4.237-25.691-4.525-33.556-4.206-1.872.076-4.515.647-6.3.369-1.826-.285-1.778-3.264.217-3.666A42.415,42.415,0,0,1,24.657.246a119.857,119.857,0,0,1,23.214.769c4.191.57,13.618,2.235,16.191,5.751,4.418,6.036-8.006,9.5-11.981,9.843M13.22,47.475V33.25a7.763,7.763,0,0,1,1.225-2.68c2.644-3.481,6.092-2.02,9.556-3.46,3.778-1.57,4.542-5.438,9.03-5.117,3.288.235,4.625,3.73,7.769,5.061,3.489,1.477,7.046.039,9.686,3.516a7.763,7.763,0,0,1,1.225,2.68V47.475c5.938-1.1,11.677-6.736,8.464-13.019L47.719,17.517c-.421-.316-4.562.755-5.816.251a1.975,1.975,0,0,1,0-3.438c.589-.242,1.347.076,1.626-.51a23.525,23.525,0,0,0-22.126.09c.211.309.508.266.825.29,3.614.273,7.237.316,10.858.485,1.787.643,1.733,3.37-.244,3.6s-4.323-.182-6.334,0L17.3,17.453l-12.545,17C1.541,40.741,7.289,46.367,13.22,47.475M31.947,25.758c-.856.194-1.252,1.234-1.8,1.735a15.991,15.991,0,0,1-8.334,4.125c-2.233.3-4.6-.287-4.883,2.926-.321,3.641-.311,12,.618,15.388,4.058,14.782,25.622,14.867,29.79.145.972-3.434.986-11.836.66-15.533-.284-3.213-2.647-2.623-4.883-2.926a15.992,15.992,0,0,1-8.334-4.125c-.916-.839-1.12-2.124-2.835-1.735" transform="translate(0 0)" fill="#8d1939"/>
        <path id="Trazado_1268312" data-name="Trazado 1268312" d="M259.5,38.314a1.9,1.9,0,0,1,1.031,3.64,1.895,1.895,0,1,1-1.031-3.64" transform="translate(-210.072 -31.15)" fill="#8d1939"/>
        <path id="Trazado_1268313" data-name="Trazado 1268313" d="M14.4,99.208a1.894,1.894,0,1,1,1.032,3.64c-2.566.5-3.015-3.187-1.032-3.64" transform="translate(-10.715 -80.7)" fill="#8d1939"/>
        <path id="Trazado_1268314" data-name="Trazado 1268314" d="M142.031,265a1.929,1.929,0,0,1,.869-3.185,70.769,70.769,0,0,1,9.951-2.515c2.465-.123,3.154,2.748.558,3.727a65.052,65.052,0,0,1-9.323,2.39,2.4,2.4,0,0,1-2.055-.416" transform="translate(-115.172 -211.077)" fill="#8d1939"/>
        <path id="Trazado_1268315" data-name="Trazado 1268315" d="M124.582,200.585c2.317,2.622-3.148,4.7-4.362,2.225-1.345-2.748,3.052-3.707,4.362-2.225" transform="translate(-97.661 -162.722)" fill="#8d1939"/>
        <path id="Trazado_1268316" data-name="Trazado 1268316" d="M201.929,200.585c1.31-1.482,5.707-.523,4.362,2.225-1.213,2.479-6.679.4-4.362-2.225" transform="translate(-163.921 -162.722)" fill="#8d1939"/>
      </g>
    </g>
  </g>
</svg>
