<svg xmlns="http://www.w3.org/2000/svg" xmlns:xlink="http://www.w3.org/1999/xlink" width="69" height="69" viewBox="0 0 69 69">
  <defs>
    <clipPath id="clip-path">
      <rect id="Rectángulo_459150" data-name="Rectángulo 459150" width="42" height="42.055" fill="#fff"/>
    </clipPath>
  </defs>
  <g id="Grupo_1208197" data-name="Grupo 1208197" transform="translate(-616.566 -749.381)">
    <circle id="Elipse_13676" data-name="Elipse 13676" cx="34.5" cy="34.5" r="34.5" transform="translate(616.566 749.381)" fill="#6a2874"/>
    <g id="Grupo_1208998" data-name="Grupo 1208998" transform="translate(630.566 762.381)">
      <g id="Grupo_1208997" data-name="Grupo 1208997" clip-path="url(#clip-path)">
        <path id="Trazado_1268332" data-name="Trazado 1268332" d="M124.17,21.86l-.519-1.652-1.571-.44-.442-2.048c1.938-2.132,4.024-4.131,5.953-6.27,1.342-1.488,4.016-4.1,4.24-6.047.174-1.517-.406-3.089.466-4.516,1.1-1.8,3.292-.491,4.368.681.892.971,1.649,3.151,2.738,3.53,2.084.726,5.159.78,4.62,3.982-.416,2.473-2.822,1.863-4.5,2.089-2.015.271-4.244,2.55-5.75,3.894-2.541,2.268-4.939,4.722-7.4,7.071-.622.4-1.5-.2-2.2-.274" transform="translate(-102.087 0)" fill="#fff"/>
        <path id="Trazado_1268333" data-name="Trazado 1268333" d="M18.868,121.847l1.539.388.436,1.575c.3.42,2.035.189,1.609,1.125-1.99,2.022-4.031,4.021-5.952,6.107-1.517,1.648-4.86,4.949-5.431,6.946-.577,2.018.427,5.8-3.171,4.875-2.044-.525-2.45-2.7-3.179-4.214-.683-1.418-2.042-1.52-3.161-2.465-1.785-1.507-2.435-4.216.238-5.059,1.95-.615,3.173.563,5.294-.814a60.125,60.125,0,0,0,5.8-5.131c1.694-1.56,3.283-3.266,4.981-4.826.891-.416.656,1.149,1,1.493" transform="translate(0 -100.95)" fill="#fff"/>
      </g>
    </g>
  </g>
</svg>
