<svg xmlns="http://www.w3.org/2000/svg" xmlns:xlink="http://www.w3.org/1999/xlink" width="96" height="96" viewBox="0 0 96 96">
  <defs>
    <clipPath id="clip-path">
      <rect id="Rectángulo_455595" data-name="Rectángulo 455595" width="96" height="96" fill="none"/>
    </clipPath>
    <clipPath id="clip-path-2">
      <rect id="Rectángulo_459319" data-name="Rectángulo 459319" width="42.3" height="57.028" fill="#fff"/>
    </clipPath>
  </defs>
  <g id="Grupo_1208251" data-name="Grupo 1208251" transform="translate(-735.746 -9118)">
    <g id="Grupo_1180407" data-name="Grupo 1180407" transform="translate(735.746 9117.971)">
      <g id="Grupo_1179172" data-name="Grupo 1179172" transform="translate(0 0.03)" clip-path="url(#clip-path)">
        <path id="Trazado_998483" data-name="Trazado 998483" d="M92.562,52.469A40.092,40.092,0,1,1,52.469,12.377,40.093,40.093,0,0,1,92.562,52.469" transform="translate(-4.455 -4.484)" fill="#8d1939"/>
        <path id="Trazado_998485" data-name="Trazado 998485" d="M90.9,46.451A44.45,44.45,0,1,1,46.451,2,44.45,44.45,0,0,1,90.9,46.451Z" transform="translate(1.564 1.535)" fill="none" stroke="#8d1939" stroke-miterlimit="10" stroke-width="4"/>
      </g>
    </g>
    <g id="Grupo_1180408" data-name="Grupo 1180408" transform="translate(755.746 9137)">
      <g id="Grupo_1099618" data-name="Grupo 1099618" transform="translate(-0.035 -0.441)">
        <rect id="Rectángulo_401104" data-name="Rectángulo 401104" width="56.349" height="57.028" transform="translate(0)" fill="none"/>
      </g>
      <g id="Grupo_1209071" data-name="Grupo 1209071" transform="translate(6.965 -0.441)">
        <g id="Grupo_1209070" data-name="Grupo 1209070" clip-path="url(#clip-path-2)">
          <path id="Trazado_1268631" data-name="Trazado 1268631" d="M9.734,5.373C8.9,7.5,6.062,8.424,4.509,6.519,1.546,2.884,7.9-.79,9.6,3.748h7.287a5.6,5.6,0,0,1,10.885,1.7c.2,2.544.334,6.194-2.59,7.13l-.027,1.607,1.134-.091L32.305,10.5c-.741-4.579,6.378-4.809,5.723,0-.311,2.28-3.246,3.019-4.933,1.594L29.07,14.43a7.564,7.564,0,0,1,1.633.976,30.646,30.646,0,0,1,3.654,4.015c.365.494.619.815.22,1.414a1.051,1.051,0,0,1-1.192.048c-1.8-1.726-3.8-5.72-6.811-5.032-.855.2-2.288,1.835-3.143,1.282a.909.909,0,0,1,.58-1.644c-.672-.81-.471-1.8-.489-2.772H20.911c.439,4.374-2.216,2.6-4.8,3.281-1.45.38-2.479,1.83-3.447,2.917-2.561,2.878-4.945,5.935-7.5,8.821-.365.912.318,1.551,1.216,1.216L14.554,20.8c.468-.541,1.951-.165,1.951.482v7.1c1.045-.332,2.447-1.957,2.946-.09-.081.843-2.383,1.54-2.919,2.156l-.03,9.108c-.213,1.091-1.628.573-1.628.166v-8.24L6.135,36.367l-.205.285a3.1,3.1,0,0,1-2.559,3.477A2.905,2.905,0,0,1,1.987,34.5c1.407-.474,1.884.036,3.137.543l9.749-5.525V23L7.859,29.932c-2.654,2.255-5.972-.905-3.751-3.588C7.284,23.252,10,18.8,13.154,15.81a7.418,7.418,0,0,1,3.107-1.625h2.855c-.068-.441.14-1.278-.079-1.634-.107-.174-.592-.29-.819-.486A5.012,5.012,0,0,1,16.668,9.7V5.373Zm10.649-1.43a1.265,1.265,0,0,1,.212.7c-.049,1.178-1.366.535-2.026.753l-.245.245c.078,1.8-.706,5.14,1.85,5.447a26.65,26.65,0,0,0,4.238-.012,1.983,1.983,0,0,0,1.562-1.7,30.012,30.012,0,0,0,0-4.577C25.548,1.293,20.4.524,18.79,3.661c.4.2,1.247-.063,1.592.283M5.788,5.485c1.136,1.239,3.2-.594,1.753-1.835A1.271,1.271,0,0,0,5.788,5.485M34.9,8.665a1.27,1.27,0,0,0,.39,2.5,1.27,1.27,0,1,0-.39-2.5M2.425,36.083a1.273,1.273,0,0,0,.166,2.382,1.273,1.273,0,1,0-.166-2.382" transform="translate(0 0)" fill="#fff"/>
          <path id="Trazado_1268632" data-name="Trazado 1268632" d="M88.976,128.341v12.4h7.016a2.933,2.933,0,1,1,0,1.795H88.976v15.257c.547.57,1.5.441,2.166.771a1.974,1.974,0,0,1-.461,3.708,31.042,31.042,0,0,1-4.886.008c-1.837-.21-1.86-1.7-2.039-3.183-.688-5.728-.8-11.765-1.652-17.444a2.74,2.74,0,0,0-.159-.57l-.536,0c-.292.106-.384,1.185-.426,1.533-.639,5.3-.817,10.688-1.471,15.989-.174,1.411-.091,3.4-1.891,3.657a30.518,30.518,0,0,1-4.884.018,1.871,1.871,0,0,1-1.7-2.359c.288-1.87,3.027-1.55,3.23-2.154L74.3,148.5c.33-1.066,1.494-.937,1.636.151-.324,2.9.411,6.67-.019,9.462-.293,1.9-2.258,1.384-3.088,1.97-.323.228-.126.4.08.57h4.65l1.994-19.789a2.177,2.177,0,0,1,4.2.3l1.8,19.081.245.407h4.569c.206-.172.4-.342.08-.57-.554-.39-3.1-.388-3.1-1.8V142.537c-3.305.487-3.266-2.263,0-1.795V126.628c0-.647,1.483-1.023,1.951-.482l8.42,8.239a.937.937,0,0,0,1.023-1.2c-.488-.936-3.579-3.708-3.7-4.477a.88.88,0,0,1,1.527-.7,37.1,37.1,0,0,1,3.012,3.514,2.88,2.88,0,0,1,.8,2.43,2.552,2.552,0,0,1-3.3,2.019c-1.615-.364-6.321-6.514-8.111-7.635m9.417,12.11a1.243,1.243,0,0,0-.125,2.338,1.258,1.258,0,1,0,.125-2.338" transform="translate(-59.417 -105.345)" fill="#fff"/>
        </g>
      </g>
    </g>
  </g>
</svg>
