<svg xmlns="http://www.w3.org/2000/svg" xmlns:xlink="http://www.w3.org/1999/xlink" width="96" height="96" viewBox="0 0 96 96">
  <defs>
    <clipPath id="clip-path">
      <rect id="Rectángulo_455595" data-name="Rectángulo 455595" width="96" height="96" fill="none"/>
    </clipPath>
    <clipPath id="clip-path-2">
      <rect id="Rectángulo_459318" data-name="Rectángulo 459318" width="49.755" height="57.028" fill="#fff"/>
    </clipPath>
  </defs>
  <g id="Grupo_1208250" data-name="Grupo 1208250" transform="translate(-735.746 -9118)">
    <g id="Grupo_1180407" data-name="Grupo 1180407" transform="translate(735.746 9117.971)">
      <g id="Grupo_1179172" data-name="Grupo 1179172" transform="translate(0 0.03)" clip-path="url(#clip-path)">
        <path id="Trazado_998483" data-name="Trazado 998483" d="M92.562,52.469A40.092,40.092,0,1,1,52.469,12.377,40.093,40.093,0,0,1,92.562,52.469" transform="translate(-4.455 -4.484)" fill="#8d1939"/>
        <path id="Trazado_998485" data-name="Trazado 998485" d="M90.9,46.451A44.45,44.45,0,1,1,46.451,2,44.45,44.45,0,0,1,90.9,46.451Z" transform="translate(1.564 1.535)" fill="none" stroke="#8d1939" stroke-miterlimit="10" stroke-width="4"/>
      </g>
    </g>
    <g id="Grupo_1180408" data-name="Grupo 1180408" transform="translate(755.746 9137)">
      <g id="Grupo_1099618" data-name="Grupo 1099618" transform="translate(-0.035 -0.441)">
        <rect id="Rectángulo_401104" data-name="Rectángulo 401104" width="56.349" height="57.028" transform="translate(0)" fill="none"/>
      </g>
      <g id="Grupo_1209069" data-name="Grupo 1209069" transform="translate(2.965 -0.442)">
        <g id="Grupo_1209068" data-name="Grupo 1209068" clip-path="url(#clip-path-2)">
          <path id="Trazado_1268627" data-name="Trazado 1268627" d="M180.024,199.46c-.983.78-2.306.073-1.928-1.189.174-.582,1.626-1.166,2.169-1.59a9.291,9.291,0,0,0,3.513-6.528,3.785,3.785,0,0,1-3.156-.353c-.308-.2-.833-.891-1.03-.928a13.992,13.992,0,0,1-1.773.476c-.446,0-1.635-.462-1.717-.426-.4.181-.947,1.239-1.636,1.316a13.705,13.705,0,0,1,1.074,2.355c.265,1.14.265,2.951-1.446,2.425-.685-.211-.579-1.414-.758-2.017a3.638,3.638,0,0,0-1.919-2.163c-.852-.321-2.385-.063-2.5-1.274-.169-1.811,3.042-1.074,4.168-1.2,1.654-.192,1.811-2.42-.322-2.625a37.2,37.2,0,0,0-5.709.023c-.616.083-1.382.414-1.531,1.082a20.7,20.7,0,0,0-.018,3.867,9.7,9.7,0,0,0,4.175,6.439c.4.289,1.312.5,1.453.993.4,1.392-.753,2.107-1.89,1.321v4.49a4.478,4.478,0,0,1-.657.652,1.206,1.206,0,0,1-1.556-.725c-.453-1.448.186-4.472-.072-6.1a12.4,12.4,0,0,1-3.743-10.962c.2-1.5,1.408-2.06,1.586-2.66.274-.924-.125-2.8.043-3.875.281-1.8,2.422-2.975,4.144-2.694.369.06.945.513,1.137.467s.314-.478.506-.641a3.814,3.814,0,0,1,4.115-.523c.388.2,1.1,1.116,1.271,1.13.123.01.707-.352,1.021-.4a3.7,3.7,0,0,1,2.381.317c.41.2,1.214,1.054,1.358,1.081.249.048,1.2-.426,1.633-.449a3.706,3.706,0,0,1,3.613,2.724,60.191,60.191,0,0,1,.045,9.111,12.807,12.807,0,0,1-3.728,7.539c-.325,1.487.373,4.809-.156,6.049a1.167,1.167,0,0,1-2.163-.2Zm-5.715-15.676V179.62c0-.319-.716-.861-1.077-.9-.4-.04-1.373.438-1.373.734v4.164Zm3.511-4.01a1.258,1.258,0,0,0-1.19.861,39.751,39.751,0,0,0,.05,5.758,1.3,1.3,0,0,0,2.279,0,39.732,39.732,0,0,0,.05-5.758,1.258,1.258,0,0,0-1.189-.861m-8.246,3.846v-2.858c0-.8-1.637-1.3-2.291-.495a4.44,4.44,0,0,0-.077,3.353Zm12.135,4.193a1.282,1.282,0,0,0,2.067-.524,41.674,41.674,0,0,0,0-5.543,1.253,1.253,0,0,0-2.436.169,32.729,32.729,0,0,0-.017,5.059,1.53,1.53,0,0,0,.385.839" transform="translate(-136.468 -147.689)" fill="#fff"/>
          <path id="Trazado_1268628" data-name="Trazado 1268628" d="M16.94,199.354c-1.154.859-2.416-.093-1.85-1.431.1-.225,1.826-1.165,2.254-1.513a9.194,9.194,0,0,0,3.351-6.363,3.785,3.785,0,0,1-3.156-.353c-.308-.2-.833-.891-1.03-.928a14.009,14.009,0,0,1-1.772.476,7.693,7.693,0,0,1-1.862-.491c-.249.8-1.044,1.1-1.645,1.541,1,.663,2.075,4.212.7,4.619-1.707.5-1.4-1.244-1.766-2.247a4.362,4.362,0,0,0-1.6-1.833c-.9-.46-2.6-.09-2.726-1.37-.257-2.517,4.887,0,5.355-2.144.242-1.1-.525-1.6-1.511-1.687a37.409,37.409,0,0,0-5.709.023c-.616.083-1.382.414-1.531,1.082a20.64,20.64,0,0,0-.032,3.718,9.715,9.715,0,0,0,3.512,6.122c.543.424,1.995,1.008,2.169,1.59.378,1.262-.946,1.969-1.928,1.189v4.327c0,.77-1.8,1.414-2.213.09-.436-1.4.178-4.241-.077-5.8A13.571,13.571,0,0,1,.135,186.55c.184-1.335,1.416-1.926,1.585-2.5.5-1.7-.688-3.457.765-5.277a3.457,3.457,0,0,1,3.256-1.287c.374.051,1.173.494,1.3.462.188-.045.314-.477.506-.641a3.5,3.5,0,0,1,4.277-.358c.305.187,1,.956,1.109.965s.707-.352,1.021-.4a3.7,3.7,0,0,1,2.381.317c.41.2,1.214,1.054,1.358,1.081.255.049,1.266-.454,1.773-.457a3.67,3.67,0,0,1,3.473,2.895,48.133,48.133,0,0,1-.266,10.6,11.5,11.5,0,0,1-1.36,3.212c-.4.651-1.954,2.324-2.057,2.679-.33,1.147.1,3.951-.027,5.361-.079.869-.709,1.727-1.637,1.3a4.464,4.464,0,0,1-.657-.652Zm-5.715-15.676v-4.164c0-.319-.716-.861-1.077-.9-.4-.04-1.373.438-1.373.734v4.164Zm3.511-4.01a1.258,1.258,0,0,0-1.19.861,39.752,39.752,0,0,0,.05,5.758,1.3,1.3,0,0,0,2.279,0,39.752,39.752,0,0,0,.05-5.758,1.258,1.258,0,0,0-1.189-.861m-10.091.125c-1.1.327-.776,2.67-.7,3.568l2.388.082c.345-1.349.525-4.31-1.692-3.65m14.538.974a1.27,1.27,0,0,0-.927,1.042,32.308,32.308,0,0,0-.013,5.056,1.258,1.258,0,0,0,2.449.318,47.273,47.273,0,0,0-.08-5.79,1.414,1.414,0,0,0-1.428-.627" transform="translate(0 -147.583)" fill="#fff"/>
          <path id="Trazado_1268629" data-name="Trazado 1268629" d="M73.13,26.532c-.768.608-2.651,3.185-3.578,3.186-1,0-3.38-3.357-4.449-3.868l-10.816-.127a1.736,1.736,0,0,1-.662-1.461c.519-7.3-.67-15.517,0-22.71C53.711.624,53.946,0,55.011,0L84.664.081c.665.245.756.833.815,1.471.667,7.2-.518,15.407,0,22.71a1.82,1.82,0,0,1-.566,1.393l-10.786.155c-.3.058-.727.508-1,.722M83.187,2.294H55.917V23.522h9.716c.937,0,3.091,2.8,3.919,3.426.828-.628,2.982-3.426,3.919-3.426h9.716Z" transform="translate(-44.692)" fill="#fff"/>
          <path id="Trazado_1268630" data-name="Trazado 1268630" d="M109.264,35.246c1.48-.135,2.536.761,3.219.761.3,0,.863-.417,1.257-.527a5.047,5.047,0,0,1,6.5,5.518c-.272,2.92-3.752,6.781-6.314,8.055-1.638.814-2.22.451-3.7-.492-2.166-1.384-5.013-4.554-5.428-7.145a5.134,5.134,0,0,1,4.464-6.169m6.346,9.7c1.549-1.6,3.656-4.855,1.444-6.8a2.7,2.7,0,0,0-3-.392c-.62.288-.919.964-1.717.881-.565-.059-1.053-.78-1.64-.987a2.736,2.736,0,0,0-3.028.744c-2.5,2.85,2.262,7.844,4.911,8.821a12.982,12.982,0,0,0,3.032-2.265" transform="translate(-87.623 -29.479)" fill="#fff"/>
        </g>
      </g>
    </g>
  </g>
</svg>
