<svg xmlns="http://www.w3.org/2000/svg" xmlns:xlink="http://www.w3.org/1999/xlink" width="150" height="150" viewBox="0 0 150 150">
  <defs>
    <clipPath id="clip-path">
      <rect id="Rectángulo_458520" data-name="Rectángulo 458520" width="81.794" height="80.627" fill="#6a2874"/>
    </clipPath>
  </defs>
  <g id="Grupo_1208256" data-name="Grupo 1208256" transform="translate(-561.711 -8567.084)">
    <g id="Grupo_1207828" data-name="Grupo 1207828" transform="translate(561.711 8567.084)">
      <g id="Grupo_1177470" data-name="Grupo 1177470" transform="translate(0 0)">
        <circle id="Elipse_13609" data-name="Elipse 13609" cx="75" cy="75" r="75" fill="#f6e1fe"/>
        <g id="Grupo_1207827" data-name="Grupo 1207827" transform="translate(32.621 32.621)">
          <g id="Grupo_1099618" data-name="Grupo 1099618" transform="translate(0 0)">
            <rect id="Rectángulo_401104" data-name="Rectángulo 401104" width="84.532" height="84.532" transform="translate(0)" fill="none"/>
          </g>
          <g id="Grupo_1207715" data-name="Grupo 1207715" transform="translate(0.939 1.879)">
            <g id="Grupo_1207714" data-name="Grupo 1207714" clip-path="url(#clip-path)">
              <path id="Trazado_1267108" data-name="Trazado 1267108" d="M.128,174.667c.041-.476.241-1.507.347-2.03A14.291,14.291,0,0,1,11.9,161.5a10.387,10.387,0,0,1,1.221-16.934c8.56-5.168,18.809,3.436,15.225,12.662-.3.77-.86,1.372-1.074,2.139.4.385,4.283-2.515,4.805-2.96,4.153-3.532,7.939-8.639,12.12-11.984,5.054-4.045,10.856,1.786,7.33,6.764L30.389,172.3v17.43H.489l-.36-.356c.3-4.765-.4-10,0-14.7M17.6,145.679c-9.795,1.25-8.617,15.672,1.114,15.563,10.691-.121,9.716-16.945-1.114-15.563m10.146,41.438V172.058a9.86,9.86,0,0,1,1.558-2.73l20.3-20.034c1.448-2.174-1.1-4.812-3.722-2.965-4.01,2.822-8.472,8.94-12.484,12.337a20.042,20.042,0,0,1-9.714,4.518c-.35,6.959-9.088,7.887-10.11.7a11.589,11.589,0,0,0-10.4,8.809c-.646,2.683-.747,10.784-.411,13.61.041.345.03.61.372.818H6.853V171.466H9.5v15.652Zm-6.725-23.476a19.438,19.438,0,0,0-4.44.241c-.228.055-.5-.149-.356.342.9,3.106,4.424,2.472,4.8-.584" transform="translate(0 -109.099)" fill="#6a2874"/>
              <path id="Trazado_1267109" data-name="Trazado 1267109" d="M92.247,28.692v6.4l-9.6-6.3-5.395-.351c-1.44,3.07-4.084,2.8-7.038,3.037L60.785,37.7V31.3H47.7c-1.675,0-3.722-2.829-3.942-4.408a92.123,92.123,0,0,1-.018-13.968A5.329,5.329,0,0,1,48.66,8.063l23.894,0c-.363-4.49,2.33-7.485,6.835-7.836C88.577.8,98.652-.511,107.734.238c4.126.341,6.5,2.682,6.845,6.759a113.436,113.436,0,0,1,0,15.17A6.954,6.954,0,0,1,111.4,27.8a11.542,11.542,0,0,1-1.98.891ZM89.6,26.321l9.477.011c4.8-.649,12.347,2.291,12.868-4.626a104.114,104.114,0,0,0-.031-15.167,4.34,4.34,0,0,0-4.172-3.706c-9.141.626-19.346-.8-28.359,0a4.256,4.256,0,0,0-4.193,3.685,111.589,111.589,0,0,0-.009,15.9c.227,2.545,2.033,3.684,4.457,3.9,1.251.111,3.074-.242,4.188.133,1.586.532,3.939,3.15,5.774,3.666ZM72.553,10.669H48.417a5.844,5.844,0,0,0-1.566,1.062,3.059,3.059,0,0,0-.484,1.656c-.395,4.2.3,9.006.023,13.276-.122.457,1.417,2.029,1.547,2.029h15.49v4.031c1.824-.647,4.4-3.36,6.014-3.9,1.762-.592,4.1.711,5.4-1.315a20.709,20.709,0,0,0-1.368-1.976,9.847,9.847,0,0,1-.921-2.173Z" transform="translate(-33.038 0)" fill="#6a2874"/>
              <path id="Trazado_1267110" data-name="Trazado 1267110" d="M179.6,184.452c-5.04-.7-5.351-8.165-.246-9.017l13.541-.028c1.5-4.139,1.523-9.046,5.316-11.944-9.781-2.286-11.249-15.842-1.675-19.677,11.264-4.512,19.723,10.117,10.563,17.66a10.393,10.393,0,0,1,7.15,6.1,16.833,16.833,0,0,1,.775,3.266v18.5l-.36.356H192.691v-5.217Zm20-38.824c-10.883,1.134-7.861,18.095,2.946,15.239,9.2-2.431,6.7-16.244-2.946-15.239m-4.269,41.433h16.691l.36-.356V170.578c0-2.7-3.238-6.253-5.941-6.7-9.094-1.513-9.631,7.687-11.374,13.912-4.548.329-9.539-.357-14.035.015-3.623.3-3.513,3.667-.936,4.025l16.923-.1a2.993,2.993,0,0,0,1.8-1.547l4.554-13.011,2.289.68L200.9,181.768a5.707,5.707,0,0,1-5.571,2.682Z" transform="translate(-133.482 -109.042)" fill="#6a2874"/>
              <rect id="Rectángulo_458510" data-name="Rectángulo 458510" width="31.461" height="2.609" transform="translate(44.799 15.886)" fill="#6a2874"/>
              <rect id="Rectángulo_458511" data-name="Rectángulo 458511" width="31.461" height="2.609" transform="translate(44.799 21.104)" fill="#6a2874"/>
              <rect id="Rectángulo_458512" data-name="Rectángulo 458512" width="26.178" height="2.609" transform="translate(44.799 10.669)" fill="#6a2874"/>
              <path id="Trazado_1267111" data-name="Trazado 1267111" d="M250.555,22.99V25.6H229.421c.108-.848-.323-1.983.36-2.609Z" transform="translate(-174.295 -17.538)" fill="#6a2874"/>
              <rect id="Rectángulo_458513" data-name="Rectángulo 458513" width="2.644" height="2.611" transform="translate(44.798 5.451)" fill="#6a2874"/>
              <rect id="Rectángulo_458514" data-name="Rectángulo 458514" width="2.644" height="2.611" transform="translate(50.081 5.451)" fill="#6a2874"/>
              <rect id="Rectángulo_458515" data-name="Rectángulo 458515" width="2.644" height="2.611" transform="translate(73.617 10.668)" fill="#6a2874"/>
              <rect id="Rectángulo_458516" data-name="Rectángulo 458516" width="20.894" height="2.609" transform="translate(15.979 18.495)" fill="#6a2874"/>
              <rect id="Rectángulo_458517" data-name="Rectángulo 458517" width="20.894" height="2.609" transform="translate(15.979 23.712)" fill="#6a2874"/>
              <rect id="Rectángulo_458518" data-name="Rectángulo 458518" width="15.611" height="2.609" transform="translate(21.263 13.278)" fill="#6a2874"/>
              <rect id="Rectángulo_458519" data-name="Rectángulo 458519" width="2.644" height="2.611" transform="translate(15.978 13.277)" fill="#6a2874"/>
            </g>
          </g>
        </g>
      </g>
      <ellipse id="Elipse_13678" data-name="Elipse 13678" cx="18.074" cy="18.074" rx="18.074" ry="18.074" transform="translate(0.769 113.817)" fill="#da9dfe"/>
      <g id="Grupo_1207826" data-name="Grupo 1207826" transform="translate(0 116.123)">
        <path id="Trazado_998481" data-name="Trazado 998481" d="M0,13.012q4.541.393,9.077.815l-.253.1,1.3-2.34a.35.35,0,0,1,.4-.123.254.254,0,0,1,.184.174l0,.009,1.114,5.034-.836-.059,1.8-4.073,1.816-4.068,1.822-4.067L18.27.354a.772.772,0,0,1,.885-.326.543.543,0,0,1,.472.536V.572L18.9,7.156l-.762,6.581-.773,6.58-.8,6.579-1.5-.222c1.16-2.774,2.354-5.539,3.536-8.307l1.778-4.152,1.8-4.146,0-.01a.657.657,0,0,1,.753-.287.475.475,0,0,1,.413.442L23.082,15.5l-.295,5.285-.776-.111,2.607-5,0-.008a.274.274,0,0,1,.277-.117l4.931.63,4.928.647-4.969-.438-4.966-.456.281-.125L22.763,20.88a.443.443,0,0,1-.508.185.318.318,0,0,1-.269-.285v-.011l.074-5.289.1-5.289,1.17.145-1.676,4.175-1.7,4.17c-1.136,2.779-2.26,5.561-3.418,8.335a.838.838,0,0,1-.96.376c-.35-.082-.566-.334-.536-.6v0l.762-6.581.791-6.579.8-6.579L18.234.48,19.59.7,17.666,4.738,15.723,8.774l-1.948,4.035-1.966,4.029-.005.01a.482.482,0,0,1-.552.192.359.359,0,0,1-.279-.261L10.1,11.718l.586.059-1.431,2.3,0,.007a.257.257,0,0,1-.249.1Q4.5,13.609,0,13.012" transform="translate(0 4.236) rotate(-7)" fill="#fff"/>
      </g>
    </g>
    <path id="Trazado_1267128" data-name="Trazado 1267128" d="M77.377,52.427V64.859a.84.84,0,0,1-.841.84h-10a.841.841,0,0,0-.841.841v10a.841.841,0,0,1-.841.841H52.427a.841.841,0,0,1-.841-.841v-10a.841.841,0,0,0-.84-.841H40.713a.841.841,0,0,1-.841-.84V52.427a.841.841,0,0,1,.841-.841H50.745a.84.84,0,0,0,.84-.84V40.714a.841.841,0,0,1,.841-.841H64.858a.841.841,0,0,1,.841.841V50.746a.841.841,0,0,0,.841.84h10a.841.841,0,0,1,.841.841" transform="translate(630.197 8531.593)" fill="#8d1939"/>
  </g>
</svg>
