<svg xmlns="http://www.w3.org/2000/svg" xmlns:xlink="http://www.w3.org/1999/xlink" width="150" height="150" viewBox="0 0 150 150">
  <defs>
    <clipPath id="clip-path">
      <rect id="Rectángulo_459326" data-name="Rectángulo 459326" width="62.174" height="84.532" fill="#6a2874"/>
    </clipPath>
  </defs>
  <g id="Grupo_1208257" data-name="Grupo 1208257" transform="translate(-561.711 -8567.084)">
    <g id="Grupo_1207828" data-name="Grupo 1207828" transform="translate(561.711 8567.084)">
      <g id="Grupo_1177470" data-name="Grupo 1177470" transform="translate(0 0)">
        <circle id="Elipse_13609" data-name="Elipse 13609" cx="75" cy="75" r="75" fill="#f6e1fe"/>
        <g id="Grupo_1207827" data-name="Grupo 1207827" transform="translate(32.621 32.621)">
          <g id="Grupo_1099618" data-name="Grupo 1099618" transform="translate(0.149 0.009)">
            <rect id="Rectángulo_401104" data-name="Rectángulo 401104" width="84.532" height="84.532" transform="translate(0)" fill="none"/>
          </g>
          <g id="Grupo_1209079" data-name="Grupo 1209079" transform="translate(11.149 0.009)">
            <g id="Grupo_1209078" data-name="Grupo 1209078" clip-path="url(#clip-path)">
              <path id="Trazado_1268648" data-name="Trazado 1268648" d="M44.149,145.015c.707-3.974,7.551-4.007,8.227.274.216,1.368-.307,4.018.059,5.093.2.593,2.426,1.17,2.776,3.407-.607,6.781.9,15.231-.051,21.815-.3,2.05-3.086,5.606-5.214,5.606H34.488l-.386.386v7.471l-1.662.656c-9.73-.673-20.569.852-30.166,0C1.329,189.64.72,189.632.6,188.568a70.407,70.407,0,0,1,0-10.073c.308-3.364,4.377-8.362,7.868-8.362h4.508c-.239-1.04-.893-1.778-1.121-2.872-.172-.821-.042-1.719-.221-2.356-.121-.432-1.953-2.648-2.4-3.526-2.622-5.161-2.826-12.241,3.487-14.558,6.293-2.31,12.493-3.638,17.251,2.321.9,1.132,1.579,3.163,2.949,3.749,1.892.809,4.978-.776,3.7,3.142a8.265,8.265,0,0,1-5.051,5.38c-.145,2.935.328,6.235-1.588,8.718H44.149Zm5.41,5.281V145.53c0-.886-2.834-1.053-2.834.773V150.3Zm-15.973,5.671c-5.241-.594-5.3-7.483-10.714-8.224-3.246-.445-3.738.383-6.285,1.141-.943.281-2.044.217-3.024.583-5.181,1.935-3.074,8.938-.842,12.42l3.386-6.527a1.407,1.407,0,0,1,1.828-.624c3.057,2,6.936,3.853,10.628,4.058,2.679.149,3.791-.432,5.021-2.827M52.393,158.8v-4.766a4.353,4.353,0,0,0-1.159-.9H47.111l-.386.386V158.8Zm-23.715,2.847A23.105,23.105,0,0,1,18,158.029c-1.659,3.263-5.981,8.632-1.407,11.45,1.6.983,8.2.961,9.849.079,2.725-1.463,2.268-5.317,2.236-7.913m23.715-.013H47.111l-.386.386v10.047a2.946,2.946,0,0,1-.839.707l-36.88.218c-2.773.38-5.819,3.763-5.819,6.547v7.342H8.854v-5.8c0-1.385,2.834-1.519,2.834-.258v6.054H31.268v-6.827c0-.728.947-1.544,1.69-1.659,4.8-.743,11.7.8,16.412-.076,1.036-.192,3.023-1.956,3.023-2.9Z" transform="translate(-0.309 -105.459)" fill="#6a2874"/>
              <path id="Trazado_1268649" data-name="Trazado 1268649" d="M36.66,28.125a9.913,9.913,0,0,1-5.868,7.143c-1.181.568-4.893,2.3-5.248.153-.182-1.1.651-1.654.975-2.623.507-1.512.584-3.518-.626-4.666L6.616,28.089C3.622,27.815.648,25.383.3,22.3A113.271,113.271,0,0,1,.3,5.807,7.012,7.012,0,0,1,6.6,0L55.57,0a6.992,6.992,0,0,1,6.3,5.8,113.271,113.271,0,0,1,0,16.489c-.346,3.074-3.3,5.514-6.316,5.793Zm-7.247,4.6a6.826,6.826,0,0,0,4.266-4.362c.259-1.1-.225-2.472,1.128-2.994l20.5-.113c2.46-.32,3.756-2.144,3.99-4.511A94.935,94.935,0,0,0,59.306,7.6c-.183-2.12-.853-3.725-2.911-4.559H5.78C3.721,3.876,3.051,5.481,2.868,7.6A95.015,95.015,0,0,0,2.88,20.747c.233,2.372,1.537,4.194,3.99,4.511l20.5.113c1.611.529,2.909,5.773,2.047,7.356" transform="translate(0)" fill="#6a2874"/>
              <path id="Trazado_1268650" data-name="Trazado 1268650" d="M34.137,33.058l42.725-.068a1.466,1.466,0,0,1,1.416,1.416c-.067.713-1.241,1.461-1.939,1.437H35.107c-1.707-.2-2.81-1.789-.97-2.785" transform="translate(-24.636 -24.491)" fill="#6a2874"/>
              <path id="Trazado_1268651" data-name="Trazado 1268651" d="M72.3,67.543c-.288.286-.941.3-1.343.329l-36.349,0c-2.093-.269-1.681-2.809.266-2.852l36.731.118a1.575,1.575,0,0,1,.695,2.4" transform="translate(-24.656 -48.272)" fill="#6a2874"/>
              <path id="Trazado_1268652" data-name="Trazado 1268652" d="M197.3,67.622c-1.247-1.246.815-3.5,2.117-1.988,1.351,1.567-1.036,3.069-2.117,1.988" transform="translate(-146.183 -48.351)" fill="#6a2874"/>
            </g>
          </g>
        </g>
      </g>
      <ellipse id="Elipse_13678" data-name="Elipse 13678" cx="18.074" cy="18.074" rx="18.074" ry="18.074" transform="translate(0.769 113.817)" fill="#da9dfe"/>
      <g id="Grupo_1207826" data-name="Grupo 1207826" transform="translate(0 116.123)">
        <path id="Trazado_998481" data-name="Trazado 998481" d="M0,13.012q4.541.393,9.077.815l-.253.1,1.3-2.34a.35.35,0,0,1,.4-.123.254.254,0,0,1,.184.174l0,.009,1.114,5.034-.836-.059,1.8-4.073,1.816-4.068,1.822-4.067L18.27.354a.772.772,0,0,1,.885-.326.543.543,0,0,1,.472.536V.572L18.9,7.156l-.762,6.581-.773,6.58-.8,6.579-1.5-.222c1.16-2.774,2.354-5.539,3.536-8.307l1.778-4.152,1.8-4.146,0-.01a.657.657,0,0,1,.753-.287.475.475,0,0,1,.413.442L23.082,15.5l-.295,5.285-.776-.111,2.607-5,0-.008a.274.274,0,0,1,.277-.117l4.931.63,4.928.647-4.969-.438-4.966-.456.281-.125L22.763,20.88a.443.443,0,0,1-.508.185.318.318,0,0,1-.269-.285v-.011l.074-5.289.1-5.289,1.17.145-1.676,4.175-1.7,4.17c-1.136,2.779-2.26,5.561-3.418,8.335a.838.838,0,0,1-.96.376c-.35-.082-.566-.334-.536-.6v0l.762-6.581.791-6.579.8-6.579L18.234.48,19.59.7,17.666,4.738,15.723,8.774l-1.948,4.035-1.966,4.029-.005.01a.482.482,0,0,1-.552.192.359.359,0,0,1-.279-.261L10.1,11.718l.586.059-1.431,2.3,0,.007a.257.257,0,0,1-.249.1Q4.5,13.609,0,13.012" transform="translate(0 4.236) rotate(-7)" fill="#fff"/>
      </g>
    </g>
    <path id="Trazado_1267128" data-name="Trazado 1267128" d="M77.377,52.427V64.859a.84.84,0,0,1-.841.84h-10a.841.841,0,0,0-.841.841v10a.841.841,0,0,1-.841.841H52.427a.841.841,0,0,1-.841-.841v-10a.841.841,0,0,0-.84-.841H40.713a.841.841,0,0,1-.841-.84V52.427a.841.841,0,0,1,.841-.841H50.745a.84.84,0,0,0,.84-.84V40.714a.841.841,0,0,1,.841-.841H64.858a.841.841,0,0,1,.841.841V50.746a.841.841,0,0,0,.841.84h10a.841.841,0,0,1,.841.841" transform="translate(630.197 8531.593)" fill="#8d1939"/>
  </g>
</svg>
