<svg xmlns="http://www.w3.org/2000/svg" xmlns:xlink="http://www.w3.org/1999/xlink" width="96" height="96" viewBox="0 0 96 96">
  <defs>
    <clipPath id="clip-path">
      <rect id="Rectángulo_455595" data-name="Rectángulo 455595" width="96" height="96" fill="none"/>
    </clipPath>
    <clipPath id="clip-path-2">
      <rect id="Rectángulo_459320" data-name="Rectángulo 459320" width="47.344" height="53.516" fill="#fff"/>
    </clipPath>
  </defs>
  <g id="Grupo_1208254" data-name="Grupo 1208254" transform="translate(-735.746 -9118)">
    <g id="Grupo_1180407" data-name="Grupo 1180407" transform="translate(735.746 9117.971)">
      <g id="Grupo_1179172" data-name="Grupo 1179172" transform="translate(0 0.03)" clip-path="url(#clip-path)">
        <path id="Trazado_998483" data-name="Trazado 998483" d="M92.562,52.469A40.092,40.092,0,1,1,52.469,12.377,40.093,40.093,0,0,1,92.562,52.469" transform="translate(-4.455 -4.484)" fill="#8d1939"/>
        <path id="Trazado_998485" data-name="Trazado 998485" d="M90.9,46.451A44.45,44.45,0,1,1,46.451,2,44.45,44.45,0,0,1,90.9,46.451Z" transform="translate(1.564 1.535)" fill="none" stroke="#8d1939" stroke-miterlimit="10" stroke-width="4"/>
      </g>
    </g>
    <g id="Grupo_1180408" data-name="Grupo 1180408" transform="translate(755.746 9137)">
      <g id="Grupo_1099618" data-name="Grupo 1099618" transform="translate(-0.035 -0.441)">
        <rect id="Rectángulo_401104" data-name="Rectángulo 401104" width="56.349" height="57.028" transform="translate(0)" fill="none"/>
      </g>
      <g id="Grupo_1209073" data-name="Grupo 1209073" transform="translate(4.964 1.558)">
        <g id="Grupo_1209072" data-name="Grupo 1209072" clip-path="url(#clip-path-2)">
          <path id="Trazado_1268633" data-name="Trazado 1268633" d="M8.487,176.759a8.437,8.437,0,0,1,10.156,2.425c3.121.2,6.578-.276,9.659-.009a3.714,3.714,0,0,1,3.194,5.368c.175.146,1.214-.574,1.438-.722,2.183-1.442,7.912-6.712,9.935-7.019a3.982,3.982,0,0,1,4,5.9,8.952,8.952,0,0,1-1.7,1.761c-3.409,3.158-10.757,9.872-14.918,11.205a18.381,18.381,0,0,1-6.447.813L8.576,193.537c-.327.015.334,2.129-.556,2.39l-7.231.035c-.523-.086-.609-.676-.613-1.117.442-6.722-.56-14.137,0-20.776.07-.825.089-1.025.956-1.117a60.743,60.743,0,0,1,7.009.087,2.223,2.223,0,0,1,.346.519Zm-1.73-2.249H1.913v19.9H6.757Zm23.961,12.11h-12.8c-.548,0-.548-1.557,0-1.557H28.469a3.574,3.574,0,0,0,1.22-.683,2.1,2.1,0,0,0-.783-3.387L18.444,180.9c-.8-.127-1.588-1.347-2.289-1.863a6.339,6.339,0,0,0-7.672-.254l.026,13L23.3,194.728a15.879,15.879,0,0,0,8.261-1.383c2.825-1.366,10.624-8.184,13.085-10.616,2.1-2.08.826-4.732-2.051-4.126-3.323,1.738-8.29,7.531-11.878,8.017" transform="translate(0 -142.984)" fill="#fff"/>
          <path id="Trazado_1268634" data-name="Trazado 1268634" d="M18.028,41.669H21.92a3.8,3.8,0,0,1,1.129.6c.769.8.778,3.662-.085,4.422a5.23,5.23,0,0,1-1.044.513H18.028v4.066a6.321,6.321,0,0,1-.515.87c-.753.791-3.455.8-4.327.166a3.1,3.1,0,0,1-.695-1.208V47.2H8.6a3.1,3.1,0,0,1-1.208-.695c-.648-.886-.644-3.72.26-4.405a7.364,7.364,0,0,1,.948-.436h3.893V37.776a3.1,3.1,0,0,1,.695-1.208c.872-.638,3.573-.625,4.327.166a6.321,6.321,0,0,1,.515.87ZM16.3,37.863H14.222V42.1c0,.324-1.111,1.3-1.471,1.3H8.686v2.076h4.239a3.47,3.47,0,0,1,1.3,1.3v4.239H16.3V46.945c0-.383,1.011-1.471,1.471-1.471h4.066V43.4H17.768c-.459,0-1.471-1.088-1.471-1.471Z" transform="translate(-5.735 -29.866)" fill="#fff"/>
          <path id="Trazado_1268635" data-name="Trazado 1268635" d="M182.94,5.576h4.239c1.054,0,1.339,2.271,1.3,3.035-.03.673-.494,2.328-1.3,2.328H182.94v3.893a2.639,2.639,0,0,1-1.083,1.512,10.715,10.715,0,0,1-3.286.088c-.379-.1-1.167-.928-1.167-1.255V10.939h-4.412a5.267,5.267,0,0,1-.683-.528,5.157,5.157,0,0,1-.168-3.955,3.216,3.216,0,0,1,1.023-.88H177.4V1.337c0-.249.9-1.127,1.2-1.22a9.36,9.36,0,0,1,3.252.054,2.639,2.639,0,0,1,1.083,1.512ZM181.21,1.77h-2.076V5.662a5.181,5.181,0,0,1-.513,1.044c-.809.9-3.673.146-4.861.5L173.6,9.382h4.239c.324,0,1.3,1.111,1.3,1.471v4.066h2.076V10.679a3.11,3.11,0,0,1,1.125-1.3h4.412l-.162-2.174c-1.185-.327-5.374.627-5.374-1.373Z" transform="translate(-142.101 0)" fill="#fff"/>
          <path id="Trazado_1268636" data-name="Trazado 1268636" d="M116.726,108.9v4.412a5.256,5.256,0,0,1-.532.679c-.8.678-3.582.683-4.358-.066a4.609,4.609,0,0,1-.473-.786V108.9h-4.239a5.269,5.269,0,0,1-.856-.528c-.623-.668-.62-3.371-.169-4.13.793-1.336,3.75-.388,5.1-.781.6-1.336-.577-4.47.962-5.266a9.32,9.32,0,0,1,3.4-.158c2.027.455.712,4.05,1.323,5.424,1.622.438,5.1-.859,5.378,1.542.1.82.117,2.766-.445,3.369a5.268,5.268,0,0,1-.856.528Zm3.979-1.73-.162-2c-.376-.262-3.282.039-4.067-.085-2.1-.333-1.039-3.645-1.307-5.094-.13-.7-1.662-.5-2.174-.27-.284.408.078,3.365-.112,4.213-.079.35-.793,1.161-1.088,1.161h-4.239v2.076h3.72a4.618,4.618,0,0,1,1.166.516c.979.8.192,3.652.553,4.858l2.174.162v-4.239c0-.429,1.19-1.3,1.644-1.3Z" transform="translate(-87.479 -81.008)" fill="#fff"/>
        </g>
      </g>
    </g>
  </g>
</svg>
