<svg xmlns="http://www.w3.org/2000/svg" xmlns:xlink="http://www.w3.org/1999/xlink" width="96" height="96" viewBox="0 0 96 96">
  <defs>
    <clipPath id="clip-path">
      <rect id="Rectángulo_455595" data-name="Rectángulo 455595" width="96" height="96" fill="none"/>
    </clipPath>
    <clipPath id="clip-path-2">
      <rect id="Rectángulo_459321" data-name="Rectángulo 459321" width="53.352" height="53.396" fill="#fff"/>
    </clipPath>
  </defs>
  <g id="Grupo_1208253" data-name="Grupo 1208253" transform="translate(-735.746 -9118)">
    <g id="Grupo_1180407" data-name="Grupo 1180407" transform="translate(735.746 9117.971)">
      <g id="Grupo_1179172" data-name="Grupo 1179172" transform="translate(0 0.03)" clip-path="url(#clip-path)">
        <path id="Trazado_998483" data-name="Trazado 998483" d="M92.562,52.469A40.092,40.092,0,1,1,52.469,12.377,40.093,40.093,0,0,1,92.562,52.469" transform="translate(-4.455 -4.484)" fill="#8d1939"/>
        <path id="Trazado_998485" data-name="Trazado 998485" d="M90.9,46.451A44.45,44.45,0,1,1,46.451,2,44.45,44.45,0,0,1,90.9,46.451Z" transform="translate(1.564 1.535)" fill="none" stroke="#8d1939" stroke-miterlimit="10" stroke-width="4"/>
      </g>
    </g>
    <g id="Grupo_1180408" data-name="Grupo 1180408" transform="translate(755.746 9137)">
      <g id="Grupo_1099618" data-name="Grupo 1099618" transform="translate(-0.035 -0.441)">
        <rect id="Rectángulo_401104" data-name="Rectángulo 401104" width="56.349" height="57.028" transform="translate(0)" fill="none"/>
      </g>
      <g id="Grupo_1209075" data-name="Grupo 1209075" transform="translate(1.965 1.559)">
        <g id="Grupo_1209074" data-name="Grupo 1209074" clip-path="url(#clip-path-2)">
          <path id="Trazado_1268637" data-name="Trazado 1268637" d="M5.345,2.06A2.954,2.954,0,0,1,7.709,0L31.442.069,42.488,11.145l.091,7.553a.841.841,0,0,1-1.672.136c-.3-2.138.256-4.745-.093-6.93L30.821,1.91,7.39,1.969a2.853,2.853,0,0,0-.367.7V5.111l.229.229H26.018L37.059,16.268a14.079,14.079,0,0,1,.142,3.918c-.253.847-1.649.518-1.649.029V17.927c-.134-.218-.3-.211-.526-.237-2.463-.289-5.849.4-8.211-.028-.786-.144-1.942-1.251-1.942-2.024V7.247l-.229-.229H2.675a2.853,2.853,0,0,0-.7.367L1.911,51.111l.337.274L28,51.413a.924.924,0,0,1,.158,1.842L1.752,53.1A3.13,3.13,0,0,1,.107,51.389L0,7.7A3.011,3.011,0,0,1,2.064,5.34h3.28c.116-1-.158-2.326,0-3.28M34.18,16.02,26.7,8.544v6.942a2.58,2.58,0,0,0,.687.534Z" transform="translate(0)" fill="#fff"/>
          <path id="Trazado_1268638" data-name="Trazado 1268638" d="M207.889,139.8c5.353-.671,10.826,2.833,11.325,8.431.1,1.093-.228,3.393.031,4.241.1.322,2.165,1.783,1.8,2.929-.23,4.125.312,8.584.008,12.668a3.566,3.566,0,0,1-3.434,3.584c-5.3.454-11.253-.34-16.622-.019a3.748,3.748,0,0,1-2.914-2.579l-.079-13.966c.182-1.5,1.52-2.061,1.658-2.462a27.757,27.757,0,0,0,.027-3.482c.327-4.439,3.6-8.77,8.2-9.346m9.649,12.319v-3.28c0-3.838-4.153-7.339-7.852-7.409-3.615-.069-8.168,3.293-8.168,7.1v3.585h1.831v-3.89a10.176,10.176,0,0,1,.7-1.746,6.253,6.253,0,0,1,10.777-.267,9.559,9.559,0,0,1,.886,2.165v3.738Zm-3.509,0v-2.67a4.576,4.576,0,0,0-7.551-3.279,5.6,5.6,0,0,0-1.45,2.974v2.975Zm-13.009,1.866c-.909.213-1.193,1.036-1.333,1.871.316,3.821-.421,8.315,0,12.054.114,1.016.629,1.918,1.747,1.914,5.209-.376,11.056.473,16.187,0a1.636,1.636,0,0,0,1.6-1.6c.375-4.065-.3-8.7,0-12.826a1.807,1.807,0,0,0-1.063-1.378Z" transform="translate(-167.796 -118.405)" fill="#fff"/>
          <path id="Trazado_1268639" data-name="Trazado 1268639" d="M32.577,63.921C45.865,62.553,47.236,82.427,34.513,83.4S20.169,65.2,32.577,63.921m-4.7,14.907a5.553,5.553,0,0,1,2.44-3.28,4.428,4.428,0,0,1,5.6-6.669A4.526,4.526,0,0,1,37.2,75.526a8.454,8.454,0,0,1,2.5,3.3A7.9,7.9,0,0,0,36.615,66.2c-7.211-2.759-13.8,5.29-9.624,11.76.115.179.692,1.045.887.866m5.147-8.66c-2.93.543-2.4,5.526.837,5.272a2.679,2.679,0,1,0-.837-5.272m-1.372,6.7c-.968.2-2.552,2.439-2.225,3.381a7.672,7.672,0,0,0,7.187.828,7.451,7.451,0,0,0,1.416-.725c.332-.527-.6-2.074-.995-2.522-1.517-1.715-1.892-.515-3.748-.678-.574-.05-1.115-.393-1.636-.285" transform="translate(-20.399 -54.112)" fill="#fff"/>
          <path id="Trazado_1268640" data-name="Trazado 1268640" d="M24.059,209.016l20.262-.036c1.3.1,1.542,1.7.152,1.837h-20.3c-1.277-.119-1.245-1.427-.117-1.8" transform="translate(-19.674 -177.096)" fill="#fff"/>
          <path id="Trazado_1268641" data-name="Trazado 1268641" d="M24.059,241.905l20.262-.036c1.3.1,1.542,1.7.152,1.837h-20.3c-1.277-.119-1.245-1.427-.117-1.8" transform="translate(-19.674 -204.968)" fill="#fff"/>
          <path id="Trazado_1268642" data-name="Trazado 1268642" d="M24.059,281.313l20.262-.036c1.3.1,1.542,1.7.152,1.837h-20.3c-1.277-.119-1.245-1.427-.117-1.8" transform="translate(-19.674 -238.363)" fill="#fff"/>
          <path id="Trazado_1268643" data-name="Trazado 1268643" d="M252.969,250.075a3.609,3.609,0,0,1,3.926,4.688c-.146.44-.61.941-.678,1.305-.124.667.077,1.554-.02,2.268a2.709,2.709,0,0,1-5,1.059c-.633-1.08-.134-2.25-.335-3.327-.107-.572-.83-1.172-.911-2.144a3.662,3.662,0,0,1,3.017-3.849m-.079,8.619a.96.96,0,0,0,1.41-.272c.293-.662-.072-2.132.112-2.94.115-.506.782-.882.877-1.57.329-2.394-3.162-2.756-3.493-.742-.237,1.439.687,1.468.87,2.469.126.691-.149,2.682.225,3.055" transform="translate(-211.808 -211.892)" fill="#fff"/>
        </g>
      </g>
    </g>
  </g>
</svg>
