<svg xmlns="http://www.w3.org/2000/svg" xmlns:xlink="http://www.w3.org/1999/xlink" width="293.289" height="228" viewBox="0 0 293.289 228">
  <defs>
    <clipPath id="clip-path">
      <rect id="Rectángulo_459342" data-name="Rectángulo 459342" width="293" height="228" transform="translate(184.422 6737.594)" fill="#fff" stroke="#707070" stroke-width="1"/>
    </clipPath>
    <clipPath id="clip-path-2">
      <rect id="Rectángulo_459341" data-name="Rectángulo 459341" width="364.233" height="358" fill="none"/>
    </clipPath>
    <clipPath id="clip-path-4">
      <path id="Trazado_1268715" data-name="Trazado 1268715" d="M220.443,42.906q-1.793.025-3.583.074c-16.336.475-33,2.67-48.363,8.491q-3.39,1.285-6.689,2.811c-11.473,5.322-18.837,13.243-24.689,22.6a38.9,38.9,0,0,0-28.088,56.952C98.861,155.912,90.593,179.516,95.037,202.5c6.853,35.445,41.259,59.731,74.393,69.159,59.622,16.964,125.219-13.745,150.08-70.538,15.211-34.748,13.56-76.434-4.351-109.872a90.021,90.021,0,0,0-26.865-31.02,38.881,38.881,0,0,0-67.851-17.324" transform="translate(-93.806 -29.066)" fill="none"/>
    </clipPath>
    <clipPath id="clip-path-5">
      <rect id="Rectángulo_459339" data-name="Rectángulo 459339" width="25.705" height="56.754" fill="none"/>
    </clipPath>
  </defs>
  <g id="Grupo_1208260" data-name="Grupo 1208260" transform="translate(-184.422 -6737.594)">
    <path id="Trazado_1266782" data-name="Trazado 1266782" d="M0,0H292V227.667H0Z" transform="translate(185.711 6737.927)" fill="#fff5d4"/>
    <g id="Enmascarar_grupo_1180270" data-name="Enmascarar grupo 1180270" clip-path="url(#clip-path)">
      <g id="Grupo_1209092" data-name="Grupo 1209092" transform="translate(184.711 6730.594)">
        <g id="Grupo_1209091" data-name="Grupo 1209091" clip-path="url(#clip-path-2)">
          <g id="Grupo_1209083" data-name="Grupo 1209083">
            <g id="Grupo_1209082" data-name="Grupo 1209082" clip-path="url(#clip-path-2)">
              <path id="Trazado_1268657" data-name="Trazado 1268657" d="M168.5,61.028q-3.39,1.285-6.689,2.811c-20.762,9.63-28.08,27.763-37.3,47.516-14.048,30.1-36.161,66.1-29.472,100.7C101.89,247.5,136.3,271.79,169.43,281.218c59.622,16.964,125.219-13.745,150.08-70.538,15.211-34.749,13.56-76.434-4.351-109.872-10.817-20.194-27.844-35.451-49.764-42.548-15.575-5.043-32.171-6.2-48.535-5.722-16.335.475-33,2.67-48.363,8.491" transform="translate(-38.356 -21.442)" fill="#ffe8d4"/>
              <path id="Trazado_1268658" data-name="Trazado 1268658" d="M80.924,126.689c-.935,4.413-1.5,9.015-.519,13.419s3.728,8.61,7.879,10.377c4.812,2.048,10.576.426,14.672-2.825s6.831-7.885,9.276-12.508c4.917-9.3,8.213-24.99-4.925-29.329-14.479-4.782-23.776,8.561-26.383,20.866" transform="translate(-32.667 -42.863)" fill="#ffe8d4"/>
            </g>
          </g>
          <g id="Grupo_1209088" data-name="Grupo 1209088" transform="translate(55.45 17.181)">
            <g id="Grupo_1209087" data-name="Grupo 1209087" clip-path="url(#clip-path-4)">
              <path id="Trazado_1268659" data-name="Trazado 1268659" d="M446.468,183.289H363.982a6.551,6.551,0,0,1-6.551-6.551V139.7a6.55,6.55,0,0,1,6.551-6.551h82.487a6.551,6.551,0,0,1,6.551,6.551v37.039a6.551,6.551,0,0,1-6.551,6.551" transform="translate(-201.6 -71.624)" fill="#eacea9"/>
              <path id="Trazado_1268660" data-name="Trazado 1268660" d="M371.518,178.636V146.8a2.648,2.648,0,0,1,2.648-2.649H447.8a2.648,2.648,0,0,1,2.648,2.648v31.839a2.648,2.648,0,0,1-2.649,2.648H374.166a2.648,2.648,0,0,1-2.648-2.648" transform="translate(-207.36 -76.122)" fill="#fff0e1"/>
              <path id="Trazado_1268661" data-name="Trazado 1268661" d="M209.475,239.373H136.219a6.551,6.551,0,0,1-6.551-6.551v-32.2a6.55,6.55,0,0,1,6.551-6.551h73.256a6.551,6.551,0,0,1,6.551,6.551v32.2a6.551,6.551,0,0,1-6.551,6.551" transform="translate(-108.47 -96.536)" fill="#eacea9"/>
              <path id="Trazado_1268662" data-name="Trazado 1268662" d="M142.4,234.913V206.66a2.648,2.648,0,0,1,2.648-2.648h66.015a2.648,2.648,0,0,1,2.648,2.648v28.253a2.648,2.648,0,0,1-2.648,2.648H145.043a2.648,2.648,0,0,1-2.648-2.648" transform="translate(-113.674 -100.599)" fill="#fff7ee"/>
              <rect id="Rectángulo_459329" data-name="Rectángulo 459329" width="193.851" height="116.598" transform="translate(58.314 152.763)" fill="#eacea9"/>
              <rect id="Rectángulo_459330" data-name="Rectángulo 459330" width="75.617" height="34.06" transform="translate(69.48 165.93)" fill="#fff7ee"/>
              <path id="Trazado_1268663" data-name="Trazado 1268663" d="M275.564,336.53a4.507,4.507,0,1,1-4.507-4.507,4.506,4.506,0,0,1,4.507,4.507" transform="translate(-164.44 -152.942)" fill="#eacea9"/>
              <rect id="Rectángulo_459331" data-name="Rectángulo 459331" width="75.617" height="34.06" transform="translate(160.844 165.93)" fill="#fff7ee"/>
              <path id="Trazado_1268664" data-name="Trazado 1268664" d="M430.127,336.53a4.507,4.507,0,1,1-4.507-4.507,4.507,4.507,0,0,1,4.507,4.507" transform="translate(-227.639 -152.942)" fill="#eacea9"/>
              <rect id="Rectángulo_459332" data-name="Rectángulo 459332" width="75.617" height="34.06" transform="translate(69.48 218.02)" fill="#fff7ee"/>
              <path id="Trazado_1268665" data-name="Trazado 1268665" d="M275.564,424.653a4.507,4.507,0,1,1-4.507-4.507,4.506,4.506,0,0,1,4.507,4.507" transform="translate(-164.44 -188.974)" fill="#eacea9"/>
              <rect id="Rectángulo_459333" data-name="Rectángulo 459333" width="75.617" height="34.06" transform="translate(160.844 218.02)" fill="#fff7ee"/>
              <path id="Trazado_1268666" data-name="Trazado 1268666" d="M430.127,424.653a4.507,4.507,0,1,1-4.507-4.507,4.507,4.507,0,0,1,4.507,4.507" transform="translate(-227.639 -188.974)" fill="#eacea9"/>
              <rect id="Rectángulo_459334" data-name="Rectángulo 459334" width="4.114" height="50.355" transform="translate(78.099 -17.182)" fill="#eacea9"/>
              <path id="Trazado_1268667" data-name="Trazado 1268667" d="M225.111,81.542H211.286s-9.877,35.22-8.886,38.513,27.65,2.632,31.273,0-8.562-38.513-8.562-38.513m-9.257,36.681a54.188,54.188,0,0,1-9.3-.614c.788-5.252,4.231-19.031,7.814-32.009h7.825c5.055,15.291,7.93,27.29,8.1,31.429a72.723,72.723,0,0,1-14.445,1.194" transform="translate(-138.18 -50.523)" fill="#eacea9"/>
              <path id="Trazado_1268668" data-name="Trazado 1268668" d="M227.1,147.04h-5.535a4.577,4.577,0,0,1-4.578-4.577V142.1a4.577,4.577,0,0,1,4.578-4.577H227.1a4.577,4.577,0,0,1,4.577,4.577v.365a4.577,4.577,0,0,1-4.577,4.577" transform="translate(-144.172 -73.412)" fill="#eacea9"/>
              <rect id="Rectángulo_459335" data-name="Rectángulo 459335" width="4.114" height="67.886" transform="translate(123.34 -17.181)" fill="#eacea9"/>
              <path id="Trazado_1268669" data-name="Trazado 1268669" d="M301.646,111.2H287.821s-9.878,35.22-8.886,38.513,27.65,2.632,31.273,0-8.562-38.513-8.562-38.513m-9.257,36.681a54.186,54.186,0,0,1-9.3-.614c.788-5.252,4.231-19.031,7.814-32.009h7.825c5.055,15.291,7.93,27.29,8.1,31.429a72.728,72.728,0,0,1-14.445,1.194" transform="translate(-169.475 -62.65)" fill="#eacea9"/>
              <path id="Trazado_1268670" data-name="Trazado 1268670" d="M303.631,176.7H298.1a4.577,4.577,0,0,1-4.578-4.577v-.365a4.577,4.577,0,0,1,4.578-4.577h5.535a4.577,4.577,0,0,1,4.577,4.577v.365a4.577,4.577,0,0,1-4.577,4.577" transform="translate(-175.466 -85.538)" fill="#eacea9"/>
              <path id="Trazado_1268671" data-name="Trazado 1268671" d="M323.373,142.226a28.331,28.331,0,0,0-5.485,2.253c-1.647,1.1-12.814,32.766-12.814,32.766l13.363,2.929Z" transform="translate(-180.192 -75.336)" fill="#6c848f"/>
              <path id="Trazado_1268672" data-name="Trazado 1268672" d="M316.812,234.606c-1.344,5.235-2.631,9.533-2.631,9.533l-11.975,3.4s-3.434-23.063-2.944-25.75c.3-1.623,1.929-8.53,3.183-13.747.819-3.417,1.472-6.116,1.472-6.116l12.125,2.659s2.989,7.2,3.719,12.811c.4,3.083-1.316,10.837-2.949,17.21" transform="translate(-177.796 -99.747)" fill="#f3a080"/>
              <path id="Trazado_1268673" data-name="Trazado 1268673" d="M319.047,234.606c-1.3-1.935-3.9-19.194-3.9-19.194s-7.164-5.363-10.47-7.37c.819-3.417,1.472-6.116,1.472-6.116l12.125,2.659s2.989,7.2,3.719,12.811c.4,3.083-1.316,10.837-2.949,17.21" transform="translate(-180.031 -99.747)" fill="#ea7c6f"/>
              <path id="Trazado_1268674" data-name="Trazado 1268674" d="M317.7,288.259l34.187-3.945-7.022,85.912,39.9,60.06-19.212,10.845c-14.916-16.609-52.932-58.849-57.071-63.166-2.926-3.052,6.143-64.249,9.214-89.705" transform="translate(-181.352 -133.434)" fill="#6c848f"/>
              <path id="Trazado_1268675" data-name="Trazado 1268675" d="M414.456,499.046l-19.211,10.849c-3.756-4.173-8.959-9.97-14.737-16.381l3.009-41.024Z" transform="translate(-211.035 -202.199)" fill="#51717c"/>
              <path id="Trazado_1268676" data-name="Trazado 1268676" d="M387.38,290.689C383.6,304.758,367,352.557,367,352.557l-6.589,90.033-5.323-.229-17.684-.744c-1.076-25.13-2.791-87.985-1.762-95.022.5-3.275,4.737-44.765,6.925-66.721l32.225-4.818,9.82-1.471c1.19,5.915,2.264,12.07,2.771,17.1" transform="translate(-192.56 -129.047)" fill="#6c848f"/>
              <path id="Trazado_1268677" data-name="Trazado 1268677" d="M401.051,290.689c-3.783,14.069-20.383,61.868-20.383,61.868l-6.589,90.033-5.323-.229,3.829-88.658s15.407-51.049,16.248-54.334c.6-2.411-.015-16.765-.372-24.312l9.82-1.471c1.19,5.915,2.264,12.07,2.771,17.1" transform="translate(-206.23 -129.047)" fill="#51717c"/>
              <path id="Trazado_1268678" data-name="Trazado 1268678" d="M323.025,299.092s14.419,4.607,15.926,4.52,16.059-.43,16.059-.43l27.081-2.063-3.37,11.2L376.171,307l-21.014,1.677-15.9.426-16.874-5.047Z" transform="translate(-187.271 -139.477)" fill="#51717c"/>
              <path id="Trazado_1268679" data-name="Trazado 1268679" d="M382.166,231.829c-.887,1.594-12.766,3.5-25.706,4.432h-.005c-15.431,1.115-32.373.853-33.989-2.955l1.879-24.128,2.074-18.642s-1.773-3.451-4.878-16.847,8.345-33.934,8.345-33.934l3.451-.485.97-.145,1.9-.262,19.072-2.681,6.116,1.622,2.447.647.948.251,7.482,1.99c.039.089,1.728,15.108,3.668,33.181,1.439,13.4,3.016,28.466,4.182,40.39.6,6.132,1.6,13.006,2.046,17.566" transform="translate(-186.704 -72.865)" fill="#6c848f"/>
              <path id="Trazado_1268680" data-name="Trazado 1268680" d="M341.864,140.842c1.353,4.167,5.217,12.276,14.8,12.723.391.019.773.018,1.144.008,9.652-.258,14.123-9.627,15.511-13.3l-.945-.248c-1.407,3.674-5.947,13.025-15.667,12.562-8.868-.417-12.54-7.915-13.869-11.888Z" transform="translate(-195.234 -74.436)" fill="#51717c"/>
              <path id="Trazado_1268681" data-name="Trazado 1268681" d="M322.211,189.941s-5.224-13.013-5.609-15.454,6.671-21.276,6.671-21.276-9.179,18.131-8.932,21.337,7.869,15.393,7.869,15.393" transform="translate(-183.979 -79.827)" fill="#51717c"/>
              <path id="Trazado_1268682" data-name="Trazado 1268682" d="M407.737,143.811s6.839,1.537,10.158,4.044,16.131,29.809,16.131,29.809L408.835,184.8Z" transform="translate(-222.169 -75.984)" fill="#6c848f"/>
              <path id="Trazado_1268683" data-name="Trazado 1268683" d="M348.585,82.236s-.228,24.238-3.962,24.937c-2.657.51-10.328.416-15.694-.9a10.64,10.64,0,0,1-4.9-2.21c-3.25-3.346-1.367-26.213-1.068-29.707a6.028,6.028,0,0,1,.378-1.595,14.588,14.588,0,0,1,4.033-5.133Z" transform="translate(-187.173 -44.835)" fill="#38102b"/>
              <path id="Trazado_1268684" data-name="Trazado 1268684" d="M328.93,109.827a10.639,10.639,0,0,1-4.9-2.21c-3.25-3.345-1.367-26.213-1.068-29.707a6.032,6.032,0,0,1,.378-1.595c1.407,5.588,1.61,11.489,2.075,17.266.46,5.537,1.258,11.241,3.515,16.246" transform="translate(-187.173 -48.386)" fill="#4a0e2f"/>
              <path id="Trazado_1268685" data-name="Trazado 1268685" d="M350.569,136.9l-4.9,1.224s5.133,9.767,12.59,8.367,15.044-9.028,15.044-9.028l-6.746-2.749-10.943-.547Z" transform="translate(-196.791 -72.041)" fill="#f3a080"/>
              <path id="Trazado_1268686" data-name="Trazado 1268686" d="M369.832,124.826s-10.278,3.807-11.963,3.376-4.027-1.19-4.027-1.19c.294-.451,2.165-4.546,1.913-5.8a54.745,54.745,0,0,0-2.079-6.834l9.418-4.4s.7,2.754,1.578,5.654c.887,2.938,4.492,8.8,5.16,9.19" transform="translate(-200.064 -62.152)" fill="#f3a080"/>
              <path id="Trazado_1268687" data-name="Trazado 1268687" d="M364.667,115.634c-2.474,2.289-5.523,5.013-6.563,5.494a3.2,3.2,0,0,1-2.348.088,55.048,55.048,0,0,0-2.084-6.83l9.418-4.4s.7,2.756,1.578,5.647" transform="translate(-200.063 -62.154)" fill="#ea7c6f"/>
              <path id="Trazado_1268688" data-name="Trazado 1268688" d="M355.285,59.355a17.286,17.286,0,0,0-21.819-1.639,8.677,8.677,0,0,0-3.166,3.542c-1.835,4.93-3.334,22.516,1.114,30.422s9.951,6.175,11.892,5.38,10.936-5.714,12.787-9.014,4.839-19.631,3.363-23.648c-.493-1.342-2.163-3.184-4.17-5.043" transform="translate(-189.769 -39.499)" fill="#f8bf92"/>
              <path id="Trazado_1268689" data-name="Trazado 1268689" d="M356.148,57.139a17.286,17.286,0,0,0-21.82-1.639,8.675,8.675,0,0,0-3.165,3.542c-1.836,4.93-3.335,22.516,1.114,30.422s9.951,6.175,11.891,5.38,10.936-5.714,12.788-9.014,4.838-19.631,3.363-23.648c-.494-1.342-2.163-3.184-4.17-5.043" transform="translate(-190.122 -38.593)" fill="#f3a080"/>
              <path id="Trazado_1268690" data-name="Trazado 1268690" d="M343.589,100.123a2.951,2.951,0,0,1,1.3-.057,4.2,4.2,0,0,1-2.7,1.67.612.612,0,0,1-.249,0,.62.62,0,0,1-.257-.164,4.927,4.927,0,0,1-1.138-1.562.95.95,0,0,1-.109-.376c-.008-.435.257-.283.482-.132a3.927,3.927,0,0,0,2.671.617" transform="translate(-194.651 -57.805)" fill="#ea7c6f"/>
              <path id="Trazado_1268691" data-name="Trazado 1268691" d="M341.816,96.291c-.2-.28-.446-.533-.657-.809a6.579,6.579,0,0,1-.683-1.086c1.546-.635,1.837-2.043,2.117-3.65a4.753,4.753,0,0,0-.933-3.725,1.7,1.7,0,0,0-.41-.359c.062.112.1.235.149.348a9.059,9.059,0,0,1,.4.89,5.89,5.89,0,0,1,.245.959,5.79,5.79,0,0,1-.007,1.973,4.777,4.777,0,0,1-.707,1.8,3.761,3.761,0,0,1-1.723,1.445c-.006,0,.687,1.27.758,1.377a4.946,4.946,0,0,0,.632.767,1.726,1.726,0,0,0,.829.556.548.548,0,0,0,.312-.024,1.062,1.062,0,0,1-.13-.161c-.017-.025-.033-.051-.048-.077-.046-.076-.1-.15-.148-.222" transform="translate(-194.313 -52.616)" fill="#dd5b67"/>
              <path id="Trazado_1268692" data-name="Trazado 1268692" d="M375.186,94.766c.477-.293,2.669-3.872,4.654-2.033s2.8,5.127,1.314,7.171c-1.358,1.865-3.3,3.926-5.976,3.528Z" transform="translate(-208.856 -54.885)" fill="#b77158"/>
              <path id="Trazado_1268693" data-name="Trazado 1268693" d="M380.943,96.781a2.544,2.544,0,0,1,.026,1.357c-.413,1.922-2.035,3.508-3.591,4.985a4.95,4.95,0,0,0,.319-2.978c-.068-.343-.17-.682-.205-1.029-.142-1.4,2.574-4.907,3.451-2.335" transform="translate(-209.756 -56.379)" fill="#c7806d"/>
              <path id="Trazado_1268694" data-name="Trazado 1268694" d="M376.036,103.725l.09-.066c.057-.045.151-.105.255-.2a3.918,3.918,0,0,0,.755-.872,3.706,3.706,0,0,0,.544-1.545,3.293,3.293,0,0,0-.392-1.942,1.806,1.806,0,0,0-.145-.233l-.039-.057,0-.007v0h0s0,0,0-.011l.022-.056.047-.111c.032-.074.063-.147.1-.219a8.435,8.435,0,0,1,.435-.816c.154-.255.316-.491.478-.709a4.912,4.912,0,0,1,.482-.574,1.152,1.152,0,0,1,.52-.306.813.813,0,0,1,.47.039.453.453,0,0,1,.224.18.388.388,0,0,1,.038.091.246.246,0,0,0-.015-.1.445.445,0,0,0-.2-.238.908.908,0,0,0-.546-.129,1.423,1.423,0,0,0-.7.285,4.684,4.684,0,0,0-.608.559,7.282,7.282,0,0,0-.586.7,6.741,6.741,0,0,0-.524.842c-.04.075-.077.152-.115.23l-.054.118-.071.166-.048.116a1.2,1.2,0,0,0,.068.105l.1.151a1.589,1.589,0,0,1,.124.2,3.476,3.476,0,0,1,.431,1.709,3.884,3.884,0,0,1-.313,1.457,4.092,4.092,0,0,1-.554.919c-.08.1-.156.177-.2.231l-.072.081" transform="translate(-209.207 -56.372)" fill="#89503d"/>
              <path id="Trazado_1268695" data-name="Trazado 1268695" d="M329.774,81.272s2.284-2.168,3.85-2.179,2.178,1.363,1.6,1.708-5.447.472-5.447.472" transform="translate(-190.291 -49.521)" fill="#4a0e2f"/>
              <path id="Trazado_1268696" data-name="Trazado 1268696" d="M363.753,81.069s-3.486-3.279-5.889-3.82-3.355.843-2.464,1.438,8.353,2.382,8.353,2.382" transform="translate(-200.635 -48.717)" fill="#4a0e2f"/>
              <path id="Trazado_1268697" data-name="Trazado 1268697" d="M359.245,98.93c.174.727,1.871.946,3.792.488S366.375,98,366.2,97.27s-1.871-.945-3.792-.487-3.337,1.419-3.164,2.146" transform="translate(-202.335 -56.657)" fill="#ea7c6f"/>
              <path id="Trazado_1268698" data-name="Trazado 1268698" d="M326.472,97.226c-.188.534.965,1.426,2.575,1.992s3.067.591,3.255.056-.965-1.426-2.575-1.991-3.067-.591-3.255-.057" transform="translate(-188.933 -56.779)" fill="#ea7c6f"/>
              <path id="Trazado_1268699" data-name="Trazado 1268699" d="M358.7,83.958a3.308,3.308,0,0,1-1.559,1.489,1.4,1.4,0,0,0-1.07-.479c-.99.054-1.722,1.388-1.635,2.979s.961,2.836,1.952,2.782,1.723-1.388,1.636-2.979a4.324,4.324,0,0,0-.288-1.35,5.312,5.312,0,0,0,.965-2.441" transform="translate(-200.373 -51.511)" fill="#1d1e1e"/>
              <path id="Trazado_1268700" data-name="Trazado 1268700" d="M331.146,86.682a2.665,2.665,0,0,0,1.422,1,1.125,1.125,0,0,1,.794-.511c.8-.077,1.539.9,1.662,2.173s-.422,2.374-1.217,2.451-1.539-.9-1.662-2.174a3.468,3.468,0,0,1,.066-1.109,4.274,4.274,0,0,1-1.064-1.827" transform="translate(-190.852 -52.625)" fill="#1d1e1e"/>
              <path id="Trazado_1268701" data-name="Trazado 1268701" d="M333.29,91.007a2.232,2.232,0,0,1-2.823-.793,2.234,2.234,0,0,1,2.823.793" transform="translate(-190.574 -53.985)" fill="#fff"/>
              <path id="Trazado_1268702" data-name="Trazado 1268702" d="M357.564,89.775a2.773,2.773,0,0,0,3.318-1.5,2.773,2.773,0,0,0-3.318,1.5" transform="translate(-201.654 -53.236)" fill="#fff"/>
              <path id="Trazado_1268703" data-name="Trazado 1268703" d="M374.843,90.579s-3.877,1.86-8.023,3.6c-.266.1-.53.219-.8.323a41.823,41.823,0,0,1-8.176,2.419A18.462,18.462,0,0,1,353,81a27.734,27.734,0,0,1,4.646-11.225,19.164,19.164,0,0,1-5-11.887,61.245,61.245,0,0,1-17.38,5.478,13.292,13.292,0,0,1-6.894-.268,22.783,22.783,0,0,1-.987-4.368,6.032,6.032,0,0,1,.219-2.8c.931-2.194,10.409-9.642,17.11-10.408,0,0,12.739,2.9,17.224,8.533,0,0,5.109,2.542,7.174,5.394s5.74,31.128,5.74,31.128" transform="translate(-189.286 -35.795)" fill="#38102b"/>
              <path id="Trazado_1268704" data-name="Trazado 1268704" d="M374.367,87.07c.294,2.148.476,3.508.476,3.508s-3.878,1.86-8.024,3.6a20.124,20.124,0,0,1-5.982-9.916,25.009,25.009,0,0,1,2.345-17.519,16.4,16.4,0,0,1-8.773-14.806,83.847,83.847,0,0,1-14.115,5.448,41.272,41.272,0,0,1-12.918,1.354,6.043,6.043,0,0,1,.219-2.8c.39-.917,2.275-2.748,4.822-4.63,3.548-2.623,8.388-5.335,12.287-5.778a57.722,57.722,0,0,1,8.546,2.809,36.546,36.546,0,0,1,3.982,1.947,16.638,16.638,0,0,1,4.7,3.777s5.109,2.543,7.174,5.4c1.6,2.225,4.2,19.952,5.264,27.619" transform="translate(-189.286 -35.795)" fill="#4a0e2f"/>
              <path id="Trazado_1268705" data-name="Trazado 1268705" d="M348.234,45.523a57.746,57.746,0,0,1,8.546,2.809,36.773,36.773,0,0,1-4.146,2.007,27,27,0,0,1-16.688.962c3.548-2.623,8.388-5.335,12.288-5.778" transform="translate(-192.815 -35.795)" fill="#5f1234"/>
              <path id="Trazado_1268706" data-name="Trazado 1268706" d="M395.062,90.359a23.05,23.05,0,0,1-5.555-5.46c-3.814-5.347-5.019-12.71-2.278-18.686a17.587,17.587,0,0,1-9.3-12.646,16.638,16.638,0,0,1,4.7,3.777s5.109,2.543,7.174,5.4c1.6,2.225,4.2,19.952,5.264,27.619" transform="translate(-209.98 -39.085)" fill="#5f1234"/>
              <path id="Trazado_1268707" data-name="Trazado 1268707" d="M444.808,238.788c-.249,1.111-18.2,22.622-18.2,22.622l-7.537-9.254L428,236.389l-7.029-22.3-2.132-6.767,16.373-4.63s.7,2.47,1.713,6.128c2.81,10.083,8.069,29.144,7.885,29.964" transform="translate(-226.708 -100.061)" fill="#f3a080"/>
              <path id="Trazado_1268708" data-name="Trazado 1268708" d="M436.923,208.823l-15.953,5.269-2.133-6.766,16.373-4.63s.7,2.469,1.712,6.127" transform="translate(-226.708 -100.061)" fill="#ea7c6f"/>
              <path id="Trazado_1268709" data-name="Trazado 1268709" d="M329.468,413.273s-2.068-39.232-1.124-41.962,9.909-42.459,9.909-42.459l-8.348-1.493,4.072,5.287s-7.664,35.328-8.2,37.774,3.69,42.852,3.69,42.852" transform="translate(-188.638 -151.035)" fill="#51717c"/>
              <path id="Trazado_1268710" data-name="Trazado 1268710" d="M367,182.723l.325,12.138,19.11-.512-.833-12.124Z" transform="translate(-205.511 -91.691)" fill="#e0e0e0"/>
              <path id="Trazado_1268711" data-name="Trazado 1268711" d="M379.279,179.269c0,.12.108,4.03.108,4.03l3.529-.095-.1-3.719Z" transform="translate(-210.533 -90.482)" fill="#1d1e1e"/>
              <rect id="Rectángulo_459336" data-name="Rectángulo 459336" width="15.729" height="1.045" transform="translate(163.122 94.652) rotate(-1.535)" fill="#eacea9"/>
              <rect id="Rectángulo_459337" data-name="Rectángulo 459337" width="15.729" height="1.045" transform="translate(163.182 96.898) rotate(-1.535)" fill="#eacea9"/>
              <rect id="Rectángulo_459338" data-name="Rectángulo 459338" width="15.729" height="1.045" transform="translate(163.182 99.539) rotate(-1.535)" fill="#eacea9"/>
              <path id="Trazado_1268712" data-name="Trazado 1268712" d="M406.376,152.993s-3.629,4.366-4.493,7.874,5.393,25.729,5.393,25.729-9.565-22.132-8.469-25.123,7.569-8.479,7.569-8.479" transform="translate(-218.482 -79.738)" fill="#51717c"/>
              <path id="Trazado_1268713" data-name="Trazado 1268713" d="M339.967,107.825l11-2.78s.261,5.134-3.082,6.262c-6.672,2.252-7.918-3.482-7.918-3.482" transform="translate(-194.459 -60.133)" fill="#fff"/>
              <g id="Grupo_1209086" data-name="Grupo 1209086" transform="translate(169.756 106.643)" opacity="0.67" style="mix-blend-mode: soft-light;isolation: isolate">
                <g id="Grupo_1209085" data-name="Grupo 1209085" transform="translate(0)">
                  <g id="Grupo_1209084" data-name="Grupo 1209084" clip-path="url(#clip-path-5)">
                    <path id="Trazado_1268714" data-name="Trazado 1268714" d="M406.693,261.8c-.887,1.594-12.766,3.5-25.706,4.432,6.629-3.368,17.477-9.254,19.038-12.516,2.275-4.75-.1-44.238-.1-44.238l1.274,1.237c1.439,13.4,2.282,21.594,3.447,33.518.6,6.132,1.6,13.006,2.046,17.566" transform="translate(-380.988 -209.477)" fill="#2e2d32"/>
                  </g>
                </g>
              </g>
            </g>
          </g>
          <g id="Grupo_1209090" data-name="Grupo 1209090">
            <g id="Grupo_1209089" data-name="Grupo 1209089" clip-path="url(#clip-path-2)">
              <path id="Trazado_1268716" data-name="Trazado 1268716" d="M237.643,204.09,252.9,183.6l8.377,11.489Z" transform="translate(-97.169 -75.073)" fill="#2e2d32"/>
              <path id="Trazado_1268717" data-name="Trazado 1268717" d="M220.28,206.661l-4.828-15.305,8.822-.523Z" transform="translate(-88.096 -78.03)" fill="#2e2d32"/>
              <path id="Trazado_1268718" data-name="Trazado 1268718" d="M242.525,234.388l16.741-3.149.758,8.073Z" transform="translate(-99.166 -94.551)" fill="#2e2d32"/>
              <path id="Trazado_1268719" data-name="Trazado 1268719" d="M385.341,446.3H363.405l-26.346-49.358H125.92L98.652,446.3H74.967L110.8,385.727H354.332Z" transform="translate(-30.653 -157.72)" fill="#1e1d21"/>
              <path id="Trazado_1268720" data-name="Trazado 1268720" d="M136.607,376.955H411.97a5.764,5.764,0,0,0,5.764-5.764v-3.327a5.764,5.764,0,0,0-5.764-5.764H136.607a5.764,5.764,0,0,0-5.764,5.764v3.327a5.764,5.764,0,0,0,5.764,5.764" transform="translate(-53.5 -148.059)" fill="#2e2d32"/>
              <path id="Trazado_1268721" data-name="Trazado 1268721" d="M89.776,317.376,12.714,251.619a6.283,6.283,0,0,0-8.857.7L1.5,255.079a6.281,6.281,0,0,0,.7,8.856l77.063,65.757a6.281,6.281,0,0,0,8.856-.7l2.354-2.758a6.282,6.282,0,0,0-.7-8.857" transform="translate(0 -102.27)" fill="#2e2d32"/>
              <path id="Trazado_1268722" data-name="Trazado 1268722" d="M504.933,335.919l-3.378,9.175-.969,2.619-13.79-2.529,1.007-4.7,2.09-9.785Z" transform="translate(-199.046 -135.22)" fill="#f3a080"/>
              <path id="Trazado_1268723" data-name="Trazado 1268723" d="M522.876,346.148c1.458-.352,5.323-1.339,5.71-4.484s1.095-3.409,3.317-5.75,6.585-12.472,6.585-12.472,1.287-2.043,1.925-2.814.969-7.461,1.3-8.09c.125-.222-.425-.649-1.182-1.036-1.324-.68-3.288-1.221-3.442-.281a4.9,4.9,0,0,1-.11.505c-.45,1.8-2.039,5.653-3.968,7.225-2.1,1.721-13.969,8.618-18.534,8.8l-4.341,11.789c2.606,2.2,11.547,6.886,12.742,6.609" transform="translate(-208.588 -127.049)" fill="#f3a080"/>
              <path id="Trazado_1268724" data-name="Trazado 1268724" d="M522.876,346.148c1.458-.352,5.323-1.339,5.71-4.484s1.095-3.409,3.317-5.75,6.585-12.472,6.585-12.472,1.287-2.043,1.925-2.814.969-7.461,1.3-8.09c.125-.222-.425-.649-1.182-1.036-1.324-.68-3.288-1.221-3.442-.281a4.9,4.9,0,0,1-.11.505c.988,2.056,2.5,5.772,1.668,7.8-1.206,2.9-11.5,13.232-11.9,16.5s-.711,5.565-1.418,6.032-14.225-5.141-14.225-5.141l-.966,2.622c2.606,2.2,11.547,6.886,12.742,6.609" transform="translate(-208.588 -127.049)" fill="#ea7c6f"/>
              <path id="Trazado_1268725" data-name="Trazado 1268725" d="M518.244,352.955c.691-.93-2.188.906-3.279.518a4.769,4.769,0,0,1-2.559-2.273,9.737,9.737,0,0,0-5.44-1.653s4.444,1.626,4.79,2.745c0,0,3.2,5.082,6.488.663" transform="translate(-207.293 -142.921)" fill="#b54b57"/>
              <path id="Trazado_1268726" data-name="Trazado 1268726" d="M501.556,351.862l-.969,2.619L486.8,351.952l1.007-4.7Z" transform="translate(-199.046 -141.989)" fill="#ea7c6f"/>
              <path id="Trazado_1268727" data-name="Trazado 1268727" d="M247.189,284.918s48.828,3,54.858,2.641,90.64,18.058,90.64,18.058L383.7,334.259l-68.568-18.341-77.553-1.659Z" transform="translate(-97.145 -116.5)" fill="#a52c26"/>
              <path id="Trazado_1268728" data-name="Trazado 1268728" d="M478.186,441.483l-8.332,5.115-2.382,1.457-9.266-10.522,3.7-3.065,7.7-6.392Z" transform="translate(-187.356 -175.036)" fill="#f3a080"/>
              <path id="Trazado_1268729" data-name="Trazado 1268729" d="M479.807,470.41c1.363.625,5.009,2.243,7.26.012s2.97-2,6.165-2.463,12.892-5.72,12.892-5.72,2.275-.807,3.254-1.019,5.38-5.26,6.026-5.551c.235-.1.068-.773-.288-1.545-.619-1.354-1.826-2.995-2.528-2.351a4.88,4.88,0,0,1-.4.328c-1.471,1.138-5.1,3.178-7.587,3.219-2.716.052-16.306-1.877-20-4.56l-10.706,6.572c.684,3.342,4.807,12.556,5.917,13.078" transform="translate(-193.768 -184.311)" fill="#f3a080"/>
              <path id="Trazado_1268730" data-name="Trazado 1268730" d="M479.807,471.011c1.363.625,5.009,2.243,7.26.012s2.97-2,6.165-2.463,12.892-5.72,12.892-5.72,2.275-.807,3.254-1.018,5.38-5.26,6.026-5.551c.235-.1.068-.773-.288-1.544-.619-1.354-1.826-2.995-2.528-2.352a4.855,4.855,0,0,1-.4.328c-.5,2.227-1.608,6.082-3.518,7.16-2.741,1.529-17.224,3.273-19.562,5.592s-4,3.931-4.847,3.861-7.99-12.844-7.99-12.844l-2.381,1.462c.684,3.342,4.807,12.556,5.917,13.078" transform="translate(-193.768 -184.912)" fill="#ea7c6f"/>
              <path id="Trazado_1268731" data-name="Trazado 1268731" d="M484.29,461.783c1.119-.3-2.279-.643-2.9-1.623a4.766,4.766,0,0,1-.6-3.369,9.741,9.741,0,0,0-3.249-4.666s2.483,4.028,2.063,5.121c0,0-.63,5.974,4.685,4.537" transform="translate(-195.262 -184.869)" fill="#b54b57"/>
              <path id="Trazado_1268732" data-name="Trazado 1268732" d="M469.854,451.02l-2.382,1.457-9.266-10.522,3.7-3.065Z" transform="translate(-187.355 -179.457)" fill="#ea7c6f"/>
              <path id="Trazado_1268733" data-name="Trazado 1268733" d="M380.587,375.524l-13.979,11.065-10.151,8.03L307.465,339.4s-39.547,1.447-56.974.784c-15.969-1.98-26.23-3.588-26.23-3.588l4.945-8.281,12.883-21.541s67.728,5.973,77.657,7.983,60.842,60.762,60.842,60.762" transform="translate(-91.698 -125.439)" fill="#bf392e"/>
              <path id="Trazado_1268734" data-name="Trazado 1268734" d="M366.608,401.489l-10.151,8.03-48.993-55.214s-39.547,1.447-56.974.784c-15.969-1.98-26.23-3.588-26.23-3.588l4.945-8.281a356.136,356.136,0,0,0,76.9,6.06,13.273,13.273,0,0,1,.855-4.593c.281-.724.854-1.537,1.618-1.377.593.121.894.784,1.055,1.367a14.632,14.632,0,0,1,.522,4.894,10.834,10.834,0,0,1,5.749-1.387c.533.02,1.176.151,1.377.643.221.523-.171,1.075-.533,1.507-.9,1.055-1.809,2.12-2.713,3.176a282.445,282.445,0,0,0,52.571,47.978" transform="translate(-91.698 -140.339)" fill="#a52c26"/>
              <path id="Trazado_1268735" data-name="Trazado 1268735" d="M197.818,236.209s7.1,3.764,9.031,8.622,6.885,19.522,6.885,19.522l-14.657,3.152-7.52-9.566Z" transform="translate(-78.326 -96.583)" fill="#ebd8cc"/>
              <path id="Trazado_1268736" data-name="Trazado 1268736" d="M129.821,219.685s-12.992,5.06-16.007,7.741,1.465,48.349,17.983,65.759c12.665,13.349,63.286,13.639,63.286,13.639L208.321,259.2s-19.549-4.629-34.878-2.759c0,0-.213-4.814-3.456-5.568s-5-1-5-1,.2-12.629.686-20.418l-6.84-4.807Z" transform="translate(-46.179 -89.827)" fill="#ebd8cc"/>
              <path id="Trazado_1268737" data-name="Trazado 1268737" d="M170.51,223.324c-1.37,3.967-4.26,8.345-10.36,9.259-9.28,1.387-16.21-9.66-18.65-14.22,2.043-1.049,4.02-1.91,4.964-1.91,0,0,13.3.091,24.046,6.871" transform="translate(-57.857 -88.505)" fill="#f3a080"/>
              <path id="Trazado_1268738" data-name="Trazado 1268738" d="M149.852,205.481c.349.349,15.659,11.678,15.659,11.678s-.352-6.979-.52-10.615c-.048-1.126-.083-1.931-.083-2.109,0-1.454,1.241-7.749,1.241-7.749L150.7,189.62s-.244,3.186-.481,6.7c-.286,4.242-.557,8.966-.366,9.157" transform="translate(-61.246 -77.533)" fill="#f3a080"/>
              <path id="Trazado_1268739" data-name="Trazado 1268739" d="M150.515,196.324c4.291,3.116,13.745,9.935,14.69,10.2a.7.7,0,0,0,.083.017c-.048-1.126-.083-1.931-.083-2.109,0-1.454,1.241-7.749,1.241-7.749L151,189.62s-.244,3.187-.481,6.7" transform="translate(-61.544 -77.533)" fill="#ea7c6f"/>
              <path id="Trazado_1268740" data-name="Trazado 1268740" d="M147.428,167.047a7.341,7.341,0,0,0,2.113,2.642h0a15.265,15.265,0,0,0,1.237.987c1.813,1.3,18.783,8.572,21.4,8.224s5.079-9.332,5.215-10.278c.84-5.8,3.152-23.711,3.152-23.711-6.449-19.522-29.457-9.412-32.071-7.5s-1.046,29.631-1.046,29.631" transform="translate(-60.091 -54.421)" fill="#f3a080"/>
              <path id="Trazado_1268741" data-name="Trazado 1268741" d="M184,182.073l-.546-1.73a6.753,6.753,0,0,1-3.63-2.2,5.177,5.177,0,0,0-.438,1.332,1.93,1.93,0,0,0,.257,1.351,2.408,2.408,0,0,0,1.033.774,5.989,5.989,0,0,0,3.324.471" transform="translate(-73.337 -72.842)" fill="#ea7c6f"/>
              <path id="Trazado_1268742" data-name="Trazado 1268742" d="M179.451,176.255a4.453,4.453,0,0,0,.443.438,5.337,5.337,0,0,0,1.472.894,5.5,5.5,0,0,0,1.166.333,5.417,5.417,0,0,0,1.757.009l.164-.017c.023-.005.064,0,.073-.014l-.025-.069-.1-.279c-.072-.191-.144-.385-.218-.58-.044-.115-.064-.178-.079-.228l-.053-.173-.11-.349a14.714,14.714,0,0,1-.33-1.487,13.943,13.943,0,0,1,.137-5.351,13.643,13.643,0,0,1,.458-1.6l.218-.579-.338.521a9.789,9.789,0,0,0-.747,1.534,10.7,10.7,0,0,0-.572,5.618,10.887,10.887,0,0,0,.392,1.588l.253.668c.015.039.1.149.074.159a3.117,3.117,0,0,1-.885.047,5.891,5.891,0,0,1-1.1-.158,6.02,6.02,0,0,1-1.527-.6,6.127,6.127,0,0,1-.521-.329" transform="translate(-73.376 -68.367)" fill="#dd5b67"/>
              <path id="Trazado_1268743" data-name="Trazado 1268743" d="M151.331,194.265a15.181,15.181,0,0,0,1.238.987c1.812,1.3,18.783,8.572,21.4,8.224s5.078-9.333,5.214-10.278c-1.628,3.946-3.468,9.4-5.319,9.228-2.789-.261-20.47-7.077-22.53-8.161" transform="translate(-61.878 -78.996)" fill="#f8bf92"/>
              <path id="Trazado_1268744" data-name="Trazado 1268744" d="M194.589,160.514s-3.125-4.183-4.868-2.528-.959,1.83-.959,1.83Z" transform="translate(-77.111 -64.441)" fill="#f3803d"/>
              <path id="Trazado_1268745" data-name="Trazado 1268745" d="M164.217,167.036c0,1.8.91,3.265,2.033,3.265s2.033-1.462,2.033-3.265-.91-3.265-2.033-3.265-2.033,1.462-2.033,3.265" transform="translate(-67.147 -66.964)" fill="#1d1e1e"/>
              <path id="Trazado_1268746" data-name="Trazado 1268746" d="M160.931,166.147a4.185,4.185,0,0,0,4.488,1.816,4.184,4.184,0,0,0-4.488-1.816" transform="translate(-65.803 -67.897)" fill="#fef1e8"/>
              <path id="Trazado_1268747" data-name="Trazado 1268747" d="M194.624,169.664c0,1.36-.686,2.461-1.533,2.461s-1.533-1.1-1.533-2.461.686-2.461,1.533-2.461,1.533,1.1,1.533,2.461" transform="translate(-78.326 -68.367)" fill="#1d1e1e"/>
              <path id="Trazado_1268748" data-name="Trazado 1268748" d="M196.761,169.325a3.383,3.383,0,0,1-3.193,1.292,3.383,3.383,0,0,1,3.193-1.292" transform="translate(-79.148 -69.223)" fill="#fef1e8"/>
              <path id="Trazado_1268749" data-name="Trazado 1268749" d="M194.157,182.171c.268.715,1.811.8,3.448.184s2.747-1.688,2.479-2.4-1.811-.8-3.448-.184-2.747,1.689-2.479,2.4" transform="translate(-79.373 -73.337)" fill="#ea7c6f"/>
              <path id="Trazado_1268750" data-name="Trazado 1268750" d="M159.331,177.7c-.279,1.078,1.5,2.47,3.964,3.11s4.7.284,4.975-.794-1.5-2.47-3.964-3.11-4.7-.284-4.975.794" transform="translate(-65.137 -72.207)" fill="#ea7c6f"/>
              <path id="Trazado_1268751" data-name="Trazado 1268751" d="M145.846,181.274a10.644,10.644,0,0,1-7.4-4.085,8.427,8.427,0,0,1-.737-1.1c-1-1.81-1.285-8.088,1.285-9.547,1.8-1.02,3.112.461,3.735,1.441v0a5.943,5.943,0,0,1,.407.742Z" transform="translate(-56.012 -67.957)" fill="#f8bf92"/>
              <path id="Trazado_1268752" data-name="Trazado 1268752" d="M146.142,181.684a10.644,10.644,0,0,1-7.4-4.085q-.176-.265-.309-.506c-1-1.81-1.285-8.088,1.285-9.545a2.467,2.467,0,0,1,3.307.847v0a5.947,5.947,0,0,1,.407.742Z" transform="translate(-56.308 -68.368)" fill="#f3a080"/>
              <path id="Trazado_1268753" data-name="Trazado 1268753" d="M178.546,135.445a13.74,13.74,0,0,1-4.011,8.251,15,15,0,0,0-.582-3.427,4.746,4.746,0,0,0-2.211-2.442c-1.146-.533-2.492-.412-3.709-.764-3.005-.854-4.724-4.331-7.758-5.1-2.473-.623-4.955.754-7.468,1.237a10.915,10.915,0,0,1-6.673-.895l-3.166,19.236-.994-3.457c-2.252-2.562-5.72-.7-5.72-.7s-.924-3.879-1.547-8.341c-.654-4.663-.985-9.96.381-12.19,2.684-4.352,4.975-3.93,4.975-3.93a18.238,18.238,0,0,1,8.653-6.3,24.537,24.537,0,0,1,10.031-.7,26.231,26.231,0,0,1,12.421,4.512,17.891,17.891,0,0,1,7.256,10.854,13.117,13.117,0,0,1,.121,4.161" transform="translate(-54.849 -47.311)" fill="#cc4f29"/>
              <path id="Trazado_1268754" data-name="Trazado 1268754" d="M178.548,135.445a10.472,10.472,0,0,0-5.217-2.261c-2.019-.261-4.251.03-5.939-1.116-1.6-1.075-2.231-3.125-3.608-4.462-1.778-1.729-4.522-2.041-6.975-1.669s-4.794,1.277-7.246,1.649-5.426.281-7.205-1.438a22.363,22.363,0,0,1-1.236,12.452,15.865,15.865,0,0,0-6.412.442,50.261,50.261,0,0,1-.563-7.126,10.6,10.6,0,0,1,.944-5.065c2.684-4.352,4.975-3.93,4.975-3.93a18.238,18.238,0,0,1,8.653-6.3,24.537,24.537,0,0,1,10.031-.7,26.231,26.231,0,0,1,12.421,4.512,18.935,18.935,0,0,1,5.77,6.613,15.593,15.593,0,0,1,1.487,4.241,13.116,13.116,0,0,1,.121,4.161" transform="translate(-54.851 -47.311)" fill="#f3803d"/>
              <path id="Trazado_1268755" data-name="Trazado 1268755" d="M176.94,127.043a12.544,12.544,0,0,0-1.94-.09c-2.472.07-5.115.693-7.326-.422-2.03-1.035-3.145-3.287-4.995-4.623-2.191-1.578-5.156-1.658-7.778-1.035a69.577,69.577,0,0,0-7.608,2.773c-2.533.915-5.337,1.488-7.93.713a24.026,24.026,0,0,1-.3,7.679,12.27,12.27,0,0,0-4.915-.121,10.591,10.591,0,0,1,.945-5.065c2.684-4.352,4.975-3.93,4.975-3.93a18.238,18.238,0,0,1,8.653-6.3,24.533,24.533,0,0,1,10.03-.7,26.23,26.23,0,0,1,12.422,4.513,18.914,18.914,0,0,1,5.769,6.613" transform="translate(-54.851 -47.311)" fill="#f9a050"/>
              <path id="Trazado_1268756" data-name="Trazado 1268756" d="M138.966,174.437a2.691,2.691,0,0,0,.118,1.52c.7,2.107,2.806,3.715,4.82,5.207a5.283,5.283,0,0,1-.706-3.3c.043-.391.127-.78.131-1.172.015-1.579-3.6-5.225-4.364-2.256" transform="translate(-56.796 -70.864)" fill="#ea7c6f"/>
              <path id="Trazado_1268757" data-name="Trazado 1268757" d="M145.317,181.741l-.115-.064c-.073-.045-.191-.1-.325-.194a4.566,4.566,0,0,1-.994-.9,4.051,4.051,0,0,1-.818-1.673,3.5,3.5,0,0,1,.254-2.213,1.966,1.966,0,0,1,.147-.276l.04-.067c.01-.017,0-.006.005-.008v0h0s0,0-.005-.011l-.034-.06-.067-.12c-.047-.079-.092-.158-.141-.235a9.4,9.4,0,0,0-.607-.868c-.212-.269-.43-.517-.647-.744a5.716,5.716,0,0,0-.637-.593,1.41,1.41,0,0,0-.651-.288,1.037,1.037,0,0,0-.554.092.534.534,0,0,0-.248.224.466.466,0,0,0-.035.106.262.262,0,0,1,.006-.112.5.5,0,0,1,.207-.287,1.129,1.129,0,0,1,.636-.2,1.769,1.769,0,0,1,.864.246,5.6,5.6,0,0,1,.784.562,8.444,8.444,0,0,1,.774.726,7.662,7.662,0,0,1,.716.888c.056.08.109.163.162.246l.077.126.1.179.072.125c-.018.042-.047.083-.07.125l-.1.178a1.662,1.662,0,0,0-.125.241,3.692,3.692,0,0,0-.326,1.957,4.184,4.184,0,0,0,.533,1.6,4.642,4.642,0,0,0,.76.971c.108.108.206.181.265.238l.1.083" transform="translate(-57.197 -70.841)" fill="#b54b57"/>
              <path id="Trazado_1268758" data-name="Trazado 1268758" d="M167.989,155.28a3.446,3.446,0,0,1-1.8,1.333,5.355,5.355,0,0,1-6.083-2.019,5.436,5.436,0,0,0,5.638-.82,5.1,5.1,0,0,1,1.029-.808c1.582-.772,1.808,1.364,1.211,2.314" transform="translate(-65.468 -62.479)" fill="#f3803d"/>
              <path id="Trazado_1268759" data-name="Trazado 1268759" d="M178.378,196.038a6.015,6.015,0,0,0,4.942-.83,2.586,2.586,0,0,1-2.006,1.658,4.274,4.274,0,0,1-2.935-.828" transform="translate(-72.937 -79.818)" fill="#dd5b67"/>
              <path id="Trazado_1268760" data-name="Trazado 1268760" d="M184.534,191.547a18.767,18.767,0,0,0-10.017,1.266,8.016,8.016,0,0,1,10.017-1.266" transform="translate(-71.358 -77.829)" fill="#dd5b67"/>
              <path id="Trazado_1268761" data-name="Trazado 1268761" d="M108.991,232.779s-7.823,5.731-7.846,11.288,3.923,40.063,3.923,40.063l31.588-9.38L122.33,239.378Z" transform="translate(-41.357 -95.181)" fill="#ebd8cc"/>
              <path id="Trazado_1268762" data-name="Trazado 1268762" d="M143.465,274.745c-2.519-16.321-6.936-35.531-23.987-42.348-1.176-.471-1.673,1.42-.521,1.893,10.622,4.359,16.671,14.42,19.83,25.017.683,2.291,1.244,4.62,1.753,6.956.427,1.961,1.986,6.077.92,7.813-1.042,1.7-5.456,2.256-7.438,2.847-2.9.865-5.8,1.718-8.679,2.654a.409.409,0,0,0,.218.787c5.856-1.5,11.659-3.229,17.478-4.869a.629.629,0,0,0,.426-.75" transform="translate(-48.373 -94.994)" fill="#ddc4b6"/>
              <path id="Trazado_1268763" data-name="Trazado 1268763" d="M195.053,302.4s-5.085,3.417-12.17,7.949c-14.8,9.477-38.32,23.829-42.24,21.989-5.789-2.733-17.577-25.818-17.577-25.818l21.919-5.447,1.457,4.04,2.02,5.578,37.7-15.828Z" transform="translate(-50.32 -120.564)" fill="#f3a080"/>
              <path id="Trazado_1268764" data-name="Trazado 1268764" d="M182.884,314.641c-14.8,9.477-38.321,23.828-42.24,21.989-5.789-2.734-17.577-25.819-17.577-25.819l21.919-5.447,1.458,4.04-14.965,5.578s8.04,18.713,10.181,18.341,41.225-18.683,41.225-18.683" transform="translate(-50.32 -124.86)" fill="#ea7c6f"/>
              <path id="Trazado_1268765" data-name="Trazado 1268765" d="M244.711,253.2c1.562,1.209-7.955,10.992-7.955,10.992l1.61,3.432,4.36-3.715,8.166-1.728s.969,1.3,2.06,2.968c.138.206.273.421.412.636a32.837,32.837,0,0,1,1.767,3.076c.051.093.1.192.143.283a10.322,10.322,0,0,1,.536,1.369,2.265,2.265,0,0,1,.1,1.116l-5.922,2.7s-2.264,8.679-3.207,9.663c-.376.39-2.673.971-5.3,1.53-1.263.267-6.184,1.265-7.427,1.5l-3.692-4.594.652-7.456c.045-.884.126-2.054.262-3.353h0c.066-.639.147-1.309.24-1.99a27.446,27.446,0,0,1,1.755-7.034,6.676,6.676,0,0,1,1.282-2c3.391-3.412,8.6-8.6,10.161-7.388" transform="translate(-94.192 -103.459)" fill="#f3a080"/>
              <path id="Trazado_1268766" data-name="Trazado 1268766" d="M265.977,279.748c.051.093.1.192.143.283-.259.08-.6.179-1.01.3-.927.283-2.175.686-3.515,1.148a21.706,21.706,0,0,0-3.355,1.459c-.21.123-.4.236-.571.334-.16.115-.3.21-.413.293l-.371.251s.079-.144.236-.4c.076-.127.176-.285.294-.463s.286-.347.465-.551a8.511,8.511,0,0,1,3.388-2.22,10.172,10.172,0,0,1,3.807-.532c.358.021.66.057.9.094" transform="translate(-105.038 -114.342)" fill="#b54b57"/>
              <path id="Trazado_1268767" data-name="Trazado 1268767" d="M263.066,273.538c.138.206.273.421.412.637a1.644,1.644,0,0,1-.162.053c-.927.283-2.175.686-3.511,1.149a21.467,21.467,0,0,0-3.358,1.458c-.21.124-.4.232-.566.332s-.3.214-.417.292l-.367.252s.077-.14.231-.4c.08-.125.176-.285.3-.461s.287-.351.461-.552a8.51,8.51,0,0,1,3.391-2.219,10.045,10.045,0,0,1,3.588-.543" transform="translate(-104.306 -111.845)" fill="#b54b57"/>
              <path id="Trazado_1268768" data-name="Trazado 1268768" d="M215.457,262.864a10.246,10.246,0,0,0-7.781,1.577,6.919,6.919,0,0,0-.035-4.53c-1.17-3.17-4.226-3.56-7.16-3.293,1.251-6.083,1.2-13.863-2.3-19.138a.043.043,0,0,0-.079.033c.672,3.3,1.787,6.317,2,9.726a34,34,0,0,1-.845,9.857c-.073.311.157.742.531.7,3.09-.367,6.677-.1,7.063,3.8a7.945,7.945,0,0,1-1.092,4.541,10.369,10.369,0,0,0-1.777,2.843l-.013.019,0,0c-.019.044-.041.086-.06.131-.248.615.678.907,1.011.426a28.637,28.637,0,0,0,1.866-3,9.011,9.011,0,0,1,8.392-2.682c.657.134.936-.877.277-1.007" transform="translate(-81.001 -97.094)" fill="#ddc4b6"/>
              <path id="Trazado_1268769" data-name="Trazado 1268769" d="M389.146,285.131a5.947,5.947,0,0,0-2.01.641c-3.707,2.147-9.345,5.471-8.672,7.093.694,1.625,11.278-4.364,11.278-4.364l2.587,2.153-4.182,2.92-3.339,6.644s.9,1.125,2.085,2.441a3.122,3.122,0,0,0,.329.361.24.24,0,0,0,.03.03c.03.033.078.072.108.1.128.15.278.31.419.455a23.112,23.112,0,0,0,1.826,1.774,2.211,2.211,0,0,1,.21.194,9.145,9.145,0,0,0,1.066.763,1.862,1.862,0,0,0,.939.34l3.646-4.5s8,.027,9.055-.57c.421-.237,7.12-10.18,7.12-10.18l-7.217-10.7-3.383,5.5c-.18-.038-10.036-1.419-11.894-1.1" transform="translate(-154.727 -114.789)" fill="#f3a080"/>
              <path id="Trazado_1268770" data-name="Trazado 1268770" d="M392.771,313.738c.147.166.3.33.455.5.03-.04.056-.085.082-.128.453-.734,1.083-1.718,1.784-2.765a19.155,19.155,0,0,1,2.016-2.562c.154-.154.29-.293.414-.413s.252-.212.345-.293l.3-.259s-.138.035-.394.11c-.126.04-.285.087-.465.152s-.367.167-.58.273a7.573,7.573,0,0,0-2.678,2.419,8.933,8.933,0,0,0-1.28,2.969" transform="translate(-160.6 -125.863)" fill="#b54b57"/>
              <path id="Trazado_1268771" data-name="Trazado 1268771" d="M397.348,317.652c.068.065.144.126.212.187.127-.205.29-.476.489-.8.453-.734,1.082-1.718,1.784-2.768a19.362,19.362,0,0,1,2.016-2.56c.154-.153.294-.292.417-.416s.249-.212.346-.29l.3-.262s-.141.035-.4.113c-.126.037-.285.087-.465.149-.171.078-.364.167-.58.275a7.59,7.59,0,0,0-2.678,2.417,9.05,9.05,0,0,0-1.319,3.159c-.063.314-.1.582-.123.8" transform="translate(-162.471 -127.059)" fill="#b54b57"/>
              <path id="Trazado_1268772" data-name="Trazado 1268772" d="M326.752,282.46a5.96,5.96,0,0,1,1.28,1.677c1.807,3.885,4.521,9.84,3.04,10.782-1.5.934-6.74-10.04-6.74-10.04l-3.353.281,1.753,4.79-1.073,7.359s-1.386.4-3.108.805a3.084,3.084,0,0,1-.478.107.216.216,0,0,1-.041.008c-.044.01-.1.014-.149.024-.19.049-.4.094-.6.132a22.993,22.993,0,0,1-2.513.407,2.262,2.262,0,0,0-.284.038,9.2,9.2,0,0,1-1.31.015,1.865,1.865,0,0,1-.965-.259l-.411-5.774s-6.574-4.565-7.093-5.657c-.209-.435-.431-10.414-.431-10.414l11.978-3.4.122,3.207c.17.072,9.038,4.59,10.378,5.914" transform="translate(-124.414 -111.765)" fill="#f3a080"/>
              <path id="Trazado_1268773" data-name="Trazado 1268773" d="M327.7,309.759c-.215.051-.436.1-.659.148,0-.05,0-.1.006-.151.049-.862.1-2.029.123-3.289a19.225,19.225,0,0,0-.183-3.255c-.038-.214-.07-.406-.1-.576s-.086-.318-.115-.438l-.1-.385s.093.107.26.316c.08.105.184.235.294.391s.2.348.319.556a7.573,7.573,0,0,1,.808,3.518,8.946,8.946,0,0,1-.653,3.166" transform="translate(-133.573 -123.408)" fill="#b54b57"/>
              <path id="Trazado_1268774" data-name="Trazado 1268774" d="M321.614,310.275c-.093.014-.19.021-.281.033.014-.241.036-.557.059-.937.049-.862.1-2.029.125-3.291a19.311,19.311,0,0,0-.184-3.253c-.038-.214-.073-.408-.1-.581-.047-.169-.083-.316-.118-.436-.06-.245-.1-.387-.1-.387s.1.11.261.32c.083.1.184.235.3.389.1.161.2.345.317.558a7.58,7.58,0,0,1,.81,3.516,9.051,9.051,0,0,1-.73,3.345c-.128.293-.251.534-.356.724" transform="translate(-131.26 -123.248)" fill="#b54b57"/>
            </g>
          </g>
        </g>
      </g>
    </g>
  </g>
</svg>
