<svg xmlns="http://www.w3.org/2000/svg" xmlns:xlink="http://www.w3.org/1999/xlink" width="150" height="150" viewBox="0 0 150 150">
  <defs>
    <clipPath id="clip-path">
      <rect id="Rectángulo_459371" data-name="Rectángulo 459371" width="76.559" height="84.532" fill="#6a2874"/>
    </clipPath>
  </defs>
  <g id="Grupo_1208282" data-name="Grupo 1208282" transform="translate(-561.711 -8567.084)">
    <g id="Grupo_1207828" data-name="Grupo 1207828" transform="translate(561.711 8567.084)">
      <g id="Grupo_1177470" data-name="Grupo 1177470" transform="translate(0 0)">
        <circle id="Elipse_13609" data-name="Elipse 13609" cx="75" cy="75" r="75" fill="#f6e1fe"/>
        <g id="Grupo_1207827" data-name="Grupo 1207827" transform="translate(32.621 32.621)">
          <g id="Grupo_1099618" data-name="Grupo 1099618" transform="translate(0.09 0.009)">
            <rect id="Rectángulo_401104" data-name="Rectángulo 401104" width="84.532" height="84.532" transform="translate(0)" fill="none"/>
          </g>
          <g id="Grupo_1209113" data-name="Grupo 1209113" transform="translate(4.091 0.008)">
            <g id="Grupo_1209112" data-name="Grupo 1209112" clip-path="url(#clip-path)">
              <path id="Trazado_1268896" data-name="Trazado 1268896" d="M52.337,46.178c-.089.087,1.037,1.177,1.208,1.333,2.442,2.227,6.521,6.116,9.133,7.829,4.992,3.272,11.488,5.307,16.531,8.67l.93,1.251c1.876,4.988,4.879,9.895,6.723,14.843.718,1.925.974,3.18-.361,4.962a4.415,4.415,0,0,1-7.315-.678L72.62,70.234l-10.773-5.12c-.935-.155-2.784,1.713-2.68,2.677.391,3.633,2.485,8.073,3,11.811l11.86,9.949c3.724,3.976-.994,10.017-6.014,6.5-4.5-3.155-8.834-7.831-13.248-11.226-2.342-5.457-3.2-11.574-5.036-17.257-.912-1.679-8.119-6.653-8.3-7.956-.154-1.116.554-1.722,1.631-1.389l8.665,7.591,5.011,17.525L70.087,94.454c1.609.864,3.594-1.231,2.471-2.713l-12.1-10.188a2.594,2.594,0,0,1-.673-1.266c-1.505-4.053-1.969-9.226-3.338-13.408a1.032,1.032,0,0,1,.243-.728c.156-.266,3.333-3.4,3.661-3.609.87-.56,1.051-.314,1.921-.006,3.966,1.4,8.3,4.406,12.289,6l6.99,14.941A1.863,1.863,0,0,0,84.934,82.4L77.676,66.028,60.739,57.038,48.508,46.245l0-1.113.614-.6c3.728-1.326,8.251-1.746,11.89-3.134,2.041-.779,1.61-1.763,1.5-3.823a75.832,75.832,0,0,0-.984-8.951,1.929,1.929,0,0,0-3.816.048c.07,2.752.835,5.721.934,8.427a2.072,2.072,0,0,1-.309,1.264c-.574.578-8.365,1.972-9.944,2.534-2.212.787-4.3,3.806-6.176,4.02-2.248.256-4.2-2.143-4.394-4.224-.186-2.024.578-2.886-.893-4.918-4.176-5.767-12.529.772-8.091,6.153,2.538,3.077,5.2.907,7.92,2.5a3.293,3.293,0,0,1,.931,5.152c-2.049,2.332-5.983,4.841-8.376,7.132-1.2,1.15-1.8,1.323-1.662,3.122a85.626,85.626,0,0,0,1.737,10.136c.23,1,.333,2.229,1.521,2.357s2.134-.165,2.422-1.421c.175-2.428-2.255-9.532-1.465-11.4.407-.962,4.664-3.736,5.508-4.909.885-.442,2.105-.259,2.1.908-.005,1.356-4.5,4.012-5.253,5.356.214,2.932,1.575,6.589,1.644,9.437a4.453,4.453,0,0,1-8.37,2.292c-.642-3.816-1.925-8.226-2.269-12.027-.208-2.3-.073-3.3,1.538-4.945,2.42-2.475,5.818-4.7,8.37-7.139.59-.563,1.466-1.1.571-1.79-1.2-.915-1.91-.232-3.1-.265-6.31-.173-9.908-8.212-5.38-13.007,4.746-5.026,13.1-1.333,13.262,5.366.018.751-.421,1.2-.157,2.066,1.036,3.393,3.742-.373,5.247-1.318,2.936-1.843,7.122-1.911,10.367-3.081.253-.389-.682-6.031-.709-7.108a4.4,4.4,0,0,1,8.675-1.4A80.493,80.493,0,0,1,65.2,39.269a4.745,4.745,0,0,1-2.757,4.29c-2.853,1.255-7.067,1.608-10.1,2.619" transform="translate(-19.057 -18.596)" fill="#6a2874"/>
              <path id="Trazado_1268897" data-name="Trazado 1268897" d="M22.87,54.113c-1.412,9.018-15.176,11.4-19.475,2.513C2.266,54.29.25,42.757.335,40.064c.14-4.418,2.823-6.387,5.573-9.331C-.445,26.376-1.334,17.414,3.492,11.472,9.92,3.557,21.971,5.759,26.406,14.456a35.752,35.752,0,0,0,3.809-.978c.952-.489.16-2.427.167-3.225.1-10.975,15.546-14.323,19.913-4.163,1.067,2.484,1.748,10.156,1.893,13.131.262,5.376-1.487,8.864-6.293,11.386.634.808,2.2,1.534,1.573,2.788-.524.567-.927.874-1.66.456a35.564,35.564,0,0,1-3.747-3.295c-.615-2.042,2.314-1.984,3.809-2.877,2.981-1.779,4.05-4.615,3.895-7.974-.119-2.58-.87-10.456-1.748-12.548A7.842,7.842,0,0,0,34.3,5.931c-2.162,3.123-.683,5.849-1.229,9.19l-7.847,2.242c-1.112-1.059-1.383-2.6-2.394-3.919-3.69-4.821-11.38-5.877-16.065-1.852a11.3,11.3,0,0,0-.49,16.469c1.072,1.054,4.058,2.034,2.546,3.762-2.507,2.866-5.973,3.6-6.035,8.5C2.756,42.461,4.67,53.363,5.489,55.258c3.324,7.688,15.453,5.182,14.966-4.063-.066-1.252-1.771-6.284.356-6.145,1.359.089,5.571,4.655,6.961,5.615,2.474,6.174,2.232,14.783,7.21,19.445,2.467,2.309,11.065,9.818,13.649,11.067a7.829,7.829,0,0,0,11.286-6.008c.124-1.1-.4-3.08.158-3.719.833-.949,3.151.284,4.555.213a8.133,8.133,0,0,0,7.4-6.914c.255-2.286-.349-3.361-1.142-5.349a118.6,118.6,0,0,0-8.03-16.443c-3.793-2.549-8.086-4.371-12.128-6.529a1.351,1.351,0,0,1,1-2.192c3.418,1.855,7.712,3.461,10.952,5.508,2.5,1.581,3.473,3.354,4.739,5.923,1.445,2.934,6.8,13.942,7.058,16.447.725,7.087-4.576,12.86-11.76,11.811l-.239.167a10.338,10.338,0,0,1-14.9,9.352c-2.334-1.135-14.141-10.969-15.976-13.1-3.491-4.057-3.888-13.013-5.941-18.049l-2.79-2.42c-.144,1.311.2,2.984,0,4.241" transform="translate(-0.252 0)" fill="#6a2874"/>
              <path id="Trazado_1268898" data-name="Trazado 1268898" d="M11.229,284.687v4.483c0,.909-2.423.909-2.423,0v-4.483H3.112a12.093,12.093,0,0,1-1.422-.516,3.686,3.686,0,0,1-1.617-3.229c-.2-2.587-.223-5.646,3.027-5.959a98.284,98.284,0,0,1,14.072.007c3.165.381,3.132,4.423,2.723,6.853-.218,1.293-1.615,2.845-2.971,2.845Zm6.058-2.665c.229-.953.718-4.222-.412-4.555-4.161.226-8.967-.466-13.05-.063-2.2.217-1.239,2.972-1.076,4.618Z" transform="translate(0 -208.161)" fill="#6a2874"/>
              <path id="Trazado_1268899" data-name="Trazado 1268899" d="M244.266,27.757v4.483c0,1.225-2.423.842-2.423,0V27.757h-6.179c-.685,0-2.237-1.675-2.43-2.416a18.313,18.313,0,0,1-.093-4.469c.276-1.951,1.684-2.676,3.483-2.817a95.507,95.507,0,0,1,13.338.01c3.409.388,3.384,4.208,3.007,6.884-.136.965-1.639,2.809-2.522,2.809Zm6-2.724c.395-.34.708-4.286-.352-4.5l-13.886.071c-.641.311-.658,3.475-.45,4.087.12.353.594.454.922.532,1.909.458,9.979.292,12.259.116a4.984,4.984,0,0,0,1.507-.31" transform="translate(-176.577 -13.505)" fill="#6a2874"/>
            </g>
          </g>
        </g>
      </g>
      <ellipse id="Elipse_13678" data-name="Elipse 13678" cx="18.074" cy="18.074" rx="18.074" ry="18.074" transform="translate(0.769 113.817)" fill="#da9dfe"/>
      <g id="Grupo_1207826" data-name="Grupo 1207826" transform="translate(0 116.123)">
        <path id="Trazado_998481" data-name="Trazado 998481" d="M0,13.012q4.541.393,9.077.815l-.253.1,1.3-2.34a.35.35,0,0,1,.4-.123.254.254,0,0,1,.184.174l0,.009,1.114,5.034-.836-.059,1.8-4.073,1.816-4.068,1.822-4.067L18.27.354a.772.772,0,0,1,.885-.326.543.543,0,0,1,.472.536V.572L18.9,7.156l-.762,6.581-.773,6.58-.8,6.579-1.5-.222c1.16-2.774,2.354-5.539,3.536-8.307l1.778-4.152,1.8-4.146,0-.01a.657.657,0,0,1,.753-.287.475.475,0,0,1,.413.442L23.082,15.5l-.295,5.285-.776-.111,2.607-5,0-.008a.274.274,0,0,1,.277-.117l4.931.63,4.928.647-4.969-.438-4.966-.456.281-.125L22.763,20.88a.443.443,0,0,1-.508.185.318.318,0,0,1-.269-.285v-.011l.074-5.289.1-5.289,1.17.145-1.676,4.175-1.7,4.17c-1.136,2.779-2.26,5.561-3.418,8.335a.838.838,0,0,1-.96.376c-.35-.082-.566-.334-.536-.6v0l.762-6.581.791-6.579.8-6.579L18.234.48,19.59.7,17.666,4.738,15.723,8.774l-1.948,4.035-1.966,4.029-.005.01a.482.482,0,0,1-.552.192.359.359,0,0,1-.279-.261L10.1,11.718l.586.059-1.431,2.3,0,.007a.257.257,0,0,1-.249.1Q4.5,13.609,0,13.012" transform="translate(0 4.236) rotate(-7)" fill="#fff"/>
      </g>
    </g>
    <path id="Trazado_1267128" data-name="Trazado 1267128" d="M77.377,52.427V64.859a.84.84,0,0,1-.841.84h-10a.841.841,0,0,0-.841.841v10a.841.841,0,0,1-.841.841H52.427a.841.841,0,0,1-.841-.841v-10a.841.841,0,0,0-.84-.841H40.713a.841.841,0,0,1-.841-.84V52.427a.841.841,0,0,1,.841-.841H50.745a.84.84,0,0,0,.84-.84V40.714a.841.841,0,0,1,.841-.841H64.858a.841.841,0,0,1,.841.841V50.746a.841.841,0,0,0,.841.84h10a.841.841,0,0,1,.841.841" transform="translate(630.197 8531.593)" fill="#8d1939"/>
  </g>
</svg>
