<svg xmlns="http://www.w3.org/2000/svg" xmlns:xlink="http://www.w3.org/1999/xlink" width="69" height="69" viewBox="0 0 69 69">
  <defs>
    <clipPath id="clip-path">
      <rect id="Rectángulo_459372" data-name="Rectángulo 459372" width="45.123" height="39.903" fill="#fff"/>
    </clipPath>
  </defs>
  <g id="Grupo_1209116" data-name="Grupo 1209116" transform="translate(-304.711 -3086)">
    <g id="Grupo_1208273" data-name="Grupo 1208273" transform="translate(-0.348 -8252)">
      <circle id="Elipse_13679" data-name="Elipse 13679" cx="34.5" cy="34.5" r="34.5" transform="translate(305.059 11338)" fill="#6a2874"/>
    </g>
    <g id="Grupo_1209115" data-name="Grupo 1209115" transform="translate(316.711 3100)">
      <g id="Grupo_1209114" data-name="Grupo 1209114" clip-path="url(#clip-path)">
        <path id="Trazado_1268900" data-name="Trazado 1268900" d="M173.739,74.037c.322,1.917,2.484,5.088,3,7.212.145,2.94,1.032,6.186,1.138,9.079.089,2.416-2.48,3.157-3.6,1.112-.663-2.864-.548-6.112-1.126-8.95-.379-1.863-1.828-4.034-2.383-5.9-.23.157-.2.377-.215.613a53.235,53.235,0,0,1-.537,6.5c-1.6,2.5-2.77,5.722-4.422,8.14-.737,1.079-2.1,1.5-3.047.418-.742-.844-.522-1.563-.111-2.473,1.15-2.543,3.051-5.017,4.089-7.645l.591-8.244-.007-7.391c-.563.591-2.222,1.564-2.494,2.267-.52,1.343-.483,4.077-.853,5.635a1.511,1.511,0,0,1-3.014-.1,51.345,51.345,0,0,1,1.013-6.868c.37-1.225,5.23-4.519,6.33-5.679.775-.342,4.58-.321,5.581-.227a2.012,2.012,0,0,1,1.308.525l3.252,6.51,5.17,3.8a1.509,1.509,0,0,1-2.033,2.171c-1.734-.914-3.531-2.822-5.292-3.818l-2.341-4.353Z" transform="translate(-138.561 -52.993)" fill="#fff"/>
        <path id="Trazado_1268901" data-name="Trazado 1268901" d="M47.672,165.9l3.174,5.455-.006,10.617c-.006,1.033-2.24,1-2.587.4-.6-1.036.112-6.23-.164-7.7-.109-.592-1.129-.774-1.243.274-.249,2.287.235,4.933-.061,7.257-.246.757-2.545,1-2.7-.351-.377-3.232.284-7.18.006-10.49,1.291-1.4,1.986-3.751,3.111-5.172.128-.162.227-.332.473-.284" transform="translate(-37.894 -142.992)" fill="#fff"/>
        <path id="Trazado_1268902" data-name="Trazado 1268902" d="M217.339.029a3.079,3.079,0,0,1,2.233,5.546,3.094,3.094,0,0,1-4.789-3.134A3.267,3.267,0,0,1,217.339.029" transform="translate(-185.092 0)" fill="#fff"/>
        <path id="Trazado_1268903" data-name="Trazado 1268903" d="M27.96,148.4a1.2,1.2,0,0,1-1.965-1.2l3.389-5.863a1.166,1.166,0,0,1,2.006,1.179Z" transform="translate(-22.364 -121.397)" fill="#fff"/>
        <path id="Trazado_1268904" data-name="Trazado 1268904" d="M74.987,141.361l3.43,5.886a1.172,1.172,0,0,1-2.065,1.1l-3.33-5.784a1.2,1.2,0,0,1,1.965-1.2" transform="translate(-62.903 -121.585)" fill="#fff"/>
        <path id="Trazado_1268905" data-name="Trazado 1268905" d="M55.956,119.932a3.636,3.636,0,0,0-1.893.108c-.209.073-.582.4-.66.4s-.451-.332-.66-.4a3.649,3.649,0,0,0-1.894-.109,2.657,2.657,0,0,1,5.107,0" transform="translate(-43.83 -101.719)" fill="#fff"/>
        <path id="Trazado_1268906" data-name="Trazado 1268906" d="M1.745,144.143c.326-.033,1.786.17,1.685.59-.2.272-.756.332-.9.623-.28.579.1,1.4-.922,1.7-1.934.583-2.4-2.664.134-2.917" transform="translate(0 -124.243)" fill="#fff"/>
        <path id="Trazado_1268907" data-name="Trazado 1268907" d="M114.956,144.914l-.01-.518a2.909,2.909,0,0,1,2.289-.038c1.7.757,1.118,3.114-.508,2.726-1.324-.315-.468-1.954-1.771-2.17" transform="translate(-99.079 -124.236)" fill="#fff"/>
        <path id="Trazado_1268908" data-name="Trazado 1268908" d="M5.212,110.918c-.472.157-.8-.4-1.172-.4-.309,0-.628.368-.98.4A1.28,1.28,0,0,1,3,108.358c1.3-.113,2.286,1.374,2.215,2.56" transform="translate(-1.507 -93.395)" fill="#fff"/>
        <path id="Trazado_1268909" data-name="Trazado 1268909" d="M114.984,110.5c-.8.753-1.414-.086-1.96-.086-.373,0-.7.563-1.172.4-.01-1.478,1.411-3.249,2.951-2.329a1.342,1.342,0,0,1,.18,2.01" transform="translate(-96.413 -93.297)" fill="#fff"/>
      </g>
    </g>
  </g>
</svg>
