<svg xmlns="http://www.w3.org/2000/svg" xmlns:xlink="http://www.w3.org/1999/xlink" width="150" height="150" viewBox="0 0 150 150">
  <defs>
    <clipPath id="clip-path">
      <rect id="Rectángulo_459370" data-name="Rectángulo 459370" width="76.533" height="83.395" fill="#6a2874"/>
    </clipPath>
  </defs>
  <g id="Grupo_1208281" data-name="Grupo 1208281" transform="translate(-561.711 -8567.084)">
    <g id="Grupo_1207828" data-name="Grupo 1207828" transform="translate(561.711 8567.084)">
      <g id="Grupo_1177470" data-name="Grupo 1177470" transform="translate(0 0)">
        <circle id="Elipse_13609" data-name="Elipse 13609" cx="75" cy="75" r="75" fill="#f6e1fe"/>
        <g id="Grupo_1207827" data-name="Grupo 1207827" transform="translate(32.621 32.621)">
          <g id="Grupo_1099618" data-name="Grupo 1099618" transform="translate(0.149 0.009)">
            <rect id="Rectángulo_401104" data-name="Rectángulo 401104" width="84.532" height="84.532" transform="translate(0)" fill="none"/>
          </g>
          <g id="Grupo_1209111" data-name="Grupo 1209111" transform="translate(4.149 1.009)">
            <g id="Grupo_1209110" data-name="Grupo 1209110" clip-path="url(#clip-path)">
              <path id="Trazado_1268893" data-name="Trazado 1268893" d="M30.786,186.8c.623,1.093,2.6,2.02,2.394,3.448-.126.871-2.958,2.728-2.854,3.322.672,1.12,3.181,2.357,2.748,3.742-.471,1.507-6.282,5.932-7.42,7.628a1.48,1.48,0,0,1-1.86.249L8.711,189.9,8.7,188.472a1.25,1.25,0,0,1,1.912,0L24.493,202.3c.216.061.308-.111.452-.207.4-.27,4.857-4.714,5.02-5.029.144-.28.114-.4-.119-.6l-21.173-21.1-5.56,5.386c-.106.6,3.557,3.369,3.919,4.149a1.29,1.29,0,0,1-1.154,1.856c-.479-.045-5.743-5.185-5.853-5.61a.793.793,0,0,1,.062-.553l8.417-8.3,2.317,1.6c1-.649,2.35-2.926,3.6-2.845,1.034.067,2.291,2,3.12,2.62,5.023-7.309,11.331-11.383,20.462-8.761,1.309.376,3.142,1.411,4.385,1.583,4.16.575,9.78-1.679,11.91,3.338l15.392-8.936c3.758-2.107,8.318,1.605,6.391,5.674a9.892,9.892,0,0,1-2.93,3.038c-5.574,4.7-13.481,11.21-19.471,15.141a15.8,15.8,0,0,1-10.776,2c-1.858-.343-1.793-2.358-.07-2.58,3.773-.487,5.676,1,9.376-1.366,7.17-4.59,13.891-11.628,21.051-16.426,1.412-1.58.664-3.33-1.317-3.67l-17.844,10.05a5.262,5.262,0,0,1-3.636,2.809,103.063,103.063,0,0,1-15.26.025c-1.688-.2-1.987-1.778-.469-2.386,4.637-.309,9.749.393,14.326,0,.777-.066,2.2-.245,2.559-1.02a2.126,2.126,0,0,0-1.187-3c-2.179-.486-5.667.24-8.045-.071-1.788-.234-4.309-1.767-6.384-2.21-6.14-1.311-11.048,1.112-14.752,5.94-.492.641-1.912,2.213-1.57,2.965l8.248,8.24,9.852.174a1.336,1.336,0,0,1-.427,2.575Zm-3.244,3.953.976.807c.341-.475,1.747-1.31,1.447-1.894-1.95-1.284-14.9-15.915-15.887-15.413-.4.2-.986,1.144-1.43,1.446Z" transform="translate(0 -122.023)" fill="#6a2874"/>
              <path id="Trazado_1268894" data-name="Trazado 1268894" d="M127.566,3.516a16.48,16.48,0,0,1,1.4,1.825c9.929-12.966,28.646.415,19.45,13.96l-19.219,18.99a1.723,1.723,0,0,1-1.185-.485c-2.267-1.6-4.51-5.025-6.816-6.789-.755-1.314.054-2.806,1.53-2.012l6.123,6.071h.474L145.8,18.6C154.783,7.906,139-3.741,131.37,6.318c-.8,1.061-1.549,4.08-3.256,2.5-.4-.366-.967-1.925-1.46-2.6-4.306-5.861-13.947-4.367-16.376,2.4-2.89,8.053,4.6,11.765,8.986,16.929a1.258,1.258,0,0,1-1.406,1.9c-.537-.167-6.4-6.058-7.163-6.941C99.766,7.94,116.746-6.9,127.566,3.516" transform="translate(-81.586 0)" fill="#6a2874"/>
              <path id="Trazado_1268895" data-name="Trazado 1268895" d="M167.781,43.206c.129-.6.815-.913,1.371-1.016,1-.187,6.268-.4,6.268,1.016v4.177H179.6a1.61,1.61,0,0,1,.614.4c.421.679.52,6.189-.375,7H175.42v4.177a2.352,2.352,0,0,1-.622.811c-.784.493-7.017.563-7.017-.572V54.784h-4.416a2.131,2.131,0,0,1-.474-.481,38.057,38.057,0,0,1-.117-6.077c.05-.262.412-.842.591-.842h4.416Zm5.013,1.552h-2.626v4.416a3.985,3.985,0,0,1-.6.6h-4.416V52.4h4.177a3.66,3.66,0,0,1,.835.6v4.416h2.626V53.471a4.033,4.033,0,0,1,.835-1.074h4.416V49.771H173.63a4.033,4.033,0,0,1-.835-1.074Z" transform="translate(-123.866 -32.016)" fill="#6a2874"/>
            </g>
          </g>
        </g>
      </g>
      <ellipse id="Elipse_13678" data-name="Elipse 13678" cx="18.074" cy="18.074" rx="18.074" ry="18.074" transform="translate(0.769 113.817)" fill="#da9dfe"/>
      <g id="Grupo_1207826" data-name="Grupo 1207826" transform="translate(0 116.123)">
        <path id="Trazado_998481" data-name="Trazado 998481" d="M0,13.012q4.541.393,9.077.815l-.253.1,1.3-2.34a.35.35,0,0,1,.4-.123.254.254,0,0,1,.184.174l0,.009,1.114,5.034-.836-.059,1.8-4.073,1.816-4.068,1.822-4.067L18.27.354a.772.772,0,0,1,.885-.326.543.543,0,0,1,.472.536V.572L18.9,7.156l-.762,6.581-.773,6.58-.8,6.579-1.5-.222c1.16-2.774,2.354-5.539,3.536-8.307l1.778-4.152,1.8-4.146,0-.01a.657.657,0,0,1,.753-.287.475.475,0,0,1,.413.442L23.082,15.5l-.295,5.285-.776-.111,2.607-5,0-.008a.274.274,0,0,1,.277-.117l4.931.63,4.928.647-4.969-.438-4.966-.456.281-.125L22.763,20.88a.443.443,0,0,1-.508.185.318.318,0,0,1-.269-.285v-.011l.074-5.289.1-5.289,1.17.145-1.676,4.175-1.7,4.17c-1.136,2.779-2.26,5.561-3.418,8.335a.838.838,0,0,1-.96.376c-.35-.082-.566-.334-.536-.6v0l.762-6.581.791-6.579.8-6.579L18.234.48,19.59.7,17.666,4.738,15.723,8.774l-1.948,4.035-1.966,4.029-.005.01a.482.482,0,0,1-.552.192.359.359,0,0,1-.279-.261L10.1,11.718l.586.059-1.431,2.3,0,.007a.257.257,0,0,1-.249.1Q4.5,13.609,0,13.012" transform="translate(0 4.236) rotate(-7)" fill="#fff"/>
      </g>
    </g>
    <path id="Trazado_1267128" data-name="Trazado 1267128" d="M77.377,52.427V64.859a.84.84,0,0,1-.841.84h-10a.841.841,0,0,0-.841.841v10a.841.841,0,0,1-.841.841H52.427a.841.841,0,0,1-.841-.841v-10a.841.841,0,0,0-.84-.841H40.713a.841.841,0,0,1-.841-.84V52.427a.841.841,0,0,1,.841-.841H50.745a.84.84,0,0,0,.84-.84V40.714a.841.841,0,0,1,.841-.841H64.858a.841.841,0,0,1,.841.841V50.746a.841.841,0,0,0,.841.84h10a.841.841,0,0,1,.841.841" transform="translate(630.197 8531.593)" fill="#8d1939"/>
  </g>
</svg>
