<svg xmlns="http://www.w3.org/2000/svg" xmlns:xlink="http://www.w3.org/1999/xlink" width="85" height="85" viewBox="0 0 85 85">
  <defs>
    <clipPath id="clip-path">
      <rect id="Rectángulo_459352" data-name="Rectángulo 459352" width="67.996" height="68" fill="#8d1939"/>
    </clipPath>
  </defs>
  <g id="Grupo_1208181" data-name="Grupo 1208181" transform="translate(-705.342 -410)">
    <path id="Sustracción_110" data-name="Sustracción 110" d="M15975.961,19829.512h85v85h-85Z" transform="translate(-15270.619 -19419.512)" fill="#ffe19a"/>
    <g id="Grupo_1209105" data-name="Grupo 1209105" transform="translate(714.342 419)">
      <g id="Grupo_1209104" data-name="Grupo 1209104" clip-path="url(#clip-path)">
        <path id="Trazado_1268798" data-name="Trazado 1268798" d="M103.436,14.029V39.748l8.959-8.865-1.626-1.447-3.95,3.869-1.38-1.25,5.5-5.552,2.923,2.916c.616-.422,2.463-2.866,3.078-2.7l5,4.948-18.507,18.51V68H93.5V66.052h7.989V52.413c-.34-.085-.389.141-.586.291-.952.729-2.225,2.6-3.131,3.1-1.154.647-3.4.5-4.609,1.041-.48.216-1.771,1.8-1.9,1.8l-1.273-1.458c0-.514,1.465-1.381,1.71-2,.476-1.2.361-3.532,1.019-4.631l8.733-8.8.033-36.013a7.628,7.628,0,0,1,1.566-3.792H67V0h41.6c2.572,0,5.553,3.457,5.553,5.943v7.794l-.292.292Zm0-8.476c-.29,1.856.215,4.4,0,6.332h8.573V5.358a6.938,6.938,0,0,0-1.322-2.241,4.435,4.435,0,0,0-7.251,2.436m13.347,23.872-1.458,1.458,2.405,2.227,1.279-1.421ZM93.889,54.555l3.216-.777,18.812-18.8.1-.492-2.252-2.054-19.3,19.287Z" transform="translate(-53.946)" fill="#8d1939"/>
        <path id="Trazado_1268799" data-name="Trazado 1268799" d="M55.582,26.776c-1.714,1.029-1.337,2.784-3.816,3.1-.609.078-2.639-.215-2.8.329A29.988,29.988,0,0,0,51,34.572c.4.351.982.155,1.465.191v1.95c-1.356-.3-1.375,1.3-2.1,2.285a5.269,5.269,0,0,1-8.033.15c-.883-1.1-.677-2.826-2.34-2.434l.183-1.865c.987-.175,1.2.162,1.8-.729a33.219,33.219,0,0,0,1.683-3.4c.106-.62-.329-1.115-.366-1.711a3.008,3.008,0,0,1,4.981-2.433c1.261,1.06.648,1.7,3.1,1.355,1.317-.188,1.013-.828,1.584-1.535a4.4,4.4,0,0,1,7.1-.109c.645.832.329,1.443,1.675,1.637a14.415,14.415,0,0,0,2.873-.012c.31-.1.566-.968,1-1.335a3.005,3.005,0,0,1,4.96,2.612c-.049.449-.4.81-.295,1.29a42.828,42.828,0,0,0,1.959,4.092c.46.406,1.306-.007,1.574.374l.086,1.767c-1.669-.361-1.383,1.181-2.26,2.32a5.317,5.317,0,0,1-7.783.414c-1.013-1.045-.875-3-2.429-2.734v-1.95c.483-.036,1.069.16,1.465-.191a18.507,18.507,0,0,0,2.043-4.679h-3.8c-1.846,0-2.277-2.471-3.6-3.117V43.143a4.526,4.526,0,0,1,3.724,3.679l2.317.022v1.949H49.542V46.844l2.32-.019a4.309,4.309,0,0,1,3.721-3.682Zm-8.606,1.2c-1-.623-2.342.735-1.322,1.614,1.277,1.1,2.162-1.089,1.322-1.614m20.239,0c-.957.288-.675,2.246.647,1.833a.978.978,0,1,0-.647-1.833M43.891,34.764h4.871l-1.475-3.123a2.912,2.912,0,0,1-1.848.1Zm26.109,0L68.637,31.73c-.716.009-1.328.291-2.033-.089l-1.475,3.123ZM49.152,36.713H43.6l-.2.386c1.286,2.528,5.147,2.532,5.75-.386m15.587,0c.579,2.895,4.507,2.943,5.76.4l-.207-.4Zm-5.65,10.132c-.5-2.494-4.575-2.508-5.066,0Z" transform="translate(-32.201 -19.761)" fill="#8d1939"/>
        <path id="Trazado_1268800" data-name="Trazado 1268800" d="M11.106,0V1.948H5.748a6.35,6.35,0,0,0-2.54,1.357,6.635,6.635,0,0,0-1.26,2.637V66.052H37.6V68H0V5.553C0,3.367,3.157,0,5.358,0Z" fill="#8d1939"/>
        <path id="Trazado_1268801" data-name="Trazado 1268801" d="M78.1,210c1.5-.239,2.025.68,2.866.709.907.032,1.68-.823,2.73-.763a4.362,4.362,0,0,1,1.846.7c.752.566.794,1.512,1.378,1.934,1,.723,2.168.129,3.2,1.673.933,1.4.185,2.354.54,3.551.277.934,1.72,1,1.473,3.3-.172,1.6-1.4,1.849-1.631,2.682-.238.86.508,1.8-.3,3.189-1,1.705-2.357,1.12-3.28,1.786-.9.652-.8,2.2-2.677,2.582-1.538.316-2.336-.791-3.254-.734-1.255.079-1.506,1.34-3.618.485-1.476-.6-1.36-1.765-2.148-2.334-.923-.666-2.112-.049-3.2-1.673-.971-1.45-.141-2.21-.428-3.257-.294-1.075-1.808-1.48-1.623-3.429.154-1.617,1.449-2.054,1.668-2.844.254-.917-.557-1.868.379-3.307,1-1.544,2.267-.995,3.2-1.668S76.034,210.33,78.1,210M72.37,221.584c.115.145.432.2.613.451,1.024,1.4.427,2.609.794,4.081.885.577,1.868.365,2.807,1.091,1.09.843.667,2.28,2.432,2.025.733-.106,1.168-.614,2.158-.59.952.023,1.626.7,2.535.617.976-.084.91-.954,1.373-1.565.911-1.2,2.9-1,3.383-1.682.539-.77-.444-2.126.512-3.581.394-.6,1.245-.9,1.2-1.829-.04-.8-1.022-1.085-1.4-2.082-.465-1.24.021-1.617-.111-2.609-.171-1.288-1.248-.943-2.1-1.219-1.532-.493-1.345-1.491-2.176-2.3-1.089-1.064-1.507.043-2.479.247-1.582.331-2.425-.723-3.469-.651-.816.056-.984,1.151-1.37,1.659-.825,1.087-2.241,1.01-3.352,1.616-.353.99.134,1.858-.139,2.883-.356,1.342-2.4,1.946-1.21,3.441" transform="translate(-56.331 -169.036)" fill="#8d1939"/>
        <rect id="Rectángulo_459348" data-name="Rectángulo 459348" width="22.389" height="1.244" transform="translate(13.682 32.34)" fill="#8d1939"/>
        <rect id="Rectángulo_459349" data-name="Rectángulo 459349" width="14.926" height="1.244" transform="translate(17.414 36.071)" fill="#8d1939"/>
        <rect id="Rectángulo_459350" data-name="Rectángulo 459350" width="1.95" height="1.95" transform="translate(21.821 50.658)" fill="#8d1939"/>
        <rect id="Rectángulo_459351" data-name="Rectángulo 459351" width="1.95" height="1.95" transform="translate(25.718 50.658)" fill="#8d1939"/>
      </g>
    </g>
  </g>
</svg>
