<svg xmlns="http://www.w3.org/2000/svg" xmlns:xlink="http://www.w3.org/1999/xlink" width="69" height="69" viewBox="0 0 69 69">
  <defs>
    <clipPath id="clip-path">
      <rect id="Rectángulo_459376" data-name="Rectángulo 459376" width="48" height="35.385" fill="#fff"/>
    </clipPath>
  </defs>
  <g id="Grupo_1208274" data-name="Grupo 1208274" transform="translate(-304.711 -11338.09)">
    <circle id="Elipse_13679" data-name="Elipse 13679" cx="34.5" cy="34.5" r="34.5" transform="translate(304.711 11338.09)" fill="#6a2874"/>
    <g id="Grupo_1209118" data-name="Grupo 1209118" transform="translate(315.711 11354.575)">
      <g id="Grupo_1209117" data-name="Grupo 1209117" clip-path="url(#clip-path)">
        <path id="Trazado_1268910" data-name="Trazado 1268910" d="M51.027,130.335c0,.1-.323.42-.35.42H46.969v.28h3.638L47.3,137.729l-6.662-.01c-1.024-.187-1.73-1.507-1.852-1.507H30.457v-.98h7.7l-2.381-4.477-2.9,4.169-.88.028,3.079-5.456-5.106-.557a.573.573,0,0,0-.29.128c-.516.3-1.623,1.763-2.159,2.039-.358.184-.6-.194-.192-.612.443-.452,2.1-1.684,2.3-2.045.252-.451-.14-1.591,1.076-1.728.948.253,3.663-.049,4.29.544.261.247.339.622.731.948a5.974,5.974,0,0,0,1.938.861h3.568c-.411,1.1-2.554,3.786-2.511,4.816a1.835,1.835,0,0,0,3.062,1.263l4.136-7.059c.428-.794.122-1.372-.209-2.1a16.437,16.437,0,0,1,4.9-.7c.08-.078-.541-2.04-1.118-1.537l-.143-.9c0-.11,1.036-.356,1.2-.086l6.2,13.12c.06.249-.71.615-.826.545l-3.147-6.663-.246-.109c-.233.008-.605.254-.731.254H45.5l-.207.21.207.21Z" transform="translate(-23.32 -105.484)" fill="#fff"/>
        <path id="Trazado_1268911" data-name="Trazado 1268911" d="M87.057,103.716a3.089,3.089,0,0,1-2.137-1.781c-.4-1.959,1.705-6.761,3.419-7.852,1.659-1.056,3.674-.1,3.124,1.936-.744-.8-2.362-1.915-2.951-.354-.438,1.165,1.2,1.815,1.814,2.541l-1.1,2.711h5.248c.582,0,1.212,1.407.843,1.963l-4.125,7.068a1.425,1.425,0,0,1-2.391-1.266c.106-1.112,2.358-3.663,2.665-4.967-1.333-.157-3.138.212-4.408,0" transform="translate(-72.994 -80.544)" fill="#fff"/>
        <path id="Trazado_1268912" data-name="Trazado 1268912" d="M203.33,182.536l-.722-1.8c5.607-1.28,8.72,6.615,3.641,9.307-5.569,2.952-10.305-4.63-5.39-8.466l.772,1.62c.02.363-.529.809-.708,1.241a3.143,3.143,0,1,0,2.406-1.907" transform="translate(-170.984 -155.328)" fill="#fff"/>
        <path id="Trazado_1268913" data-name="Trazado 1268913" d="M32.253,181.3l-.97,1.605a3.267,3.267,0,0,0-4.033,2.414c-.7,4.111,5.114,5.261,6.216,1.29l1.727.006c-.369,4.314-6,5.882-8.735,2.507a5.029,5.029,0,0,1,5.8-7.823" transform="translate(-21.758 -155.611)" fill="#fff"/>
        <path id="Trazado_1268914" data-name="Trazado 1268914" d="M267.222,100.539c.071-.064.027-.687.505-.686a.566.566,0,0,1,.467.738l-1.935,5.459c-.192.356-.811.208-.967-.126l-.013-.815-8.95-5.187-.279-.41c.034-.365.2-.613.591-.584Zm-4.042-.121-2.989-.4-.521,1.3,2.809,1.488Z" transform="translate(-220.22 -85.082)" fill="#fff"/>
        <path id="Trazado_1268915" data-name="Trazado 1268915" d="M15.753.121l2.9,5.007a.512.512,0,0,1,.009.554c-.483.77-.883-.231-.937-.263-.452-.267-8.694,3.2-9.908,3.421-.672.245-1.134-.426-.644-.932L15.089,1c-.45-.6-.017-1.274.664-.875M13.83,6.238,12.5,4,10.214,6.05c.108.325.387,1.157.739,1.167Z" transform="translate(-5.994 -0.001)" fill="#fff"/>
        <path id="Trazado_1268916" data-name="Trazado 1268916" d="M135.34,70.59c3.892-.564,3.959,5.989-.284,5.116-2.637-.542-2.513-4.71.284-5.116" transform="translate(-114.523 -60.682)" fill="#fff"/>
        <path id="Trazado_1268917" data-name="Trazado 1268917" d="M112.7,104.56a1.468,1.468,0,0,1,.516-.025c.728.094,2.722,2.32,3.526,2.763,1.254-.1,2.678-.6,3.907-.666,1.725-.1,2.193,2.288.825,2.378-.456.03-.666-.423-1.246-.432-1.232-.019-2.869.794-4.174.545l-3.8-3.2a.829.829,0,0,1,.444-1.365" transform="translate(-96.367 -89.897)" fill="#fff"/>
        <path id="Trazado_1268918" data-name="Trazado 1268918" d="M252.53,150.87c.223-.208.238.046.292.194.1.277.46,1.837.547,1.9l2.236-1.819-.418,2.8,2.517-.419-1.677,2.237,2.378.839-2.938.982,1.119,1.817-2.379-.419.231-.548.889.127-.7-1.256,1.958-.772-1.678-.491,1.4-1.676-1.958.277.419-1.957-1.677,1.258-.423-1.539-.768,1.257-1.188-1.257.077.982-.637.138-.139-2.939,1.748,1.956Z" transform="translate(-215.025 -129.517)" fill="#fff"/>
        <path id="Trazado_1268919" data-name="Trazado 1268919" d="M213.748,138.574c.877-.171,1.044.238,1.139,1.034.138,1.159-.121,2.9-1.593,1.874a1.643,1.643,0,0,1,.454-2.908" transform="translate(-182.859 -119.149)" fill="#fff"/>
        <path id="Trazado_1268920" data-name="Trazado 1268920" d="M80.523,193.365c-.5-.059-1.141.088-1.61,0-.418-.077-.657-.977-.908-1.33l.914-1.469c.471-.114,1.8,2.247,1.6,2.8" transform="translate(-67.089 -163.897)" fill="#fff"/>
        <rect id="Rectángulo_459373" data-name="Rectángulo 459373" width="9.376" height="0.28" transform="translate(0 15.755)" fill="#fff"/>
        <rect id="Rectángulo_459374" data-name="Rectángulo 459374" width="6.577" height="0.28" transform="translate(4.058 16.315)" fill="#fff"/>
        <rect id="Rectángulo_459375" data-name="Rectángulo 459375" width="6.577" height="0.14" transform="translate(5.457 15.195)" fill="#fff"/>
      </g>
    </g>
  </g>
</svg>
