<svg xmlns="http://www.w3.org/2000/svg" xmlns:xlink="http://www.w3.org/1999/xlink" width="292" height="222" viewBox="0 0 292 222">
  <defs>
    <clipPath id="clip-path">
      <rect id="Rectángulo_459368" data-name="Rectángulo 459368" width="292" height="222" transform="translate(1017.711 1562)" fill="#fff" stroke="#707070" stroke-width="1"/>
    </clipPath>
    <clipPath id="clip-path-2">
      <rect id="Rectángulo_459367" data-name="Rectángulo 459367" width="238.789" height="215.976" fill="none"/>
    </clipPath>
  </defs>
  <g id="Enmascarar_grupo_1180271" data-name="Enmascarar grupo 1180271" transform="translate(-1017.711 -1562)" clip-path="url(#clip-path)">
    <g id="Grupo_1209107" data-name="Grupo 1209107" transform="translate(1044.711 1565)">
      <g id="Grupo_1209106" data-name="Grupo 1209106" clip-path="url(#clip-path-2)">
        <path id="Trazado_1268802" data-name="Trazado 1268802" d="M314.916,85.017l-7.034-3.17L326.3,62.159a4.5,4.5,0,0,0,1.4-3.372,1.911,1.911,0,0,0-.874-1.438l-5.99-4.033a3.651,3.651,0,1,1,4.078-6.058l5.992,4.036a9.163,9.163,0,0,1,4.048,6.669,11.659,11.659,0,0,1-3.325,9.185Z" transform="translate(-96.233 -14.577)" fill="#8c8b8b"/>
        <path id="Trazado_1268803" data-name="Trazado 1268803" d="M320.64,79.817c3.162-3.252,6.714-6.214,9.4-9.892a47.277,47.277,0,0,0,5.725-10.208,9.374,9.374,0,0,1,.582,2.336,11.664,11.664,0,0,1-3.325,9.185L316.306,89.106l-3.977-1.793a58.338,58.338,0,0,0,8.311-7.5" transform="translate(-97.623 -18.665)" fill="#757474"/>
        <path id="Trazado_1268804" data-name="Trazado 1268804" d="M322.112,50.986l-11.788-3.4,7.291-11.849,9.113,7.385s.554,1.809-1,4.589c-1.716,3.073-3.619,3.273-3.619,3.273" transform="translate(-96.996 -11.171)" fill="#272228"/>
        <path id="Trazado_1268805" data-name="Trazado 1268805" d="M313.58,45.991c3.528,1.8,7.506,4.353,11.567,5.812-1.537,2.185-3.036,2.346-3.036,2.346l-11.788-3.4,3.009-4.891c.082.043.165.089.248.131" transform="translate(-96.996 -14.334)" fill="#1f1a1f"/>
        <path id="Trazado_1268806" data-name="Trazado 1268806" d="M308.866,38.79c-1.956,3.33-1.837,7.029.264,8.262s5.387-.467,7.343-3.8,1.837-7.029-.263-8.262-5.389.466-7.345,3.8" transform="translate(-96.105 -10.812)" fill="#352f38"/>
        <path id="Trazado_1268807" data-name="Trazado 1268807" d="M311.761,41.21c-1.038,1.767-.975,3.731.14,4.383s2.858-.247,3.9-2.014.975-3.729-.14-4.383-2.858.247-3.9,2.014" transform="translate(-97.214 -12.184)" fill="#141013"/>
        <path id="Trazado_1268808" data-name="Trazado 1268808" d="M241.986,106.974l16.953,4.219c4.36,1.084,11.126-.915,14.2-4.2L288.12,90.983s2.152-.949,5.3,1.649,2.162,4.538,2.162,4.538L280.2,113.607c-5.467,5.844-15.831,8.907-23.6,6.975l-16.951-4.219a4.837,4.837,0,0,1,2.335-9.388" transform="translate(-73.759 -28.385)" fill="#272228"/>
        <path id="Trazado_1268809" data-name="Trazado 1268809" d="M268.811,119.06c5.227-2.527,9.557-7.019,14-10.712,3.433-2.851,7.374-7.877,12.4-7.718L280.2,116.674c-5.468,5.844-15.832,8.906-23.6,6.975L239.65,119.43a4.84,4.84,0,0,1-3.526-5.862,4.555,4.555,0,0,1,.164-.521c9.749,3.819,22.958,10.641,32.523,6.014" transform="translate(-73.759 -31.452)" fill="#211d21"/>
        <path id="Trazado_1268810" data-name="Trazado 1268810" d="M293.378,97.857s-9.251,14.435-16.207,16.534c-7.883,2.379-15.691-.992-15.691-.992s7.714,2.813,15.321-.17c6.165-2.42,16.577-15.372,16.577-15.372" transform="translate(-81.729 -30.587)" fill="#322c34"/>
        <path id="Trazado_1268811" data-name="Trazado 1268811" d="M329.485,69.37s-4.027,4.521-6.36,7.081-6.941,7.114-6.941,7.114a97.306,97.306,0,0,0,7.683-6.634,88.506,88.506,0,0,0,5.618-7.561" transform="translate(-98.828 -21.683)" fill="#bababa"/>
        <path id="Trazado_1268812" data-name="Trazado 1268812" d="M203.307,34.628l7.034,3.17,2.547-26.84a4.5,4.5,0,0,1,1.6-3.284,1.9,1.9,0,0,1,1.653-.3l6.993,1.816a3.651,3.651,0,0,0,1.835-7.067L217.976.309A9.17,9.17,0,0,0,210.3,1.693a11.671,11.671,0,0,0-4.681,8.575Z" transform="translate(-63.547 0)" fill="#8c8b8b"/>
        <path id="Trazado_1268813" data-name="Trazado 1268813" d="M207.392,25.492c.344-4.524.212-9.143,1.186-13.6A47.21,47.21,0,0,1,212.433.845,9.5,9.5,0,0,0,210.3,1.957a11.667,11.667,0,0,0-4.681,8.575l-2.311,24.36,3.975,1.791a58.726,58.726,0,0,1,.11-11.191" transform="translate(-63.547 -0.264)" fill="#757474"/>
        <path id="Trazado_1268814" data-name="Trazado 1268814" d="M306.454,206.113a17.333,17.333,0,1,1-8.679-22.924,17.332,17.332,0,0,1,8.679,22.924" transform="translate(-85.428 -56.779)" fill="#5d5c5c"/>
        <path id="Trazado_1268815" data-name="Trazado 1268815" d="M305.486,206.205a15.212,15.212,0,1,1-7.617-20.119,15.211,15.211,0,0,1,7.617,20.119" transform="translate(-86.393 -57.743)" fill="#a3a3a3"/>
        <path id="Trazado_1268816" data-name="Trazado 1268816" d="M302.96,206.449a9.684,9.684,0,1,1-4.849-12.806,9.684,9.684,0,0,1,4.849,12.806" transform="translate(-88.908 -60.258)" fill="#5f5f5e"/>
        <path id="Trazado_1268817" data-name="Trazado 1268817" d="M301.676,206.572a6.873,6.873,0,1,1-3.442-9.089,6.873,6.873,0,0,1,3.442,9.089" transform="translate(-90.186 -61.536)" fill="#464545"/>
        <path id="Trazado_1268818" data-name="Trazado 1268818" d="M230.266,9.917,240.62,16.5l4.046-13.311L233.1,1.251s-1.721.784-2.778,3.786c-1.167,3.322-.055,4.88-.055,4.88" transform="translate(-71.824 -0.391)" fill="#272228"/>
        <path id="Trazado_1268819" data-name="Trazado 1268819" d="M242.031,13.1c-3.685-1.45-8.233-2.738-12.016-4.816-.619,2.6.253,3.83.253,3.83L240.622,18.7l1.67-5.5-.262-.1" transform="translate(-71.825 -2.59)" fill="#1f1a1f"/>
        <path id="Trazado_1268820" data-name="Trazado 1268820" d="M251.235,12.205c-1.2,3.671-4.05,6.033-6.365,5.275s-3.22-4.343-2.018-8.017,4.049-6.032,6.365-5.275,3.219,4.346,2.018,8.018" transform="translate(-75.741 -1.265)" fill="#352f38"/>
        <path id="Trazado_1268821" data-name="Trazado 1268821" d="M250.276,13.013c-.638,1.948-2.149,3.2-3.377,2.8s-1.709-2.306-1.072-4.254,2.149-3.2,3.377-2.8,1.708,2.3,1.072,4.254" transform="translate(-76.749 -2.714)" fill="#141013"/>
        <path id="Trazado_1268822" data-name="Trazado 1268822" d="M229.233,91.318l-14.39-9.905c-3.7-2.548-6.684-8.942-6.258-13.415l2.073-21.834s-.716-2.24-4.743-2.876-4.835,1.387-4.835,1.387l-2.128,22.41c-.755,7.965,3.813,17.759,10.4,22.3l14.39,9.907a5.051,5.051,0,0,0,.76.428,4.838,4.838,0,0,0,4.725-8.4" transform="translate(-62.16 -13.492)" fill="#272228"/>
        <path id="Trazado_1268823" data-name="Trazado 1268823" d="M204.707,78.123c-1.567-5.586-1.07-11.807-1.248-17.585-.139-4.461,1.017-10.741-2.429-14.4l-2.076,21.875c-.755,7.965,3.813,17.76,10.4,22.3l14.389,9.907a5.091,5.091,0,0,0,.761.428,4.826,4.826,0,0,0,6.25-2.138c-9.32-4.775-23.18-10.152-26.051-20.385" transform="translate(-62.16 -14.421)" fill="#211d21"/>
        <path id="Trazado_1268824" data-name="Trazado 1268824" d="M200.664,209.037l-2.194-.989a18.57,18.57,0,0,1-9.291-24.532l27.7-61.468a4.838,4.838,0,0,1,8.821,3.975L198,187.493a8.881,8.881,0,0,0,4.446,11.735l2.192.989a8.884,8.884,0,0,0,11.737-4.444l8.653-19.2a18.572,18.572,0,0,1,24.534-9.289l15.062,6.788a4.837,4.837,0,0,1-3.975,8.82L245.586,176.1a8.885,8.885,0,0,0-11.738,4.445l-8.653,19.2a18.57,18.57,0,0,1-24.532,9.288" transform="translate(-58.619 -37.257)" fill="#272228"/>
        <path id="Trazado_1268825" data-name="Trazado 1268825" d="M286.229,205.775c-3.244-.5-11.06-4.065-14.251-3.8l15.062,6.788a4.828,4.828,0,0,0,6.818-4.482c-2.747,1.455-4.293,2.009-7.629,1.5" transform="translate(-85.011 -63.125)" fill="#211d21"/>
        <path id="Trazado_1268826" data-name="Trazado 1268826" d="M190.992,190.7a87.268,87.268,0,0,1,14.55-35.974c.714-1.535,1.434-3.068,2.147-4.6,2.558-5.47,5.3-11.442,9.355-16,2.183-2.456,5-4.057,7.652-5.867l1.007-2.233a4.838,4.838,0,0,0-8.821-3.975l-27.7,61.468a18.577,18.577,0,0,0,4.11,21.038,21.686,21.686,0,0,1-2.3-13.855" transform="translate(-58.62 -37.257)" fill="#211d21"/>
        <path id="Trazado_1268827" data-name="Trazado 1268827" d="M223.029,221.636c6.16-4.782,9.507-12.994,13.147-19.683a74.25,74.25,0,0,1,10.006-14.363A18.518,18.518,0,0,0,233.77,197.95l-8.653,19.2a8.88,8.88,0,0,1-9.6,5.088,6.372,6.372,0,0,0,7.515-.6" transform="translate(-67.362 -58.634)" fill="#211d21"/>
        <path id="Trazado_1268828" data-name="Trazado 1268828" d="M242.946,120.609a6.037,6.037,0,0,1-6.253,1.062l-5.343-2.409A6.035,6.035,0,0,1,228,113.874l.685-11.609c.123-2.079,1.829-3.054,3.791-2.17L250.3,108.13c1.963.884,2.362,2.809.885,4.277Z" transform="translate(-71.264 -31.184)" fill="#1c181c"/>
        <path id="Trazado_1268829" data-name="Trazado 1268829" d="M231.066,115.805c-2.364-4.459-1.465-11.354-.959-15.723a2.5,2.5,0,0,0-1.42,2.281L228,113.972a6.034,6.034,0,0,0,3.346,5.388l5.344,2.409a5.734,5.734,0,0,0,3.105.371c-3.2-2.565-7.391-3.8-8.732-6.335" transform="translate(-71.264 -31.282)" fill="#131012"/>
        <path id="Trazado_1268830" data-name="Trazado 1268830" d="M247.729,111.23l-12.216-5.506a1.7,1.7,0,0,0-2.6,1.486l-.469,7.956a4.134,4.134,0,0,0,2.292,3.693l3.664,1.651a4.131,4.131,0,0,0,4.284-.728l5.651-5.62a1.7,1.7,0,0,0-.608-2.931m-.907,2.917-4.725,4.7a3.455,3.455,0,0,1-3.581.609l-3.064-1.381a3.461,3.461,0,0,1-1.917-3.087l.393-6.652a1.42,1.42,0,0,1,2.171-1.245l10.215,4.6a1.421,1.421,0,0,1,.507,2.452" transform="translate(-72.653 -32.976)" fill="#0d090a"/>
        <path id="Trazado_1268831" data-name="Trazado 1268831" d="M212.322,54.985s-4.688,16.491-1.655,23.094c3.44,7.48,11.137,11.1,11.137,11.1s-7.215-3.915-10.017-11.59c-2.273-6.221.535-22.6.535-22.6" transform="translate(-65.528 -17.186)" fill="#322c34"/>
        <path id="Trazado_1268832" data-name="Trazado 1268832" d="M215.63,15.4s-.72,6.014-1.092,9.456-.733,9.913-.733,9.913a96.858,96.858,0,0,1-.119-10.148A88.9,88.9,0,0,1,215.63,15.4" transform="translate(-66.757 -4.813)" fill="#bababa"/>
        <path id="Trazado_1268833" data-name="Trazado 1268833" d="M244.27,106.032l10.569,5.242s1.514,1.788.251,2.876a59.728,59.728,0,0,0-4.312,4.91s3.916-5.6,2.461-7.031-8.969-6-8.969-6" transform="translate(-76.35 -33.142)" fill="#272228"/>
        <path id="Trazado_1268834" data-name="Trazado 1268834" d="M242.508,119.754s-1.3,1.265-2.612.811a21.664,21.664,0,0,1-3.9-1.9,3.472,3.472,0,0,1-1.45-2.753c.075-1.261.471-6.6.471-6.6s.427,5.431,1.972,7.152,5.515,3.3,5.515,3.3" transform="translate(-73.311 -34.165)" fill="#131012"/>
        <path id="Trazado_1268835" data-name="Trazado 1268835" d="M222.209,152.1,203.193,194.29s3.8-11.7,7.233-18.995,11.783-23.2,11.783-23.2" transform="translate(-63.511 -47.541)" fill="#322c34"/>
        <path id="Trazado_1268836" data-name="Trazado 1268836" d="M200.251,226.3s1.664,4.729,5.35,6.685a36.27,36.27,0,0,0,8.52,2.909s-4.836,1.255-8.7-1.076-5.167-8.519-5.167-8.519" transform="translate(-62.591 -70.733)" fill="#322c34"/>
        <path id="Trazado_1268837" data-name="Trazado 1268837" d="M262.235,188.456s6.558-.816,9.755.92,15.689,7.049,15.689,7.049-13.11-4.266-16.651-5.568a78.039,78.039,0,0,0-8.794-2.4" transform="translate(-81.965 -58.845)" fill="#322c34"/>
        <path id="Rectángulo_459353" data-name="Rectángulo 459353" d="M18.051,0h99.1a18.052,18.052,0,0,1,18.052,18.052V149.819a18.052,18.052,0,0,1-18.052,18.052h-99.1A18.052,18.052,0,0,1,0,149.819V18.051A18.051,18.051,0,0,1,18.051,0Z" transform="translate(0 28.861)" fill="#29180d"/>
        <path id="Rectángulo_459354" data-name="Rectángulo 459354" d="M17.313,0h95.063a17.316,17.316,0,0,1,17.316,17.316V143.707a17.316,17.316,0,0,1-17.316,17.316H17.315A17.315,17.315,0,0,1,0,143.708V17.313A17.313,17.313,0,0,1,17.313,0Z" transform="translate(5.514 28.861)" fill="#432819"/>
        <path id="Trazado_1268838" data-name="Trazado 1268838" d="M134.212,187.936a10.724,10.724,0,0,1-10.727,10.724h-95.4a10.723,10.723,0,0,1-10.725-10.724V64.3A10.724,10.724,0,0,1,28.086,53.579h95.4A10.725,10.725,0,0,1,134.212,64.3Z" transform="translate(-5.426 -16.747)" fill="#e8e8e8"/>
        <path id="Trazado_1268839" data-name="Trazado 1268839" d="M125.715,56.349a8.92,8.92,0,0,1-8.834,9.006H56.469a9.007,9.007,0,0,1,0-18.011h60.412A8.92,8.92,0,0,1,125.715,56.349Z" transform="translate(-14.891 -14.798)" fill="none" stroke="#9c9c9c" stroke-miterlimit="10" stroke-width="3"/>
        <path id="Trazado_1268840" data-name="Trazado 1268840" d="M111.141,53.171H65.814c-5.689,0-9.652-2.414-9.652-7.583V31.8h66.185V45.588c0,5.515-7.411,7.583-11.206,7.583" transform="translate(-17.554 -9.939)" fill="#bababa"/>
        <path id="Trazado_1268841" data-name="Trazado 1268841" d="M123.787,28.4a3.75,3.75,0,0,1-3.75,3.75H55.147a3.749,3.749,0,1,1,0-7.5h64.89a3.749,3.749,0,0,1,3.75,3.748" transform="translate(-16.065 -7.706)" fill="#9c9c9c"/>
        <path id="Trazado_1268842" data-name="Trazado 1268842" d="M78.24,44.53a4.4,4.4,0,1,1-4.4-4.4,4.4,4.4,0,0,1,4.4,4.4" transform="translate(-21.708 -12.544)" fill="#9c9c9c"/>
        <path id="Trazado_1268843" data-name="Trazado 1268843" d="M137.661,44.53a4.4,4.4,0,1,1-4.4-4.4,4.4,4.4,0,0,1,4.4,4.4" transform="translate(-40.281 -12.544)" fill="#9c9c9c"/>
        <path id="Trazado_1268844" data-name="Trazado 1268844" d="M113.167,40.888a.755.755,0,0,1-.753.755H86a.754.754,0,0,1,0-1.509h26.413a.755.755,0,0,1,.753.754" transform="translate(-26.645 -12.544)" fill="#9c9c9c"/>
        <path id="Trazado_1268845" data-name="Trazado 1268845" d="M113.167,47a.755.755,0,0,1-.753.754H86a.754.754,0,0,1,0-1.509h26.413a.754.754,0,0,1,.753.755" transform="translate(-26.645 -14.455)" fill="#9c9c9c"/>
        <path id="Trazado_1268846" data-name="Trazado 1268846" d="M113.167,53.113a.754.754,0,0,1-.753.753H86a.754.754,0,0,1,0-1.508h26.413a.755.755,0,0,1,.753.755" transform="translate(-26.645 -16.365)" fill="#9c9c9c"/>
        <path id="Trazado_1268847" data-name="Trazado 1268847" d="M141.172,103.442a1.912,1.912,0,1,1-1.913-1.912,1.913,1.913,0,0,1,1.913,1.912" transform="translate(-42.93 -31.735)" fill="#272228"/>
        <path id="Trazado_1268848" data-name="Trazado 1268848" d="M138.247,106.02s.91,25.839.958,26.777a.336.336,0,0,0,.672,0l.936-26.777" transform="translate(-43.211 -33.138)" fill="#272228"/>
        <path id="Trazado_1268849" data-name="Trazado 1268849" d="M134.439,119.5a.835.835,0,0,0-.313-.014,1.369,1.369,0,0,0-.767.277.474.474,0,0,0-.163.351v.016c0,.019,0,.045,0,.03h0a.246.246,0,0,0,.025.049.767.767,0,0,0,.2.186,3.447,3.447,0,0,0,.858.386,10.047,10.047,0,0,0,1.149.286c.41.083.845.156,1.314.236s.957.174,1.462.288a13.384,13.384,0,0,1,1.558.44,7.358,7.358,0,0,1,.813.349,3.525,3.525,0,0,1,.847.584,1.949,1.949,0,0,1,.4.534,1.515,1.515,0,0,1,.077.177,1.147,1.147,0,0,1,.056.2,1.027,1.027,0,0,1,.034.209l0,.107v.068l0,.026v.052c0,.017,0,.067-.01.1a1.089,1.089,0,0,1-.037.2,1.652,1.652,0,0,1-.131.359,1.756,1.756,0,0,1-.455.565,2.714,2.714,0,0,1-1.005.484,7.884,7.884,0,0,1-.91.181c-.59.085-1.159.159-1.716.278a14.417,14.417,0,0,0-1.651.445,3.745,3.745,0,0,0-.678.307,1.03,1.03,0,0,0-.2.163.226.226,0,0,0-.067.118.5.5,0,0,0-.016.151v.042c0,.043,0-.054,0-.038v.013l.005.054v.027c0,.01,0,0,0,0,0-.047-.005-.034,0-.036a.257.257,0,0,0,.061.056,1.357,1.357,0,0,0,.208.121,3.521,3.521,0,0,0,.659.214c.245.059.507.107.773.144.523.071,1.11.15,1.645.2a7.254,7.254,0,0,1,.891.131,2.337,2.337,0,0,1,1.04.5,1.782,1.782,0,0,1,.412.558,1.962,1.962,0,0,1,.166.61,2.7,2.7,0,0,1,.011.276l0,.1-.007.047-.012.089c-.005.038-.012.083-.019.113a1.633,1.633,0,0,1-.295.616,2.654,2.654,0,0,1-.751.643,6.133,6.133,0,0,1-.712.364c-.459.2-.9.347-1.3.5s-.786.285-1.116.439a2.608,2.608,0,0,0-.428.243.625.625,0,0,0-.209.218.056.056,0,0,0-.01.021l0,0v-.019l0,.008v.127a.433.433,0,0,0,.034.146.949.949,0,0,0,.207.306,2.655,2.655,0,0,0,.625.461,6.883,6.883,0,0,0,1.068.461c.254.089.4.126.4.126s-.147,0-.42-.03a6.168,6.168,0,0,1-1.183-.235,3.057,3.057,0,0,1-.821-.382,1.514,1.514,0,0,1-.408-.415,1.175,1.175,0,0,1-.142-.325l-.021-.1-.012-.064-.007-.032v-.072a.585.585,0,0,1,0-.11,1.211,1.211,0,0,1,.367-.687,3.478,3.478,0,0,1,.516-.424,11.658,11.658,0,0,1,1.123-.659c.384-.208.782-.415,1.162-.645a4.747,4.747,0,0,0,.522-.356,1.23,1.23,0,0,0,.329-.349c.047-.02-.062-.379-.124-.388a1.069,1.069,0,0,0-.376-.187,5.619,5.619,0,0,0-.695-.162c-.257-.044-.551-.091-.8-.126l-.835-.1a6.711,6.711,0,0,1-1.861-.426,2.336,2.336,0,0,1-.526-.315,1.64,1.64,0,0,1-.481-.6,1.505,1.505,0,0,1-.127-.445l-.009-.059v-.027l0-.054,0-.013c0,.007,0-.1,0-.065l0-.04.005-.08a1.852,1.852,0,0,1,.183-.685,1.725,1.725,0,0,1,.456-.564,2.189,2.189,0,0,1,.525-.309,4.856,4.856,0,0,1,.961-.278c.606-.119,1.175-.208,1.736-.335s1.134-.273,1.655-.449a7.17,7.17,0,0,0,.729-.285,1.689,1.689,0,0,0,.479-.3.19.19,0,0,0,.06-.087.092.092,0,0,0,.009-.031c0-.01,0-.01,0,0s0,.012,0-.005l0-.052v-.009l0,0,0,.005h0a.02.02,0,0,0,0-.01.432.432,0,0,0-.094-.116,2.349,2.349,0,0,0-.481-.331,5.521,5.521,0,0,0-.635-.291,13.234,13.234,0,0,0-1.373-.457c-.463-.13-.921-.244-1.369-.343s-.906-.2-1.342-.309-.857-.233-1.26-.376a4.71,4.71,0,0,1-1.169-.579,1.936,1.936,0,0,1-.519-.536,1.361,1.361,0,0,1-.174-.394,1.25,1.25,0,0,1-.036-.233.785.785,0,0,1,0-.086V120.1l0-.042a1.813,1.813,0,0,1,.5-1.152,2.733,2.733,0,0,1,.729-.546,5.258,5.258,0,0,1,.562-.258,5.026,5.026,0,0,1,.507-.173Z" transform="translate(-41.249 -36.86)" fill="#272228"/>
        <path id="Trazado_1268850" data-name="Trazado 1268850" d="M136.742,118.264c.129.572-.472.942-1.237,1.118s-1.392.091-1.525-.482.378-1.178,1.143-1.354a1.279,1.279,0,0,1,1.619.717" transform="translate(-41.871 -36.726)" fill="#272228"/>
        <path id="Trazado_1268851" data-name="Trazado 1268851" d="M141.189,119.5a.854.854,0,0,1,.313-.014,1.365,1.365,0,0,1,.766.277.476.476,0,0,1,.163.351v.016c0,.019,0,.045,0,.03s0,0,0,0a.179.179,0,0,1-.024.049.739.739,0,0,1-.2.186,3.419,3.419,0,0,1-.859.386,10.179,10.179,0,0,1-1.146.286c-.414.083-.849.156-1.316.236s-.96.174-1.46.288a13.227,13.227,0,0,0-1.558.44,7.329,7.329,0,0,0-.815.349,3.557,3.557,0,0,0-.848.584,1.983,1.983,0,0,0-.4.534.9.9,0,0,0-.08.177,1.089,1.089,0,0,0-.057.2,1.256,1.256,0,0,0-.031.209l-.009.107c0-.021,0,.06,0,.055l0,.013v.078c0,.017.009.067.01.1a1.776,1.776,0,0,0,.034.2,1.632,1.632,0,0,0,.135.359,1.715,1.715,0,0,0,.456.565,2.692,2.692,0,0,0,1,.484,7.848,7.848,0,0,0,.912.181c.591.085,1.155.159,1.715.278a14.086,14.086,0,0,1,1.646.445,3.539,3.539,0,0,1,.678.307.918.918,0,0,1,.2.163.251.251,0,0,1,.066.118.458.458,0,0,1,.02.151l0,.027v.014c0,.043,0-.054,0-.038v.013l0,.054,0,.027c0,.01,0,0,0,0,0-.047.005-.034,0-.036a.224.224,0,0,1-.059.056,1.455,1.455,0,0,1-.21.121,3.488,3.488,0,0,1-.658.214c-.247.059-.508.107-.774.144-.525.071-1.114.15-1.645.2a7.323,7.323,0,0,0-.894.131,2.326,2.326,0,0,0-1.037.5,1.854,1.854,0,0,0-.414.558,1.935,1.935,0,0,0-.163.61,1.872,1.872,0,0,0-.01.276v.1l0,.047.013.089a1.109,1.109,0,0,0,.019.113,1.593,1.593,0,0,0,.294.616,2.7,2.7,0,0,0,.752.643,5.869,5.869,0,0,0,.711.364c.462.2.9.347,1.3.5s.786.285,1.114.439a2.68,2.68,0,0,1,.431.243.624.624,0,0,1,.208.218.037.037,0,0,1,.01.021l0,0c0-.008,0,.024,0-.019v.041l0,.065,0,.03a.466.466,0,0,1-.034.146.927.927,0,0,1-.207.306,2.708,2.708,0,0,1-.624.461,7.078,7.078,0,0,1-1.065.461c-.257.089-.4.126-.4.126s.146,0,.422-.03a6.169,6.169,0,0,0,1.179-.235,3.049,3.049,0,0,0,.826-.382,1.5,1.5,0,0,0,.406-.415,1.1,1.1,0,0,0,.142-.325l.021-.1.009-.064.009-.032,0-.01v-.063a.727.727,0,0,0-.006-.11,1.231,1.231,0,0,0-.366-.687,3.517,3.517,0,0,0-.517-.424,11.584,11.584,0,0,0-1.124-.659c-.386-.208-.785-.415-1.158-.645a4.325,4.325,0,0,1-.525-.356,1.16,1.16,0,0,1-.325-.349c-.052-.02.057-.379.123-.388a1.034,1.034,0,0,1,.373-.187,5.489,5.489,0,0,1,.694-.162c.258-.044.551-.091.8-.126l.835-.1a6.725,6.725,0,0,0,1.859-.426,2.29,2.29,0,0,0,.529-.315,1.708,1.708,0,0,0,.479-.6,1.426,1.426,0,0,0,.129-.445l.008-.059v-.027l0-.054v-.013c0,.007,0-.1,0-.065v-.04l0-.08a1.838,1.838,0,0,0-.188-.685,1.7,1.7,0,0,0-.455-.564,2.219,2.219,0,0,0-.529-.309,4.8,4.8,0,0,0-.958-.278c-.6-.119-1.176-.208-1.734-.335-.573-.132-1.136-.273-1.657-.449a6.972,6.972,0,0,1-.728-.285,1.674,1.674,0,0,1-.48-.3.2.2,0,0,1-.058-.087.068.068,0,0,1-.009-.031c0-.01,0-.01,0,0s0,.012,0-.005l0-.052v0h0s0,0,.006-.01a.454.454,0,0,1,.091-.116,2.4,2.4,0,0,1,.48-.331,5.783,5.783,0,0,1,.634-.291,13.74,13.74,0,0,1,1.374-.457q.7-.195,1.371-.343c.456-.1.909-.2,1.343-.309s.856-.233,1.261-.376a4.73,4.73,0,0,0,1.168-.579,1.886,1.886,0,0,0,.518-.536,1.35,1.35,0,0,0,.212-.627v-.185a1.838,1.838,0,0,0-.5-1.152,2.75,2.75,0,0,0-.731-.546,5.2,5.2,0,0,0-.562-.258,5.08,5.08,0,0,0-.505-.173Z" transform="translate(-41.768 -36.86)" fill="#272228"/>
        <path id="Trazado_1268852" data-name="Trazado 1268852" d="M142.175,118.264c-.131.572.472.942,1.235,1.118s1.391.091,1.523-.482-.377-1.178-1.139-1.354a1.276,1.276,0,0,0-1.619.717" transform="translate(-44.433 -36.726)" fill="#272228"/>
        <path id="Trazado_1268853" data-name="Trazado 1268853" d="M162.556,102.305c-1.023-.592-9.94-5.293-12.841-3.866-2.352,1.157-1.408,4.483-2.4,5.515-1.376,1.432-4.844.8-4.844.8l-.03.114-.065,1.514c1,.108,4.052.316,5.746-1.008,1.5-1.169,1.006-4.013,2.53-5.088,2.044-1.446,9.986,2.7,11.206,3.263s1.726-.652.7-1.242" transform="translate(-44.501 -30.685)" fill="#272228"/>
        <path id="Trazado_1268854" data-name="Trazado 1268854" d="M142.266,111.447l-.115,2.624c.831.252,2.366.676,2.689.456.36-.247-1.756-2.307-2.574-3.08" transform="translate(-44.431 -34.834)" fill="#272228"/>
        <path id="Trazado_1268855" data-name="Trazado 1268855" d="M153.37,102.433" transform="translate(-47.938 -32.017)" fill="#272228"/>
        <path id="Trazado_1268856" data-name="Trazado 1268856" d="M145.113,113.605a15.716,15.716,0,0,1-2.614-3c.213.019.483.04.793.054a13.59,13.59,0,0,0,1.576-.021,39.268,39.268,0,0,0,3.545,3.18c.608.4-1.926.647-3.3-.211" transform="translate(-44.54 -34.571)" fill="#272228"/>
        <path id="Trazado_1268857" data-name="Trazado 1268857" d="M149.819,113.215a28.728,28.728,0,0,1-3.175-2.935,6.807,6.807,0,0,0,2.341-.662,54.089,54.089,0,0,0,4.091,3.628c.6.406-1.881.828-3.257-.032" transform="translate(-45.836 -34.263)" fill="#272228"/>
        <path id="Trazado_1268858" data-name="Trazado 1268858" d="M153.958,111.918c-1.248-.779-1.532-1.148-3.425-3.136a3.482,3.482,0,0,0,.319-.223,2.809,2.809,0,0,0,.791-1.008c.827.674,4.616,3.755,5.573,4.4.607.4-1.882.826-3.258-.032" transform="translate(-47.051 -33.617)" fill="#272228"/>
        <path id="Trazado_1268859" data-name="Trazado 1268859" d="M157.274,109.835c-.995-.364-4.642-3.55-4.853-3.734a12.4,12.4,0,0,0,.379-1.277c.045-.176.091-.349.133-.519.907.626,6.432,4.446,7.535,4.892.676.272-1.67,1.194-3.2.638" transform="translate(-47.641 -32.602)" fill="#272228"/>
        <path id="Trazado_1268860" data-name="Trazado 1268860" d="M160.363,107.659c-1.042-.224-6.753-4.293-7.061-4.511a2.783,2.783,0,0,1,.933-1.526.093.093,0,0,0,.015-.013s7.93,4.663,9.187,4.977c.706.177-1.488,1.415-3.074,1.073" transform="translate(-47.917 -31.759)" fill="#272228"/>
        <path id="Trazado_1268861" data-name="Trazado 1268861" d="M163.329,105.763c-1.03-.283-7.622-4.257-7.908-4.446a3.293,3.293,0,0,1,.72-.038,6.954,6.954,0,0,1,2.473.508c.837.33,6.42,2.827,7.4,3.132.694.217-1.12,1.279-2.686.845" transform="translate(-48.579 -31.655)" fill="#272228"/>
        <path id="Trazado_1268862" data-name="Trazado 1268862" d="M108.246,102.305c1.024-.592,9.938-5.293,12.842-3.866,2.35,1.157,1.408,4.483,2.4,5.515,1.38,1.432,4.849.8,4.849.8l.026.114.067,1.514c-.993.108-4.052.316-5.745-1.008-1.494-1.169-1-4.013-2.528-5.088-2.046-1.446-9.988,2.7-11.207,3.263s-1.726-.652-.7-1.242" transform="translate(-33.662 -30.685)" fill="#272228"/>
        <path id="Trazado_1268863" data-name="Trazado 1268863" d="M136.723,111.447l.112,2.624c-.828.252-2.363.676-2.687.456-.361-.247,1.756-2.307,2.575-3.08" transform="translate(-41.917 -34.834)" fill="#272228"/>
        <path id="Trazado_1268864" data-name="Trazado 1268864" d="M126.86,102.433" transform="translate(-39.652 -32.017)" fill="#272228"/>
        <path id="Trazado_1268865" data-name="Trazado 1268865" d="M132.388,113.605a15.619,15.619,0,0,0,2.61-3c-.21.019-.479.04-.79.054a13.546,13.546,0,0,1-1.574-.021,39.312,39.312,0,0,1-3.55,3.18c-.6.4,1.93.647,3.3-.211" transform="translate(-40.319 -34.571)" fill="#272228"/>
        <path id="Trazado_1268866" data-name="Trazado 1268866" d="M127.444,113.215a28.6,28.6,0,0,0,3.175-2.935,6.839,6.839,0,0,1-2.344-.662,52.917,52.917,0,0,1-4.091,3.628c-.6.406,1.884.828,3.26-.032" transform="translate(-38.787 -34.263)" fill="#272228"/>
        <path id="Trazado_1268867" data-name="Trazado 1268867" d="M123.191,111.918c1.251-.779,1.534-1.148,3.426-3.136-.109-.069-.216-.144-.321-.223a2.847,2.847,0,0,1-.791-1.008c-.825.674-4.613,3.755-5.571,4.4-.6.4,1.881.826,3.257-.032" transform="translate(-37.458 -33.617)" fill="#272228"/>
        <path id="Trazado_1268868" data-name="Trazado 1268868" d="M119.242,109.835c1-.364,4.641-3.55,4.855-3.734a11.306,11.306,0,0,1-.379-1.277c-.048-.176-.091-.349-.139-.519-.9.626-6.428,4.446-7.534,4.892-.674.272,1.674,1.194,3.2.638" transform="translate(-36.234 -32.602)" fill="#272228"/>
        <path id="Trazado_1268869" data-name="Trazado 1268869" d="M115.2,107.659c1.042-.224,6.753-4.293,7.058-4.511a2.786,2.786,0,0,0-.929-1.526l-.016-.013s-7.93,4.663-9.19,4.977c-.7.177,1.492,1.415,3.078,1.073" transform="translate(-35.002 -31.759)" fill="#272228"/>
        <path id="Trazado_1268870" data-name="Trazado 1268870" d="M112.016,105.763c1.03-.283,7.626-4.257,7.91-4.446a3.317,3.317,0,0,0-.722-.038,6.992,6.992,0,0,0-2.475.508c-.834.33-6.417,2.827-7.4,3.132-.694.217,1.121,1.279,2.684.845" transform="translate(-34.126 -31.655)" fill="#272228"/>
        <rect id="Rectángulo_459355" data-name="Rectángulo 459355" width="44.476" height="5.214" transform="translate(25.276 60.797)" fill="#00a8c5"/>
        <rect id="Rectángulo_459356" data-name="Rectángulo 459356" width="44.476" height="5.215" transform="translate(25.276 72.323)" fill="#272228"/>
        <rect id="Rectángulo_459357" data-name="Rectángulo 459357" width="44.476" height="5.214" transform="translate(25.276 82.056)" fill="#272228"/>
        <rect id="Rectángulo_459358" data-name="Rectángulo 459358" width="44.476" height="5.214" transform="translate(25.276 91.79)" fill="#272228"/>
        <rect id="Rectángulo_459359" data-name="Rectángulo 459359" width="44.476" height="5.214" transform="translate(25.276 101.522)" fill="#272228"/>
        <rect id="Rectángulo_459360" data-name="Rectángulo 459360" width="90.631" height="5.214" transform="translate(25.276 111.256)" fill="#272228"/>
        <rect id="Rectángulo_459361" data-name="Rectángulo 459361" width="90.63" height="5.214" transform="translate(24.437 124.27)" fill="#272228"/>
        <rect id="Rectángulo_459362" data-name="Rectángulo 459362" width="90.63" height="5.214" transform="translate(23.598 137.283)" fill="#272228"/>
        <rect id="Rectángulo_459363" data-name="Rectángulo 459363" width="90.63" height="5.215" transform="translate(22.758 150.296)" fill="#272228"/>
        <path id="Trazado_1268871" data-name="Trazado 1268871" d="M186.455,156.732c.435-5.273,3.874-12.157,6.118-13.646s29.975-1.472,32.659,0,5.685,8.373,6.119,13.646h10.8c-1.2-6.613-4.219-14.22-8.758-17.235s-44.189-2.636-48.987,0-7.561,10.622-8.755,17.235Z" transform="translate(-54.903 -42.939)" fill="#5d5c5c"/>
        <path id="Trazado_1268872" data-name="Trazado 1268872" d="M180.687,157.645c-3.093-1.154-.975-7.408.122-12.217-2.629,3.673-4.3,9.088-5.156,13.821h8.337c-.307-.184-2.964-1.477-3.3-1.6" transform="translate(-54.903 -45.456)" fill="#515150"/>
        <path id="Trazado_1268873" data-name="Trazado 1268873" d="M243.32,155.719c-1.512-3.641-3.22-7.606-5.919-10.58-3.6-3.963-12.579-3.384-20.416-3.091-2.226.08-11.251,1.036-12.164,1.8,7.837-.812,27.3-.593,29.527.628,2.684,1.47,5.685,8.374,6.119,13.646h3.941c-.382-.791-.749-1.591-1.088-2.407" transform="translate(-64.02 -44.334)" fill="#515150"/>
        <path id="Trazado_1268874" data-name="Trazado 1268874" d="M269.008,165.495a2.123,2.123,0,0,1-1.887,2.3H253.791a2.34,2.34,0,0,1,0-4.591h13.329a2.121,2.121,0,0,1,1.887,2.295" transform="translate(-78.737 -51.011)" fill="#4a4a49"/>
        <path id="Rectángulo_459364" data-name="Rectángulo 459364" d="M13.718,0H133.486A13.718,13.718,0,0,1,147.2,13.718V86.445a13.719,13.719,0,0,1-13.719,13.719H13.719A13.719,13.719,0,0,1,0,86.445V13.718A13.718,13.718,0,0,1,13.718,0Z" transform="translate(76.901 115.812)" fill="#a30c14"/>
        <path id="Trazado_1268875" data-name="Trazado 1268875" d="M256.742,282.3c-6.167,6.566-14.926,8.6-23.665,9.064-12.635.673-25.393.06-38.05.325-20.534.431-40.726,1.934-59.55-7.725-9.1-4.671-17.536-11.206-23.611-19.39v24.665a9.427,9.427,0,0,0,9.427,9.43H249.639a9.43,9.43,0,0,0,9.431-9.43v-9.785a28.442,28.442,0,0,1-2.328,2.845" transform="translate(-34.965 -82.698)" fill="#960d12"/>
        <path id="Trazado_1268876" data-name="Trazado 1268876" d="M259.706,196.107c0,6.021-4.29,10.9-9.579,10.9H119.743c-5.289,0-9.579-4.88-9.579-10.9V179.37c0-6.019,4.29-10.9,9.579-10.9H250.126c5.29,0,9.579,4.881,9.579,10.9Z" transform="translate(-34.433 -52.657)" fill="#7b0810"/>
        <path id="Trazado_1268877" data-name="Trazado 1268877" d="M260.167,194.355a9.959,9.959,0,0,1-9.688,10.209H118.617a9.959,9.959,0,0,1-9.688-10.209V178.679a9.959,9.959,0,0,1,9.688-10.209H250.479a9.959,9.959,0,0,1,9.688,10.209Z" transform="translate(-34.047 -52.658)" fill="#a30c14"/>
        <path id="Trazado_1268878" data-name="Trazado 1268878" d="M251.33,209.505c-8.693,2.239-18.241-.56-27.011-1.839-10.127-1.477-20.873-4.525-31.1-4.185-10.815.36-21.473,1.413-32.241,2.464-8.728.852-23.06,1.379-31.825.5-8.073-.813-8.827,2.416-14.8-3.311-1.393-1.338-4.191-7.881-5.424-9.346v8.481a9.958,9.958,0,0,0,9.687,10.208H250.479a9.958,9.958,0,0,0,9.687-10.208v-1.81c-3.167,1.939-5.083,8.081-8.837,9.047" transform="translate(-34.047 -60.571)" fill="#8d0d11"/>
        <path id="Trazado_1268879" data-name="Trazado 1268879" d="M114.819,183.668c0-5.638,4.188-10.208,9.355-10.208H251.49a8.641,8.641,0,0,1,3.616.793,8.939,8.939,0,0,0-6.569-2.948H121.216c-5.163,0-9.35,4.571-9.35,10.208v15.676c1.02-8.99,2.953-13.52,2.953-13.52" transform="translate(-34.965 -53.544)" fill="#d00013"/>
        <rect id="Rectángulo_459365" data-name="Rectángulo 459365" width="16.954" height="16.954" transform="translate(142.025 145.873)" fill="#f27c00"/>
        <rect id="Rectángulo_459366" data-name="Rectángulo 459366" width="10.833" height="10.832" transform="translate(145.085 148.934)" fill="#fca01f"/>
        <path id="Trazado_1268880" data-name="Trazado 1268880" d="M269.008,165.495a2.123,2.123,0,0,1-1.887,2.3H253.791a2.34,2.34,0,0,1,0-4.591h13.329a2.121,2.121,0,0,1,1.887,2.295" transform="translate(-78.737 -51.011)" fill="#4a4a49"/>
        <path id="Trazado_1268881" data-name="Trazado 1268881" d="M251.906,166.507c0,.007,0,.014,0,.021a2.123,2.123,0,0,0,1.886,2.3h13.329a2.123,2.123,0,0,0,1.887-2.3v-.021Z" transform="translate(-78.737 -52.044)" fill="#414040"/>
        <path id="Trazado_1268882" data-name="Trazado 1268882" d="M189.15,165.495a2.124,2.124,0,0,1-1.89,2.3H173.934a2.339,2.339,0,0,1,0-4.591H187.26a2.122,2.122,0,0,1,1.89,2.295" transform="translate(-53.776 -51.011)" fill="#4a4a49"/>
        <path id="Trazado_1268883" data-name="Trazado 1268883" d="M189.15,165.495a2.124,2.124,0,0,1-1.89,2.3H173.934a2.339,2.339,0,0,1,0-4.591H187.26a2.122,2.122,0,0,1,1.89,2.295" transform="translate(-53.776 -51.011)" fill="#4a4a49"/>
        <path id="Trazado_1268884" data-name="Trazado 1268884" d="M172.049,166.507c0,.007,0,.014,0,.021a2.123,2.123,0,0,0,1.888,2.3H187.26a2.124,2.124,0,0,0,1.89-2.3c0-.007,0-.014,0-.021Z" transform="translate(-53.776 -52.044)" fill="#414040"/>
        <path id="Trazado_1268885" data-name="Trazado 1268885" d="M243.458,138.547s8.629.245,11.154,1.918c4.035,2.674,5.753,8.763,5.753,8.763s-2.809-5.8-6.766-7.906c-3.633-1.937-10.141-2.775-10.141-2.775" transform="translate(-76.096 -43.305)" fill="#828282"/>
        <path id="Trazado_1268886" data-name="Trazado 1268886" d="M185.841,141.368a14.212,14.212,0,0,1,3.229-1.967c2.251-.693,18.821-1.514,18.821-1.514s-18.013,1.815-19.477,2.371-2.573,1.11-2.573,1.11" transform="translate(-58.087 -43.099)" fill="#828282"/>
        <path id="Trazado_1268887" data-name="Trazado 1268887" d="M298.979,273.232a16.27,16.27,0,1,1-16.269-16.27,16.27,16.27,0,0,1,16.269,16.27" transform="translate(-83.28 -80.317)" fill="#fff"/>
        <path id="Trazado_1268888" data-name="Trazado 1268888" d="M296.033,270.885H289.1v-6.931h-8.221v6.931h-6.928V279.1h6.928v6.929H289.1V279.1h6.929Z" transform="translate(-85.629 -82.503)" fill="#00a4b6"/>
      </g>
    </g>
  </g>
</svg>
