<svg xmlns="http://www.w3.org/2000/svg" xmlns:xlink="http://www.w3.org/1999/xlink" width="69" height="69" viewBox="0 0 69 69">
  <defs>
    <clipPath id="clip-path">
      <rect id="Rectángulo_459377" data-name="Rectángulo 459377" width="41.969" height="42" fill="#fff"/>
    </clipPath>
  </defs>
  <g id="Grupo_1208275" data-name="Grupo 1208275" transform="translate(-304.711 -11338.09)">
    <circle id="Elipse_13679" data-name="Elipse 13679" cx="34.5" cy="34.5" r="34.5" transform="translate(304.711 11338.09)" fill="#6a2874"/>
    <g id="Grupo_1209120" data-name="Grupo 1209120" transform="translate(318.711 11351.09)">
      <g id="Grupo_1209119" data-name="Grupo 1209119" clip-path="url(#clip-path)">
        <path id="Trazado_1268921" data-name="Trazado 1268921" d="M0,28.56c.294-3.181,2.185-4.79,4.822-6.139,2.242-1.147,4.6-2.11,6.878-3.187A9.347,9.347,0,0,1,9.779,15.8c-.663-2.4-.625-8.2.295-10.517A8.561,8.561,0,0,1,25.657,4.77c1.1,2.283,1.035,6.212.885,8.755a9.3,9.3,0,0,1-2.3,5.708l8.084,3.789a6.757,6.757,0,0,1,1.806,1.447A10.14,10.14,0,0,0,24.968,37.4H0ZM19.178,15.023V12.8a4.463,4.463,0,0,0,1.558-7.691A4.341,4.341,0,0,0,13.63,8.526h2.412a1.934,1.934,0,1,1,3.831.393c-.257,1.429-1.923,1.69-3.108,1.532v4.572Zm0,2.647H16.766v2.406h2.412Z" transform="translate(0 0)" fill="#fff"/>
        <path id="Trazado_1268922" data-name="Trazado 1268922" d="M232.134,224.088c9.755-.412,10.529,14.306.926,15-10.141.736-10.885-14.583-.926-15m-1.726,3.7-1.747,1.743,2.046,2.045-2.04,2.149,1.724,1.632,2.067-2.035,2.155,2.035,1.636-1.72-2.04-2.062,2.046-2.045-1.747-1.743-2.051,2.041Z" transform="translate(-197.901 -197.117)" fill="#fff"/>
      </g>
    </g>
  </g>
</svg>
