<svg xmlns="http://www.w3.org/2000/svg" xmlns:xlink="http://www.w3.org/1999/xlink" width="187.711" height="127.653" viewBox="0 0 187.711 127.653">
  <defs>
    <clipPath id="clip-path">
      <rect id="Rectángulo_459381" data-name="Rectángulo 459381" width="107.339" height="105.718" fill="none"/>
    </clipPath>
  </defs>
  <g id="Grupo_1209822" data-name="Grupo 1209822" transform="translate(-290.711 -3733)">
    <g id="Grupo_1208289" data-name="Grupo 1208289" transform="translate(1.434 -5135.039)">
      <g id="Grupo_1204518" data-name="Grupo 1204518" transform="translate(289.277 8868.039)">
        <rect id="Rectángulo_455283" data-name="Rectángulo 455283" width="187.711" height="127.653" rx="19" fill="#e9c3ff"/>
      </g>
    </g>
    <g id="Grupo_1209127" data-name="Grupo 1209127" transform="translate(330.711 3744)">
      <g id="Grupo_1209126" data-name="Grupo 1209126" clip-path="url(#clip-path)">
        <path id="Trazado_1269017" data-name="Trazado 1269017" d="M80.585,9.38a49.584,49.584,0,0,0,4.665,3.091c1.455.4,2.656-1.069,5.493.164,4.947,2.151,5.469,7.006,6.5,11.421.084.359.754.371.974.663,1.042,1.383-.565,8.89-.279,11.021,4.215,3.179,7.635,6.771,9.177,11.974,5.53,18.662-16.255,33.415-31.62,21.835-12.881-9.708-9.654-29.67,5.289-35.218l.688-9.888c1.957-1.937.714-3.487.945-6a11.882,11.882,0,0,1,.941-3.3c-1.1-.083-3.918-2.863-4.568-2.864-.519,0-1.363.927-1.98,1.186-4.795,2.013-12.626.321-15.433-4.361-1.826.729-4.737-.066-6.417.819-.459.242-.792,1.133-1.262,1.579-4.053,3.842-10.26,5.184-15.253,2.3-.569-.33-2.153-1.737-2.315-1.769-.446-.088-4.949,1.5-5.117,2.039-.338,1.077-.132,2.787-.668,4.382-.343,1.02-2.452,4.154-2.437,4.4s.71.847.833,1.6c.547,3.348.029,6.981.705,10.341,3.195,1.891,5.731,3.52,7.955,6.565C49.681,58.176,32.1,80.2,12.858,71.581-2.4,64.746-2.735,42.592,12.2,35.328c.2-.313-.478-5.5-.509-6.459-.13-3.992-.83-5.848,4.115-5.223-.132-1.271-.607-2.294-.648-3.619-.167-5.5,5.4-13.526,11.464-12.4,2.2.408,3.342,2.764,3.573,2.781A28.273,28.273,0,0,0,35.223,8.5c.329-.555.232-1.631.843-2.629C39.167.794,49.81-.645,53.816,3.794c.528.586,1.152,2.277,1.663,2.449,1.035.351,3.628-.711,4.963-.252,1.24-9.4,18.941-6.659,20.051.8.108.723-.154,2.17.093,2.594M76.1,6.285c.578-.523-2.078-1.963-2.453-2.122-2.11-.892-8.429-1.717-9.538,1.023-.262.649.431.444.782.469,1.312.093,3.992-.622,3.982,1.422-.009,1.791-1.913,1.743-3.186,1.891a10.28,10.28,0,0,0,9.783,1.417c.15-.953-1.055-.775-1.425-1.582A1.866,1.866,0,0,1,76.1,6.285M51.48,6.6c.11-.566-.28-.788-.65-1.083-2.753-2.2-9.569-1.291-11.66,1.714,3.386-.243,3.48,2.147.948,3.787,2.5,1.332,7.7,1.165,9.772-.8.586-.555-.253-.643-.493-1.4C48.976,7.5,50.237,6.54,51.48,6.6M26.542,11.024c-4.987-1.657-10.888,9.889-6.623,11.829,3.456,1.571,8-4.871,7.885-8.041-.216-.225-2.3.934-2.952.867a1.832,1.832,0,0,1-.988-3.075c.711-.727,2.741-.367,2.677-1.58M93.775,23.963c.443-2.212-2.338-7.427-4.264-8.2-.659-.266-.553,1.42-1.725,1.768-.66.2-1.735-.338-1.9-.193-.548.483-.279,5.555.357,5.957.994.628,6.025.1,7.531.673M25.6,26.172l-10.42.631c-.563.541.957,8.775.162,10.42-.149.307-4.671,2.85-5.675,3.794-8.7,8.178-5.956,23.617,5.3,27.83C31.213,74.932,45.423,55.415,34.11,42.123c-.881-1.035-4.6-4.291-5.84-4.263-.562.013-3.59,3.067-3.3,3.46,10.678,3.244,11.686,18.921,1.159,23.1-16.08,6.387-24.568-17.409-8.905-23.11,1.075-.391,2.635-.423,3.5-.92.315-.181,4.882-4.745,5.03-5.071.734-1.619-.737-7.009-.15-9.149M99.664,65.519c7.5-7.4,6.3-20.989-2.943-26.36-.755.54-3.52,2.293-3.24,3.228.1.322,1.853,1.315,2.355,1.771,10.4,9.469.1,25.912-12.9,20.48C71.6,59.9,73.845,43.519,85.45,41.364c.954-.177,3.532-.024,3.9-.188a58.8,58.8,0,0,0,5.293-5.142c.87-2.145-.012-5.216.741-7.494,0-.415.044-1.024-.323-1.281-.552-.388-8.74-.353-10.087-.419-.713.607-.188,8.713-1,9.884-.227.325-5.529,2.63-6.924,3.808C59.149,55.638,83.51,81.454,99.664,65.519M19.838,44.248C9,45.66,10.461,62.531,21.288,62.134c12.539-.46,11-19.508-1.451-17.887m66.926.322c-10.945,1.155-10.164,17.884,1.174,17.9,11.922.016,11.452-19.231-1.174-17.9" transform="translate(-0.823 0)" fill="#152331"/>
        <path id="Trazado_1269018" data-name="Trazado 1269018" d="M103.684,257.822c.276.269,3.053-.776,3.454,1.754a73.7,73.7,0,0,1,.012,10.7,1.879,1.879,0,0,1-1.42,1.42L62.48,271.7c-5.737,3.722-11.624,3.892-17.333,0l-43.274.03A1.827,1.827,0,0,1,.161,270.28,79.492,79.492,0,0,1,.22,259.309c.492-2.145,3.181-1.266,3.406-1.486.333-.324-.219-7.858.016-9.295a1.948,1.948,0,0,1,1.409-1.748l42.287,0c1.6-.6,5.882,2.85,6.316,2.85s4.713-3.452,6.316-2.85l42.287,0a1.948,1.948,0,0,1,1.409,1.748c.235,1.437-.316,8.971.016,9.295m-51.765,0c.009-2.7.543-5.564-2.3-7.007a16.371,16.371,0,0,0-3.22-.884H7.1v7.891Zm48.294-7.891h-39.3a16.371,16.371,0,0,0-3.22.884c-2.847,1.443-2.313,4.308-2.3,7.007h44.822ZM62.967,260.977H44.5c-.859,0-.148,2.612,0,3.158,2.966,11.014,19.579,8.422,18.467-3.158m-22.1.316H3.625v7.26H42.45c-.6-2.425-1.971-4.648-1.578-7.26m62.814,0H66.439c.2,2.576-.913,4.876-1.578,7.26h38.825Z" transform="translate(0 -168.833)" fill="#152331"/>
        <path id="Trazado_1269019" data-name="Trazado 1269019" d="M141.873,75.37a5.871,5.871,0,0,0-2.262-.022c-1.143.367-.217,3.269-.187,4.2.182,5.8.171,11.576.289,17.387.073,3.6,1.432,8.821-1.09,11.826-3.6,4.288-9.846,1.989-10.577-3.316l.9-29.628c-2.573-1.99-3.142.817-4.706,1.835-3.166,2.061-6.851-.254-7.246-3.772-.276-2.458-.36-12.555.137-14.7.812-3.506,5.275-4.479,7.919-2.194.779.673.429,1.4,1.872,1.6,1.466.2,14.365.215,15.007-.175.286-.174.831-1.26,1.424-1.733,3.163-2.523,7.251-.091,7.7,3.663.309,2.6.377,11.948-.181,14.269a4.691,4.691,0,0,1-7.471,2.853,10.423,10.423,0,0,1-1.53-2.1m-21.4-15.376V74.2c0,.962,2.525.963,2.525,0v-14.2c0-.753-2.183-1.21-2.525,0m24.621,14.678c1.383.489,2.243.564,2.5-1.126a83.78,83.78,0,0,0,.039-12.623c-.256-2.6-2.544-1.718-2.544-1.244Zm-3.472-12.942H126.943a3.168,3.168,0,0,0-.473.473v9.943h15.151Zm-6,13.571c-.109-.115-2.63.085-3.159,0-.461,6.672-.448,13.354-.633,20.043-.087,3.163-.691,6.591-.319,9.8.41,3.529,5.21,3.088,5.32-.629.185-6.279-.65-13.817-.89-20.214-.047-1.244.074-8.58-.318-8.994" transform="translate(-79.917 -38.083)" fill="#152331"/>
        <path id="Trazado_1269020" data-name="Trazado 1269020" d="M250.462,123.708c-16.153,15.936-40.515-9.88-22.62-24.988,1.4-1.178,6.7-3.483,6.924-3.808.816-1.171.291-9.278,1-9.885,1.347.067,9.535.031,10.087.419.366.258.323.867.323,1.281-.753,2.278.129,5.349-.741,7.494a58.792,58.792,0,0,1-5.293,5.142c-.366.164-2.944.011-3.9.188-11.6,2.156-13.846,18.54-2.517,23.273,13,5.432,23.305-11.01,12.9-20.479-.5-.456-2.258-1.449-2.355-1.771-.28-.935,2.485-2.687,3.24-3.228,9.241,5.372,10.444,18.96,2.943,26.36m-8.4-32.1c-.558-.538,1.387-5.507-2.245-4.593-1.432.36-.895,3.894-1.269,4.266-.11.11-.715-.032-.983.1-1.929.985-1.526,3.032.555,3.375,1.141.188,5.4.378,5.76-.836.773-2.576-1.569-2.077-1.818-2.317" transform="translate(-151.621 -58.189)" fill="#eabb5d"/>
        <path id="Trazado_1269021" data-name="Trazado 1269021" d="M32.807,82.915c-.586,2.14.884,7.531.151,9.149-.147.326-4.715,4.89-5.03,5.071-.864.5-2.424.529-3.5.92-15.662,5.7-7.174,29.5,8.905,23.11,10.527-4.181,9.519-19.858-1.159-23.1-.286-.393,2.741-3.448,3.3-3.46,1.24-.027,4.959,3.228,5.84,4.263,11.313,13.293-2.9,32.81-19.149,26.724-11.253-4.213-14-19.651-5.3-27.83,1.005-.944,5.527-3.487,5.676-3.794.8-1.645-.724-9.879-.162-10.42Zm-3.438,5.649c-.419-.472.878-3.645-1.526-4.018-2.967-.46-1.418,3.937-1.7,4.334-.229.323-2.024,0-2.164,1.794-.126,1.615,1.079,1.7,2.347,1.73,1.481.03,6.064-.061,5.489-2.318-.306-1.2-2.329-1.388-2.447-1.521" transform="translate(-8.032 -56.743)" fill="#eabb5d"/>
        <path id="Trazado_1269022" data-name="Trazado 1269022" d="M67.306,264.81H22.484v-7.891h39.3A16.375,16.375,0,0,1,65,257.8c2.847,1.443,2.313,4.308,2.3,7.007" transform="translate(-15.387 -175.823)" fill="#fff5d4"/>
        <path id="Trazado_1269023" data-name="Trazado 1269023" d="M220.208,256.919v7.891H175.386c-.009-2.7-.543-5.564,2.3-7.007a16.375,16.375,0,0,1,3.22-.884Z" transform="translate(-119.994 -175.823)" fill="#fff5d4"/>
        <path id="Trazado_1269024" data-name="Trazado 1269024" d="M244.309,292.919v7.26H205.484c.665-2.383,1.777-4.684,1.578-7.26Z" transform="translate(-140.623 -200.459)" fill="#6a2874"/>
        <path id="Trazado_1269025" data-name="Trazado 1269025" d="M48.731,292.919c-.393,2.612.977,4.835,1.578,7.26H11.484v-7.26Z" transform="translate(-7.859 -200.459)" fill="#6a2874"/>
        <path id="Trazado_1269026" data-name="Trazado 1269026" d="M158.545,291.919c1.112,11.579-15.5,14.172-18.467,3.158-.147-.545-.858-3.158,0-3.158Z" transform="translate(-95.578 -199.775)" fill="#e9635f"/>
        <path id="Trazado_1269027" data-name="Trazado 1269027" d="M162.635,74.919V85.335H147.484V75.392a3.168,3.168,0,0,1,.473-.473Z" transform="translate(-100.931 -51.271)" fill="#8d1939"/>
        <path id="Trazado_1269028" data-name="Trazado 1269028" d="M167.313,117.834c.392.415.271,7.75.318,8.994.24,6.4,1.075,13.934.89,20.214-.11,3.718-4.91,4.159-5.32.629-.372-3.2.232-6.632.319-9.8.185-6.688.172-13.371.633-20.043.529.086,3.051-.115,3.159,0" transform="translate(-111.605 -80.614)" fill="#ffe19a"/>
        <path id="Trazado_1269029" data-name="Trazado 1269029" d="M206.484,82.252V67.258c0-.474,2.287-1.358,2.544,1.244a83.779,83.779,0,0,1-.039,12.623c-.261,1.69-1.122,1.615-2.5,1.126" transform="translate(-141.307 -45.662)" fill="#ff9ebf"/>
        <path id="Trazado_1269030" data-name="Trazado 1269030" d="M128.484,67.8c.342-1.21,2.525-.753,2.525,0v14.2c0,.963-2.525.962-2.525,0Z" transform="translate(-87.928 -45.89)" fill="#ff9ebf"/>
        <path id="Trazado_1269031" data-name="Trazado 1269031" d="M274.076,95.673c.248.239,2.591-.259,1.818,2.317-.365,1.214-4.619,1.024-5.76.836-2.081-.342-2.484-2.389-.555-3.375.268-.137.873.005.983-.1.374-.372-.163-3.906,1.269-4.266,3.632-.914,1.687,4.055,2.245,4.593" transform="translate(-183.633 -62.254)" fill="#152331"/>
        <path id="Trazado_1269032" data-name="Trazado 1269032" d="M55.89,92.026c.118.134,2.141.319,2.447,1.521.575,2.258-4.008,2.348-5.489,2.318-1.269-.026-2.474-.115-2.347-1.73.14-1.8,1.935-1.472,2.164-1.794.281-.4-1.268-4.794,1.7-4.334,2.4.373,1.107,3.546,1.526,4.018" transform="translate(-34.554 -60.205)" fill="#152331"/>
      </g>
    </g>
  </g>
</svg>
