<svg xmlns="http://www.w3.org/2000/svg" xmlns:xlink="http://www.w3.org/1999/xlink" width="96" height="96" viewBox="0 0 96 96">
  <defs>
    <clipPath id="clip-path">
      <rect id="Rectángulo_455595" data-name="Rectángulo 455595" width="96" height="96" fill="none"/>
    </clipPath>
    <clipPath id="clip-path-2">
      <rect id="Rectángulo_459570" data-name="Rectángulo 459570" width="48.712" height="53.868" fill="#fff"/>
    </clipPath>
  </defs>
  <g id="Grupo_1208681" data-name="Grupo 1208681" transform="translate(-735.746 -9118)">
    <g id="Grupo_1180407" data-name="Grupo 1180407" transform="translate(735.746 9117.971)">
      <g id="Grupo_1179172" data-name="Grupo 1179172" transform="translate(0 0.03)" clip-path="url(#clip-path)">
        <path id="Trazado_998483" data-name="Trazado 998483" d="M92.562,52.469A40.092,40.092,0,1,1,52.469,12.377,40.093,40.093,0,0,1,92.562,52.469" transform="translate(-4.455 -4.484)" fill="#8d1939"/>
        <path id="Trazado_998485" data-name="Trazado 998485" d="M90.9,46.451A44.45,44.45,0,1,1,46.451,2,44.45,44.45,0,0,1,90.9,46.451Z" transform="translate(1.564 1.535)" fill="none" stroke="#8d1939" stroke-miterlimit="10" stroke-width="4"/>
      </g>
    </g>
    <g id="Grupo_1180408" data-name="Grupo 1180408" transform="translate(755.746 9137)">
      <g id="Grupo_1099618" data-name="Grupo 1099618" transform="translate(0.297 -0.465)">
        <rect id="Rectángulo_401104" data-name="Rectángulo 401104" width="56.349" height="57.028" transform="translate(0)" fill="none"/>
      </g>
      <g id="Grupo_1209413" data-name="Grupo 1209413" transform="translate(4.297 1.535)">
        <g id="Grupo_1209412" data-name="Grupo 1209412" clip-path="url(#clip-path-2)">
          <path id="Trazado_1270094" data-name="Trazado 1270094" d="M20.726,35.937a8.106,8.106,0,0,1-8.082-9.057,6.292,6.292,0,0,1-4.752-9.133c.246-.5,1.071-1.365,1.13-1.672.367-1.915-.226-4.993,0-7.084.08-.731.5-1.432.652-2.149a11.046,11.046,0,0,1-1.93-3c-.383-1.019-1.3-3.977.53-3.84l29.3.05a4.449,4.449,0,0,1,3.452,2.81c.146.362.242,1.263.336,1.394.047.066,1.053.589,1.368.857,3.7,3.154,1.523,7.115,2.229,10.955.089.486,1.16,1.7,1.439,2.516a6.436,6.436,0,0,1-5.082,8.387,8.489,8.489,0,0,1-.649,4.182,2.8,2.8,0,0,1,2.207,4.1c-.671,1.527-4.756,2.99-6,4.3h4.862c2.189,0,5.174,2.734,6.043,4.669s1.127,6.681.786,8.753a1.137,1.137,0,0,1-.6.884L5.9,53.814a1.213,1.213,0,0,1-.463-.526c-.249-.866.216-3.854-.111-4.339A8.144,8.144,0,0,1,2.686,35.283a8.1,8.1,0,0,1,13.261,4.28h4.779Zm-8.9-34.113h-2.8c.462,2.634,2.7,5.136,5.437,5.192a7.385,7.385,0,0,1-2.636-5.192m4.45,0H13.64A6.076,6.076,0,0,0,18.83,7.1L16.96,4.355Zm4.45,0H18.09a5.937,5.937,0,0,0,5.437,5.192,8.011,8.011,0,0,1-2.8-5.192m4.367,0H22.539a6.029,6.029,0,0,0,5.437,5.192A7.513,7.513,0,0,1,25.311,2.1Zm4.7,0h-2.8A6.4,6.4,0,0,0,32.343,7.1l-2.014-2.93Zm4.45,0H31.6A6.156,6.156,0,0,0,36.792,7.1l-1.87-2.744Zm5.274,4.614V3.884c0-1.21-2.3-2.574-3.463-1.975a5.732,5.732,0,0,0,3.463,4.53m3.626,8.569V9.158a5.4,5.4,0,0,0-1.813-2.884v8.24Zm-32.3,0,1.792-.763-.138-5.752-1.238-.575a4.953,4.953,0,0,0-.415.91Zm28.675-6.1H14.464V29.1c0,1.936,3.286,5.026,5.191,5.026h5.521V31.405a4.32,4.32,0,0,1,1.03-1.624,10,10,0,0,1,2.867-.911c.194-.053.49.094.384-.264-.469-1.59-2.831-2.042-4.106-1.146s-.845,2.466-1.4,2.886a.884.884,0,0,1-1.411-.43c-.417-2.148,1.658-4.526,3.784-4.694l-1.157-.735c-1.1-.876-1.462-3.514.6-2.74.311.25.336,1.641,1.132,1.661,1.226.03.589-1.877,1.966-1.8,1.291.068.737,2.192.014,2.795l-1.233.824a4.723,4.723,0,0,1,3.7,3.1l1.087-.4.073-9.617a36.115,36.115,0,0,1,4.038-2.069c.953-.244,1.328.378,1.087,1.261-.162.592-1.251.487-1.084.891.107.257,1.152,1.041,1.152,1.485V32.147a6.014,6.014,0,0,0,1.813-3.214ZM12.651,16.326c-4.835.84-4.841,7.76,0,8.734Zm28.675,8.734a4.45,4.45,0,0,0,0-8.734ZM34.075,52.087V39.48c0-.17.5-.666.672-.811,1.334-1.128,3.652-2.181,5.182-3.223.727-.5,2.006-1.105,1.22-2.217C40.2,31.889,37.6,35.371,36.38,34.7a2.241,2.241,0,0,1-.493-.66V20.2a.973.973,0,0,0-1.773.534L34,29.348c-.275.459-5.4,1.322-6.347,1.728-.247.106-.542.242-.627.526.18,1.837-.369,4.641,0,6.358.2.931,1.776.5,1.776,1.355V52.087ZM6.841,35.153C0,36.216.215,47.136,7.627,47.634c9.093.612,8.854-13.98-.786-12.482m18.335.784H22.539v5.356a4.95,4.95,0,0,0,.652,1c.985,1.029,2.492.922,3.8.9V40.222c-.668.015-1.813-1.337-1.813-1.9ZM26.989,45c-2.017.137-4.161-.163-5.438-1.9-.408-.553-.5-1.209-.929-1.708l-4.511-.023a8.092,8.092,0,0,1-8.9,8.076v2.637H26.989Zm19.776,7.086V46.9c0-2.1-3.043-5.521-5.191-5.521H35.888V52.087Z" transform="translate(0 0)" fill="#fff"/>
          <path id="Trazado_1270095" data-name="Trazado 1270095" d="M111.425,98.068c4.159-.658,4.071,5.905.167,5.364a2.721,2.721,0,0,1-.167-5.364m.329,1.8a.908.908,0,0,0,.283,1.792c1.1-.113.931-2.027-.283-1.792" transform="translate(-91.235 -81.868)" fill="#fff"/>
          <path id="Trazado_1270096" data-name="Trazado 1270096" d="M105.093,77.2c-.182.182-.6.189-.86.211a37.024,37.024,0,0,1-5.442-.01.914.914,0,0,1,.173-1.8,34.894,34.894,0,0,1,5.418,0c.8.132,1.3,1.014.712,1.6" transform="translate(-81.935 -63.051)" fill="#fff"/>
          <path id="Trazado_1270097" data-name="Trazado 1270097" d="M186.212,75.767a47.984,47.984,0,0,1,5.729-.031.91.91,0,0,1-.158,1.811,35.282,35.282,0,0,1-5.569-.04c-.984-.214-.729-1.532,0-1.741" transform="translate(-154.987 -63.196)" fill="#fff"/>
          <path id="Trazado_1270098" data-name="Trazado 1270098" d="M34.288,229.152c1,1-1.589,2.586-2.1,3.339.563.789,2.935,2.229,2.152,3.308-1.059,1.459-2.957-2-3.533-1.9-.759.424-2.345,3.152-3.248,1.9-.812-1.131,1.444-2.3,1.977-3.166.1-.572-3.069-2.227-1.969-3.441.965-1.066,2.674,1.552,3.382,2.06.752-.51,2.336-3.1,3.339-2.1" transform="translate(-22.831 -191.198)" fill="#fff"/>
        </g>
      </g>
    </g>
  </g>
</svg>
