<svg xmlns="http://www.w3.org/2000/svg" xmlns:xlink="http://www.w3.org/1999/xlink" width="96" height="96" viewBox="0 0 96 96">
  <defs>
    <clipPath id="clip-path">
      <rect id="Rectángulo_455595" data-name="Rectángulo 455595" width="96" height="96" fill="none"/>
    </clipPath>
    <clipPath id="clip-path-2">
      <rect id="Rectángulo_459571" data-name="Rectángulo 459571" width="40" height="57" transform="translate(0 0)" fill="#fff"/>
    </clipPath>
  </defs>
  <g id="Grupo_1208682" data-name="Grupo 1208682" transform="translate(-735.746 -9118)">
    <g id="Grupo_1180407" data-name="Grupo 1180407" transform="translate(735.746 9117.971)">
      <g id="Grupo_1179172" data-name="Grupo 1179172" transform="translate(0 0.03)" clip-path="url(#clip-path)">
        <path id="Trazado_998483" data-name="Trazado 998483" d="M92.562,52.469A40.092,40.092,0,1,1,52.469,12.377,40.093,40.093,0,0,1,92.562,52.469" transform="translate(-4.455 -4.484)" fill="#8d1939"/>
        <path id="Trazado_998485" data-name="Trazado 998485" d="M90.9,46.451A44.45,44.45,0,1,1,46.451,2,44.45,44.45,0,0,1,90.9,46.451Z" transform="translate(1.564 1.535)" fill="none" stroke="#8d1939" stroke-miterlimit="10" stroke-width="4"/>
      </g>
    </g>
    <g id="Grupo_1180408" data-name="Grupo 1180408" transform="translate(755.746 9137)">
      <g id="Grupo_1099618" data-name="Grupo 1099618" transform="translate(0.297 -0.465)">
        <rect id="Rectángulo_401104" data-name="Rectángulo 401104" width="56.349" height="57.028" transform="translate(0)" fill="none"/>
      </g>
      <g id="Grupo_1209415" data-name="Grupo 1209415" transform="translate(8.629 -0.186)">
        <g id="Grupo_1209414" data-name="Grupo 1209414" transform="translate(-0.333 -0.278)" clip-path="url(#clip-path-2)">
          <path id="Trazado_1270099" data-name="Trazado 1270099" d="M6.4,0c2.43.848,4.228,2.255,6.929,1.594C16.991.7,18.9-.312,22.862,1.188c.609.231,1.734,1.019,2.181,1.1,1.791.333,3.563-.308,5.58.33,5.783,1.832,5.931,8.523,3.734,13.223a3.786,3.786,0,0,1-2.327,6.663,9.606,9.606,0,0,1-6.4,9.688c-.526,3.049,1.638,2.168,3.658,2.461A13.1,13.1,0,0,1,39.64,43.347a19.582,19.582,0,0,1,.581,2.21V57.295H0V34.886A8.572,8.572,0,0,1,1.935,31.52a6.455,6.455,0,0,1,10.728,3.426c2.135-.219,4.391.213,3.735-2.751A9.755,9.755,0,0,1,10,22.507,3.809,3.809,0,0,1,6.44,17.849c.117-.575.937-1.419.937-1.842,0-.352-.83-1.914-.932-2.67a9.157,9.157,0,0,1,1.434-6.36C7.507,6.2,6.4,4.517,6.4,3.694Zm25.61,15.1c.934.241,1.2-1.236,1.4-1.968.955-3.564.554-7.632-3.531-8.785-1.871-.528-3.838.087-5.466-.28-.411-.093-1.362-.8-1.925-1.03C17.1.865,15.071,4.12,10.8,3.57a26.046,26.046,0,0,1-2.586-.778C8.222,4.412,9.264,5.6,10.181,6.81c-1.913,2.551-2.794,5.544-1.058,8.461L10,15.095c-.209-2.724.665-5.547,3.075-7.034L14.1,9.416c-1.033,1.036-2.138,2.152-2.118,3.717,3.447-.259,7.115-.376,8.785-3.942,1.242.867,2.142,2.192,3.531,2.872,1.747.855,4.01.737,5.907,1.069a6.714,6.714,0,0,0-2.281-3.715l1.048-1.382a6.99,6.99,0,0,1,2.626,3.3c.068.187.414,1.319.414,1.392ZM11.82,14.939V22c1.528-1.863,4.576-1.887,5.409.583.867,2.571-2.289,3.87-3.427,5.715a8.041,8.041,0,0,0,4.4,2.583c-.1,1.551.491,3.66-.8,4.835-.934.852-2.943.929-4.192,1.064-.235.025-.485-.143-.414.242.085.464,2.249,1.651,1.815,2.865,1.4.088,2.831-.24,4.135.38,1.8.856.559,1.055-.054,2.071-.282.109-.988-.638-1.215-.638H15.1a5.8,5.8,0,0,0,11.327,0c-1.058-.009-2.05-.176-2.874.627L22.339,41.1c.938-1.432,2.909-1.225,4.419-1.211-.057-1,.5-2.28.485-3.216-.006-.594-.92-.33-1.348-.433-2.581-.62-2.07-3.226-2.1-5.279a8.5,8.5,0,0,0,5.622-4.42c1.549-3.33.462-7.989.791-11.6-2.646-.233-5.515-.293-7.77-1.834-.48-.328-.772-.874-1.345-1.08-2.423,2.6-5.939,2.746-9.273,2.915m-1.806,1.97c-2.387.2-2.455,3.657,0,3.612Zm22,3.612a1.806,1.806,0,1,0,0-3.612ZM15.226,22.7A1.227,1.227,0,0,0,14,22.615a17.924,17.924,0,0,0-1.936,1.853c-.226.506.5,1.56.583,2.127.247.067.272-.066.411-.161.472-.325,2.466-2.406,2.5-2.9a2.037,2.037,0,0,0-.333-.833M4.433,32.339l1.889,1.1c.306-.221,1.959-1.021,1.886-1.34a4.283,4.283,0,0,0-3.565-.123c-.183.1-.281-.011-.209.364m.163,2.3c.066-.1-1.537-1.351-1.971-1.074-.368.235-1.076,2.365-.817,2.718ZM11,37.1c.144-.705-.373-3.623-1.228-3.614-.468,0-4.785,3.1-5.5,3.614Zm20.028-.164-1.966-.324c-.569,2.81-.372,6.2-2.216,8.537a7.747,7.747,0,0,1-12.561-.5c.294.712-1.479,2.709-1.479,2.873v7.962H31.028Zm7.388,18.551v-9.6a15.335,15.335,0,0,0-.742-2.542A11.024,11.024,0,0,0,33,37.923V55.489ZM9.193,38.908H4.925a22.83,22.83,0,0,0,4.02,2.136ZM4.925,46.3H11.41a5.618,5.618,0,0,0,1.394-3.2c.09-.9.363-4.176-.9-4.172-1.772.233-.421,3.335-.982,4.258ZM1.806,39.564v6.074L7.88,42.521ZM9.193,48.1H1.806V54.34ZM11,49.25c-.288-.073-.328.121-.493.246-.915.691-1.775,1.524-2.622,2.3.859.724,1.742,1.621,2.621,2.3.166.128.209.315.494.245ZM9.193,55.489,6.461,53.043a19.3,19.3,0,0,0-2.573,1.984c-.141.144-.359.135-.277.462Z" transform="translate(0.236 0.198)" fill="#fff"/>
          <path id="Trazado_1270100" data-name="Trazado 1270100" d="M108.485,151c.631,1.912,2.943,1.626,3.857.039l1.559.864a4.011,4.011,0,0,1-5.732,1.632c-.322-.22-1.6-1.459-1.312-1.864Z" transform="translate(-89.043 -126.013)" fill="#fff"/>
          <path id="Trazado_1270101" data-name="Trazado 1270101" d="M117.464,107.033l.98.343L117.774,109,115,107.863a11.578,11.578,0,0,0,1.148-3.2c.063-.47-.208-1.707.271-1.863.316-.1,1.552-.131,1.678.246a14.621,14.621,0,0,1-.63,3.988" transform="translate(-95.881 -85.669)" fill="#fff"/>
          <path id="Trazado_1270102" data-name="Trazado 1270102" d="M150.483,103.142a.928.928,0,0,1,1.516.8c-.209,1.73-2.782.411-1.516-.8" transform="translate(-125.251 -85.827)" fill="#fff"/>
          <path id="Trazado_1270103" data-name="Trazado 1270103" d="M95.6,103.1a.9.9,0,0,1,.284,1.781c-1.432.24-1.383-1.61-.284-1.781" transform="translate(-78.997 -85.968)" fill="#fff"/>
        </g>
      </g>
    </g>
  </g>
</svg>
