<svg xmlns="http://www.w3.org/2000/svg" xmlns:xlink="http://www.w3.org/1999/xlink" width="1020" height="227" viewBox="0 0 1020 227">
  <defs>
    <clipPath id="clip-path">
      <rect id="Rectángulo_33824" data-name="Rectángulo 33824" width="1020" height="227" transform="translate(180 4246.831)" fill="#fff7da"/>
    </clipPath>
    <clipPath id="clip-path-2">
      <path id="Trazado_113873" data-name="Trazado 113873" d="M460.009,68.278s-14.947-9.038-25.028,8.69c-10.081-17.73-25.028-8.69-25.028-8.69-6.083,3.62-8.424,8.252-9.086,12.421-1.387,8.744,5.17,15.288,11.014,20.747,6.165,5.759,12.066,11.814,18.061,17.75l5.043,4.992c7.4-7.389,14.985-14.593,22.357-22.011,5.979-6.015,13.252-12.036,11.754-21.479C468.434,76.534,466.092,71.9,460.009,68.278Z" transform="translate(-400.679 -65.973)" fill="#7694e3"/>
    </clipPath>
    <clipPath id="clip-path-3">
      <rect id="Rectángulo_459556" data-name="Rectángulo 459556" width="671.422" height="419.453" fill="none"/>
    </clipPath>
    <clipPath id="clip-path-4">
      <rect id="Rectángulo_459555" data-name="Rectángulo 459555" width="671.422" height="419.452" fill="none"/>
    </clipPath>
    <clipPath id="clip-path-5">
      <rect id="Rectángulo_459552" data-name="Rectángulo 459552" width="18.726" height="21.617" fill="none"/>
    </clipPath>
  </defs>
  <g id="Enmascarar_grupo_54" data-name="Enmascarar grupo 54" transform="translate(-180 -4246.831)" clip-path="url(#clip-path)">
    <g id="Grupo_80387" data-name="Grupo 80387" transform="translate(45.294 4018.188)">
      <g id="Grupo_80274" data-name="Grupo 80274">
        <rect id="Rectángulo_33830" data-name="Rectángulo 33830" width="1290" height="969" transform="translate(-0.293 -0.358)" fill="#b5c9ff"/>
        <circle id="Elipse_4713" data-name="Elipse 4713" cx="109.952" cy="109.952" r="109.952" transform="translate(790.8 271.48) rotate(-45)" fill="#cfdcff"/>
        <path id="Trazado_113782" data-name="Trazado 113782" d="M109.908,139.916C70.453,187.212,51.269,249.766,43.691,311.4,29.527,426.7,68.045,551.885,185.9,596.032c65.452,24.518,135.382,25.679,199.393,55.78,101.52,47.734,175.04,150.217,295.814,153,140.572,3.241,244.224-142.643,185.744-277.3-17.78-40.939-55.714-77.884-84.435-102.133-33.876-28.6-73.978-39.556-113.859-57.054-73.381-32.192-93.181-115.34-127.184-180.144C464.6,41.829,242.776,8.023,124.649,123.92A214.864,214.864,0,0,0,109.908,139.916Z" transform="translate(198.805 50.904)" fill="#cfdcff"/>
      </g>
      <g id="Grupo_80371" data-name="Grupo 80371" transform="translate(375.41 245.622)">
        <g id="Grupo_80362" data-name="Grupo 80362" transform="translate(465.393 8.43)">
          <rect id="Rectángulo_33844" data-name="Rectángulo 33844" width="123.804" height="170.87" transform="translate(0 7.938)" fill="#cbd9ff"/>
          <rect id="Rectángulo_33845" data-name="Rectángulo 33845" width="123.804" height="170.87" fill="#fff"/>
          <rect id="Rectángulo_33846" data-name="Rectángulo 33846" width="108.443" height="154.065" transform="translate(7.681 8.403)" fill="#cbd9ff"/>
          <rect id="Rectángulo_33847" data-name="Rectángulo 33847" width="43.764" height="4.456" transform="translate(40.019 86.04)" fill="#a2b6eb"/>
          <rect id="Rectángulo_33848" data-name="Rectángulo 33848" width="88.993" height="4.456" transform="translate(17.406 76.454)" fill="#a2b6eb"/>
          <g id="Grupo_80361" data-name="Grupo 80361" transform="translate(16.989 100.66)">
            <g id="Grupo_80359" data-name="Grupo 80359">
              <rect id="Rectángulo_33849" data-name="Rectángulo 33849" width="41.875" height="4.456" fill="#a2b6eb"/>
              <rect id="Rectángulo_33850" data-name="Rectángulo 33850" width="41.875" height="4.456" transform="translate(0 10.399)" fill="#a2b6eb"/>
              <rect id="Rectángulo_33851" data-name="Rectángulo 33851" width="41.875" height="4.456" transform="translate(0 20.798)" fill="#a2b6eb"/>
              <rect id="Rectángulo_33852" data-name="Rectángulo 33852" width="41.875" height="4.456" transform="translate(0 31.198)" fill="#a2b6eb"/>
              <rect id="Rectángulo_33853" data-name="Rectángulo 33853" width="41.875" height="4.456" transform="translate(0 41.596)" fill="#a2b6eb"/>
            </g>
            <g id="Grupo_80360" data-name="Grupo 80360" transform="translate(47.952)">
              <rect id="Rectángulo_33854" data-name="Rectángulo 33854" width="41.874" height="4.456" fill="#a2b6eb"/>
              <rect id="Rectángulo_33855" data-name="Rectángulo 33855" width="41.874" height="4.456" transform="translate(0 10.399)" fill="#a2b6eb"/>
              <rect id="Rectángulo_33856" data-name="Rectángulo 33856" width="41.874" height="4.456" transform="translate(0 20.798)" fill="#a2b6eb"/>
              <rect id="Rectángulo_33857" data-name="Rectángulo 33857" width="41.874" height="4.456" transform="translate(0 31.198)" fill="#a2b6eb"/>
              <rect id="Rectángulo_33858" data-name="Rectángulo 33858" width="41.874" height="4.456" transform="translate(0 41.596)" fill="#a2b6eb"/>
            </g>
          </g>
          <rect id="Rectángulo_33859" data-name="Rectángulo 33859" width="39.999" height="40.858" transform="translate(41.902 24.356)" fill="#a2b6eb"/>
        </g>
        <g id="Grupo_80366" data-name="Grupo 80366" transform="translate(0)">
          <rect id="Rectángulo_33860" data-name="Rectángulo 33860" width="74.573" height="77.106" transform="translate(0 5.803)" fill="#cbd9ff"/>
          <rect id="Rectángulo_33861" data-name="Rectángulo 33861" width="74.573" height="77.106" fill="#fff"/>
          <rect id="Rectángulo_33862" data-name="Rectángulo 33862" width="63.342" height="64.819" transform="translate(5.615 6.143)" fill="#cbd9ff"/>
          <g id="Grupo_80365" data-name="Grupo 80365" transform="translate(10.947 22.691)">
            <g id="Grupo_80364" data-name="Grupo 80364" transform="translate(22.065 0.492)">
              <g id="Grupo_80363" data-name="Grupo 80363">
                <rect id="Rectángulo_33863" data-name="Rectángulo 33863" width="30.613" height="3.258" fill="#a2b6eb"/>
                <rect id="Rectángulo_33864" data-name="Rectángulo 33864" width="30.613" height="3.258" transform="translate(0 7.602)" fill="#a2b6eb"/>
                <rect id="Rectángulo_33865" data-name="Rectángulo 33865" width="30.613" height="3.258" transform="translate(0 15.206)" fill="#a2b6eb"/>
                <rect id="Rectángulo_33866" data-name="Rectángulo 33866" width="30.613" height="3.258" transform="translate(0 22.808)" fill="#a2b6eb"/>
                <rect id="Rectángulo_33867" data-name="Rectángulo 33867" width="30.613" height="3.258" transform="translate(0 30.411)" fill="#a2b6eb"/>
              </g>
            </g>
            <rect id="Rectángulo_33868" data-name="Rectángulo 33868" width="17.705" height="34.179" fill="#a2b6eb"/>
          </g>
        </g>
      </g>
      <g id="Grupo_80386" data-name="Grupo 80386" transform="translate(65.704 237.164)">
        <g id="Grupo_80376" data-name="Grupo 80376" transform="translate(936.442)">
          <g id="Grupo_80372" data-name="Grupo 80372" transform="translate(0 0)">
            <path id="Trazado_113870" data-name="Trazado 113870" d="M460.009,68.278s-14.947-9.038-25.028,8.69c-10.081-17.73-25.028-8.69-25.028-8.69-6.083,3.62-8.424,8.252-9.086,12.421-1.387,8.744,5.17,15.288,11.014,20.747,6.165,5.759,12.066,11.814,18.061,17.75l5.043,4.992c7.4-7.389,14.985-14.593,22.357-22.011,5.979-6.015,13.252-12.036,11.754-21.479C468.434,76.534,466.092,71.9,460.009,68.278Z" transform="translate(-400.679 -65.973)" fill="#ff4a6e"/>
          </g>
          <g id="Grupo_80375" data-name="Grupo 80375" transform="translate(0 0)">
            <path id="Trazado_113871" data-name="Trazado 113871" d="M460.009,68.278s-14.947-9.038-25.028,8.69c-10.081-17.73-25.028-8.69-25.028-8.69-6.083,3.62-8.424,8.252-9.086,12.421-1.387,8.744,5.17,15.288,11.014,20.747,6.165,5.759,12.066,11.814,18.061,17.75l5.043,4.992c7.4-7.389,14.985-14.593,22.357-22.011,5.979-6.015,13.252-12.036,11.754-21.479C468.434,76.534,466.092,71.9,460.009,68.278Z" transform="translate(-400.679 -65.973)" fill="#7694e3"/>
            <g id="Grupo_80374" data-name="Grupo 80374" clip-path="url(#clip-path-2)">
              <g id="Grupo_80373" data-name="Grupo 80373" transform="translate(4.695 15.709)">
                <path id="Trazado_113872" data-name="Trazado 113872" d="M431.483,110.684l-6.351-24.2-4.038,13.4H405.964v-.754h14.569L425.181,83.7l6.21,23.662,3.921-19.234,3.4,14.65,4.817-19.124,4.521,15.471H465.38v.754h-17.9l-3.9-13.351-4.9,19.46-3.32-14.315Z" transform="translate(-405.964 -83.653)" fill="#fff"/>
              </g>
            </g>
          </g>
        </g>
        <g id="Grupo_80377" data-name="Grupo 80377" transform="translate(192.205 187.271)">
          <rect id="Rectángulo_33871" data-name="Rectángulo 33871" width="6.726" height="38.96" transform="matrix(0.743, 0.669, -0.669, 0.743, 57.64, 60.538)" fill="#32465c"/>
          <path id="Trazado_113874" data-name="Trazado 113874" d="M53.988,305.906l-1.074-.967a7.924,7.924,0,0,1-.583-11.193l30.246-33.282,12.847,11.576L65.181,305.325a7.924,7.924,0,0,1-11.193.581Z" transform="translate(-50.293 -180.26)" fill="#7694e3"/>
          <circle id="Elipse_4715" data-name="Elipse 4715" cx="40.751" cy="40.751" r="40.751" transform="translate(36.655 2.771) rotate(-1.949)" fill="#7694e3"/>
          <path id="Trazado_113875" data-name="Trazado 113875" d="M129.337,276.87a31.283,31.283,0,1,1-2.3-44.178,31.283,31.283,0,0,1,2.3,44.178Z" transform="translate(-27.308 -213.837)" fill="#cfdcff"/>
        </g>
        <path id="Trazado_113876" data-name="Trazado 113876" d="M319.077,91.982H308.218V81.123H300.9V91.982H290.032v7.33H300.9v10.859h7.33V99.309h10.859Z" transform="translate(742.218 -74.938)" fill="#fff"/>
        <path id="Trazado_113877" data-name="Trazado 113877" d="M526.412,259.7H490.943v-35.47H467.011V259.7H431.542v23.931h35.469V319.1h23.931V283.632h35.469Z" transform="translate(499.321 -26.954)" fill="#fff"/>
        <path id="Trazado_113878" data-name="Trazado 113878" d="M75.952,79.842H57.558V61.449H45.148V79.842H26.754v12.41H45.148v18.394h12.41V92.252H75.953Z" transform="translate(-26.754 82.931)" fill="#fff"/>
        <g id="Grupo_80381" data-name="Grupo 80381" transform="translate(147.989 96.633)">
          <g id="Grupo_80378" data-name="Grupo 80378" transform="translate(0 26.104)">
            <path id="Trazado_113879" data-name="Trazado 113879" d="M63.634,198.175l-27.18,11.5a6.462,6.462,0,0,1-8.469-3.433h0a6.462,6.462,0,0,1,3.433-8.471l27.184-11.5a6.462,6.462,0,0,1,8.469,3.433h0a6.463,6.463,0,0,1-3.437,8.471Z" transform="translate(-27.472 -185.759)" fill="#fff"/>
            <path id="Trazado_113880" data-name="Trazado 113880" d="M50.114,186.271l-13.591,5.75,5.036,11.905,13.591-5.745a6.463,6.463,0,1,0-5.036-11.9Z" transform="translate(-18.988 -185.759)" fill="#7694e3"/>
          </g>
          <g id="Grupo_80379" data-name="Grupo 80379" transform="translate(39.201 46.174)">
            <path id="Trazado_113881" data-name="Trazado 113881" d="M81.972,214.4l-29-5.472a6.46,6.46,0,0,1-5.151-7.547h0a6.462,6.462,0,0,1,7.549-5.151l29,5.47a6.462,6.462,0,0,1,5.151,7.549h0a6.459,6.459,0,0,1-7.549,5.151Z" transform="translate(-47.707 -196.118)" fill="#fff"/>
            <path id="Trazado_113882" data-name="Trazado 113882" d="M74.8,200.323l-14.5-2.736-2.4,12.7,14.5,2.736a6.462,6.462,0,1,0,2.4-12.7Z" transform="translate(-38.142 -194.74)" fill="#7694e3"/>
          </g>
          <g id="Grupo_80380" data-name="Grupo 80380" transform="translate(43.997 0)">
            <path id="Trazado_113883" data-name="Trazado 113883" d="M61.195,174.16l20.95,20.787a6.461,6.461,0,0,1,.035,9.139h0a6.458,6.458,0,0,1-9.137.035L52.09,183.334a6.464,6.464,0,0,1-.035-9.139h0a6.464,6.464,0,0,1,9.14-.036Z" transform="translate(-50.18 -172.285)" fill="#fff"/>
            <path id="Trazado_113884" data-name="Trazado 113884" d="M52.09,183.334l10.476,10.395,9.1-9.174L61.195,174.16a6.462,6.462,0,0,0-9.1,9.174Z" transform="translate(-50.18 -172.285)" fill="#7694e3"/>
          </g>
        </g>
        <g id="Grupo_80385" data-name="Grupo 80385" transform="translate(911.855 440.112)">
          <g id="Grupo_80382" data-name="Grupo 80382" transform="translate(0 26.102)">
            <path id="Trazado_113885" data-name="Trazado 113885" d="M457.892,375.455l-27.178,11.5a6.462,6.462,0,0,1-8.469-3.435h0a6.46,6.46,0,0,1,3.433-8.469l27.181-11.5a6.461,6.461,0,0,1,8.469,3.433h0a6.46,6.46,0,0,1-3.436,8.47Z" transform="translate(-421.732 -363.038)" fill="#fff"/>
            <path id="Trazado_113886" data-name="Trazado 113886" d="M444.37,363.553,430.779,369.3l5.038,11.9,13.589-5.75a6.462,6.462,0,0,0-5.036-11.9Z" transform="translate(-413.248 -363.038)" fill="#7694e3"/>
          </g>
          <g id="Grupo_80383" data-name="Grupo 80383" transform="translate(39.198 46.175)">
            <path id="Trazado_113887" data-name="Trazado 113887" d="M476.229,391.683l-29-5.472a6.459,6.459,0,0,1-5.151-7.547h0a6.46,6.46,0,0,1,7.547-5.151l29,5.472a6.465,6.465,0,0,1,5.151,7.549h0a6.462,6.462,0,0,1-7.547,5.149Z" transform="translate(-441.963 -373.401)" fill="#fff"/>
            <path id="Trazado_113888" data-name="Trazado 113888" d="M469.06,377.6l-14.5-2.736-2.4,12.7,14.5,2.736a6.462,6.462,0,1,0,2.4-12.7Z" transform="translate(-432.4 -372.022)" fill="#7694e3"/>
          </g>
          <g id="Grupo_80384" data-name="Grupo 80384" transform="translate(43.994 0)">
            <path id="Trazado_113889" data-name="Trazado 113889" d="M455.452,351.442l20.95,20.787a6.462,6.462,0,0,1,.037,9.139h0a6.461,6.461,0,0,1-9.139.035l-20.95-20.787a6.462,6.462,0,0,1-.037-9.139h0A6.462,6.462,0,0,1,455.452,351.442Z" transform="translate(-444.439 -349.567)" fill="#fff"/>
            <path id="Trazado_113890" data-name="Trazado 113890" d="M446.35,360.616l10.474,10.395,9.1-9.176-10.476-10.393a6.462,6.462,0,0,0-9.1,9.174Z" transform="translate(-444.439 -349.567)" fill="#7694e3"/>
          </g>
        </g>
      </g>
      <g id="Grupo_1209390" data-name="Grupo 1209390" transform="translate(275.573 248.269)">
        <g id="Grupo_1209389" data-name="Grupo 1209389" clip-path="url(#clip-path-3)">
          <g id="Grupo_1209388" data-name="Grupo 1209388" transform="translate(0 0.002)">
            <g id="Grupo_1209387" data-name="Grupo 1209387" clip-path="url(#clip-path-4)">
              <path id="Trazado_1269795" data-name="Trazado 1269795" d="M141.779,105.505c-.017-.973-.03-1.951-.06-2.919q-.179-5.5-.353-10.993c-.068-2.065-.089-4.657-2.431-5.367a8.658,8.658,0,0,0-2.754-.217c-1.415.043-2.834.081-4.254.123-1.7.051-3.625.2-4.7,1.526a5.967,5.967,0,0,0-.918,3.71q-.147,6.024-.293,12.052a19.182,19.182,0,0,1-.51,4.87c-.438,1.594-1.173,3.565-.5,5.184.5,1.207,1.759,1.547,2.928,1.8a51.784,51.784,0,0,0,9.145,1.2,9.624,9.624,0,0,0,4.492-.778c1.317-.646,1.322-1.547.939-3.038a31.316,31.316,0,0,1-.739-7.156" transform="translate(405.349 279.435)" fill="#ffa87d"/>
              <path id="Trazado_1269796" data-name="Trazado 1269796" d="M167.269,105.652c-.047.059-.094.11-.145.166l-43.03-.629c-.034-.306-.064-.612-.085-.918a18.825,18.825,0,0,1-.025-2.078,15.712,15.712,0,0,1,2.167-7.492,2.117,2.117,0,0,1,1.279-1.135,2.727,2.727,0,0,1,1.815.629c2.112,1.275,5.223,1.989,7.607,1.143a10.162,10.162,0,0,0,4.007-2.732,7.393,7.393,0,0,1,1.568-1.432,2.924,2.924,0,0,1,2.206-.255c2.125.514,3.99,2.32,5.873,3.383a49.211,49.211,0,0,0,6.74,3.166c1.963.748,3.978,1.381,5.852,2.316a11.822,11.822,0,0,1,4.058,3.043,2.26,2.26,0,0,1,.115,2.826" transform="translate(402.828 295.104)" fill="#dd475d"/>
              <path id="Trazado_1269797" data-name="Trazado 1269797" d="M141.875,98.146c-.2-.467-.82-.625-1.258-.807a53.122,53.122,0,0,1-7.105-3.612q-1.931-1.166-3.744-2.49a.813.813,0,0,0-.693-.106c-.136.043-.382.221-.187.361a54.713,54.713,0,0,0,7.262,4.475q1.868.956,3.808,1.768a2.314,2.314,0,0,1,.867.416c.225.263-.013.629-.161.867-.251.4-1.64,1.806-1.3,2.312.523.79,1.436-.7,1.581-1.007a7.137,7.137,0,0,1,.467-.82c.255-.378.663-.871.463-1.356" transform="translate(418.588 296.015)" fill="#993741"/>
              <path id="Trazado_1269798" data-name="Trazado 1269798" d="M131.687,91.235a1.02,1.02,0,0,0-.391-.034.574.574,0,0,0-.3.119c-.548.54-1.092,1.084-1.636,1.623-.157.153,0,.314.174.365a.877.877,0,0,0,.391.034.567.567,0,0,0,.306-.119l1.632-1.619c.157-.157,0-.314-.174-.37" transform="translate(420.141 296.335)" fill="#395795"/>
              <path id="Trazado_1269799" data-name="Trazado 1269799" d="M132.084,91.554a.794.794,0,0,0-.693.085,15.345,15.345,0,0,0-1.462,1.513c-.055.064-.094.123-.055.2a.405.405,0,0,0,.234.166.915.915,0,0,0,.387.03.521.521,0,0,0,.306-.115,14.884,14.884,0,0,1,1.462-1.513c.166-.153-.013-.319-.178-.37" transform="translate(421.975 297.376)" fill="#395795"/>
              <path id="Trazado_1269800" data-name="Trazado 1269800" d="M132.663,92.009a.372.372,0,0,0-.229-.161.872.872,0,0,0-.391-.034.53.53,0,0,0-.3.119c-.391.472-.782.939-1.173,1.411-.051.064-.089.123-.051.2a.373.373,0,0,0,.229.161.867.867,0,0,0,.391.034.53.53,0,0,0,.3-.119c.391-.467.782-.939,1.169-1.411.055-.064.1-.119.055-.2" transform="translate(424.065 298.315)" fill="#395795"/>
              <path id="Trazado_1269801" data-name="Trazado 1269801" d="M133.306,92.108a.806.806,0,0,0-.7.085,7.906,7.906,0,0,0-1.483,1.713.164.164,0,0,0,.047.2.606.606,0,0,0,.3.132.664.664,0,0,0,.625-.178c.094-.149.2-.3.3-.438.051-.072.106-.14.161-.208l.03-.034.034-.043.085-.1a7.647,7.647,0,0,1,.769-.761c.174-.145-.013-.323-.174-.37" transform="translate(426.031 299.172)" fill="#395795"/>
              <path id="Trazado_1269802" data-name="Trazado 1269802" d="M166.8,96.422H125.3a1.358,1.358,0,1,1,0-2.715h41.5a1.358,1.358,0,0,1,0,2.715" transform="translate(402.744 304.5)" fill="#fff"/>
              <path id="Trazado_1269803" data-name="Trazado 1269803" d="M157.693,171.16q12.761.1,25.518-.45c4.05-.174,8.652-.684,11.044-3.961,2.928-4.007,2.12-11.006,2.669-15.749.676-5.779,1.738-11.461,2.9-17.168a62.57,62.57,0,0,1,3.132-11.406c3.23-7.832,9.349-13.994,12.91-21.638a168.031,168.031,0,0,1,13.679-23.445,32.582,32.582,0,0,1,5.7-6.816,36.87,36.87,0,0,0,12.035-17.652c1.36-4.581,1.262-9.833-1.381-13.815-1.6-2.414-3.99-4.173-6.332-5.881-5.176-3.786-10.216-8.027-15.812-11.168-5.5-3.081-10.747-6.391-16.854-8.019a90.115,90.115,0,0,0-18.927-2.843c-4.6-.225-10.45-1.5-14.8.348a33.453,33.453,0,0,0-7.318,3.888c-3.6,2.737-4.934,6.927-6.527,10.989a114.694,114.694,0,0,0-4.691,14.988c-1.53,6.311-2.231,12.846-4.432,18.957-2.885,8.015-8.584,15.06-12.808,22.416-4.632,8.07-8.835,16.378-12.74,24.821-7.84,16.947-14.478,34.412-21.1,51.861-1.479,3.893-.45,4.912,2.732,5.75,3.251.85,6.918,1.619,10.348,2.528,8.325,2.214,16.99,2.771,25.561,3.1q7.745.3,15.494.361" transform="translate(334.357 34.161)" fill="#65bfd7"/>
              <path id="Trazado_1269804" data-name="Trazado 1269804" d="M136.991,44.58c5.512-2.66,9.43-7.564,12.54-12.689,1.067-1.759,4.3-5.8,4.3-7.832s-4.046-3.213-5.558-4.063c-5.5-3.081-10.743-6.4-16.849-8.023-1.4-.37-3.565-1.564-4.785-.208-1.16,1.283-.094,3.867.544,5.087,4.56,8.7,7.2,18.256,9.808,27.728" transform="translate(409.835 36.18)" fill="#ffa87d"/>
              <path id="Trazado_1269805" data-name="Trazado 1269805" d="M156.238,27.479A4.273,4.273,0,0,0,153.671,26a10.764,10.764,0,0,0-8.622,2.3,26.775,26.775,0,0,0-5.928,6.995,72.9,72.9,0,0,0-8.495,17.542c-.943,3-1.483,6.056-2.6,8.954a16.133,16.133,0,0,0-.238,9.995,35.262,35.262,0,0,0,5.142,10.216,98.137,98.137,0,0,0,10.28,12.749c2.367,2.477,4.968,4.9,8.2,6.034a17.306,17.306,0,0,0,6.259.812,12.489,12.489,0,0,0,5.172-1.084,5.944,5.944,0,0,0,3.3-3.952c.51-2.533-1.169-5.359-1.789-7.781a23.721,23.721,0,0,0-3.723-7.177l-8.044-11.843a5.924,5.924,0,0,1-.905-1.713,5.621,5.621,0,0,1,.03-2.38c1.589-9.744,5.822-18.991,6.617-28.837.178-2.2-.786-4.815-1.118-6.9a5.194,5.194,0,0,0-.969-2.456" transform="translate(413.051 83.869)" fill="#ffa87d"/>
              <path id="Trazado_1269806" data-name="Trazado 1269806" d="M128.913,66.136a1.735,1.735,0,0,0,.008,1.054c.51,1.3,4.186,2,5.371,2.507,5.588,2.392,12.842,5.4,18.97,4.938q4.6-16.439,7.989-33.189a92.474,92.474,0,0,0,1.9-12.672c.157-2.592.217-7.339-1.279-9.629a3.511,3.511,0,0,0-3.888-1.135c-4.56,1.313-7.216,8.01-9.192,11.843-5.3,10.292-10.1,20.878-16.284,30.69-.684,1.092-3.128,3.744-3.6,5.592" transform="translate(418.653 57.995)" fill="#65bfd7"/>
              <path id="Trazado_1269807" data-name="Trazado 1269807" d="M132.025,54.815c.926-.748,1.857-1.5,2.783-2.244q4.354-3.512,8.711-7.029c2.856-2.3,5.83-4.755,7.194-8.163,1.725-4.313.463-9.349-2.031-13.267A15.354,15.354,0,0,0,145.27,20.2c-5.541-4.33-12.03-2.426-17.07,1.628A213.181,213.181,0,0,0,107.293,41.82c-3.132,3.315-4.976,6.238-5.146,10.807-.659,17.6,2.036,35.02,6.446,52.035a41.881,41.881,0,0,0,4.364,11.537c1.751,2.856,4.517,5.533,8.083,4.725,3.174-.718,6.765-3.255,7.322-6.672a10.762,10.762,0,0,0-.072-3q-1.562-13.405-3.132-26.8-.784-6.7-1.564-13.4c-.433-3.693-2.086-7.755,1.19-10.4l7.241-5.839" transform="translate(331.605 57.621)" fill="#ffa87d"/>
              <path id="Trazado_1269808" data-name="Trazado 1269808" d="M138.936,61.733c10.008-6.255,20.168-12.341,27.847-21.2,3.514-4.054,6.523-8.886,6.846-14.236a28.811,28.811,0,0,0-1.415-9.353c-.285-1.024-1.317-1.708-2.1-2.388a13.535,13.535,0,0,0-9.617-3.676,20.2,20.2,0,0,0-4.64,1.1,98.749,98.749,0,0,0-9.447,3.387,99.645,99.645,0,0,0-14.355,8.27q-9.115,5.954-18.226,11.9a42.3,42.3,0,0,0-6.51,4.878c1.016,2.89,5.006,4.781,7.228,6.633,4.046,3.366,6.859,7.93,9.923,12.209a86.559,86.559,0,0,0,5.847,8.044c2.817-1.917,5.707-3.748,8.614-5.563" transform="translate(348.75 35.261)" fill="#65bfd7"/>
              <path id="Trazado_1269809" data-name="Trazado 1269809" d="M206.389,243.912a7.073,7.073,0,0,0,.034-2.55l-.076-3.761q-.083-3.754-.183-7.513-.191-7.515-.45-15.031-.516-15.031-1.279-30.044t-1.789-30.019q-.376-5.552-.79-11.1a134.726,134.726,0,0,0-1.9-16.271c-.633-3.213-1.224-8.482-3.1-11.333l-.009-.166c-5.473-16.212-14.916-31.506-22.446-46.706-3.094-6.243-5.941-16.582-11.724-20.546A34.229,34.229,0,0,0,142.336,42.9c-9.306.217-18.269,3.536-26.657,7.568a15.662,15.662,0,0,0-5.52,3.765c-2.112,2.55-1.5,6.213-1.16,9.277.752,6.859,3.4,13.386,6.706,19.446a41.4,41.4,0,0,0,6.349,9.107c1.942,2.01,4.186,3.7,6.306,5.516,7.53,6.464,13.484,14.538,20.274,21.774l.055.055c2.265,2.409,5.282,4.5,7.258,7.109,1.866,2.452,2.958,5.915,3.82,8.83,1.9,6.379,2.4,13.076,2.885,19.684q1.1,15.024,2.2,30.048t2.2,30.052q.548,7.515,1.1,15.026.274,3.754.548,7.513c.094,1.254.187,2.5.276,3.757.051.671-.149,2.681.285,3.1a.8.8,0,0,0,.45.17q1.46.134,2.919.127c1.6,0,3.187-.127,4.781-.217,9.243-.523,18.511.06,27.766-.136a1.96,1.96,0,0,0,.858-.149.786.786,0,0,0,.361-.412" transform="translate(353.055 139.362)" fill="#65bfd7"/>
              <path id="Trazado_1269810" data-name="Trazado 1269810" d="M85.655,88.606c.939-.259,1.883-.51,2.817-.778q5.278-1.53,10.564-3.055c1.985-.574,4.487-1.237,4.6-3.676a8.678,8.678,0,0,0-.472-2.724q-.58-2.046-1.169-4.092c-.467-1.636-1.092-3.463-2.635-4.177a6.029,6.029,0,0,0-3.82.03L83.79,72.824a19.489,19.489,0,0,1-4.844.705c-1.653-.03-3.744-.259-5.146.795-1.05.786-1.067,2.091-1.024,3.281a51.524,51.524,0,0,0,1.092,9.162,9.564,9.564,0,0,0,1.857,4.16c.952,1.118,1.823.9,3.179.166a31.011,31.011,0,0,1,6.752-2.486" transform="translate(236.444 226.807)" fill="#ffa87d"/>
              <path id="Trazado_1269811" data-name="Trazado 1269811" d="M81.325,113.394a2.1,2.1,0,0,1-.2-.1L71.122,71.439c.289-.111.578-.212.871-.306A19.125,19.125,0,0,1,74,70.593a15.71,15.71,0,0,1,7.8.251,2.131,2.131,0,0,1,1.415.96,2.759,2.759,0,0,1-.161,1.912c-.718,2.363-.642,5.554.765,7.658a10.217,10.217,0,0,0,3.638,3.208,7.431,7.431,0,0,1,1.772,1.164,2.922,2.922,0,0,1,.795,2.074c.021,2.188-1.266,4.441-1.832,6.527a49.487,49.487,0,0,0-1.407,7.313c-.242,2.086-.353,4.194-.8,6.238a11.8,11.8,0,0,1-1.951,4.687,2.261,2.261,0,0,1-2.707.807" transform="translate(231.111 228.18)" fill="#dd475d"/>
              <path id="Trazado_1269812" data-name="Trazado 1269812" d="M77.411,88.757c.4-.3.4-.948.472-1.419a53.068,53.068,0,0,1,1.751-7.777q.65-2.161,1.487-4.241a.807.807,0,0,0-.068-.7c-.076-.123-.306-.319-.4-.089a54.425,54.425,0,0,0-2.545,8.138c-.314,1.364-.569,2.741-.773,4.126a2.354,2.354,0,0,1-.191.943c-.2.285-.612.145-.88.055-.446-.144-2.154-1.143-2.562-.688-.637.7,1.033,1.224,1.364,1.283a6.753,6.753,0,0,1,.914.251c.429.153,1.007.429,1.428.115" transform="translate(239.041 241.852)" fill="#993741"/>
              <path id="Trazado_1269813" data-name="Trazado 1269813" d="M77.414,76.878a.915.915,0,0,0-.064-.387.546.546,0,0,0-.191-.263l-1.976-1.186c-.187-.115-.3.081-.31.259a.915.915,0,0,0,.064.387.579.579,0,0,0,.187.268c.663.4,1.317.786,1.976,1.181.191.115.306-.081.314-.259" transform="translate(243.297 243.737)" fill="#395795"/>
              <path id="Trazado_1269814" data-name="Trazado 1269814" d="M77.12,77.36a.772.772,0,0,0-.255-.65,15.248,15.248,0,0,0-1.827-1.045c-.072-.034-.14-.06-.208,0a.392.392,0,0,0-.1.263.908.908,0,0,0,.064.382.5.5,0,0,0,.191.268,15.2,15.2,0,0,1,1.823,1.045c.187.123.306-.089.314-.263" transform="translate(242.825 245.754)" fill="#395795"/>
              <path id="Trazado_1269815" data-name="Trazado 1269815" d="M76.749,78.053a.392.392,0,0,0,.1-.263.927.927,0,0,0-.064-.387c-.043-.089-.1-.221-.191-.263-.552-.263-1.1-.527-1.657-.786-.072-.034-.14-.06-.212,0a.386.386,0,0,0-.1.259.826.826,0,0,0,.064.391.52.52,0,0,0,.187.263c.552.263,1.1.523,1.657.786.077.034.14.06.212,0" transform="translate(242.499 247.993)" fill="#395795"/>
              <path id="Trazado_1269816" data-name="Trazado 1269816" d="M76.991,78.658a.788.788,0,0,0-.259-.65,7.761,7.761,0,0,0-2.027-1.02.166.166,0,0,0-.183.1.607.607,0,0,0-.055.323c.025.2.115.489.327.561.17.055.336.119.5.183.085.034.17.072.246.106l.042.021.043.021.123.059a8.265,8.265,0,0,1,.926.561c.183.128.306-.1.319-.263" transform="translate(241.977 250.15)" fill="#395795"/>
              <path id="Trazado_1269817" data-name="Trazado 1269817" d="M81.313,112.309,71.076,72.092a1.357,1.357,0,0,1,2.63-.667l10.237,40.213a1.357,1.357,0,1,1-2.63.671" transform="translate(230.826 228.768)" fill="#fff"/>
              <path id="Trazado_1269818" data-name="Trazado 1269818" d="M84.9,203.722a7.028,7.028,0,0,0,2.482-.6c1.207-.331,2.414-.667,3.621-1q3.627-1.007,7.241-2.027,7.235-2.046,14.453-4.147,14.438-4.207,28.8-8.652t28.65-9.136c14.38-4.721,25.544-10.326,35.309-22.454,8-9.927,13.722-21.46,19.374-32.887q5.393-10.894,10.789-21.8c6.442-13.02,13.335-27.065,13.237-41.938-.076-11.491-15.468-20.623-26.207-18.592-5.129.969-9.587,4.1-13.518,7.53a80.336,80.336,0,0,0-21.783,30.834c-2.966,7.5-4.776,15.387-7.135,23.092a169.124,169.124,0,0,1-10.008,25.238c-1.449,2.936-3.047,5.911-5.554,8.015-2.728,2.29-6.26,3.332-9.676,4.352q-17.459,5.227-34.48,11.784c-5.673,2.184-11.278,4.509-16.879,6.871-3.978,1.679-10.569,5.057-14.818,5.057l-7.143,2.384c-1.194.4-2.384.795-3.574,1.194-.637.212-2.635.514-2.941,1.041a.838.838,0,0,0-.051.48c.157.96.357,1.917.6,2.86.4,1.543.909,3.055,1.385,4.577,2.788,8.826,4.513,17.954,6.982,26.878a2.026,2.026,0,0,0,.357.79.77.77,0,0,0,.489.251" transform="translate(243.973 130.661)" fill="#65bfd7"/>
              <path id="Trazado_1269819" data-name="Trazado 1269819" d="M145.405,23.231q-5.737,11.684-11.69,23.253-1.676,3.264-3.374,6.514c-.212.412,1,.548,1.2.17q6.017-11.544,11.814-23.194,1.632-3.283,3.251-6.574c.2-.425-1.011-.552-1.2-.17" transform="translate(423.463 74.748)" fill="#395795"/>
              <path id="Trazado_1269820" data-name="Trazado 1269820" d="M143.384,18.872q-12.13,7.974-23.98,16.378-3.315,2.352-6.612,4.742c-.238.17.059.378.221.433a.985.985,0,0,0,.85-.115q11.639-8.433,23.572-16.454,3.4-2.288,6.829-4.538c.586-.387-.535-.671-.88-.446" transform="translate(366.229 61.064)" fill="#395795"/>
              <path id="Trazado_1269821" data-name="Trazado 1269821" d="M117.657,52.535q-2.492,5.176-5.121,10.292c-.212.416,1,.548,1.194.17q2.626-5.112,5.125-10.292c.2-.425-1.016-.552-1.2-.17" transform="translate(365.606 169.971)" fill="#395795"/>
              <path id="Trazado_1269822" data-name="Trazado 1269822" d="M98.748,62.806a30.65,30.65,0,0,0-3.136,11.478c-.03.425,1.207.455,1.241,0a30.1,30.1,0,0,1,3.094-11.308c.208-.421-1.007-.548-1.2-.17" transform="translate(310.688 203.356)" fill="#395795"/>
              <path id="Trazado_1269823" data-name="Trazado 1269823" d="M187.13,51.1c-.1-.238-.565-.246-.765-.221a262,262,0,0,1-32.836,2.375q-8.236.077-16.463-.365-4.137-.223-8.27-.578a61.513,61.513,0,0,1-8.07-1.113c-5.7-1.266-11.108-3.582-16.866-4.606-.2-.038-.663-.017-.761.221-.106.255.255.357.433.387,5.218.931,10.152,2.953,15.281,4.241,5.3,1.326,10.815,1.632,16.25,1.968a262.132,262.132,0,0,0,33.091-.064q9.3-.6,18.541-1.853c.183-.026.535-.144.433-.391" transform="translate(334.964 151.339)" fill="#993741"/>
              <path id="Trazado_1269824" data-name="Trazado 1269824" d="M167.563,37.682a.987.987,0,0,0-.85.115q-10.5,7.107-21.375,13.662Q134.5,58,123.33,63.97q-6.285,3.359-12.663,6.536c-.234.119-.208.327,0,.45a1.034,1.034,0,0,0,.875,0q11.41-5.679,22.514-11.95,11.059-6.24,21.783-13.059,6.03-3.825,11.945-7.832c.246-.166-.068-.382-.221-.433" transform="translate(359.074 122.289)" fill="#993741"/>
              <path id="Trazado_1269825" data-name="Trazado 1269825" d="M127.982,38.008a1,1,0,0,0-.875,0q-7.171,4.118-14.661,7.624c-.238.115-.2.327,0,.45a1.044,1.044,0,0,0,.88,0q7.483-3.506,14.657-7.628c.221-.127.217-.319,0-.446" transform="translate(364.854 123.178)" fill="#993741"/>
              <path id="Trazado_1269826" data-name="Trazado 1269826" d="M169.878,48.981c-2.341,6.051-6.051,11.992-11.682,18.694A123.508,123.508,0,0,1,144.708,81.4l-1.4-1.606a120.756,120.756,0,0,0,13.258-13.484c5.469-6.519,9.073-12.264,11.325-18.09,1.649-4.258,6.277-18.851-3.242-27.936-.79-.756-1.674-1.466-2.533-2.15a32.992,32.992,0,0,0-5.771-3.982c-6.995-3.438-16.305-.922-20.763,5.618-2.545,3.727-4.216,8.053-5.822,12.243-.578,1.483-1.173,2.983-1.751,4.441-1.16,2.928-2.35,5.915-3.408,8.945-.234.684-.467,1.373-.688,2.057a4.207,4.207,0,0,0-2.065-.527c.225-.7.463-1.4.7-2.1,1.084-3.106,2.295-6.166,3.485-9.158.578-1.449,1.173-2.945,1.738-4.419,1.657-4.3,3.37-8.75,6.051-12.681,5.036-7.377,15.557-10.212,23.461-6.323a34.093,34.093,0,0,1,6.162,4.233c.892.71,1.814,1.449,2.673,2.265,7.067,6.748,8.473,18.052,3.757,30.244" transform="translate(395.952 34.107)" fill="#231c20"/>
              <path id="Trazado_1269827" data-name="Trazado 1269827" d="M136.889,32.171a6.028,6.028,0,1,1-6.026-6.026,6.03,6.03,0,0,1,6.026,6.026" transform="translate(405.646 84.957)" fill="#fff"/>
              <path id="Trazado_1269828" data-name="Trazado 1269828" d="M123.847,17.74c-.442,1.177-.88,2.354-1.3,3.548-.238.7-.476,1.4-.7,2.1a4.166,4.166,0,0,1,2.065.531c.221-.688.455-1.377.688-2.061.412-1.173.846-2.341,1.283-3.5-.676-.208-1.356-.425-2.04-.616" transform="translate(395.952 57.645)" fill="#fff"/>
              <path id="Trazado_1269829" data-name="Trazado 1269829" d="M149.3,37.88a31.134,31.134,0,0,1-2.924,5.86,51.5,51.5,0,0,1-13.037,14.185l-1.262-1.708a49.488,49.488,0,0,0,12.489-13.594,29.175,29.175,0,0,0,2.732-5.465,21,21,0,0,0,.986-10.3A9.359,9.359,0,0,0,146.6,22.42a4.76,4.76,0,0,0-1.36-1.19,4.222,4.222,0,0,0-2.065-.531c-2.38-.017-5.184,1.6-7.934,3.366A44.58,44.58,0,0,0,117.3,46.825l-2.01-.688a46.63,46.63,0,0,1,18.8-23.861c2.414-1.551,6.264-4.02,9.787-3.676a5.864,5.864,0,0,1,2.052.569,6.715,6.715,0,0,1,2.337,1.929,11.3,11.3,0,0,1,2.112,5.435A23.006,23.006,0,0,1,149.3,37.88" transform="translate(374.626 60.333)" fill="#fff"/>
              <path id="Trazado_1269830" data-name="Trazado 1269830" d="M119.561,29.212c-1.19,1.8-2.945,2.728-3.927,2.078s-.812-2.63.378-4.424,2.945-2.728,3.927-2.082.812,2.63-.378,4.428" transform="translate(373.687 79.867)" fill="#fff"/>
              <path id="Trazado_1269831" data-name="Trazado 1269831" d="M123.236,30.856c-.676,2.044-2.125,3.408-3.242,3.038s-1.475-2.324-.8-4.368,2.125-3.408,3.242-3.038,1.475,2.324.8,4.368" transform="translate(386.216 85.872)" fill="#fff"/>
              <path id="Trazado_1269832" data-name="Trazado 1269832" d="M129.777,35.7a4.611,4.611,0,1,1,4.611-4.611,4.617,4.617,0,0,1-4.611,4.611m0-8.512a3.9,3.9,0,1,0,3.9,3.9,3.906,3.906,0,0,0-3.9-3.9" transform="translate(406.728 86.039)" fill="#395795"/>
              <path id="Trazado_1269833" data-name="Trazado 1269833" d="M154.715,30a21.4,21.4,0,0,1-2.091,7.781c-.047.089-.089.178-.14.268a39.4,39.4,0,0,1-6.5,8.58c-2.133,2.286-4.887,3.34-7.9,1.929a13.986,13.986,0,0,1-5.163-4.878,46.126,46.126,0,0,1-5.533-10.454,6.389,6.389,0,0,1-.557-2.953,6.794,6.794,0,0,1,1.347-2.873,21.627,21.627,0,0,0,2.8-4.394c.773-2.159.561-4.509,1.36-6.676,1.037-2.826,1.636-5.784,3.948-7.942a8.814,8.814,0,0,1,4.046-1.934c3.208-.756,6.91-.455,9.332,1.785,1.67,1.551,2.5,3.782,3.272,5.928a34.229,34.229,0,0,1,1.874,10.462c0,.276.013.557.017.837A38.133,38.133,0,0,1,154.715,30" transform="translate(412.046 19.76)" fill="#ffa87d"/>
              <path id="Trazado_1269834" data-name="Trazado 1269834" d="M139.442,16.155a21.4,21.4,0,0,1-2.091,7.781c-.047.089-.089.178-.14.268a14.671,14.671,0,0,1-4.781-5.524,7.949,7.949,0,0,1-.6-5.8,3.507,3.507,0,0,1,3.85-2.5c1.092.11,2.55-.276,3.561.212a1.474,1.474,0,0,1,.191.11.64.64,0,0,1,.11.076c0,.276.013.557.017.837.026,1.509-.017,3.026-.115,4.534" transform="translate(427.319 33.605)" fill="#e06f63"/>
              <path id="Trazado_1269835" data-name="Trazado 1269835" d="M162.824,16a18.979,18.979,0,0,1-.132,5.108c-.174,1.084-.65,2.1-.782,3.187a5.336,5.336,0,0,0,.544,2.928c.646,1.53,1.432,2.992,2.188,4.47.629,1.228,1.585,2.864.748,4.233a3.551,3.551,0,0,1-1.016.982c-1.1.786-2.894,1.079-3.565,2.278a20.68,20.68,0,0,0-1.568,4.6,18.444,18.444,0,0,1-1.747,4.284c-1.419,2.418-4.347,2.545-6.829,1.942a17.572,17.572,0,0,1-11.835-10.033,31.281,31.281,0,0,1-1.674-5c-.4-1.555-.565-2.741-2.031-3.621A12.948,12.948,0,0,1,128.8,20.783a17.436,17.436,0,0,1,1.823-8.818,14.432,14.432,0,0,1,3.544-4.713,18.313,18.313,0,0,1,4.547-2.66,45.6,45.6,0,0,1,6.816-2.38,12.793,12.793,0,0,1,4.3-.552,13.629,13.629,0,0,1,4.063,1.2,13.352,13.352,0,0,1,6.91,5.86,15.719,15.719,0,0,1,1.05,2.72A24.856,24.856,0,0,1,162.824,16" transform="translate(418.427 5.303)" fill="#ffa87d"/>
              <path id="Trazado_1269836" data-name="Trazado 1269836" d="M148.969.024c3.5.2,6.952-.055,10.437.089a27.64,27.64,0,0,1,7.649,1.419,11.03,11.03,0,0,1,5.21,3.2,5.1,5.1,0,0,1,.659,5.767c-.914,1.432-2.622,2.1-4.16,2.817a28.37,28.37,0,0,0-4.526,2.656c-2.074,1.492-1.487,2.694-2.256,4.738a19.683,19.683,0,0,1-3.706,5.89,39.963,39.963,0,0,1-7.679,7.092c-3.969,2.673-6.829,6.774-10.87,9.336a3.483,3.483,0,0,1-2.231.722c-2-.268-2.635-4.636-3.064-6.183-.51-1.823-.659-3.88-1.343-5.635a22.585,22.585,0,0,0-2.316-3.57,7.77,7.77,0,0,1-1.181-3.871,3.158,3.158,0,0,0-.353-1.84,3.689,3.689,0,0,0-1.8-.943,3.763,3.763,0,0,1-2.52-3.519,4.242,4.242,0,0,1,1.594-2.83,19.721,19.721,0,0,1,2.8-1.806,1.76,1.76,0,0,0,.731-.654,2.583,2.583,0,0,0,.042-1.373c-.161-1.968,1.432-3.71,3.242-4.5a24.5,24.5,0,0,1,5.784-1.19c1.946-.327,3.986-.99,5.18-2.562.748-.986,1.156-2.312,2.239-2.915a4.449,4.449,0,0,1,2.431-.34" transform="translate(405.914 0)" fill="#231c20"/>
              <path id="Trazado_1269837" data-name="Trazado 1269837" d="M141.9,7.645a1.339,1.339,0,0,0-.629-1.113,5.178,5.178,0,0,0-3.132-.82,5.752,5.752,0,0,0-3.009.54c-.467.272-.472.722-.047.863a9.367,9.367,0,0,0,1.67.123,18.4,18.4,0,0,1,3.3.7c.378.115,1.317.489,1.691.034a.657.657,0,0,0,.153-.327" transform="translate(437.951 18.551)" fill="#231c20"/>
              <path id="Trazado_1269838" data-name="Trazado 1269838" d="M135.5,8.136c.136-.79.909-1.959,1.84-1.237a1.223,1.223,0,0,1,.387.612A2.787,2.787,0,0,1,137.8,8.62a2.353,2.353,0,0,1-.748,1.551,1.089,1.089,0,0,1-.272.183.848.848,0,0,1-.875-.1,1.356,1.356,0,0,1-.433-.9,4.289,4.289,0,0,1,.03-1.22" transform="translate(440.113 21.681)" fill="#231c20"/>
              <path id="Trazado_1269839" data-name="Trazado 1269839" d="M138.71,15.481l.051-.119c1.373-3.187.123-10.029-4.534-9.264A4.945,4.945,0,0,0,130.6,9.175c-1.2,2.987-.021,8.716,3.527,9.685,2.163.591,3.808-1.645,4.585-3.378" transform="translate(422.897 19.622)" fill="#ffa87d"/>
              <path id="Trazado_1269840" data-name="Trazado 1269840" d="M138.624,11.049c-1.024-.149-2.052-.336-3.051-.552a.771.771,0,0,0-.718.314.639.639,0,0,0-.179.353c0,.081.017.212.119.234,1.079.234,2.163.433,3.251.591a.656.656,0,0,0,.374-.123,1,1,0,0,0,.336-.331c.1-.187.153-.442-.132-.484" transform="translate(437.63 34.067)" fill="#e06f63"/>
              <path id="Trazado_1269841" data-name="Trazado 1269841" d="M140.98,3.227A12.79,12.79,0,0,0,134.275.558c-.212-.021-.663-.025-.765.221s.255.37.433.391a11.363,11.363,0,0,1,5.966,2.375c1.462,1.232,2.4,3.451,1.084,5.138-.174.221.306.37.433.387a.808.808,0,0,0,.761-.221c1.436-1.836.374-4.288-1.207-5.622" transform="translate(433.782 1.782)" fill="#395795"/>
              <path id="Trazado_1269842" data-name="Trazado 1269842" d="M157.647,4.756c-.807-1.789-2.766-2.618-4.615-2.822a16.377,16.377,0,0,0-6.442.693C142.536,3.876,139.2,6.7,135.18,8.02a9.338,9.338,0,0,1-6.765.021,1.034,1.034,0,0,0-.875,0c-.208.119-.246.336,0,.446,3.829,1.73,8.117.45,11.656-1.373,1.806-.935,3.544-2.006,5.38-2.885a16.669,16.669,0,0,1,6.217-1.7c2.138-.127,4.67.208,5.656,2.4.174.378,1.394.268,1.2-.17" transform="translate(413.886 6.032)" fill="#395795"/>
              <path id="Trazado_1269843" data-name="Trazado 1269843" d="M135.488,3.125a.955.955,0,0,0-.85-.115,8.12,8.12,0,0,1-6.68-.408.99.99,0,0,0-.875,0c-.221.123-.234.327,0,.446a10.128,10.128,0,0,0,8.185.51c.2-.072.416-.225.221-.433" transform="translate(412.401 8.122)" fill="#395795"/>
              <path id="Trazado_1269844" data-name="Trazado 1269844" d="M134.358,7.646a.954.954,0,0,0-.85-.115,5.562,5.562,0,0,1-5.686-1.39.941.941,0,0,0-.85-.115c-.2.059-.425.234-.221.433a7.347,7.347,0,0,0,7.386,1.619c.2-.068.416-.234.221-.433" transform="translate(411.618 19.422)" fill="#395795"/>
              <path id="Trazado_1269845" data-name="Trazado 1269845" d="M154.141,124.588c.841-2.868-1.555-5.69-4.271-7.1-3.425-1.776-7.381-2.214-10.985-3.582-7.135-2.707-12.345-8.788-17.321-14.572q-9.4-10.919-19.2-21.485-4.9-5.284-9.893-10.471-2.575-2.677-5.176-5.325c-1.109-1.13-3.323-2.507-4.135-3.782C81.386,55.479,80,52.3,78.47,49.406q-3-5.667-5.937-11.363c-1.5-2.894-3.051-8.342-5.835-10.067-3.264-1.785-7.3-1.538-10.862-.467a16.886,16.886,0,0,0-9.506,7.475c-2.337,4.1-1.657,7.832.348,11.784q5.208,10.256,11.359,19.994c2.031,3.217,4.2,7.25,7.182,10.037,4.126,5.082,10.751,9.268,15.171,12.634a401.022,401.022,0,0,0,37.451,24.8c1.594.96,2.681,2.384,4.271,3.349a9.957,9.957,0,0,0,5.5,1.436l.055,0c1.4-.068,2.771-.429,4.173-.518a10.817,10.817,0,0,1,3.578.378,4.334,4.334,0,0,1,2.256,1.288c1.993,2.46-.327,5.265.739,7.662,1.364,3.072,7.258,1.806,9.757,1.215a9.1,9.1,0,0,0,4.683-2.307,5.291,5.291,0,0,0,1.283-2.142" transform="translate(145.755 86.661)" fill="#ffa87d"/>
              <path id="Trazado_1269846" data-name="Trazado 1269846" d="M66.006,86.887A84.64,84.64,0,0,0,80.82,78.38a115.254,115.254,0,0,0,10-8.291c-.744-1.373-1.424-2.741-2.053-3.884q-3.041-5.571-5.813-11.291-5.539-11.435-9.948-23.372c-.042-.119-.089-.242-.132-.365a29.348,29.348,0,0,0-3.935-8.061c-1.921-2.473-4.908-4.351-8.032-4.088-2.235.191-4.233,1.424-6.128,2.622-3.31,2.091-6.7,4.254-9.03,7.4-5.937,7.989-3.812,17.2-.548,25.752q6.782,17.759,13.564,35.513c2.4-1.169,4.823-2.286,7.237-3.425" transform="translate(136.492 61.746)" fill="#65bfd7"/>
              <path id="Trazado_1269847" data-name="Trazado 1269847" d="M156.96,40.565c-.973.055-1.946.1-2.915.166q-5.488.37-10.976.744c-2.057.136-4.649.255-5.274,2.618a8.567,8.567,0,0,0-.119,2.758c.089,1.415.183,2.83.272,4.25.11,1.7.331,3.612,1.691,4.636a6.011,6.011,0,0,0,3.74.786q6.03-.07,12.056-.136a19.275,19.275,0,0,1,4.883.336c1.611.382,3.608,1.045,5.2.314,1.19-.544,1.483-1.815,1.7-2.987a51.628,51.628,0,0,0,.875-9.183,9.551,9.551,0,0,0-.935-4.462c-.693-1.292-1.589-1.266-3.068-.833a31.153,31.153,0,0,1-7.126.994" transform="translate(447.205 127.714)" fill="#ffa87d"/>
              <path id="Trazado_1269848" data-name="Trazado 1269848" d="M163.4,35.5c.047.059.085.115.128.178L152.8,77.358c-.306-.042-.608-.085-.914-.136a19.61,19.61,0,0,1-2.023-.463,15.755,15.755,0,0,1-6.774-3.871,2.125,2.125,0,0,1-.8-1.509,2.748,2.748,0,0,1,1.037-1.615c1.738-1.755,3.162-4.611,2.907-7.126a10.177,10.177,0,0,0-1.717-4.538,7.453,7.453,0,0,1-1.02-1.857,2.924,2.924,0,0,1,.268-2.205c1-1.946,3.2-3.332,4.67-4.912a49.52,49.52,0,0,0,4.662-5.8,62.8,62.8,0,0,1,3.629-5.142,11.8,11.8,0,0,1,3.91-3.23,2.261,2.261,0,0,1,2.775.552" transform="translate(462.342 112.776)" fill="#ffd540"/>
              <path id="Trazado_1269849" data-name="Trazado 1269849" d="M152.726,36.737c-.5.081-.8.65-1.079,1.033a53.076,53.076,0,0,1-5.184,6.056q-1.587,1.6-3.3,3.055a.8.8,0,0,0-.268.646c.008.144.123.425.31.268a54.961,54.961,0,0,0,6.056-6c.914-1.062,1.781-2.159,2.613-3.289.166-.225.348-.612.608-.744.306-.157.612.161.8.365.327.336,1.368,2.014,1.942,1.806.892-.323-.34-1.564-.6-1.776a5.871,5.871,0,0,1-.693-.65c-.306-.331-.688-.846-1.207-.765" transform="translate(464.341 119.349)" fill="#b2752b"/>
              <path id="Trazado_1269850" data-name="Trazado 1269850" d="M143.321,38.479a.971.971,0,0,0-.123.374.562.562,0,0,0,.042.323c.4.654.795,1.313,1.194,1.972.11.187.306.068.4-.089a.813.813,0,0,0,.123-.37.553.553,0,0,0-.042-.323c-.4-.659-.795-1.313-1.19-1.972-.115-.187-.306-.068-.4.085" transform="translate(465.306 124.449)" fill="#fff"/>
              <path id="Trazado_1269851" data-name="Trazado 1269851" d="M143.76,38.046a.773.773,0,0,0-.081.693,15.3,15.3,0,0,0,1.126,1.776c.051.068.1.119.187.1a.383.383,0,0,0,.212-.187.866.866,0,0,0,.123-.37.52.52,0,0,0-.042-.323,16.045,16.045,0,0,1-1.126-1.776c-.106-.2-.31-.064-.4.085" transform="translate(466.715 123.034)" fill="#fff"/>
              <path id="Trazado_1269852" data-name="Trazado 1269852" d="M144.386,37.377a.381.381,0,0,0-.212.187.888.888,0,0,0-.123.37.521.521,0,0,0,.042.323c.365.489.731.982,1.1,1.47.051.064.1.119.187.1a.392.392,0,0,0,.212-.183.847.847,0,0,0,.123-.374.521.521,0,0,0-.042-.323c-.365-.489-.731-.982-1.1-1.47-.051-.064-.1-.119-.187-.1" transform="translate(468.074 121.439)" fill="#fff"/>
              <path id="Trazado_1269853" data-name="Trazado 1269853" d="M144.589,36.971a.781.781,0,0,0-.081.7,7.882,7.882,0,0,0,1.317,1.844.166.166,0,0,0,.208,0,.584.584,0,0,0,.2-.263.656.656,0,0,0-.03-.65c-.123-.127-.242-.259-.353-.4-.06-.068-.11-.136-.166-.208l-.026-.034-.034-.042-.076-.106a7.943,7.943,0,0,1-.561-.931c-.1-.2-.315-.059-.4.085" transform="translate(469.413 119.537)" fill="#fff"/>
              <path id="Trazado_1269854" data-name="Trazado 1269854" d="M156.769,36.31l-9.761,40.332A1.357,1.357,0,1,1,144.369,76l9.761-40.332a1.357,1.357,0,0,1,2.639.637" transform="translate(469.005 112.544)" fill="#fff"/>
              <path id="Trazado_1269855" data-name="Trazado 1269855" d="M331.662,72.845c0,1.674-.008,3.455-.072,5.1-.11,2.766-.076,2.528-2.826,2.915-4.424.608-9.056.544-13.513.816q-13.507.816-27.014,1.636L239.664,86.26l-5.456.331q-3.939.236-7.874.472c-11.07.642-22.157,1.173-33.244,1.118-13.824-.072-27.622-1.058-41.407-2.04Q122.5,84.063,93.324,81.977a15.093,15.093,0,0,1-5.818-1.2c-9.918-5.053-2.265-19.31,2.324-25.136a56.959,56.959,0,0,1,25.68-17.916,82.3,82.3,0,0,1,23.058-4.4,134.926,134.926,0,0,1,21.8.722c4.458.476,8.9,1.109,13.331,1.742,11.444,1.632,22.331,4.606,33.733,5.945q16.216,1.906,32.33,4.581,4.035.669,8.07,1.39c1.428.255,2.864.506,4.292.756,25.268,4.441,50.7,8.3,76.359,10.016,6.973.467,3.174,10.063,3.174,14.372" transform="translate(268.615 107.724)" fill="#dd475d"/>
              <path id="Trazado_1269856" data-name="Trazado 1269856" d="M115.306,23.96q-1.326-.5-2.66-.973-6.795-2.441-13.628-4.764c-2.741-.931-5.567-1.861-8.457-1.7-3.3.187-5.342,1.946-8.18,3.217s-6.056,1.36-8.869,2.987a11.316,11.316,0,0,0-5.592,7.046c-.752,3.434.608,6.939,1.942,10.19,3.582,8.72,8.291,17.053,13.033,25.246a404.667,404.667,0,0,0,27.163,40.332c4.475,5.852,8.975,11.877,14.686,16.594,2.813,2.32,6.056,3.408,8.971,5.359,1.972,1.317,3.527,4.4,6.447,3.374,1.815-.637,3.051-2.286,4.173-3.842,2.087-2.091,3.629-4.827,5.694-6.956a92.107,92.107,0,0,0,7-8.92q7.343-9.746,14.678-19.5a5.681,5.681,0,0,0,1.538-3.493c-.076-1.645-1.517-2.851-2.822-3.859a153.461,153.461,0,0,1-28.314-28.6c-1.993-2.63-4.02-5.3-5.745-8.117-1.415-2.3-1.857-4.717-3.043-7.122a32.589,32.589,0,0,0-10.976-13.1,36.681,36.681,0,0,0-7.037-3.4" transform="translate(220.006 53.621)" fill="#ffd540"/>
              <path id="Trazado_1269857" data-name="Trazado 1269857" d="M105.957,40.42c-.17-.178-.344-.357-.518-.535-3.14-3.234-6.608-6.37-10.879-7.811s-9.536-.79-12.455,2.643C76.338,41.5,80.749,51.082,86.21,56.109c13.165,12.128,29.3,21.307,46.762,25.5,8.214,1.976,16.637,1.662,24.7,3.268,4.194.833,8.6.336,12.766-.4,1.126-.2,2.244-.5,3.37-.659.8-.119,1.547.055,2.35-.081a12.156,12.156,0,0,0,5.261-2.732,4.257,4.257,0,0,0,1.2-1.283,1.575,1.575,0,0,0-.059-1.674c-.561-.7-1.653-.535-2.524-.306.348-.48.693-.965,1.041-1.445.187-.263.382-.6.238-.888-.161-.319-.6-.331-.96-.289-3.633.412-7.169,1.449-10.755,2.159-1.351.268-12.086,1.64-10.938-.918.722-1.615,4.22-1.844,5.716-1.968a23.466,23.466,0,0,0,4.135-.727,4.515,4.515,0,0,0,1.789-.812,1.748,1.748,0,0,0,.625-1.764c-.591-1.9-3.5-1.079-4.921-1.194-2.286-.187-4.568-.731-6.871-.438a27.951,27.951,0,0,0-5.682,1.751C147.365,73.362,142.257,69.9,137.089,67a103.576,103.576,0,0,1-12.536-7.84c-6.995-5.359-12.489-12.383-18.6-18.74" transform="translate(257.987 101.89)" fill="#ffa87d"/>
              <path id="Trazado_1269858" data-name="Trazado 1269858" d="M102.948,34.7c-2.053-2.745-4.143-5.465-6.234-8.18a27.907,27.907,0,0,0-3.965-4.458c-4.139-3.5-11.958-4.572-16.841-1.819-4.683,2.643-7.352,10.28-6.608,15.379.574,3.922,2.418,7.534,4.3,11.027a285.224,285.224,0,0,0,32.776,48.1,11.126,11.126,0,0,0,3.353,3.017c3.536,1.772,7.683-.442,11-2.592a41.645,41.645,0,0,0,10.182-9.94c1.734-2.418,5.779-7.959,4.041-10.951a7.875,7.875,0,0,0-1.764-1.9c-4.555-3.931-9.608-7.611-13.382-12.341A77.621,77.621,0,0,1,114.043,51a186.525,186.525,0,0,0-11.1-16.3" transform="translate(224.791 60.7)" fill="#ffd540"/>
              <path id="Trazado_1269859" data-name="Trazado 1269859" d="M119.539,74.944c-1.19-4.029-5.388-6.026-8.049-8.945-1.751-1.917-3.272-4.054-4.853-6.111-1.632-2.129-3.255-4.267-4.84-6.434-2.907-3.973-5.605-8.083-8.261-12.23-2.465-3.85-4.946-7.709-7.73-11.346A53.172,53.172,0,0,0,75.1,19.08a1.037,1.037,0,0,0-.854-.208c-.221.059-.327.272-.106.433,7.377,5.376,12.536,13.033,17.41,20.61,2.579,4.02,5.146,8.044,7.93,11.928,3.064,4.279,6.247,8.5,9.54,12.613a26.613,26.613,0,0,0,2.724,2.983c.824.761,1.7,1.458,2.558,2.18,1.7,1.432,3.391,3.009,4.037,5.2.119.408,1.334.561,1.2.123" transform="translate(240.513 61.234)" fill="#b2752b"/>
              <path id="Trazado_1269860" data-name="Trazado 1269860" d="M107.455,36.938c-.136-.242-.552-.314-.8-.31-7.845.034-15.936,0-23.385-2.783a29.561,29.561,0,0,1-5.86-2.945.92.92,0,0,0-.85-.089c-.246.149-.059.361.111.472,6.9,4.509,15.281,5.728,23.355,5.966,2.371.068,4.738.068,7.109.059.217,0,.45-.136.319-.37" transform="translate(248.399 99.885)" fill="#b2752b"/>
              <path id="Trazado_1269861" data-name="Trazado 1269861" d="M85.429,31.765c-.059-.259-.472-.37-.688-.4l-2.9-.331c-.166-.021-.574.008-.51.272s.472.374.688.4l2.9.331c.17.017.574-.013.514-.276" transform="translate(264.254 100.839)" fill="#b2752b"/>
              <path id="Trazado_1269862" data-name="Trazado 1269862" d="M96.436,45.99c-.4-.178-.8-.353-1.2-.514a70.459,70.459,0,0,0-4.653-14.317A46.9,46.9,0,0,0,74.666,11.531c-.068-.5-.157-.982-.259-1.441C81.525,14.641,87.5,21.8,91.554,30.717A72.2,72.2,0,0,1,96.436,45.99" transform="translate(241.786 32.786)" fill="#65bfd7"/>
              <path id="Trazado_1269863" data-name="Trazado 1269863" d="M72.351,34.556a5.559,5.559,0,0,0,1.985,1.785,12.388,12.388,0,0,0,5.754.99l19.038.2a56.537,56.537,0,0,0,12.8-.841c.178-.042-1.56-1.237-1.776-1.313-.786-.285-1.483-.637-2.248-1a47.323,47.323,0,0,0-5.49-1.946A30.825,30.825,0,0,1,94.988,29.2a10.959,10.959,0,0,1-5.108-8.346l-.021-.1a20.747,20.747,0,0,0-1.313-4.768c-1.747-3.731-5.146-4.143-8.869-3.6-.361.051-.722.11-1.084.174a37.638,37.638,0,0,0-6.956,1.938c-4.657,1.793-5.142,3.017-3.85,7.7a86.272,86.272,0,0,0,2.732,8.244,19.465,19.465,0,0,0,1.832,4.105" transform="translate(218.264 39.634)" fill="#ffa87d"/>
              <path id="Trazado_1269864" data-name="Trazado 1269864" d="M75.155,21.3a11.84,11.84,0,0,0,6.893-.446l-.017-.1a20.561,20.561,0,0,0-1.309-4.772c-1.755-3.731-5.15-4.139-8.877-3.6-.361.055-.722.115-1.079.174a7.821,7.821,0,0,0-.756,1.368,5.31,5.31,0,0,0-.246,3.463,2.9,2.9,0,0,0,.2.523c.875,1.955,3.089,2.915,5.189,3.383" transform="translate(226.092 39.636)" fill="#e06f63"/>
              <path id="Trazado_1269865" data-name="Trazado 1269865" d="M71.374,40.565A19.383,19.383,0,0,1,66,35.461,21.455,21.455,0,0,1,62.19,24.608c-.161-2.316.03-5.078,1.483-7a51.731,51.731,0,0,1,5.235-6.149A22.232,22.232,0,0,1,79.541,5.532c3.918-.926,8.495,1.33,11.248,4.075,1.479,1.47,2.63,3.23,4.033,4.776a11.141,11.141,0,0,0,3.349,2.635,7.958,7.958,0,0,0,3.7.527c2.346,0,5.027.161,4.73,3.213a6.192,6.192,0,0,0,1.152,4.759c1.815,2.465,5.342,5.733,4.373,9.132a6.641,6.641,0,0,1-1.972,3,24.352,24.352,0,0,1-12.617,5.588,47.523,47.523,0,0,1-5.448.144c-5.694.017-11.571.858-16.956-.994a17.858,17.858,0,0,1-3.761-1.819" transform="translate(201.933 17.286)" fill="#ffa87d"/>
              <path id="Trazado_1269866" data-name="Trazado 1269866" d="M69.759,11.746c-.433.4-1.606,1.441-1.572.812A5.636,5.636,0,0,1,72,7.633c1.092-.348,2.307.336,1.3,1.453a4.835,4.835,0,0,1-1.071.795,17.019,17.019,0,0,0-2.32,1.725c-.017.013-.072.064-.153.14" transform="translate(221.57 24.504)" fill="#932409"/>
              <path id="Trazado_1269867" data-name="Trazado 1269867" d="M71.631,10.107c-.038.042-.072.089-.11.127-.7.8-1.436,1.572-2.2,2.316a.16.16,0,0,0-.068.123c.009.068.094.093.157.1a3.218,3.218,0,0,0,2.265-.6,5.989,5.989,0,0,0,2-3.557c.013-.1.008-.225-.081-.268a.239.239,0,0,0-.178.013c-.773.285-1.266,1.118-1.785,1.747" transform="translate(225.044 27.083)" fill="#231c20"/>
              <path id="Trazado_1269868" data-name="Trazado 1269868" d="M99.487,43.466a20.451,20.451,0,0,0-2.766-6.578C95.629,35.213,94.29,33.7,93.249,32c-2.817-4.611-1.815-11.44-.79-16.484.421-2.082.892-4.445-.348-6.162a7.288,7.288,0,0,0-1.067-1.1c-.251-.225-.5-.45-.748-.676a9.555,9.555,0,0,0-3.744-2.422c-2.133-.561-4.6.263-6.667.837A26.111,26.111,0,0,0,69.643,11.5,27.8,27.8,0,0,0,60.6,28.554a17.414,17.414,0,0,0,.3,7.016c1.007,3.582,3.506,5.966,5.618,8.873,1.6,2.205,3.612,3.689,4.555,6.391,1.4,4.02,1.649,7.879,3.786,11.682,2.065,3.667,3.31,7.029,7.075,9.438a15.382,15.382,0,0,0,12,2.091c3.174-.833,5.992-2.673,9.073-3.812a33.278,33.278,0,0,1,11.661-1.687c2.384,0,7.024.357,8.792-1.509a4.508,4.508,0,0,0,.2-5.431,8.118,8.118,0,0,0-4.819-3.111,49.117,49.117,0,0,0-5.8-.858A5.891,5.891,0,0,1,109.6,56.3c-.905-.9-1.2-2.235-1.972-3.247-1.211-1.6-3.336-2.125-5.087-3.1-2.409-1.347-2.439-3.374-2.9-5.767-.047-.242-.1-.484-.153-.722" transform="translate(196.21 16.119)" fill="#932409"/>
              <path id="Trazado_1269869" data-name="Trazado 1269869" d="M75.384,39.088a84.262,84.262,0,0,0,7-8.448C87.427,23.871,92.2,16.812,94.52,8.6a1.39,1.39,0,0,0,.034-.935A1.354,1.354,0,0,0,94,7.132c-1.207-.778-2.9-2.375-4.424-1.636a5.372,5.372,0,0,0-1.666,1.479A213.27,213.27,0,0,1,63.515,31.052c-1.683,1.411-3.995,3.383-2.571,5.626a79.756,79.756,0,0,0,4.543,6.689,4.8,4.8,0,0,0,2.286,1.9c1.071.217,1.385-.433,2.155-1.13,1.84-1.662,3.723-3.268,5.456-5.044" transform="translate(196.597 17.237)" fill="#fff"/>
              <path id="Trazado_1269870" data-name="Trazado 1269870" d="M74.3,10.737l-2.223,2.057a.924.924,0,0,0-.251.778c.017.089.051.2.145.225a.271.271,0,0,0,.251-.1c.744-.684,1.483-1.368,2.227-2.053a.93.93,0,0,0,.246-.782c-.017-.089-.047-.2-.145-.225a.275.275,0,0,0-.251.1" transform="translate(233.372 34.548)" fill="#e06f63"/>
              <g id="Grupo_1209386" data-name="Grupo 1209386" transform="translate(297.877 32.326)" opacity="0.6">
                <g id="Grupo_1209385" data-name="Grupo 1209385">
                  <g id="Grupo_1209384" data-name="Grupo 1209384" clip-path="url(#clip-path-5)">
                    <path id="Trazado_1269871" data-name="Trazado 1269871" d="M87.133,14.579c-1.755-3.378-4.9-6.217-8.695-6.8a25.059,25.059,0,0,0-7.424.319c-2.176.314.132,3.111.642,4.126,1.228,2.452.361,5.405.952,8.019a12.18,12.18,0,0,0,9.506,8.907,5.685,5.685,0,0,0,2.6-.161c.922-.285,1.211-.82,1.934-1.36,3.026-2.248,2.337-8.338,1.215-11.389a14.7,14.7,0,0,0-.735-1.657" transform="translate(-70.097 -7.607)" fill="#65bfd7"/>
                  </g>
                </g>
              </g>
              <path id="Trazado_1269872" data-name="Trazado 1269872" d="M70.4,6.354A19.5,19.5,0,0,0,61.37,19.4a18.144,18.144,0,0,0-.272,4.674c.026.387,1.088.365,1.062,0A19.078,19.078,0,0,1,67.6,9.537a17.919,17.919,0,0,1,3.548-2.8c.518-.306-.455-.561-.752-.382" transform="translate(198.39 20.454)" fill="#701807"/>
              <path id="Trazado_1269873" data-name="Trazado 1269873" d="M62.9,8.585a7.713,7.713,0,0,0-.812,5.138c.076.391,1.13.336,1.067,0a7.443,7.443,0,0,1,.769-4.993c.191-.344-.85-.467-1.024-.144" transform="translate(201.314 27.284)" fill="#701807"/>
              <path id="Trazado_1269874" data-name="Trazado 1269874" d="M77.019,27.538a15.378,15.378,0,0,0-1.266-4.628A15.984,15.984,0,0,0,73.241,19c-.935-1.092-1.98-2.087-2.928-3.162a9.806,9.806,0,0,1-2.384-4.177c-.089-.391-1.139-.327-1.062,0,.633,2.771,2.783,4.717,4.645,6.714a16.087,16.087,0,0,1,4.317,8.282,6.663,6.663,0,0,1-.676,5.031c-.212.3.816.446,1.028.144a6.265,6.265,0,0,0,.837-4.3" transform="translate(217.272 37.018)" fill="#701807"/>
              <path id="Trazado_1269875" data-name="Trazado 1269875" d="M69.179,15.011c-.089-.327-1.139-.276-1.024.144.608,2.282,1.181,4.861-.106,7.029-.2.331.837.459,1.024.144,1.347-2.265.744-4.934.106-7.318" transform="translate(221.045 48.084)" fill="#701807"/>
              <path id="Trazado_1269876" data-name="Trazado 1269876" d="M76.726,19.371a4.189,4.189,0,0,0-3.8-1.4c-.153.021-.459.119-.37.331s.484.212.654.191a2.884,2.884,0,0,1,2.669,1.258,3.367,3.367,0,0,1,.234,3.34c-.178.361.863.467,1.024.14a3.652,3.652,0,0,0-.412-3.863" transform="translate(235.723 58.27)" fill="#701807"/>
              <path id="Trazado_1269877" data-name="Trazado 1269877" d="M66.359,18.842A8.542,8.542,0,0,1,65.344,14.4c.013-.37-1.05-.382-1.067,0a8.89,8.89,0,0,0,1.058,4.585c.17.319,1.211.208,1.024-.144" transform="translate(208.843 45.88)" fill="#701807"/>
              <path id="Trazado_1269878" data-name="Trazado 1269878" d="M84.179,5.74C82.152,10.5,80.206,15.3,78.055,20.006c-.034.068-.068.136-.1.2a.609.609,0,0,0-.45.127A109.459,109.459,0,0,1,65.8,31.994q-1.785,1.53-3.633,2.983c-.2.153.042.323.191.37a.845.845,0,0,0,.727-.1A110.151,110.151,0,0,0,75.28,24.1q.854-.912,1.691-1.844a102.037,102.037,0,0,1-6.3,10.806c-1.534,2.32-3.123,4.6-4.713,6.884-.208.306.816.45,1.028.144,2.843-4.08,5.69-8.172,8.206-12.464a118.882,118.882,0,0,0,6.6-13.734q1.7-4,3.408-8.01c.161-.378-.884-.476-1.024-.144" transform="translate(201.77 17.996)" fill="#65bfd7"/>
              <path id="Trazado_1269879" data-name="Trazado 1269879" d="M185.589,151.05C146.149,99.644,91.394,28.146,79.245,11.943a4.393,4.393,0,0,0-5.69-1.181l-17.134,9.77a4.392,4.392,0,0,0-1.368,6.417c2.337,3.179,7.016,9.345,16.917,22.335,9.455,12.409,22.569,29.572,38.976,51.007,27.932,36.486,56.115,73.21,56.4,73.576l4.258,5.55H474.666a5.207,5.207,0,0,0,5.206-5.21V156.26a5.207,5.207,0,0,0-5.206-5.21Z" transform="translate(176.125 33.092)" fill="#395795"/>
              <path id="Trazado_1269880" data-name="Trazado 1269880" d="M243.059,49.883H71.447a11,11,0,0,0-11,11V70.34a4.186,4.186,0,0,0,4.186,4.186h.493a4.186,4.186,0,0,0,4.186-4.186v-.595a11,11,0,0,1,11-11H243.059Z" transform="translate(196.429 162.093)" fill="#231c20"/>
              <rect id="Rectángulo_459553" data-name="Rectángulo 459553" width="361.698" height="4.611" transform="translate(304.834 405.968) rotate(-32.078)" fill="#ffd540"/>
              <rect id="Rectángulo_459554" data-name="Rectángulo 459554" width="4.609" height="231.348" transform="matrix(0.831, -0.556, 0.556, 0.831, 387.085, 216.978)" fill="#ffd540"/>
              <path id="Trazado_1269881" data-name="Trazado 1269881" d="M495.87,172.57v9.459a4.186,4.186,0,0,1-4.186,4.186h-.493a4.186,4.186,0,0,1-4.186-4.186v-.595a11,11,0,0,0-11-11H168.718l-1.334-1.734c-.28-.365-28.459-37.09-56.387-73.572C66.641,37.194,56.68,23.978,54.275,20.629a1.348,1.348,0,0,1,.446-1.963l5.435-2.987a1.345,1.345,0,0,1,1.734.382c8.189,11.155,80.974,106.123,111.2,145.512H484.873a11,11,0,0,1,11,11" transform="translate(175.551 50.404)" fill="#231c20"/>
              <path id="Trazado_1269882" data-name="Trazado 1269882" d="M138.484,112.571c-4.662,4.755-11.975,5.142-16.331.867s-4.109-11.588.552-16.344,11.971-5.142,16.331-.867,4.109,11.588-.552,16.344" transform="translate(386.823 303.046)" fill="#395795"/>
              <path id="Trazado_1269883" data-name="Trazado 1269883" d="M131.106,105.251a6.2,6.2,0,1,1,.31-9.132,6.477,6.477,0,0,1-.31,9.132" transform="translate(390.72 306.949)" fill="#231c20"/>
              <path id="Trazado_1269884" data-name="Trazado 1269884" d="M148.326,38.4,130.5,94.187l-2.83,8.864H114.606l2.834-8.864,18.524-57.938q4.041.669,8.07,1.385c1.432.259,2.864.51,4.292.761" transform="translate(372.413 117.79)" fill="#fff"/>
              <path id="Trazado_1269885" data-name="Trazado 1269885" d="M127.253,17.574a18.219,18.219,0,0,0-6.272-1c-4.751.11-9.175,2.286-13.42,4.415a55.178,55.178,0,0,0-7.959,4.56,43.868,43.868,0,0,0-5.818,5.312A194.061,194.061,0,0,0,79.021,49.021c-2.8,3.774-5.393,7.126-7.343,11.329-2.146,4.611-5.622,8.928-8.669,12.969-6.3,8.359-13.284,16.178-19.458,24.63-4.585,6.281-8.7,12.88-12.817,19.475a70.039,70.039,0,0,0-5.312,9.6,70.891,70.891,0,0,0-2.588,7.717q-1.033,3.538-2.07,7.071c-.629,2.155-2.031,4.483-2.205,6.71a3.6,3.6,0,0,0,1.594,3.468,4.936,4.936,0,0,0,2.7.37c2.172-.144,4.318-.493,6.472-.795,8.023-1.126,16.123-1.564,24.2-2.125,3.752-.259,7.428.344,11.193-.149a59.317,59.317,0,0,0,11.669-3.043A96.03,96.03,0,0,0,91.885,139.5c2-1.122,4.623-2.35,6.2-4.033,1.432-1.521,2.273-3.888,3.132-5.758a138.5,138.5,0,0,1,10.322-18.57c3.6-5.452,8.376-10.28,12.774-15.162,1.912-2.125,4.152-3.8,5.69-6.192,1.819-2.839,3.544-5.741,5.193-8.682a179.1,179.1,0,0,0,8.873-18.179,57.637,57.637,0,0,0,4.517-15.111c.637-5.231,0-10.756-2.656-15.311a31.481,31.481,0,0,0-7.25-7.972,36.658,36.658,0,0,0-11.431-6.956" transform="translate(60.265 53.833)" fill="#65bfd7"/>
              <path id="Trazado_1269886" data-name="Trazado 1269886" d="M19.422,103.542c.68-.7,1.36-1.394,2.027-2.1q3.774-4,7.547-8c1.419-1.5,3.238-3.349,2.091-5.507a8.521,8.521,0,0,0-1.785-2.1q-1.543-1.466-3.089-2.932c-1.232-1.173-2.7-2.427-4.39-2.257a5.985,5.985,0,0,0-3.276,1.968Q14.167,86.753,9.792,90.9A19.447,19.447,0,0,1,5.98,93.968c-1.441.816-3.357,1.683-4.029,3.3-.5,1.211.144,2.341.786,3.349a51.5,51.5,0,0,0,5.6,7.33,9.559,9.559,0,0,0,3.718,2.639c1.385.476,2.027-.149,2.813-1.475a31.416,31.416,0,0,1,4.555-5.571" transform="translate(5.761 261.994)" fill="#ffa87d"/>
              <path id="Trazado_1269887" data-name="Trazado 1269887" d="M30.123,120.774a1.93,1.93,0,0,1-.221.013L.011,89.829C.2,89.587.4,89.354.6,89.124a19.156,19.156,0,0,1,1.453-1.483A15.739,15.739,0,0,1,8.9,83.893a2.118,2.118,0,0,1,1.7.106,2.719,2.719,0,0,1,.833,1.73c.586,2.4,2.273,5.108,4.551,6.2a10.186,10.186,0,0,0,4.764.914,7.553,7.553,0,0,1,2.121.1,2.907,2.907,0,0,1,1.738,1.385c1.13,1.87,1.169,4.466,1.738,6.548a50.27,50.27,0,0,0,2.507,7.012,62.808,62.808,0,0,1,2.482,5.784,11.721,11.721,0,0,1,.705,5.023,2.261,2.261,0,0,1-1.921,2.074" transform="translate(0.036 272.201)" fill="#ffd540"/>
              <path id="Trazado_1269888" data-name="Trazado 1269888" d="M10,100.538c.2-.467-.136-1.02-.314-1.462A53.471,53.471,0,0,1,7.233,91.49Q6.7,89.3,6.357,87.079a.786.786,0,0,0-.412-.561c-.127-.068-.425-.119-.387.119a54.5,54.5,0,0,0,1.946,8.3q.637,2,1.432,3.948a2.324,2.324,0,0,1,.314.909c-.025.344-.455.433-.731.5-.455.1-2.435.11-2.554.705-.191.931,1.509.531,1.827.412a6.737,6.737,0,0,1,.914-.246c.45-.089,1.084-.144,1.288-.629" transform="translate(18.052 280.956)" fill="#b2752b"/>
              <path id="Trazado_1269889" data-name="Trazado 1269889" d="M8.593,87.583a.946.946,0,0,0-.251-.3.576.576,0,0,0-.3-.136c-.765,0-1.534-.008-2.3-.017-.221,0-.225.225-.136.387a.847.847,0,0,0,.251.3.546.546,0,0,0,.3.136l2.3.013c.221,0,.217-.225.136-.382" transform="translate(18.039 283.137)" fill="#fff"/>
              <path id="Trazado_1269890" data-name="Trazado 1269890" d="M8.586,88.183a.778.778,0,0,0-.548-.429,15.089,15.089,0,0,0-2.1.03c-.081,0-.153.017-.183.106a.374.374,0,0,0,.047.276.846.846,0,0,0,.251.3.518.518,0,0,0,.3.136,14.476,14.476,0,0,1,2.1-.03c.221.013.217-.234.136-.387" transform="translate(18.653 285.079)" fill="#fff"/>
              <path id="Trazado_1269891" data-name="Trazado 1269891" d="M8.624,89.057a.413.413,0,0,0-.051-.28.84.84,0,0,0-.251-.3.524.524,0,0,0-.3-.132L6.2,88.513c-.081.008-.153.021-.183.106a.415.415,0,0,0,.047.276.86.86,0,0,0,.251.3.523.523,0,0,0,.3.132l1.823-.166c.081-.008.153-.017.187-.106" transform="translate(19.512 287.082)" fill="#fff"/>
              <path id="Trazado_1269892" data-name="Trazado 1269892" d="M9.129,89.457a.794.794,0,0,0-.552-.433,7.9,7.9,0,0,0-2.261.153.167.167,0,0,0-.11.178.567.567,0,0,0,.119.306c.127.161.348.365.569.319.17-.038.344-.072.518-.094.089-.017.178-.025.263-.034l.047,0,.051,0,.136-.013a8.4,8.4,0,0,1,1.084.009c.221.021.217-.234.136-.382" transform="translate(20.163 289.206)" fill="#fff"/>
              <path id="Trazado_1269893" data-name="Trazado 1269893" d="M29.653,116.684.395,87.256A1.357,1.357,0,1,1,2.32,85.344l29.258,29.428a1.357,1.357,0,0,1-1.925,1.912" transform="translate(0 276.015)" fill="#395795"/>
              <path id="Trazado_1269894" data-name="Trazado 1269894" d="M45.438,97.049c.633-.744,1.271-1.479,1.891-2.227l7.016-8.469c1.317-1.589,3.017-3.548,1.734-5.631a8.576,8.576,0,0,0-1.917-1.985q-1.638-1.364-3.272-2.728c-1.3-1.088-2.847-2.248-4.526-1.967a6,6,0,0,0-3.145,2.172q-4.1,4.417-8.2,8.835a19.525,19.525,0,0,1-3.608,3.31c-1.385.905-3.242,1.9-3.812,3.553-.421,1.241.3,2.329,1,3.289a51.575,51.575,0,0,0,6.056,6.961,9.547,9.547,0,0,0,3.88,2.392c1.411.387,2.01-.28,2.715-1.649a30.959,30.959,0,0,1,4.186-5.856" transform="translate(89.276 240.462)" fill="#ffa87d"/>
              <path id="Trazado_1269895" data-name="Trazado 1269895" d="M57.786,113.037c-.081.017-.149.021-.221.03L25.745,84.089c.178-.255.361-.5.544-.744.425-.548.88-1.071,1.356-1.572A15.715,15.715,0,0,1,34.236,77.6a2.109,2.109,0,0,1,1.713,0,2.78,2.78,0,0,1,.943,1.674c.731,2.354,2.592,4.951,4.938,5.9a10.189,10.189,0,0,0,4.81.6,7.542,7.542,0,0,1,2.12-.034A2.921,2.921,0,0,1,50.583,87c1.249,1.8,1.453,4.381,2.154,6.425a50.588,50.588,0,0,0,2.953,6.837,62.636,62.636,0,0,1,2.851,5.609,11.784,11.784,0,0,1,1.024,4.968,2.261,2.261,0,0,1-1.781,2.193" transform="translate(83.659 251.539)" fill="#ffd540"/>
              <path id="Trazado_1269896" data-name="Trazado 1269896" d="M36.688,93.663c.166-.48-.2-1.011-.408-1.436a53.02,53.02,0,0,1-2.928-7.415q-.676-2.155-1.156-4.343a.807.807,0,0,0-.45-.54c-.127-.06-.429-.089-.378.149a54.173,54.173,0,0,0,2.477,8.159q.765,1.957,1.683,3.85a2.336,2.336,0,0,1,.37.884c0,.348-.425.467-.7.544-.45.127-2.422.268-2.5.871-.132.939,1.538.429,1.853.293a6.369,6.369,0,0,1,.9-.306c.438-.119,1.071-.212,1.241-.71" transform="translate(101.91 259.592)" fill="#b2752b"/>
              <path id="Trazado_1269897" data-name="Trazado 1269897" d="M34.456,80.922a.9.9,0,0,0-.272-.28.555.555,0,0,0-.306-.115c-.765.043-1.534.085-2.3.132-.221.013-.208.238-.11.391a.915.915,0,0,0,.272.285.547.547,0,0,0,.3.11c.769-.042,1.534-.085,2.3-.132.221-.013.2-.238.11-.391" transform="translate(102.038 261.671)" fill="#fff"/>
              <path id="Trazado_1269898" data-name="Trazado 1269898" d="M34.484,81.51a.779.779,0,0,0-.578-.4,15.018,15.018,0,0,0-2.1.166c-.081.013-.149.03-.174.119a.373.373,0,0,0,.064.272.952.952,0,0,0,.268.285.529.529,0,0,0,.306.11,15.038,15.038,0,0,1,2.1-.161c.221,0,.2-.246.11-.4" transform="translate(102.779 263.582)" fill="#fff"/>
              <path id="Trazado_1269899" data-name="Trazado 1269899" d="M34.568,82.385a.4.4,0,0,0-.064-.276.9.9,0,0,0-.272-.28.524.524,0,0,0-.306-.115c-.6.1-1.207.191-1.81.285-.081.013-.149.03-.174.119a.389.389,0,0,0,.064.272.9.9,0,0,0,.268.285.531.531,0,0,0,.31.11l1.81-.28c.081-.013.149-.03.174-.119" transform="translate(103.771 265.521)" fill="#fff"/>
              <path id="Trazado_1269900" data-name="Trazado 1269900" d="M35.1,82.748a.79.79,0,0,0-.578-.4,7.711,7.711,0,0,0-2.248.3.168.168,0,0,0-.1.187.6.6,0,0,0,.14.3c.136.153.37.34.586.276.17-.047.34-.089.514-.127.085-.017.174-.034.259-.047l.047-.009.051-.008a1.213,1.213,0,0,0,.132-.021,8.335,8.335,0,0,1,1.084-.059c.221,0,.2-.251.11-.391" transform="translate(104.555 267.601)" fill="#fff"/>
              <path id="Trazado_1269901" data-name="Trazado 1269901" d="M57.282,108.572,26.2,81.082a1.356,1.356,0,1,1,1.8-2.031L59.08,106.54a1.356,1.356,0,1,1-1.8,2.031" transform="translate(83.636 255.762)" fill="#395795"/>
              <path id="Trazado_1269902" data-name="Trazado 1269902" d="M130.175,39.518a18.218,18.218,0,0,0-6.272-1c-4.751.11-9.175,2.286-13.42,4.415a55.179,55.179,0,0,0-7.959,4.56c-3.744,2.741-6.918,6.272-10.454,9.26-3.7,3.128-8.253,5.172-11.644,8.682-7.245,7.509-7.479,19.492-9.345,29.177-3.072,15.957-6.676,31.769-10.373,47.582a27.822,27.822,0,0,1-2.142,6.582,27.6,27.6,0,0,1-5.252,6.391q-25.561,25.4-51.113,50.79c-.952.943,12.013,14.767,12.931,15.812,2.184,2.465,6.782,9.978,9.838,10.959,4.721,1.521,18.553-11.839,22.752-15.073a525.808,525.808,0,0,0,43.689-37.57c8.745-8.4,14.334-16.216,17.742-27.783,3.548-12.03,8.546-23.98,12.706-35.879,6.9-19.743,13.807-39.529,18.664-59.876a19.573,19.573,0,0,0,.761-7.466c-.778-5.07-6.718-8.087-11.108-9.561" transform="translate(6.991 125.14)" fill="#65bfd7"/>
              <path id="Trazado_1269903" data-name="Trazado 1269903" d="M123.194,122.061c1.224-4.2-.323-7.883-1.87-13.02-1.8-6-5.274-11.363-8.6-16.6-5.567-8.771-12.294-16.726-19-24.634C87.8,60.817,81.8,53.75,74.487,48.268c-.574-.425-1.152-.846-1.738-1.254-3.157-2.193-6.485-5.244-10.008-3.3a42.379,42.379,0,0,0-9.591,6.833c-5.55,5.75-6.795,14.27-8.036,22.165-1.011,6.4-1.9,10.972,1.5,17.147,2.435,4.419,5.954,8.121,9.434,11.775,5.329,5.588,10.671,11.18,16.327,16.433C57.1,135.842,40.563,152.491,25.651,170.654c-.892,1.084,11.117,13.054,12.4,14.334,3.064,3.068,12.952,11.771,17.678,10.4,2.044-.591,6.073-6.523,7.721-8.2q4.749-4.825,9.493-9.655,18.351-18.664,36.7-37.336a92.293,92.293,0,0,0,11.716-14.3,14.32,14.32,0,0,0,1.836-3.842" transform="translate(83.2 140.03)" fill="#65bfd7"/>
              <path id="Trazado_1269904" data-name="Trazado 1269904" d="M96.761,44.289C89.648,50.956,80.635,55.2,71.286,57.7,60.645,60.556,49.562,61.164,38.6,61.448c-6.387.166-12.774.272-19.161.4-.183,0-.62.055-.62.319s.446.319.62.314c5.813-.119,11.627-.225,17.44-.361,5.677-.132,11.359-.331,17.019-.837,10.394-.931,20.8-2.992,30.278-7.5a53.633,53.633,0,0,0,13.658-9.175c.408-.382-.778-.595-1.071-.319" transform="translate(61.146 143.508)" fill="#395795"/>
              <path id="Trazado_1269905" data-name="Trazado 1269905" d="M69.824,39.544c-.157-.514-.965-.484-1.373-.361a3.752,3.752,0,0,0-1.364,1.041,34.613,34.613,0,0,1-3.247,2.609,54.437,54.437,0,0,1-7.326,4.284c-2.592,1.3-5.244,2.482-7.879,3.68-2.856,1.292-5.72,2.567-8.631,3.748-1.6.65-3.225,1.254-4.84,1.861A15.34,15.34,0,0,0,31,58.556c-.229.178.055.378.221.433a.983.983,0,0,0,.85-.115,13.429,13.429,0,0,1,3.506-1.844c1.322-.5,2.652-.982,3.961-1.5,2.762-1.088,5.478-2.265,8.189-3.48A126.158,126.158,0,0,0,62.4,44.809,40.957,40.957,0,0,0,66.064,42.3c.582-.45,1.147-.914,1.7-1.4.263-.238.527-.476.782-.718.094-.089.208-.178.31-.276.382.136,1.075.009.969-.361" transform="translate(100.445 127.077)" fill="#395795"/>
              <path id="Trazado_1269906" data-name="Trazado 1269906" d="M53.02,46.83a.954.954,0,0,0-.85-.115A25.073,25.073,0,0,0,44.8,50.549c-2.346,1.683-4.606,3.531-6.795,5.414a36.955,36.955,0,0,0-3.633,3.523c-.382.433.8.62,1.071.319a52.941,52.941,0,0,1,6.472-5.864,52.1,52.1,0,0,1,6.625-4.806,19.7,19.7,0,0,1,4.258-1.87c.2-.064.408-.234.221-.433" transform="translate(111.452 151.65)" fill="#395795"/>
              <path id="Trazado_1269907" data-name="Trazado 1269907" d="M34.52,52.53a63.069,63.069,0,0,0-3.459,11.724c-.085.382,1.139.459,1.237,0A62.02,62.02,0,0,1,35.719,52.7c.191-.442-1.028-.557-1.2-.17" transform="translate(100.92 169.93)" fill="#395795"/>
              <path id="Trazado_1269908" data-name="Trazado 1269908" d="M45.514,69.391c-2.1-3.332-4.449-6.7-7.981-8.635a1.014,1.014,0,0,0-.88,0c-.221.127-.225.323,0,.45,3.4,1.861,5.648,5.155,7.662,8.355.229.357,1.436.208,1.2-.17" transform="translate(118.563 197.098)" fill="#395795"/>
              <path id="Trazado_1269909" data-name="Trazado 1269909" d="M44.477,29.353l6.65,8.053a41.011,41.011,0,0,1,4.152,5.652,41.122,41.122,0,0,1,2.278,4.98q2.04,5.042,4.08,10.08.44-6.693.888-13.386a22.3,22.3,0,0,1,5.129-11.945l.055-.081a20.775,20.775,0,0,0,2.5-4.271c1.458-3.854-.62-6.578-3.608-8.864-.289-.221-.586-.438-.88-.65a37.389,37.389,0,0,0-6.243-3.638A11.521,11.521,0,0,0,54.939,13.9c-1.725.025-1.8.591-2.864,2.019a46.362,46.362,0,0,1-7.037,7.564c-1.071.918-2.295,2.07-2.074,3.463a4.028,4.028,0,0,0,1.024,1.815l.489.591" transform="translate(139.527 45.169)" fill="#ffa87d"/>
              <path id="Trazado_1269910" data-name="Trazado 1269910" d="M48.694,24.316a11.875,11.875,0,0,0,5.133,4.632l.055-.081a20.775,20.775,0,0,0,2.5-4.271c1.453-3.854-.625-6.574-3.612-8.864-.289-.221-.582-.438-.875-.65a7.264,7.264,0,0,0-1.509.412,5.236,5.236,0,0,0-2.652,2.235,3.731,3.731,0,0,0-.242.51c-.782,1.993.072,4.25,1.2,6.077" transform="translate(153.353 49.007)" fill="#e06f63"/>
              <path id="Trazado_1269911" data-name="Trazado 1269911" d="M43.791,28.924a19.224,19.224,0,0,1-.085-7.407,21.428,21.428,0,0,1,5.116-10.3C50.369,9.482,52.485,7.7,54.878,7.4a51.444,51.444,0,0,1,8.057-.54A22.3,22.3,0,0,1,74.6,10.349c3.4,2.159,4.968,7.012,4.925,10.9-.025,2.082-.48,4.139-.612,6.221a11.088,11.088,0,0,0,.446,4.241,7.934,7.934,0,0,0,2.205,3.017c1.632,1.683,3.387,3.714.994,5.631a6.179,6.179,0,0,0-2.6,4.143c-.5,3.021-.387,7.828-3.5,9.506a6.688,6.688,0,0,1-3.523.676,24.338,24.338,0,0,1-12.8-5.15,46.342,46.342,0,0,1-3.9-3.8c-3.986-4.067-8.686-7.7-11.112-12.846a17.965,17.965,0,0,1-1.322-3.965" transform="translate(140.986 22.226)" fill="#ffa87d"/>
              <path id="Trazado_1269912" data-name="Trazado 1269912" d="M51.435,12.971c-.595-.034-2.154-.144-1.679-.561a5.628,5.628,0,0,1,6.183-.705c1.016.544,1.373,1.891-.132,1.951a4.822,4.822,0,0,1-1.317-.212,16.989,16.989,0,0,0-2.847-.459c-.025,0-.1-.009-.208-.013" transform="translate(161.393 36.028)" fill="#231c20"/>
              <path id="Trazado_1269913" data-name="Trazado 1269913" d="M52.783,13.119a1.269,1.269,0,0,0-1.555-1.062c-1.037.276-1.045,2.019-.816,2.843a1.1,1.1,0,0,0,1.8.884,2.68,2.68,0,0,0,.569-2.664" transform="translate(163.419 39.025)" fill="#231c20"/>
              <path id="Trazado_1269914" data-name="Trazado 1269914" d="M57.433,43.335c1.577-1.13,3.238-2.72,5.014-3.5,1.581-.693,2.422-1.118,3.208-2.851A14.5,14.5,0,0,1,67.7,33.506a15.033,15.033,0,0,0,1.755-3.633,23.666,23.666,0,0,1,4.98-7.173c1.662-1.64,3.57-3.034,5.087-4.81,1.606-1.878,3.357-5.1,1.73-7.449-1.2-1.738-3.548-2.507-5.5-3.009A34.7,34.7,0,0,0,53.29,9.951c-5.3,2.669-12.485,8.826-12.077,15.307.438,4.156.574,8.355.969,12.523.2,2.1.459,4.334,1.793,5.966a6.8,6.8,0,0,0,4.759,2.269,12.985,12.985,0,0,0,8.7-2.681" transform="translate(133.867 21.353)" fill="#231c20"/>
              <path id="Trazado_1269915" data-name="Trazado 1269915" d="M49.507,23.95c-1.067,1.39-2.414,3.077-4.241,3.285-2.545.289-5.32.438-6.8-2.027A8.568,8.568,0,0,1,38,17.877,12.758,12.758,0,0,1,50.434,9.862a7.61,7.61,0,0,1,4.441,1.313,8.667,8.667,0,0,1,1.8,1.861A3.825,3.825,0,0,1,57.445,15c.047,1.53-1.73,2.112-2.809,2.894-2.15,1.56-3.51,3.948-5.129,6.051" transform="translate(121.518 32.036)" fill="#231c20"/>
              <path id="Trazado_1269916" data-name="Trazado 1269916" d="M52.328,12.783a5.257,5.257,0,0,1,1.543,1.955,8.062,8.062,0,0,1,.378,6.115c-.718,1.87-2.775,3.914-4.832,2.613a6.088,6.088,0,0,1-1.832-2.1,9.442,9.442,0,0,1-1.628-5.1A4.162,4.162,0,0,1,50.7,12.073a3.626,3.626,0,0,1,1.623.71" transform="translate(149.324 39.06)" fill="#ffa87d"/>
              <path id="Trazado_1269917" data-name="Trazado 1269917" d="M54.174,15.9l-3.026-.161a.928.928,0,0,0-.731.365.262.262,0,0,0-.059.263c.042.089.157.106.246.11q1.511.076,3.021.161a.943.943,0,0,0,.735-.365.285.285,0,0,0,.059-.263.278.278,0,0,0-.246-.11" transform="translate(163.58 51.122)" fill="#e06f63"/>
              <path id="Trazado_1269918" data-name="Trazado 1269918" d="M57.517,7.688A22.084,22.084,0,0,1,47.463,20.776c-.225.132-.221.319,0,.45a1.019,1.019,0,0,0,.875,0A22.634,22.634,0,0,0,58.716,7.858c.132-.484-1.092-.557-1.2-.17" transform="translate(153.687 24.173)" fill="#395795"/>
              <path id="Trazado_1269919" data-name="Trazado 1269919" d="M53.461,9.508a21.123,21.123,0,0,1-7.8,5.788c-.242.106-.2.331,0,.45a1.05,1.05,0,0,0,.875,0,21.717,21.717,0,0,0,8-5.92c.374-.442-.812-.625-1.071-.319" transform="translate(147.829 30.402)" fill="#395795"/>
              <path id="Trazado_1269920" data-name="Trazado 1269920" d="M56.673,7.645a.941.941,0,0,0-.85-.115A30.653,30.653,0,0,0,41.779,17.95c-.166.221.3.365.433.387a.8.8,0,0,0,.761-.221A29.585,29.585,0,0,1,56.452,8.078c.2-.072.412-.229.221-.433" transform="translate(135.646 24.306)" fill="#395795"/>
              <path id="Trazado_1269921" data-name="Trazado 1269921" d="M49.335,22.326A10.854,10.854,0,0,1,43.1,13.534c-.042-.45-1.283-.421-1.241,0a11.412,11.412,0,0,0,6.6,9.238,1.019,1.019,0,0,0,.875,0c.208-.115.246-.336,0-.446" transform="translate(136.007 42.915)" fill="#395795"/>
              <path id="Trazado_1269922" data-name="Trazado 1269922" d="M48.86,16.308c-.119-.238-.548-.246-.765-.221a4.216,4.216,0,0,1-.9,0,4.473,4.473,0,0,1-.986-.225,4.753,4.753,0,0,1-1.751-1.075.941.941,0,0,0-.85-.115c-.2.059-.429.238-.225.433a6.318,6.318,0,0,0,5.04,1.589c.17-.021.552-.149.433-.391" transform="translate(140.728 47.53)" fill="#395795"/>
              <path id="Trazado_1269923" data-name="Trazado 1269923" d="M49.215,10.447a.965.965,0,0,0-.85-.115A15.287,15.287,0,0,0,40.6,14.939a8.967,8.967,0,0,0-1.891,3.54,4.342,4.342,0,0,0,.557,3.952c.255.3,1.449.123,1.071-.319-.863-1.011-.684-2.618-.336-3.8a8.679,8.679,0,0,1,1.844-3.255,14.406,14.406,0,0,1,7.148-4.177c.208-.055.4-.238.221-.433" transform="translate(125.075 33.428)" fill="#395795"/>
              <path id="Trazado_1269924" data-name="Trazado 1269924" d="M40.572,11.974a.812.812,0,0,0-.765.221,4.071,4.071,0,0,0-.208,4.05c.2.378,1.411.251,1.2-.166a3.7,3.7,0,0,1,.208-3.714c.153-.229-.289-.374-.433-.391" transform="translate(127.241 38.873)" fill="#395795"/>
              <path id="Trazado_1269925" data-name="Trazado 1269925" d="M41.832,10.666a50.1,50.1,0,0,1-.9,6.888c-.081.387,1.147.459,1.241,0a50.094,50.094,0,0,0,.9-6.888c.025-.425-1.215-.45-1.241,0" transform="translate(132.993 33.591)" fill="#395795"/>
              <path id="Trazado_1269926" data-name="Trazado 1269926" d="M113.129,98.065a13.665,13.665,0,0,0,4.806.425,13.035,13.035,0,0,1,3.973-.153c3.017.659,2.8,4.5,3.123,6.9.115.88.391,1.946,1.254,2.167.939.238,1.713-.739,2.142-1.606a2.144,2.144,0,0,0,4.25.412,2.334,2.334,0,0,0,4.479-.875c-.017,1.538,2.2,1.908,3.268,1.249,1.385-.854,1.152-3.208.986-4.568-.442-3.689-1.152-7.615-3.752-10.263-2.579-2.618-6.442-3.4-10.059-4.058q-1.906-.351-3.812-.693a22.087,22.087,0,0,1-4.823-1.262c-3.561-1.534-6.727-5.388-9.914-7.632-3.986-2.8-7.241-6.859-10.654-10.365-7.3-7.5-14.682-14.941-22.416-22-5.41-4.938-10.292-10.7-18.192-10.416-4.139.153-8.35,2.159-10.428,5.741C39.74,54.214,56.479,63.015,65.114,69.126A401.336,401.336,0,0,0,103.407,92.6c1.628.9,2.762,2.286,4.39,3.191a23.293,23.293,0,0,0,5.333,2.273" transform="translate(147.603 114.753)" fill="#ffa87d"/>
              <path id="Trazado_1269927" data-name="Trazado 1269927" d="M78.85,77.842c2.9-2.724,4.912-6.493,4.827-9.944a11.033,11.033,0,0,0-2.613-7.22c-2.286-2.992-3.973-6.625-5.847-9.884q-3.194-5.565-6.336-11.151c-1.594-2.839-3.336-8.231-6.179-9.855-3.327-1.67-7.347-1.283-10.87-.085a16.885,16.885,0,0,0-9.243,7.8c-2.193,4.177-1.381,7.883.765,11.763Q48.912,59.339,55.4,68.854c3.565,5.227,7.59,12.719,14.861,12.817a12.867,12.867,0,0,0,8.588-3.829" transform="translate(134.178 93.152)" fill="#ffa87d"/>
              <path id="Trazado_1269928" data-name="Trazado 1269928" d="M68.682,31.2a29.377,29.377,0,0,0-3.939-8.074c-1.929-2.477-4.921-4.364-8.049-4.1-2.24.191-4.241,1.428-6.141,2.63-3.319,2.1-6.71,4.262-9.047,7.411-5.949,8.006-3.82,17.236-.548,25.8q7.942,20.8,15.885,41.594c1.177-.905,2.741-1.062,4.148-1.534A18.548,18.548,0,0,0,64.61,93.1q4.666-2.8,9.332-5.6c5.83-3.5,11.716-7.037,16.628-11.733C88.14,73.535,86.2,69.2,84.609,66.3q-3.047-5.584-5.826-11.312-5.552-11.461-9.965-23.415c-.047-.123-.089-.246-.136-.37" transform="translate(122.665 61.746)" fill="#65bfd7"/>
              <path id="Trazado_1269929" data-name="Trazado 1269929" d="M67.857,53.642a9.492,9.492,0,0,0-2.443-4.262c-.28-.285-1.475-.089-1.071.319a8.967,8.967,0,0,1,2.329,4.165,15.031,15.031,0,0,1,.31,2.613l.166,3c.025.446,1.266.429,1.245,0a30.073,30.073,0,0,0-.535-5.83" transform="translate(208.815 160.021)" fill="#e06f63"/>
              <path id="Trazado_1269930" data-name="Trazado 1269930" d="M69.108,54.384a9.857,9.857,0,0,0-2.766-5.325.942.942,0,0,0-.85-.115c-.187.059-.433.238-.225.433a9.545,9.545,0,0,1,2.664,5.329c.433,2.18.574,4.428.812,6.642.051.45,1.288.416,1.241,0a65.932,65.932,0,0,0-.875-6.965" transform="translate(211.827 158.884)" fill="#e06f63"/>
              <path id="Trazado_1269931" data-name="Trazado 1269931" d="M67.3,48.87c-.285-.276-1.479-.076-1.071.319,3.319,3.251,3.621,8.163,3.833,12.528.021.446,1.262.433,1.241,0-.221-4.513-.578-9.493-4-12.846" transform="translate(214.949 158.385)" fill="#e06f63"/>
              <path id="Trazado_1269932" data-name="Trazado 1269932" d="M52.894,43.637a7.377,7.377,0,0,1-5.061-4.645c-.144-.4-1.36-.5-1.207-.076a8.647,8.647,0,0,0,6.141,5.342c.183.042.612.064.671-.187s-.382-.4-.544-.433" transform="translate(151.469 125.564)" fill="#e06f63"/>
              <path id="Trazado_1269933" data-name="Trazado 1269933" d="M54.378,66.169q-5.832-15-11.665-29.993-1.632-4.2-3.268-8.406c-.149-.382-1.377-.289-1.2.17q5.832,14.992,11.665,29.993,1.638,4.2,3.268,8.406c.149.382,1.377.289,1.2-.17" transform="translate(124.225 89.463)" fill="#395795"/>
              <path id="Trazado_1269934" data-name="Trazado 1269934" d="M74.452,75.6C70.525,68.4,67.108,60.946,63.9,53.407c.17-.051.3-.144.319-.285a76.1,76.1,0,0,0,.6-8.571c0-.438-1.237-.446-1.241,0-.03,2.363-.178,4.721-.429,7.071-.072-.166-.144-.336-.212-.5-1.759-4.19-3.463-8.406-5.167-12.617Q56.5,35.387,55.231,32.27c-.739-1.8-1.487-3.612-2.4-5.337-1.9-3.6-5.223-8.019-9.787-7.811-.183.008-.62.051-.62.319,0,.251.45.323.62.314,1.989-.089,3.735,1.139,5.1,2.469A19.025,19.025,0,0,1,51.5,26.844a53.982,53.982,0,0,1,2.363,5.172q1.256,3.053,2.49,6.115c3.306,8.159,6.6,16.327,10.271,24.328,2.07,4.5,4.262,8.954,6.633,13.309.2.37,1.419.238,1.2-.17" transform="translate(137.854 62.114)" fill="#395795"/>
              <path id="Trazado_1269935" data-name="Trazado 1269935" d="M128.3,100.049c.586-.412-.06-1.921-.259-2.35a8.087,8.087,0,0,0-1.526-2.261c-2.252-2.329-5.478-3.247-8.537-3.965a54.959,54.959,0,0,1-9.982-3.128,39.1,39.1,0,0,1-8.58-5.359C96.8,80.884,94.39,78.546,92,76.2q-4.009-3.933-8.015-7.879Q75.83,60.3,67.673,52.285c-5.214-5.125-10.5-10.195-15.4-15.625-.608-.676-1.211-1.356-1.8-2.04-.259-.3-1.453-.119-1.071.319,4.785,5.524,10.037,10.62,15.247,15.74q8.121,7.987,16.246,15.97,4.041,3.978,8.087,7.955c2.443,2.4,4.866,4.832,7.445,7.088a45.725,45.725,0,0,0,8.163,5.856,43.4,43.4,0,0,0,9.659,3.727c3.221.85,6.714,1.271,9.557,3.136a8.252,8.252,0,0,1,2.941,3.187,9.208,9.208,0,0,0,1.113,2.3c.115.127.3.251.442.153" transform="translate(160.27 112.017)" fill="#e06f63"/>
              <path id="Trazado_1269936" data-name="Trazado 1269936" d="M88.5,112.571c-4.662,4.755-11.975,5.142-16.331.867s-4.109-11.588.552-16.344,11.971-5.142,16.331-.867,4.109,11.588-.552,16.344" transform="translate(224.413 303.046)" fill="#395795"/>
              <path id="Trazado_1269937" data-name="Trazado 1269937" d="M81.126,105.251A6.2,6.2,0,1,1,72.309,96.6a6.2,6.2,0,1,1,8.818,8.648" transform="translate(228.31 306.949)" fill="#231c20"/>
            </g>
          </g>
        </g>
      </g>
    </g>
  </g>
</svg>
