<svg xmlns="http://www.w3.org/2000/svg" xmlns:xlink="http://www.w3.org/1999/xlink" width="187.711" height="121.729" viewBox="0 0 187.711 121.729">
  <defs>
    <clipPath id="clip-path">
      <rect id="Rectángulo_459560" data-name="Rectángulo 459560" width="104.289" height="103.342" fill="none"/>
    </clipPath>
  </defs>
  <g id="Grupo_1209849" data-name="Grupo 1209849" transform="translate(-289.711 -3930.234)">
    <g id="Grupo_1209398" data-name="Grupo 1209398" transform="translate(0 335.234)">
      <g id="Grupo_1208690" data-name="Grupo 1208690" transform="translate(0.434 -5273.039)">
        <g id="Grupo_1204518" data-name="Grupo 1204518" transform="translate(289.277 8868.039)">
          <rect id="Rectángulo_455283" data-name="Rectángulo 455283" width="187.711" height="121.729" rx="19" fill="#e9c3ff"/>
        </g>
      </g>
      <g id="Grupo_1209397" data-name="Grupo 1209397" transform="translate(331.711 3604)">
        <g id="Grupo_1209396" data-name="Grupo 1209396" clip-path="url(#clip-path)">
          <path id="Trazado_1269970" data-name="Trazado 1269970" d="M32.716,23.628a7.136,7.136,0,0,1,10.453-5.545c-1.06-6.36,4.271-11.712,10.456-8.555-1.7-12.8,15.437-12.607,13.948,0a6.73,6.73,0,0,1,8.545,1.433,10.587,10.587,0,0,1,1.592,2.844V53.571l1.895-1.75c5.265-5.289,9.878-16.885,19.234-12.25,3.757,1.861,7.315,5.265,4.349,9.536l-25.4,32.9a33.438,33.438,0,0,0-.079,4.2c.257.249,2.73-.71,3.466,1.446,1.3,3.812.68,9.914,1.9,13.963l-.594,1.559-47.333.166c-.526-.334-.562-1.484-.538-2.071.18-4.369,1.587-9.127,1.658-13.575.508-1.795,3.281-1.352,3.424-1.488a23.738,23.738,0,0,0-.15-4.765c-.454-1.728-3.128-4.351-3.7-6.284-.288-.168-4.4,1.544-5.271,1.769A24.214,24.214,0,0,1,1.926,44.169C6.9,32.132,20.479,26.614,32.716,30.757c.2-2.257-.272-4.929,0-7.129M60.6,3.508c-1.343.03-3.485,1.277-3.485,2.693V50.085H53.628V15.706a3.49,3.49,0,1,0-6.973,0c.725,8.955-.967,19.432,0,28.2.29,2.628,1.749,5.52,1.915,8.54C49,60.359,44.827,68.234,38.784,73.1c-.154.8,4.388,6.818,4.388,7.241v6.179c8.655-.05,17.327.067,25.982,0,1.686-.013,3.384.01,5.07,0V80.978l26.454-34.4c.658-1.593-1.553-2.906-2.8-3.521-2.07-1.024-2.352-1.134-4.648-.58-.437.105-.965.007-1.379.355l-14.9,17.41c-4.305.908-9.245-1.121-11.984,3.556-.741,1.266-.75,3.571-.883,3.712s-2.92-.094-3.488,0a10.081,10.081,0,0,1,5.6-9.452c.34-.17,2.346-1.006,2.48-1.006h5.545c.008-2.319-.01-4.651,0-6.971.052-11.765-.024-23.542-.018-35.311a3.734,3.734,0,0,0-3.467-2.711c-.99.027-3.169,1.478-3.169,2.376V50.085H64.084V7.151C63.805,5.1,62.862,3.457,60.6,3.508M39.687,34.876C40.972,35.93,42,37.2,43.172,38.362V22.994c0-1.4-2.363-2-3.485-2.06a.539.539,0,0,0-.616-.191,4.469,4.469,0,0,0-2.72,2.716,45.32,45.32,0,0,0-.168,8.425c.162,1.337,2.448,2.124,3.5,2.991m-18.772-1.82c-8.942,1.125-16.6,9.58-17.345,18.459C1.847,72.04,27.417,82.425,40.311,66.71c12.154-14.812-.381-36.045-19.4-33.654m17.5,67.092H79.293L78.01,89.709l-38.279.027c-.445.279-1.245,9.1-1.312,10.412" transform="translate(0 0)" fill="#050504"/>
          <path id="Trazado_1269971" data-name="Trazado 1269971" d="M144.212,11.071l0,46.579,3.487,0h3.485V22c0-.9,2.179-2.35,3.169-2.376l0,38.024,3.487,0c-.01,2.319.008,4.651,0,6.971h-5.545c-.134,0-2.139.836-2.48,1.006a10.081,10.081,0,0,0-5.6,9.452c.568-.094,3.368.127,3.488,0s.142-2.445.883-3.712c2.739-4.677,7.679-2.648,11.984-3.557l14.9-17.41c.414-.348.942-.25,1.379-.355,1.839,1.219,2.815,2.751,1.97,4.982l-25.69,33.243c-.794,1.6-.165,4.033-.361,5.818-8.655.067-17.327-.05-25.982,0V87.908c0-.423-4.542-6.439-4.388-7.241,6.043-4.869,10.219-12.744,9.786-20.655-.166-3.021-1.625-5.913-1.915-8.54-.966-8.771.726-19.248,0-28.2a3.63,3.63,0,0,1,3.486-3.643l0,38.024,3.487,0h3.485V13.764c0-1.417,2.143-2.663,3.485-2.693" transform="translate(-83.613 -7.563)" fill="#fdd8a9"/>
          <path id="Trazado_1269972" data-name="Trazado 1269972" d="M28.435,103.928c19.014-2.391,31.55,18.842,19.4,33.654C34.937,153.3,9.367,142.911,11.09,122.387c.746-8.88,8.4-17.335,17.345-18.459m-3.174,5.354c-1.473.285-7.268,7.055-8.663,8.5-.562,1.814,4.248,4.96,5.238,6.546.115.653-4.257,4.239-4.875,5.205a1.435,1.435,0,0,0-.2,1.731c.293.766,7.572,8.048,8.255,8.257,2.357.722,4.776-4.107,6.823-4.951,1.808.7,4.623,5.574,6.584,5.035.574-.158,8.245-7.849,8.413-8.42.686-2.336-4.153-4.866-4.993-6.858,1.122-1.734,5.638-4.432,4.993-6.628a83.248,83.248,0,0,0-8.411-8.411,1.636,1.636,0,0,0-1.534.246c-1.073.63-4.123,4.779-5.052,4.779-1.919-.787-4.457-5.442-6.578-5.032" transform="translate(-7.52 -70.871)" fill="#eabb5d"/>
          <path id="Trazado_1269973" data-name="Trazado 1269973" d="M121.254,293.564c.067-1.314.867-10.134,1.312-10.412l38.279-.027,1.283,10.439Z" transform="translate(-82.834 -193.416)" fill="#d0f8df"/>
          <path id="Trazado_1269974" data-name="Trazado 1269974" d="M242.219,133.36c2.3-.553,2.578-.444,4.648.58,1.242.615,3.454,1.928,2.8,3.521l-26.454,34.4V177.4c-1.686.01-3.384-.013-5.07,0,.2-1.785-.434-4.218.361-5.818l25.69-33.243c.845-2.23-.131-3.763-1.97-4.982" transform="translate(-148.984 -90.879)" fill="#f8bf74"/>
          <path id="Trazado_1269975" data-name="Trazado 1269975" d="M194.736,57.646l-3.487,0,0-46.579c2.263-.051,3.207,1.588,3.486,3.643Z" transform="translate(-130.651 -7.561)" fill="#f8bf74"/>
          <path id="Trazado_1269976" data-name="Trazado 1269976" d="M226.736,76.091l-3.487,0,0-38.024a3.734,3.734,0,0,1,3.467,2.711c-.006,11.769.07,23.546.018,35.311" transform="translate(-152.512 -26.006)" fill="#f8bf74"/>
          <path id="Trazado_1269977" data-name="Trazado 1269977" d="M161.736,76.093l-3.487,0,0-38.024a3.63,3.63,0,0,1,3.486,3.643Z" transform="translate(-108.107 -26.008)" fill="#f8bf74"/>
          <path id="Trazado_1269978" data-name="Trazado 1269978" d="M125.254,66.071c1.123.057,3.485.658,3.485,2.06V83.5c-1.169-1.164-2.2-2.432-3.485-3.485Z" transform="translate(-85.567 -45.136)" fill="#f8bf74"/>
          <path id="Trazado_1269979" data-name="Trazado 1269979" d="M117.447,65.611V79.553c-1.056-.866-3.342-1.654-3.5-2.991a45.319,45.319,0,0,1,.168-8.425,4.469,4.469,0,0,1,2.72-2.716.539.539,0,0,1,.616.191" transform="translate(-77.759 -44.676)" fill="#fdd8a9"/>
          <path id="Trazado_1269980" data-name="Trazado 1269980" d="M37.217,121.037c2.121-.41,4.659,4.246,6.578,5.033.929,0,3.979-4.15,5.051-4.779a1.635,1.635,0,0,1,1.535-.246,83.212,83.212,0,0,1,8.411,8.411c.645,2.2-3.872,4.894-4.993,6.628.84,1.991,5.68,4.521,4.993,6.857-.168.571-7.839,8.263-8.413,8.42-1.961.539-4.776-4.337-6.584-5.035-2.048.844-4.466,5.673-6.823,4.951-.683-.209-7.962-7.491-8.255-8.257a1.434,1.434,0,0,1,.2-1.731c.618-.966,4.99-4.553,4.875-5.205-.99-1.586-5.8-4.732-5.238-6.546,1.4-1.445,7.19-8.215,8.663-8.5m.285,4.411c-.66.719-4.714,4.287-4.615,4.845.8,1.272,5.417,4.749,5.3,6.014-.128,1.36-4.512,4.3-5.181,5.6-.157.3-.157.324,0,.628.208.4,4.41,4.471,4.728,4.416,1.318-.8,4.242-4.84,5.445-5.049,2.336-.406,4.457,4.134,6.17,4.924a.834.834,0,0,0,.938,0,30.52,30.52,0,0,0,4.137-4.446c-.8-1.938-5.422-4.431-5.032-6.578.284-1.566,4.271-4.005,4.873-5.31a.834.834,0,0,0,0-.938,30.52,30.52,0,0,0-4.446-4.137c-2,.805-4.394,5.487-6.581,5.025-1.506-.318-4.919-5.135-5.732-4.991" transform="translate(-19.475 -82.627)" fill="#050504"/>
          <path id="Trazado_1269981" data-name="Trazado 1269981" d="M46.938,135.07c.813-.144,4.226,4.673,5.732,4.991,2.188.462,4.579-4.22,6.581-5.025a30.52,30.52,0,0,1,4.446,4.137.834.834,0,0,1,0,.938c-.6,1.3-4.589,3.744-4.873,5.31-.39,2.147,4.231,4.641,5.032,6.578a30.52,30.52,0,0,1-4.137,4.446.834.834,0,0,1-.938,0c-1.713-.791-3.834-5.331-6.17-4.925-1.2.209-4.127,4.245-5.445,5.049-.318.056-4.52-4.011-4.728-4.416-.157-.3-.157-.324,0-.628.669-1.3,5.054-4.237,5.181-5.6.119-1.266-4.5-4.743-5.3-6.014-.1-.558,3.955-4.126,4.615-4.845" transform="translate(-28.912 -92.25)" fill="#8d1939"/>
        </g>
      </g>
    </g>
  </g>
</svg>
