<svg xmlns="http://www.w3.org/2000/svg" xmlns:xlink="http://www.w3.org/1999/xlink" width="85" height="85" viewBox="0 0 85 85">
  <defs>
    <clipPath id="clip-path">
      <rect id="Rectángulo_459551" data-name="Rectángulo 459551" width="72.998" height="73" fill="#6a2874"/>
    </clipPath>
  </defs>
  <g id="Grupo_1208693" data-name="Grupo 1208693" transform="translate(0.289)">
    <path id="Sustracción_110" data-name="Sustracción 110" d="M0,0H85V85H0Z" transform="translate(-0.289)" fill="#ffcce2"/>
    <g id="Grupo_1209383" data-name="Grupo 1209383" transform="translate(5.711 5.464)">
      <g id="Grupo_1209382" data-name="Grupo 1209382" clip-path="url(#clip-path)">
        <path id="Trazado_1269785" data-name="Trazado 1269785" d="M53.386,23.937c-.206-3.425.274-7.158.008-10.547-.173-2.2-1.123-3.923-3.3-4.634-14.792-.438-29.759-.438-44.551,0a4.706,4.706,0,0,0-3.287,4.226c-.106,1.066.236,3.338-.036,4.138-.237.7-1.8.849-2-.215A18.184,18.184,0,0,1,.488,11C2.542,4.248,11.71,6.981,16.94,6.378l.314-.312A5.849,5.849,0,0,1,23.012.137c2.333-.175,9.4-.282,11.373.332a5.767,5.767,0,0,1,3.974,5.939C43.21,6.981,51.548,4.53,54.471,9.6a11.881,11.881,0,0,1,1,2.545V23.937c1.816-.163,3.711.036,3.97,2.186a24.277,24.277,0,0,1-.049,4.135c-.218.758-1.166.871-1.835.775a2.409,2.409,0,0,0,.044.686c.291,1.228,3.971,3.395,4.851,4.749a8.04,8.04,0,0,1,.74,2.39V45.85a3.264,3.264,0,0,1,2.718.726,68.672,68.672,0,0,1,6.466,6.473,2.855,2.855,0,0,1,0,3.551,91.375,91.375,0,0,1-8.345,8.349c-1.483,1.126-2.716-.054-1.459-1.667,2.012-2.583,5.605-5.172,7.849-7.7a3.466,3.466,0,0,0,.452-.695l-6.524-6.757-.591-.172L49.244,62.482l6.65,6.853c.987.455,2.154-2.372,3.6-1.954.345.1.857.66.751,1.064-1.4,2.065-3.457,4.331-6.031,2.349a79.019,79.019,0,0,1-6.642-6.714c-.933-1.589-.277-2.79.8-4.036l-2.814-.423c-.052,7.029-6.009,12.021-12.578,13.1-.977.16-5.477.82-5.477-.677V62.128a10.735,10.735,0,0,1-7.079-1.165,9.637,9.637,0,0,1-4.191-11.774h-9.5A6.917,6.917,0,0,1,.162,42.831c-.518-6.58.411-13.819,0-20.47.177-1.3,1.94-1.624,2.1.008.617,6.434-.713,14.071.023,20.432a4.527,4.527,0,0,0,3.838,4.092c3.451.373,7.534-.274,11.056-.006.65-.05.794-.822,1.154-1.141,4.563-4.053,10.505-3.828,14.607.729V41.989a8.123,8.123,0,0,1,.623-1.047c1.73-2,7.475-1.929,9.81-.936A5.592,5.592,0,0,1,45.453,35.1c.534-.514,4.411-3.234,3.552-4.066-.6.08-1.646-.125-1.839-.772a24.707,24.707,0,0,1,.007-4.5c.127-.629,1.13-1.822,1.726-1.822ZM36.273,6.407a3.841,3.841,0,0,0-3.121-4.079,58.461,58.461,0,0,0-9.723-.1c-2.471.185-4.266,1.528-4.061,4.183ZM57.351,28.946l-.2-2.831-7.6-.062c-.657.215-.221,2.279-.342,2.892Zm-2.5,24.626h-5.53c-.453,0-1.468-1.246-1.553-1.786a63.025,63.025,0,0,1-.016-9.384,2.265,2.265,0,0,1,2.006-1.959,43.1,43.1,0,0,1,6.868-.019c.7.08,2.191.845,2.191,1.565v7.617l2.082-2.2-.089-9.5c-1.665-2.3-5.547-3.571-5.332-6.877l-4.189.091c-.288,3.519-4.064,4.429-5.61,7.12l0,18.134c.316,2.028,3.36,1.6,4.849,1.535ZM43.159,42.1a11.11,11.11,0,0,0-7.151-.156c-.216.083-.74.1-.569.463,1.76,1.239,4.761,1.233,6.733.475.2-.075,1.338-.416.987-.783m13.566.414H50.151l-.313.313v8.661h6.887ZM42.742,45.016a15.232,15.232,0,0,1-7.511-.209l-.208,8.137a13.065,13.065,0,0,0,7.719-7.928M27.508,59.832V56.7a4.7,4.7,0,0,1-6.162-6.684c2.7-4.442,9.973-1.3,8.459,3.761l2.714-.1c.726-.431.2-2.6-.014-3.329a7.565,7.565,0,0,0-13.131-2.512c-4.63,5.835,1.082,13.966,8.134,11.995m2.3,11.061c5.157-.147,10.958-2.558,12.889-7.667a15.1,15.1,0,0,0,.676-2.246v-12c-3.4,4.389-7.8,7.24-13.565,7.1ZM24.741,50.072c-2.592.45-2.685,4.539-.037,4.946a2.534,2.534,0,1,0,.037-4.946" transform="translate(0 -0.001)" fill="#6a2874"/>
        <path id="Trazado_1269786" data-name="Trazado 1269786" d="M84.808,79.154a2.548,2.548,0,0,1,.418-.626,75.093,75.093,0,0,1,8.664-.1c.418.045,1.144.21,1.144.73v5.53h5.53c.52,0,.685.726.73,1.144a72.642,72.642,0,0,1-.108,8.452,3.607,3.607,0,0,1-.622.63h-5.53v5.53c0,.4-.957.7-1.344.743a55.554,55.554,0,0,1-7.938-.017,2.048,2.048,0,0,1-.944-.726V94.91h-5.53a3.607,3.607,0,0,1-.622-.63,72.639,72.639,0,0,1-.108-8.452c.045-.418.21-1.144.73-1.144h5.53c.229-1.6-.309-4.051,0-5.53m8.139,1.356H86.9V86.25a3.484,3.484,0,0,1-.522.522H80.634V92.51l.313.313h5.426a3.484,3.484,0,0,1,.522.522v5.426l.313.313h5.426l.313-.313V93.345a3.483,3.483,0,0,1,.522-.522H98.9l.313-.313V86.771H93.469a3.483,3.483,0,0,1-.522-.522Z" transform="translate(-62.1 -62)" fill="#6a2874"/>
        <path id="Trazado_1269787" data-name="Trazado 1269787" d="M264.87,306.736a1.083,1.083,0,0,1,1.847.888c-.115,2.046-3.118.378-1.847-.888" transform="translate(-209.346 -242.471)" fill="#6a2874"/>
        <path id="Trazado_1269788" data-name="Trazado 1269788" d="M267.923,276.616c1.516-.463,1.751,1.721.749,2.017a1.076,1.076,0,0,1-.749-2.017" transform="translate(-211.469 -218.837)" fill="#6a2874"/>
        <path id="Trazado_1269789" data-name="Trazado 1269789" d="M251.923,292.616c1.516-.463,1.75,1.721.749,2.017a1.076,1.076,0,0,1-.749-2.017" transform="translate(-198.808 -231.498)" fill="#6a2874"/>
        <path id="Trazado_1269790" data-name="Trazado 1269790" d="M300.2,244.621c1.853-.548,1.891,2.56.053,1.963a1.075,1.075,0,0,1-.053-1.963" transform="translate(-237.066 -193.519)" fill="#6a2874"/>
        <path id="Trazado_1269791" data-name="Trazado 1269791" d="M313.923,258.568c.211-.131,1.372-.088,1.548.165.419.6.1,1.874-.848,1.873-1.242,0-1.072-1.806-.7-2.038" transform="translate(-248.195 -204.549)" fill="#6a2874"/>
        <path id="Trazado_1269792" data-name="Trazado 1269792" d="M297.373,274.483c1.308-1.467,3,1.708.871,1.827-.91.051-1.305-1.34-.871-1.827" transform="translate(-235.174 -216.895)" fill="#6a2874"/>
        <path id="Trazado_1269793" data-name="Trazado 1269793" d="M281.926,290.629a1.046,1.046,0,1,1,.532,2.02,1.046,1.046,0,0,1-.532-2.02" transform="translate(-222.55 -229.929)" fill="#6a2874"/>
        <path id="Trazado_1269794" data-name="Trazado 1269794" d="M284.245,260.632c1.8-.532,1.8,2.547,0,2.016a1.146,1.146,0,0,1,0-2.016" transform="translate(-224.45 -206.191)" fill="#6a2874"/>
      </g>
    </g>
  </g>
</svg>
