<svg xmlns="http://www.w3.org/2000/svg" xmlns:xlink="http://www.w3.org/1999/xlink" width="96" height="96" viewBox="0 0 96 96">
  <defs>
    <clipPath id="clip-path">
      <rect id="Rectángulo_455595" data-name="Rectángulo 455595" width="96" height="96" fill="none"/>
    </clipPath>
    <clipPath id="clip-path-2">
      <rect id="Rectángulo_459576" data-name="Rectángulo 459576" width="57.5" height="54.558" fill="#fff"/>
    </clipPath>
  </defs>
  <g id="Grupo_1208694" data-name="Grupo 1208694" transform="translate(-735.746 -9118)">
    <g id="Grupo_1180407" data-name="Grupo 1180407" transform="translate(735.746 9117.971)">
      <g id="Grupo_1179172" data-name="Grupo 1179172" transform="translate(0 0.03)" clip-path="url(#clip-path)">
        <path id="Trazado_998483" data-name="Trazado 998483" d="M92.627,52.5A40.125,40.125,0,1,1,52.5,12.377,40.125,40.125,0,0,1,92.627,52.5" transform="translate(-4.488 -4.517)" fill="#8d1939"/>
        <path id="Trazado_998485" data-name="Trazado 998485" d="M90.973,46.487A44.486,44.486,0,1,1,46.487,2,44.486,44.486,0,0,1,90.973,46.487Z" transform="translate(1.527 1.499)" fill="none" stroke="#8d1939" stroke-miterlimit="10" stroke-width="4"/>
      </g>
    </g>
    <g id="Grupo_1180408" data-name="Grupo 1180408" transform="translate(755.746 9137)">
      <g id="Grupo_1099618" data-name="Grupo 1099618" transform="translate(-2 -0.168)">
        <rect id="Rectángulo_401104" data-name="Rectángulo 401104" width="56.349" height="57.028" transform="translate(0)" fill="none"/>
      </g>
      <g id="Grupo_1209425" data-name="Grupo 1209425" transform="translate(-3 0.833)">
        <g id="Grupo_1209424" data-name="Grupo 1209424" transform="translate(0 0)" clip-path="url(#clip-path-2)">
          <path id="Trazado_1270141" data-name="Trazado 1270141" d="M36.4,30.947H32.3V26.886A1.317,1.317,0,0,0,31,25.6H26.7a1.317,1.317,0,0,0-1.3,1.287v4.061H21.3A1.317,1.317,0,0,0,20,32.234v4.257a1.317,1.317,0,0,0,1.3,1.287h4.1v4.061a1.318,1.318,0,0,0,1.3,1.287H31a1.318,1.318,0,0,0,1.3-1.287V37.778h4.1a1.317,1.317,0,0,0,1.3-1.287V32.234a1.255,1.255,0,0,0-1.3-1.287M35.2,35.1H31.1a1.318,1.318,0,0,0-1.3,1.288v4.059H28V36.393A1.318,1.318,0,0,0,26.7,35.1H22.6V33.322h4.1A1.317,1.317,0,0,0,28,32.035V28.074h1.8v4.06a1.318,1.318,0,0,0,1.3,1.288h4.1Z" transform="translate(-0.197 -0.251)" fill="#fff"/>
          <path id="Trazado_1270142" data-name="Trazado 1270142" d="M40.8,14.258A6.466,6.466,0,0,1,37.7,10h.4a3.313,3.313,0,0,0,3.3-3.268V3.268A3.313,3.313,0,0,0,38.1,0H19.7a3.313,3.313,0,0,0-3.3,3.268V6.733A3.313,3.313,0,0,0,19.7,10h.2a6.462,6.462,0,0,1-3.1,4.258,13.421,13.421,0,0,0-6.8,10.5c0,.2-.1,25.942-.1,25.942a3.886,3.886,0,0,0,3.9,3.862H43.6A3.886,3.886,0,0,0,47.5,50.7V25.942a13.32,13.32,0,0,0-6.7-11.684M19,6.733V3.268a.784.784,0,0,1,.8-.792h.5V4.258a1.3,1.3,0,0,0,2.6,0V2.475h1.3V4.258a1.3,1.3,0,0,0,2.6,0V2.475h1.3V4.258a1.3,1.3,0,0,0,2.6,0V2.475H32V4.258a1.3,1.3,0,0,0,2.6,0V2.475h1.3V4.258a1.3,1.3,0,0,0,2.6,0V2.475h.3a.785.785,0,0,1,.8.792V6.733a.785.785,0,0,1-.8.792H20.5c-1.2,0-1.5-.3-1.5-.792m24.7,45.35H13.9A1.36,1.36,0,0,1,12.5,50.7v-3.07H45V50.7a1.281,1.281,0,0,1-1.3,1.386m1.4-6.931H42.6V32.775a1.3,1.3,0,0,0-2.6,0V45.152H12.6c.1-23.269,0-19.9,0-20.2a10.944,10.944,0,0,1,5.5-8.515A8.575,8.575,0,0,0,22.4,10H35.1a8.97,8.97,0,0,0,4.4,6.436A10.955,10.955,0,0,1,45,25.942V45.152Z" transform="translate(-0.097 0)" fill="#fff"/>
          <path id="Trazado_1270143" data-name="Trazado 1270143" d="M16.348,23.1a1.317,1.317,0,0,0-1.3,1.287V33a1.3,1.3,0,0,0,2.6,0V24.288a1.3,1.3,0,0,0-1.3-1.188" transform="translate(-0.148 -0.227)" fill="#fff"/>
          <path id="Trazado_1270144" data-name="Trazado 1270144" d="M41.6,28.1a1.287,1.287,0,1,1-1.3,1.287A1.294,1.294,0,0,1,41.6,28.1" transform="translate(-0.396 -0.276)" fill="#fff"/>
          <path id="Trazado_1270145" data-name="Trazado 1270145" d="M50.484,35.6a1.287,1.287,0,1,1-1.3,1.287,1.294,1.294,0,0,1,1.3-1.287" transform="translate(-0.484 -0.35)" fill="#fff"/>
          <path id="Trazado_1270152" data-name="Trazado 1270152" d="M16.348,35.6a1.287,1.287,0,1,1-1.3,1.287,1.294,1.294,0,0,1,1.3-1.287" transform="translate(-0.148 -0.35)" fill="#fff"/>
          <path id="Trazado_1270157" data-name="Trazado 1270157" d="M50.484,34.3a1.317,1.317,0,0,0,1.3-1.287V25.586a1.3,1.3,0,0,0-2.6,0v7.426a1.316,1.316,0,0,0,1.3,1.287" transform="translate(-0.484 -0.239)" fill="#fff"/>
          <path id="Trazado_1270158" data-name="Trazado 1270158" d="M7.562,24.3a1.287,1.287,0,1,1-1.3,1.287,1.294,1.294,0,0,1,1.3-1.287" transform="translate(-0.062 -0.239)" fill="#fff"/>
          <path id="Trazado_1270159" data-name="Trazado 1270159" d="M7.562,28.1a1.317,1.317,0,0,0-1.3,1.287v4.951a1.3,1.3,0,0,0,2.6,0V29.387a1.477,1.477,0,0,0-1.3-1.287" transform="translate(-0.062 -0.276)" fill="#fff"/>
        </g>
      </g>
    </g>
  </g>
</svg>
