<svg xmlns="http://www.w3.org/2000/svg" xmlns:xlink="http://www.w3.org/1999/xlink" width="96" height="96" viewBox="0 0 96 96">
  <defs>
    <clipPath id="clip-path">
      <rect id="Rectángulo_455595" data-name="Rectángulo 455595" width="96" height="96" fill="none"/>
    </clipPath>
    <clipPath id="clip-path-2">
      <rect id="Rectángulo_459573" data-name="Rectángulo 459573" width="51.974" height="52.991" fill="#fff"/>
    </clipPath>
  </defs>
  <g id="Grupo_1208625" data-name="Grupo 1208625" transform="translate(-735.746 -9118)">
    <g id="Grupo_1180407" data-name="Grupo 1180407" transform="translate(735.746 9117.971)">
      <g id="Grupo_1179172" data-name="Grupo 1179172" transform="translate(0 0.03)" clip-path="url(#clip-path)">
        <path id="Trazado_998483" data-name="Trazado 998483" d="M92.627,52.5A40.125,40.125,0,1,1,52.5,12.377,40.125,40.125,0,0,1,92.627,52.5" transform="translate(-4.488 -4.517)" fill="#8d1939"/>
        <path id="Trazado_998485" data-name="Trazado 998485" d="M90.973,46.487A44.486,44.486,0,1,1,46.487,2,44.486,44.486,0,0,1,90.973,46.487Z" transform="translate(1.527 1.499)" fill="none" stroke="#8d1939" stroke-miterlimit="10" stroke-width="4"/>
      </g>
    </g>
    <g id="Grupo_1180408" data-name="Grupo 1180408" transform="translate(755.746 9137)">
      <g id="Grupo_1099618" data-name="Grupo 1099618" transform="translate(0 -0.168)">
        <rect id="Rectángulo_401104" data-name="Rectángulo 401104" width="56.349" height="57.028" transform="translate(0)" fill="none"/>
      </g>
      <g id="Grupo_1209419" data-name="Grupo 1209419" transform="translate(2 1.832)">
        <g id="Grupo_1209418" data-name="Grupo 1209418" clip-path="url(#clip-path-2)">
          <path id="Trazado_1270106" data-name="Trazado 1270106" d="M48.724,19.34c.506-.746,2-1.466,1.527-2.49C46.277,12.9,43.08,8.242,39.328,4.1c-.455-.5-2.222-2.566-2.734-2.568L20.127,17.682l15.1,15.1L45.7,22.312c.922-.8,2.044.092,1.22,1.07L36.39,34.044c1.541,2.154-.189,4.03-1.418,5.772-3.036,4.3-8.708,10.1-13.342,12.614a2.961,2.961,0,0,1-3.554-.064,36.474,36.474,0,0,1-3.333-3.348c-.511-.788.229-1.544,1.124-.969,1.423.914,2.872,4.1,4.816,3.13,4.424-2.208,10.588-8.634,13.378-12.729.669-.982,1.971-2.4,1.021-3.545L18.155,17.982a1.974,1.974,0,0,0-1.012-.479c-.783-.045-2.809,1.486-3.533,2.014A47.808,47.808,0,0,0,3.152,30.157C2.2,31.54.878,32.728,2.136,34.3c3.067,3.843,7.92,7.332,11.157,11.156a.759.759,0,0,1-.674,1.295l-12-11.84c-1.743-2.209.634-4.854,1.99-6.67A49.226,49.226,0,0,1,12.852,18.151c1.777-1.283,3.8-3.134,6.008-1.644l.395-.114L35.4.328c2.242-1.151,3.224.994,4.679,2.249.867-.782,1.889-2.377,3.189-1.515a16.877,16.877,0,0,1,1.593,1.593c.971,1.476-1.016,2.491-1.819,3.492l3.434,4.011c.563.1,1.379-2.341,3.015-1.2a22.653,22.653,0,0,1,1.666,1.672c.591,1.386-1,2.229-1.74,3.109,1.4,1.561,3.611,2.883,1.97,5.16-.309.429-1.963,2.115-2.432,1.989-.91-.245-.619-.98-.236-1.544M42.513,2.43c-.922,1.005-1.984,1.294-.455,2.423L43.5,3.414Zm5.712,9.994c.325.2,1.279-.8,1.331-1,.1-.4-.57-.831-.839-1.1l-1.267,1.127Z" transform="translate(0 0.001)" fill="#fff"/>
          <path id="Trazado_1270107" data-name="Trazado 1270107" d="M201.033,59.131c.191.191.133.766.33,1.112a22.037,22.037,0,0,0,2.077,2.03c.859-.286,1.889-2.535,2.874-1.821,1.231.891-1.426,2.2-1.59,2.85-.087.346.614.774.151,1.35-.5.618-1.281-.151-1.528-.026l-2.126,2.137c2.819,2.119.953,3.887-1.141,1.141-.636.465-2.352,3.076-3,1.469-.373-.923,2.086-2.122,1.8-2.685s-1.723-1.511-2.134-2.124c-.622.461-2.057,2.647-2.923,1.781-.812-1.225,1.365-2.077,1.715-2.845.091-.2-.527-.768-.1-1.307.455-.57,1.194.107,1.382.02a21.721,21.721,0,0,0,2.112-2.152c-.27-.812-2.776-2.093-1.594-2.95.956-.693,1.886,1.291,2.584,1.688.346.2.921.139,1.112.33m-.932,2.1-2.219,2.19,2.329,2.19,2.075-2.19Z" transform="translate(-164.246 -48.321)" fill="#fff"/>
          <path id="Trazado_1270108" data-name="Trazado 1270108" d="M123.022,205.7c.145.134.652.687.728.716.3.115.744.043.957.252s.163.657.309.9c.353.6,1.768,1.4.758,2.148-.878.648-1.529-1.057-2.1-.906l-2.069,2.054,2.211,2.321c1.126-.469,3.8-4.448,4.813-4.358a.806.806,0,0,1,.562,1.266l-4.255,4.241,1.5,1.7c-.554,1.791-1.825.206-2.507-.556-.319-.055-.949,1.292-1.814.61-.848-.668.592-1.327.489-1.845-.052-.261-1.984-2.214-2.367-2.046-.625.276-1.524,2.142-2.387,1.793-1.781-.72,1.369-2.487,1.457-3.023.037-.226-.592-.587-.147-1.2.511-.711,1.2.1,1.377.021l2.114-2.155c.091-.52-3.191-2.357-1.436-3.11.78-.335,1.385.773,1.817,1.171" transform="translate(-99.492 -173.428)" fill="#fff"/>
          <path id="Trazado_1270109" data-name="Trazado 1270109" d="M217.813,136.851c-.607-.311-1.666-1.252-.992-1.984.849-.922,1.669.985,2.111.907l4.657-4.611c.881-.6,1.656-.034,1.28.977l-4.772,4.942c.313,1.484-.778.9-1.228,1.062-.481.17-.777,1.417-1.814.9-1.151-.569.825-2.083.758-2.2" transform="translate(-183.726 -111.044)" fill="#fff"/>
        </g>
      </g>
    </g>
  </g>
</svg>
