<svg xmlns="http://www.w3.org/2000/svg" xmlns:xlink="http://www.w3.org/1999/xlink" width="96" height="96" viewBox="0 0 96 96">
  <defs>
    <clipPath id="clip-path">
      <rect id="Rectángulo_455595" data-name="Rectángulo 455595" width="96" height="96" fill="none"/>
    </clipPath>
    <clipPath id="clip-path-2">
      <rect id="Rectángulo_459578" data-name="Rectángulo 459578" width="47.203" height="53.975" fill="#fff"/>
    </clipPath>
  </defs>
  <g id="Grupo_1208698" data-name="Grupo 1208698" transform="translate(-735.746 -9118)">
    <g id="Grupo_1180407" data-name="Grupo 1180407" transform="translate(735.746 9117.971)">
      <g id="Grupo_1179172" data-name="Grupo 1179172" transform="translate(0 0.03)" clip-path="url(#clip-path)">
        <path id="Trazado_998483" data-name="Trazado 998483" d="M92.627,52.5A40.125,40.125,0,1,1,52.5,12.377,40.125,40.125,0,0,1,92.627,52.5" transform="translate(-4.488 -4.517)" fill="#8d1939"/>
        <path id="Trazado_998485" data-name="Trazado 998485" d="M90.973,46.487A44.486,44.486,0,1,1,46.487,2,44.486,44.486,0,0,1,90.973,46.487Z" transform="translate(1.527 1.499)" fill="none" stroke="#8d1939" stroke-miterlimit="10" stroke-width="4"/>
      </g>
    </g>
    <g id="Grupo_1180408" data-name="Grupo 1180408" transform="translate(755.746 9137)">
      <g id="Grupo_1099618" data-name="Grupo 1099618" transform="translate(0 -0.168)">
        <rect id="Rectángulo_401104" data-name="Rectángulo 401104" width="56.349" height="57.028" transform="translate(0)" fill="none"/>
      </g>
      <g id="Grupo_1209429" data-name="Grupo 1209429" transform="translate(5 1.832)">
        <g id="Grupo_1209428" data-name="Grupo 1209428" clip-path="url(#clip-path-2)">
          <path id="Trazado_1270164" data-name="Trazado 1270164" d="M156.885,33.078c-.7-.5-3.5-1.428-3.646-2.184l.029-7.463c.19-.657,3.059-1.491,3.649-2.132-.809-2.668-2.042-5.061-2.519-7.843-.634-3.7-.5-6.585,2.024-9.533A10.762,10.762,0,0,1,173.9,5.759c1.969,3.634.9,8.069-.358,11.776-.268.788-1.383,2.987-1.327,3.627.02.228.108.264.264.382.94.716,3.263,1.022,3.416,2.328.253,2.165-.136,4.894-.073,7.115-.278.848-3.546,1.613-3.607,2.3-.055.626,1.667,4.463,1.964,5.543,1.066,3.877,1.426,7.617-1.027,11.027a10.8,10.8,0,0,1-16.886.5c-4.369-5.333-1.207-11.647.614-17.287m7.009-31.1c-3.792.312-7.647,3.316-8.061,7.258-.532,5.054,2.633,9.158,3.288,13.86a27.828,27.828,0,0,1-.936,11.952c-1.287,3.858-3.569,8.284-1.711,12.4,2.9,6.415,12.329,6.661,15.82.593,3.148-5.473-1.982-12.009-2.44-17.483a49.386,49.386,0,0,1-.028-6.211c.351-5.5,3.88-9.332,3.365-15.319-.361-4.2-5.287-7.379-9.3-7.049m-6.51,21.179c-.679.3-2.312.76-2.4,1.506-.2,1.644.143,3.717.035,5.41L157.3,31.3c.408,0,.248-7.461.08-8.14M171.748,31.3c.678-.3,2.312-.761,2.4-1.507.2-1.644-.143-3.717-.035-5.41l-2.287-1.225a24.589,24.589,0,0,0-.081,8.141" transform="translate(-128.783 -0.214)" fill="#fff"/>
          <path id="Trazado_1270165" data-name="Trazado 1270165" d="M10.057.009C15.142-.2,20.573,3.679,20.947,8.972c.432,6.1-3.22,10.626-3.526,16.6a31.247,31.247,0,0,0,.009,3.2c.424,6.925,6.57,14.24,1.727,20.881a10.777,10.777,0,0,1-17.93-1.008C-2.406,42.127,3.141,35.7,3.551,29.254a40.3,40.3,0,0,0,0-4.482C3.2,19.3-.37,14.881.036,9.141.388,4.164,5.217.21,10.057.009M9.895,1.766c-3.744.308-7.592,3.218-8.061,7.1C1.212,14.019,4.48,18.24,5.122,23.042a33.653,33.653,0,0,1,0,7.943c-.741,5.54-5.769,12-1.965,17.483a9.06,9.06,0,0,0,14.883-.256c3.372-5.247-1.1-11.392-2-16.616a27.952,27.952,0,0,1,0-9.163c.815-4.754,3.605-8.24,3.151-13.458-.374-4.3-5.159-7.549-9.3-7.208" transform="translate(0 0)" fill="#fff"/>
          <path id="Trazado_1270166" data-name="Trazado 1270166" d="M184.8,43.185c2.656-.319,6.44-.382,8.24,1.885,2.638,3.323-.3,6.956-1.262,10.36a28.361,28.361,0,0,0-.035,15.355c.991,3.574,4.336,7.845.754,11.059-2.127,1.909-8.206,1.958-10.377.16-4-3.314-.409-7.656.628-11.505a27.917,27.917,0,0,0-.782-17.066c-.631-1.736-1.927-3.689-1.741-5.566a5.273,5.273,0,0,1,4.576-4.68m-.007,1.749a3.622,3.622,0,0,0-2.836,3.242c-.052,1.273.971,2.827,1.4,4.019,2.513,6.921,2.909,13.505.518,20.553-.8,2.347-3.061,5.3-1.03,7.568,1.258,1.4,4.75,1.323,6.516,1.109a3.3,3.3,0,0,0,2.253-1.258c1.847-2.255-.019-4.411-.839-6.665-2.672-7.342-2.335-14.332.364-21.579.606-1.629,1.748-2.89,1.082-4.763a3.908,3.908,0,0,0-1.854-1.976,17.953,17.953,0,0,0-5.579-.25" transform="translate(-151.446 -36.156)" fill="#fff"/>
          <path id="Trazado_1270167" data-name="Trazado 1270167" d="M30.028,116.728l-1.736-.566c1.138-3.37,2.354-6.761,2.538-10.362.237-4.628-1.216-8.889-2.539-13.232.05-.2,1.594-.872,1.714-.3,1.378,4.393,2.82,8.854,2.58,13.535-.194,3.8-1.475,7.328-2.558,10.928" transform="translate(-23.777 -77.353)" fill="#fff"/>
          <path id="Trazado_1270168" data-name="Trazado 1270168" d="M81.125,92.125c.216.252-1.5,5.345-1.7,6.179a25.818,25.818,0,0,0,.353,13.439c.3,1.087,1.324,3.293,1.362,4.234.015.369-1.064.446-1.363.562l-.366-.28c-.613-2.365-1.626-4.617-2.064-7.032-1.117-6.158.229-11.646,2.2-17.426Z" transform="translate(-64.665 -77.15)" fill="#fff"/>
        </g>
      </g>
    </g>
  </g>
</svg>
