<svg xmlns="http://www.w3.org/2000/svg" xmlns:xlink="http://www.w3.org/1999/xlink" width="162.25" height="162.25" viewBox="0 0 162.25 162.25">
  <defs>
    <clipPath id="clip-path">
      <rect id="Rectángulo_459583" data-name="Rectángulo 459583" width="84" height="83.499" fill="#6a2874"/>
    </clipPath>
  </defs>
  <g id="Grupo_1208709" data-name="Grupo 1208709" transform="translate(-305.146 -10012.459)">
    <g id="Grupo_1177470" data-name="Grupo 1177470" transform="translate(305.146 10012.421)">
      <circle id="Elipse_13609" data-name="Elipse 13609" cx="81.125" cy="81.125" r="81.125" transform="translate(0 0.038)" fill="#f6e1fe"/>
      <g id="Grupo_1207827" data-name="Grupo 1207827" transform="translate(35.635 35.96)">
        <g id="Grupo_1099618" data-name="Grupo 1099618" transform="translate(0.188 -3.922)">
          <rect id="Rectángulo_401104" data-name="Rectángulo 401104" width="90" height="90" transform="translate(0)" fill="none"/>
        </g>
        <g id="Grupo_1209439" data-name="Grupo 1209439" transform="translate(3.188 -0.921)">
          <g id="Grupo_1209438" data-name="Grupo 1209438" clip-path="url(#clip-path)">
            <path id="Trazado_1270179" data-name="Trazado 1270179" d="M40.635.066a12.411,12.411,0,0,1,9.253,2.808c.652.556,1.884,2.279,2.4,2.381,7.817.42,16.179-.543,23.93-.006,4.064.282,7.194,2.26,7.535,6.58.7,8.916-.541,18.745-.011,27.758a7.034,7.034,0,0,1-2.625,4.787,7.823,7.823,0,0,1,2.625,4.788c-.582,9.042.785,19.072.011,28a6.749,6.749,0,0,1-6.34,6.34H6.584a6.78,6.78,0,0,1-6.34-6.34c-.773-8.925.593-18.954.011-28A7.823,7.823,0,0,1,2.88,44.375,7.034,7.034,0,0,1,.255,39.588C.784,30.574-.458,20.747.244,11.83A6.854,6.854,0,0,1,5.262,5.6c8.823-.8,17.775-.084,26.645-.389A12.967,12.967,0,0,1,40.635.066m.72,2.63c-12.312.868-11.185,19.668,1.36,18.827C54.976,20.7,53.709,1.825,41.355,2.7M30.636,8.13H5.875c-1.018,0-2.991,2.42-2.991,3.469v4.426H30.4c-.584-2.588-.846-5.385.239-7.895m47.49,0H53.364c1.115,2.516.766,5.294.239,7.895H81.116V11.6c0-1.184-1.841-3.232-2.991-3.469M81.116,18.9H52.048a12.177,12.177,0,0,1-20.1,0H2.884V39.59c0,1.107,2.131,3.469,3.23,3.469H19.152c-.355-2.467.743-5.014,3.457-5.275,7.284-.7,15.756.5,23.163.067,2.43.6,3.168,2.939,3.046,5.208H77.886c1.1,0,3.23-2.362,3.23-3.469ZM32.55,40.428H22.621a4.042,4.042,0,0,0-.837,1.077v7.058H32.55Zm12.56,0c-2.845-.478-6.943.355-9.929,0V48.2l.359.359H45.948v-7.3c0-.269-.557-.79-.837-.837m-32.3,8.134c1.576-.342,4.266.252,5.981,0,.435,0,.4-1.456.371-1.807a3.03,3.03,0,0,0-.05-.667l-.321-.4H6.831A5.861,5.861,0,0,0,4.312,46.76,5.4,5.4,0,0,0,2.884,49.4V69.735l.359.359H8.028l.359-.359V64.711c0-1.975,2.293-4.623,3.849-5.72,1.29-.911,1.7-.227,1.4-2.524a2.568,2.568,0,0,1-2.621-2.522c-.179-1.557-.191-4.952,1.794-5.383m49.4,8.134V53.227c0-1.214,1.7-1.946,2.742-2.043a54.153,54.153,0,0,1,8.361.031c.726.1,2.295,1.07,2.295,1.773V69.735l.359.359h4.785l.359-.359V49.4a5.4,5.4,0,0,0-1.428-2.639,5.861,5.861,0,0,0-2.519-1.069H48.818V56.457h2.633c-.756-7.038,8.606-7.022,8.132,0Zm-37.8-5.5H13.65v2.632H24.416Zm8.134,0H27.287c.006,1.469.215,4-1.2,4.9-.5.319-1.189.3-1.433.48-.4.295-.323,1.31-.016,1.7a15.973,15.973,0,0,0,1.816,1.054h6.1Zm13.4,0H35.182v7.775l.359.359H45.948Zm10.767,5.265c.078-1.262.185-2.36-1.316-2.615-1.383.2-1.4,1.466-1.318,2.615Zm10.766-2.634H64.846v2.634h2.634Zm5.5,0H70.349v2.634h2.634Zm-51.2,2.633H16.521v1.435h5.263Zm34.451,2.871H52.168c.306.428,1.339,1.686,1.795,1.683ZM48.818,70.094h3.469c.607,0,8.31-6.663,9.706-7.28.473-.65.415-3.283-.65-3.459-.728-.12-10.552,7.617-12.175,8.338-.629.6-.272,1.607-.35,2.4M72.982,59.328H64.848V69.735l.359.359h7.775ZM48.818,64.591l2.632-1.8-2.632-2.743Zm-37.561,0h15.79a6.1,6.1,0,0,0-3.7-3.839c-1.429-.408-7.448-.434-8.813.062a5.772,5.772,0,0,0-3.28,3.777M32.55,61.959H28.722a9.6,9.6,0,0,1,1.2,3.23v4.9H32.55Zm13.4,0H35.182v7.775l.359.359H45.948Zm16.268,8.134V66.026c-1.425,1.135-3.295,2.182-4.622,3.393-.235.214-.51.213-.4.674ZM27.287,67.462H11.018v2.632h15.91c.681-.631.251-1.777.359-2.632m53.829,5.263H2.884v4.426a10.271,10.271,0,0,0,.667,1.725A4.539,4.539,0,0,0,7.539,80.87l69.388-.013c1.827.048,4.19-1.855,4.19-3.705Z" transform="translate(0 0)" fill="#6a2874"/>
            <path id="Trazado_1270180" data-name="Trazado 1270180" d="M152.553,22.006c1.511-.2,3.894-.142,4.76,1.324.253.428.3,1.135.556,1.358.368.319,1.361.324,1.921.95,1.164,1.3,1.1,5.874-.635,6.8-.418.222-1.066.216-1.291.384-.267.2-.286,1.137-.707,1.685-1.237,1.611-6.153,1.6-7.153-.275-.229-.428-.225-1.2-.5-1.411-.443-.332-1.2-.047-1.923-.947-.981-1.222-1.04-4.87-.11-6.1.592-.784,1.6-.715,2.028-1.083.3-.256.235-.845.464-1.21a3.03,3.03,0,0,1,2.595-1.472m2.446,2.8h-2.634l0,2.634-2.634,0v2.634l2.634,0,0,2.634H155l0-2.634,2.634,0V27.439l-2.634,0Z" transform="translate(-111.682 -16.679)" fill="#6a2874"/>
            <path id="Trazado_1270181" data-name="Trazado 1270181" d="M165.373,270.047c1.573-.3,2.074,2.182.85,2.55a1.351,1.351,0,1,1-.85-2.55" transform="translate(-124.99 -205.421)" fill="#6a2874"/>
            <path id="Trazado_1270182" data-name="Trazado 1270182" d="M166.432,225.146c1.018,1.025-.166,3.25-1.755,2.111-1.607-1.151.6-3.279,1.755-2.111" transform="translate(-124.848 -171.023)" fill="#6a2874"/>
            <path id="Trazado_1270183" data-name="Trazado 1270183" d="M166.432,180.146c1.018,1.025-.166,3.25-1.755,2.111-1.607-1.151.6-3.279,1.755-2.111" transform="translate(-124.848 -136.789)" fill="#6a2874"/>
            <path id="Trazado_1270184" data-name="Trazado 1270184" d="M108.113,182.381c-1.255-1.255.98-3.314,2.113-1.755,1.05,1.445-1.03,2.838-2.113,1.755" transform="translate(-81.965 -136.986)" fill="#6a2874"/>
          </g>
        </g>
      </g>
    </g>
    <ellipse id="Elipse_13678" data-name="Elipse 13678" cx="19.243" cy="19.243" rx="19.243" ry="19.243" transform="translate(305.965 10136.186)" fill="#da9dfe"/>
    <g id="Grupo_1207826" data-name="Grupo 1207826" transform="translate(305.146 10138.641)">
      <path id="Trazado_998481" data-name="Trazado 998481" d="M0,13.854q4.835.419,9.664.868l-.27.112,1.389-2.491a.373.373,0,0,1,.426-.131.271.271,0,0,1,.2.185l0,.01,1.186,5.359L11.7,17.7l1.915-4.337,1.934-4.332,1.94-4.33L19.452.377A.822.822,0,0,1,20.394.03.578.578,0,0,1,20.9.6V.609l-.77,7.01-.812,7.007-.823,7.006-.854,7L16.044,28.4c1.235-2.953,2.506-5.9,3.765-8.845l1.893-4.42,1.917-4.414,0-.011a.7.7,0,0,1,.8-.305.505.505,0,0,1,.439.47l-.29,5.628-.314,5.627-.826-.118,2.776-5.324,0-.009a.291.291,0,0,1,.3-.125l5.25.671,5.247.689-5.291-.467-5.287-.485.3-.133-2.494,5.4a.472.472,0,0,1-.54.2.338.338,0,0,1-.286-.3v-.012l.079-5.631.1-5.631L24.836,11,23.051,15.45l-1.809,4.44c-1.209,2.959-2.407,5.921-3.64,8.874a.892.892,0,0,1-1.022.4c-.373-.087-.6-.356-.57-.635v0l.812-7.007.842-7,.854-7,.9-7,1.444.232-2.048,4.3-2.069,4.3-2.074,4.3-2.093,4.29-.005.011a.513.513,0,0,1-.588.2.382.382,0,0,1-.3-.278l-.924-5.388.624.063L9.86,14.986l0,.007a.273.273,0,0,1-.265.1q-4.8-.609-9.59-1.244" transform="translate(0 4.51) rotate(-7)" fill="#fff"/>
    </g>
  </g>
</svg>
