<svg xmlns="http://www.w3.org/2000/svg" xmlns:xlink="http://www.w3.org/1999/xlink" width="162.25" height="162.25" viewBox="0 0 162.25 162.25">
  <defs>
    <clipPath id="clip-path">
      <rect id="Rectángulo_459584" data-name="Rectángulo 459584" width="84" height="83.587" fill="#6a2874"/>
    </clipPath>
  </defs>
  <g id="Grupo_1208712" data-name="Grupo 1208712" transform="translate(-304.969 -10012.459)">
    <g id="Grupo_1177470" data-name="Grupo 1177470" transform="translate(305.146 10012.421)">
      <circle id="Elipse_13609" data-name="Elipse 13609" cx="81.125" cy="81.125" r="81.125" transform="translate(-0.178 0.038)" fill="#f6e1fe"/>
      <g id="Grupo_1207827" data-name="Grupo 1207827" transform="translate(35.635 21.96)">
        <g id="Grupo_1099618" data-name="Grupo 1099618" transform="translate(0.188 14.078)">
          <rect id="Rectángulo_401104" data-name="Rectángulo 401104" width="90" height="90" transform="translate(0)" fill="none"/>
        </g>
        <g id="Grupo_1209441" data-name="Grupo 1209441" transform="translate(3.188 17.078)">
          <g id="Grupo_1209440" data-name="Grupo 1209440" clip-path="url(#clip-path)">
            <path id="Trazado_1270185" data-name="Trazado 1270185" d="M24.455,58.981c.174.564,2.122.4,2.646.255l.191-.288c.433-6.86-.466-14.212.037-21.013a35.123,35.123,0,0,1,2.582-9.618c-.972-1.382-2.152-2.342-2.477-4.127-.785-4.313,1.388-7.744,5.579-8.795,1.333-.334,9.694-1.321,10-1.727,0-4.164-6.319-3.042-4.737-7.843a5.769,5.769,0,0,1,3.352-2.867c.732-.216,1.845-.168,2.437-.433,1.3-.58,1.608-2.212,4.219-2.478,1.936-.2,3.349.963,4.288.913C53.062.934,54.181.02,55.432,0c1.374-.021,2.421.957,3.108.958.974,0,2.148-1.146,4.28-.913,2.534.278,2.892,1.887,4.218,2.478.637.284,1.891.275,2.756.593a4.883,4.883,0,0,1,2.7,2.327c2.359,4.779-4.2,4.089-4.74,8.206,4.971,1.508,13.722.3,15.665,6.463,1.025,3.254-.164,5.838-2.278,8.26A35.184,35.184,0,0,1,83.773,39.13c.712,11.623-.525,23.939,0,35.635-.609,3.871-3.229,5.847-7.043,6.113-13.4.935-27.89-.712-41.4-.023-3.918,2.957-11.039,3.444-15.65,1.8-.939-.334-2.59-1.706-3-1.784-3.611-.687-9.188.809-12.79-.366A5.56,5.56,0,0,1,.3,75.964C.989,64.314-.625,51.6.287,40.076a8.966,8.966,0,0,1,5.239-7.438V29.711C2.8,29.266,2.663,26.6,2.927,24.3a2.816,2.816,0,0,1,2.751-2.751,93.29,93.29,0,0,1,13.64-.005c2.824.339,2.833,3.635,2.491,5.85-.222,1.439-1.282,2.029-2.583,2.32l-.042,2.917c2,.614,5.272,4.217,5.272,6.26ZM65.108,13.4c.346-3.06,2.7-4.985,5.262-6.325-.785-2.284-3.587-1.1-4.775-1.676-.713-.346-.781-2.159-2.906-2.606-2.054-.432-4.149,1.62-4.832,1.49-.349-.066-.92-1-1.369-1.256-2-1.16-2.942,1.32-3.644,1.256C50.1,2.9,48.51,1.526,46.116,4.338c-.242.284-.337.9-.608,1.067-.961.591-4.664-.763-4.778,2.018,2.919.838,4.477,3.277,5.41,6Zm-14.1,2.881H44.667a46.17,46.17,0,0,0-4.3,2.877A28.236,28.236,0,0,0,29.946,38.878c-.427,6.715.314,13.907.041,20.669a12.246,12.246,0,0,1,4.272,1.706,23.03,23.03,0,0,1,25.412-31.27C75,32.674,83.126,50.257,75.444,63.806a22.988,22.988,0,0,1-37.829,3.063c-.836-1.028-1.332-2.417-2.4-3.224V78H78.154c1.374,0,3.128-2.577,2.987-3.95-1.735-18.543,6.3-44.278-12.4-56.24-.36-.23-2.395-1.523-2.543-1.523h-6.1c.314,1.458,1.171,7.215,2.4,7.769,1.427.645,2.956-.52,2.264-2.024-.235-.511-1.94-1.667-2.01-2.07l1.777-2c.794.975,2.559,2.115,2.878,3.337,1.02,3.908-2.523,6.928-6.122,5.165-2.867-1.4-3-6.873-3.99-9.656-.137-.387.127-.637-.54-.525v7.893H54.115V16.284c-.363,0-.448.72-.542,1.013-.682,2.12-1.242,6.9-2.69,8.314a4.489,4.489,0,0,1-6.636-.3c-2.057-2.722-.193-5.754,2.3-7.339l1.822,1.777c-.659.842-2.252,1.785-2.316,2.906-.081,1.432,1.575,1.944,2.655,1.255s1.834-6.2,2.3-7.629m-12.677.959c-2.774.66-6.882.31-8.084,3.515a4.313,4.313,0,0,0,1.028,4.849,40.7,40.7,0,0,1,7.056-8.365m41.145,8.369c.715.535,1.636-2.468,1.653-3.026.143-4.652-5.037-4.749-8.353-5.343,2.373,2.658,5.293,5.009,6.7,8.369M5.8,27.048H18.834c.489-.369.422-1.213.371-1.806a3.047,3.047,0,0,0-.05-.668l-.321-.4H5.8Zm10.764,2.631H8.429V34.7c-4.419.73-5.923,4.194-5.5,8.372h18.9V39.606a10.438,10.438,0,0,0-.911-2.2c-1.05-1.712-2.621-2.114-4.351-2.824Zm24.482,8.695a20.265,20.265,0,0,0,3.378,31.018c15.442,10.179,35.22-4.171,30.622-22.011-3.883-15.066-23.06-20.106-34-9.008M21.824,45.705H3.286l-.359.359V64.6H16.561c-.707-3.59,2.477-4.378,5.262-5.023Zm1.866,16.337c-.581.057-4.261.687-4.253,1.244,1.329,1.987,12.908,1.442,12.907,0-2.41-1.407-5.9-1.515-8.654-1.244m-4.5,4.234v4.306l3.351-3.466Zm0,8.252v4.186l11.96-11.957-4.873.746c-.865,1.189-6.862,6.237-7.087,7.026m-2.631-7.056H2.927v8.252C2.927,76.252,4.153,78,4.721,78h11.84ZM32.587,78.714V69.386l-4.78,4.664ZM30.2,80.386c-.522-.611-4-4.356-4.392-4.286l-4.218,4.286a21.648,21.648,0,0,0,8.611,0" transform="translate(0 0)" fill="#6a2874"/>
            <path id="Trazado_1270186" data-name="Trazado 1270186" d="M187.566,158.078v7.415l7.033-3.81,3.98,6.807-.252.467-6.45,3.831,6.674,4.1-3.8,6.92c-.169.165-.313.046-.487,0-1.787-.432-4.682-3.205-6.694-3.731v7.3l-.359.359h-7.774v-7.654c-1.189.182-6.783,4.248-7.4,3.811l-3.832-7.14,6.922-4.084-6.951-3.964,3.861-7.026c.584-.412,6.19,3.691,7.4,3.811v-7.415Zm-2.87,2.631h-2.631v9.568l-8.735-5c-.4.691-1.723,2.042-1.074,2.726l8.131,4.784-8.262,4.9c-.4.626.769,1.953,1.086,2.531l8.855-4.921v9.568H184.7v-9.209l.474-.242,8.29,4.878c.473.131.261-.088.377-.282a14.207,14.207,0,0,0,1.16-2.185l-8.624-4.923,8.6-5.042-1.185-2.609-8.612,4.906-.474-.242Z" transform="translate(-127.949 -120.266)" fill="#6a2874"/>
            <path id="Trazado_1270187" data-name="Trazado 1270187" d="M26.006,213.678c-.181-.255-1.687-.288-2.313-1.4-.75-1.326-.717-4.655.2-5.891.566-.763,2.048-.838,2.132-.921.137-.136.061-1.663,1.374-2.334a13.887,13.887,0,0,1,4.933-.211c1.6.405,1.41,2.075,1.853,2.452s1.435.3,2.027,1.082c.771,1.019.831,4.257.382,5.395-.59,1.495-1.923,1.317-2.428,1.878-.446.495-.352,1.428-1.3,2.052-1.323.875-5.485.858-6.449-.728a7.591,7.591,0,0,1-.415-1.378m5.31-8.182H28.682l0,2.634-2.634,0v2.634l2.634,0,0,2.873h2.634l.223-2.767,2.648-.1-.225-2.528-2.647-.1Z" transform="translate(-17.623 -154.291)" fill="#6a2874"/>
          </g>
        </g>
      </g>
    </g>
    <ellipse id="Elipse_13678" data-name="Elipse 13678" cx="19.243" cy="19.243" rx="19.243" ry="19.243" transform="translate(305.965 10136.186)" fill="#da9dfe"/>
    <g id="Grupo_1207826" data-name="Grupo 1207826" transform="translate(305.146 10138.641)">
      <path id="Trazado_998481" data-name="Trazado 998481" d="M0,13.854q4.835.419,9.664.868l-.27.112,1.389-2.491a.373.373,0,0,1,.426-.131.271.271,0,0,1,.2.185l0,.01,1.186,5.359L11.7,17.7l1.915-4.337,1.934-4.332,1.94-4.33L19.452.377A.822.822,0,0,1,20.394.03.578.578,0,0,1,20.9.6V.609l-.77,7.01-.812,7.007-.823,7.006-.854,7L16.044,28.4c1.235-2.953,2.506-5.9,3.765-8.845l1.893-4.42,1.917-4.414,0-.011a.7.7,0,0,1,.8-.305.505.505,0,0,1,.439.47l-.29,5.628-.314,5.627-.826-.118,2.776-5.324,0-.009a.291.291,0,0,1,.3-.125l5.25.671,5.247.689-5.291-.467-5.287-.485.3-.133-2.494,5.4a.472.472,0,0,1-.54.2.338.338,0,0,1-.286-.3v-.012l.079-5.631.1-5.631L24.836,11,23.051,15.45l-1.809,4.44c-1.209,2.959-2.407,5.921-3.64,8.874a.892.892,0,0,1-1.022.4c-.373-.087-.6-.356-.57-.635v0l.812-7.007.842-7,.854-7,.9-7,1.444.232-2.048,4.3-2.069,4.3-2.074,4.3-2.093,4.29-.005.011a.513.513,0,0,1-.588.2.382.382,0,0,1-.3-.278l-.924-5.388.624.063L9.86,14.986l0,.007a.273.273,0,0,1-.265.1q-4.8-.609-9.59-1.244" transform="translate(0 4.51) rotate(-7)" fill="#fff"/>
    </g>
  </g>
</svg>
