<svg xmlns="http://www.w3.org/2000/svg" xmlns:xlink="http://www.w3.org/1999/xlink" width="162.25" height="162.25" viewBox="0 0 162.25 162.25">
  <defs>
    <clipPath id="clip-path">
      <rect id="Rectángulo_459662" data-name="Rectángulo 459662" width="77.619" height="77.543" fill="#6a2874"/>
    </clipPath>
  </defs>
  <g id="Grupo_1209794" data-name="Grupo 1209794" transform="translate(-249.711 -2952)">
    <g id="Grupo_1209790" data-name="Grupo 1209790" transform="translate(-55.436 -7060.459)">
      <g id="Grupo_1177470" data-name="Grupo 1177470" transform="translate(305.146 10012.421)">
        <circle id="Elipse_13609" data-name="Elipse 13609" cx="81.125" cy="81.125" r="81.125" transform="translate(0 0.038)" fill="#f6e1fe"/>
        <g id="Grupo_1207827" data-name="Grupo 1207827" transform="translate(35.635 35.96)">
          <g id="Grupo_1099618" data-name="Grupo 1099618" transform="translate(-4.635 -3.922)">
            <rect id="Rectángulo_401104" data-name="Rectángulo 401104" width="90" height="90" transform="translate(0)" fill="none"/>
          </g>
          <g id="Grupo_1209798" data-name="Grupo 1209798" transform="translate(0.068 -0.092)">
            <g id="Grupo_1099618-2" data-name="Grupo 1099618" transform="translate(0.297 0.171)">
              <rect id="Rectángulo_401104-2" data-name="Rectángulo 401104" width="81.353" height="82.333" transform="translate(0)" fill="none"/>
            </g>
            <g id="Grupo_1209472" data-name="Grupo 1209472" transform="translate(1.741 1.615)">
              <g id="Grupo_1209471" data-name="Grupo 1209471" clip-path="url(#clip-path)">
                <path id="Trazado_1270707" data-name="Trazado 1270707" d="M196.561,43.332a17.105,17.105,0,0,1-5.877-2.012c-1.014-.59-4.427-2.765-2.646-4.053,1.077-.78,3.057,1.487,4.146,2.109a9.463,9.463,0,0,0,4.428,1.366c3.363-8.138,5.131-18.411,2.825-27.065-.875-3.281-3.3-8.462-7.158-8.841-.713-.07-1.95.236-2.346.128-.576-.158-1.642-1.357-2.28-1.728-3.467-2.017-5.444-.166-8.542.438-1.821.355-2.268-1.549-1.111-2.227A14.589,14.589,0,0,1,187.232.323c1.323.4,2.747,1.855,3.311,2.022,1.663.494,2.589-.1,4.716,1.063,8.608,4.705,8.348,20.6,6.62,28.808-.44,2.091-3.116,9.274-3,10.446a30.894,30.894,0,0,0,1.5,4.961c.562.718,2.718,2.085,3.567,2.878,6.686,6.248,11.106,13.988,11.551,23.34.05,1.056.368,3.471-1.011,3.671-2.1.305-1.523-4-1.656-5.227-1.045-9.636-5.849-16.419-13.325-22.249l-.748.16a58.926,58.926,0,0,1-10.221,7.568c-1,.555-4.912,2.906-5.594,1.519a1.775,1.775,0,0,1-.119-1c.158-.842,4.089-2.41,5.046-2.966a50.186,50.186,0,0,0,7.068-4.933,19.521,19.521,0,0,0,2.575-2.317c.549-.929-.881-3.574-.952-4.739" transform="translate(-137.946 0)" fill="#6a2874"/>
                <path id="Trazado_1270708" data-name="Trazado 1270708" d="M59.19,36.759c2.412,6.278,6.026,11.416,13.563,9.894,3.805-.769,7.759-2.552,11.605-3.192.962.2.947.965.8,1.817l-.628.481c-5.055,1.253-10.094,3.586-15.337,3.666l1.744,6.559-1.964,5.1c.077.384,2.642.8,3.17,1.059,1.912.946,1.164,7.28,4.155,8.067,2.515.662,7.354-1.934,10.176-2.283,1.357-.168,1.566-.092,2.064,1.155a38.028,38.028,0,0,1,1.549,6,1.385,1.385,0,0,1-1.225.995c-1.576.005-1.923-4.344-2.335-5.54-5.144.852-11.782,5.367-14.454-1.657-.538-1.415-.665-3.08-1.312-4.467l-4.4-1.485a1.475,1.475,0,0,1-.189-1.289c.3-1.579,2.094-4.136,2.144-5.666A46.905,46.905,0,0,0,66.538,49.3c-.408-.919-.994-.716-1.724-1.166a20.412,20.412,0,0,1-8.405-12.041c-.206-.871-.759-2.486.5-2.851,1.114-.324,1.47.888,2.406,1.06,2.432.448,5.271-1.062,7.361-2.173,2.9-1.54,5.67-3.608,8.509-5.272a1.231,1.231,0,0,1,1.233,2.125C70.98,31.9,65.742,37.072,59.19,36.759" transform="translate(-43.64 -20.81)" fill="#6a2874"/>
                <path id="Trazado_1270709" data-name="Trazado 1270709" d="M160.727,240.854c2.616,2.607-.247,6.63-.363,9.7l1.441-1.778a3.537,3.537,0,0,1,5.331,1.561c.648,1.709.5,8.079-.1,9.9-.414,1.265-3.159,5.375-4.3,2.929-.545-1.172,1.279-2.109,1.8-3.2.584-1.217.737-7.014.476-8.4a1.455,1.455,0,0,0-.823-.972c-2.521-.661-1.285,5.025-1.659,6.257a1.269,1.269,0,0,1-1.971.441c-.876-.873-1.79-4.932-2.64-6.19-.342-2.181,2.035-6.642,1.272-8.153a1.84,1.84,0,0,0-.507-.608l-3.214,8.355c.253,3.637,2.084,7.993,2.225,11.526a2.5,2.5,0,0,1-.12,1.229c-1.576,1.083-2.051.069-2.414-1.368-.969-3.831-1.332-7.986-2.127-11.836l3.856-10.149c.953-1.048,3-.065,3.826.762" transform="translate(-119.033 -186.381)" fill="#6a2874"/>
                <path id="Trazado_1270710" data-name="Trazado 1270710" d="M235.745,276.03c-.982.955-2.135.667-2.391-.721a71.709,71.709,0,0,1-.062-11.066c.87-10.989,16.371-11.236,17.131.442.225,3.459-.176,7.175-.026,10.663a1.256,1.256,0,0,1-2.225.7c-.555-.777-.014-10.165-.268-12.176a6.076,6.076,0,0,0-10.821-3.168,7.662,7.662,0,0,0-1.339,2.884Z" transform="translate(-181.303 -199.079)" fill="#6a2874"/>
                <path id="Trazado_1270711" data-name="Trazado 1270711" d="M38.59,239.4a1.362,1.362,0,0,1-.73,2.164c-3.582.322-7.837-.41-11.333,0-3.666.431-2.128,6.323,1.383,4.493,1.828-.952.806-3.53,2.61-3.388,2.336.184.633,4.745-1.813,5.743-6.929,2.825-9.956-8.7-1.963-9.3a84.056,84.056,0,0,1,10.687,0c.344.029.914.038,1.159.284" transform="translate(-17.093 -185.843)" fill="#6a2874"/>
                <path id="Trazado_1270712" data-name="Trazado 1270712" d="M25.495,173.162a5.27,5.27,0,0,1-3.614-3.72c-1.092-6.42,7.681-7.9,9.294-2.85.384,1.2.436,3.807-1.517,2.854-.951-.464-.288-3.042-2.4-3.383a2.382,2.382,0,1,0-.882,4.659c3.256.388,8.324-.611,11.292.042,1.274.28,1.362,1.576.492,2.4Z" transform="translate(-16.945 -127.213)" fill="#6a2874"/>
                <path id="Trazado_1270713" data-name="Trazado 1270713" d="M202.408,116.791a1.827,1.827,0,0,1-.072-1.8c.182-.278,1.126-.427,1.564-.712,3.14-2.045.905-8.9-1.835-8.06-1.667.513.1,3.577-1.48,4.092-1.872.611-1.915-1.924-1.8-3.144A3.617,3.617,0,0,1,201.179,104c5.543-2.025,8.759,7.666,5.185,11.407-.692.724-3.1,2.242-3.956,1.381" transform="translate(-154.58 -80.675)" fill="#6a2874"/>
                <path id="Trazado_1270714" data-name="Trazado 1270714" d="M66.4,217.818l10.17-.044a1.242,1.242,0,0,1,0,2.434c-3.052-.317-7.049.454-9.98-.009a1.509,1.509,0,0,1-.79-.321,1.227,1.227,0,0,1,.6-2.06" transform="translate(-50.909 -169.376)" fill="#6a2874"/>
                <path id="Trazado_1270715" data-name="Trazado 1270715" d="M158.161,17.979c-.986-.979.666-3.057,1.825-1.716,1.2,1.394-.793,2.742-1.825,1.716" transform="translate(-122.777 -12.308)" fill="#6a2874"/>
                <path id="Trazado_1270716" data-name="Trazado 1270716" d="M197.32,185.012c1.371-.034,1.707,2.173.392,2.388a1.227,1.227,0,1,1-.392-2.388" transform="translate(-152.506 -143.895)" fill="#6a2874"/>
                <path id="Trazado_1270717" data-name="Trazado 1270717" d="M138.195,168.945c.954.958-.28,3.065-1.715,1.825-1.339-1.157.733-2.812,1.715-1.825" transform="translate(-105.808 -131.165)" fill="#6a2874"/>
                <path id="Trazado_1270718" data-name="Trazado 1270718" d="M159.019,168.688a1.25,1.25,0,0,1,.795,2.368c-1.653.482-2.1-1.973-.795-2.368" transform="translate(-123.089 -131.149)" fill="#6a2874"/>
                <path id="Trazado_1270719" data-name="Trazado 1270719" d="M213.426,201.633c2.234-.672,2.243,2.645.449,2.365-1.238-.193-1.472-2.057-.449-2.365" transform="translate(-165.494 -156.753)" fill="#6a2874"/>
                <path id="Trazado_1270720" data-name="Trazado 1270720" d="M.822,217.746c1.488-.4,2.291,1.932.789,2.371a1.25,1.25,0,0,1-.789-2.371" transform="translate(0 -169.32)" fill="#6a2874"/>
                <path id="Trazado_1270721" data-name="Trazado 1270721" d="M22.1,219.9c-.932-.932.364-2.992,1.715-1.826,1.3,1.124-.64,2.9-1.715,1.826" transform="translate(-16.946 -169.341)" fill="#6a2874"/>
                <path id="Trazado_1270722" data-name="Trazado 1270722" d="M44.538,217.826a1.218,1.218,0,1,1,.556,2.372,1.218,1.218,0,0,1-.556-2.372" transform="translate(-33.932 -169.397)" fill="#6a2874"/>
                <path id="Trazado_1270723" data-name="Trazado 1270723" d="M109.8,239.717a1.222,1.222,0,1,1,.567,2.369,1.222,1.222,0,0,1-.567-2.369" transform="translate(-84.758 -186.395)" fill="#6a2874"/>
                <path id="Trazado_1270724" data-name="Trazado 1270724" d="M180.577,174.518c2.177-.755,2.615,2.436.4,2.2a1.192,1.192,0,0,1-.4-2.2" transform="translate(-139.989 -135.643)" fill="#6a2874"/>
                <path id="Trazado_1270725" data-name="Trazado 1270725" d="M224.544,217.824a1.209,1.209,0,1,1-.173,2.316,1.232,1.232,0,0,1,.173-2.316" transform="translate(-173.936 -169.395)" fill="#6a2874"/>
              </g>
            </g>
          </g>
        </g>
      </g>
      <ellipse id="Elipse_13678" data-name="Elipse 13678" cx="19.243" cy="19.243" rx="19.243" ry="19.243" transform="translate(305.965 10136.186)" fill="#da9dfe"/>
      <g id="Grupo_1207826" data-name="Grupo 1207826" transform="translate(305.146 10138.641)">
        <path id="Trazado_998481" data-name="Trazado 998481" d="M0,13.854q4.835.419,9.664.868l-.27.112,1.389-2.491a.373.373,0,0,1,.426-.131.271.271,0,0,1,.2.185l0,.01,1.186,5.359L11.7,17.7l1.915-4.337,1.934-4.332,1.94-4.33L19.452.377A.822.822,0,0,1,20.394.03.578.578,0,0,1,20.9.6V.609l-.77,7.01-.812,7.007-.823,7.006-.854,7L16.044,28.4c1.235-2.953,2.506-5.9,3.765-8.845l1.893-4.42,1.917-4.414,0-.011a.7.7,0,0,1,.8-.305.505.505,0,0,1,.439.47l-.29,5.628-.314,5.627-.826-.118,2.776-5.324,0-.009a.291.291,0,0,1,.3-.125l5.25.671,5.247.689-5.291-.467-5.287-.485.3-.133-2.494,5.4a.472.472,0,0,1-.54.2.338.338,0,0,1-.286-.3v-.012l.079-5.631.1-5.631L24.836,11,23.051,15.45l-1.809,4.44c-1.209,2.959-2.407,5.921-3.64,8.874a.892.892,0,0,1-1.022.4c-.373-.087-.6-.356-.57-.635v0l.812-7.007.842-7,.854-7,.9-7,1.444.232-2.048,4.3-2.069,4.3-2.074,4.3-2.093,4.29-.005.011a.513.513,0,0,1-.588.2.382.382,0,0,1-.3-.278l-.924-5.388.624.063L9.86,14.986l0,.007a.273.273,0,0,1-.265.1q-4.8-.609-9.59-1.244" transform="translate(0 4.51) rotate(-7)" fill="#fff"/>
      </g>
    </g>
    <path id="Trazado_1271486" data-name="Trazado 1271486" d="M79.8,53.239V66.476a.9.9,0,0,1-.9.895H68.265a.9.9,0,0,0-.9.9V78.909a.9.9,0,0,1-.9.9H53.239a.9.9,0,0,1-.9-.9V68.266a.9.9,0,0,0-.895-.9H40.767a.9.9,0,0,1-.9-.895V53.239a.9.9,0,0,1,.9-.9H51.449a.9.9,0,0,0,.895-.895V40.768a.9.9,0,0,1,.9-.9H66.475a.9.9,0,0,1,.9.9V51.449a.9.9,0,0,0,.9.895H78.908a.9.9,0,0,1,.9.9" transform="translate(327.754 2916.793)" fill="#8d1939"/>
  </g>
</svg>
