<svg xmlns="http://www.w3.org/2000/svg" xmlns:xlink="http://www.w3.org/1999/xlink" width="1020" height="524.058" viewBox="0 0 1020 524.058">
  <defs>
    <linearGradient id="linear-gradient" x1="0.5" x2="0.5" y2="1" gradientUnits="objectBoundingBox">
      <stop offset="0" stop-color="#fee7ec"/>
      <stop offset="1" stop-color="#ffcce2"/>
    </linearGradient>
    <clipPath id="clip-path">
      <path id="Trazado_611005" data-name="Trazado 611005" d="M0,0H1020V523.058H0Z" fill="url(#linear-gradient)"/>
    </clipPath>
    <clipPath id="clip-path-2">
      <rect id="Rectángulo_459719" data-name="Rectángulo 459719" width="572.775" height="390.995" fill="none"/>
    </clipPath>
    <clipPath id="clip-path-3">
      <rect id="Rectángulo_459725" data-name="Rectángulo 459725" width="800" height="301.756" fill="none"/>
    </clipPath>
  </defs>
  <g id="Grupo_1209844" data-name="Grupo 1209844" transform="translate(-289.711 -2263.461)">
    <g id="Grupo_1209494" data-name="Grupo 1209494" transform="translate(-9141.289 11774.128)">
      <g id="Grupo_1073695" data-name="Grupo 1073695" transform="translate(9431 -9510.667)">
        <path id="Trazado_608309" data-name="Trazado 608309" d="M0,0H1020V523.058H0Z" fill="url(#linear-gradient)"/>
      </g>
      <g id="Grupo_1209486" data-name="Grupo 1209486" transform="translate(9650.703 -9378.667)">
        <g id="Grupo_1209485" data-name="Grupo 1209485" clip-path="url(#clip-path-2)">
          <path id="Trazado_1270795" data-name="Trazado 1270795" d="M419.278,199.841c27.577-27.007,18.566-55.607,18.566-55.607-21.949,15.278-34.005,38.72-34.005,38.72s-6.367,8.335-11.85,17.1Z" transform="translate(133.523 49.13)" fill="#2cbf7b"/>
          <path id="Trazado_1270796" data-name="Trazado 1270796" d="M435.75,144.233c-.512,1.339-1.054,2.669-1.634,3.982-.563,1.321-1.172,2.62-1.764,3.928-.625,1.291-1.243,2.587-1.889,3.869l-.98,1.917c-.326.639-.649,1.282-.995,1.91-.684,1.262-1.347,2.536-2.059,3.783l-2.144,3.736-2.246,3.677-.562.92-.586.9-1.173,1.807-1.178,1.8c-.4.6-.816,1.182-1.223,1.774-.823,1.177-1.633,2.364-2.468,3.533l-2.581,3.449-.645.863c-.213.288-.429.575-.658.851l-1.357,1.674-1.355,1.673-.678.837c-.224.281-.453.558-.692.824l-2.834,3.244c-.48.534-.941,1.083-1.436,1.6l-1.489,1.554q-1.486,1.558-2.987,3.1,1.422-1.615,2.858-3.215l1.433-1.6c.476-.535.918-1.1,1.379-1.649l2.756-3.3c.233-.271.456-.551.673-.837L407.9,190l1.318-1.7c1.786-2.239,3.431-4.585,5.132-6.888l2.444-3.533c.4-.591.819-1.173,1.213-1.771l1.169-1.8,1.174-1.8.587-.9.564-.913,2.255-3.656,2.178-3.7c.37-.613.7-1.247,1.059-1.869l1.056-1.87c.358-.621.693-1.254,1.032-1.885l1.016-1.893c.673-1.264,1.313-2.546,1.969-3.821,1.291-2.558,2.53-5.143,3.685-7.769" transform="translate(135.617 49.13)" fill="#033a3f"/>
          <path id="Trazado_1270797" data-name="Trazado 1270797" d="M411.614,160.772a25.666,25.666,0,0,1,.8,2.465c.236.829.434,1.665.625,2.5s.35,1.684.484,2.535a25.22,25.22,0,0,1,.3,2.575,25.664,25.664,0,0,1-.8-2.465c-.235-.829-.433-1.665-.623-2.5s-.35-1.684-.483-2.535a25.642,25.642,0,0,1-.306-2.574" transform="translate(140.208 54.764)" fill="#033a3f"/>
          <path id="Trazado_1270798" data-name="Trazado 1270798" d="M407.895,176.58c1.307-.45,2.632-.837,3.962-1.2s2.665-.7,4-1.024,2.685-.618,4.038-.885,2.708-.52,4.08-.705c-1.308.45-2.632.838-3.962,1.2s-2.665.7-4,1.024-2.685.617-4.037.883-2.709.52-4.08.707" transform="translate(138.941 58.848)" fill="#033a3f"/>
          <path id="Trazado_1270799" data-name="Trazado 1270799" d="M417.916,161.584a20.378,20.378,0,0,1,2.153-.811c.727-.233,1.46-.446,2.2-.634s1.483-.351,2.233-.493a20.086,20.086,0,0,1,2.279-.316,20.1,20.1,0,0,1-2.153.811c-.727.235-1.459.448-2.2.634s-1.483.351-2.233.493a20.4,20.4,0,0,1-2.279.316" transform="translate(142.355 54.272)" fill="#033a3f"/>
          <path id="Trazado_1270800" data-name="Trazado 1270800" d="M425.087,230.711c-.458-1.833-1.022-3.731-1.72-5.706-8.131-22.964-11.111-25.452-1.453-46.71s3.205-31.7-7.816-43.935-2.35-44.428-17.651-49.111-1.906,21.666-12.751,35.867-15.124,21.753-13.646,38.153,15.39,17.9,6.831,33S360.613,216.179,358.2,231.6c-.768,4.909-.4,23.795,4.913,26.161Z" transform="translate(121.91 28.851)" fill="#027369"/>
          <path id="Trazado_1270801" data-name="Trazado 1270801" d="M408.749,201.225c-1.52-3.787-3.059-7.56-4.483-11.387-.717-1.912-1.393-3.842-1.975-5.812a37.643,37.643,0,0,1-1.308-6.039,24.638,24.638,0,0,1,.054-6.2,35.6,35.6,0,0,1,1.421-6.01,82.145,82.145,0,0,1,4.838-11.259l-.559,1.424-.572,1.417c-.362.953-.744,1.9-1.087,2.856s-.715,1.905-1.026,2.872c-.155.483-.338.957-.481,1.444l-.444,1.453a38.3,38.3,0,0,0-1.245,5.91,24.308,24.308,0,0,0-.008,6,38.361,38.361,0,0,0,1.233,5.909c.527,1.953,1.181,3.88,1.818,5.813l1.957,5.792c.629,1.94,1.283,3.873,1.868,5.828" transform="translate(136.529 52.632)" fill="#033a3f"/>
          <path id="Trazado_1270802" data-name="Trazado 1270802" d="M390.422,87.317a340.508,340.508,0,0,1,1.4,42.136c-.139,7.032-.505,14.056-.987,21.073s-1.157,14.02-1.952,21.008-1.826,13.951-2.955,20.891l-.877,5.2-.957,5.188c-.609,3.464-1.377,6.9-2.079,10.342l-1.161,5.145-.582,2.573c-.193.857-.416,1.708-.622,2.562l-1.26,5.121c-.2.855-.441,1.7-.664,2.551l-.681,2.549c-1.814,6.793-3.86,13.52-6.021,20.207l1.467-5.062c.492-1.687,1-3.368,1.445-5.068l1.38-5.085.345-1.271.32-1.278.638-2.555c1.767-6.8,3.274-13.661,4.72-20.532l1.011-5.168.509-2.583.471-2.59.936-5.183.855-5.195c1.1-6.934,2.089-13.888,2.872-20.864.819-6.973,1.526-13.96,2.028-20.963.522-7,.866-14.016,1.113-21.033s.3-14.043.2-21.065-.338-14.047-.914-21.052" transform="translate(126.381 29.743)" fill="#033a3f"/>
          <path id="Trazado_1270803" data-name="Trazado 1270803" d="M376.464,118.6c1.189,1.274,2.306,2.6,3.4,3.944.554.668,1.081,1.355,1.621,2.032l1.579,2.062,1.542,2.091c.5.708,1.014,1.4,1.5,2.122.988,1.424,1.949,2.868,2.841,4.365-1.189-1.274-2.309-2.6-3.4-3.944-.554-.668-1.081-1.355-1.621-2.032l-1.578-2.063-1.54-2.091c-.5-.707-1.013-1.4-1.5-2.122-.987-1.424-1.949-2.868-2.841-4.364" transform="translate(128.235 40.398)" fill="#033a3f"/>
          <path id="Trazado_1270804" data-name="Trazado 1270804" d="M383.144,161.556c2.227-1.74,4.5-3.407,6.8-5.047,1.142-.827,2.3-1.629,3.456-2.441l3.483-2.4,3.511-2.36c1.18-.772,2.35-1.559,3.539-2.318,2.369-1.532,4.755-3.038,7.192-4.47-2.227,1.741-4.5,3.408-6.8,5.049-1.142.829-2.3,1.628-3.456,2.441l-3.483,2.4-3.512,2.36c-1.178.772-2.35,1.558-3.539,2.317-2.369,1.532-4.755,3.038-7.191,4.471" transform="translate(130.51 48.546)" fill="#033a3f"/>
          <path id="Trazado_1270805" data-name="Trazado 1270805" d="M375.75,198.566c2.227-1.74,4.5-3.407,6.8-5.047,1.142-.827,2.3-1.629,3.456-2.441l3.483-2.4L393,186.317c1.18-.772,2.35-1.559,3.539-2.318,2.369-1.532,4.755-3.038,7.192-4.47-2.227,1.741-4.5,3.408-6.8,5.049-1.142.829-2.3,1.628-3.456,2.441l-3.483,2.4-3.512,2.359c-1.178.772-2.35,1.558-3.539,2.317-2.369,1.532-4.755,3.038-7.191,4.471" transform="translate(127.992 61.153)" fill="#033a3f"/>
          <path id="Trazado_1270806" data-name="Trazado 1270806" d="M373.452,168.746c.854.893,1.637,1.837,2.393,2.8s1.488,1.943,2.189,2.943,1.378,2.019,2.027,3.055,1.272,2.094,1.821,3.2c-.855-.893-1.637-1.837-2.393-2.8S378,176,377.3,175s-1.377-2.019-2.026-3.057-1.271-2.094-1.822-3.2" transform="translate(127.209 57.48)" fill="#033a3f"/>
          <path id="Trazado_1270807" data-name="Trazado 1270807" d="M66.237,370.414s17.462-36.787,3.94-84.922c-15.783-56.179-42.531-81.958-27.389-138.2C55.358,100.6,100.118,36.519,208.274,34.8c68.142-1.082,82.144,4.966,136.63,39.487,20.112,12.741,90.868,12.07,112.488,38.937,35.33,43.907,36.348,67.375,35.693,100.59-1.093,55.359-30.466,91.4-31.784,102.25-2.677,22.024-17.584,54.836-17.584,54.836Z" transform="translate(13.046 11.816)" fill="#fff5d4"/>
          <rect id="Rectángulo_459669" data-name="Rectángulo 459669" width="247.179" height="170.099" transform="translate(203.305 57.131)" fill="#b2dcf7"/>
          <rect id="Rectángulo_459670" data-name="Rectángulo 459670" width="232.532" height="159.114" transform="translate(210.628 62.625)" fill="#72a2ba"/>
          <rect id="Rectángulo_459671" data-name="Rectángulo 459671" width="6.706" height="164.503" transform="translate(279.901 60.043)" fill="#b2dcf7"/>
          <rect id="Rectángulo_459672" data-name="Rectángulo 459672" width="6.709" height="164.503" transform="translate(367.174 60.043)" fill="#b2dcf7"/>
          <rect id="Rectángulo_459673" data-name="Rectángulo 459673" width="256.335" height="13.617" transform="translate(200.285 44.469)" fill="#b2dcf7"/>
          <rect id="Rectángulo_459674" data-name="Rectángulo 459674" width="2.288" height="70.608" transform="translate(214.133 58.085)" fill="#b2dcf7"/>
          <rect id="Rectángulo_459675" data-name="Rectángulo 459675" width="2.29" height="132.946" transform="translate(431.1 58.087)" fill="#b2dcf7"/>
          <rect id="Rectángulo_459676" data-name="Rectángulo 459676" width="2.288" height="63.582" transform="translate(327.308 58.085)" fill="#b2dcf7"/>
          <rect id="Rectángulo_459677" data-name="Rectángulo 459677" width="256.335" height="1.819" transform="translate(200.285 62.555)" fill="#b2dcf7"/>
          <rect id="Rectángulo_459678" data-name="Rectángulo 459678" width="256.335" height="1.819" transform="translate(200.285 69.887)" fill="#b2dcf7"/>
          <rect id="Rectángulo_459679" data-name="Rectángulo 459679" width="256.335" height="1.819" transform="translate(200.285 77.218)" fill="#b2dcf7"/>
          <rect id="Rectángulo_459680" data-name="Rectángulo 459680" width="256.335" height="1.819" transform="translate(200.285 84.551)" fill="#b2dcf7"/>
          <rect id="Rectángulo_459681" data-name="Rectángulo 459681" width="256.335" height="1.819" transform="translate(200.285 91.883)" fill="#b2dcf7"/>
          <rect id="Rectángulo_459682" data-name="Rectángulo 459682" width="256.335" height="1.819" transform="translate(200.285 99.213)" fill="#b2dcf7"/>
          <rect id="Rectángulo_459683" data-name="Rectángulo 459683" width="256.335" height="1.818" transform="translate(200.285 106.547)" fill="#b2dcf7"/>
          <rect id="Rectángulo_459684" data-name="Rectángulo 459684" width="256.335" height="1.817" transform="translate(200.285 113.88)" fill="#b2dcf7"/>
          <rect id="Rectángulo_459685" data-name="Rectángulo 459685" width="256.335" height="1.818" transform="translate(200.285 121.21)" fill="#b2dcf7"/>
          <path id="Trazado_1270808" data-name="Trazado 1270808" d="M114.374,208.135,58.968,187.1l3.433-9.045c2.061-5.426,6.16-8.9,9.158-7.761l44.549,16.913c3,1.138,3.759,6.459,1.7,11.883Z" transform="translate(20.086 57.933)" fill="#72a2ba"/>
          <path id="Trazado_1270809" data-name="Trazado 1270809" d="M409.967,235.02H131.743V224.136a14.2,14.2,0,0,1,14.3-14.1H395.67a14.2,14.2,0,0,1,14.3,14.1Z" transform="translate(44.876 71.545)" fill="#72a2ba"/>
          <path id="Trazado_1270810" data-name="Trazado 1270810" d="M166.319,243.875,37.674,195.032l4.251-11.2a13.251,13.251,0,0,1,17.222-7.372l103.436,39.272a13.25,13.25,0,0,1,7.987,16.944Z" transform="translate(12.833 59.798)" fill="#72a2ba"/>
          <rect id="Rectángulo_459686" data-name="Rectángulo 459686" width="14.869" height="39.405" transform="translate(121.694 299.641)" fill="#b2dcf7"/>
          <rect id="Rectángulo_459687" data-name="Rectángulo 459687" width="21.844" height="24.842" transform="translate(118.207 312.706)" fill="#72a2ba"/>
          <rect id="Rectángulo_459688" data-name="Rectángulo 459688" width="14.869" height="19.702" transform="translate(391.111 317.249)" fill="#b2dcf7"/>
          <rect id="Rectángulo_459689" data-name="Rectángulo 459689" width="21.844" height="24.842" transform="translate(387.623 320.248)" fill="#72a2ba"/>
          <rect id="Rectángulo_459690" data-name="Rectángulo 459690" width="7.346" height="140.249" transform="translate(44.488 267.532) rotate(-68.957)" fill="#89b3cd"/>
          <path id="Trazado_1270811" data-name="Trazado 1270811" d="M160.368,244.853,39.524,198.36c-2.727-1.048-4.291-3.577-3.5-5.648l.029-.075c.8-2.071,3.652-2.9,6.379-1.85l120.844,46.493c2.727,1.05,4.293,3.578,3.5,5.648l-.028.076c-.8,2.07-3.653,2.9-6.38,1.849" transform="translate(12.202 64.833)" fill="#89b3cd"/>
          <path id="Trazado_1270812" data-name="Trazado 1270812" d="M176.35,215.037l-10.313-16.1a8.88,8.88,0,0,0-4.293-3.423l-89.1-34.281a8.74,8.74,0,0,0-6.12-.133l-17.3,6.426a5.971,5.971,0,0,0-4.058,5.047l-2.145,24.005c-.279,3.112,1.945,6.238,5.379,7.558l104.432,40.179c3.494,1.345,7.3.46,9.146-2.125l14.431-20.23a6.087,6.087,0,0,0-.054-6.927m-94.024-33.7L48.365,199.168l0,0,2.727-23.622a6.088,6.088,0,0,1,4.683-5.1L69.4,166.721a8.876,8.876,0,0,1,5.48.338l5.3,2.038c6.089,2.342,7.349,9.508,2.153,12.237m87.283,39.809L155.8,240.5h0l-13.251-36c-2.027-5.507,3.711-9.98,9.8-7.638l5.3,2.038a8.885,8.885,0,0,1,4.294,3.423l7.619,11.891a6.087,6.087,0,0,1,.054,6.927" transform="translate(14.645 54.71)" fill="#89b3cd"/>
          <path id="Trazado_1270813" data-name="Trazado 1270813" d="M37.538,210.361l-5.487-2.111a8.063,8.063,0,0,1-4.472-10.8l19.864-44.664a5.663,5.663,0,0,1,7.209-2.984l.1.04a5.663,5.663,0,0,1,3.252,7.318Z" transform="translate(9.156 50.896)" fill="#89b3cd"/>
          <path id="Trazado_1270814" data-name="Trazado 1270814" d="M40.57,207.393,28.45,202.731a4.429,4.429,0,0,1-2.543-5.725l.461-1.2a4.43,4.43,0,0,1,5.724-2.543l12.121,4.663a4.43,4.43,0,0,1,2.543,5.723l-.463,1.2a4.428,4.428,0,0,1-5.723,2.543" transform="translate(8.723 65.731)" fill="#b2dcf7"/>
          <path id="Trazado_1270815" data-name="Trazado 1270815" d="M103.085,231.444l-12.121-4.663a4.429,4.429,0,0,1-2.543-5.724l.461-1.2a4.43,4.43,0,0,1,5.724-2.543l12.121,4.663a4.43,4.43,0,0,1,2.543,5.723l-.463,1.2a4.428,4.428,0,0,1-5.723,2.543" transform="translate(30.018 73.923)" fill="#b2dcf7"/>
          <rect id="Rectángulo_459691" data-name="Rectángulo 459691" width="267.052" height="7.347" transform="translate(187.79 309.361)" fill="#b2dcf7"/>
          <rect id="Rectángulo_459692" data-name="Rectángulo 459692" width="14.023" height="16.703" transform="translate(108.851 357.164)" fill="#72a2ba"/>
          <path id="Trazado_1270816" data-name="Trazado 1270816" d="M97.558,283.644H94.351c0-4.286-3.774-7.772-8.412-7.772s-8.411,3.486-8.411,7.772H74.321c0-6.054,5.211-10.978,11.618-10.978s11.619,4.924,11.619,10.978" transform="translate(25.316 92.878)" fill="#89b3cd"/>
          <path id="Trazado_1270817" data-name="Trazado 1270817" d="M95.546,283.237c0,5.178-4.484,9.375-10.016,9.375s-10.015-4.2-10.015-9.375,4.484-9.375,10.015-9.375,10.016,4.2,10.016,9.375" transform="translate(25.723 93.286)" fill="#72a2ba"/>
          <path id="Trazado_1270818" data-name="Trazado 1270818" d="M93.16,282.785a8.13,8.13,0,1,1-8.112-7.595,7.867,7.867,0,0,1,8.112,7.595" transform="translate(26.207 93.738)" fill="#89b3cd"/>
          <rect id="Rectángulo_459693" data-name="Rectángulo 459693" width="14.023" height="16.703" transform="translate(403.075 357.164)" fill="#72a2ba"/>
          <path id="Trazado_1270819" data-name="Trazado 1270819" d="M300.661,283.644h3.207c0-4.286,3.774-7.772,8.412-7.772s8.411,3.486,8.411,7.772H323.9c0-6.054-5.211-10.978-11.618-10.978s-11.619,4.924-11.619,10.978" transform="translate(102.414 92.878)" fill="#89b3cd"/>
          <path id="Trazado_1270820" data-name="Trazado 1270820" d="M301.857,283.237c0,5.178,4.484,9.375,10.016,9.375s10.014-4.2,10.014-9.375-4.484-9.375-10.014-9.375-10.016,4.2-10.016,9.375" transform="translate(102.822 93.286)" fill="#72a2ba"/>
          <path id="Trazado_1270821" data-name="Trazado 1270821" d="M303.277,282.785a8.13,8.13,0,1,0,8.112-7.595,7.867,7.867,0,0,0-8.112,7.595" transform="translate(103.305 93.738)" fill="#89b3cd"/>
          <path id="Trazado_1270822" data-name="Trazado 1270822" d="M268.412,233.34H138.933c-2.921,0-5.29-1.8-5.29-4.017v-.082c0-2.217,2.369-4.017,5.29-4.017H268.412c2.921,0,5.29,1.8,5.29,4.017v.082c0,2.219-2.369,4.017-5.29,4.017" transform="translate(45.523 76.718)" fill="#89b3cd"/>
          <path id="Trazado_1270823" data-name="Trazado 1270823" d="M371.668,233.34H242.189c-2.921,0-5.29-1.8-5.29-4.017v-.082c0-2.217,2.369-4.017,5.29-4.017H371.668c2.921,0,5.29,1.8,5.29,4.017v.082c0,2.219-2.369,4.017-5.29,4.017" transform="translate(80.695 76.718)" fill="#89b3cd"/>
          <path id="Trazado_1270824" data-name="Trazado 1270824" d="M341.247,247.2h5.879a8.065,8.065,0,0,0,8.055-8.478l-2.5-48.819a5.664,5.664,0,0,0-5.656-5.373h-.113a5.663,5.663,0,0,0-5.663,5.663Z" transform="translate(116.239 62.857)" fill="#89b3cd"/>
          <path id="Trazado_1270825" data-name="Trazado 1270825" d="M338.022,241.421h12.987a4.429,4.429,0,0,0,4.428-4.429v-1.284a4.428,4.428,0,0,0-4.428-4.428H338.022a4.43,4.43,0,0,0-4.429,4.428v1.284a4.43,4.43,0,0,0,4.429,4.429" transform="translate(113.632 78.781)" fill="#b2dcf7"/>
          <path id="Trazado_1270826" data-name="Trazado 1270826" d="M293.564,239.858h12.987a4.429,4.429,0,0,0,4.428-4.429v-1.284a4.428,4.428,0,0,0-4.428-4.428H293.564a4.43,4.43,0,0,0-4.429,4.428v1.284a4.43,4.43,0,0,0,4.429,4.429" transform="translate(98.488 78.248)" fill="#b2dcf7"/>
          <path id="Trazado_1270827" data-name="Trazado 1270827" d="M143.1,241.421H130.109a4.429,4.429,0,0,1-4.428-4.429v-1.284a4.428,4.428,0,0,1,4.428-4.428H143.1a4.43,4.43,0,0,1,4.429,4.428v1.284a4.43,4.43,0,0,1-4.429,4.429" transform="translate(42.811 78.781)" fill="#b2dcf7"/>
          <path id="Trazado_1270828" data-name="Trazado 1270828" d="M247.384,241.421H234.4a4.429,4.429,0,0,1-4.428-4.429v-1.284a4.428,4.428,0,0,1,4.428-4.428h12.987a4.43,4.43,0,0,1,4.429,4.428v1.284a4.43,4.43,0,0,1-4.429,4.429" transform="translate(78.334 78.781)" fill="#b2dcf7"/>
          <path id="Trazado_1270829" data-name="Trazado 1270829" d="M334.559,248.433v.129a6.125,6.125,0,0,1-5.86,6.36H146.6a6.126,6.126,0,0,1-5.861-6.36v-.129a6.125,6.125,0,0,0-5.86-6.36h-53a6.125,6.125,0,0,0-5.86,6.36v23.89a6.125,6.125,0,0,0,5.86,6.36h312.68a6.125,6.125,0,0,0,5.86-6.36v-23.89a6.125,6.125,0,0,0-5.86-6.36h-54.14a6.125,6.125,0,0,0-5.86,6.36" transform="translate(25.894 82.457)" fill="#b2dcf7"/>
          <path id="Trazado_1270830" data-name="Trazado 1270830" d="M392.982,213.7H156.151a5.764,5.764,0,0,1-5.6-5.916v-.119a5.764,5.764,0,0,1,5.6-5.916h236.83a5.764,5.764,0,0,1,5.6,5.916v.119a5.764,5.764,0,0,1-5.6,5.916" transform="translate(51.283 68.72)" fill="#b2dcf7"/>
          <path id="Trazado_1270831" data-name="Trazado 1270831" d="M468.062,204.8q-56.085-4.808-84.557-66.963v-.74c-.055.125-.113.247-.169.37-.056-.123-.114-.245-.17-.37v.74q-28.475,62.152-84.558,66.963s7.5,131.874,84.558,132.261v0h.339v0c77.057-.387,84.557-132.261,84.557-132.261" transform="translate(101.715 46.698)" fill="#ff9ebf"/>
          <path id="Trazado_1270832" data-name="Trazado 1270832" d="M447.965,210.49q-45.477-3.9-68.564-54.3v-.6c-.046.1-.092.2-.138.3-.046-.1-.092-.2-.137-.3v.6q-23.09,50.4-68.564,54.3s6.081,106.931,68.564,107.245h.275c62.481-.314,68.564-107.245,68.564-107.245" transform="translate(105.787 53)" fill="#8d1939"/>
          <path id="Trazado_1270833" data-name="Trazado 1270833" d="M408.778,214.607H382.3V188.129h-21.95v26.479H333.87v21.95h26.479v26.479H382.3V236.558h26.479Z" transform="translate(113.726 64.082)" fill="#fff"/>
          <rect id="Rectángulo_459704" data-name="Rectángulo 459704" width="25.329" height="9.232" transform="translate(75.014 155.854)" fill="#78abce"/>
          <rect id="Rectángulo_459705" data-name="Rectángulo 459705" width="25.329" height="9.232" transform="translate(146.012 155.854)" fill="#78abce"/>
          <rect id="Rectángulo_459706" data-name="Rectángulo 459706" width="8.25" height="25.705" transform="translate(78.66 124.506)" fill="#78abce"/>
          <rect id="Rectángulo_459707" data-name="Rectángulo 459707" width="8.25" height="3.27" transform="translate(78.66 124.506)" fill="#629abf"/>
          <rect id="Rectángulo_459708" data-name="Rectángulo 459708" width="8.25" height="2.499" transform="translate(78.66 147.712)" fill="#629abf"/>
          <rect id="Rectángulo_459709" data-name="Rectángulo 459709" width="9.211" height="33.206" transform="translate(86.909 117.005)" fill="#629abf"/>
          <rect id="Rectángulo_459710" data-name="Rectángulo 459710" width="4.222" height="23.367" transform="translate(89.405 120.658)" fill="#8bb8dc"/>
          <rect id="Rectángulo_459711" data-name="Rectángulo 459711" width="7.037" height="28.078" transform="translate(96.122 122.133)" fill="#78abce"/>
          <rect id="Rectángulo_459712" data-name="Rectángulo 459712" width="12.664" height="43.592" transform="translate(124.912 106.619)" fill="#8bb8dc"/>
          <path id="Trazado_1270834" data-name="Trazado 1270834" d="M94.509,83.259v20.9h9.083v-20.9L99.05,86.081Z" transform="translate(32.193 28.361)" fill="#fff"/>
          <path id="Trazado_1270835" data-name="Trazado 1270835" d="M102.106,104.342a3.358,3.358,0,1,1-3.357-3.364,3.36,3.36,0,0,1,3.357,3.364" transform="translate(32.493 34.396)" fill="#c3dfed"/>
          <path id="Trazado_1270836" data-name="Trazado 1270836" d="M101.293,104.177a2.709,2.709,0,1,1-2.709-2.716,2.714,2.714,0,0,1,2.709,2.716" transform="translate(32.658 34.561)" fill="#629abf"/>
          <rect id="Rectángulo_459713" data-name="Rectángulo 459713" width="12.664" height="43.592" transform="translate(137.575 106.619)" fill="#78abce"/>
          <path id="Trazado_1270837" data-name="Trazado 1270837" d="M103.956,83.259v20.9h9.083v-20.9L108.5,86.081Z" transform="translate(35.41 28.361)" fill="#fff"/>
          <path id="Trazado_1270838" data-name="Trazado 1270838" d="M111.553,104.342a3.358,3.358,0,1,1-3.357-3.364,3.36,3.36,0,0,1,3.357,3.364" transform="translate(35.711 34.396)" fill="#c3dfed"/>
          <path id="Trazado_1270839" data-name="Trazado 1270839" d="M110.74,104.177a2.709,2.709,0,1,1-2.709-2.716,2.714,2.714,0,0,1,2.709,2.716" transform="translate(35.876 34.561)" fill="#629abf"/>
          <rect id="Rectángulo_459714" data-name="Rectángulo 459714" width="12.665" height="43.592" transform="translate(150.239 106.619)" fill="#8bb8dc"/>
          <path id="Trazado_1270840" data-name="Trazado 1270840" d="M113.4,83.259v20.9h9.083v-20.9l-4.542,2.822Z" transform="translate(38.628 28.361)" fill="#fff"/>
          <path id="Trazado_1270841" data-name="Trazado 1270841" d="M121,104.342a3.358,3.358,0,1,1-3.357-3.364A3.36,3.36,0,0,1,121,104.342" transform="translate(38.929 34.396)" fill="#c3dfed"/>
          <path id="Trazado_1270842" data-name="Trazado 1270842" d="M120.186,104.177a2.709,2.709,0,1,1-2.709-2.716,2.714,2.714,0,0,1,2.709,2.716" transform="translate(39.094 34.561)" fill="#629abf"/>
          <rect id="Rectángulo_459715" data-name="Rectángulo 459715" width="12.664" height="43.592" transform="translate(162.905 106.619)" fill="#78abce"/>
          <path id="Trazado_1270843" data-name="Trazado 1270843" d="M122.849,83.259v20.9h9.083v-20.9l-4.541,2.822Z" transform="translate(41.846 28.361)" fill="#fff"/>
          <path id="Trazado_1270844" data-name="Trazado 1270844" d="M130.448,104.342a3.358,3.358,0,1,1-3.357-3.364,3.361,3.361,0,0,1,3.357,3.364" transform="translate(42.146 34.396)" fill="#c3dfed"/>
          <path id="Trazado_1270845" data-name="Trazado 1270845" d="M129.633,104.177a2.709,2.709,0,1,1-2.708-2.716,2.713,2.713,0,0,1,2.708,2.716" transform="translate(42.312 34.561)" fill="#629abf"/>
          <rect id="Rectángulo_459716" data-name="Rectángulo 459716" width="4.569" height="25.7" transform="translate(103.129 125.461) rotate(-15.664)" fill="#629abf"/>
          <rect id="Rectángulo_459717" data-name="Rectángulo 459717" width="122.165" height="5.641" transform="translate(62.991 150.212)" fill="#fff"/>
          <path id="Trazado_1270846" data-name="Trazado 1270846" d="M248.627,74.364c.5-7.155.965-14.335-4.179-21.364a19.794,19.794,0,0,0-16.94-8.2c-18.767.536-17.958,17.243-34.41,27.067-7.029,4.184-14.839,4.431-20.934,9.411-11.02,8.965-14.448,30.094-3.661,47.706,26.413,43.15,68.2,6.18,72.812-3.764,3.425-7.391,6.99-46.245,7.312-50.851" transform="translate(55.163 15.256)" fill="#142d4d" fill-rule="evenodd"/>
          <path id="Trazado_1270847" data-name="Trazado 1270847" d="M230.6,280.6c.027,3.692.859,11.677.859,11.677h47.4c2.062-5.151-7.214-7.9-7.214-7.9l-7.2-2.925a9.111,9.111,0,0,1-7.229,4.643c-6.253.609-19.815-5.55-26.624-5.5" transform="translate(78.55 95.582)" fill="#72a2ba"/>
          <path id="Trazado_1270848" data-name="Trazado 1270848" d="M217.406,218.644l17.691,83.3v.174c6.808-.055,20.371,6.1,26.622,5.494a9.1,9.1,0,0,0,7.229-4.643l-13.928-5.661-6.7-79.867Z" transform="translate(74.055 74.067)" fill="#f4b3b3"/>
          <path id="Trazado_1270849" data-name="Trazado 1270849" d="M211.636,218.036v91.245H187.247a39.914,39.914,0,0,1,2.232-11.894l-5.5-78.32Z" transform="translate(62.67 74.27)" fill="#f4b3b3"/>
          <path id="Trazado_1270850" data-name="Trazado 1270850" d="M185.9,288.641c0,4.535,4.263,5.527,13.559,5.527s13.063-.992,13.063-5.527-3.767-8.213-13.063-8.213-13.559,3.677-13.559,8.213" transform="translate(63.325 95.522)" fill="#72a2ba"/>
          <path id="Trazado_1270851" data-name="Trazado 1270851" d="M194.475,130.068c-2.326,11.1-10.63,41.18-14.047,68.89a252.846,252.846,0,0,0-.58,56.9c17.061,5.042,87.192,2.6,95.807-3.047.4-.019-6.975-83.208-23.3-121.571-18.566-.346-37.11-.477-55.824-.779-.7-.1-1.381-.239-2.051-.4" transform="translate(60.818 44.305)" fill="#fd5b68"/>
          <path id="Trazado_1270852" data-name="Trazado 1270852" d="M249.845,85.31c-4.935-3.337-17.753-5.958-20.032-6.385-2.323-.436-18.627-.775-21.339,0-5.081,1.451-11.323,3.193-17.274,5.515-.732.284-1.307,20.9-.146,59.225a22.408,22.408,0,0,1-.614,3.982c.669.158,1.351.295,2.051.4,18.714.3,37.257.433,55.824.778-.776-1.823-1.573-3.546-2.389-5.155,0,0,4.413-58.02,3.919-58.355" transform="translate(64.853 26.726)" fill="#277fff"/>
          <path id="Trazado_1270853" data-name="Trazado 1270853" d="M222.557,85.78a14.76,14.76,0,0,1-.288,2.919c-.946,4.676-4.11,8.111-7.87,8.111h-.256c-4.506,0-8.158-4.938-8.158-11.029v-17.7l15.342-2.61Z" transform="translate(70.165 22.302)" fill="#f4b3b3"/>
          <path id="Trazado_1270854" data-name="Trazado 1270854" d="M191.928,151.875V87.99l5.3-5.968,10.347-6.679s10.187,7.146,12.713,8.784l1.87,3.094a12.053,12.053,0,0,0,1.168-1.653,17.752,17.752,0,0,1,3-3.722c1.268-1.2,2.8-2.689,3.546-3.55l18.076,7.23v66.349Z" transform="translate(65.376 25.664)" fill="#277fff"/>
          <path id="Trazado_1270855" data-name="Trazado 1270855" d="M218.954,149.376a.231.231,0,0,0,.206-.332c-3.8-7.687-3.724-23.8-3.656-39.382.042-9.531.08-18.533-.739-25.428a.23.23,0,1,0-.457.055c.815,6.867.776,15.854.735,25.37-.068,15.636-.139,31.805,3.7,39.589a.23.23,0,0,0,.206.129" transform="translate(72.999 28.623)" fill="#063e8e"/>
          <path id="Trazado_1270856" data-name="Trazado 1270856" d="M219.436,87.3s-.818-3.275-2.695-4.777-11.033-7.328-11.289-7.392-5.525,3.382-5.525,3.382L207.1,88.7s7.359-5.172,9.08-4.732c1.646.43,3.252,3.33,3.252,3.33" transform="translate(68.101 25.59)" fill="#063e8e"/>
          <path id="Trazado_1270857" data-name="Trazado 1270857" d="M214.479,86.528a11.2,11.2,0,0,1,1.6-3.5c1.185-1.461,5.871-5.683,6.271-5.655a12.857,12.857,0,0,1,4.313,3.85c.707,1.441.306,8.262.306,8.262s-6.706-6.381-9.323-5.655c-1.739.487-3.172,2.693-3.172,2.693" transform="translate(73.058 26.357)" fill="#063e8e"/>
          <path id="Trazado_1270858" data-name="Trazado 1270858" d="M204.989,218.436c0-17.069.609-53.845,7-65.391,7.375-13.308,7.836-53.307,6.636-60.909s-9.165-15.089-9.165-15.089-12.9,5.47-15.817,8.319c-.109.107-.2.209-.282.3-3.205,3.929,2.172,44.091-3.432,66.072-.005.02-.05.2-.141.555-11.979,47.126-14.172,53.007-10.867,58.272,1.984,3.16,7.482,8.536,26.065,7.867" transform="translate(60.473 26.245)" fill="#fff"/>
          <path id="Trazado_1270859" data-name="Trazado 1270859" d="M186.677,150.183c17.322-6.822,10.907-42,3.854-66.931a3.729,3.729,0,0,0-.282.307c-3.207,3.927,2.172,44.091-3.432,66.07-.047.185-.1.369-.141.554" transform="translate(63.588 28.358)" fill="#fff"/>
          <path id="Trazado_1270860" data-name="Trazado 1270860" d="M212.4,119.994s1.85-21.128.06-27.931S205.5,76.616,204.1,76.312c-2.311-.495-7.481,3.51-7.481,3.51a51.017,51.017,0,0,1,5.421,18.235c.113.991,8.323,4.023,8.323,4.023s-6.411,4.691-6.324,5.152c.1.477,8.366,12.761,8.366,12.761" transform="translate(66.974 25.98)" fill="#97d0f0"/>
          <path id="Trazado_1270861" data-name="Trazado 1270861" d="M258.388,213.021,225.042,218.2c-3.291-37.369-3.156-61.5-2.3-77.041a362.5,362.5,0,0,0-.335-49.44c-.452-6.027-.976-10.981-1.355-14.274,16.785,2.6,21.964,8.056,23.682,12.4,3.091,7.816-4.12,14.3-5.558,30.09-.764,8.38,1.32,14.254,2.827,24.385,4.1,27.545,11.465,53.179,16.385,68.7" transform="translate(75.297 26.379)" fill="#fff"/>
          <path id="Trazado_1270862" data-name="Trazado 1270862" d="M223.887,120.025a240.979,240.979,0,0,1-1.815-24.256,94.418,94.418,0,0,0-1.622-18.163.645.645,0,0,0-.1-.16v-.273s6.208,1.8,6.9,2.829,3.971,6.906,5.648,18.052c.278,1.842-7.194,3.362-7.194,3.362s5.759,4.475,5.759,5.6c-.008,2.172-7.584,13.013-7.584,13.013" transform="translate(75.059 26.287)" fill="#97d0f0"/>
          <path id="Trazado_1270863" data-name="Trazado 1270863" d="M223.214,79.9c1.178,2.463,2.515,6.86,2.189,13.834a.658.658,0,0,0,.626.686h.031a.657.657,0,0,0,.656-.625c.438-9.392-1.979-14.464-3.716-16.856-.643-.035-1.231-.055-1.744-.062a12.761,12.761,0,0,1,1.959,3.022" transform="translate(75.366 26.188)" fill="#72a2ba"/>
          <path id="Trazado_1270864" data-name="Trazado 1270864" d="M199.365,98.648a3.894,3.894,0,1,0,3.895-3.895,3.9,3.9,0,0,0-3.895,3.895" transform="translate(67.91 32.276)" fill="#5d74b2"/>
          <path id="Trazado_1270865" data-name="Trazado 1270865" d="M201.93,105.432a.657.657,0,0,0,.653.587.632.632,0,0,0,.071,0,.657.657,0,0,0,.582-.724,75.827,75.827,0,0,1,.926-23.184,51.015,51.015,0,0,1,1.928-7.016,13.58,13.58,0,0,0-1.381-.047h0a53.585,53.585,0,0,0-1.823,6.746,77.194,77.194,0,0,0-.955,23.641" transform="translate(68.619 25.562)" fill="#72a2ba"/>
          <path id="Trazado_1270866" data-name="Trazado 1270866" d="M188.829,127.143c-3.049-3.919-6.03-7.916-6.125-7.949-.056-.017-14.856,5.838-14.856,5.838,1.6,13.354,30.609,31.977,30.609,31.977s2.531-3.553,5.725-8.489c0,0-6.353-9.474-15.353-21.378" transform="translate(57.174 40.601)" fill="#f4b3b3"/>
          <path id="Trazado_1270867" data-name="Trazado 1270867" d="M198.409,119.268l7.975-40.348a60.784,60.784,0,0,0-37.654,66.694,163.828,163.828,0,0,0,16.385-6.514,72.892,72.892,0,0,0,7.3-9.08,99.718,99.718,0,0,0,5.99-10.752" transform="translate(57.209 26.883)" fill="#fff"/>
          <path id="Trazado_1270868" data-name="Trazado 1270868" d="M212.473,156.034l-4.541-1.382a27.777,27.777,0,0,1-3.356-7.5c4.643.342,9.343-1.207,8.915-2.735-.169-.607-7.485-1.009-11.284-2.793-3.533-1.658-5.5-.861-5.922-.593-3.356,3.554-4.263,5.927-5.837,8.482.062.058,12.728,8.458,12.728,8.458s3.116.449,6.137.629c2.03.121,6.91.4,6.91.4s.156-2.327-3.751-2.961" transform="translate(64.873 47.893)" fill="#f4b3b3"/>
          <path id="Trazado_1270869" data-name="Trazado 1270869" d="M214.542,50.383a13.991,13.991,0,0,0-7.623,5.783c-2.924,4.582-5.047,18.066,4.387,24.224s16.913-2.814,17.125-11.485-1.452-20.2-13.889-18.522" transform="translate(69.638 17.106)" fill="#f4b3b3" fill-rule="evenodd"/>
          <path id="Trazado_1270870" data-name="Trazado 1270870" d="M224.853,63.322c-.82,2.086-2.452,3.424-3.616,2.932-1.173-.463-1.437-2.558-.614-4.644.838-2.107,2.459-3.42,3.633-2.953s1.437,2.558.6,4.665" transform="translate(74.988 19.948)" fill="#f4b3b3" fill-rule="evenodd"/>
          <path id="Trazado_1270871" data-name="Trazado 1270871" d="M216.922,50.124s-6.112,13.955-11.358,15.259-5.239,8.26-5.239,8.26.287-16.1,5.232-19.864c4.935-3.742,11.365-3.655,11.365-3.655" transform="translate(68.237 17.074)" fill="#142d4d" fill-rule="evenodd"/>
          <path id="Trazado_1270872" data-name="Trazado 1270872" d="M207.187,64.446c.66,2.242.011,4.467-1.465,4.984-1.465.487-3.2-.932-3.861-3.172s-.011-4.468,1.455-4.955,3.205.9,3.872,3.142" transform="translate(68.671 20.849)" fill="#f4b3b3" fill-rule="evenodd"/>
          <path id="Trazado_1270873" data-name="Trazado 1270873" d="M215.08,67.462a.358.358,0,0,0,.054,0c.493-.062,2.96-.434,3.124-1.76.142-1.16-1.7-4.7-2.074-5.4a.38.38,0,1,0-.67.358c.815,1.532,2.077,4.231,1.99,4.946-.068.548-1.51.98-2.463,1.1a.38.38,0,0,0,.04.757" transform="translate(73.135 20.473)" fill="#ec724c"/>
          <path id="Trazado_1270874" data-name="Trazado 1270874" d="M220.067,61.013a1.073,1.073,0,1,1-1.137-1.11,1.126,1.126,0,0,1,1.137,1.11" transform="translate(74.235 20.404)"/>
          <path id="Trazado_1270875" data-name="Trazado 1270875" d="M209.724,58.748a.378.378,0,0,0,.255-.092,3.529,3.529,0,0,1,3.786-.332.38.38,0,1,0,.362-.669,4.246,4.246,0,0,0-4.645.428.38.38,0,0,0,.243.666" transform="translate(71.311 19.464)"/>
          <path id="Trazado_1270876" data-name="Trazado 1270876" d="M217.556,58.093a.381.381,0,0,0,.235-.076,2.288,2.288,0,0,1,2.652-.076.38.38,0,0,0,.449-.614,3.031,3.031,0,0,0-3.561.084.38.38,0,0,0,.225.682" transform="translate(73.979 19.341)"/>
          <path id="Trazado_1270877" data-name="Trazado 1270877" d="M212.163,67.215c5.234,1.064,7.487.072,7.487.072s.253,3.262-2.789,3.613a4.019,4.019,0,0,1-4.7-3.685" transform="translate(72.269 22.895)"/>
          <path id="Trazado_1270878" data-name="Trazado 1270878" d="M219.469,67.353s-.121.607-.17.729-.55.484-2.679.656a13.066,13.066,0,0,1-4.215-.485,4.59,4.59,0,0,1-.241-1.036c.306.064.6.117.889.165,3.8.65,5.825.161,6.414-.028Z" transform="translate(72.269 22.896)" fill="#fff"/>
          <path id="Trazado_1270879" data-name="Trazado 1270879" d="M213.437,61.681a1.105,1.105,0,1,1-1.172-1.144,1.16,1.16,0,0,1,1.172,1.144" transform="translate(71.954 20.62)"/>
          <path id="Trazado_1270880" data-name="Trazado 1270880" d="M250.265,120.045c4.829-1.156,9.655-2.413,9.749-2.377.055.02,7.95,13.841,7.95,13.841-9.591,9.429-43.879,5.837-43.879,5.837s.244-4.356.835-10.2c0,0,10.881-3.427,25.345-7.1" transform="translate(76.33 40.081)" fill="#f4b3b3"/>
          <path id="Trazado_1270881" data-name="Trazado 1270881" d="M236.028,118.679q-3.588-19.691-7.176-39.384A58.15,58.15,0,0,1,257.6,101.86c12.491,19.1,8.941,39.022,8.107,43.164a164.244,164.244,0,0,1-16.384-6.514,72.89,72.89,0,0,1-7.3-9.08,99.716,99.716,0,0,1-5.99-10.752" transform="translate(77.954 27.01)" fill="#fff"/>
          <path id="Trazado_1270882" data-name="Trazado 1270882" d="M253.313,82.9l-13.022,54.027-39.66-.594L211.555,82.9Z" transform="translate(68.341 28.237)" fill="#5d74b2"/>
          <path id="Trazado_1270883" data-name="Trazado 1270883" d="M214.788,128.932l4.408,1.759a27.8,27.8,0,0,0,7.308-3.76c-3.838-2.634-6.54-6.78-5.251-7.706.511-.369,6.474,3.891,10.555,4.872,3.794.912,4.834,2.766,4.992,3.238.4,4.871-.375,7.292-.743,10.269-.083.007-15.221-1.349-15.221-1.349s-2.713-1.6-5.186-3.345c-1.66-1.174-5.64-4.01-5.64-4.01s1.331-1.914,4.778.032" transform="translate(71.536 40.604)" fill="#f4b3b3"/>
          <path id="Trazado_1270884" data-name="Trazado 1270884" d="M45.7,296.344c-36.35-12.98-40.142-42.726-40.142-42.726,26.33,4.686,47.092,20.927,47.092,20.927s9.272,4.9,17.923,10.571Z" transform="translate(1.892 86.39)" fill="#2cbf7b"/>
          <path id="Trazado_1270885" data-name="Trazado 1270885" d="M5.554,253.618q1.538,1.5,3.15,2.932c1.064.963,2.161,1.889,3.247,2.827,1.109.912,2.212,1.83,3.335,2.723l1.693,1.333c.564.444,1.126.89,1.7,1.318,1.15.859,2.286,1.739,3.455,2.573l3.511,2.5,3.578,2.4.9.6.91.575,1.822,1.15,1.825,1.145c.611.377,1.236.732,1.854,1.1,1.24.724,2.471,1.464,3.719,2.174l3.789,2.052.946.513c.315.173.631.343.955.5l1.933.952,1.932.952.965.476c.322.162.645.316.975.46l3.931,1.759c.66.284,1.308.59,1.976.855l2,.787q2,.792,4.01,1.563-1.969-.871-3.943-1.723l-1.972-.855c-.656-.286-1.294-.615-1.943-.92l-3.884-1.841c-.324-.149-.645-.31-.961-.479l-.953-.495-1.906-.989c-2.561-1.286-5.037-2.728-7.545-4.106l-3.7-2.185c-.614-.367-1.235-.723-1.843-1.1L33.2,273.989l-1.819-1.139-.91-.571-.894-.594L26,269.309l-3.529-2.451c-.593-.4-1.161-.838-1.744-1.253l-1.743-1.256c-.585-.414-1.154-.849-1.725-1.279l-1.716-1.294c-1.141-.866-2.259-1.763-3.388-2.645-2.244-1.783-4.451-3.612-6.6-5.513" transform="translate(1.892 86.39)" fill="#033a3f"/>
          <path id="Trazado_1270886" data-name="Trazado 1270886" d="M25.718,262.533a25.634,25.634,0,0,0,.3,2.574c.133.851.3,1.695.481,2.536s.386,1.676.621,2.5.485,1.654.8,2.465a25.632,25.632,0,0,0-.3-2.574c-.133-.851-.3-1.695-.481-2.536s-.389-1.676-.623-2.5a25.638,25.638,0,0,0-.8-2.465" transform="translate(8.76 89.427)" fill="#033a3f"/>
          <path id="Trazado_1270887" data-name="Trazado 1270887" d="M39.425,274.451c-1.377.139-2.742.342-4.1.567s-2.715.48-4.066.745-2.7.564-4.037.888-2.677.662-4,1.067c1.377-.138,2.742-.341,4.1-.566s2.713-.48,4.066-.747,2.7-.564,4.037-.887,2.677-.662,4-1.067" transform="translate(7.91 93.486)" fill="#033a3f"/>
          <path id="Trazado_1270888" data-name="Trazado 1270888" d="M22.38,265.389a20.392,20.392,0,0,0-2.3.165c-.757.093-1.512.205-2.262.345s-1.495.3-2.235.487a20.071,20.071,0,0,0-2.2.668,20.039,20.039,0,0,0,2.3-.165q1.136-.137,2.262-.344t2.235-.488a20.367,20.367,0,0,0,2.2-.666" transform="translate(4.56 90.399)" fill="#033a3f"/>
          <path id="Trazado_1270889" data-name="Trazado 1270889" d="M52.536,328.043c-.35-1.855-.634-3.817-.827-5.9-2.229-24.26-.566-27.766-18.237-43.03s-16.184-27.447-11.3-43.171-16.467-41.329-4.533-51.988,10.8,18.876,26.6,27.235,22.842,13.422,28.366,28.933-6.482,22.7,7.613,32.831,24.783,14.9,33.43,27.9c2.752,4.137,10.326,21.441,6.491,25.815Z" transform="translate(4.757 61.879)" fill="#027369"/>
          <path id="Trazado_1270890" data-name="Trazado 1270890" d="M46.753,297.381c-.205-4.076-.387-8.146-.7-12.217-.149-2.036-.343-4.073-.639-6.105a37.6,37.6,0,0,0-1.339-6.033,24.588,24.588,0,0,0-2.648-5.612,35.549,35.549,0,0,0-3.8-4.862,82.112,82.112,0,0,0-9.11-8.2l1.1,1.059,1.114,1.047c.727.715,1.468,1.412,2.183,2.138s1.445,1.43,2.133,2.177c.343.374.708.728,1.042,1.11l1.011,1.134a38.416,38.416,0,0,1,3.606,4.845,24.3,24.3,0,0,1,2.516,5.442,38.18,38.18,0,0,1,1.354,5.883c.341,1.995.552,4.018.783,6.039l.648,6.08c.241,2.026.457,4.054.744,6.074" transform="translate(9.713 86.64)" fill="#033a3f"/>
          <path id="Trazado_1270891" data-name="Trazado 1270891" d="M18.685,184.89a340.434,340.434,0,0,0,16.372,38.85c3.07,6.328,6.344,12.555,9.72,18.725s6.92,12.248,10.567,18.262,7.5,11.9,11.43,17.734l2.975,4.357,3.041,4.31c2,2.89,4.139,5.687,6.218,8.521l3.208,4.187,1.606,2.093c.535.7,1.093,1.377,1.638,2.066l3.287,4.124c.543.692,1.114,1.361,1.672,2.039l1.685,2.028c4.491,5.409,9.166,10.663,13.928,15.83l-3.451-3.983c-1.153-1.326-2.319-2.638-3.435-4L95.765,316l-.846-1.009-.826-1.027-1.649-2.053c-4.451-5.435-8.693-11.036-12.882-16.669l-3.082-4.27-1.544-2.133-1.512-2.156L70.4,282.365,67.452,278c-3.9-5.836-7.711-11.737-11.343-17.746-3.663-5.989-7.23-12.039-10.619-18.188-3.405-6.14-6.655-12.366-9.817-18.635s-6.153-12.626-9-19.045-5.574-12.9-7.983-19.5" transform="translate(6.365 62.979)" fill="#033a3f"/>
          <path id="Trazado_1270892" data-name="Trazado 1270892" d="M41.093,209.517c-.547,1.654-1.005,3.326-1.436,5.006-.223.837-.414,1.681-.619,2.523l-.571,2.534-.524,2.545c-.158.851-.332,1.7-.475,2.555-.3,1.707-.57,3.42-.751,5.152.547-1.653,1.007-3.326,1.436-5,.224-.838.414-1.682.621-2.523l.57-2.535.523-2.544c.158-.851.332-1.7.473-2.555.3-1.707.571-3.42.753-5.152" transform="translate(12.507 71.368)" fill="#033a3f"/>
          <path id="Trazado_1270893" data-name="Trazado 1270893" d="M58.356,248.349c-2.751-.648-5.517-1.208-8.288-1.737-1.384-.273-2.772-.515-4.16-.771l-4.168-.721-4.176-.673c-1.394-.208-2.787-.432-4.185-.623-2.793-.4-5.59-.768-8.4-1.047,2.751.649,5.515,1.209,8.288,1.739,1.382.273,2.772.513,4.159.77l4.169.72,4.176.673c1.394.208,2.787.432,4.185.622,2.793.4,5.589.768,8.4,1.05" transform="translate(8.508 82.697)" fill="#033a3f"/>
          <path id="Trazado_1270894" data-name="Trazado 1270894" d="M80.566,278.864c-2.751-.648-5.517-1.208-8.288-1.737-1.384-.274-2.772-.515-4.16-.771l-4.168-.721-4.176-.673c-1.4-.208-2.787-.432-4.185-.623-2.793-.4-5.59-.768-8.4-1.047,2.751.649,5.515,1.209,8.286,1.739,1.384.273,2.774.513,4.16.769l4.169.72,4.176.673c1.394.208,2.787.432,4.185.622,2.793.4,5.589.768,8.4,1.05" transform="translate(16.073 93.091)" fill="#033a3f"/>
          <path id="Trazado_1270895" data-name="Trazado 1270895" d="M64.382,253.8c-.4,1.169-.719,2.353-1,3.543s-.538,2.386-.755,3.589-.408,2.409-.563,3.624-.279,2.433-.312,3.669c.4-1.169.719-2.354,1-3.543s.538-2.386.755-3.589.406-2.41.562-3.624.279-2.433.315-3.669" transform="translate(21.034 86.451)" fill="#033a3f"/>
        </g>
      </g>
      <path id="Trazado_1271533" data-name="Trazado 1271533" transform="translate(9674 -9377)" fill="#fff"/>
      <g id="Grupo_1209489" data-name="Grupo 1209489" transform="translate(9544 -9390.6)">
        <g id="Grupo_1209488" data-name="Grupo 1209488" clip-path="url(#clip-path-3)">
          <path id="Trazado_1270896" data-name="Trazado 1270896" d="M1.466,300.416C41.262,129.512,204.435,1.5,399.68,1.5,595.267,1.5,758.671,129.962,798.1,301.316" transform="translate(0.215 0.104)" fill="none" stroke="#fff" stroke-miterlimit="10" stroke-width="3"/>
        </g>
      </g>
      <path id="Trazado_1271534" data-name="Trazado 1271534" d="M0,0H184V45H0Z" transform="translate(9474 -9121)" fill="#8d1939"/>
      <path id="Trazado_1271535" data-name="Trazado 1271535" d="M69.425,7.931H65.839L64.1,18H61.663L63.406,7.931H59.862l.357-2.017h9.563Zm5.163,3.337a4.833,4.833,0,0,0-.789-.083,2.269,2.269,0,0,0-1.984.938L70.778,18H68.437L70,9.019l2.2-.008-.216,1.1a2.47,2.47,0,0,1,2.092-1.27,3.415,3.415,0,0,1,.813.116ZM77.011,18H74.654l1.561-8.981h2.357ZM76.489,6.736a1.169,1.169,0,0,1,.365-.921A1.405,1.405,0,0,1,78.7,5.773a1.164,1.164,0,0,1,.407.88,1.2,1.2,0,0,1-.344.9,1.291,1.291,0,0,1-.942.4,1.313,1.313,0,0,1-.917-.315A1.159,1.159,0,0,1,76.489,6.736ZM84.192,18a2.423,2.423,0,0,1-.091-.813,3.042,3.042,0,0,1-2.291.979,2.756,2.756,0,0,1-1.955-.768,2.323,2.323,0,0,1-.726-1.855,2.685,2.685,0,0,1,1.233-2.254,5.6,5.6,0,0,1,3.15-.784l1.1.017.116-.54a1.874,1.874,0,0,0,.025-.523.9.9,0,0,0-.295-.61,1.015,1.015,0,0,0-.668-.228,1.43,1.43,0,0,0-.93.27,1.308,1.308,0,0,0-.49.826l-2.349.008A2.611,2.611,0,0,1,81.2,9.637a4.581,4.581,0,0,1,2.777-.784,3.312,3.312,0,0,1,2.391.909,2.659,2.659,0,0,1,.722,2.254l-.689,4.3-.042.531a2.563,2.563,0,0,0,.141,1L86.491,18Zm-1.8-1.652a2.144,2.144,0,0,0,1.768-.88l.291-1.552-.813-.008a2.273,2.273,0,0,0-1.868.789,1.373,1.373,0,0,0-.257.672.8.8,0,0,0,.187.71A.946.946,0,0,0,82.39,16.348ZM88.367,13.5a6.214,6.214,0,0,1,1.357-3.383,3.444,3.444,0,0,1,2.793-1.274,2.518,2.518,0,0,1,2.142,1.038l.307-.872,2.15.008-1.469,8.674a4.232,4.232,0,0,1-1.527,2.839,4.751,4.751,0,0,1-3.187,1.013,4.429,4.429,0,0,1-1.776-.4,3.8,3.8,0,0,1-1.395-1.058l1.162-1.428a2.5,2.5,0,0,0,1.959,1.021,2.3,2.3,0,0,0,1.561-.477,2.554,2.554,0,0,0,.88-1.44l.133-.54a2.921,2.921,0,0,1-2.2.946,2.58,2.58,0,0,1-2.083-.975,4.194,4.194,0,0,1-.847-2.494A8.383,8.383,0,0,1,88.367,13.5Zm2.3.985a2.147,2.147,0,0,0,.328,1.251,1.147,1.147,0,0,0,.95.495,2.1,2.1,0,0,0,1.693-.815l.7-3.807a1.377,1.377,0,0,0-1.32-.815,1.836,1.836,0,0,0-1.519.723,3.783,3.783,0,0,0-.78,1.987A8.728,8.728,0,0,0,90.666,14.486Zm11.015,3.68a3.907,3.907,0,0,1-2.088-.577,3.5,3.5,0,0,1-1.357-1.561,4.349,4.349,0,0,1-.349-2.187l.025-.332a5.806,5.806,0,0,1,.764-2.407,4.613,4.613,0,0,1,1.644-1.689,4.066,4.066,0,0,1,2.225-.56,3.107,3.107,0,0,1,2.627,1.276,4.374,4.374,0,0,1,.677,3.147l-.133,1.023h-5.5a1.927,1.927,0,0,0,.423,1.395,1.616,1.616,0,0,0,1.245.54,2.872,2.872,0,0,0,2.241-1l1.071,1.328a3.331,3.331,0,0,1-1.461,1.191A4.777,4.777,0,0,1,101.681,18.166Zm.747-7.379a1.663,1.663,0,0,0-1.15.407,3.573,3.573,0,0,0-.9,1.469H103.6l.05-.216a2.2,2.2,0,0,0,.008-.631,1.2,1.2,0,0,0-.407-.751A1.275,1.275,0,0,0,102.428,10.787ZM114.066,18h-2.092V5.914h2.092Z" transform="translate(9465.203 -9110)" fill="#fff"/>
      <path id="Trazado_1271536" data-name="Trazado 1271536" d="M0,0H184V45H0Z" transform="translate(10240 -9120.128)" fill="#8d1939"/>
      <path id="Trazado_1271537" data-name="Trazado 1271537" d="M62.554,7.931H58.968L57.225,18H54.792L56.536,7.931H52.991l.357-2.017h9.563Zm5.163,3.337a4.833,4.833,0,0,0-.789-.083,2.269,2.269,0,0,0-1.984.938L63.907,18H61.566l1.561-8.981,2.2-.008-.216,1.1A2.47,2.47,0,0,1,67.2,8.836a3.415,3.415,0,0,1,.813.116ZM70.141,18H67.783l1.561-8.981H71.7ZM69.618,6.736a1.169,1.169,0,0,1,.365-.921,1.405,1.405,0,0,1,1.843-.042,1.164,1.164,0,0,1,.407.88,1.2,1.2,0,0,1-.344.9,1.291,1.291,0,0,1-.942.4,1.313,1.313,0,0,1-.917-.315A1.159,1.159,0,0,1,69.618,6.736ZM77.321,18a2.423,2.423,0,0,1-.091-.813,3.042,3.042,0,0,1-2.291.979,2.756,2.756,0,0,1-1.955-.768,2.323,2.323,0,0,1-.726-1.855,2.685,2.685,0,0,1,1.233-2.254,5.6,5.6,0,0,1,3.15-.784l1.1.017.116-.54a1.874,1.874,0,0,0,.025-.523.9.9,0,0,0-.295-.61,1.015,1.015,0,0,0-.668-.228,1.43,1.43,0,0,0-.93.27,1.308,1.308,0,0,0-.49.826l-2.349.008a2.611,2.611,0,0,1,1.183-2.088A4.581,4.581,0,0,1,77.1,8.853a3.312,3.312,0,0,1,2.391.909,2.659,2.659,0,0,1,.722,2.254l-.689,4.3-.042.531a2.563,2.563,0,0,0,.141,1L79.62,18Zm-1.8-1.652a2.144,2.144,0,0,0,1.768-.88l.291-1.552-.813-.008A2.273,2.273,0,0,0,74.9,14.7a1.373,1.373,0,0,0-.257.672.8.8,0,0,0,.187.71A.946.946,0,0,0,75.52,16.348ZM81.5,13.5a6.214,6.214,0,0,1,1.357-3.383,3.444,3.444,0,0,1,2.793-1.274,2.518,2.518,0,0,1,2.142,1.038L88.1,9.01l2.15.008-1.469,8.674a4.232,4.232,0,0,1-1.527,2.839,4.751,4.751,0,0,1-3.187,1.013,4.429,4.429,0,0,1-1.776-.4,3.8,3.8,0,0,1-1.395-1.058l1.162-1.428a2.5,2.5,0,0,0,1.959,1.021,2.3,2.3,0,0,0,1.561-.477,2.554,2.554,0,0,0,.88-1.44l.133-.54a2.921,2.921,0,0,1-2.2.946,2.58,2.58,0,0,1-2.083-.975,4.194,4.194,0,0,1-.847-2.494A8.383,8.383,0,0,1,81.5,13.5Zm2.3.985a2.147,2.147,0,0,0,.328,1.251,1.147,1.147,0,0,0,.95.495,2.1,2.1,0,0,0,1.693-.815l.7-3.807a1.377,1.377,0,0,0-1.32-.815,1.836,1.836,0,0,0-1.519.723,3.783,3.783,0,0,0-.78,1.987A8.728,8.728,0,0,0,83.8,14.486Zm11.015,3.68a3.907,3.907,0,0,1-2.088-.577,3.5,3.5,0,0,1-1.357-1.561,4.349,4.349,0,0,1-.349-2.187l.025-.332a5.806,5.806,0,0,1,.764-2.407,4.613,4.613,0,0,1,1.644-1.689,4.066,4.066,0,0,1,2.225-.56A3.107,3.107,0,0,1,98.3,10.129a4.374,4.374,0,0,1,.677,3.147L98.845,14.3h-5.5a1.927,1.927,0,0,0,.423,1.395,1.616,1.616,0,0,0,1.245.54,2.872,2.872,0,0,0,2.241-1l1.071,1.328a3.331,3.331,0,0,1-1.461,1.191A4.777,4.777,0,0,1,94.811,18.166Zm.747-7.379a1.663,1.663,0,0,0-1.15.407,3.573,3.573,0,0,0-.9,1.469h3.221l.05-.216a2.2,2.2,0,0,0,.008-.631,1.2,1.2,0,0,0-.407-.751A1.275,1.275,0,0,0,95.558,10.787Zm13.68,4.582,3.071-9.455h2.308L110.267,18h-2.034L103.9,5.914h2.3Z" transform="translate(10238.955 -9110)" fill="#fff"/>
      <path id="Trazado_1271538" data-name="Trazado 1271538" d="M1,0H183a1,1,0,0,1,1,1V44a1,1,0,0,1-1,1H1a1,1,0,0,1-1-1V1A1,1,0,0,1,1,0Z" transform="translate(9852 -9404.6)" fill="#8d1939"/>
      <path id="Trazado_1271539" data-name="Trazado 1271539" d="M60.084,7.931H56.5L54.755,18H52.323L54.066,7.931H50.521l.357-2.017h9.563Zm5.163,3.337a4.833,4.833,0,0,0-.789-.083,2.269,2.269,0,0,0-1.984.938L61.437,18H59.1l1.561-8.981,2.2-.008-.216,1.1a2.47,2.47,0,0,1,2.092-1.27,3.415,3.415,0,0,1,.813.116ZM67.671,18H65.313l1.561-8.981h2.357ZM67.148,6.736a1.169,1.169,0,0,1,.365-.921,1.405,1.405,0,0,1,1.843-.042,1.164,1.164,0,0,1,.407.88,1.2,1.2,0,0,1-.344.9,1.291,1.291,0,0,1-.942.4,1.313,1.313,0,0,1-.917-.315A1.159,1.159,0,0,1,67.148,6.736ZM74.851,18a2.423,2.423,0,0,1-.091-.813,3.042,3.042,0,0,1-2.291.979,2.756,2.756,0,0,1-1.955-.768,2.323,2.323,0,0,1-.726-1.855,2.685,2.685,0,0,1,1.233-2.254,5.6,5.6,0,0,1,3.15-.784l1.1.017.116-.54a1.874,1.874,0,0,0,.025-.523.9.9,0,0,0-.295-.61,1.015,1.015,0,0,0-.668-.228,1.43,1.43,0,0,0-.93.27,1.308,1.308,0,0,0-.49.826l-2.349.008a2.611,2.611,0,0,1,1.183-2.088,4.581,4.581,0,0,1,2.777-.784,3.312,3.312,0,0,1,2.391.909,2.659,2.659,0,0,1,.722,2.254l-.689,4.3-.042.531a2.563,2.563,0,0,0,.141,1L77.15,18Zm-1.8-1.652a2.144,2.144,0,0,0,1.768-.88l.291-1.552-.813-.008a2.273,2.273,0,0,0-1.868.789,1.373,1.373,0,0,0-.257.672.8.8,0,0,0,.187.71A.946.946,0,0,0,73.05,16.348ZM79.026,13.5a6.214,6.214,0,0,1,1.357-3.383,3.444,3.444,0,0,1,2.793-1.274,2.518,2.518,0,0,1,2.142,1.038l.307-.872,2.15.008-1.469,8.674a4.232,4.232,0,0,1-1.527,2.839,4.751,4.751,0,0,1-3.187,1.013,4.429,4.429,0,0,1-1.776-.4,3.8,3.8,0,0,1-1.395-1.058l1.162-1.428a2.5,2.5,0,0,0,1.959,1.021A2.3,2.3,0,0,0,83.1,19.2a2.554,2.554,0,0,0,.88-1.44l.133-.54a2.921,2.921,0,0,1-2.2.946,2.58,2.58,0,0,1-2.083-.975,4.194,4.194,0,0,1-.847-2.494A8.383,8.383,0,0,1,79.026,13.5Zm2.3.985a2.147,2.147,0,0,0,.328,1.251,1.147,1.147,0,0,0,.95.495,2.1,2.1,0,0,0,1.693-.815l.7-3.807a1.377,1.377,0,0,0-1.32-.815,1.836,1.836,0,0,0-1.519.723,3.783,3.783,0,0,0-.78,1.987A8.728,8.728,0,0,0,81.325,14.486Zm11.015,3.68a3.907,3.907,0,0,1-2.088-.577A3.5,3.5,0,0,1,88.9,16.029a4.349,4.349,0,0,1-.349-2.187l.025-.332a5.806,5.806,0,0,1,.764-2.407,4.613,4.613,0,0,1,1.644-1.689,4.066,4.066,0,0,1,2.225-.56,3.107,3.107,0,0,1,2.627,1.276,4.374,4.374,0,0,1,.677,3.147L96.375,14.3h-5.5a1.927,1.927,0,0,0,.423,1.395,1.616,1.616,0,0,0,1.245.54,2.872,2.872,0,0,0,2.241-1l1.071,1.328a3.331,3.331,0,0,1-1.461,1.191A4.777,4.777,0,0,1,92.341,18.166Zm.747-7.379a1.663,1.663,0,0,0-1.15.407,3.573,3.573,0,0,0-.9,1.469h3.221l.05-.216a2.2,2.2,0,0,0,.008-.631,1.2,1.2,0,0,0-.407-.751A1.275,1.275,0,0,0,93.088,10.787ZM104.725,18h-2.092V5.914h2.092Zm4.8,0h-2.092V5.914h2.092Zm4.8,0h-2.092V5.914h2.092Z" transform="translate(9851 -9396.6)" fill="#fff"/>
      <path id="Trazado_1271540" data-name="Trazado 1271540" d="M0,0H184V45H0Z" transform="translate(9591 -9317.128)" fill="#8d1939"/>
      <path id="Trazado_1271541" data-name="Trazado 1271541" d="M56.776,7.931H53.19L51.447,18H49.014L50.758,7.931H47.213l.357-2.017h9.563Zm5.163,3.337a4.833,4.833,0,0,0-.789-.083,2.269,2.269,0,0,0-1.984.938L58.129,18H55.788l1.561-8.981,2.2-.008-.216,1.1a2.47,2.47,0,0,1,2.092-1.27,3.414,3.414,0,0,1,.813.116ZM64.363,18H62.005l1.561-8.981h2.357ZM63.84,6.736a1.169,1.169,0,0,1,.365-.921,1.405,1.405,0,0,1,1.843-.042,1.164,1.164,0,0,1,.407.88,1.2,1.2,0,0,1-.344.9,1.291,1.291,0,0,1-.942.4,1.313,1.313,0,0,1-.917-.315A1.159,1.159,0,0,1,63.84,6.736ZM71.543,18a2.423,2.423,0,0,1-.091-.813,3.042,3.042,0,0,1-2.291.979,2.756,2.756,0,0,1-1.955-.768,2.323,2.323,0,0,1-.726-1.855,2.685,2.685,0,0,1,1.233-2.254,5.6,5.6,0,0,1,3.15-.784l1.1.017.116-.54a1.874,1.874,0,0,0,.025-.523.9.9,0,0,0-.295-.61,1.015,1.015,0,0,0-.668-.228,1.43,1.43,0,0,0-.93.27,1.308,1.308,0,0,0-.49.826l-2.349.008A2.611,2.611,0,0,1,68.55,9.637a4.581,4.581,0,0,1,2.777-.784,3.312,3.312,0,0,1,2.391.909,2.659,2.659,0,0,1,.722,2.254l-.689,4.3-.042.531a2.563,2.563,0,0,0,.141,1L73.842,18Zm-1.8-1.652a2.144,2.144,0,0,0,1.768-.88l.291-1.552-.813-.008a2.273,2.273,0,0,0-1.868.789,1.373,1.373,0,0,0-.257.672.8.8,0,0,0,.187.71A.946.946,0,0,0,69.741,16.348ZM75.718,13.5a6.214,6.214,0,0,1,1.357-3.383,3.444,3.444,0,0,1,2.793-1.274A2.518,2.518,0,0,1,82.01,9.882l.307-.872,2.15.008L83,17.693a4.232,4.232,0,0,1-1.527,2.839,4.751,4.751,0,0,1-3.187,1.013,4.429,4.429,0,0,1-1.776-.4,3.8,3.8,0,0,1-1.395-1.058l1.162-1.428a2.5,2.5,0,0,0,1.959,1.021,2.3,2.3,0,0,0,1.561-.477,2.554,2.554,0,0,0,.88-1.44l.133-.54a2.921,2.921,0,0,1-2.2.946,2.58,2.58,0,0,1-2.083-.975,4.194,4.194,0,0,1-.847-2.494A8.383,8.383,0,0,1,75.718,13.5Zm2.3.985a2.147,2.147,0,0,0,.328,1.251,1.147,1.147,0,0,0,.95.495,2.1,2.1,0,0,0,1.693-.815l.7-3.807a1.377,1.377,0,0,0-1.32-.815,1.836,1.836,0,0,0-1.519.723,3.783,3.783,0,0,0-.78,1.987A8.728,8.728,0,0,0,78.017,14.486Zm11.015,3.68a3.907,3.907,0,0,1-2.088-.577,3.5,3.5,0,0,1-1.357-1.561,4.349,4.349,0,0,1-.349-2.187l.025-.332a5.806,5.806,0,0,1,.764-2.407,4.613,4.613,0,0,1,1.644-1.689,4.066,4.066,0,0,1,2.225-.56,3.107,3.107,0,0,1,2.627,1.276,4.374,4.374,0,0,1,.677,3.147L93.067,14.3h-5.5a1.927,1.927,0,0,0,.423,1.395,1.616,1.616,0,0,0,1.245.54,2.872,2.872,0,0,0,2.241-1l1.071,1.328a3.331,3.331,0,0,1-1.461,1.191A4.777,4.777,0,0,1,89.032,18.166Zm.747-7.379a1.663,1.663,0,0,0-1.15.407,3.573,3.573,0,0,0-.9,1.469H90.95l.05-.216a2.2,2.2,0,0,0,.008-.631,1.2,1.2,0,0,0-.407-.751A1.275,1.275,0,0,0,89.78,10.787ZM101.417,18H99.325V5.914h2.092Zm4.8,0h-2.092V5.914h2.092Z" transform="translate(9589.703 -9306)" fill="#fff"/>
      <path id="Trazado_1271542" data-name="Trazado 1271542" d="M0,0H184V45H0Z" transform="translate(10133 -9317)" fill="#8d1939"/>
      <path id="Trazado_1271543" data-name="Trazado 1271543" d="M61.382,7.931H57.8L56.053,18H53.621L55.364,7.931H51.82l.357-2.017h9.563Zm5.163,3.337a4.833,4.833,0,0,0-.789-.083,2.269,2.269,0,0,0-1.984.938L62.735,18H60.395l1.561-8.981,2.2-.008-.216,1.1a2.47,2.47,0,0,1,2.092-1.27,3.415,3.415,0,0,1,.813.116ZM68.969,18H66.612l1.561-8.981H70.53ZM68.446,6.736a1.169,1.169,0,0,1,.365-.921,1.405,1.405,0,0,1,1.843-.042,1.164,1.164,0,0,1,.407.88,1.2,1.2,0,0,1-.344.9,1.291,1.291,0,0,1-.942.4,1.313,1.313,0,0,1-.917-.315A1.159,1.159,0,0,1,68.446,6.736ZM76.149,18a2.423,2.423,0,0,1-.091-.813,3.042,3.042,0,0,1-2.291.979,2.756,2.756,0,0,1-1.955-.768,2.323,2.323,0,0,1-.726-1.855,2.685,2.685,0,0,1,1.233-2.254,5.6,5.6,0,0,1,3.15-.784l1.1.017.116-.54a1.874,1.874,0,0,0,.025-.523.9.9,0,0,0-.295-.61,1.015,1.015,0,0,0-.668-.228,1.43,1.43,0,0,0-.93.27,1.308,1.308,0,0,0-.49.826l-2.349.008a2.611,2.611,0,0,1,1.183-2.088,4.581,4.581,0,0,1,2.777-.784,3.312,3.312,0,0,1,2.391.909,2.659,2.659,0,0,1,.722,2.254l-.689,4.3-.042.531a2.563,2.563,0,0,0,.141,1L78.449,18Zm-1.8-1.652a2.144,2.144,0,0,0,1.768-.88l.291-1.552-.813-.008a2.273,2.273,0,0,0-1.868.789,1.373,1.373,0,0,0-.257.672.8.8,0,0,0,.187.71A.946.946,0,0,0,74.348,16.348ZM80.325,13.5a6.214,6.214,0,0,1,1.357-3.383,3.444,3.444,0,0,1,2.793-1.274,2.518,2.518,0,0,1,2.142,1.038l.307-.872,2.15.008L87.6,17.693a4.232,4.232,0,0,1-1.527,2.839,4.751,4.751,0,0,1-3.187,1.013,4.429,4.429,0,0,1-1.776-.4,3.8,3.8,0,0,1-1.395-1.058l1.162-1.428a2.5,2.5,0,0,0,1.959,1.021A2.3,2.3,0,0,0,84.4,19.2a2.554,2.554,0,0,0,.88-1.44l.133-.54a2.921,2.921,0,0,1-2.2.946,2.58,2.58,0,0,1-2.083-.975,4.194,4.194,0,0,1-.847-2.494A8.383,8.383,0,0,1,80.325,13.5Zm2.3.985a2.147,2.147,0,0,0,.328,1.251,1.147,1.147,0,0,0,.95.495,2.1,2.1,0,0,0,1.693-.815l.7-3.807a1.377,1.377,0,0,0-1.32-.815,1.836,1.836,0,0,0-1.519.723,3.783,3.783,0,0,0-.78,1.987A8.728,8.728,0,0,0,82.624,14.486Zm11.015,3.68a3.907,3.907,0,0,1-2.088-.577,3.5,3.5,0,0,1-1.357-1.561,4.349,4.349,0,0,1-.349-2.187l.025-.332a5.806,5.806,0,0,1,.764-2.407,4.613,4.613,0,0,1,1.644-1.689,4.066,4.066,0,0,1,2.225-.56,3.107,3.107,0,0,1,2.627,1.276,4.374,4.374,0,0,1,.677,3.147L97.673,14.3h-5.5a1.927,1.927,0,0,0,.423,1.395,1.616,1.616,0,0,0,1.245.54,2.872,2.872,0,0,0,2.241-1l1.071,1.328a3.331,3.331,0,0,1-1.461,1.191A4.777,4.777,0,0,1,93.639,18.166Zm.747-7.379a1.663,1.663,0,0,0-1.15.407,3.573,3.573,0,0,0-.9,1.469h3.221l.05-.216a2.2,2.2,0,0,0,.008-.631,1.2,1.2,0,0,0-.407-.751A1.275,1.275,0,0,0,94.386,10.787ZM106.024,18h-2.092V5.914h2.092Zm6.84-2.631,3.071-9.455h2.308L113.893,18h-2.034L107.526,5.914h2.3Z" transform="translate(10131.955 -9306)" fill="#fff"/>
      <path id="Trazado_1271544" data-name="Trazado 1271544" d="M0,0H45V46H0Z" transform="translate(10383 -9121.128)" fill="#f9eb1f"/>
      <path id="Trazado_1271545" data-name="Trazado 1271545" d="M0,0H45V46H0Z" transform="translate(10287 -9317.128)" fill="#fbb209"/>
      <path id="Trazado_1271546" data-name="Trazado 1271546" d="M0,0H45V46H0Z" transform="translate(10001 -9405.128)" fill="#f80"/>
      <path id="Trazado_1271547" data-name="Trazado 1271547" d="M0,0H45V45H0Z" transform="translate(9732 -9317.128)" fill="#e84512"/>
      <path id="Trazado_1271548" data-name="Trazado 1271548" d="M0,0H45V45H0Z" transform="translate(9613 -9121.128)" fill="#d21313"/>
    </g>
    <path id="Trazado_1270897" data-name="Trazado 1270897" d="M15.917,0H220.38C229.171,0,236.3,7.608,236.3,16.992V40.163c0,9.385-7.126,16.992-15.917,16.992H15.917C7.126,57.156,0,49.548,0,40.163V16.992C0,7.608,7.126,0,15.917,0Z" transform="translate(681.711 2689.07)" fill="#ffe19a"/>
    <path id="Trazado_1271549" data-name="Trazado 1271549" d="M13.026,14.737A4.528,4.528,0,0,1,11.5,17.989a5.355,5.355,0,0,1-3.625,1.187A4.816,4.816,0,0,1,4,17.519a6.793,6.793,0,0,1-1.411-4.548v-.782a7.671,7.671,0,0,1,.65-3.252A4.874,4.874,0,0,1,5.1,6.779a5.207,5.207,0,0,1,2.808-.751,5.217,5.217,0,0,1,3.568,1.187,4.866,4.866,0,0,1,1.564,3.331H10.407a2.673,2.673,0,0,0-.69-1.8,2.555,2.555,0,0,0-1.806-.558,2.24,2.24,0,0,0-1.973.945,5.3,5.3,0,0,0-.672,2.931v.967a5.667,5.667,0,0,0,.628,3.032,2.2,2.2,0,0,0,1.982.958A2.6,2.6,0,0,0,9.7,16.464a2.521,2.521,0,0,0,.69-1.727ZM17.271,19H14.723V5.5h2.549Zm7.6,0a2.821,2.821,0,0,1-.255-.853,3.073,3.073,0,0,1-2.4,1.028,3.376,3.376,0,0,1-2.316-.809,2.6,2.6,0,0,1-.918-2.039,2.687,2.687,0,0,1,1.121-2.32,5.529,5.529,0,0,1,3.239-.817h1.169v-.545a1.567,1.567,0,0,0-.338-1.055,1.331,1.331,0,0,0-1.068-.4A1.513,1.513,0,0,0,22.1,11.5a1.045,1.045,0,0,0-.365.844H19.2a2.551,2.551,0,0,1,.51-1.529,3.37,3.37,0,0,1,1.441-1.1,5.253,5.253,0,0,1,2.092-.4,4.15,4.15,0,0,1,2.791.883,3.09,3.09,0,0,1,1.033,2.483V16.8a4.546,4.546,0,0,0,.378,2.048V19Zm-2.1-1.767a2.188,2.188,0,0,0,1.037-.25,1.645,1.645,0,0,0,.7-.672V14.676h-.949q-1.907,0-2.03,1.318l-.009.149a1.017,1.017,0,0,0,.334.782A1.3,1.3,0,0,0,22.773,17.233Zm11.391-.861a.818.818,0,0,0-.461-.734,5.241,5.241,0,0,0-1.481-.479q-3.393-.712-3.393-2.883a2.613,2.613,0,0,1,1.05-2.114,4.237,4.237,0,0,1,2.747-.848,4.56,4.56,0,0,1,2.9.853,2.687,2.687,0,0,1,1.085,2.215h-2.54a1.229,1.229,0,0,0-.352-.9,1.488,1.488,0,0,0-1.1-.356,1.52,1.52,0,0,0-.993.29.916.916,0,0,0-.352.738.783.783,0,0,0,.4.681,4.114,4.114,0,0,0,1.349.448,11.019,11.019,0,0,1,1.6.426,2.628,2.628,0,0,1,2.013,2.558,2.481,2.481,0,0,1-1.116,2.1,4.815,4.815,0,0,1-2.883.8,5.029,5.029,0,0,1-2.123-.426,3.561,3.561,0,0,1-1.455-1.169,2.716,2.716,0,0,1-.527-1.6h2.408a1.326,1.326,0,0,0,.5,1.037,1.987,1.987,0,0,0,1.248.36,1.839,1.839,0,0,0,1.1-.277A.861.861,0,0,0,34.164,16.372ZM40.949,19H38.4V9.49h2.549Zm-2.7-11.971a1.251,1.251,0,0,1,.382-.94,1.648,1.648,0,0,1,2.079,0,1.244,1.244,0,0,1,.387.94,1.247,1.247,0,0,1-.391.949,1.629,1.629,0,0,1-2.065,0A1.247,1.247,0,0,1,38.251,7.029ZM43.656,19V11.354H42.241V9.49h1.415V9.051a3.566,3.566,0,0,1,1.1-2.764,4.438,4.438,0,0,1,3.063-.971,10.16,10.16,0,0,1,2.883.519l-.369,2.1A11.248,11.248,0,0,0,49,7.6a6.564,6.564,0,0,0-1.02-.075q-1.775,0-1.775,1.573V9.49h1.872v1.863H46.205V19Zm8.235,0H49.343V9.49h2.549Zm6.056-1.872a1.666,1.666,0,0,0,1.143-.387,1.355,1.355,0,0,0,.457-1.028h2.382a3.258,3.258,0,0,1-.527,1.771,3.48,3.48,0,0,1-1.419,1.248,4.442,4.442,0,0,1-1.991.444,4.129,4.129,0,0,1-3.217-1.3A5.13,5.13,0,0,1,53.6,14.3v-.167a5.071,5.071,0,0,1,1.169-3.507,4.08,4.08,0,0,1,3.208-1.31,4,4,0,0,1,2.861,1.015,3.594,3.594,0,0,1,1.094,2.7H59.547a1.745,1.745,0,0,0-.457-1.206,1.7,1.7,0,0,0-2.5.183,3.749,3.749,0,0,0-.453,2.1v.264a3.8,3.8,0,0,0,.448,2.113A1.549,1.549,0,0,0,57.947,17.128ZM68.89,19a2.821,2.821,0,0,1-.255-.853,3.073,3.073,0,0,1-2.4,1.028,3.376,3.376,0,0,1-2.316-.809A2.6,2.6,0,0,1,63,16.328a2.687,2.687,0,0,1,1.121-2.32,5.529,5.529,0,0,1,3.239-.817h1.169v-.545a1.567,1.567,0,0,0-.338-1.055,1.331,1.331,0,0,0-1.068-.4,1.513,1.513,0,0,0-1.006.308,1.045,1.045,0,0,0-.365.844h-2.54a2.551,2.551,0,0,1,.51-1.529,3.37,3.37,0,0,1,1.441-1.1,5.253,5.253,0,0,1,2.092-.4,4.15,4.15,0,0,1,2.791.883,3.09,3.09,0,0,1,1.033,2.483V16.8a4.546,4.546,0,0,0,.378,2.048V19Zm-2.1-1.767a2.188,2.188,0,0,0,1.037-.25,1.645,1.645,0,0,0,.7-.672V14.676H67.58q-1.907,0-2.03,1.318l-.009.149a1.017,1.017,0,0,0,.334.782A1.3,1.3,0,0,0,66.789,17.233Zm10.2-.105a1.666,1.666,0,0,0,1.143-.387,1.355,1.355,0,0,0,.457-1.028h2.382a3.258,3.258,0,0,1-.527,1.771,3.48,3.48,0,0,1-1.419,1.248,4.442,4.442,0,0,1-1.991.444,4.129,4.129,0,0,1-3.217-1.3A5.13,5.13,0,0,1,72.634,14.3v-.167A5.071,5.071,0,0,1,73.8,10.624a4.08,4.08,0,0,1,3.208-1.31,4,4,0,0,1,2.861,1.015,3.594,3.594,0,0,1,1.094,2.7H78.584a1.745,1.745,0,0,0-.457-1.206,1.7,1.7,0,0,0-2.5.183,3.749,3.749,0,0,0-.453,2.1v.264a3.8,3.8,0,0,0,.448,2.113A1.549,1.549,0,0,0,76.984,17.128ZM85.1,19H82.548V9.49H85.1ZM82.4,7.029a1.251,1.251,0,0,1,.382-.94,1.648,1.648,0,0,1,2.079,0,1.244,1.244,0,0,1,.387.94,1.247,1.247,0,0,1-.391.949,1.629,1.629,0,0,1-2.065,0A1.247,1.247,0,0,1,82.4,7.029Zm4.395,7.128a5.64,5.64,0,0,1,.545-2.522,3.989,3.989,0,0,1,1.569-1.714,4.577,4.577,0,0,1,2.377-.606,4.33,4.33,0,0,1,3.142,1.178,4.727,4.727,0,0,1,1.358,3.2l.018.65a4.97,4.97,0,0,1-1.222,3.511,4.735,4.735,0,0,1-6.561,0,5.058,5.058,0,0,1-1.226-3.586Zm2.54.18a3.555,3.555,0,0,0,.51,2.073,1.831,1.831,0,0,0,2.9.009,3.89,3.89,0,0,0,.519-2.267,3.519,3.519,0,0,0-.519-2.06,1.686,1.686,0,0,0-1.459-.731,1.658,1.658,0,0,0-1.441.726A3.955,3.955,0,0,0,89.333,14.338ZM91.785,5.5h2.769L92.119,8.225H90.054ZM99.7,9.49l.079,1.1a3.32,3.32,0,0,1,2.733-1.274,2.759,2.759,0,0,1,2.25.888,4.142,4.142,0,0,1,.756,2.654V19h-2.54V12.918a1.648,1.648,0,0,0-.352-1.173,1.574,1.574,0,0,0-1.169-.365,1.747,1.747,0,0,0-1.608.914V19h-2.54V9.49ZM120.5,14.333a5.758,5.758,0,0,1-.976,3.564,3.231,3.231,0,0,1-2.725,1.279,2.969,2.969,0,0,1-2.47-1.187L114.215,19H111.93V5.5h2.54v4.843a2.893,2.893,0,0,1,2.312-1.028,3.258,3.258,0,0,1,2.729,1.279,5.767,5.767,0,0,1,.989,3.6Zm-2.54-.185a3.783,3.783,0,0,0-.457-2.1,1.545,1.545,0,0,0-1.362-.664,1.676,1.676,0,0,0-1.67.993v3.753a1.7,1.7,0,0,0,1.688,1,1.568,1.568,0,0,0,1.617-1.213A6.257,6.257,0,0,0,117.959,14.148ZM127.574,19a2.821,2.821,0,0,1-.255-.853,3.073,3.073,0,0,1-2.4,1.028,3.376,3.376,0,0,1-2.316-.809,2.6,2.6,0,0,1-.918-2.039,2.687,2.687,0,0,1,1.121-2.32,5.529,5.529,0,0,1,3.239-.817h1.169v-.545a1.567,1.567,0,0,0-.338-1.055,1.331,1.331,0,0,0-1.068-.4,1.513,1.513,0,0,0-1.006.308,1.045,1.045,0,0,0-.365.844H121.9a2.551,2.551,0,0,1,.51-1.529,3.37,3.37,0,0,1,1.441-1.1,5.253,5.253,0,0,1,2.092-.4,4.15,4.15,0,0,1,2.791.883,3.09,3.09,0,0,1,1.033,2.483V16.8a4.546,4.546,0,0,0,.378,2.048V19Zm-2.1-1.767a2.188,2.188,0,0,0,1.037-.25,1.645,1.645,0,0,0,.7-.672V14.676h-.949q-1.907,0-2.03,1.318l-.009.149a1.017,1.017,0,0,0,.334.782A1.3,1.3,0,0,0,125.474,17.233ZM126.44,5.5h2.769l-2.435,2.725h-2.065Zm10.424,10.872a.818.818,0,0,0-.461-.734,5.241,5.241,0,0,0-1.481-.479q-3.393-.712-3.393-2.883a2.613,2.613,0,0,1,1.05-2.114,4.237,4.237,0,0,1,2.747-.848,4.56,4.56,0,0,1,2.9.853,2.687,2.687,0,0,1,1.085,2.215h-2.54a1.229,1.229,0,0,0-.352-.9,1.488,1.488,0,0,0-1.1-.356,1.52,1.52,0,0,0-.993.29.916.916,0,0,0-.352.738.783.783,0,0,0,.4.681,4.114,4.114,0,0,0,1.349.448,11.019,11.019,0,0,1,1.6.426,2.628,2.628,0,0,1,2.013,2.558,2.481,2.481,0,0,1-1.116,2.1,4.815,4.815,0,0,1-2.883.8,5.029,5.029,0,0,1-2.123-.426,3.561,3.561,0,0,1-1.455-1.169,2.716,2.716,0,0,1-.527-1.6h2.408a1.326,1.326,0,0,0,.5,1.037,1.987,1.987,0,0,0,1.248.36,1.839,1.839,0,0,0,1.1-.277A.861.861,0,0,0,136.864,16.372ZM143.649,19H141.1V9.49h2.549Zm-2.7-11.971a1.251,1.251,0,0,1,.382-.94,1.648,1.648,0,0,1,2.079,0,1.244,1.244,0,0,1,.387.94,1.247,1.247,0,0,1-.391.949,1.629,1.629,0,0,1-2.065,0A1.247,1.247,0,0,1,140.951,7.029Zm8.745,10.1a1.666,1.666,0,0,0,1.143-.387,1.355,1.355,0,0,0,.457-1.028h2.382a3.258,3.258,0,0,1-.527,1.771,3.48,3.48,0,0,1-1.419,1.248,4.442,4.442,0,0,1-1.991.444,4.129,4.129,0,0,1-3.217-1.3,5.13,5.13,0,0,1-1.178-3.582v-.167a5.071,5.071,0,0,1,1.169-3.507,4.08,4.08,0,0,1,3.208-1.31,4,4,0,0,1,2.861,1.015,3.594,3.594,0,0,1,1.094,2.7H151.3a1.745,1.745,0,0,0-.457-1.206,1.7,1.7,0,0,0-2.5.183,3.749,3.749,0,0,0-.453,2.1v.264a3.8,3.8,0,0,0,.448,2.113A1.549,1.549,0,0,0,149.7,17.128ZM160.639,19a2.821,2.821,0,0,1-.255-.853,3.073,3.073,0,0,1-2.4,1.028,3.376,3.376,0,0,1-2.316-.809,2.6,2.6,0,0,1-.918-2.039,2.687,2.687,0,0,1,1.121-2.32,5.529,5.529,0,0,1,3.239-.817h1.169v-.545a1.567,1.567,0,0,0-.338-1.055,1.331,1.331,0,0,0-1.068-.4,1.513,1.513,0,0,0-1.006.308,1.045,1.045,0,0,0-.365.844h-2.54a2.551,2.551,0,0,1,.51-1.529,3.37,3.37,0,0,1,1.441-1.1,5.253,5.253,0,0,1,2.092-.4,4.15,4.15,0,0,1,2.791.883,3.09,3.09,0,0,1,1.033,2.483V16.8a4.546,4.546,0,0,0,.378,2.048V19Zm-2.1-1.767a2.188,2.188,0,0,0,1.037-.25,1.645,1.645,0,0,0,.7-.672V14.676h-.949q-1.907,0-2.03,1.318l-.009.149a1.017,1.017,0,0,0,.334.782A1.3,1.3,0,0,0,158.538,17.233Zm19.283-2.9a5.7,5.7,0,0,1-1,3.52,3.2,3.2,0,0,1-2.694,1.323,2.963,2.963,0,0,1-2.329-1v4.482h-2.54V9.49h2.355l.088.932a2.985,2.985,0,0,1,2.408-1.107,3.22,3.22,0,0,1,2.733,1.3,5.858,5.858,0,0,1,.976,3.586Zm-2.54-.185a3.743,3.743,0,0,0-.47-2.048,1.532,1.532,0,0,0-1.367-.721,1.663,1.663,0,0,0-1.644.914v3.894a1.692,1.692,0,0,0,1.661.94Q175.281,17.128,175.281,14.148Zm3.718.009a5.64,5.64,0,0,1,.545-2.522,3.989,3.989,0,0,1,1.569-1.714,4.577,4.577,0,0,1,2.377-.606,4.33,4.33,0,0,1,3.142,1.178,4.727,4.727,0,0,1,1.358,3.2l.018.65a4.97,4.97,0,0,1-1.222,3.511,4.735,4.735,0,0,1-6.561,0A5.058,5.058,0,0,1,179,14.271Zm2.54.18a3.555,3.555,0,0,0,.51,2.073,1.831,1.831,0,0,0,2.9.009,3.89,3.89,0,0,0,.519-2.267,3.519,3.519,0,0,0-.519-2.06,1.686,1.686,0,0,0-1.459-.731,1.658,1.658,0,0,0-1.441.726A3.955,3.955,0,0,0,181.539,14.338Zm13.377-2.465A6.9,6.9,0,0,0,194,11.8a1.86,1.86,0,0,0-1.89.976V19h-2.54V9.49h2.4l.07,1.134a2.354,2.354,0,0,1,2.118-1.31,2.662,2.662,0,0,1,.791.114ZM22.215,31.49l.079,1.1a3.32,3.32,0,0,1,2.733-1.274,2.759,2.759,0,0,1,2.25.888,4.142,4.142,0,0,1,.756,2.654V41h-2.54V34.918a1.648,1.648,0,0,0-.352-1.173,1.574,1.574,0,0,0-1.169-.365,1.747,1.747,0,0,0-1.608.914V41h-2.54V31.49ZM32.639,41H30.09V31.49h2.549Zm-2.7-11.971a1.251,1.251,0,0,1,.382-.94,1.648,1.648,0,0,1,2.079,0,1.342,1.342,0,0,1,0,1.89,1.629,1.629,0,0,1-2.065,0A1.247,1.247,0,0,1,29.941,29.029Zm8.35,8.868,1.767-6.407h2.654L39.5,41H37.078L33.87,31.49h2.654ZM48.2,41.176A4.668,4.668,0,0,1,44.8,39.893a4.561,4.561,0,0,1-1.314-3.419v-.246a5.745,5.745,0,0,1,.554-2.562,4.064,4.064,0,0,1,1.569-1.74,4.4,4.4,0,0,1,2.316-.611A3.947,3.947,0,0,1,51,32.545a5,5,0,0,1,1.121,3.489v1.037H46.06a2.36,2.36,0,0,0,.743,1.494,2.245,2.245,0,0,0,1.569.563,2.742,2.742,0,0,0,2.294-1.063l1.248,1.4a3.813,3.813,0,0,1-1.547,1.261A5.075,5.075,0,0,1,48.2,41.176Zm-.29-7.813a1.587,1.587,0,0,0-1.226.512,2.651,2.651,0,0,0-.6,1.466H49.62v-.2a1.891,1.891,0,0,0-.457-1.311A1.638,1.638,0,0,0,47.915,33.362ZM56.238,41H53.689V27.5h2.549Zm6.469.176A4.668,4.668,0,0,1,59.3,39.893a4.561,4.561,0,0,1-1.314-3.419v-.246a5.745,5.745,0,0,1,.554-2.562,4.064,4.064,0,0,1,1.569-1.74,4.4,4.4,0,0,1,2.316-.611,3.947,3.947,0,0,1,3.072,1.23,5,5,0,0,1,1.121,3.489v1.037H60.562a2.36,2.36,0,0,0,.743,1.494,2.245,2.245,0,0,0,1.569.563,2.742,2.742,0,0,0,2.294-1.063l1.248,1.4a3.813,3.813,0,0,1-1.547,1.261A5.075,5.075,0,0,1,62.707,41.176Zm-.29-7.813a1.587,1.587,0,0,0-1.226.512,2.651,2.651,0,0,0-.6,1.466h3.533v-.2a1.891,1.891,0,0,0-.457-1.311A1.638,1.638,0,0,0,62.417,33.362Zm10.793,5.01a.818.818,0,0,0-.461-.734,5.241,5.241,0,0,0-1.481-.479q-3.393-.712-3.393-2.883a2.613,2.613,0,0,1,1.05-2.114,4.237,4.237,0,0,1,2.747-.848,4.56,4.56,0,0,1,2.9.853,2.687,2.687,0,0,1,1.085,2.215h-2.54a1.229,1.229,0,0,0-.352-.9,1.488,1.488,0,0,0-1.1-.356,1.52,1.52,0,0,0-.993.29.916.916,0,0,0-.352.738.783.783,0,0,0,.4.681,4.114,4.114,0,0,0,1.349.448,11.019,11.019,0,0,1,1.6.426,2.628,2.628,0,0,1,2.013,2.558,2.481,2.481,0,0,1-1.116,2.1,4.815,4.815,0,0,1-2.883.8,5.029,5.029,0,0,1-2.123-.426A3.561,3.561,0,0,1,68.1,39.581a2.716,2.716,0,0,1-.527-1.6h2.408a1.326,1.326,0,0,0,.5,1.037,1.987,1.987,0,0,0,1.248.36,1.839,1.839,0,0,0,1.1-.277A.861.861,0,0,0,73.209,38.372Zm8.191-2.2a5.731,5.731,0,0,1,1-3.542,3.237,3.237,0,0,1,2.729-1.318,2.913,2.913,0,0,1,2.294,1.037V27.5H89.97V41H87.676l-.123-1.011a2.989,2.989,0,0,1-2.443,1.187,3.228,3.228,0,0,1-2.694-1.323A5.916,5.916,0,0,1,81.4,36.175Zm2.54.189a3.754,3.754,0,0,0,.466,2.051,1.517,1.517,0,0,0,1.354.713,1.7,1.7,0,0,0,1.661-.995V34.375a1.675,1.675,0,0,0-1.644-.995Q83.941,33.38,83.941,36.364Zm12.375,4.812a4.668,4.668,0,0,1-3.406-1.283A4.561,4.561,0,0,1,91.6,36.474v-.246a5.745,5.745,0,0,1,.554-2.562,4.064,4.064,0,0,1,1.569-1.74,4.4,4.4,0,0,1,2.316-.611,3.947,3.947,0,0,1,3.072,1.23,5,5,0,0,1,1.121,3.489v1.037H94.171a2.36,2.36,0,0,0,.743,1.494,2.245,2.245,0,0,0,1.569.563,2.742,2.742,0,0,0,2.294-1.063l1.248,1.4a3.813,3.813,0,0,1-1.547,1.261A5.075,5.075,0,0,1,96.316,41.176Zm-.29-7.813a1.587,1.587,0,0,0-1.226.512,2.651,2.651,0,0,0-.6,1.466h3.533v-.2a1.891,1.891,0,0,0-.457-1.311A1.638,1.638,0,0,0,96.026,33.362Zm18.686,2.971a5.7,5.7,0,0,1-1,3.52,3.2,3.2,0,0,1-2.694,1.323,2.963,2.963,0,0,1-2.329-1v4.482h-2.54V31.49h2.355l.088.932A2.985,2.985,0,0,1,111,31.314a3.22,3.22,0,0,1,2.733,1.3,5.858,5.858,0,0,1,.976,3.586Zm-2.54-.185a3.743,3.743,0,0,0-.47-2.048,1.532,1.532,0,0,0-1.367-.721,1.663,1.663,0,0,0-1.644.914v3.894a1.692,1.692,0,0,0,1.661.94Q112.171,39.128,112.171,36.148Zm9.457-2.276a6.9,6.9,0,0,0-.914-.07,1.86,1.86,0,0,0-1.89.976V41h-2.54V31.49h2.4l.07,1.134a2.354,2.354,0,0,1,2.118-1.31,2.662,2.662,0,0,1,.791.114Zm3.9,7.128h-2.549V31.49h2.549Zm-2.7-11.971a1.251,1.251,0,0,1,.382-.94,1.648,1.648,0,0,1,2.079,0,1.342,1.342,0,0,1,0,1.89,1.629,1.629,0,0,1-2.065,0A1.247,1.247,0,0,1,122.833,29.029Zm4.395,7.128a5.64,5.64,0,0,1,.545-2.522,3.989,3.989,0,0,1,1.569-1.714,4.577,4.577,0,0,1,2.377-.606,4.33,4.33,0,0,1,3.142,1.178,4.727,4.727,0,0,1,1.358,3.2l.018.65a4.97,4.97,0,0,1-1.222,3.511,4.735,4.735,0,0,1-6.561,0,5.058,5.058,0,0,1-1.226-3.586Zm2.54.18a3.555,3.555,0,0,0,.51,2.073,1.831,1.831,0,0,0,2.9.009,3.89,3.89,0,0,0,.519-2.267,3.519,3.519,0,0,0-.519-2.06,1.686,1.686,0,0,0-1.459-.731,1.658,1.658,0,0,0-1.441.726A3.955,3.955,0,0,0,129.767,36.338Zm13.377-2.465a6.9,6.9,0,0,0-.914-.07,1.86,1.86,0,0,0-1.89.976V41H137.8V31.49h2.4l.07,1.134a2.354,2.354,0,0,1,2.118-1.31,2.662,2.662,0,0,1,.791.114Zm3.9,7.128H144.5V31.49h2.549Zm-2.7-11.971a1.251,1.251,0,0,1,.382-.94,1.648,1.648,0,0,1,2.079,0,1.342,1.342,0,0,1,0,1.89,1.629,1.629,0,0,1-2.065,0A1.247,1.247,0,0,1,144.348,29.029Zm4.395,7.146a5.731,5.731,0,0,1,1-3.542,3.237,3.237,0,0,1,2.729-1.318,2.913,2.913,0,0,1,2.294,1.037V27.5h2.549V41h-2.294l-.123-1.011a2.989,2.989,0,0,1-2.443,1.187,3.228,3.228,0,0,1-2.694-1.323A5.916,5.916,0,0,1,148.743,36.175Zm2.54.189a3.754,3.754,0,0,0,.466,2.051,1.517,1.517,0,0,0,1.354.713,1.7,1.7,0,0,0,1.661-.995V34.375a1.675,1.675,0,0,0-1.644-.995Q151.283,33.38,151.283,36.364ZM164.792,41a2.821,2.821,0,0,1-.255-.853,3.073,3.073,0,0,1-2.4,1.028,3.376,3.376,0,0,1-2.316-.809,2.6,2.6,0,0,1-.918-2.039,2.687,2.687,0,0,1,1.121-2.32,5.529,5.529,0,0,1,3.239-.817h1.169v-.545a1.567,1.567,0,0,0-.338-1.055,1.331,1.331,0,0,0-1.068-.4,1.513,1.513,0,0,0-1.006.308,1.045,1.045,0,0,0-.365.844h-2.54a2.551,2.551,0,0,1,.51-1.529,3.37,3.37,0,0,1,1.441-1.1,5.253,5.253,0,0,1,2.092-.4,4.15,4.15,0,0,1,2.791.883,3.09,3.09,0,0,1,1.033,2.483V38.8a4.546,4.546,0,0,0,.378,2.048V41Zm-2.1-1.767a2.188,2.188,0,0,0,1.037-.25,1.645,1.645,0,0,0,.7-.672V36.676h-.949q-1.907,0-2.03,1.318l-.009.149a1.017,1.017,0,0,0,.334.782A1.3,1.3,0,0,0,162.691,39.233Zm5.845-3.059a5.731,5.731,0,0,1,1-3.542,3.237,3.237,0,0,1,2.729-1.318,2.913,2.913,0,0,1,2.294,1.037V27.5H177.1V41h-2.294l-.123-1.011a2.989,2.989,0,0,1-2.443,1.187,3.228,3.228,0,0,1-2.694-1.323A5.916,5.916,0,0,1,168.536,36.175Zm2.54.189a3.754,3.754,0,0,0,.466,2.051,1.517,1.517,0,0,0,1.354.713,1.7,1.7,0,0,0,1.661-.995V34.375a1.675,1.675,0,0,0-1.644-.995Q171.076,33.38,171.076,36.364Z" transform="translate(701.711 2695.07)" fill="#12263f"/>
  </g>
</svg>
