<svg xmlns="http://www.w3.org/2000/svg" xmlns:xlink="http://www.w3.org/1999/xlink" width="162.25" height="162.25" viewBox="0 0 162.25 162.25">
  <defs>
    <clipPath id="clip-path">
      <rect id="Rectángulo_459663" data-name="Rectángulo 459663" width="79.601" height="82.333" fill="#6a2874"/>
    </clipPath>
  </defs>
  <g id="Grupo_1209799" data-name="Grupo 1209799" transform="translate(-249.711 -2952)">
    <g id="Grupo_1209790" data-name="Grupo 1209790" transform="translate(-55.436 -7060.459)">
      <g id="Grupo_1177470" data-name="Grupo 1177470" transform="translate(305.146 10012.421)">
        <circle id="Elipse_13609" data-name="Elipse 13609" cx="81.125" cy="81.125" r="81.125" transform="translate(0 0.038)" fill="#f6e1fe"/>
        <g id="Grupo_1207827" data-name="Grupo 1207827" transform="translate(35.635 35.96)">
          <g id="Grupo_1099618" data-name="Grupo 1099618" transform="translate(-4.635 -3.922)">
            <rect id="Rectángulo_401104" data-name="Rectángulo 401104" width="90" height="90" transform="translate(0)" fill="none"/>
          </g>
          <g id="Grupo_1209798" data-name="Grupo 1209798" transform="translate(0.068 -0.092)">
            <g id="Grupo_1099618-2" data-name="Grupo 1099618" transform="translate(-0.703 0.171)">
              <rect id="Rectángulo_401104-2" data-name="Rectángulo 401104" width="81.353" height="82.333" transform="translate(0)" fill="none"/>
            </g>
            <g id="Grupo_1209800" data-name="Grupo 1209800" transform="translate(0.297 0.171)">
              <g id="Grupo_1209473" data-name="Grupo 1209473" clip-path="url(#clip-path)">
                <path id="Trazado_1270726" data-name="Trazado 1270726" d="M27.21,65.617c5.666-1.039,6.285,6.059,5.872,10.006-.434,4.157-7.524,15.64-10.085,19.59-2.428,3.745-9.553,14.131-13.767,15.177A7.462,7.462,0,0,1,.023,102.4c.322-4.232,7.254-9.121,9.856-12.276.65-4.688.406-8.34,4.423-11.387A48.252,48.252,0,0,1,23.38,73.7c1.067-2.216.695-7.513,3.829-8.087m.338,2.649c-.52.334-1.362,7.031-1.8,8.294-2.126,6.148-15.1,15.856-19.885,21.221-1.07,1.2-3.017,3.281-3.158,4.873a4.747,4.747,0,0,0,6.89,4.7c3.933-2.162,12-14.592,14.47-18.853,1.638-2.83,6.029-10.266,6.345-13.113.18-1.614.271-5.972-1.339-6.879-.354-.2-1.206-.444-1.524-.239M12.926,87.206a60.625,60.625,0,0,0,8.5-8.641c.175-.23.917-1.134.733-1.332-4.363,2.243-9.324,4.176-9.238,9.972" transform="translate(0 -49.579)" fill="#6a2874"/>
                <path id="Trazado_1270727" data-name="Trazado 1270727" d="M194.95,65.667c5.146-.875,4.332,5.014,5.666,8.082,3.26,1.648,8.509,3.839,10.937,6.575,1.962,2.211,2.116,7.008,2.559,9.846,2.6,3.154,9.534,8.043,9.856,12.276.433,5.683-5.36,10.187-10.542,7.382-5.492-2.973-12.51-14.692-15.778-20.22-2.1-3.558-6.4-10.238-6.765-14.153-.3-3.219-.019-9.093,4.067-9.787m1.493,2.648c-.318-.2-1.17.04-1.524.239-1.61.907-1.518,5.265-1.339,6.879.293,2.636,2.847,6.752,4.18,9.2a125.564,125.564,0,0,0,8.731,13.89c1.617,2.216,6.524,8.989,9.092,9.392a4.868,4.868,0,0,0,5.7-5.211c-.141-1.591-2.088-3.673-3.158-4.873-4.785-5.365-17.758-15.074-19.885-21.221-.437-1.263-1.28-7.959-1.8-8.293m14.622,18.941c.086-5.8-4.874-7.729-9.238-9.972-.184.2.558,1.1.733,1.332a61.854,61.854,0,0,0,8.5,8.641" transform="translate(-144.39 -49.629)" fill="#6a2874"/>
                <path id="Trazado_1270728" data-name="Trazado 1270728" d="M138.724,36.532c-2.54.988-4.658-.814-7.176-.968-2.731-.167-6.565.6-8.251,2.93-.619.855-.978,3-2.562,2.3-2.384-1.065,1.329-5.1,2.589-5.918,6.144-3.974,9.773-.485,15.267-1.028.708-.07,1.742-1.05,2.439.262.643,1.211.965,7.216-1.394,6.767-1.887-.359-.591-3-.913-4.342" transform="translate(-90.777 -24.931)" fill="#6a2874"/>
                <path id="Trazado_1270729" data-name="Trazado 1270729" d="M236.98,229.087c1.114.051,1.372,1.333,1.347,2.22-.1,3.618-.755,7.324-.984,10.942-.261,4.12-.333,8.27-.494,12.4a1.408,1.408,0,0,1-1.294,1.048,1.88,1.88,0,0,1-1.362-1.544c.189-8.04.9-16.043,1.45-24.061.028-.57.834-1.026,1.338-1" transform="translate(-177.229 -173.365)" fill="#6a2874"/>
                <path id="Trazado_1270730" data-name="Trazado 1270730" d="M77.418,229.087c.5-.023,1.31.433,1.338,1,.527,8.019,1.272,16.02,1.45,24.061a1.88,1.88,0,0,1-1.362,1.544,1.408,1.408,0,0,1-1.294-1.048c-.161-4.127-.233-8.277-.494-12.4-.229-3.618-.883-7.324-.984-10.942-.025-.888.233-2.169,1.347-2.22" transform="translate(-57.567 -173.365)" fill="#6a2874"/>
                <path id="Trazado_1270731" data-name="Trazado 1270731" d="M134.391,127.688c2.016,2.174,6.011,2.37,8.413.677,1.323-.933,2.013-3.668,3.746-2.556.99.635.044,2.267-.415,2.967-2.877,4.387-10.665,4.5-13.874.434-.776-.982-2.059-3.509,0-3.62,1.48-.08,1.342,1.249,2.129,2.1" transform="translate(-99.249 -95.01)" fill="#6a2874"/>
                <path id="Trazado_1270732" data-name="Trazado 1270732" d="M137.219,76.457c2.154-.651,3.784,1.188,5.791,1.188,1.4,0,6.66-2.943,6.671.1.005,1.555-1.8,1.175-2.672,1.446-1.989.619-2.8,1.421-5.194,1.087a15.934,15.934,0,0,1-2.618-1.03c-.794-.255-1.747,0-2.379-.538a1.362,1.362,0,0,1,.4-2.255" transform="translate(-103.209 -57.754)" fill="#6a2874"/>
                <path id="Trazado_1270733" data-name="Trazado 1270733" d="M198.564,7.647a1.415,1.415,0,0,1-2.333-1.213c.054-.323,2.659-5.57,2.907-5.872A1.33,1.33,0,0,1,201.5,1.689c-.057.327-2.7,5.727-2.939,5.958" transform="translate(-148.487 0)" fill="#6a2874"/>
                <path id="Trazado_1270734" data-name="Trazado 1270734" d="M112.155,7.647c-.239-.23-2.882-5.631-2.939-5.958A1.33,1.33,0,0,1,111.581.561c.251.306,2.854,5.544,2.9,5.868a1.422,1.422,0,0,1-2.331,1.217" transform="translate(-82.63 0)" fill="#6a2874"/>
                <path id="Trazado_1270735" data-name="Trazado 1270735" d="M66.1,38.644a1.888,1.888,0,0,1,1.28.089c.653.243,4.61,3.011,4.627,3.631a1.483,1.483,0,0,1-2,1.288,40.552,40.552,0,0,1-4.075-2.738c-.978-.936-.956-1.423.172-2.269" transform="translate(-49.36 -29.188)" fill="#6a2874"/>
                <path id="Trazado_1270736" data-name="Trazado 1270736" d="M239.235,38.727c1.237-.332,2.43.67,1.781,1.777a35.015,35.015,0,0,1-4.405,3.142c-1.465.545-2.753-.637-1.7-1.938a35.784,35.784,0,0,1,4.319-2.98" transform="translate(-177.483 -29.258)" fill="#6a2874"/>
              </g>
            </g>
          </g>
        </g>
      </g>
      <ellipse id="Elipse_13678" data-name="Elipse 13678" cx="19.243" cy="19.243" rx="19.243" ry="19.243" transform="translate(305.965 10136.186)" fill="#da9dfe"/>
      <g id="Grupo_1207826" data-name="Grupo 1207826" transform="translate(305.146 10138.641)">
        <path id="Trazado_998481" data-name="Trazado 998481" d="M0,13.854q4.835.419,9.664.868l-.27.112,1.389-2.491a.373.373,0,0,1,.426-.131.271.271,0,0,1,.2.185l0,.01,1.186,5.359L11.7,17.7l1.915-4.337,1.934-4.332,1.94-4.33L19.452.377A.822.822,0,0,1,20.394.03.578.578,0,0,1,20.9.6V.609l-.77,7.01-.812,7.007-.823,7.006-.854,7L16.044,28.4c1.235-2.953,2.506-5.9,3.765-8.845l1.893-4.42,1.917-4.414,0-.011a.7.7,0,0,1,.8-.305.505.505,0,0,1,.439.47l-.29,5.628-.314,5.627-.826-.118,2.776-5.324,0-.009a.291.291,0,0,1,.3-.125l5.25.671,5.247.689-5.291-.467-5.287-.485.3-.133-2.494,5.4a.472.472,0,0,1-.54.2.338.338,0,0,1-.286-.3v-.012l.079-5.631.1-5.631L24.836,11,23.051,15.45l-1.809,4.44c-1.209,2.959-2.407,5.921-3.64,8.874a.892.892,0,0,1-1.022.4c-.373-.087-.6-.356-.57-.635v0l.812-7.007.842-7,.854-7,.9-7,1.444.232-2.048,4.3-2.069,4.3-2.074,4.3-2.093,4.29-.005.011a.513.513,0,0,1-.588.2.382.382,0,0,1-.3-.278l-.924-5.388.624.063L9.86,14.986l0,.007a.273.273,0,0,1-.265.1q-4.8-.609-9.59-1.244" transform="translate(0 4.51) rotate(-7)" fill="#fff"/>
      </g>
    </g>
    <path id="Trazado_1271486" data-name="Trazado 1271486" d="M79.8,53.239V66.476a.9.9,0,0,1-.9.895H68.265a.9.9,0,0,0-.9.9V78.909a.9.9,0,0,1-.9.9H53.239a.9.9,0,0,1-.9-.9V68.266a.9.9,0,0,0-.895-.9H40.767a.9.9,0,0,1-.9-.895V53.239a.9.9,0,0,1,.9-.9H51.449a.9.9,0,0,0,.895-.895V40.768a.9.9,0,0,1,.9-.9H66.475a.9.9,0,0,1,.9.9V51.449a.9.9,0,0,0,.9.895H78.908a.9.9,0,0,1,.9.9" transform="translate(327.754 2916.793)" fill="#8d1939"/>
  </g>
</svg>
