<svg xmlns="http://www.w3.org/2000/svg" xmlns:xlink="http://www.w3.org/1999/xlink" width="96" height="96" viewBox="0 0 96 96">
  <defs>
    <clipPath id="clip-path">
      <rect id="Rectángulo_455595" data-name="Rectángulo 455595" width="96" height="96" fill="none"/>
    </clipPath>
    <clipPath id="clip-path-2">
      <rect id="Rectángulo_459655" data-name="Rectángulo 459655" width="54.349" height="54.225" fill="#fff"/>
    </clipPath>
  </defs>
  <g id="Grupo_1208625" data-name="Grupo 1208625" transform="translate(-735.746 -9118)">
    <g id="Grupo_1180407" data-name="Grupo 1180407" transform="translate(735.746 9117.971)">
      <g id="Grupo_1179172" data-name="Grupo 1179172" transform="translate(0 0.03)" clip-path="url(#clip-path)">
        <path id="Trazado_998483" data-name="Trazado 998483" d="M92.627,52.5A40.125,40.125,0,1,1,52.5,12.377,40.125,40.125,0,0,1,92.627,52.5" transform="translate(-4.488 -4.517)" fill="#8d1939"/>
        <path id="Trazado_998485" data-name="Trazado 998485" d="M90.973,46.487A44.486,44.486,0,1,1,46.487,2,44.486,44.486,0,0,1,90.973,46.487Z" transform="translate(1.527 1.499)" fill="none" stroke="#8d1939" stroke-miterlimit="10" stroke-width="4"/>
      </g>
    </g>
    <g id="Grupo_1180408" data-name="Grupo 1180408" transform="translate(755.746 9137)">
      <g id="Grupo_1099618" data-name="Grupo 1099618" transform="translate(0 -0.169)">
        <rect id="Rectángulo_401104" data-name="Rectángulo 401104" width="56.349" height="57.028" transform="translate(0)" fill="none"/>
      </g>
      <g id="Grupo_1209460" data-name="Grupo 1209460" transform="translate(1 1.831)">
        <g id="Grupo_1209459" data-name="Grupo 1209459" clip-path="url(#clip-path-2)">
          <path id="Trazado_1270687" data-name="Trazado 1270687" d="M48.6,45.16a3.352,3.352,0,0,1-3.273,3.272c1.418,4.69-1.994,7.048-6.286,5.117-3.147-1.416-6.4-5.436-5.826-9.052.173-1.086,1.351-1.672.018-2.427A22.437,22.437,0,0,1,1.245,15.018c.307-.891,2.328-5.288,3-5.58a.811.811,0,0,1,1.184.869A26.485,26.485,0,0,1,3.814,13.07C-3.665,27.842,8.385,44.855,24.687,43.133a21.119,21.119,0,0,0,7.048-2.139c.126-.075.253.029.2-.272-.03-.182-1.839-2.463-2.156-2.99a12.067,12.067,0,0,1-.967-2.072A14.764,14.764,0,0,1,8.146,26.034C3.943,8.559,28.625.532,35.7,16.4c.417.935,1.674,4.578,1.078,5.337-1.7,1.026-1.56-1.8-1.894-2.964C31.554,7.186,15.091,6.159,10.361,17.281,5.558,28.579,17.554,39.676,28.356,34a5.774,5.774,0,0,0-.092-1.6c-.323-.838-2.719-2.323-3.188-3.356l-.215-.075c-6.48,2.345-12.248-5.022-8.034-10.67,4.625-6.2,14.406-1.109,12.159,6.239l3.574,3.731c1.489-.1,1.45.181,1.981-1.135.264-.654.624-2.611.83-2.909a.879.879,0,0,1,1.081-.167c.916.45-.418,3.763-.776,4.508.774.445,1.609.752,2.381,1.207.72.425,2.188,1.8,2.7,1.98.284.1.184-.069.25-.183,3.069-5.372,2.61-13.207-.163-18.6A20.826,20.826,0,0,0,9.674,6c-.444.343-2.3,2.161-2.463,2.212-1.09.331-1.433-.571-.824-1.449,1-1.448,5.123-3.983,6.8-4.729,18.656-8.3,37.333,10.245,29.723,29.256-.448,1.119-1.394,1.706,0,2.616,3.668-2.618,8.659,1.111,10.44,4.4,2.345,4.326.466,8.385-4.752,6.856m-26.986-28a5.555,5.555,0,0,0-4.333,3.611,5.318,5.318,0,0,0,6.94,6.636A3.345,3.345,0,0,1,27.5,23.987a5.416,5.416,0,0,0-5.889-6.823M29.2,27.184c-.766-.715-1.753-2.351-2.956-1.033-1.453,1.591,1.851,3.353,2.659,4.52l1.943-1.793c.056-.23-1.35-1.419-1.645-1.695M47.009,44.412c-3.152-1.884-5.781-5.323-5.025-9.217-2.049-2.414-8.431-7.806-11.3-4.131-2.583,3.312,2.221,8.513,4.59,10.682l.3.131c2.846-.714,5.805,1.071,7.646,3.125.269.3,1.27,1.792,1.425,1.846,1.29.448,2.705-1.155,2.356-2.436m-1.877-9.806c-3.232.52-1.114,4.882.2,6.422,1.375,1.611,6.453,4.879,7.365,1.456.862-3.237-4.314-8.4-7.566-7.878m-8.881,8.721c-3.193.659-.675,5.3.67,6.735,1.379,1.469,6.209,4.368,7.054,1.144.871-3.326-4.4-8.565-7.724-7.879" transform="translate(0 0)" fill="#fff"/>
        </g>
      </g>
    </g>
  </g>
</svg>
