<svg xmlns="http://www.w3.org/2000/svg" xmlns:xlink="http://www.w3.org/1999/xlink" width="162.25" height="162.25" viewBox="0 0 162.25 162.25">
  <defs>
    <clipPath id="clip-path">
      <rect id="Rectángulo_459857" data-name="Rectángulo 459857" width="65.128" height="86.865" fill="#6a2874"/>
    </clipPath>
  </defs>
  <g id="Grupo_1209802" data-name="Grupo 1209802" transform="translate(-249.711 -2952)">
    <g id="Grupo_1209790" data-name="Grupo 1209790" transform="translate(-55.436 -7060.459)">
      <g id="Grupo_1177470" data-name="Grupo 1177470" transform="translate(305.146 10012.421)">
        <circle id="Elipse_13609" data-name="Elipse 13609" cx="81.125" cy="81.125" r="81.125" transform="translate(0 0.038)" fill="#f6e1fe"/>
        <g id="Grupo_1207827" data-name="Grupo 1207827" transform="translate(35.635 35.96)">
          <g id="Grupo_1099618" data-name="Grupo 1099618" transform="translate(-4.943 -3.758)">
            <rect id="Rectángulo_401104" data-name="Rectángulo 401104" width="90" height="90" transform="translate(0)" fill="none"/>
          </g>
          <g id="Grupo_1209805" data-name="Grupo 1209805" transform="translate(8.057 -2.758)" clip-path="url(#clip-path)">
            <path id="Trazado_1271489" data-name="Trazado 1271489" d="M24.482,46.042,23.417,63.019c-1.285,2.664-3.552,5.281-4.792,7.9a1.848,1.848,0,0,0-.348,1.235l3.687,1.731c1.539-3.417,4.57-6.628,6.05-10,1.468-3.345,1.967-7.566,3.469-10.965,1-1.3,1.893-1.095,2.949-.029a66.522,66.522,0,0,1,5.438,7,4.542,4.542,0,0,1,.681,1.313l-1.884,13.95,4.22.488c.279-.266.9-6.428,1.53-7.552a1.7,1.7,0,0,1,3.154,1.14c-.157,2.148-1.152,4.862-1.428,7.068l.1.345a6.314,6.314,0,0,1,3.139,5.606c-.042,1.577-.383,4.627-2.364,4.612-3.488-.025-8.251-1.942-11.9-2.064a1.82,1.82,0,0,1-1.37-1.986c.072-2.046,1.065-5.35,1.4-7.567.645-4.3,1.187-8.612,1.8-12.915-.083-1.4-2.514-3.609-3.384-4.843-.978,2.692-1.467,5.656-2.684,8.263-1.551,3.324-4.358,6.564-6.107,9.843-.194.788.715,1.519,1.026,2.351a6.729,6.729,0,0,1,.432,2.3c-.064,1.494-2.179,6.2-3.988,5.756l-11.208-6.48c-.722-.965-.315-1.685.123-2.634,2.335-5.058,6.472-10.075,9.032-15.105.687-9.415.313-18.913,2.3-28.183-2.539,2.342-3.26,3.788-7.085,3.48A78.18,78.18,0,0,1,3.261,34.788a5.184,5.184,0,0,1-1.92-8.279c3.2-3.321,9.535-.055,13.512.083,4.875-3.844,8.385-10.986,15.353-10.912a10.752,10.752,0,0,1-.748-9.453c-4.215.7-9.194.849-13.105,2.694-.633.3-2.248.845-1.59,1.672,1.393,1.752,7.028,1.348,7.157,3.759.169,3.13-4.876,1.065-6.392.455-2.781-1.119-6.225-3.338-3.944-6.673,1.861-2.72,8.89-4.11,12.061-4.612,2.521-.4,5.818-.308,8.128-.831.662-.15,1.952-1.4,2.916-1.812A10.381,10.381,0,0,1,42.22.558c1.333.457,3.323,2.21,4.088,2.382,1.652.371,4.461.322,6.35.618,2.958.463,11.1,2.136,12.193,5.227,1.446,4.085-3.473,5.869-6.525,6.773-.957.283-4.536,1.215-5.291,1.081a1.815,1.815,0,0,1-1.378-2.272c.4-1.326,5.64-2,7.157-2.551.9-.326,2.4-.736,2.736-1.705-.355-1.7-11.28-3.637-13.176-3.633A10.343,10.343,0,0,1,45.388,18.05c-.092.537.108.288.343.391a11.6,11.6,0,0,1,4.132,2.594c4.131,6.933,10.764,13.809,14.539,20.8a5.1,5.1,0,0,1-7.3,6.805c-3.83-4.434-6.808-9.6-10.344-14.287-.393.229-.3.533-.378.861a64.157,64.157,0,0,0-1.507,8.964c.01,2.4,2.748,8.584,2.208,10.4a1.779,1.779,0,0,1-2.952.5l-2.6-9.036ZM37.357,3.548c-6.943,1.177-6.951,12.47.466,13.351,10.463,1.243,10.238-15.165-.466-13.351M24.482,42.807H41.653L43.96,29.312c.3-1.406,1.72-1.491,2.847-.864l8.782,12.51c.547.29,2.482-1.323,2.981-1.76L47.978,24.164a7.79,7.79,0,0,0-3.783-2.687,85.049,85.049,0,0,0-13.354-2.322c-2.756-.118-4.109.612-6.119,2.365l-8.455,8.465c-.88.613-5.628-.97-5.969-.618L9.8,32.6c1.9-.022,5.123,1.346,6.831,1.234a3.589,3.589,0,0,0,1.5-.736c1.851-1.327,4.529-5.278,6.255-6.187a1.635,1.635,0,0,1,2.494,1.537ZM7.064,28.624c-4.456-1.471-5.262,3.694-.5,3.231ZM61.24,45.718c1.28-1.036-.043-2.717-.8-3.653l-2.595,1.764c.171,1.506,1.987,3.028,3.393,1.89M16.413,74.913,14.882,77.9,22,81.772c2.833-3.771-3.291-5.19-5.584-6.86m29.47,8.208c.912-4.912-4.873-3.786-7.961-4.729l-.471,3.092.21.275Z" transform="translate(0 0)" fill="#6a2874"/>
            <path id="Trazado_1271490" data-name="Trazado 1271490" d="M182.84,240.243c1.516-1.231,3.909.971,2.409,2.529-1.72,1.785-4.162-1.1-2.409-2.529" transform="translate(-136.885 -180.188)" fill="#6a2874"/>
          </g>
        </g>
      </g>
      <ellipse id="Elipse_13678" data-name="Elipse 13678" cx="19.243" cy="19.243" rx="19.243" ry="19.243" transform="translate(305.965 10136.186)" fill="#da9dfe"/>
      <g id="Grupo_1207826" data-name="Grupo 1207826" transform="translate(305.146 10138.641)">
        <path id="Trazado_998481" data-name="Trazado 998481" d="M0,13.854q4.835.419,9.664.868l-.27.112,1.389-2.491a.373.373,0,0,1,.426-.131.271.271,0,0,1,.2.185l0,.01,1.186,5.359L11.7,17.7l1.915-4.337,1.934-4.332,1.94-4.33L19.452.377A.822.822,0,0,1,20.394.03.578.578,0,0,1,20.9.6V.609l-.77,7.01-.812,7.007-.823,7.006-.854,7L16.044,28.4c1.235-2.953,2.506-5.9,3.765-8.845l1.893-4.42,1.917-4.414,0-.011a.7.7,0,0,1,.8-.305.505.505,0,0,1,.439.47l-.29,5.628-.314,5.627-.826-.118,2.776-5.324,0-.009a.291.291,0,0,1,.3-.125l5.25.671,5.247.689-5.291-.467-5.287-.485.3-.133-2.494,5.4a.472.472,0,0,1-.54.2.338.338,0,0,1-.286-.3v-.012l.079-5.631.1-5.631L24.836,11,23.051,15.45l-1.809,4.44c-1.209,2.959-2.407,5.921-3.64,8.874a.892.892,0,0,1-1.022.4c-.373-.087-.6-.356-.57-.635v0l.812-7.007.842-7,.854-7,.9-7,1.444.232-2.048,4.3-2.069,4.3-2.074,4.3-2.093,4.29-.005.011a.513.513,0,0,1-.588.2.382.382,0,0,1-.3-.278l-.924-5.388.624.063L9.86,14.986l0,.007a.273.273,0,0,1-.265.1q-4.8-.609-9.59-1.244" transform="translate(0 4.51) rotate(-7)" fill="#fff"/>
      </g>
    </g>
    <path id="Trazado_1271486" data-name="Trazado 1271486" d="M79.8,53.239V66.476a.9.9,0,0,1-.9.895H68.265a.9.9,0,0,0-.9.9V78.909a.9.9,0,0,1-.9.9H53.239a.9.9,0,0,1-.9-.9V68.266a.9.9,0,0,0-.895-.9H40.767a.9.9,0,0,1-.9-.895V53.239a.9.9,0,0,1,.9-.9H51.449a.9.9,0,0,0,.895-.895V40.768a.9.9,0,0,1,.9-.9H66.475a.9.9,0,0,1,.9.9V51.449a.9.9,0,0,0,.9.895H78.908a.9.9,0,0,1,.9.9" transform="translate(327.754 2916.793)" fill="#8d1939"/>
  </g>
</svg>
