<svg xmlns="http://www.w3.org/2000/svg" xmlns:xlink="http://www.w3.org/1999/xlink" width="96" height="96" viewBox="0 0 96 96">
  <defs>
    <clipPath id="clip-path">
      <rect id="Rectángulo_455595" data-name="Rectángulo 455595" width="96" height="96" fill="none"/>
    </clipPath>
    <clipPath id="clip-path-2">
      <rect id="Rectángulo_459661" data-name="Rectángulo 459661" width="52" height="51.75" fill="#fff"/>
    </clipPath>
  </defs>
  <g id="Grupo_1208629" data-name="Grupo 1208629" transform="translate(-735.746 -9118)">
    <g id="Grupo_1180407" data-name="Grupo 1180407" transform="translate(735.746 9117.971)">
      <g id="Grupo_1179172" data-name="Grupo 1179172" transform="translate(0 0.03)" clip-path="url(#clip-path)">
        <path id="Trazado_998483" data-name="Trazado 998483" d="M92.627,52.5A40.125,40.125,0,1,1,52.5,12.377,40.125,40.125,0,0,1,92.627,52.5" transform="translate(-4.488 -4.517)" fill="#8d1939"/>
        <path id="Trazado_998485" data-name="Trazado 998485" d="M90.973,46.487A44.486,44.486,0,1,1,46.487,2,44.486,44.486,0,0,1,90.973,46.487Z" transform="translate(1.527 1.499)" fill="none" stroke="#8d1939" stroke-miterlimit="10" stroke-width="4"/>
      </g>
    </g>
    <g id="Grupo_1180408" data-name="Grupo 1180408" transform="translate(755.746 9137)">
      <g id="Grupo_1099618" data-name="Grupo 1099618" transform="translate(0 -0.05)">
        <rect id="Rectángulo_401104" data-name="Rectángulo 401104" width="56.349" height="57.028" transform="translate(0)" fill="none"/>
      </g>
      <g id="Grupo_1209470" data-name="Grupo 1209470" transform="translate(2 2.951)">
        <g id="Grupo_1209469" data-name="Grupo 1209469" clip-path="url(#clip-path-2)">
          <path id="Trazado_1270701" data-name="Trazado 1270701" d="M46.332,13.242,39.626,14.8a2.506,2.506,0,0,1-4.932-.558c-.339-3.841.255-8.188.02-12.084.645-2.78,4.01-2.892,5-.243,4.553,1.21,9.531,2.008,14,3.411a3.416,3.416,0,0,1,2.177,1.344c1.513,2.216-.35,4.771-2.821,4.735v1.989h12.55A5.942,5.942,0,0,1,67.763,3.68c6.077-2.119,10.514,5.42,5.965,9.866,3.624.6,5.854,3.744,6.12,7.273.15,1.993.25,8.112-.3,9.8-.583,1.8-2.271,2.585-4,2.917l.013,15.444a3.3,3.3,0,0,1-5.743,1.609,3.364,3.364,0,0,1-4.591.453,3.738,3.738,0,0,1-1.3-2.066V44.158H45.567v3.061L33.02,40.867l12.547-6.352v3.061H63.933V19.746a3.962,3.962,0,0,0-.462-.456l-10.4-.072a3.359,3.359,0,0,1-5.52,2.521,4.1,4.1,0,0,1-1.221-2.3ZM37.107,1.635a.953.953,0,0,0-.726.967c.257,3.652-.331,7.738,0,11.335.137,1.511,1.539,1.466,1.693.149-.255-3.654.328-7.734,0-11.335-.05-.558-.249-1.225-.967-1.116M39.751,3.6v9.489l9.958-2.673-.03-4.347Zm33,8.517c4.077-4.2-2.859-10.208-6.374-5.379-3,4.129,2.832,9.031,6.374,5.379M51.383,10.181c1.055-.371,3.3-.334,3.357-1.773.062-1.566-2.26-1.547-3.357-1.9Zm0,9.412V11.864l-3.276.9c-.026,1.926-.279,4.291-.1,6.221.229,2.436,3.068,2.33,3.373.606m16.529-4.515H53.066v2.449H63.55c.969,0,2.063,1.4,2.067,2.372l.009,28.764a1.611,1.611,0,0,0,2.753.936,4.521,4.521,0,0,0,.6-.926V28.394h1.684V48.979c0,.458,1.14,1.127,1.607,1.127s1.607-.669,1.607-1.127V19.211h1.684v12.55a2.771,2.771,0,0,0,2.589-2.386,58.755,58.755,0,0,0,.019-8.563,5.916,5.916,0,0,0-6.587-5.733l.729,7.711-2.621,2.532L67.3,22.8Zm1.988,0c-.4-.034-.253-.016-.3.233-.054.29-.1.638-.14.933-.2,1.531-.448,3.819-.489,5.338-.019.683.2.9.722,1.29.247.043.9-.667.828-.975ZM43.883,39.26l-.075-1.989L36.69,40.792l6.968,3.668c.309.043.2-.012.225-.223.066-.5-.047-1.1,0-1.61H63.933V39.26Z" transform="translate(-27.966 0)" fill="#fff"/>
          <path id="Trazado_1270702" data-name="Trazado 1270702" d="M12.567,141.582H26.035l-.021,1.433-.361.251L11.027,143.2l-.122-.184c-.093-.487.042-1.036-.021-1.512-.028-.213.084-.265-.227-.225l-6.965,3.669,7.117,3.521.075-1.989H34.3v1.684H12.567v3.061L.02,144.873l12.547-6.352Z" transform="translate(-0.017 -117.321)" fill="#fff"/>
          <path id="Trazado_1270703" data-name="Trazado 1270703" d="M10.5,63.715c.3.258.983,1.179.772,1.5a38.939,38.939,0,0,1-3.912,2.23c-.491.123-1.123-1.134-1-1.319Z" transform="translate(-5.375 -53.964)" fill="#fff"/>
          <path id="Trazado_1270704" data-name="Trazado 1270704" d="M7.143,20.663l4.121,2.27c.222.344-.464,1.146-.694,1.469L6.348,22.023c-.133-.2.576-1.32.795-1.36" transform="translate(-5.363 -17.501)" fill="#fff"/>
          <rect id="Rectángulo_459660" data-name="Rectángulo 459660" width="5.051" height="1.53" transform="translate(0 7.579)" fill="#fff"/>
          <path id="Trazado_1270705" data-name="Trazado 1270705" d="M181.589,158.516V160.2l-1.541-.067c-.289-.2-.087-1.24-.144-1.618Z" transform="translate(-152.356 -134.255)" fill="#fff"/>
          <path id="Trazado_1270706" data-name="Trazado 1270706" d="M203.589,158.516V160.2l-1.541-.067c-.289-.2-.087-1.24-.144-1.618Z" transform="translate(-170.989 -134.255)" fill="#fff"/>
        </g>
      </g>
    </g>
  </g>
</svg>
