<svg xmlns="http://www.w3.org/2000/svg" xmlns:xlink="http://www.w3.org/1999/xlink" width="96" height="96" viewBox="0 0 96 96">
  <defs>
    <clipPath id="clip-path">
      <rect id="Rectángulo_455595" data-name="Rectángulo 455595" width="96" height="96" fill="none"/>
    </clipPath>
    <clipPath id="clip-path-2">
      <rect id="Rectángulo_459657" data-name="Rectángulo 459657" width="54.193" height="50.437" fill="#fff"/>
    </clipPath>
  </defs>
  <g id="Grupo_1207710" data-name="Grupo 1207710" transform="translate(-735.746 -9118)">
    <g id="Grupo_1180407" data-name="Grupo 1180407" transform="translate(735.746 9117.971)">
      <g id="Grupo_1179172" data-name="Grupo 1179172" transform="translate(0 0.03)" clip-path="url(#clip-path)">
        <path id="Trazado_998483" data-name="Trazado 998483" d="M92.627,52.5A40.125,40.125,0,1,1,52.5,12.377,40.125,40.125,0,0,1,92.627,52.5" transform="translate(-4.488 -4.517)" fill="#8d1939"/>
        <path id="Trazado_998485" data-name="Trazado 998485" d="M90.973,46.487A44.486,44.486,0,1,1,46.487,2,44.486,44.486,0,0,1,90.973,46.487Z" transform="translate(1.527 1.499)" fill="none" stroke="#8d1939" stroke-miterlimit="10" stroke-width="4"/>
      </g>
    </g>
    <g id="Grupo_1180408" data-name="Grupo 1180408" transform="translate(755.746 9137)">
      <g id="Grupo_1099618" data-name="Grupo 1099618" transform="translate(0 -0.05)">
        <rect id="Rectángulo_401104" data-name="Rectángulo 401104" width="56.349" height="57.028" transform="translate(0)" fill="none"/>
      </g>
      <g id="Grupo_1209464" data-name="Grupo 1209464" transform="translate(1 2.95)">
        <g id="Grupo_1209463" data-name="Grupo 1209463" clip-path="url(#clip-path-2)">
          <path id="Trazado_1270693" data-name="Trazado 1270693" d="M18.172.2c5.6-.571,11.962.33,17.641-.043a12.649,12.649,0,0,1,9.455,6.216c2.359,3.679,5.084,8.416,7.1,12.3,4.187,8.064.39,12.452-3.569,19.294C45.6,43.494,43,49.681,35.666,50.275c-8.424-.953-19.963,2.988-25.815-4.92-2.286-3.09-4.8-7.97-6.725-11.429-3.175-5.72-4.5-8.986-1.241-15.26,2-3.85,4.7-8.547,7.039-12.2C11.038,3.154,14.1.611,18.172.2m.308,1.549c-3.6.382-6.274,2.567-8.159,5.5-2.327,3.615-5.07,8.378-7.039,12.2-2.223,4.317-2.224,7.218,0,11.536,1.977,3.84,4.753,8.677,7.1,12.3,5.681,8.766,16.184,4.4,24.975,5.449a11.106,11.106,0,0,0,8.576-5.544c2.337-3.63,5.129-8.46,7.093-12.3,2.178-4.261,2.127-7.2-.054-11.435-1.981-3.847-4.749-8.671-7.1-12.3A11.123,11.123,0,0,0,35.5,1.7c-5.463.376-11.645-.531-17.023.04" transform="translate(0 0)" fill="#fff"/>
          <path id="Trazado_1270694" data-name="Trazado 1270694" d="M121.616,76.252a3.791,3.791,0,0,1,4.549,4.626,24.1,24.1,0,0,1-2.209,4.151.71.71,0,0,1-1.174-.248c-.374-.826,1.4-3.062,1.735-4a2.151,2.151,0,0,0-2.2-2.986c-1.453.129-2.061,1.921-2.874,2.874-1.888,2.212-4.488.968-6.176,3.91-2.97,5.175,3.092,9.379,6.554,4.847.588-.769.989-2.54,2.031-2.486,1.377.071.1,2.108-.264,2.7-1.566,2.55-3.358,3.181-6.26,3.219-1.34.018-1.868.19-3.1.3a10.489,10.489,0,0,1-11.41-9.843c-.268-4.241.214-8.767.009-13.04a3.232,3.232,0,0,1,4.806-2.561,3.329,3.329,0,0,1,4.811-2.483,3.161,3.161,0,0,1,6.209-.931,3.243,3.243,0,0,1,4.442,1.064,6.413,6.413,0,0,1,.521,1.341ZM115.254,74.7V65c0-.7-.951-1.437-1.642-1.465-.527-.021-1.616.693-1.616,1.154v9.543a10.9,10.9,0,0,1,3.258.465m4.291-8.791a1.626,1.626,0,0,0-2.707.677l-.035,8.78c.062.254,1.364.553.788,1.438-.589.906-1.412-.014-2.076-.27a11.694,11.694,0,0,0-8.214-.09c-.677.252-1.876,1.345-2.365.269-.349-.768.581-.874.695-1.474a34.267,34.267,0,0,0-.068-5.2c-.485-1.688-2.989-1.48-3.193.7a97.239,97.239,0,0,0,0,12.271,8.783,8.783,0,0,0,10.093,8.448c-3.059-3.339-1.284-9.108,2.865-10.556.611-.213,1.309-.237,1.876-.452,1.164-.442,1.809-2.206,2.624-3.117-.146-3.3.482-7.423.091-10.629a1.4,1.4,0,0,0-.37-.794M107.185,74.7l3.191-.611c-.109-1.607.514-5.618-.266-6.891a1.641,1.641,0,0,0-2.924.6Z" transform="translate(-85.102 -52.362)" fill="#fff"/>
          <path id="Trazado_1270695" data-name="Trazado 1270695" d="M48.769,34.166c5.319-.516,11.591.113,16.952.179a7.167,7.167,0,0,1,4.153,2.985c2.049,4.508,6.231,9.4,7.971,13.907a7.791,7.791,0,0,1,.092,5.114c-2.778,4.468-5.129,9.949-8.125,14.219a7.249,7.249,0,0,1-5.721,3.124,127.954,127.954,0,0,1-14.909,0A7.236,7.236,0,0,1,43.4,70.476c-2.921-4.25-5.217-9.5-7.971-13.907-1.924-4.8,2.219-8.555,4.083-12.576a.9.9,0,0,1,.952-.385c.413.224.728.588.51,1.065l-4.2,7.447a5.981,5.981,0,0,0,.67,4.913c2.167,4.273,5.13,8.392,7.347,12.669a5.876,5.876,0,0,0,4.552,2.43,115.314,115.314,0,0,0,14.434.008,5.882,5.882,0,0,0,4.7-2.439c2.964-4.072,5.236-9.722,8.017-14.016a5.98,5.98,0,0,0-.67-4.913c-2.181-4.3-5.162-8.463-7.408-12.764a5.983,5.983,0,0,0-4.792-2.345,121.7,121.7,0,0,0-14.134,0c-4.093.3-4.942,2.846-6.736,5.986-.775.658-1.6.168-1.332-.864a25.474,25.474,0,0,1,2.642-4.342,7.285,7.285,0,0,1,4.7-2.279" transform="translate(-29.509 -28.694)" fill="#fff"/>
        </g>
      </g>
    </g>
  </g>
</svg>
