<svg xmlns="http://www.w3.org/2000/svg" xmlns:xlink="http://www.w3.org/1999/xlink" width="96" height="96" viewBox="0 0 96 96">
  <defs>
    <clipPath id="clip-path">
      <rect id="Rectángulo_455595" data-name="Rectángulo 455595" width="96" height="96" fill="none"/>
    </clipPath>
    <clipPath id="clip-path-2">
      <rect id="Rectángulo_459659" data-name="Rectángulo 459659" width="56.935" height="57.028" fill="#fff"/>
    </clipPath>
  </defs>
  <g id="Grupo_1208628" data-name="Grupo 1208628" transform="translate(-735.746 -9118)">
    <g id="Grupo_1180407" data-name="Grupo 1180407" transform="translate(735.746 9117.971)">
      <g id="Grupo_1179172" data-name="Grupo 1179172" transform="translate(0 0.03)" clip-path="url(#clip-path)">
        <path id="Trazado_998483" data-name="Trazado 998483" d="M92.627,52.5A40.125,40.125,0,1,1,52.5,12.377,40.125,40.125,0,0,1,92.627,52.5" transform="translate(-4.488 -4.517)" fill="#8d1939"/>
        <path id="Trazado_998485" data-name="Trazado 998485" d="M90.973,46.487A44.486,44.486,0,1,1,46.487,2,44.486,44.486,0,0,1,90.973,46.487Z" transform="translate(1.527 1.499)" fill="none" stroke="#8d1939" stroke-miterlimit="10" stroke-width="4"/>
      </g>
    </g>
    <g id="Grupo_1180408" data-name="Grupo 1180408" transform="translate(755.746 9137)">
      <g id="Grupo_1099618" data-name="Grupo 1099618" transform="translate(0 -0.05)">
        <rect id="Rectángulo_401104" data-name="Rectángulo 401104" width="56.349" height="57.028" transform="translate(0)" fill="none"/>
      </g>
      <g id="Grupo_1209468" data-name="Grupo 1209468" transform="translate(0 -0.05)">
        <g id="Grupo_1209467" data-name="Grupo 1209467" clip-path="url(#clip-path-2)">
          <path id="Trazado_1270698" data-name="Trazado 1270698" d="M38.327,83.022q12.187,12.3,24.4,24.622c.6.848.323,1.02-.324,1.633-2.945,2.787-8.824,4.994-12.811,5.463-21.151,2.489-35.6-21.342-23.381-38.881.556-.8,1.886-3.037,2.916-2.16,3.117,3.057,6.128,6.224,9.2,9.323m.255,2.678L28.547,75.587a23.21,23.21,0,0,0-2.231,25.559c.513.939,2.967,4.773,3.866,4.945a25.479,25.479,0,0,0,2.777,0c.386.019.743.164,1.129.177,1.982.065,3.98-.061,5.961-.007-.167-.744-.826-1.283-.286-2.082.451-.45,2.121-.022,2.727.123.368-.651,1.03-3.695,1.584-3.889,1.439-.5,1.964,2.478,2.5,3.4.338.254,3.16-4.913,3.757.811.907.119,2.065-1.118,2.927-.727.93.422.168,1.627.167,2.364h5.384c.071-.285-.118-.326-.244-.491-2.131-2.783-5.909-5.5-8.289-8.19-5.271-1.739-11.036-2.689-16.267-4.454-2.555-.862-4.082-2.826-2.745-5.517A4.185,4.185,0,0,1,33.932,85.7Zm5.61,5.649a55.688,55.688,0,0,0-3.93-3.984c-1.834.116-4.2-.291-5.964.006a2.047,2.047,0,0,0-.561,3.909c4.016,1.757,9.736,2.163,13.9,3.88l.24-.078q-1.862-1.849-3.689-3.733m-2.429,16.54H32.055c5.869,5.214,14.707,6.584,22.11,4.082a24.424,24.424,0,0,0,6.765-3.673l-.723-.416-8.133-.025c-.636-.187-.517-1.287-.278-1.76-2.169.826-2.858,1.055-3.1-1.632-.349-.361-1.622,2.149-2.776,1.554l-1.385-2.533-.772,2.245a2.3,2.3,0,0,1-1.918.038c-.114.155.847,1.86-.083,2.121" transform="translate(-18.189 -61.507)" fill="#fff"/>
          <path id="Trazado_1270699" data-name="Trazado 1270699" d="M95.49,50.957c-4.209-4.24-8.4-8.509-12.666-12.7-.54-.928.15-1.719,1.147-1.311l5.389,5.534,2.932.419.966-3.5c-.064-.3-1.363-.175-1.26-1.276l3.723-13.664c-1.012-.091-2.01-.394-3.021-.488a23.75,23.75,0,0,0-15.3,3.781c-.266.182-1.461.96-1.412,1.181L80.627,33.6c.364.741-.44,1.652-1.149,1.148L74.014,29.28c-.456-.687.045-1.048.5-1.479,2.027-1.937,6.312-3.944,9.01-4.695,20.361-5.666,38.025,14.958,29.361,34.256-.506,1.128-3.291,6.1-4.362,6.259a.849.849,0,0,1-.559-.089c-4.226-4.123-8.314-8.386-12.471-12.574m9.626,7.342c.422.433,2.91,3.254,3.232,3.188a23.2,23.2,0,0,0,3.013-24.035A23.731,23.731,0,0,0,97.355,24.946L93.993,37.678l9.064,2.437,1.492-5.606a.859.859,0,0,1,1.546.219c.225.825-1.6,5.553-1.765,6.74-.346.641-.7.726-1.364.453l-.31.155a30.789,30.789,0,0,0-.861,3.067c-.1.907.712,1.291,1.021,2.16.678,1.907-.658,5.3-1.509,7.095,1.268,1.3,2.545,2.6,3.81,3.9m-4.01-16.871-6.1-1.622-.931,3.318,5.948,1.716Zm-9.791,2.936,8.893,8.647c.369-1.973,2.458-5.216-.207-6.322Z" transform="translate(-61.787 -18.538)" fill="#fff"/>
          <path id="Trazado_1270700" data-name="Trazado 1270700" d="M41.4,52.623c.641.644.026,1.252-.552,1.571-9.138,5.044-22.22,3.019-30.159-3.41C-10.819,33.366,2.44-1.321,29.943.04,55.25,1.291,66.4,33.074,47.315,49.893c-.585.515-2.282,2.228-2.859,1.059a.876.876,0,0,1,0-.814c.17-.367,2.906-2.54,3.51-3.18C60.847,33.3,55.984,10.769,38.661,3.722A26.844,26.844,0,0,0,1.977,32.737c2.716,17.808,22.529,27.926,38.605,19.71a1.044,1.044,0,0,1,.817.176" transform="translate(0 -0.001)" fill="#fff"/>
        </g>
      </g>
    </g>
  </g>
</svg>
