<svg xmlns="http://www.w3.org/2000/svg" xmlns:xlink="http://www.w3.org/1999/xlink" width="69" height="69" viewBox="0 0 69 69">
  <defs>
    <clipPath id="clip-path">
      <rect id="Rectángulo_459645" data-name="Rectángulo 459645" width="35.697" height="45.333" fill="#fff"/>
    </clipPath>
  </defs>
  <g id="Grupo_1208505" data-name="Grupo 1208505" transform="translate(-305.059 -11337.508)">
    <circle id="Elipse_13679" data-name="Elipse 13679" cx="34.5" cy="34.5" r="34.5" transform="translate(305.059 11337.508)" fill="#6a2874"/>
    <g id="Grupo_1209454" data-name="Grupo 1209454" transform="translate(322.059 11349.508)">
      <g id="Grupo_1209453" data-name="Grupo 1209453" clip-path="url(#clip-path)">
        <path id="Trazado_1270442" data-name="Trazado 1270442" d="M10.131,126.176a2.007,2.007,0,0,0,3.866.23l.048-19.108c.127-.2,3.879-1.11,4.491-1.418a1.487,1.487,0,0,0,.788-1.618,48.018,48.018,0,0,0-2.156-6.94,5.159,5.159,0,0,0-5.205-2.5,7.017,7.017,0,0,1-1.507,3.622c.1-1.11.188-2.261-1.3-1.689a2.235,2.235,0,0,0-.065,1.689,6.011,6.011,0,0,1-1.563-3.63,5.619,5.619,0,0,0-4.009.979c-2.29,1.74-2.438,6.024-3.512,8.575C-.2,106.6,4.174,106.4,5.435,107.5l.051,18.91a1.92,1.92,0,0,0,3.09.942,2.3,2.3,0,0,0,.776-1.3V110.267h.779ZM5.456,104.293l-2.329-.712c.652-1.46.847-3.3,1.488-4.74.158-.354.389-.887.842-.911Zm8.571-6.234c.4-.014.575.476.712.781.644,1.438.837,3.273,1.487,4.74l-2.2.712Z" transform="translate(16.354 -82.472)" fill="#fff"/>
        <path id="Trazado_1270443" data-name="Trazado 1270443" d="M155.6,108.174h1.039v16.558a3.023,3.023,0,0,0,.786,1.032,2.01,2.01,0,0,0,2.78-.584,5.125,5.125,0,0,0,.33-.709v-21.1c-1.238.332-2.2.183-2.842-.99-.669-1.219-1.088-2.806-1.7-4.075.829.71,2.383,3.78,3.337,4a3.1,3.1,0,0,0,.883.028,42.981,42.981,0,0,0,6.039-1.623,3.2,3.2,0,0,0,.9-.4,1.623,1.623,0,0,0-.586-2.779c-1.258-.2-5.887,1.593-6.146,1.411-.236-.815-1.425-1.715-1.7-2.4-.024-.06-.034-.213.063-.192l1.753,1.428c.352-3.522-1.858-5.257-5.243-4.919a3.741,3.741,0,0,0-3.529,2.964l-.05,28.635a2.052,2.052,0,0,0,3.1,1.3,3.023,3.023,0,0,0,.786-1.032Z" transform="translate(-151.708 -80.769)" fill="#fff"/>
        <path id="Trazado_1270444" data-name="Trazado 1270444" d="M38.14,5.211c.119.136-.233.9.531,1.612,1.246,1.162,4.006,1.118,5.37.171,1.073-.745.592-1.6.75-1.783A2.762,2.762,0,0,0,45.422,5c1.51-1.036.661-2.743-.447-3.7a5.41,5.41,0,0,0-6.883-.124C36.92,2.109,35.944,3.925,37.51,5a2.769,2.769,0,0,0,.631.213m3.428-1.817c.848.215.759,2.408-.1,2.408-1.047,0-.835-2.646.1-2.408" transform="translate(-15.306 0)" fill="#fff"/>
        <path id="Trazado_1270445" data-name="Trazado 1270445" d="M205.93,29.778c-5.143-.872-5.918,6.516-1.5,7.211,5.111.8,5.906-6.463,1.5-7.211" transform="translate(-199.281 -25.849)" fill="#fff"/>
        <path id="Trazado_1270446" data-name="Trazado 1270446" d="M47.939,61.027c-.072,4.588,6.668,4.563,6.622,0a6.736,6.736,0,0,1-4.809.718c-.646-.156-1.186-.533-1.813-.718" transform="translate(-25.089 -53.102)" fill="#fff"/>
        <path id="Trazado_1270447" data-name="Trazado 1270447" d="M68.536,95.174l-1.549.1c-.024,1.078.163,2,1.441,1.436l.316-1.248Z" transform="translate(-41.747 -82.814)" fill="#fff"/>
        <path id="Trazado_1270448" data-name="Trazado 1270448" d="M150.934,27.1c0-1.148,1.337-2.078,2.987-2.078s2.987.93,2.987,2.078-1.337,2.078-2.987,2.078l-.132,0,0,0-1.169,1.039-.179-1.311a2.1,2.1,0,0,1-1.509-1.806" transform="translate(-140.813 -21.772)" fill="#fff"/>
      </g>
    </g>
  </g>
</svg>
