<svg xmlns="http://www.w3.org/2000/svg" xmlns:xlink="http://www.w3.org/1999/xlink" width="150" height="150" viewBox="0 0 150 150">
  <defs>
    <clipPath id="clip-path">
      <rect id="Rectángulo_459443" data-name="Rectángulo 459443" width="82.011" height="66.199" fill="#6a2874"/>
    </clipPath>
  </defs>
  <g id="Grupo_1208381" data-name="Grupo 1208381" transform="translate(-561.711 -8567.084)">
    <g id="Grupo_1207828" data-name="Grupo 1207828" transform="translate(561.711 8567.084)">
      <g id="Grupo_1177470" data-name="Grupo 1177470" transform="translate(0 0)">
        <circle id="Elipse_13609" data-name="Elipse 13609" cx="75" cy="75" r="75" fill="#f6e1fe"/>
        <g id="Grupo_1207827" data-name="Grupo 1207827" transform="translate(32.621 32.621)">
          <g id="Grupo_1099618" data-name="Grupo 1099618" transform="translate(0.149 0.009)">
            <rect id="Rectángulo_401104" data-name="Rectángulo 401104" width="84.532" height="84.532" transform="translate(0)" fill="none"/>
          </g>
          <g id="Grupo_1209196" data-name="Grupo 1209196" transform="translate(1.149 9.009)">
            <g id="Grupo_1209195" data-name="Grupo 1209195" clip-path="url(#clip-path)">
              <path id="Trazado_1269277" data-name="Trazado 1269277" d="M146.387,101.155h19.129a8.052,8.052,0,0,1,2.111,1.175,4.983,4.983,0,0,1,1.059,5.63c7.5-.836,7.927,9.574.469,9.157.62,1.863.738,3.388-.472,5.044-.394.54-1.831,1.762-2.463,1.762h-4.107c1.389,2.791-.231,6.468-3.4,6.807a48.806,48.806,0,0,1-7.29.013c-1.474-.176-1.133-2.028-.176-2.315,1.508-.453,5.149.178,7-.04,2.687-.316,2.737-4.021-.26-4.445s-6.876.386-9.849-.009a1.172,1.172,0,0,1,.027-2.342l17.3-.072c2.77-.753,2.1-4.22-.675-4.376l-17.06-.074c-.694-.2-.744-1.079-.6-1.674.189-.552.983-.593,1.478-.637,6.863-.617,14.652.475,21.615.021,2.76-.616,2.469-4.059-.266-4.449l-21.818-.011c-1-.015-1.209-.864-1.008-1.732l.837-.574,16.834-.066a2.225,2.225,0,0,0-.243-4.425c-5.4-.768-12.467.508-18.061-.012-3.34-.311-2.615-3.554-1.631-5.874,1.346-3.172,5.534-5,4.7-8.936-.2-.947-.736-1.8-1.8-1.75L131.917,103a4.318,4.318,0,0,1-1.833.514,73.786,73.786,0,0,1-8.577-.126,1.219,1.219,0,0,1,.163-2.186c1.7-.514,6.056.211,8.175-.04a1.779,1.779,0,0,0,.9-.27l14.577-15.232c2.683-2.5,6.108-.614,6.638,2.761.972,6.188-4.9,7.213-5.577,12.736" transform="translate(-92.525 -64.674)" fill="#6a2874"/>
              <path id="Trazado_1269278" data-name="Trazado 1269278" d="M95.778,18a9.945,9.945,0,0,0-.295,1.467c-.107,2.013,1.2,2.393,1.915,4.179a7.539,7.539,0,1,1-12.6-2.191c.951-1.083,2.068-1.414,3.133-2.265.261-3.52-.97-5.128,2.313-7.31C96.61,7.651,104.2,4.288,110.729.212c4.53-1.432,7.907,4.772,4.582,7.868Zm-5.462,7.916c3.84-.538,1.8-7.906,3.633-9.628l19.062-9.573c2.381-1.11.861-4.977-1.578-4.161L90.845,14.337a1.279,1.279,0,0,0-.53.668Zm-2.347-3.755a4.691,4.691,0,0,0-2.587,3.4,5.134,5.134,0,0,0,9.159,4c1.056-1.407,1.486-3.843.351-5.28-.485,2.458-3,4.529-5.582,3.938-.441-.1-1.34-.852-1.34-1.24Z" transform="translate(-63.445 0)" fill="#6a2874"/>
              <path id="Trazado_1269279" data-name="Trazado 1269279" d="M67.522,180.053c-.974-7.514,9.661-7.514,8.683,0,8.4.292,6.706,12.84-1.42,11.162-.735-.152-1.774-.976-2.255-1.018-.419-.036-1.723.83-2.576.872a4.6,4.6,0,0,1-4.567-4.187c-3.107.133-7.6.336-7-4.111.138-1.014,1.413-2.719,2.444-2.719Zm3.928-3.245c-2.08.431-1.268,2.379-1.438,3.484-.555,3.608-6.32,1.467-8.662,2.156a1.122,1.122,0,0,0-.521,1.6c.56.935,4.207.138,5.459.643,1.785.721,1.239,3.405,2.81,3.763,1.456.331,2.183-.706,3.462-.665,1.159.037,2.224,1.07,3.322,1.174,3.494.331,4.913-4.6,1.9-6.138-1.545-.788-3.683-.064-4.062-2.531-.1-.62.181-1,.159-1.526a2.127,2.127,0,0,0-2.426-1.958" transform="translate(-44.642 -133.48)" fill="#6a2874"/>
              <path id="Trazado_1269280" data-name="Trazado 1269280" d="M1.671,261.818c11,.368,22.563-.685,33.506-.053,4.023.232,7.761,1.784,11.507,2.106,1.323.114,7.472-.385,7.978.47a1.251,1.251,0,0,1-.712,1.874,50.512,50.512,0,0,1-7.513.016c-3.155-.234-6.45-1.662-9.605-1.9-11.282-.838-23.6.641-34.987.014-1.892-.167-2.217-2.17-.173-2.531" transform="translate(-0.211 -200.167)" fill="#6a2874"/>
              <path id="Trazado_1269281" data-name="Trazado 1269281" d="M.405,156.845c-.974-.969-.044-1.96,1.223-2.066,7.139-.6,15.092.476,22.319,0a1.185,1.185,0,1,1,0,2.37c-7.22-.485-15.19.606-22.319,0-.366-.031-.961-.039-1.223-.3" transform="translate(0 -118.307)" fill="#6a2874"/>
            </g>
          </g>
        </g>
      </g>
      <ellipse id="Elipse_13678" data-name="Elipse 13678" cx="18.074" cy="18.074" rx="18.074" ry="18.074" transform="translate(0.769 113.817)" fill="#da9dfe"/>
      <g id="Grupo_1207826" data-name="Grupo 1207826" transform="translate(0 116.123)">
        <path id="Trazado_998481" data-name="Trazado 998481" d="M0,13.012q4.541.393,9.077.815l-.253.1,1.3-2.34a.35.35,0,0,1,.4-.123.254.254,0,0,1,.184.174l0,.009,1.114,5.034-.836-.059,1.8-4.073,1.816-4.068,1.822-4.067L18.27.354a.772.772,0,0,1,.885-.326.543.543,0,0,1,.472.536V.572L18.9,7.156l-.762,6.581-.773,6.58-.8,6.579-1.5-.222c1.16-2.774,2.354-5.539,3.536-8.307l1.778-4.152,1.8-4.146,0-.01a.657.657,0,0,1,.753-.287.475.475,0,0,1,.413.442L23.082,15.5l-.295,5.285-.776-.111,2.607-5,0-.008a.274.274,0,0,1,.277-.117l4.931.63,4.928.647-4.969-.438-4.966-.456.281-.125L22.763,20.88a.443.443,0,0,1-.508.185.318.318,0,0,1-.269-.285v-.011l.074-5.289.1-5.289,1.17.145-1.676,4.175-1.7,4.17c-1.136,2.779-2.26,5.561-3.418,8.335a.838.838,0,0,1-.96.376c-.35-.082-.566-.334-.536-.6v0l.762-6.581.791-6.579.8-6.579L18.234.48,19.59.7,17.666,4.738,15.723,8.774l-1.948,4.035-1.966,4.029-.005.01a.482.482,0,0,1-.552.192.359.359,0,0,1-.279-.261L10.1,11.718l.586.059-1.431,2.3,0,.007a.257.257,0,0,1-.249.1Q4.5,13.609,0,13.012" transform="translate(0 4.236) rotate(-7)" fill="#fff"/>
      </g>
    </g>
    <path id="Trazado_1267128" data-name="Trazado 1267128" d="M77.377,52.427V64.859a.84.84,0,0,1-.841.84h-10a.841.841,0,0,0-.841.841v10a.841.841,0,0,1-.841.841H52.427a.841.841,0,0,1-.841-.841v-10a.841.841,0,0,0-.84-.841H40.713a.841.841,0,0,1-.841-.84V52.427a.841.841,0,0,1,.841-.841H50.745a.84.84,0,0,0,.84-.84V40.714a.841.841,0,0,1,.841-.841H64.858a.841.841,0,0,1,.841.841V50.746a.841.841,0,0,0,.841.84h10a.841.841,0,0,1,.841.841" transform="translate(630.197 8531.593)" fill="#8d1939"/>
  </g>
</svg>
