<svg xmlns="http://www.w3.org/2000/svg" xmlns:xlink="http://www.w3.org/1999/xlink" width="187.711" height="121.729" viewBox="0 0 187.711 121.729">
  <defs>
    <clipPath id="clip-path">
      <rect id="Rectángulo_459446" data-name="Rectángulo 459446" width="145.23" height="81.82" fill="none"/>
    </clipPath>
  </defs>
  <g id="Grupo_1209829" data-name="Grupo 1209829" transform="translate(-289.711 -1688.18)">
    <g id="Grupo_1208384" data-name="Grupo 1208384" transform="translate(0.434 -7179.859)">
      <g id="Grupo_1204518" data-name="Grupo 1204518" transform="translate(289.277 8868.039)">
        <rect id="Rectángulo_455283" data-name="Rectángulo 455283" width="187.711" height="121.729" rx="19" fill="#e9c3ff"/>
      </g>
    </g>
    <g id="Grupo_1209202" data-name="Grupo 1209202" transform="translate(310.711 1708.459)">
      <g id="Grupo_1209201" data-name="Grupo 1209201" clip-path="url(#clip-path)">
        <path id="Trazado_1269289" data-name="Trazado 1269289" d="M133.706,43.612V68.507a17.8,17.8,0,0,1,2.279,1.25,6.826,6.826,0,0,1-.824,10.786c-7.088,4.94-15.266-5.642-7.656-11.4a8.283,8.283,0,0,1,1.636-.638V58.134H15.871V68.507a8.283,8.283,0,0,1,1.636.638c7.61,5.756-.568,16.337-7.656,11.4a6.826,6.826,0,0,1-.824-10.786,17.8,17.8,0,0,1,2.279-1.25V43.2H1.556a2.793,2.793,0,0,1-1.068-.7c-.519-.835-.636-10.275-.3-11.454C.828,28.834,4.171,29.61,5.911,29.5.655,19.056,12,8.979,21.476,16.156c.4-1.213,3.781-2.659,3.933-2.854.181-.232-1.3-3.027.829-5.586,4.427-5.33,18.088-8.01,24.713-7.69,4.72.227,7.9,2.055,12.118,2.819,2.246.407,5.022.249,7.251.633,16.148,2.777,29.873,7.438,46.6,7.373,1.073,0,2.1-.44,3.283-.452,7.514-.079,23.13,1.2,24.6,10.709.531,3.435.61,17.646.01,20.954-1.11,6.129-7.539,1.722-11.1,1.55m6.639-5.394c.112-3.816.633-13.526-.088-16.716-1.072-4.747-11.429-6.291-15.454-6.536-5.117-.312-10.226.682-15.389.452-12.652-.563-26.469-5.24-39.094-7.376C64.992,7.14,61.683,6.8,56.3,5.462A33.361,33.361,0,0,0,33.7,8.128c-1.557.812-5.373,2.517-3.417,4.384,1.219,1.165,5.013,2.708,6.719,3.95A27.862,27.862,0,0,1,48.649,36.973c.168,1.677-.333,2.631,1.848,2.923,7.622,1.024,17.427-1.463,25.346-.417,8.77-.9,17.715-.264,26.554-.415,10.348-.177,22.562-1.973,32.646.1,1.659.341,3.437,1.1,5.088,1.551.394,0,.2-1.974.214-2.5m-97.5-7.468A27.671,27.671,0,0,0,32.181,18.8c-1.985-1.138-3.958-2.7-6.156-.922-1.4,1.129-1.34,8.7-.936,10.5.175.778,1.512,2.371,2.193,2.371ZM9.232,24.526c.543,6.893,10.944,6.468,11.2,0,.334-8.343-11.851-8.233-11.2,0M4.668,38.633H44.085l0-3.321c-5.028-.326-10.591.451-15.554,0-1.928-.177-3.577-1.081-5.378-1.26-5.808-.579-12.575.478-18.489.02ZM129.142,43.2c-21.906.555-43.84.546-65.781.813-5.714.069-11.919,1.591-17.4-.824L15.871,43.2v9.958H129.142ZM12.849,72.74a2.331,2.331,0,0,0-.288,4.265c3.8,1.72,4.952-5.649.288-4.265m117.416,0c-2.465.743-.809,5.751,2.2,4.279,2.322-1.136,1.155-5.29-2.2-4.279" transform="translate(0 0)" fill="#12263f"/>
        <path id="Trazado_1269290" data-name="Trazado 1269290" d="M182.284,44.666c-4.261-.922-9.087-2.5-13.478-2.522-20.328-.111-41.031,1.375-61.4,1.709a125.69,125.69,0,0,1-16.821-.432A27.859,27.859,0,0,0,78.944,22.91c-1.705-1.243-5.5-2.785-6.719-3.95-1.955-1.867,1.86-3.571,3.417-4.384a33.359,33.359,0,0,1,22.6-2.666c5.381,1.338,8.69,1.678,14.017,2.579,12.625,2.136,26.442,6.813,39.094,7.376,5.163.23,10.272-.764,15.389-.452,4.025.245,14.382,1.789,15.454,6.536.721,3.19.2,12.9.088,16.716" transform="translate(-41.939 -6.448)" fill="#fff5d4"/>
        <path id="Trazado_1269291" data-name="Trazado 1269291" d="M208.947,88.547c-.015.522.18,2.5-.213,2.5-1.651-.448-3.429-1.21-5.088-1.551-10.084-2.07-22.3-.274-32.646-.1-8.839.151-17.785-.488-26.554.415-7.919-1.046-17.724,1.441-25.346.417-2.181-.293-1.68-1.246-1.848-2.923a125.691,125.691,0,0,0,16.821.432c20.366-.334,41.069-1.82,61.4-1.709,4.391.024,9.216,1.6,13.478,2.522" transform="translate(-68.602 -50.328)" fill="#bdc6cd"/>
        <path id="Trazado_1269292" data-name="Trazado 1269292" d="M77.865,54.822H62.306c-.681,0-2.019-1.593-2.193-2.371-.4-1.8-.461-9.375.936-10.5,2.2-1.777,4.172-.216,6.156.922a27.672,27.672,0,0,1,10.66,11.953" transform="translate(-35.025 -24.073)" fill="#8d1939"/>
        <path id="Trazado_1269293" data-name="Trazado 1269293" d="M11.248,86.392l0-4.566c5.913.458,12.681-.6,18.489-.021,1.8.18,3.45,1.084,5.378,1.261,4.963.456,10.527-.321,15.554,0l0,3.321Z" transform="translate(-6.58 -47.759)" fill="#ffe19a"/>
        <path id="Trazado_1269294" data-name="Trazado 1269294" d="M33.418,50.346c-1.38.2-1.837,1.534-3.029,2.157-3.925,2.053-5.127-.413-8.173-2.157-.649-8.233,11.537-8.343,11.2,0" transform="translate(-12.984 -25.82)" fill="#fee7ec"/>
        <path id="Trazado_1269295" data-name="Trazado 1269295" d="M33.454,59.111c-.259,6.468-10.66,6.892-11.2,0,3.046,1.744,4.248,4.211,8.173,2.157,1.192-.624,1.649-1.962,3.029-2.157" transform="translate(-13.019 -34.585)" fill="#bdc6cd"/>
        <path id="Trazado_1269296" data-name="Trazado 1269296" d="M28.784,175.068c4.664-1.384,3.513,5.986-.288,4.265a2.331,2.331,0,0,1,.288-4.265" transform="translate(-15.935 -102.328)" fill="#ffe19a"/>
        <path id="Trazado_1269297" data-name="Trazado 1269297" d="M312.272,175.083c3.354-1.011,4.521,3.144,2.2,4.279-3.008,1.472-4.664-3.536-2.2-4.279" transform="translate(-182.007 -102.347)" fill="#ffe19a"/>
      </g>
    </g>
  </g>
</svg>
