<svg xmlns="http://www.w3.org/2000/svg" xmlns:xlink="http://www.w3.org/1999/xlink" width="96" height="96" viewBox="0 0 96 96">
  <defs>
    <clipPath id="clip-path">
      <rect id="Rectángulo_455595" data-name="Rectángulo 455595" width="96" height="96" fill="none"/>
    </clipPath>
    <clipPath id="clip-path-2">
      <rect id="Rectángulo_459461" data-name="Rectángulo 459461" width="51.904" height="51.714" fill="#fff"/>
    </clipPath>
  </defs>
  <g id="Grupo_1207886" data-name="Grupo 1207886" transform="translate(-735.746 -9118)">
    <g id="Grupo_1180407" data-name="Grupo 1180407" transform="translate(735.746 9117.971)">
      <g id="Grupo_1179172" data-name="Grupo 1179172" transform="translate(0 0.03)" clip-path="url(#clip-path)">
        <path id="Trazado_998483" data-name="Trazado 998483" d="M92.261,52.319A39.942,39.942,0,1,1,52.319,12.377,39.942,39.942,0,0,1,92.261,52.319" transform="translate(-4.304 -4.333)" fill="#8d1939"/>
        <path id="Trazado_998485" data-name="Trazado 998485" d="M90.566,46.284A44.283,44.283,0,1,1,46.284,2,44.283,44.283,0,0,1,90.566,46.284Z" transform="translate(1.731 1.702)" fill="none" stroke="#8d1939" stroke-miterlimit="10" stroke-width="4"/>
      </g>
    </g>
    <g id="Grupo_1180408" data-name="Grupo 1180408" transform="translate(755.746 9137)">
      <g id="Grupo_1099618" data-name="Grupo 1099618" transform="translate(-0.035 0.057)">
        <rect id="Rectángulo_401104" data-name="Rectángulo 401104" width="56.349" height="57.028" transform="translate(0)" fill="none"/>
      </g>
      <g id="Grupo_1209224" data-name="Grupo 1209224" transform="translate(1.965 3.057)">
        <g id="Grupo_1209223" data-name="Grupo 1209223" clip-path="url(#clip-path-2)">
          <path id="Trazado_1269348" data-name="Trazado 1269348" d="M7.6,160.652c-3.225-2.35-6.1-3.785-7.206-7.951-1.755-6.64,2.651-10.855,8.024-13.665,2.531,1.662,5.461,3.133,6.938,5.909a8.541,8.541,0,0,1,5.542,1.925,7.778,7.778,0,0,1,10.109,0,8.287,8.287,0,0,1,5.541-1.925c1.42-2.75,4.321-4.105,6.726-5.841l.54.04c5.2,2.959,9.433,6.993,7.7,13.558-1.1,4.166-3.981,5.6-7.206,7.951v7.579l.223.223h4.087v1.635H3.288v-1.635H7.375l.223-.223ZM9.232,158.5c3.588-2.1,6.142-4.836,5.8-9.293-.321-4.192-3.371-6.208-6.619-8.194-4.624,2.438-8,6.161-6.271,11.723A9.752,9.752,0,0,0,7.6,158.349v-4.532L3.588,149.8l1.24-1.1c.217.038,1.9,1.973,2.323,2.294.15.115.188.287.447.222v-7.133c.531.067,1.242-.2,1.635.223v6.91l2.63-2.51c.4-.106.934.7,1.223.971l-3.853,3.992Zm35.07-.149c4.541-1.953,7.159-6.646,5.314-11.481-1.1-2.873-3.651-4.325-6.13-5.858-3.248,1.986-6.3,4-6.619,8.194-.341,4.457,2.213,7.193,5.8,9.293v-4.83l-3.853-3.992c.289-.275.819-1.076,1.223-.971l2.63,2.51v-6.91c.392-.423,1.1-.156,1.635-.223v7.133c.259.065.3-.107.447-.222.418-.32,2.106-2.256,2.323-2.294l1.24,1.1-4.01,4.012ZM26.767,158.2c4.818-.452,6.756-6.669,3.2-9.96a5.9,5.9,0,0,0-9.867,4.816c.218,2.5,2.454,5.072,5.033,5.144v-2.749l-3.118-3.121,1.24-1.1c.348.061,1.308,1.617,1.878,1.624v-2.823h1.635v2.823c.57-.007,1.529-1.563,1.878-1.624l1.24,1.1-3.118,3.121Zm-9.955-5.35a12.688,12.688,0,0,0,1.7-1.645c.433-.813.544-2.212,1.271-3.026a5.117,5.117,0,0,0-3.564-1.421,19.656,19.656,0,0,1,.6,6.092m18.87-6.092a5.117,5.117,0,0,0-3.564,1.421c.727.813.839,2.213,1.271,3.026.266.5,1.261,1.134,1.625,1.644a24.186,24.186,0,0,1,.667-6.091M16.811,155.3v2.9a5.271,5.271,0,0,0,2.982-1.272,6.84,6.84,0,0,1-1.2-3.185c-.134-.155-1.75,1.444-1.782,1.56m18.278,2.9v-2.9c0-.12-1.664-1.7-1.782-1.56a7.2,7.2,0,0,1-1.2,3.185,5.271,5.271,0,0,0,2.982,1.272m-20.061,0v-2.378l-1.783,1.93a4.353,4.353,0,0,0,1.783.448m21.845-2.378V158.2a4.353,4.353,0,0,0,1.783-.448Zm-11.74,4.161a8.779,8.779,0,0,1-4.238-1.785,8.112,8.112,0,0,1-4.084,1.785v8.47h8.322Zm9.956,0a8.112,8.112,0,0,1-4.084-1.785,8.779,8.779,0,0,1-4.238,1.785v8.47h8.322Zm-20.061,0a8.558,8.558,0,0,1-3.317-1.166L9.232,160.5v7.95h5.8Zm27.64,8.47V160.5l-2.479-1.686a8.558,8.558,0,0,1-3.317,1.166v8.47Z" transform="translate(0 -118.375)" fill="#fff"/>
          <path id="Trazado_1269349" data-name="Trazado 1269349" d="M132.164,0a9.264,9.264,0,0,1,5.054,7.727c1.748-.947,2.46-2.9,3.27-4.606.1-.07.267.249.325.342A19.244,19.244,0,0,1,143,8.56c.389,2.6-.523,4.5-1.622,6.747l-1.472-.832c1.3-2.389,2.265-5.129.658-7.635a8.856,8.856,0,0,1-4.978,3.415V7.5a10.484,10.484,0,0,0-.568-2.107A4.5,4.5,0,0,0,133.8,3.566c.05,2.346-2.156,3.867-2.378,6.168-.192,1.994.508,3.2,1.484,4.826-.414-.007-1.128.907-1.486.681a14.191,14.191,0,0,1-.917-1.47,7.675,7.675,0,0,1,.053-6.835c.4-.829,1.608-2.225,1.608-3.148Z" transform="translate(-110.449)" fill="#fff"/>
          <path id="Trazado_1269350" data-name="Trazado 1269350" d="M144.227,100.007c.737,1.61,2.268,2.883,2.381,4.754.482.509,1.369-2.593,1.447-2.794.072-.185-.067-.393.259-.327.928,1.6,2.359,3.075,2.586,5a11.283,11.283,0,0,1-.728,4.517l-1.628-.455c.567-1.926,1.206-3.565.141-5.489-.308.253-.465.623-.817.889a3.865,3.865,0,0,1-2.749.6,4.489,4.489,0,0,0-.669-2.972c-1.065,2.267-2.884,4.232-1.129,6.764l-1.4.8c-2.858-3.952,1.295-7.314,2-11.191Z" transform="translate(-119.988 -85.146)" fill="#fff"/>
          <path id="Trazado_1269351" data-name="Trazado 1269351" d="M94.43,58.995c.221,3-2.5,4.548-2.5,7.505a7.714,7.714,0,0,0,1.437,3.993l-1.245.983a7.756,7.756,0,0,1-1.668-6.569c.46-2.225,2.286-3.577,2.344-5.9Z" transform="translate(-76.875 -50.228)" fill="#fff"/>
          <path id="Trazado_1269352" data-name="Trazado 1269352" d="M232.678,59c-.031,2.1,1.662,3.434,2.193,5.311a7.727,7.727,0,0,1-1.517,7.162l-1.245-.983a7.714,7.714,0,0,0,1.437-3.993c0-2.957-2.718-4.505-2.5-7.505Z" transform="translate(-196.704 -50.228)" fill="#fff"/>
          <path id="Trazado_1269353" data-name="Trazado 1269353" d="M63.736,78.806l-1.628.009a5.819,5.819,0,0,1,1.987-4.746l.983,1.1a6.856,6.856,0,0,0-1.342,3.637" transform="translate(-52.876 -63.062)" fill="#fff"/>
          <path id="Trazado_1269354" data-name="Trazado 1269354" d="M101.221,16.772l-1.634,0a5.8,5.8,0,0,0-1.318-3.517l1.094-1.235a6.33,6.33,0,0,1,1.858,4.753" transform="translate(-83.666 -10.233)" fill="#fff"/>
          <path id="Trazado_1269355" data-name="Trazado 1269355" d="M232.7,16.769l-1.634,0a6.329,6.329,0,0,1,1.858-4.753l1.094,1.235a5.8,5.8,0,0,0-1.318,3.517" transform="translate(-196.72 -10.232)" fill="#fff"/>
          <path id="Trazado_1269356" data-name="Trazado 1269356" d="M264.221,73.658h-1.636a5.2,5.2,0,0,0-1.316-3.519l.974-1.072c.517-.136,1.435,1.631,1.6,2.066a5.57,5.57,0,0,1,.374,2.525" transform="translate(-222.444 -58.797)" fill="#fff"/>
          <rect id="Rectángulo_459459" data-name="Rectángulo 459459" width="1.636" height="1.636" transform="translate(0.018 50.078)" fill="#fff"/>
          <rect id="Rectángulo_459460" data-name="Rectángulo 459460" width="1.636" height="1.636" transform="translate(50.246 50.078)" fill="#fff"/>
        </g>
      </g>
    </g>
  </g>
</svg>
