<svg xmlns="http://www.w3.org/2000/svg" xmlns:xlink="http://www.w3.org/1999/xlink" width="96" height="96" viewBox="0 0 96 96">
  <defs>
    <clipPath id="clip-path">
      <rect id="Rectángulo_455595" data-name="Rectángulo 455595" width="96" height="96" fill="none"/>
    </clipPath>
    <clipPath id="clip-path-2">
      <rect id="Rectángulo_459457" data-name="Rectángulo 459457" width="51.618" height="51.712" fill="#fff"/>
    </clipPath>
  </defs>
  <g id="Grupo_1207884" data-name="Grupo 1207884" transform="translate(-735.746 -9118)">
    <g id="Grupo_1180407" data-name="Grupo 1180407" transform="translate(735.746 9117.971)">
      <g id="Grupo_1179172" data-name="Grupo 1179172" transform="translate(0 0.03)" clip-path="url(#clip-path)">
        <path id="Trazado_998483" data-name="Trazado 998483" d="M92.261,52.319A39.942,39.942,0,1,1,52.319,12.377,39.942,39.942,0,0,1,92.261,52.319" transform="translate(-4.304 -4.333)" fill="#8d1939"/>
        <path id="Trazado_998485" data-name="Trazado 998485" d="M90.566,46.284A44.283,44.283,0,1,1,46.284,2,44.283,44.283,0,0,1,90.566,46.284Z" transform="translate(1.731 1.702)" fill="none" stroke="#8d1939" stroke-miterlimit="10" stroke-width="4"/>
      </g>
    </g>
    <g id="Grupo_1180408" data-name="Grupo 1180408" transform="translate(755.746 9137)">
      <g id="Grupo_1099618" data-name="Grupo 1099618" transform="translate(-0.035 0.272)">
        <rect id="Rectángulo_401104" data-name="Rectángulo 401104" width="56.349" height="57.028" transform="translate(0)" fill="none"/>
      </g>
      <g id="Grupo_1209220" data-name="Grupo 1209220" transform="translate(1.965 2.272)">
        <g id="Grupo_1209219" data-name="Grupo 1209219" clip-path="url(#clip-path-2)">
          <path id="Trazado_1269338" data-name="Trazado 1269338" d="M19.23,8.38a.907.907,0,0,0,.673-.14c1.058-.62,2.677-2.991,3.838-3.852a5,5,0,0,1,6.363.44c1.262,1.062,6.34,6.077,6.9,7.3a5.15,5.15,0,0,1-.148,4.49c-.212.394-1.062,1.22-1.062,1.3V28.344H48.142c.434.429.145,1.2.222,1.775h3.254v9.834c0,1.224-1.958,3.233-3.233,3.348-.4,2.35,1.2,7.849-2.2,8.371l-18.891.039a2.867,2.867,0,0,1-1.455-.615c-.359-.316-.51-.937-.909-1.013H4.074A4.252,4.252,0,0,1,0,46.17l.029-34,4.093-3.3c.206-2.068-.2-4.436.04-6.467A2.579,2.579,0,0,1,6.58.092C9.916-.2,13.69.313,17.073.111a2.667,2.667,0,0,1,1.939,1.611c.035.1.219.915.219.965ZM17.456,5.126V2.242c0-.229-.711-.492-.958-.521a66.864,66.864,0,0,0-9.475,0c-.423.038-1.25.333-1.25.82V4.9l.222.222ZM34.167,24.647V17.179c0-.078.938-.881,1.1-1.119.994-1.468.533-2.953-.5-4.208-.776-.939-5.93-6.121-6.7-6.457a3.365,3.365,0,0,0-3.106.2l-4.79,4.527-14.75.039A6.838,6.838,0,0,0,3.6,11.443c-.1.088-.283-.011-.189.338H20.34C24.161,15.3,27.86,18.953,31.651,22.5c.588.551,1.491,1.477,2.071,1.921.149.114.187.285.445.221M7.548,6.752H5.772V8.38H7.548Zm3.254,0H9.173V8.38H10.8Zm3.4,0-1.637.065c-.28.195-.084,1.2-.139,1.563H14.2Zm3.254,0H15.828V8.38h1.628ZM19.6,13.408H1.632V46.165c0,.706,1.121,2.144,1.849,2.144H25V46.682H5.255c-1.041,0-2.128-1.888-2-2.878.377-6.2-.484-12.955,0-19.088C3.4,22.9,4.08,21.85,5.989,21.684c6.929.409,14.447-.526,21.306,0a12.958,12.958,0,0,1,1.4.3ZM34.167,28.344l-.137-1.415-4.3-3.908c.535,1.715.207,3.551.294,5.324Zm-5.915,0V23.834a1.323,1.323,0,0,0-.3-.294l-22.626,0L5.1,23.9l.01,20.709a3.816,3.816,0,0,0,.441.446H25L24.98,43.3a4.432,4.432,0,0,1-2.571-1.643,2.866,2.866,0,0,1-2.382,1.758,43.487,43.487,0,0,1-6.637.015A2.624,2.624,0,0,1,10.9,41.479c-.164-.663.03-1.584-.178-2.04-.144-.316-1.223-1.157-1.547-1.559a7.952,7.952,0,0,1,5.537-12.794c4.174-.331,8.011.223,10.21,4.145L25,28.344ZM14.2,41.654V38.4h1.627v3.254h1.627V38.4H19.23v3.254c2.3.329,1.366-1.414,1.658-2.7.093-.413.708-.861.708-.919V34.556A5.812,5.812,0,0,1,20.34,35a2.473,2.473,0,1,1,.135-4.866c.478.068.7.338,1.121.43l.081-.454,1.693.009c-1.448-3.317-5.136-3.667-8.353-3.4a6.265,6.265,0,0,0-4.574,10.041c.39.514,1.733,1.554,1.907,1.938.51,1.124-.806,3.432,1.851,2.955M30.026,30.119h-3.4v19.3c0,.455.733.638,1.1.672,5.672.525,12.147-.409,17.9,0a1.351,1.351,0,0,0,.958-.521V30.119H41.561V44.982a6.788,6.788,0,0,1-.444.739,2.483,2.483,0,0,1-4.444-1.175c-.254-2.646.314-5.831.011-8.44-.083-.715-.592-1.258-1.337-.885-1.128.564.33,5.933-1.034,7.395a2.589,2.589,0,0,1-3.621.074,3.815,3.815,0,0,1-.667-1.108Zm9.908,0H31.653V41.137c0,.551,1.3.873,1.56.081.363-1.109-.072-4.011.069-5.4a2.523,2.523,0,0,1,5.013-.285l.042,8.98c.246.821,1.6.5,1.6.029ZM19.785,31.77a.818.818,0,0,0-.118,1.537.818.818,0,1,0,.118-1.537M25,31.746H23.371v8.208c0,.316,1.121,1.639,1.627,1.553Zm24.993,0H48.364v9.761a2.7,2.7,0,0,0,1.627-2Z" transform="translate(0 0.001)" fill="#fff"/>
          <path id="Trazado_1269339" data-name="Trazado 1269339" d="M37.119,101.669V106.7H22.035v-4.806l.222-.222Zm-1.627,1.775H23.81v1.627H35.271c.421-.39.155-1.1.222-1.627" transform="translate(-18.776 -86.634)" fill="#fff"/>
          <path id="Trazado_1269340" data-name="Trazado 1269340" d="M154.48,43.742l7.889,7.753L157.861,56l-7.753-7.782Zm0,2.366c-.3.321-2.052,1.854-2.006,2.113l5.387,5.416L160,51.5Z" transform="translate(-127.909 -37.273)" fill="#fff"/>
          <path id="Trazado_1269341" data-name="Trazado 1269341" d="M75.181,203.542c4.047-.749,4.2,5.423.126,4.832-2.594-.376-2.6-4.375-.126-4.832m.447,1.616a.818.818,0,0,0-.118,1.537.818.818,0,1,0,.118-1.537" transform="translate(-62.498 -173.388)" fill="#fff"/>
        </g>
      </g>
    </g>
  </g>
</svg>
