<svg xmlns="http://www.w3.org/2000/svg" xmlns:xlink="http://www.w3.org/1999/xlink" width="96" height="96" viewBox="0 0 96 96">
  <defs>
    <clipPath id="clip-path">
      <rect id="Rectángulo_455595" data-name="Rectángulo 455595" width="96" height="96" fill="none"/>
    </clipPath>
    <clipPath id="clip-path-2">
      <rect id="Rectángulo_459462" data-name="Rectángulo 459462" width="53.884" height="54.158" fill="#fff"/>
    </clipPath>
  </defs>
  <g id="Grupo_1208470" data-name="Grupo 1208470" transform="translate(-735.746 -9118)">
    <g id="Grupo_1180407" data-name="Grupo 1180407" transform="translate(735.746 9117.971)">
      <g id="Grupo_1179172" data-name="Grupo 1179172" transform="translate(0 0.03)" clip-path="url(#clip-path)">
        <path id="Trazado_998483" data-name="Trazado 998483" d="M92.261,52.319A39.942,39.942,0,1,1,52.319,12.377,39.942,39.942,0,0,1,92.261,52.319" transform="translate(-4.304 -4.333)" fill="#8d1939"/>
        <path id="Trazado_998485" data-name="Trazado 998485" d="M90.566,46.284A44.283,44.283,0,1,1,46.284,2,44.283,44.283,0,0,1,90.566,46.284Z" transform="translate(1.731 1.702)" fill="none" stroke="#8d1939" stroke-miterlimit="10" stroke-width="4"/>
      </g>
    </g>
    <g id="Grupo_1180408" data-name="Grupo 1180408" transform="translate(755.746 9137)">
      <g id="Grupo_1099618" data-name="Grupo 1099618" transform="translate(-0.035 0.057)">
        <rect id="Rectángulo_401104" data-name="Rectángulo 401104" width="56.349" height="57.028" transform="translate(0)" fill="none"/>
      </g>
      <g id="Grupo_1209226" data-name="Grupo 1209226" transform="translate(0.965 1.057)">
        <g id="Grupo_1209225" data-name="Grupo 1209225" clip-path="url(#clip-path-2)">
          <path id="Trazado_1269357" data-name="Trazado 1269357" d="M39.508,3.316c.213-.864-.892-2.876.264-3.209A38.629,38.629,0,0,1,45.28.091a4.113,4.113,0,0,1,3.491,3.3,56.2,56.2,0,0,1,.007,8.189.769.769,0,0,1-1.536-.016c-.333-2.412.4-5.8-.083-8.1a2.779,2.779,0,0,0-2.015-1.844H40.9l4.014,24.853a4.469,4.469,0,0,1,2.315-.154v-11.5a.789.789,0,0,1,1.54,0L48.8,26.825a4.889,4.889,0,0,1,1.44,5.055c1.747,2.266,3.956,4.152,3.606,7.309-.292,2.628-3.742,5.867-5.239,8.036a1.149,1.149,0,0,1-.684.242,29.462,29.462,0,0,1-4.483,0c-1.769-.207-.905-2.1.7-1.7l0-11.961c-1.31-1.374-2.043-2.563-1.628-4.566.162-.78.781-1.33,1.006-2.05L40.743,9.953l-10.7.03c-.534.163-1.5,2.621-1.8,3.213h4.554a6.116,6.116,0,0,1,.965,1.968c1.352,3.337,2.45,6.8,3.73,10.163-.333,3.578.487,8.11.021,11.572-.027.2-.2.687-.394.687h-6.1v1.7h3.473a8.58,8.58,0,0,1,3.863,1.848A7.377,7.377,0,0,1,33.88,53.954c-8.663.65-18.126-.505-26.873,0A7.331,7.331,0,0,1,3.494,40.394a10.137,10.137,0,0,1,2.748-1.111h3.4l.207-.256a2.7,2.7,0,0,0,.034-.593c0-.316.052-.653-.241-.849H3.772L.056,33.895l.077-7.358a2.924,2.924,0,0,1,.552-.375H3.232V23.615c0-.475.766-.666,1.151-.7a41.649,41.649,0,0,1,6.031,0c.257.03,1,.3,1,.544v2.7h4.94V21.917c0-.427,1.333-.95,1.54.158a38.984,38.984,0,0,1,0,5.087c-.05.258-.491.7-.692.7H1.534v5.326l2.856,2.856H35.958V25.467L31.944,14.739H17.9v4.245c0,.546-1.276.815-1.476.091a36.473,36.473,0,0,1,.009-5.572c.342-.7,2.8.006,3.562-.452,2.014-2.418,3.489-5.739,5.473-8.112a4.62,4.62,0,0,1,2.7-1.624ZM21.91,13.2h4.4c.977-1.068,1.292-2.924,2.171-4a3.273,3.273,0,0,1,1.071-.782H40.2a.368.368,0,0,0,.2-.348,14.965,14.965,0,0,0-.689-3.209c-3.489.239-7.342-.3-10.786,0a3.045,3.045,0,0,0-2.078.855ZM9.869,26.162c-.068-.4.207-1.526-.253-1.676l-4.7.046-.144,1.631ZM45.8,27.9c-2.781.517-2.261,5.115.846,4.871A2.479,2.479,0,1,0,45.8,27.9m-.113,17.87c.705-.093,1.769.23,2.328-.219,1.015-1.586,2.541-3.09,3.508-4.673,1.964-3.216-.236-5.1-2.13-7.547l-.2-.046a4.888,4.888,0,0,1-3.5,1.062ZM29.474,37.585H11.413v1.7H18.9c.534,0,.847,1.3.123,1.512l-12.145.05a5.8,5.8,0,0,0,.437,11.566c8.531-.511,17.812.656,26.255,0a5.8,5.8,0,0,0,.146-11.581c-3.742-.333-7.935.246-11.726-.006-1.108-.206-.585-1.54-.158-1.54h7.641Z" transform="translate(0 0)" fill="#fff"/>
          <path id="Trazado_1269358" data-name="Trazado 1269358" d="M138.33,106.19l3.4,10.112c-.175,2.091.379,5.048,0,7.034-.094.494-.35.521-.809.57-2.106.225-4.614-.14-6.763-.032l-3.2-3.13c-.836-.316-3.521.371-3.826-.65l0-13.522.808-.581c3.1.216,6.524-.261,9.585,0a1.5,1.5,0,0,1,.806.2m1.889,16.172v-5.634l-3.165-9.185h-8.181l-.232.232v11.114l.232.232H131.5l3.4,3.242Z" transform="translate(-107.503 -89.562)" fill="#fff"/>
          <path id="Trazado_1269359" data-name="Trazado 1269359" d="M43.036,191.382c.333.385.354,4.064-.182,4.448-1.646,1.179-1.441-3.022-1.315-3.784s1.015-1.222,1.5-.665" transform="translate(-35.056 -161.631)" fill="#fff"/>
          <path id="Trazado_1269360" data-name="Trazado 1269360" d="M63.993,191.292c.75-.226,1.049.111,1.129.816a20.154,20.154,0,0,1-.007,3.241c-.162.869-1.4.908-1.54.159a25.485,25.485,0,0,1,0-3.7.594.594,0,0,1,.413-.514" transform="translate(-53.706 -161.704)" fill="#fff"/>
          <path id="Trazado_1269361" data-name="Trazado 1269361" d="M20.927,191.393c.5-.107,1.02-.052,1.128.52.12.642.222,3.059-.546,3.165-1.543.213-1.112-3.5-.582-3.685" transform="translate(-17.284 -161.81)" fill="#fff"/>
          <path id="Trazado_1269362" data-name="Trazado 1269362" d="M286.691,37.67A.82.82,0,0,1,286.8,39.3a.82.82,0,0,1-.106-1.633" transform="translate(-241.833 -31.852)" fill="#fff"/>
          <path id="Trazado_1269363" data-name="Trazado 1269363" d="M24.843,275.609l26.958-.023a4.1,4.1,0,0,1,0,8.148l-26.824,0a4.08,4.08,0,0,1-.134-8.122m-.313,1.694c-2.734.563-1.994,5.224,1,4.876,3.17-.368,2.861-5.672-1-4.876m6.525-.036h-2.47c1.113,1.684.889,3.229,0,4.94H34.3c-.187-1.036.278-2.211,1.4-1.441l.164,1.187.231.232,4.6.024c-.035-2.286,1.943-2.33,1.786,0h5.712a4.632,4.632,0,0,1-.154-4.94H45.72a1.54,1.54,0,0,1-.462,1.468.765.765,0,0,1-1-.232l-.076-1.236h-5.1c.345,2.213-1.708,2-1.631,0l-4.853,0-.141,1.287c-1.125.7-1.608-.155-1.4-1.286m19.56.032c-2.4.537-2.168,4.818.754,4.893,3.482.09,3.372-5.817-.754-4.893" transform="translate(-17.944 -233.044)" fill="#fff"/>
          <path id="Trazado_1269364" data-name="Trazado 1269364" d="M295.683,192.637c-1.052-1.068,1.272-2.152,1.353-.642a.859.859,0,0,1-1.353.642" transform="translate(-249.808 -161.728)" fill="#fff"/>
          <path id="Trazado_1269365" data-name="Trazado 1269365" d="M212.691,296.67a.82.82,0,0,1,.106,1.633.82.82,0,0,1-.106-1.633" transform="translate(-179.256 -250.871)" fill="#fff"/>
          <path id="Trazado_1269366" data-name="Trazado 1269366" d="M42.986,296.936a.807.807,0,1,1,0,1.615.807.807,0,1,1,0-1.615" transform="translate(-35.664 -251.099)" fill="#fff"/>
        </g>
      </g>
    </g>
  </g>
</svg>
