<svg xmlns="http://www.w3.org/2000/svg" xmlns:xlink="http://www.w3.org/1999/xlink" width="113.341" height="113.341" viewBox="0 0 113.341 113.341">
  <defs>
    <clipPath id="clip-path">
      <rect id="Rectángulo_459449" data-name="Rectángulo 459449" width="72.685" height="74.566" fill="#6a2874"/>
    </clipPath>
  </defs>
  <g id="Grupo_1209835" data-name="Grupo 1209835" transform="translate(-899.643 -1918.31)">
    <g id="Grupo_1209832" data-name="Grupo 1209832">
      <path id="Trazado_998483" data-name="Trazado 998483" d="M125.718,69.047a56.67,56.67,0,1,1-56.67-56.67,56.671,56.671,0,0,1,56.67,56.67" transform="translate(887.266 1905.933)" fill="#fff"/>
      <rect id="Rectángulo_401104" data-name="Rectángulo 401104" width="76.991" height="77.919" transform="translate(917.711 1936)" fill="none"/>
    </g>
    <g id="Grupo_1209207" data-name="Grupo 1209207" transform="translate(919.711 1937.998)" clip-path="url(#clip-path)">
      <path id="Trazado_1269313" data-name="Trazado 1269313" d="M33.5,7.964c-.149,2.139-1.439,4.4-.434,6.42,3.434,6.91,10.543,7.147,16.37,10.712l8.141-.741c.192-3.982-.652-8.51-3.114-11.726-.621-.811-2.735-2.507-2.969-3.01a1.2,1.2,0,0,1-.073-.912c.71-1.161,1.725-.474,2.527.167,1.561,1.246,2.54,3.02,3.775,4.551,2.067.49,4.193.721,6.259,1.213,2.693.641,10.383,2.584,8.369,6.667-1.387,2.812-9.477,4.405-12.426,4.758-.1.37.153.427.318.641,2.05,2.672,7.466,6.383,7.564,10.161.125,4.82-8.57,2.183-11.084,1.366a6.851,6.851,0,0,1-6.511,7.486c-.575.021-1.432-.3-1.807-.13-.3.134-2.563,2.459-3.229,2.979a37.166,37.166,0,0,1-3.623,2.4l.246,2.827,3.083.888c.7-.007,1.3-1.106,2.4-1.254,1.056-.143,7.026,1.779,8.238,2.338A14.069,14.069,0,0,1,61.749,61.7c1.1,2.139,2.567,9.031,2.644,11.465.04,1.262-.621,1.6-1.765,1.158-1.642-4.344-.913-9.534-3.989-13.356-2.847-3.538-6.773-4.073-10.87-5.358-1.021-.1-.789,2.229-.869,2.789a63.546,63.546,0,0,1-2.408,11.255c-.465,1.387-1.769,6.158-3.676,4.441-.511-.855.851-2.993,1.181-3.946a53.183,53.183,0,0,0,2.531-10.278c.064-.546.339-2.709.027-2.967a13,13,0,0,0-2.562-.745,7.134,7.134,0,0,1-1.6,3.846c-3.8,4.666-13.772,4.478-16.937-.788A25.779,25.779,0,0,1,22.252,56.2l-2.678.822.972,5.665a1.184,1.184,0,0,1-2.039.58,25.419,25.419,0,0,1-.823-4.034c-.149-.864.01-3.644-.985-3.615a42.406,42.406,0,0,0-6.447,2,11.359,11.359,0,0,0-6.319,6.7c-.9,2.749-.845,7.087-1.846,9.469-.536,1.274-1.941.859-2.085-.4,1.213-7.9,1.789-14.954,10.229-18.146A45.631,45.631,0,0,1,16.51,53.4a3.7,3.7,0,0,1,2.738,1.4l3.19-.962.5-2.958a25.4,25.4,0,0,0-2.17-2.636,31.363,31.363,0,0,1-3.919-7.183C16.4,39.871,15.8,36.784,15.4,36.105c-.258-.443-1.789-1.049-2.37-1.58a6.893,6.893,0,0,1-1.674-7.608,17.265,17.265,0,0,0,.957-1.708c-2.508-.567-9.183-2.148-9.183-5.446,0-2.631,4.374-4.067,6.41-4.7.88-.272,5.5-1.136,5.672-1.372a1.249,1.249,0,0,0-.013-1.086c-.253-.511-2.716-2.046-3.149-3.04-.336-.772-.1-1.738.832-1.823s3.053,3.076,3.588,2.944a14.6,14.6,0,0,1,5.664-5.443c-.165-.341-4.671-1.879-5.386-2.086-1.138-.329-5.639-1.623-6.377-.656-.3,1,1.368,2.731-.253,3.331-1.576.584-3.2-3.752-.784-5.278,2.512-1.589,8.528.62,11.2,1.589,1.366.494,3.785,1.87,4.957,2.089,1.038.194,2.215-.042,3.31.105a10.981,10.981,0,0,1,3.9,1.579A18.181,18.181,0,0,1,45.371,4.643c.972.231,4.064.9,3.774,2.229-.373,1.708-3.247.135-4.377-.132A15.744,15.744,0,0,0,33.5,7.964M25.507,6.48c-3.255.418-5.95,3-7.375,5.813l7.112,5.667c1.152.1,4.519-3.573,4.975-4.633A43.992,43.992,0,0,0,31.3,8C31.215,6.5,26.617,6.338,25.507,6.48m-8.173,8.057c-.7-.017-1.015,4.957-.957,5.65.054.652.72,3.7,1.577,3.517.334-.071,3.58-4.632,4.821-4.795ZM36.121,25.421h9.073c-.057-.372-.425-.373-.689-.485-1.716-.735-3.579-1.077-5.334-1.924a18.484,18.484,0,0,1-7.75-7.2l-3.945,3.734Zm23.591-5.657c.139,1.313-.1,2.826,0,4.163a35.919,35.919,0,0,0,7.956-1.971c.707-.295,2.779-1.124,2.709-1.983-.561-1.268-2.292-1.8-3.509-2.24a62.227,62.227,0,0,0-8.113-1.921c.079,1.3.822,2.672.958,3.953M14.451,16.242c-.358-.352-8.9,1.84-9.092,3.643.221,1.475,7.972,3.5,9.519,3.613a15.652,15.652,0,0,1-.427-7.257M31.743,25c-1.453-.218-6.078-4.453-6.935-4.478-1.285-.038-3.422,2.688-4.377,3.516-.175.406.716.464.984.506,3.4.521,6.959.383,10.327.879ZM16.8,26.062c-4.577-.294-4.771,4.966-1.811,7.256l.342-.289Zm23.485,1.917c1.025.4,3.726,1.367,3.1,2.772l-1.049.65-6.862-3.836a117.168,117.168,0,0,1-15.791-1.1c-.252.008-.475,0-.644.228a44.561,44.561,0,0,0-1.324,5.293C16.691,39.136,23.011,52,31.222,52.115c5.122.069,13.874-4.952,16.493-9.337a30.5,30.5,0,0,0,2.621-7.191c-.042-.263-3.9-1.716-4.288-2.157a1.234,1.234,0,0,1,.214-1.712c1.155-.572,3.338,1.217,4.482,1.6.379-1.353-1.085-5.731-2.463-5.978a9.174,9.174,0,0,0-1.9.222c-1.787.041-4.089-.224-5.777-.009-.3.038-.618.114-.316.424M53.1,33.319c.317.339,2.1-1.743,2.313-2.062.412-.629,2.086-4.282,1.74-4.769l-5.761.642c.329,1.119.911,1.979,1.218,3.157a22.678,22.678,0,0,1,.49,3.032m12.358,4.036c.819-.969-2.665-5.064-3.387-5.855a25.624,25.624,0,0,0-3.1-2.875c-.813,2.316-1.923,4.976-4.162,6.193-.144.2.643.522.8.589,1.409.619,8.921,3.053,9.855,1.949m-15.56,6.212c3.711-.215,6.814-4.727,2.666-7.039ZM24.915,52.32c-.1,1.837-.615,3.675.238,5.417,2.294,4.683,12.493,4.58,14.378-.513.62-1.675.088-3.412-.1-5.118-4.6,2.31-9.977,3.165-14.513.213" transform="translate(0 0)" fill="#6a2874"/>
      <path id="Trazado_1269314" data-name="Trazado 1269314" d="M92.939,311.193a1.06,1.06,0,0,1,1.085.54c.869,1.462,1.11,4.446,2.093,6.038.241,1.443-1.34,2.1-2.1.8a41.425,41.425,0,0,1-2-5.917,1.178,1.178,0,0,1,.924-1.461" transform="translate(-72.354 -244.746)" fill="#6a2874"/>
      <path id="Trazado_1269315" data-name="Trazado 1269315" d="M131.094,207.784c-.532-.435-.446-.98-1.5-1.372-1.666-.617-2.081.447-3.538-.041-1.148-1.593.726-2.294,2.092-2.375,1.88-.11,4.545.988,4.816,3.1a1.142,1.142,0,0,1-1.866.69" transform="translate(-98.86 -160.439)" fill="#6a2874"/>
      <path id="Trazado_1269316" data-name="Trazado 1269316" d="M113.963,145.5a1.253,1.253,0,0,1,.316-1.821,31.927,31.927,0,0,1,4.437-.71,1.1,1.1,0,0,1,.583,2.1,32.509,32.509,0,0,1-4.434.7,1.519,1.519,0,0,1-.9-.267" transform="translate(-89.424 -112.447)" fill="#6a2874"/>
      <path id="Trazado_1269317" data-name="Trazado 1269317" d="M177.179,156a1.582,1.582,0,0,1,1.127.07c.247.115,2.713,2.235,3,2.548,1.269,1.377.223,2.792-1.361,1.787a34.283,34.283,0,0,1-3.142-2.833,1.111,1.111,0,0,1-.167-1.035.842.842,0,0,1,.541-.537" transform="translate(-138.879 -122.643)" fill="#6a2874"/>
      <path id="Trazado_1269318" data-name="Trazado 1269318" d="M143.957,179.708c-.87.861-5.8-.152-5.248-2.145.795-1.347,2.223-.056,3.322.225.451.116.978-.034,1.4.09a1.249,1.249,0,0,1,.521,1.829" transform="translate(-109.063 -139.181)" fill="#6a2874"/>
    </g>
  </g>
</svg>
