<svg xmlns="http://www.w3.org/2000/svg" xmlns:xlink="http://www.w3.org/1999/xlink" width="96" height="96" viewBox="0 0 96 96">
  <defs>
    <clipPath id="clip-path">
      <rect id="Rectángulo_455595" data-name="Rectángulo 455595" width="96" height="96" fill="none"/>
    </clipPath>
    <clipPath id="clip-path-2">
      <rect id="Rectángulo_459455" data-name="Rectángulo 459455" width="46.465" height="54.85" fill="#fff"/>
    </clipPath>
  </defs>
  <g id="Grupo_1207879" data-name="Grupo 1207879" transform="translate(-735.746 -9118)">
    <g id="Grupo_1180407" data-name="Grupo 1180407" transform="translate(735.746 9117.971)">
      <g id="Grupo_1179172" data-name="Grupo 1179172" transform="translate(0 0.03)" clip-path="url(#clip-path)">
        <path id="Trazado_998483" data-name="Trazado 998483" d="M92.261,52.319A39.942,39.942,0,1,1,52.319,12.377,39.942,39.942,0,0,1,92.261,52.319" transform="translate(-4.304 -4.333)" fill="#8d1939"/>
        <path id="Trazado_998485" data-name="Trazado 998485" d="M90.566,46.284A44.283,44.283,0,1,1,46.284,2,44.283,44.283,0,0,1,90.566,46.284Z" transform="translate(1.731 1.702)" fill="none" stroke="#8d1939" stroke-miterlimit="10" stroke-width="4"/>
      </g>
    </g>
    <g id="Grupo_1180408" data-name="Grupo 1180408" transform="translate(755.746 9137)">
      <g id="Grupo_1099618" data-name="Grupo 1099618" transform="translate(-0.035 0.272)">
        <rect id="Rectángulo_401104" data-name="Rectángulo 401104" width="56.349" height="57.028" transform="translate(0)" fill="none"/>
      </g>
      <g id="Grupo_1209216" data-name="Grupo 1209216" transform="translate(4.965 1.272)">
        <g id="Grupo_1209215" data-name="Grupo 1209215" clip-path="url(#clip-path-2)">
          <path id="Trazado_1269325" data-name="Trazado 1269325" d="M14.279,5.525H26.7V.742c0-.322.769-.567,1.081-.6a54.766,54.766,0,0,1,7.9.007c.28.033,1.087.331,1.087.591V5.525h2.6c.517,0,.724.832.763,1.251a52.46,52.46,0,0,1,0,7.562c-.045.381-.338,1.088-.758,1.088h-2.6v5.957l.252.252h2.517c.26,0,.558.807.591,1.087a51.378,51.378,0,0,1,0,7.4c-.029.309-.255,1.251-.6,1.251H36.766v6.293c0,.369-.808.677-1.3.461-1.245-.549-2.954-2.583-4.18-3.373-.773-.149-3.513,3.227-4.591,1.737V31.62l-.252-.252H14.279V36.4l25.666,4.792c.5.3.531.622.517,1.156-.065,2.373-1.289,5.462-1.5,7.913-.416.967-1.408.365-2.2.4v3.44c0,.26-.807.558-1.087.591-2.557.3-5.735-.2-8.359-.039a1.051,1.051,0,0,1-.619-.724c-.159-.847.246-4.889-.168-5.2L14.279,46.471v7.635c0,.322-.769.567-1.081.6a56.149,56.149,0,0,1-8.074,0,1.007,1.007,0,0,1-.826-.516l-.109-9.456c-.247-.722-4.2-.254-4.189-1.7l1.562-8.356c.567-1.116,1.953.146,2.649-.372V31.62l-.252-.252H.938c-.34,0-.567-.941-.6-1.251a51.378,51.378,0,0,1,0-7.4c.033-.28.331-1.087.591-1.087H3.959l.252-.252V15.426h-3.1c-.42,0-.713-.706-.758-1.088a52.46,52.46,0,0,1,0-7.562c.039-.419.246-1.251.763-1.251h3.1V.742c0-.322.769-.567,1.081-.6a56.151,56.151,0,0,1,8.074,0c.273.036.914.384.914.6ZM12.433,2H6.057V5.525h6.377ZM34.92,2H28.543V5.525H34.92Zm3.356,5.37H2.2V13.58h36.08ZM12.433,15.426H6.057v6.209h6.377Zm14.264,0H14.279v5.957l.252.252H26.446l.252-.252Zm8.223,0H28.543v6.209H34.92Zm3.356,8.055H2.2v6.041h36.08ZM12.433,31.368H6.057v3.524l6.377,1.175Zm22.487,0H28.543v2.853c.852-.418,1.931-1.669,2.924-1.508.861.139,2.454,2.238,3.453,2.515ZM38.426,42.8,3.128,36.23l-1.111,5.8,35.334,6.8ZM12.433,52.848V46.219L6.057,44.961v7.887ZM34.92,50.163l-6.377-1.175v3.86H34.92Z" transform="translate(0 0)" fill="#fff"/>
          <path id="Trazado_1269326" data-name="Trazado 1269326" d="M238.945,208.6a29.9,29.9,0,0,1,4.82-.025.927.927,0,0,1,.175,1.832,37.939,37.939,0,0,1-5.028,0,1.028,1.028,0,0,1-.746-.919.98.98,0,0,1,.778-.888" transform="translate(-198.2 -173.499)" fill="#fff"/>
          <path id="Trazado_1269327" data-name="Trazado 1269327" d="M240.961,187.87a1.072,1.072,0,0,1,1.07.2c1.035,1-2.224,2.97-2.788,2.967a.919.919,0,0,1-.733-1.419,14.086,14.086,0,0,1,2.451-1.75" transform="translate(-198.368 -156.301)" fill="#fff"/>
          <path id="Trazado_1269328" data-name="Trazado 1269328" d="M238.651,223.044c.477-.138,2.5,1.016,2.906,1.389a1.588,1.588,0,0,1,.461.705c-.1,2.171-3.906-.394-4-1.043a1.011,1.011,0,0,1,.631-1.051" transform="translate(-198.071 -185.605)" fill="#fff"/>
          <path id="Trazado_1269329" data-name="Trazado 1269329" d="M193.149,56.92c.812-.812,2.279.531,1.3,1.379-1.021.88-2-.675-1.3-1.379" transform="translate(-160.538 -47.159)" fill="#fff"/>
          <path id="Trazado_1269330" data-name="Trazado 1269330" d="M51.345,58.567c-1.2,1.207-2.415-1.736-.56-1.633a.973.973,0,0,1,.56,1.633" transform="translate(-41.469 -47.378)" fill="#fff"/>
          <path id="Trazado_1269331" data-name="Trazado 1269331" d="M193.075,264.421c-.72-.723.211-2.314,1.295-1.378,1.011.874-.553,2.123-1.295,1.378" transform="translate(-160.463 -218.662)" fill="#fff"/>
          <path id="Trazado_1269332" data-name="Trazado 1269332" d="M50.408,235.794a.92.92,0,1,1,.557,1.746c-.982.264-1.465-1.473-.557-1.746" transform="translate(-41.548 -196.17)" fill="#fff"/>
          <path id="Trazado_1269333" data-name="Trazado 1269333" d="M193.381,152.773c1.681-.507,1.82,1.922.142,1.646a.891.891,0,0,1-.142-1.646" transform="translate(-160.524 -127.078)" fill="#fff"/>
          <path id="Trazado_1269334" data-name="Trazado 1269334" d="M50.381,152.805a.884.884,0,1,1,.142,1.646.884.884,0,0,1-.142-1.646" transform="translate(-41.521 -127.11)" fill="#fff"/>
        </g>
      </g>
    </g>
  </g>
</svg>
