<svg xmlns="http://www.w3.org/2000/svg" xmlns:xlink="http://www.w3.org/1999/xlink" width="69" height="69" viewBox="0 0 69 69">
  <defs>
    <clipPath id="clip-path">
      <rect id="Rectángulo_459517" data-name="Rectángulo 459517" width="42.909" height="42.999" fill="#fff"/>
    </clipPath>
  </defs>
  <g id="Grupo_1208488" data-name="Grupo 1208488" transform="translate(-305.059 -11337.925)">
    <g id="Elipse_13679" data-name="Elipse 13679" transform="translate(305.059 11337.925)" fill="#6a2874" stroke="#707070" stroke-width="1">
      <circle cx="34.5" cy="34.5" r="34.5" stroke="none"/>
      <circle cx="34.5" cy="34.5" r="34" fill="none"/>
    </g>
    <g id="Grupo_1209321" data-name="Grupo 1209321" transform="translate(318.059 11350.925)">
      <g id="Grupo_1209320" data-name="Grupo 1209320" clip-path="url(#clip-path)">
        <path id="Trazado_1269490" data-name="Trazado 1269490" d="M47.032,20a6.192,6.192,0,0,1-4.858-4.992c.334-3.222-.815-8.614.6-11.456A6.422,6.422,0,0,1,47.95.17,85.784,85.784,0,0,1,58.844.177,6.41,6.41,0,0,1,64.663,6.35c.167,2.329.264,8.394-.673,10.35C62,20.864,57.638,20.187,53.77,20.306l-4.527,4.528a1.3,1.3,0,0,1-2.05-.4c-.354-.8,0-4.271-.16-4.429M56.793,5.215c-1.052.232-3.621,3.651-4.694,4.373-.332.059-1.615-1.89-2.438-1.945a1.349,1.349,0,0,0-1.21,1.826,22.147,22.147,0,0,0,2.635,2.748,1.406,1.406,0,0,0,1.549.346L58.2,7a1.245,1.245,0,0,0-1.409-1.781" transform="translate(-36.902 0)" fill="#fff"/>
        <path id="Trazado_1269491" data-name="Trazado 1269491" d="M7.077,204.679l-1.216-.436a3.753,3.753,0,0,1,2.262-7.035c3.35.329,4.405,4.9,1.564,6.839l-1.509.632h2.631c1.525,0,3.417,1.776,3.947,3.15.54,1.4.554,5.147.4,6.707a1.355,1.355,0,0,1-1.409,1.406c-3.917.366-8.392-.288-12.369,0A1.369,1.369,0,0,1,.109,214.89a37.14,37.14,0,0,1-.011-5.5c.164-2.07,2.133-4.707,4.348-4.707Z" transform="translate(0 -173.057)" fill="#fff"/>
        <path id="Trazado_1269492" data-name="Trazado 1269492" d="M233.169,204.679l-1.509-.632c-2.841-1.937-1.786-6.51,1.564-6.839a3.753,3.753,0,0,1,2.262,7.035l-1.216.436H236.9c2.215,0,4.184,2.637,4.348,4.707a37.137,37.137,0,0,1-.011,5.5,1.369,1.369,0,0,1-1.272,1.053c-3.977-.289-8.452.365-12.369,0a1.355,1.355,0,0,1-1.409-1.406c-.152-1.56-.137-5.308.4-6.707.53-1.374,2.423-3.15,3.947-3.15Z" transform="translate(-198.438 -173.057)" fill="#fff"/>
        <path id="Trazado_1269493" data-name="Trazado 1269493" d="M222.926,21.278a6.511,6.511,0,0,1,5.428,3.75c.734,1.693.656,6.226.512,8.186a6.132,6.132,0,0,1-4.895,5.445c-.234,1.417.858,5.715-1.754,5.108-.791-.184-3.472-3.569-4.367-4.2a8.771,8.771,0,0,0,3.406-5.4,49.722,49.722,0,0,0-.088-11.012c-.146-.647-.436-1.25-.628-1.88.776.047,1.618-.065,2.386,0" transform="translate(-191.193 -18.656)" fill="#fff"/>
      </g>
    </g>
  </g>
</svg>
