<svg xmlns="http://www.w3.org/2000/svg" xmlns:xlink="http://www.w3.org/1999/xlink" width="69" height="69" viewBox="0 0 69 69">
  <defs>
    <clipPath id="clip-path">
      <rect id="Rectángulo_459516" data-name="Rectángulo 459516" width="34.748" height="37.718" fill="#fff"/>
    </clipPath>
  </defs>
  <g id="Grupo_1208487" data-name="Grupo 1208487" transform="translate(-305.059 -11337.925)">
    <g id="Elipse_13679" data-name="Elipse 13679" transform="translate(305.059 11337.925)" fill="#6a2874" stroke="#707070" stroke-width="1">
      <circle cx="34.5" cy="34.5" r="34.5" stroke="none"/>
      <circle cx="34.5" cy="34.5" r="34" fill="none"/>
    </g>
    <g id="Grupo_1209319" data-name="Grupo 1209319" transform="translate(322.059 11353.925)">
      <g id="Grupo_1209318" data-name="Grupo 1209318" clip-path="url(#clip-path)">
        <path id="Trazado_1269488" data-name="Trazado 1269488" d="M6.358,30.364a3,3,0,0,1,2.677.967c.632.745,2.172,5.06,2.542,6.222a2.732,2.732,0,0,1,.18,2.159c-.385,1.074-2.4,2.925-2.277,3.88A11.816,11.816,0,0,0,10.611,45.8,34.937,34.937,0,0,0,13,49.332c.473.619,2.519,3.194,3.1,3.32,1.541.333,3.545-1.768,5.552-.62a48.265,48.265,0,0,1,5.225,4.28c2.324,2.478-.305,4.569-2.1,6.178-1.495,1.339-2.48,2.29-4.654,1.565C10.792,60.939,2.924,50.7.772,41.321c-.513-2.237-1.566-6.406.25-8.147a30.237,30.237,0,0,1,5.336-2.81" transform="translate(0 -26.588)" fill="#fff"/>
        <path id="Trazado_1269489" data-name="Trazado 1269489" d="M151.44.078c13.112-1.486,12.728,19.04-.565,16.96-.94.2-4.572,2.1-5.244,1.992a.974.974,0,0,1-.521-.348l-.058-.545,1.453-3.574C141.6,9.8,144.68.844,151.44.078m2.99,6.755c-.061-.547.2-1.755-.3-2.108a9.406,9.406,0,0,0-2.91-.053c-.572.273-.318,1.626-.37,2.16h-1.79c-.543,0-.524,2.622-.339,3.055.328.768,1.458.476,2.129.524.074.564-.25,1.759.373,2.034a9.978,9.978,0,0,0,3-.049c.363-.23.149-1.559.2-1.985.611-.041,1.737.2,2.107-.423.228-.387.249-3.156-.317-3.156Z" transform="translate(-126.315 -0.001)" fill="#fff"/>
      </g>
    </g>
  </g>
</svg>
