<svg xmlns="http://www.w3.org/2000/svg" xmlns:xlink="http://www.w3.org/1999/xlink" width="187.711" height="121.729" viewBox="0 0 187.711 121.729">
  <defs>
    <clipPath id="clip-path">
      <rect id="Rectángulo_459518" data-name="Rectángulo 459518" width="100.408" height="108.185" fill="none"/>
    </clipPath>
  </defs>
  <g id="Grupo_1209324" data-name="Grupo 1209324" transform="translate(-289.711 -5492)">
    <g id="Grupo_1208489" data-name="Grupo 1208489" transform="translate(0.434 -3376.039)">
      <g id="Grupo_1204518" data-name="Grupo 1204518" transform="translate(289.277 8868.039)">
        <rect id="Rectángulo_455283" data-name="Rectángulo 455283" width="187.711" height="121.729" rx="19" fill="#e9c3ff"/>
      </g>
    </g>
    <g id="Grupo_1209323" data-name="Grupo 1209323" transform="translate(333.711 5499)">
      <g id="Grupo_1209322" data-name="Grupo 1209322" clip-path="url(#clip-path)">
        <g id="Rectángulo_459519" data-name="Rectángulo 459519" transform="translate(0 99)" fill="#f8b3a9" stroke="#707070" stroke-width="1">
          <rect width="28" height="9" stroke="none"/>
          <rect x="0.5" y="0.5" width="27" height="8" fill="none"/>
        </g>
        <path id="Trazado_1269494" data-name="Trazado 1269494" d="M49.094,3.77c-2.3,1.518-5.265-.46-7.921-.614-2.726-.159-6.444.582-8.637,2.22-.963.72-2.163,2.624-2.7,2.884-.7.338-2.039.216-2.695.876-2.109,2.118-.1,9.509,1,12.016,1.28,2.892.966,1.532,3.177,2.412.87.346,1.869,1.843,3.041,1.93,3.109.229,7.327-3.765,9.305-5.885,1.333-1.429,1.981-3.641,4.362-4.019,3.477-.551,4.763.976,4.637,4.324a13.1,13.1,0,0,0,.529-9.53c-.345-.875-1.443-2-1.554-2.8-.078-.571.324-1.153.25-1.638,2.464-1.026,3.517,1.374,4.272,3.335,2.276,5.913.184,11.757-2.688,17.007.053.723,11.286,5.593,12.912,6.609,4.338,2.711,5.266,7.237,3.743,11.935C67.568,52.723,62.37,61.163,59.285,69.07c-.233.6-.914,1.83-.729,2.365l6.85,9.333c.491.12,6.056-4.816,8.1-4.956,3.056-.21,3.677,2.84,4.936,3.087a71.823,71.823,0,0,0,9.606-.007c1.23-.231,2.472-1.518,4.359-1.565,5.139-.128,7.592,5.489,7.913,9.81.121,1.634.455,4.821-1.858,4.808-.024-.034-.531-.039-.777-.293-1.32-1.363-.338-1.742-.438-2.968-.282-3.469-1.274-8.942-6.017-7.85-3.065.706-2.45,5.545-4.117,7.369-1.264,1.383-3.729.451-4.789,2.355l2.307,2.333c2.9,4.554-3.14,8.763-7.7,5.835-1.473-.947-1.776-2.938-3.624-.73-4.089,4.888,4.95,6.725,8.271,6.949,4.785.322,10.1-1.287,12.79-5.448a29.2,29.2,0,0,1,1.465-2.88c.654-.705,1.394-.452,1.695-.635,3,1.66-1.3,6.626-2.941,8.081-5.531,4.91-17.3,5.646-23.111,1.051-2.381-1.881-1.525-3-5.449-3.243-3.947-.247-2.488.132-4.068,2.474A8.919,8.919,0,0,1,55.47,108.1l-53.729-.011c-2.832-.305-1.358-3.1-.926-3.1H27.205a3.116,3.116,0,0,0,.466-.466V99.4H1.125c-1.429,0-1.5-3.475.466-3.1l25.306,0c1.22-.241.428-3,2.809-3.4,5.011.366,10.879-.573,15.783.016,3.854.463,6.695,4.41,6.4,8.19-.118,1.484-.835,2.537-1.238,3.884h4.812c1.411,0,3.718-1.88,4.256-3.2,2.146-5.239-1.563-12.583-7.191-13.74L1.591,87.909c-1.85-.444-2.249-2.688-.326-3.275,2.315-.706,10.187.495,11.5-.3L22.035,71.23c-3.6-8.856-7.768-17.617-11.681-26.392C6.338,32.851,19.768,31.123,27.031,26.249c-2.754-4.676-6.792-16.144-1.379-20,.909-.647,1.978-.646,2.62-1.106.385-.276.632-.993,1.1-1.388C32.933.735,36.846-.185,41.5.029,42.984.1,47.419.837,48.463,1.76c.82.725.424,1.547.631,2.009m.31,14.9c-1.922-.066-2.6,2.279-3.735,3.561-2.655,3-8.038,6.968-12.239,6.356-1.192-.174-2.882-1.761-1.69,1.072a6.577,6.577,0,0,0,5.089,3.914c2.776.3,7.9.388,10.1-1.392.815-.659,2.477-3.095,2.477-4.043ZM28.288,29.539c-3.795,2.022-8.878,3.729-12.394,6.074-6.853,4.57.161,12.283,1.866,17.812a24.32,24.32,0,0,0,4.9-1.887c.8-1.266-3.05-5.526-1.51-7.257a1.6,1.6,0,0,1,2.319.179l9.846,21.975,13.935-.092c3.044-6.118,5.38-12.82,8.414-18.908.583-1.169,1.879-4.738,3.665-3.136,1.816,1.628-1.81,5.231-1.507,7.256,1.186-.014,4.24,2.4,5.09,1.591,1.649-5.1,8.092-12.484,2.435-17.033-3.23-2.6-9.329-4.312-12.976-6.582C50.713,34.178,47.38,36.642,42.431,37c-6.263.456-12.082-.887-14.143-7.464M24.541,54.4c-.283-.206-5.292,1.762-5.216,2.561L31.675,84.612c3.6.721,2.625.14,3.207-2.066.23-.871,1.231-1.729,1.128-2.478Zm13.376,30.1h11.8a13.486,13.486,0,0,1,.78-3.722c2.721-7.862,7.834-15.873,10.646-23.827l.06-.7-5.093-1.887L45.007,79.01c-1.421,3.118-7.4,1.732-7.09,5.485M45.368,69.9H35.123a54.717,54.717,0,0,0,2.84,6.94c.944,1.893,1.619,2.374,3.776,1.073.705-.425,3.952-7.708,3.63-8.013M16.8,84.494H27.982l-4.195-9.628ZM62.444,89.77c-1.049-1.5,1.073-5.349.881-6.285a98.95,98.95,0,0,0-5.853-8.144c-.3-.3-.4-.589-.922-.471-.229,1.854-4.592,8.81-3.386,10.214.123.143,2.762.841,3.545,1.266,2.191,1.188,3.268,3.719,5.735,3.421m23.287-7.76H77.193c-1.371,0-2.407-2.917-3.7-2.8-.861.075-6.031,4.209-6.7,5.133-2.651,3.679.941,8.876-4.347,8.538.446,1.938,1.1,3.876.929,5.9a23.266,23.266,0,0,1,5.706.335,9.205,9.205,0,0,1,3.508-4.628c.433-.333,1.162-.423,1.443-.655.427-.353.372-1.7,1.658-1.818,1.727-.152,1.5,1.79,1.829,2.713.724,2.016,4.523,2.7,4.518.482s-3.981-1.339-3.314-4.519a6.567,6.567,0,0,1,4.441-4.573c.488-.159,1.3.066,1.592-.111a13.71,13.71,0,0,0,.975-3.993M45.213,95.982H30.776v9H44.9a10.842,10.842,0,0,0,2.533-1.348c2.451-2.441,1.078-7.069-2.223-7.656" transform="translate(0 0.001)" fill="#12263f"/>
        <path id="Trazado_1269495" data-name="Trazado 1269495" d="M5.124,283.143l50.933.141c5.628,1.157,9.337,8.5,7.191,13.74-.538,1.315-2.846,3.2-4.256,3.2H54.18c.4-1.348,1.12-2.4,1.238-3.884.3-3.78-2.541-7.727-6.4-8.19-4.9-.589-10.772.35-15.783-.016-2.382.394-1.589,3.158-2.809,3.4l-25.306,0Z" transform="translate(-3.533 -195.233)" fill="#6a2874"/>
        <path id="Trazado_1269496" data-name="Trazado 1269496" d="M107.308,10.732c.179.4,2.672,1.365,2.794,2.173.074.485-.328,1.067-.25,1.638.111.806,1.209,1.927,1.554,2.8a13.1,13.1,0,0,1-.529,9.53c.126-3.348-1.16-4.875-4.637-4.324-2.381.378-3.029,2.59-4.362,4.019-1.978,2.12-6.2,6.114-9.305,5.885-1.172-.086-2.171-1.583-3.041-1.93-2.21-.88-1.9.48-3.177-2.412-1.11-2.506-3.113-9.9-1-12.016.656-.659,1.991-.537,2.695-.876.541-.26,1.741-2.165,2.7-2.884,2.192-1.638,5.911-2.379,8.637-2.22,2.656.155,5.621,2.132,7.921.614" transform="translate(-58.214 -6.962)" fill="#633c0b"/>
        <path id="Trazado_1269497" data-name="Trazado 1269497" d="M258.951,271.154a17.983,17.983,0,0,1-.931,4.036c-.3.183-1.04-.07-1.695.635a29.2,29.2,0,0,0-1.465,2.88c-2.688,4.162-8,5.77-12.79,5.448-3.321-.224-12.36-2.061-8.271-6.949,1.848-2.208,2.151-.217,3.624.73,4.557,2.929,10.6-1.281,7.7-5.835l-2.307-2.333c1.06-1.9,3.525-.972,4.789-2.355,1.666-1.823,1.052-6.663,4.117-7.369,4.743-1.092,5.735,4.381,6.017,7.85.1,1.225-.882,1.6.438,2.968.246.254.753.259.777.293" transform="translate(-160.49 -179.208)" fill="#633c0b"/>
        <path id="Trazado_1269498" data-name="Trazado 1269498" d="M57.041,95.125c2.061,6.577,7.88,7.92,14.143,7.464,4.949-.361,8.282-2.825,9.933-7.472,3.648,2.27,9.747,3.985,12.976,6.582,5.657,4.549-.786,11.936-2.435,17.033-.85.813-3.9-1.6-5.09-1.591-.3-2.025,3.323-5.628,1.508-7.256-1.786-1.6-3.082,1.967-3.665,3.136-3.034,6.088-5.37,12.79-8.414,18.908l-13.935.091-9.846-21.975a1.6,1.6,0,0,0-2.319-.179c-1.539,1.731,2.308,5.99,1.51,7.257a24.3,24.3,0,0,1-4.9,1.887c-1.7-5.529-8.719-13.241-1.866-17.812,3.516-2.345,8.6-4.052,12.394-6.074" transform="translate(-28.753 -65.585)" fill="#ffe19a"/>
        <path id="Trazado_1269499" data-name="Trazado 1269499" d="M224.413,257.91a13.71,13.71,0,0,1-.975,3.993c-.29.177-1.1-.048-1.592.111a6.567,6.567,0,0,0-4.441,4.573c-.667,3.18,3.309,2.294,3.314,4.519s-3.794,1.534-4.518-.482c-.332-.922-.1-2.864-1.829-2.713-1.286.113-1.231,1.465-1.658,1.818-.281.232-1.01.322-1.443.655a9.205,9.205,0,0,0-3.508,4.628,23.267,23.267,0,0,0-5.706-.335c.174-2.023-.483-3.961-.929-5.9,5.288.338,1.7-4.859,4.347-8.539.666-.924,5.835-5.058,6.7-5.133,1.3-.114,2.332,2.8,3.7,2.8Z" transform="translate(-138.682 -175.899)" fill="#f8b3a9"/>
        <path id="Trazado_1269500" data-name="Trazado 1269500" d="M122.1,205.215c-.308-3.752,5.669-2.367,7.09-5.485l11.1-24.652,5.093,1.887-.06.7c-2.812,7.954-7.925,15.965-10.646,23.827a13.485,13.485,0,0,0-.78,3.722Z" transform="translate(-84.181 -120.721)" fill="#f8b3a9"/>
        <path id="Trazado_1269501" data-name="Trazado 1269501" d="M67.457,175.179l11.469,25.669c.1.749-.9,1.607-1.128,2.478-.582,2.206.391,2.787-3.207,2.066L62.241,177.74c-.076-.8,4.933-2.768,5.216-2.561" transform="translate(-42.916 -120.779)" fill="#f8b3a9"/>
        <path id="Trazado_1269502" data-name="Trazado 1269502" d="M113.561,309.143c3.3.587,4.673,5.215,2.223,7.656a10.843,10.843,0,0,1-2.533,1.348H99.124v-9Z" transform="translate(-68.348 -213.161)" fill="#da9dfe"/>
        <path id="Trazado_1269503" data-name="Trazado 1269503" d="M118.99,60.14v9.47c0,.948-1.663,3.384-2.477,4.043-2.2,1.779-7.322,1.691-10.1,1.392a6.577,6.577,0,0,1-5.089-3.914c-1.192-2.833.5-1.246,1.69-1.072,4.2.612,9.585-3.355,12.239-6.356,1.134-1.282,1.813-3.627,3.735-3.561" transform="translate(-69.585 -41.467)" fill="#f8b3a9"/>
        <path id="Trazado_1269504" data-name="Trazado 1269504" d="M180.043,255.985c-2.467.3-3.544-2.233-5.735-3.421-.783-.424-3.422-1.123-3.545-1.265-1.206-1.4,3.157-8.36,3.386-10.214.521-.119.627.169.922.471a98.878,98.878,0,0,1,5.853,8.144c.192.935-1.93,4.783-.881,6.285" transform="translate(-117.6 -166.215)" fill="#017095"/>
        <path id="Trazado_1269505" data-name="Trazado 1269505" d="M123.37,225.143c.322.3-2.925,7.588-3.63,8.013-2.158,1.3-2.833.82-3.776-1.073a54.718,54.718,0,0,1-2.84-6.94Z" transform="translate(-78.001 -155.241)" fill="#017095"/>
        <path id="Trazado_1269506" data-name="Trazado 1269506" d="M54.124,250.761l6.983-9.628,4.195,9.628Z" transform="translate(-37.32 -166.266)" fill="#017095"/>
      </g>
    </g>
  </g>
</svg>
