<svg xmlns="http://www.w3.org/2000/svg" xmlns:xlink="http://www.w3.org/1999/xlink" width="125" height="125" viewBox="0 0 125 125">
  <defs>
    <clipPath id="clip-path">
      <rect id="Rectángulo_459068" data-name="Rectángulo 459068" width="125" height="125" transform="translate(1235.549 189)" fill="#fff" stroke="#707070" stroke-width="1"/>
    </clipPath>
    <clipPath id="clip-path-2">
      <rect id="Rectángulo_459067" data-name="Rectángulo 459067" width="106.984" height="117.785" fill="none"/>
    </clipPath>
  </defs>
  <g id="Enmascarar_grupo_1180268" data-name="Enmascarar grupo 1180268" transform="translate(-1235.549 -189)" clip-path="url(#clip-path)">
    <g id="Grupo_1208877" data-name="Grupo 1208877" transform="translate(1244.549 193)">
      <g id="Grupo_1208876" data-name="Grupo 1208876" clip-path="url(#clip-path-2)">
        <path id="Trazado_1267448" data-name="Trazado 1267448" d="M32.757,273.046a2.672,2.672,0,0,1,.3-.007c27.964.61,44.011,0,71.677-.146a11.772,11.772,0,0,1,8.529,3.256c4.621,4.552,2.789,12.7,2.9,18.876a2.244,2.244,0,0,1-.925,1.868l-.572.411a2.226,2.226,0,0,1-1.3.418l-88.379-.106a2.113,2.113,0,0,1-1.6-.677,2.608,2.608,0,0,1-.583-1.452c-.408-3.122-.265-13.522.923-16.187a10.966,10.966,0,0,1,9.024-6.254" transform="translate(-14.905 -179.937)" fill="#8d1939"/>
        <path id="Trazado_1267449" data-name="Trazado 1267449" d="M148.108,1.717a4.174,4.174,0,0,1,7.536,2.17l-2.333,24.1c-.608,2.164-3.179,2.385-3.835,0-.818-8.6-1.2-13.827-1.955-22.394a6.578,6.578,0,0,1,.587-3.872" transform="translate(-97.24 0)" fill="#8d1939"/>
        <path id="Trazado_1267450" data-name="Trazado 1267450" d="M255.3,106.053a4.175,4.175,0,0,1-.305,7.837l-23.957,3.5c-2.246-.074-3.076-2.518-.915-3.724,8.159-2.851,13.14-4.467,21.277-7.252a6.577,6.577,0,0,1,3.9-.356" transform="translate(-150.907 -69.81)" fill="#8d1939"/>
        <path id="Trazado_1267451" data-name="Trazado 1267451" d="M214.81,31.994a3.311,3.311,0,0,1,4.449,4.349L208.57,52.3c-1.239,1.282-3.117.47-2.678-1.443,2.663-6.318,4.362-10.109,7.053-16.378a5.217,5.217,0,0,1,1.865-2.484" transform="translate(-135.716 -20.865)" fill="#8d1939"/>
        <path id="Trazado_1267452" data-name="Trazado 1267452" d="M2.524,106.59a4.174,4.174,0,0,0,.439,7.83l24.013,3.087c2.245-.112,3.032-2.57.852-3.739-8.207-2.711-13.215-4.242-21.4-6.888a6.576,6.576,0,0,0-3.9-.289" transform="translate(0 -70.151)" fill="#8d1939"/>
        <path id="Trazado_1267453" data-name="Trazado 1267453" d="M69.077,25.221a3.667,3.667,0,0,0-4.926,4.815L75.987,47.7c1.371,1.42,3.452.521,2.966-1.6-2.949-7-4.83-11.193-7.809-18.135a5.777,5.777,0,0,0-2.066-2.75" transform="translate(-42.061 -16.374)" fill="#8d1939"/>
        <path id="Trazado_1267454" data-name="Trazado 1267454" d="M119.55,107.837a11.788,11.788,0,0,0-10.545-8.19c-5.589-.4-16.695-.575-22.119.051a11.811,11.811,0,0,0-9.992,9.084l-9.972,50.49h62.335Z" transform="translate(-44.127 -65.466)" fill="#ff9ebf"/>
        <path id="Trazado_1267455" data-name="Trazado 1267455" d="M140.469,141.866q-.283-2.378-.458-4.526t-.254-3.85q-.078-1.7-.022-2.786a28.166,28.166,0,0,1,5.654-2.6q3.009-1,5.758-1.678-.561,3.491-.922,7.179t-.579,7.248q-.218,3.56-.328,6.737t-.138,5.581a35.787,35.787,0,0,0-3.51,1.095,30.782,30.782,0,0,0-3.093,1.378q-.4-1.939-.79-4.252t-.715-4.731q-.321-2.416-.6-4.794" transform="translate(-92.122 -83.362)" fill="#fff"/>
        <path id="Trazado_1267456" data-name="Trazado 1267456" d="M155.95,219.322a6.677,6.677,0,0,1-.931,2.022,7.367,7.367,0,0,1-3.631,2.759,5.043,5.043,0,0,1-4.03-.27,3.881,3.881,0,0,1-2-3.04,5.527,5.527,0,0,1,.237-2.183,7.339,7.339,0,0,1,1-2.046,7.6,7.6,0,0,1,1.587-1.66,6.3,6.3,0,0,1,2.085-1.059,5.218,5.218,0,0,1,2.107-.3,4.312,4.312,0,0,1,1.8.527A3.945,3.945,0,0,1,155.5,215.3a3.89,3.89,0,0,1,.636,1.857,6.033,6.033,0,0,1-.19,2.167" transform="translate(-95.83 -140.798)" fill="#fff"/>
      </g>
    </g>
  </g>
</svg>
