<svg xmlns="http://www.w3.org/2000/svg" xmlns:xlink="http://www.w3.org/1999/xlink" width="396.925" height="310.731" viewBox="0 0 396.925 310.731">
  <defs>
    <clipPath id="clip-path">
      <rect id="Rectángulo_455593" data-name="Rectángulo 455593" width="72.093" height="71.683" fill="#ff9ebf"/>
    </clipPath>
    <clipPath id="clip-path-3">
      <rect id="Rectángulo_455590" data-name="Rectángulo 455590" width="34.882" height="71.683" fill="#ff9ebf"/>
    </clipPath>
    <clipPath id="clip-path-4">
      <rect id="Rectángulo_455591" data-name="Rectángulo 455591" width="72.093" height="33.673" fill="#ff9ebf"/>
    </clipPath>
    <clipPath id="clip-path-5">
      <rect id="Rectángulo_455593-2" data-name="Rectángulo 455593" width="47.879" height="47.606" fill="#ff9ebf"/>
    </clipPath>
    <clipPath id="clip-path-7">
      <rect id="Rectángulo_455590-2" data-name="Rectángulo 455590" width="23.166" height="47.606" fill="#ff9ebf"/>
    </clipPath>
    <clipPath id="clip-path-8">
      <rect id="Rectángulo_455591-2" data-name="Rectángulo 455591" width="47.879" height="22.363" fill="#ff9ebf"/>
    </clipPath>
    <clipPath id="clip-path-9">
      <rect id="Rectángulo_455593-3" data-name="Rectángulo 455593" width="39.76" height="39.534" fill="#ff9ebf"/>
    </clipPath>
    <clipPath id="clip-path-11">
      <rect id="Rectángulo_455590-3" data-name="Rectángulo 455590" width="19.238" height="39.534" fill="#ff9ebf"/>
    </clipPath>
    <clipPath id="clip-path-12">
      <rect id="Rectángulo_455591-3" data-name="Rectángulo 455591" width="39.76" height="18.571" fill="#ff9ebf"/>
    </clipPath>
    <clipPath id="clip-path-13">
      <rect id="Rectángulo_459069" data-name="Rectángulo 459069" width="285.81" height="293.326" fill="none"/>
    </clipPath>
  </defs>
  <g id="Grupo_1180507" data-name="Grupo 1180507" transform="translate(-483.625 -2220.444)">
    <g id="Grupo_1176854" data-name="Grupo 1176854" transform="translate(454.873 2217.25)">
      <g id="Grupo_1208879" data-name="Grupo 1208879" transform="translate(29.265 3.694)">
        <path id="Trazado_991751" data-name="Trazado 991751" d="M510.91,254.27c29.894-64,53.271-72.014,30.691-121.441C526.377,99.5,502.884,89.375,477.2,79.754c-21.817-8.173-33.58-33.17-50.973-50.784C401.555,3.98,369.128.056,339.548,0,303.684-.076,262.277,4.68,232.5,35.534c-16.916,17.53-30.9,43.207-30.061,73.827.736,26.869,9.914,50.223-9.381,68.387-16.038,15.1-30.517,27.493-36.836,54.853-5.949,25.756,4.922,43,28.837,51s2.558,30.668,154.488,25.334S466.068,295.6,491.478,283.6" transform="translate(-154.624 0.004)" fill="#fff5d4" stroke="rgba(0,0,0,0)" stroke-width="1"/>
      </g>
      <g id="Grupo_1208882" data-name="Grupo 1208882" transform="translate(353.171 3.694)" style="isolation: isolate">
        <g id="Grupo_1179161" data-name="Grupo 1179161" clip-path="url(#clip-path)">
          <g id="Grupo_1179160" data-name="Grupo 1179160" transform="translate(0 0)">
            <g id="Grupo_1179159" data-name="Grupo 1179159" clip-path="url(#clip-path)">
              <g id="Grupo_1179155" data-name="Grupo 1179155" transform="translate(17.623 0)" opacity="0.25" style="mix-blend-mode: soft-light;isolation: isolate">
                <g id="Grupo_1179154" data-name="Grupo 1179154">
                  <g id="Grupo_1179153" data-name="Grupo 1179153" clip-path="url(#clip-path-3)">
                    <path id="Trazado_998479" data-name="Trazado 998479" d="M56.2,61.889c1.294-7.3-1.747-16.692-3.909-24.3A173.015,173.015,0,0,0,42.6,11.656,32.836,32.836,0,0,0,38.12,4.1C34.752.168,29.59-1.038,26.02.927c-7.957,4.379-3.17,16.682-.637,25.181,3.3,11.087,6.97,22.082,10.6,33.1,1.608,4.879,4.076,10.543,8.85,12.132s9.016-2.592,10.652-6.833a14.107,14.107,0,0,0,.716-2.617" transform="translate(-21.626 0)" fill="#ff9ebf"/>
                  </g>
                </g>
              </g>
              <g id="Grupo_1179158" data-name="Grupo 1179158" transform="translate(0 18.178)" opacity="0.25" style="mix-blend-mode: soft-light;isolation: isolate">
                <g id="Grupo_1179157" data-name="Grupo 1179157">
                  <g id="Grupo_1179156" data-name="Grupo 1179156" clip-path="url(#clip-path-4)">
                    <path id="Trazado_998480" data-name="Trazado 998480" d="M62.532,20.482c-7.264-1.476-16.73,1.33-24.388,3.3a173,173,0,0,0-26.169,9.033A32.867,32.867,0,0,0,4.307,37.11C.3,40.379-1.039,45.509.836,49.128c4.178,8.063,16.6,3.586,25.157,1.265,11.166-3.027,22.249-6.416,33.353-9.766,4.917-1.485,10.642-3.811,12.349-8.544s-2.366-9.078-6.565-10.819a14.1,14.1,0,0,0-2.6-.782" transform="translate(0 -20.069)" fill="#ff9ebf"/>
                  </g>
                </g>
              </g>
            </g>
          </g>
        </g>
      </g>
      <g id="Grupo_1208884" data-name="Grupo 1208884" transform="translate(383.99 242.516) rotate(53)" style="isolation: isolate">
        <g id="Grupo_1179161-2" data-name="Grupo 1179161" transform="translate(0 0)" clip-path="url(#clip-path-5)">
          <g id="Grupo_1179160-2" data-name="Grupo 1179160" transform="translate(0 0)">
            <g id="Grupo_1179159-2" data-name="Grupo 1179159" clip-path="url(#clip-path-5)">
              <g id="Grupo_1179155-2" data-name="Grupo 1179155" transform="translate(11.704 0)" opacity="0.25" style="mix-blend-mode: soft-light;isolation: isolate">
                <g id="Grupo_1179154-2" data-name="Grupo 1179154">
                  <g id="Grupo_1179153-2" data-name="Grupo 1179153" clip-path="url(#clip-path-7)">
                    <path id="Trazado_998479-2" data-name="Trazado 998479" d="M22.96,41.1c.86-4.847-1.16-11.085-2.6-16.137A114.9,114.9,0,0,0,13.931,7.741,21.807,21.807,0,0,0,10.954,2.72C8.718.111,5.289-.689,2.918.616-2.366,3.524.813,11.694,2.5,17.339,4.69,24.7,7.124,32,9.532,39.321c1.068,3.241,2.707,7,5.878,8.057s5.988-1.722,7.074-4.538A9.368,9.368,0,0,0,22.96,41.1" transform="translate(0 0)" fill="#ff9ebf"/>
                  </g>
                </g>
              </g>
              <g id="Grupo_1179158-2" data-name="Grupo 1179158" transform="translate(0 12.072)" opacity="0.25" style="mix-blend-mode: soft-light;isolation: isolate">
                <g id="Grupo_1179157-2" data-name="Grupo 1179157">
                  <g id="Grupo_1179156-2" data-name="Grupo 1179156" clip-path="url(#clip-path-8)">
                    <path id="Trazado_998480-2" data-name="Trazado 998480" d="M41.529.274c-4.824-.98-11.111.883-16.2,2.193a114.892,114.892,0,0,0-17.379,6A21.827,21.827,0,0,0,2.86,11.317C.2,13.488-.69,16.9.555,19.3c2.775,5.355,11.022,2.382,16.707.84,7.416-2.01,14.776-4.261,22.151-6.486,3.266-.987,7.068-2.531,8.2-5.674S46.043,1.95,43.254.793A9.362,9.362,0,0,0,41.529.274" transform="translate(0 0)" fill="#ff9ebf"/>
                  </g>
                </g>
              </g>
            </g>
          </g>
        </g>
      </g>
      <g id="Grupo_1208883" data-name="Grupo 1208883" transform="translate(71.105 136.613) rotate(40)" style="isolation: isolate">
        <g id="Grupo_1179161-3" data-name="Grupo 1179161" transform="translate(0 0)" clip-path="url(#clip-path-9)">
          <g id="Grupo_1179160-3" data-name="Grupo 1179160" transform="translate(0 0)">
            <g id="Grupo_1179159-3" data-name="Grupo 1179159" clip-path="url(#clip-path-9)">
              <g id="Grupo_1179155-3" data-name="Grupo 1179155" transform="translate(9.72 0)" opacity="0.25" style="mix-blend-mode: soft-light;isolation: isolate">
                <g id="Grupo_1179154-3" data-name="Grupo 1179154">
                  <g id="Grupo_1179153-3" data-name="Grupo 1179153" clip-path="url(#clip-path-11)">
                    <path id="Trazado_998479-3" data-name="Trazado 998479" d="M19.067,34.132c.714-4.025-.964-9.206-2.156-13.4a95.42,95.42,0,0,0-5.342-14.3A18.11,18.11,0,0,0,9.1,2.259C7.24.093,4.392-.572,2.423.511-1.965,2.926.675,9.711,2.072,14.4c1.822,6.114,3.844,12.178,5.844,18.254.887,2.691,2.248,5.815,4.881,6.691s4.972-1.43,5.875-3.769a7.78,7.78,0,0,0,.4-1.443" transform="translate(0 0)" fill="#ff9ebf"/>
                  </g>
                </g>
              </g>
              <g id="Grupo_1179158-3" data-name="Grupo 1179158" transform="translate(0 10.025)" opacity="0.25" style="mix-blend-mode: soft-light;isolation: isolate">
                <g id="Grupo_1179157-3" data-name="Grupo 1179157">
                  <g id="Grupo_1179156-3" data-name="Grupo 1179156" clip-path="url(#clip-path-12)">
                    <path id="Trazado_998480-3" data-name="Trazado 998480" d="M34.487.228c-4.006-.814-9.227.733-13.45,1.821A95.411,95.411,0,0,0,6.6,7.03,18.126,18.126,0,0,0,2.375,9.4C.162,11.2-.573,14.031.461,16.026c2.3,4.447,9.153,1.978,13.874.7,6.158-1.669,12.271-3.539,18.395-5.386,2.712-.819,5.869-2.1,6.811-4.712S38.236,1.619,35.92.659A7.774,7.774,0,0,0,34.487.228" transform="translate(0 0)" fill="#ff9ebf"/>
                  </g>
                </g>
              </g>
            </g>
          </g>
        </g>
      </g>
    </g>
    <g id="Grupo_1208881" data-name="Grupo 1208881" transform="translate(539.138 2228.944)">
      <g id="Grupo_1208880" data-name="Grupo 1208880" clip-path="url(#clip-path-13)">
        <path id="Trazado_1267457" data-name="Trazado 1267457" d="M72.744,33.214c-2.62,2.192-4.566,6.165-5.55,9.422-.549,1.828.145,3.757.168,5.654.075,6.206-.442,12.649-3.777,18.06a5.253,5.253,0,0,1-1.68,1.851,6.062,6.062,0,0,1-3.4.506q-14.965-.655-29.931-1.313a9.708,9.708,0,0,0-4.48.509c-5.954,2.707-1.345,11.634,1.938,14.436a16.133,16.133,0,0,0,10.975,3.65c3.8-.127,7.7-1.434,11.322-.269a15.169,15.169,0,0,1,5.813,4.034c6.46,6.449,11.4,14.384,18.407,20.232a42.889,42.889,0,0,0,28.15,9.853,62.5,62.5,0,0,0,16.926-3.12,117.294,117.294,0,0,0,18.057-7.262,54.007,54.007,0,0,0,8.146-4.884,72.912,72.912,0,0,0,6.362-4.737c1.923-1.813,3.036-4.135,4.841-6a14.489,14.489,0,0,0,3.7-7.426,23.6,23.6,0,0,0-.755-10.567C154.159,62.069,142.762,51.731,130.8,43.9c-11.414-7.478-24.1-13.5-37.655-15.084-5.017-.584-10.226-.532-14.954,1.246a18.82,18.82,0,0,0-5.451,3.155" transform="translate(40.146 53.881)" fill="#ffe19a"/>
        <path id="Trazado_1267458" data-name="Trazado 1267458" d="M170.348,84.5a88.31,88.31,0,0,0-15.437,5.211,121.972,121.972,0,0,0-15.356,8.2,128.713,128.713,0,0,0-13.5,10.124c-8.806,7.209-19.173,12.143-29.39,17-15.353,7.29-30.752,14.6-46.883,19.966-10.555,3.508-21.478,6.206-31.307,11.417-3.245,1.721-6.469,3.826-8.32,7a10.16,10.16,0,0,0-1.044,7.73c1.79,5.894,10.023,3.765,14.286,3.008,11.426-2.039,22.013-7.036,32.9-10.833,9.789-3.415,19.824-6.119,29.48-9.893,12.875-5.029,25.209-12,38.858-14.164a4.206,4.206,0,0,1,3.2.379c1.81,1.356.544,4.219-.894,5.963C111.33,164.6,88.62,175.988,68.36,189.93c-4.589,3.158-9.321,6.781-11.183,12.036-3.164,8.924,15.741,3.91,18.9,2.759,16.241-5.914,32.594-11.877,47.459-20.7,10.7-6.351,20.492-14.1,30.848-21,9.529-6.342,19.526-11.952,29.06-18.285,18.635-12.383,35.382-27.453,54.139-39.651,2.71-1.764,6.585-3.369,8.849-1.064,1.92,1.949,1.058,5.223-.182,7.663-3.543,6.975-9.112,12.64-15.344,17.27a101.668,101.668,0,0,1-10.009,6.469,27.3,27.3,0,0,1-5.029,2.611,47.993,47.993,0,0,1-5.81,1.324,21.074,21.074,0,0,0-7.449,2.507,1.7,1.7,0,0,0-.836.925,1.353,1.353,0,0,0,.842,1.42,11.071,11.071,0,0,0,1.712.495,1.755,1.755,0,0,1,1.281,1.128,2.276,2.276,0,0,1-.636,1.729,43.594,43.594,0,0,0-2.77,4.341,5.568,5.568,0,0,0,3.956-.506,27.309,27.309,0,0,0,3.43-2.2,2.617,2.617,0,0,1,.951-.46.954.954,0,0,1,.954.318c.3.434.043,1.024-.208,1.492-.535.983-1.024,1.993-1.466,3.019a5.842,5.842,0,0,0-.506,1.643.416.416,0,0,0,.058.318.429.429,0,0,0,.272.113,4.2,4.2,0,0,0,2.18-.275,3.79,3.79,0,0,1,1.154-.4c.882-.067,1.567.714,2.377,1.067a3.845,3.845,0,0,0,3.707-.755c1.058-.792,1.871-1.868,2.869-2.736a2.167,2.167,0,0,1,.966-.558.88.88,0,0,1,.969.4,1.315,1.315,0,0,1,.069.68c-.04.532-.081,1.064-.121,1.6a.919.919,0,0,0,.061.523c.558,1.012,2.964.506,3.638-.173.966-.969.818-3.065,1.03-4.321.645-3.811,1.7-7.669,4.08-10.79,3.089-4.037,7.918-6.252,12.288-8.852,10.234-6.085,19.121-15.824,20.662-27.632.83-6.356-.509-12.788-2.152-18.985-.839-3.161-1.614-6.278-.746-9.517,1.576-5.876,7.817-10.237,6.345-16.935a12.213,12.213,0,0,0-3.025-5.367,21.269,21.269,0,0,0-13.375-7.036,2.792,2.792,0,0,0-1.819.246c-2.042,1.319-.521,5.735-1.411,7.666-1.536,3.331-5.1,6.339-7.84,8.655a80.018,80.018,0,0,1-33.638,16.8c-12.345,2.822-25.229,2.675-37.563,5.55" transform="translate(16.569 86.158)" fill="#ffe19a"/>
        <path id="Trazado_1267459" data-name="Trazado 1267459" d="M108.061,56a14.078,14.078,0,0,0-1.929-1.339,18.263,18.263,0,0,1-2.039-1.776,7.461,7.461,0,0,1-1.183-1.379,11.342,11.342,0,0,1-.856-1.958,7.962,7.962,0,0,0-2.721-3.918,6.51,6.51,0,0,0-2.516-.943,9.2,9.2,0,0,0-6.4,1.223,4.9,4.9,0,0,0-2.14,2.47A9.021,9.021,0,0,0,88,50.7a10.42,10.42,0,0,1-.83,3.661A5.288,5.288,0,0,1,84.8,56.514c-1.547.9-3.239,1.544-4.763,2.49.925,2.455,3.23,4.118,5.587,5.281,6.009,2.958,12.878,3.534,19.564,3.933a17.1,17.1,0,0,1,2.238-3.612,5.745,5.745,0,0,1,3.621-2.047c-1.374-1.993-1.284-4.835-2.984-6.559" transform="translate(151.418 84.286)" fill="#ffb78c"/>
        <path id="Trazado_1267460" data-name="Trazado 1267460" d="M88.1,48.126a3.829,3.829,0,0,1,3.048.127,5.357,5.357,0,0,1,2.606,4.517,24.161,24.161,0,0,1-.6,5.411,9.4,9.4,0,0,0,.385,5.367,6.841,6.841,0,0,0,3.32,3.181,12.8,12.8,0,0,0,4.54,1.084,4.212,4.212,0,0,1,1.472.281,4.108,4.108,0,0,1,1.064.836,10.507,10.507,0,0,0,2.169,1.7,7.365,7.365,0,0,0,6.648.046,9.824,9.824,0,0,0,4.589-4.968,9.1,9.1,0,0,0,.8-4.341,11.094,11.094,0,0,0-1.249-3.982,16.913,16.913,0,0,0-7.666-7.906,33.056,33.056,0,0,0-5.619-1.779,1.755,1.755,0,0,1-1.079-.593,4.392,4.392,0,0,1-.552-1.018,8.162,8.162,0,0,0-1.021-2.128,2.878,2.878,0,0,0-2.987-.917,1.788,1.788,0,0,0-1.1.943,1.688,1.688,0,0,1-.943.816,4.144,4.144,0,0,1-1.151.119,18.959,18.959,0,0,0-6.171.977,10.218,10.218,0,0,0-4.98,3.652,3.9,3.9,0,0,0-.81,2.412c.032.5.315.842.833.619.8-.344,1.223-1.345,1.712-2A6.716,6.716,0,0,1,88.1,48.126" transform="translate(156.676 81.219)" fill="#ffcaab"/>
        <path id="Trazado_1267461" data-name="Trazado 1267461" d="M99.891,61a2.971,2.971,0,0,0-1.51-1.212,25.823,25.823,0,0,0,2.944-3.534,6.008,6.008,0,0,0,1.073-3.566,9.808,9.808,0,0,0-1.116-3.965,7.853,7.853,0,0,0-3.809-3.522,9.136,9.136,0,0,1,6.044,1.452,7.817,7.817,0,0,1,3.294,3.464,7.76,7.76,0,0,1,1.128,5.292A4.97,4.97,0,0,0,108.969,52c3.167,6.056,2.768,15.208-3.441,19.234a14.323,14.323,0,0,1-4.847,1.859C95.834,74.13,87.763,73,88.517,66.334A3.994,3.994,0,0,1,90.446,63.1a2.733,2.733,0,0,1,2.62.147c.8.5,1.368,1.3,2.163,1.819,1.359.9,6.027,3.117,6.246-.072A6.625,6.625,0,0,0,99.891,61" transform="translate(167.371 85.331)" fill="#0e1b47"/>
        <path id="Trazado_1267462" data-name="Trazado 1267462" d="M149.2,48.713a17.26,17.26,0,0,0-11.834-1.524,80.5,80.5,0,0,0-10.177,3.557c-3.464,1.339-6.912,2.73-10.417,3.962q-3.809,1.336-7.64,2.617c-4.462,1.489-8.939,2.8-13.453,4.1a54.33,54.33,0,0,0-12.366,4.962c-2.2,1.281-22.776,14.02-23.693,14.627-1.8,1.186-3.514,2.5-5.373,3.592-3.2,1.888-6.585,3.436-9.821,5.26A39.754,39.754,0,0,0,39.2,93.311a2.915,2.915,0,0,0-1.382,2.094,3.21,3.21,0,0,1,.012.552,2.426,2.426,0,0,1-.312.717,2.538,2.538,0,0,0,1.625,3.519,3.9,3.9,0,0,0,1.883-.234,13.222,13.222,0,0,0,5.443-3.4c-.237,1.689-2.042,2.661-2.883,4.144a.961.961,0,0,0-.159.758c.182.564,1.009.46,1.553.228a31.647,31.647,0,0,0,7.464-4.506,18.267,18.267,0,0,1,2.316-1.738,4.408,4.408,0,0,1,2.77-.654q-.325,2.8-.651,5.593a1.589,1.589,0,0,0,.147,1.119,1.234,1.234,0,0,0,1.507.191,3.615,3.615,0,0,0,1.7-2.056A24.114,24.114,0,0,0,60.916,97a12.768,12.768,0,0,1,2.126-4.43c.743-.995,1.634-1.883,2.3-2.932a16.727,16.727,0,0,0,1.056-2.1c.067-.153.127-.309.191-.463.541-.223,1.076-.457,1.6-.694,5.347-2.412,11.093-3.716,16.686-5.408a65.506,65.506,0,0,0,7.5-2.687c5.743-2.53,11.657-4.656,17.389-7.241,1.374-.619,14.448-6.388,17.476-7.626,1.365-.555,2.73-1.1,4.095-1.66q5.925-2.39,11.877-4.714a14.484,14.484,0,0,0,4.717-3.039c.633-.6,1.029-1.353,1.66-1.938.22-.2,2.073-1.8,2.322-1.6a16.427,16.427,0,0,0-2.7-1.758" transform="translate(70.517 88.443)" fill="#ffb78c"/>
        <path id="Trazado_1267463" data-name="Trazado 1267463" d="M137.274,59.468c-2.75-.813-5.483-1.677-8.152-2.721-3.6-1.405-7.071-3.126-10.616-4.667-4.179-1.816-8.58-2.918-12.782-4.6-3.45-1.377-7.189-.61-10.425,1.241-4.6,2.626-7.626,7.244-11.194,11.006-5.645,5.957-12.86,10.142-19.971,14.243a20.935,20.935,0,0,0-4.855,3.453,3.11,3.11,0,0,0-.746,1.165c-.642,2.1,3.7,4.04,5.153,4.939,2.334,1.44,4.751,2.736,7.166,4.028,4.763,2.551,9.592,5.116,13.684,8.69a72.7,72.7,0,0,1,9.4,10.714,63.074,63.074,0,0,1,4.153,5.142c1.229,2.016,1.414,5.631,1.405,7.95a1.109,1.109,0,0,0,.489-.489,41.54,41.54,0,0,1,7.412-8.927,51.981,51.981,0,0,1,10.827-7.438,90.166,90.166,0,0,1,14.109-5.463q7.483-2.368,15.067-4.4a42.19,42.19,0,0,0,9.824-3.462c3.039-1.7,5.711-4.367,6.593-7.736.749-2.851,1.235-8.016-.321-10.7s-4.971-4.584-7.687-5.833c-5.92-2.724-12.273-4.294-18.531-6.142" transform="translate(110.612 88.498)" fill="#da9dfe"/>
        <path id="Trazado_1267464" data-name="Trazado 1267464" d="M156.531,81.493a35.642,35.642,0,0,0-12.137-15.8c-1.975-1.452-6.082-4.731-8.606-4.329-3.41.544-7.056,3.739-9.783,5.68-7.8,5.544-15.451,11.845-24.234,15.775-2.927,1.31-6,2.371-8.626,4.213a16.51,16.51,0,0,0-4.983,5.078A140.826,140.826,0,0,0,62.215,103.6c-2.84,1.619-5.625,3.337-8.43,5.015-1.935,1.157-3.881,2.3-5.862,3.372a59.22,59.22,0,0,1-11.327,5,17.324,17.324,0,0,1-6.261.74,30.578,30.578,0,0,1-3.849-.628l-12.522-2.594a29.168,29.168,0,0,1-4.384-1.148,29.52,29.52,0,0,1-3.386-1.617q-2.325-1.241-4.653-2.475a1.427,1.427,0,0,0,.388,1.206c2.915,4,6.917,7.05,10.422,10.547C17.2,125.854,21.1,131.542,24.9,137.234a11.649,11.649,0,0,1,2.273,4.957,3.734,3.734,0,0,0,.324,1.533,1.84,1.84,0,0,0,1.721.778,4.044,4.044,0,0,0,1.828-.732,25.118,25.118,0,0,0,4.841-4.705,23.538,23.538,0,0,1,5.359-4.876A19.126,19.126,0,0,1,45,132.323c1.7-.6,3.392-1.189,5.116-1.709a148.351,148.351,0,0,1,20.686-4.4A57.39,57.39,0,0,0,80.952,124.1c6.865-2.357,12.29-7.342,17.146-12.872.043.023.081.061.127.081a4.235,4.235,0,0,0,1.576.318c4.127.2,7.993-1.8,11.724-3.574A129.115,129.115,0,0,1,136.849,99.1c6.819-1.637,14.373-3.068,18.774-8.525a8.3,8.3,0,0,0,1.732-3.291,10.087,10.087,0,0,0-.824-5.8" transform="translate(2.846 116.031)" fill="#ffb78c"/>
        <path id="Trazado_1267465" data-name="Trazado 1267465" d="M11.061,81.933a41.858,41.858,0,0,1,6.128,8.783,40.668,40.668,0,0,0,6.157,8.759c1.779,1.77,3.866,3.2,5.764,4.841a14.31,14.31,0,0,1,4.451,5.96,4.175,4.175,0,0,1-.312,3.892,3.329,3.329,0,0,1-2.776,1.125,6.4,6.4,0,0,1-2.909-1.015c-4.092-2.464-6.3-7.065-9.491-10.625-3.861-4.312-9.2-7.117-12.944-11.527a26.48,26.48,0,0,1-3.34-5.061C.474,84.533-.827,81.355.668,78.636c1.5-2.736,5.735-.22,7.542.96a17.4,17.4,0,0,1,2.851,2.337" transform="translate(0 146.444)" fill="#ffcaab"/>
        <path id="Trazado_1267466" data-name="Trazado 1267466" d="M134.66,60.232q-2.464.885-4.879,1.886c-2.788,1.16-13.436,6.429-16.067,7.739a137.042,137.042,0,0,0-15.625,9.121c-8.444,5.694-16.588,11.848-25.388,17-3.493,2.045-7.085,3.927-10.72,5.7-5.356,2.617-10.824,5.009-16.3,7.383s-10.943,4.728-16.336,7.282c-2.687,1.272-14.462,7.5-15.567,8.381a2.655,2.655,0,0,0-.711.737.93.93,0,0,0-.012.977,1.178,1.178,0,0,0,1.058.347,4.039,4.039,0,0,1,2.5.628,13.566,13.566,0,0,1,2.111,1.411,12.491,12.491,0,0,1,4.644,9.109c.1,1.611.02,3.294-1.391,4.344a4.336,4.336,0,0,0-.9.711.827.827,0,0,0-.046,1.05,1.024,1.024,0,0,0,.648.231c1.466.116,2.5-.659,3.777-1.2a32.216,32.216,0,0,1,4.112-1.408c2.857-.781,5.787-1.264,8.7-1.793Q46,138.46,53.6,136.494c5.975-1.541,11.949-3.372,17.241-6.539,2.325-1.394,4.494-3.028,6.773-4.488a88.816,88.816,0,0,1,14.795-7.212q10.723-4.32,21.758-7.8c5.3-1.672,10.694-3.224,15.631-5.824a53.171,53.171,0,0,0,6.686-4.61c2.649-1.943,5.691-3.5,8.491-5.223a3.88,3.88,0,0,0,2.013-2.366q2.963-6.871,5.917-13.748c1.142-2.663,2.331-5.312,3.436-7.993a18.4,18.4,0,0,1,.72-2.14,6.406,6.406,0,0,1,1.8-1.677c.428-.309,4.06-2.449,4.477-1.854A21.882,21.882,0,0,0,152.867,57a10.938,10.938,0,0,0-3.143-.706,13.918,13.918,0,0,0-4.1.6c-3.707.946-7.371,2.05-10.966,3.343" transform="translate(24.454 106.476)" fill="#481850"/>
        <path id="Trazado_1267467" data-name="Trazado 1267467" d="M61.115,94.477c-5.009,3.95-10.92,6.874-15.046,11.735a3.9,3.9,0,0,0-1.018,1.842,4.176,4.176,0,0,0,.445,2.166c1.7,4.185,3.759,8.511,7.5,11.035a20.3,20.3,0,0,0,7.886,2.8,3.857,3.857,0,0,0,1.51.064,4.067,4.067,0,0,0,1.8-1.194,53.436,53.436,0,0,1,7.079-5.813c11.834-7.927,27.612-8.869,38.511-18.04a11.193,11.193,0,0,0,2.973-3.456,12.975,12.975,0,0,0,1.021-4.931,39.118,39.118,0,0,0-.116-8.167A21.611,21.611,0,0,0,101.029,65.81,19.152,19.152,0,0,0,82.613,68c-2.84,2.12-4.257,5.266-6.131,8.219a105.468,105.468,0,0,1-6.51,9.274,55.239,55.239,0,0,1-8.858,8.979" transform="translate(85.179 121.833)" fill="#ffe5cc"/>
        <path id="Trazado_1267468" data-name="Trazado 1267468" d="M54.16,110.97a63.883,63.883,0,0,1,6.406-6.446c2.447-2.033,5.188-3.69,7.663-5.688a70.207,70.207,0,0,0,7.082-6.894l7.843-8.386a32.855,32.855,0,0,1,6.469-5.787,11.026,11.026,0,0,1,8.308-1.66c4.352,1.1,7.085,5.68,7.545,10.145a22.638,22.638,0,0,1-2.649,12.314,63.045,63.045,0,0,1-7.16,10.538,46.866,46.866,0,0,1-6.246,6.9,37.214,37.214,0,0,1-9.668,5.61c-4.15,1.758-8.485,2.889-12.623,4.584q-6.342,2.6-12.426,5.792a26.137,26.137,0,0,0-5.821,3.84,15.55,15.55,0,0,1-3.56,1.949c-1.287.671-2.562,1.368-3.838,2.062a42.262,42.262,0,0,0-4.488,2.7c-1.356.98-2.34,2.293-3.621,3.326a9.848,9.848,0,0,1-4.005,1.92,2.058,2.058,0,0,1-1.654-.153c-.827-.6.081-1.5.234-2.166a24.593,24.593,0,0,0,.83-2.906,17.719,17.719,0,0,0-.85-6.6c-.489-1.695-1.4-3.352-1.79-5.058a24.764,24.764,0,0,1-.214-5.362,1.135,1.135,0,0,1,.119-.613,1.154,1.154,0,0,1,.818-.4c3.5-.639,7.068-.772,10.576-1.35,3.054-.506,6.2-1.388,8.635-3.441a42.432,42.432,0,0,0,3.913-4.144q2.086-2.308,4.173-4.618" transform="translate(48.976 143.506)" fill="#ffcaab"/>
        <path id="Trazado_1267469" data-name="Trazado 1267469" d="M154.146,86.336a30.726,30.726,0,0,0-4.26-10.978,24.055,24.055,0,0,0-4.248-4.694,66.046,66.046,0,0,0-17.325-11.547,11.765,11.765,0,0,0-5.963-1.339c-2.585.295-5.136,2.186-7.334,3.447a22.251,22.251,0,0,0-6.342,6.2c-3.829,5.26-5.084,11.562-7.455,17.458a55.357,55.357,0,0,1-9.89,15.564c-6.475,7.4-14.352,13.569-21.724,19.9q-1.353,1.163-2.7,2.334c-1.761,1.53-20.518,18.586-23.352,21.18-2.458,2.247-12.293,11.414-12.646,11.975a1.559,1.559,0,0,0-.286.659c-.075.778.7.48,1.157.457a9.724,9.724,0,0,1,1.81.124,6.7,6.7,0,0,1,1.385.327,5.26,5.26,0,0,1,.68.3c.136.072.477.382.616.382a9.176,9.176,0,0,1,2.927,3.762,10.085,10.085,0,0,1,.8,6.275,6.563,6.563,0,0,1-.749,1.764,2.192,2.192,0,0,1-1.05.966,1.088,1.088,0,0,0-.587.7.306.306,0,0,0,.093.3.351.351,0,0,0,.217.043,4.688,4.688,0,0,0,1.721-.711c.628-.327,1.217-.769,1.828-1.134,1.226-.737,2.478-1.434,3.745-2.1,2.539-1.336,5.142-2.545,7.773-3.687,5.292-2.3,10.694-4.329,15.995-6.6a103.4,103.4,0,0,0,12.2-6.05c3.8-2.256,7.455-4.939,9.951-8.583,1.793-2.614,2.924-5.81,5.067-8.178,3.519-3.884,9.592-6.359,14.225-8.615,12.7-6.183,27.311-10.087,37.259-20.7,3.624-3.866,6.764-8.19,6.906-13.65a27.468,27.468,0,0,0-.448-5.544" transform="translate(57.918 109.227)" fill="#6a2874"/>
        <path id="Trazado_1267470" data-name="Trazado 1267470" d="M133.737,64.313c-.526-3.337-1.831-7.244-4.746-9.283-3.372-2.357-6.958-1.258-9.717,1.064a14.944,14.944,0,0,0-2.542,2.782c-3.141,4.442-2.123,11.16-1.984,16.267q.26,9.474.518,18.948l-.087.081c-2.175,2.047-4.3,4.15-6.417,6.258-3.719,3.693-18,16.53-19.063,17.2a12.767,12.767,0,0,1-2.371,1.18,16.886,16.886,0,0,0-3.019,1.2,14.715,14.715,0,0,0-2.01,1.663,17.027,17.027,0,0,1-3.921,2.608,9.333,9.333,0,0,0-2.637,1.536,1.307,1.307,0,0,0-.468.891c0,.5.454.87.9,1.09a3.649,3.649,0,0,0,2.672.347,5.874,5.874,0,0,0,1.267-.711q.529-.364,1.064-.726a1.366,1.366,0,0,1-.425.951,28.983,28.983,0,0,0-3.91,6.414,7.062,7.062,0,0,0-.44,1.22.9.9,0,0,0,.064.732c.246.341.772.252,1.157.087a10.489,10.489,0,0,0,4.147-3.641c1.1-1.5,2.047-3.12,3.288-4.511.11-.127.283-.26.431-.176a.367.367,0,0,1,.133.3,8.106,8.106,0,0,1-.6,3.117q-1.241,3.8-2.143,7.713a.953.953,0,0,0,.6.983,1.465,1.465,0,0,0,1.183-.139c1.622-.778,2.525-2.545,3.045-4.271a24.016,24.016,0,0,1,1.689-5.116c.255-.448.633-.911,1.148-.925.084,2.97-1.42,5.74-1.926,8.667-.15.873-.116,1.958.651,2.4.8.466,1.813-.127,2.412-.833,2.059-2.423,1.946-5.98,3.2-8.9a1.772,1.772,0,0,1,.515-.758.679.679,0,0,1,.85-.006.941.941,0,0,1,.2.341c1.053,2.672.318,5.709.818,8.54a1.549,1.549,0,0,0,.645,1.174,1.285,1.285,0,0,0,1.148-.093,3.924,3.924,0,0,0,1.874-3.068,23.726,23.726,0,0,0-.061-3.736,6.711,6.711,0,0,1,.324-2.516,26.359,26.359,0,0,1,1.394-2.513c.98-1.943.954-4.323,1.709-6.316.162-.093.327-.191.5-.283,2.478-1.339,4.844-2.869,7.207-4.4a139.859,139.859,0,0,0,12.716-8.9,18.44,18.44,0,0,0,5-5.558,17.349,17.349,0,0,0,1.371-5,53.067,53.067,0,0,0,.758-6.449c.315-4.283.382-8.583.873-12.849.532-4.621,1.747-9.43,1.015-14.075" transform="translate(142.406 101.626)" fill="#ffb78c"/>
        <path id="Trazado_1267471" data-name="Trazado 1267471" d="M31.6,92.438c-1.744-1.29-3.736-2.661-5.94-2.467a3.2,3.2,0,0,0-1.611.523c-1.082.775-1.223,2.314-1.09,3.635a12.564,12.564,0,0,0,2.244,6.469c.515.636,1.009,1.29,1.475,1.966a12.48,12.48,0,0,1,1.244,2.154,12.819,12.819,0,0,1,.83,4.7c.069,2.429-.113,4.861.012,7.29a6.468,6.468,0,0,0,1.258,3.84c1.55,1.851,4.558,1.484,6.218.041a6.23,6.23,0,0,0,1.8-2.958,14.864,14.864,0,0,0,.466-4.338c-.009-3.349-.735-6.672-.694-9.971a12.108,12.108,0,0,0-3.2-8.346,18.687,18.687,0,0,0-2.51-2.169l-.495-.37" transform="translate(43.365 170.179)" fill="#ffb78c"/>
        <path id="Trazado_1267472" data-name="Trazado 1267472" d="M87.3,100.84a242.946,242.946,0,0,0-2.186-28.8C83.368,59.1,81.1,46.3,79.091,33.444c-.607-3.872-1.238-7.742-1.822-11.617-.318-2.105-.37-3.89-2.183-5.272a9.043,9.043,0,0,0-8.7-1.223c-3.551,1.4-6.07,4.673-7.556,8.184a5.293,5.293,0,0,0-.489,1.741,5.984,5.984,0,0,0,.2,1.6q2.915,13.274,5.833,26.55c4.066,18.5,9.607,37.207,9.384,56.337a5.442,5.442,0,0,1-1.076,3.783c-.9.96-2.314,1.189-3.421,1.88-1.926,1.2-3.045,3.32-4.049,5.353-1.374,2.794-2.718,5.711-2.84,8.823a2.924,2.924,0,0,0,.272,1.576,1.2,1.2,0,0,0,1.359.613c.416.471.084,1.275.428,1.8.356.544,1.171.457,1.79.263a14.413,14.413,0,0,0,6.391-4.1,1.15,1.15,0,0,1,.581-.425,1.249,1.249,0,0,1,.495.046,6.354,6.354,0,0,0,4.132-.995,26.644,26.644,0,0,0,5.474-3.907,10.186,10.186,0,0,0,3.624-8.768c.307-4.939.448-9.89.376-14.841" transform="translate(110.362 27.86)" fill="#ffb78c"/>
        <path id="Trazado_1267473" data-name="Trazado 1267473" d="M81.491,27.55c.44,1.784.836,3.577,1.3,5.353a3.48,3.48,0,0,1,.139,1.966,3.08,3.08,0,0,1-.573.931,20.442,20.442,0,0,1-8.493,6.351,16.947,16.947,0,0,1-10.529.622,1.385,1.385,0,0,1-.625-.3,1.44,1.44,0,0,1-.3-.6c-.894-2.8-1.591-5.613-2.426-8.436q-.664-2.251-1.327-4.5c-.356-1.2-1.217-2.877-1.217-4.124a5.75,5.75,0,0,1-.283-1.356,5.709,5.709,0,0,1,.2-1.481,16.818,16.818,0,0,1,1.966-5.581,9.377,9.377,0,0,1,3.424-3.08,14.018,14.018,0,0,1,3.693-1.573c2.964-.535,6.212.839,8.421,2.744A19.525,19.525,0,0,1,80.2,23.042c.509,1.478.917,2.99,1.293,4.508" transform="translate(108.127 21.991)" fill="#ff9ebf"/>
        <path id="Trazado_1267474" data-name="Trazado 1267474" d="M37.748,65.844a2.865,2.865,0,0,1-.894,1.686,6.622,6.622,0,0,1-5.865,1.33c-3.378-.737-5.8-3.187-7.51-6.024a22.35,22.35,0,0,1-2.562-6.567,8.583,8.583,0,0,1,.868-6.695,4.889,4.889,0,0,1,2.056-1.8,2.705,2.705,0,0,0,1.232-2.516c.208-3.262-.281-8.433,3.7-9.615a6.715,6.715,0,0,1,3.8.121,3.853,3.853,0,0,1,1.275.6,4.724,4.724,0,0,1,.784.844A20.617,20.617,0,0,0,36,38.95c.4.4.9.7,1.3,1.119a31.609,31.609,0,0,1,4.931,7.716,3.751,3.751,0,0,1,.59,2.094c-.153,1.232-1.46,1.9-2.241,2.681-1.07,1.07-1.848,1.935-3.517,1.929-.81,0-1.839-.639-2.337.194-.463.772.662,3.447.81,4.32a18.572,18.572,0,0,0,.237,2.128,3.672,3.672,0,0,0,.639,1.426,4.233,4.233,0,0,0,.457.327,2.407,2.407,0,0,1,.873,1.643,4.574,4.574,0,0,1,0,1.319" transform="translate(39.011 67.017)" fill="#379799"/>
        <path id="Trazado_1267475" data-name="Trazado 1267475" d="M36.567,64.945c-.009.035-.02.069-.032.1a3.2,3.2,0,0,1-3.089,1.993,9.694,9.694,0,0,1-6.567-2.29,14.725,14.725,0,0,1-4.106-5.732c-1.336-3.161-2.264-6.955-.24-10.026a4.877,4.877,0,0,1,2.056-1.8,2.7,2.7,0,0,0,1.232-2.513c.22-3.43-.61-6.5,2.872-8.548,3.178-1.868,7.233,1.125,9.364,3.355A31.761,31.761,0,0,1,42.99,47.2a3.778,3.778,0,0,1,.587,2.094c-.153,1.235-1.46,1.9-2.241,2.681-1.07,1.07-1.848,1.938-3.517,1.929-.81,0-1.839-.636-2.337.194-.463.772.662,3.447.81,4.323a31.444,31.444,0,0,1,.44,4.746,6.014,6.014,0,0,1-.165,1.778" transform="translate(40.403 67.243)" fill="#0e1b47"/>
        <path id="Trazado_1267476" data-name="Trazado 1267476" d="M82.823,94.346a14.808,14.808,0,0,1-6.3-.263C66.1,91.879,56.736,86.006,48.878,78.8,44.529,74.82,30.529,56.549,26.57,52.61A4.651,4.651,0,0,1,25.46,51.2a3.694,3.694,0,0,1-.156-1.888A12.71,12.71,0,0,1,36.371,38.466c-.22.02,2.507,5.084,2.837,5.509a45.3,45.3,0,0,0,4.783,4.639,34.919,34.919,0,0,0,4.725,4.306c2.045,1.333,3.921,3.057,5.847,4.558q2.924,2.282,5.85,4.56L83.806,80.274a15.321,15.321,0,0,1,4.621,4.847c2.126,4.228-1.5,8.3-5.6,9.225" transform="translate(47.777 72.773)" fill="#481850"/>
        <path id="Trazado_1267477" data-name="Trazado 1267477" d="M82.42,83.7A24.719,24.719,0,0,1,71.4,80.3C65.879,77.26,61.11,73.05,56.391,68.874c-6.108-5.4-12.215-10.8-18.068-16.469A5.718,5.718,0,0,1,37.287,51.2a5.726,5.726,0,0,1-.544-2.568,21.092,21.092,0,0,1,.495-7.4c.74-2.377,2.5-4.587,4.925-5.153,2.765-.651,5.55.925,7.776,2.692,6.5,5.159,11.093,12.311,16.981,18.158,5.486,5.454,12.022,9.705,18.228,14.315,1.718,1.281,3.493,2.689,4.251,4.694,1.738,4.575-3.022,7.88-6.978,7.762" transform="translate(69.331 67.97)" fill="#379799"/>
        <path id="Trazado_1267478" data-name="Trazado 1267478" d="M87.258,75.422q.481,1.466.951,2.929a41.106,41.106,0,0,1,2.218,12.886C90.4,95.6,89.387,101.446,85.223,103.8a8.325,8.325,0,0,1-3.728.957c-6.458.283-12.143-4.329-16.009-9.511a91.551,91.551,0,0,1-7.973-13.765Q49.036,64.656,40.557,47.837c-1.116-2.215-2.261-4.543-2.224-7.024A11.107,11.107,0,0,1,39.9,35.67,22.05,22.05,0,0,1,53.742,25.381c2.189-.558,5.691-1.374,7.843-.324,1.628.792,3.3,2.935,4.442,4.294,3.155,3.765,5.029,8.415,6.993,12.86C76.6,50.3,80.729,58.149,84.025,66.356c1.194,2.973,2.233,6.015,3.233,9.066" transform="translate(72.521 46.445)" fill="#6a2874"/>
        <path id="Trazado_1267479" data-name="Trazado 1267479" d="M61.819,32.872c1.42.521,2.649,2.045,4.014,2.409.839.226,3.282-1.116,2.724-2.25a20.26,20.26,0,0,1,.246,16.99c-.662,1.475-2.316,2.8-2.458,4.445a3.133,3.133,0,0,0,.286,1.2c6.192,16.111,17.091,30.183,22.418,46.6a26.815,26.815,0,0,1,1.631,9.251,11.888,11.888,0,0,1-3.621,8.444c-3.277,2.9-8.329,3.068-12.383,1.414s-7.282-4.829-10.156-8.132C57.371,105.025,51.767,95.6,46.212,86.225c-2.128-3.586-4.254-7.175-6.325-10.8C37.981,72.089,35.755,68.98,34,65.548a118.113,118.113,0,0,1-5.3-11.932,56.612,56.612,0,0,1-2.918-11.174c-1.1-6.55-.211-13.725,3.858-18.974-.032,4.7,5.09,6.218,8.976,7.016a71.847,71.847,0,0,0,13.979,1.463c3.109.02,6.313-.145,9.231.925" transform="translate(47.945 44.399)" fill="#6a2874"/>
        <path id="Trazado_1267480" data-name="Trazado 1267480" d="M92.734,65.606C85.062,70.757,76.7,74.982,68.578,79.27c-1.191.628-2.857,1.966-4.187,2.149a11.786,11.786,0,0,1-3.491-.6,47.3,47.3,0,0,1-7.5-2.29C43.644,74.663,35.22,67.853,28.473,59.9a7.052,7.052,0,0,1-1.943-3.557,7.073,7.073,0,0,1,1.3-4.167A89.864,89.864,0,0,1,106.762,7.072a11.779,11.779,0,0,1,3.936.521,12.53,12.53,0,0,1,3.687,2.461c3.592,3.077,7.256,6.31,9.3,10.576,3.317,6.935-.425,12.493-3.82,18.3-3.383,5.79-8.3,10.48-13.106,15.07A110.706,110.706,0,0,1,97.3,62.358q-2.23,1.687-4.563,3.248" transform="translate(50.145 13.368)" fill="#ff9ebf"/>
        <path id="Trazado_1267481" data-name="Trazado 1267481" d="M65.861,31.1a3.615,3.615,0,0,0-2.319.709,3.218,3.218,0,0,0-.714,1.215c-1.082,2.768-1.449,5.758-2.279,8.612a2.96,2.96,0,0,1-.573,1.209,2.425,2.425,0,0,1-2.742.26,8.2,8.2,0,0,1-3.615-4.011,32.76,32.76,0,0,1-3.248-13.618,29.142,29.142,0,0,1,1.663-11.715,9.832,9.832,0,0,1,2.241-3.629,2.023,2.023,0,0,1,1.952-.682,2.615,2.615,0,0,1,.859.645,9.6,9.6,0,0,0,5.717,2.9,24.145,24.145,0,0,0,4.271-.3,13.238,13.238,0,0,1,6.394.9,9.054,9.054,0,0,1,4.659,4.358,9.071,9.071,0,0,1,.064,7.033c-.735,1.871-2.348,4.5-4.245,5.4a9.887,9.887,0,0,1-3.453.414l-4.633.3" transform="translate(95.237 17.735)" fill="#ffb78c"/>
        <path id="Trazado_1267482" data-name="Trazado 1267482" d="M60.588,39.655a5.457,5.457,0,0,1-.882-.706,19.96,19.96,0,0,1-3.346-5.865,34.014,34.014,0,0,1-2.7-12.915,24.306,24.306,0,0,1,1.5-9.323c2.03-5.122,6.692-8.279,11.932-9.352a19.637,19.637,0,0,1,5.6-.3,30.111,30.111,0,0,1,12.583,3.9,22.893,22.893,0,0,1,8.4,9.072c1.981,3.858,1.5,8.881,1.359,13.12-.058,1.865-.191,3.913-1.481,5.263a3.552,3.552,0,0,0-1.021,1.264,2.463,2.463,0,0,0,.043,1.2q.464,2.221.925,4.445a1.52,1.52,0,0,1-.02.995,1.28,1.28,0,0,1-.668.532,19.568,19.568,0,0,1-3.031.63c-.859.208-2.311.5-2.675,1.42a8.519,8.519,0,0,0-.191.951c-.252.969-1.284,1.5-2.233,1.825a4.486,4.486,0,0,0-2.527,1.51,7.044,7.044,0,0,0-.416.928c-1.148,2.646-4.494,2.23-6.773,1.573a39.473,39.473,0,0,1-8.9-3.806,4.545,4.545,0,0,1-2.412-2.525c-.09-.361-.093-.74-.191-1.1-.373-1.394-1.735-1.987-2.863-2.739" transform="translate(101.51 2.116)" fill="#ffcaab"/>
        <path id="Trazado_1267483" data-name="Trazado 1267483" d="M65.525,19.1a1.33,1.33,0,0,1-1.455.1,1.3,1.3,0,0,1-.4-.905,3.872,3.872,0,0,1,2.1-3.806.984.984,0,0,1,.963-.055c1.741,1.189.078,3.9-1.2,4.662" transform="translate(120.414 27.119)" fill="#ff8c8c"/>
        <path id="Trazado_1267484" data-name="Trazado 1267484" d="M109.173,30.37c-3.985,1.819-7.837,2.467-10.688,6.142A30.006,30.006,0,0,1,96.2,39.526c-.645.639-2.285,2.131-3.326,1.634-1.252-.6-.393-2.38-.367-3.375a6.722,6.722,0,0,0-2.412-5.139c-3.028-2.6-8.282-3.172-9.832,1.2q-1.458,4.1-3.276,8.068a25,25,0,0,1-4.121,6.727c-4.292,4.621-11.394,4.2-16.926,2.233a19.791,19.791,0,0,1-9.477-7.49,22.883,22.883,0,0,1-3.826-13.352C42.611,19.919,52,9.682,62.527,10.784a12.731,12.731,0,0,1,1.92.347A29.093,29.093,0,0,0,69.063,12.3c2.6.24,3.953-.891,5.633-2.7q1.557-1.679,3.117-3.355a17.441,17.441,0,0,1,6.547-4.4C90.894-.914,98.656-.44,105.1,2.342a21.064,21.064,0,0,1,8.979,7.4,16.133,16.133,0,0,1,2.6,5.925,13.3,13.3,0,0,1-7.5,14.7" transform="translate(80.658 0)" fill="#0e1b47"/>
        <path id="Trazado_1267485" data-name="Trazado 1267485" d="M68.779,14.717a7.166,7.166,0,0,1-3.736.321,8.8,8.8,0,0,0,4.277-2.065c.448-.4.995-1.339,1.695-1.09.792.283.217.98-.136,1.385a5.4,5.4,0,0,1-2.1,1.449" transform="translate(123.053 22.403)" fill="#0e1b47"/>
        <path id="Trazado_1267486" data-name="Trazado 1267486" d="M150.486,109.167a7.507,7.507,0,0,0-.142-.92c-.266-.778-1.2-1.05-2-1.261a21.826,21.826,0,0,1-4.506-1.735,1.27,1.27,0,0,0-.6-1.628,3.869,3.869,0,0,0-1.883-.333,54.528,54.528,0,0,1-10.477-1.16c-2-.416-3.973-.949-5.995-1.194-3.172-.388-6.579.344-8.973-2.285q-6.043-6.628-11.466-13.78-3.062-4.06-5.911-8.274c-2.386-3.537-4.662-7.157-7.3-10.512-1.128-1.426-2.259-2.987-3.467-4.32C86.385,60.245,81.029,53,79.621,50.893c-3.444-5.176-7.181-10.153-10.515-15.4q-1.262-1.987-2.429-4.023a34.329,34.329,0,0,0-1.738-3.253,10.943,10.943,0,0,0-6.209-4.008,23.4,23.4,0,0,0-9.882.153c-2.681.495-5.735,1.484-6.657,4.046-.685,1.909.1,4.017,1.024,5.818a68.785,68.785,0,0,0,8.439,11.941C55.17,50.439,58.721,54.687,62.53,58.7c1.9,2,3.861,3.945,5.908,5.8q1.536,1.388,3.135,2.7a31.953,31.953,0,0,1,5.61,6.559A208.08,208.08,0,0,0,98.331,98.288,78.965,78.965,0,0,0,111.544,109.7c.061.116.11.246.179.353a7.117,7.117,0,0,0,.969,1.116,17.46,17.46,0,0,0,3.655,2.773c.382.211.769.408,1.168.584a27.261,27.261,0,0,0,3.924,1.275c1.515.411,3.091.408,4.584.873a30.679,30.679,0,0,1,3.664,1.706,14.69,14.69,0,0,0,5.561,1.353,1.216,1.216,0,0,0,.954-.24.944.944,0,0,0,.223-.578,2.854,2.854,0,0,0-1.507-2.337c-1.813-1.223-4.164-1.825-5.379-3.647q9.231.187,18.453-.48a4.965,4.965,0,0,0,1.865-.382,1.72,1.72,0,0,0,1.032-1.492,8.972,8.972,0,0,0-.4-1.411" transform="translate(79.328 44.909)" fill="#ffb78c"/>
        <path id="Trazado_1267487" data-name="Trazado 1267487" d="M63.624,27.436a60.58,60.58,0,0,1,3.181,6.07c1.747,3.849,3.346,7.846,4.829,11.816a3.635,3.635,0,0,1,.321,1.469,3.252,3.252,0,0,1-.486,1.351,11.73,11.73,0,0,1-5.046,4.965,29.219,29.219,0,0,1-21.44,1.666A1.957,1.957,0,0,1,44.1,54.3a2,2,0,0,1-.373-.865C41.623,45.1,39.506,36.6,40.1,28.023a18.966,18.966,0,0,1,1.4-6.466c3.412-7.629,12.964-5.564,17.7-.321a39.452,39.452,0,0,1,4.422,6.2" transform="translate(75.675 31.306)" fill="#ffcce2"/>
      </g>
    </g>
  </g>
</svg>
