<svg xmlns="http://www.w3.org/2000/svg" xmlns:xlink="http://www.w3.org/1999/xlink" width="150" height="150" viewBox="0 0 150 150">
  <defs>
    <clipPath id="clip-path">
      <rect id="Rectángulo_459369" data-name="Rectángulo 459369" width="84.532" height="67.774" fill="#6a2874"/>
    </clipPath>
  </defs>
  <g id="Grupo_1208280" data-name="Grupo 1208280" transform="translate(-561.711 -8567.084)">
    <g id="Grupo_1207828" data-name="Grupo 1207828" transform="translate(561.711 8567.084)">
      <g id="Grupo_1177470" data-name="Grupo 1177470" transform="translate(0 0)">
        <circle id="Elipse_13609" data-name="Elipse 13609" cx="75" cy="75" r="75" fill="#f6e1fe"/>
        <g id="Grupo_1207827" data-name="Grupo 1207827" transform="translate(32.621 32.621)">
          <g id="Grupo_1099618" data-name="Grupo 1099618" transform="translate(0 0)">
            <rect id="Rectángulo_401104" data-name="Rectángulo 401104" width="84.532" height="84.532" transform="translate(0)" fill="none"/>
          </g>
          <g id="Grupo_1209109" data-name="Grupo 1209109" transform="translate(0 7.773)">
            <g id="Grupo_1209108" data-name="Grupo 1209108" clip-path="url(#clip-path)">
              <path id="Trazado_1268889" data-name="Trazado 1268889" d="M103.349,3.885a1.535,1.535,0,0,1-.909,2.5c-1.93.427-8.383.176-10.681.067C80.572,5.917,72.373.219,61.036,4.481,54.957,6.766,49.263,10.8,43.68,14.07c-2.434,1.427-5.1,2.5-7.478,4.032-1.45.934-4.857,3.149-4.168,5.166a1.869,1.869,0,0,0,2.11.633l16.822-9.11c1.311-.237,1.915,1.518,1.048,2.383l-12.837,7.3-.119.792c1.856.685,3.784-.219,5.484-.92,3.811-1.571,7.255-4.327,10.623-6.658-1.163-2.828-.012-5.262,2.73-6.41,3.327-1.393,14.495-.851,18.445-.4,1.8.206,2.383,1.926.725,2.827l-15.608-.435c-5.284.844-5.046,3.592-.166,5.071,3.239.982,6.929.954,10.259,1.775,6.6,1.629,9.318,4.9,16.744,2.726,5.377-1.578,9.212-4.109,15.257-4.375,1.015-.044,2.462.127,2.458,1.443-.007,1.957-3.4,1.5-4.787,1.733C94.1,22.824,88.576,27.5,81.076,26.29c-3.545-.573-6.755-2.519-10.227-3.374-3.187,2.088-6.12,4.66-9.476,6.494-2.985,1.631-6.095,3.2-8.607-.192-2.25,1.047-6.367,2.741-8.36.518-.556-.621-.486-1.319-1.066-1.824-2.835.88-5.47.813-7.288-1.789-3.41,1.889-7.492-.225-6.913-4.356.651-4.648,10.044-8.406,13.755-10.572C49.358,7.422,55.98,2.654,63.33.758,73.483-1.861,81.986,3.107,92.021,3.572c1.713.079,10.678-.337,11.328.313m-43.626,17.2-2.69-1.268C53.65,22.3,50.263,24.919,46.4,26.6l.216,1.132c1.43,1.965,11.507-5.513,13.108-6.651m7.064,1.052-3.651-.4L55.282,27.76a1.856,1.856,0,0,0,1.193.651c1.816.1,8.632-4.9,10.312-6.273" transform="translate(-21.476 0)" fill="#6a2874"/>
              <path id="Trazado_1268890" data-name="Trazado 1268890" d="M53.185,141.829c2.319-.958,6.2-2.743,8.357-.647.673.653.589,1.345,1.183,1.939,2.706-.832,5.7-.844,7.3,1.83,2.175-1.744,6.566-.213,6.949,2.509.466,3.309-2.024,5.374-4.371,7.162-8.966,4.313-17.407,11.2-26.705,14.628-12.393,4.569-19.313-1.157-31.054-1.776-3.423-.181-7.778.448-11.012.024-1.878-.246-2.015-2.541.029-2.876,2.389-.391,8.346-.162,10.983-.026,9.428.485,18.175,5.391,27.645,2.814,6.434-1.751,12.237-6.007,17.914-9.293,2.867-1.659,12.41-6.086,13.485-8.751.754-1.869-.4-2.614-2.166-2.167l-15.58,8.748c-1.78.961-3.276-.365-2.076-2.075L66.9,146.566l.12-.791c-1.74-.675-3.521.082-5.147.734-3.865,1.55-7.318,4.37-10.763,6.636,1.018,3.811-.959,6.453-4.686,7.214-3.511.717-9.821.036-13.545-.2-1.4-.088-4.453.574-4.8-1.244-.5-2.636,4.487-1.394,5.836-1.365,2.948.064,5.993.256,8.9.271,6.654.034,8.1-3.669.923-5.386-3.29-.786-6.667-.874-10-1.772-2.9-.78-5.662-2.331-8.574-2.937-6.993-1.455-13.2,3.682-20.309,4.548-1.192.145-3.83.65-4.518-.391-1.689-2.557,3.345-2.285,4.519-2.486,8.063-1.381,13.206-6.488,21.878-4.287,1.59.4,7.815,3.177,8.708,2.967,2.562-1.882,5.07-3.906,7.793-5.558,3.039-1.845,7.389-4.7,9.945-.695m-13.891,7.079c.879-.231,3.027.627,3.677.382.422-.159,2.743-2.34,3.414-2.837,1.456-1.08,2.923-2.138,4.415-3.166-.991-.949-1.9-.577-2.971-.1-2.871,1.286-6.018,3.825-8.535,5.719m20.37-4.476c.444-2.434-3.372-.829-4.591-.279-1.11.5-8.456,5.329-8.449,5.934l2.424,1.141a53.718,53.718,0,0,1,10.616-6.8" transform="translate(0 -103.23)" fill="#6a2874"/>
              <path id="Trazado_1268891" data-name="Trazado 1268891" d="M21.892,217.856c3.706-.013,10.244,1.408,13.913,2.419.573.158,2.4.309,2.087,1.309-.138.44-.762.4-1.135.377-3.967-.265-8.856-2.306-13.123-2.595-3.118-.211-6.517.424-9.623.74-.88-.4-.914-1.142.011-1.465a46.516,46.516,0,0,1,7.871-.784" transform="translate(-9.849 -160.864)" fill="#6a2874"/>
              <path id="Trazado_1268892" data-name="Trazado 1268892" d="M216.434,25.593a2.426,2.426,0,0,1,.97-.017c3.967.354,8.651,2.275,12.856,2.591,3.286.247,6.585-.595,9.814-.667l.269.8-.449.614a58.1,58.1,0,0,1-10.68.56,75.649,75.649,0,0,1-12.384-2.528c-.77-.292-1.378-1.043-.4-1.354" transform="translate(-159.438 -18.854)" fill="#6a2874"/>
            </g>
          </g>
        </g>
      </g>
      <ellipse id="Elipse_13678" data-name="Elipse 13678" cx="18.074" cy="18.074" rx="18.074" ry="18.074" transform="translate(0.769 113.817)" fill="#da9dfe"/>
      <g id="Grupo_1207826" data-name="Grupo 1207826" transform="translate(0 116.123)">
        <path id="Trazado_998481" data-name="Trazado 998481" d="M0,13.012q4.541.393,9.077.815l-.253.1,1.3-2.34a.35.35,0,0,1,.4-.123.254.254,0,0,1,.184.174l0,.009,1.114,5.034-.836-.059,1.8-4.073,1.816-4.068,1.822-4.067L18.27.354a.772.772,0,0,1,.885-.326.543.543,0,0,1,.472.536V.572L18.9,7.156l-.762,6.581-.773,6.58-.8,6.579-1.5-.222c1.16-2.774,2.354-5.539,3.536-8.307l1.778-4.152,1.8-4.146,0-.01a.657.657,0,0,1,.753-.287.475.475,0,0,1,.413.442L23.082,15.5l-.295,5.285-.776-.111,2.607-5,0-.008a.274.274,0,0,1,.277-.117l4.931.63,4.928.647-4.969-.438-4.966-.456.281-.125L22.763,20.88a.443.443,0,0,1-.508.185.318.318,0,0,1-.269-.285v-.011l.074-5.289.1-5.289,1.17.145-1.676,4.175-1.7,4.17c-1.136,2.779-2.26,5.561-3.418,8.335a.838.838,0,0,1-.96.376c-.35-.082-.566-.334-.536-.6v0l.762-6.581.791-6.579.8-6.579L18.234.48,19.59.7,17.666,4.738,15.723,8.774l-1.948,4.035-1.966,4.029-.005.01a.482.482,0,0,1-.552.192.359.359,0,0,1-.279-.261L10.1,11.718l.586.059-1.431,2.3,0,.007a.257.257,0,0,1-.249.1Q4.5,13.609,0,13.012" transform="translate(0 4.236) rotate(-7)" fill="#fff"/>
      </g>
    </g>
    <path id="Trazado_1267128" data-name="Trazado 1267128" d="M77.377,52.427V64.859a.84.84,0,0,1-.841.84h-10a.841.841,0,0,0-.841.841v10a.841.841,0,0,1-.841.841H52.427a.841.841,0,0,1-.841-.841v-10a.841.841,0,0,0-.84-.841H40.713a.841.841,0,0,1-.841-.84V52.427a.841.841,0,0,1,.841-.841H50.745a.84.84,0,0,0,.84-.84V40.714a.841.841,0,0,1,.841-.841H64.858a.841.841,0,0,1,.841.841V50.746a.841.841,0,0,0,.841.84h10a.841.841,0,0,1,.841.841" transform="translate(630.197 8531.593)" fill="#8d1939"/>
  </g>
</svg>
