<svg xmlns="http://www.w3.org/2000/svg" width="85" height="85" viewBox="0 0 85 85">
  <g id="Grupo_1208511" data-name="Grupo 1208511" transform="translate(-705.342 -410.305)">
    <path id="Sustracción_110" data-name="Sustracción 110" d="M15975.961,19829.512h85v85h-85Z" transform="translate(-15270.619 -19419.207)" fill="#ffe19a"/>
    <path id="Trazado_1269494" data-name="Trazado 1269494" d="M34.411,2.528c1.542,1.018,3.531-.308,5.312-.412A9.726,9.726,0,0,1,45.514,3.6c.646.483,1.45,1.76,1.813,1.934.472.227,1.367.145,1.807.587,1.414,1.42.07,6.377-.674,8.058-.859,1.94-.648,1.028-2.13,1.618-.583.232-1.253,1.236-2.039,1.294-2.085.153-4.914-2.525-6.24-3.946-.894-.958-1.328-2.442-2.925-2.695-2.332-.37-3.194.654-3.109,2.9a8.787,8.787,0,0,1-.355-6.391c.232-.587.968-1.338,1.042-1.879.052-.383-.217-.773-.168-1.1-1.652-.688-2.359.922-2.865,2.236-1.527,3.966-.123,7.884,1.8,11.405-.036.485-7.568,3.751-8.659,4.432-2.909,1.818-3.531,4.853-2.51,8,1.716,5.294,5.2,10.953,7.271,16.256.156.4.613,1.227.489,1.586l-4.594,6.259c-.329.08-4.061-3.23-5.431-3.324-2.05-.141-2.466,1.9-3.31,2.07a48.164,48.164,0,0,1-6.442,0c-.825-.155-1.658-1.018-2.923-1.049C1.92,51.77.275,55.536.06,58.435c-.081,1.1-.305,3.233,1.246,3.224.016-.023.356-.026.521-.2.885-.914.227-1.168.294-1.99.189-2.327.854-6,4.035-5.264,2.055.473,1.643,3.719,2.761,4.941.848.927,2.5.3,3.212,1.579l-1.547,1.565c-1.948,3.054,2.106,5.877,5.162,3.913.988-.635,1.191-1.97,2.43-.489,2.742,3.278-3.319,4.51-5.546,4.66-3.209.216-6.775-.863-8.577-3.654a19.585,19.585,0,0,0-.983-1.932c-.439-.473-.935-.3-1.137-.426C-.08,65.478,2.8,68.808,3.9,69.784c3.709,3.293,11.6,3.786,15.5.7,1.6-1.262,1.023-2.01,3.654-2.175,2.647-.166,1.669.088,2.728,1.659a5.981,5.981,0,0,0,4.352,2.519l36.031-.007c1.9-.2.911-2.082.621-2.082H49.09a2.09,2.09,0,0,1-.312-.312V66.656h17.8c.958,0,1-2.33-.312-2.082H49.3c-.818-.162-.287-2.015-1.884-2.279-3.361.245-7.3-.384-10.584.011A5.209,5.209,0,0,0,32.54,67.8a11.918,11.918,0,0,0,.83,2.6H30.143a4.217,4.217,0,0,1-2.854-2.143c-1.439-3.514,1.048-8.438,4.822-9.214l34.156-.094c1.241-.3,1.508-1.8.218-2.2-1.553-.474-6.831.332-7.713-.2l-6.216-8.79c2.413-5.939,5.209-11.814,7.833-17.7,2.693-8.039-6.313-9.2-11.183-12.466,1.847-3.136,4.555-10.826.925-13.41-.61-.434-1.327-.433-1.757-.742-.258-.185-.423-.666-.735-.93A10.978,10.978,0,0,0,39.5.019c-.994.046-3.968.542-4.668,1.161-.55.486-.284,1.037-.423,1.348M34.2,12.522c1.289-.044,1.744,1.528,2.5,2.388,1.78,2.013,5.39,4.673,8.208,4.262.8-.116,1.933-1.181,1.133.719a4.411,4.411,0,0,1-3.413,2.625c-1.862.2-5.295.26-6.772-.933A6.043,6.043,0,0,1,34.2,18.872Zm14.161,7.287c2.545,1.356,5.953,2.5,8.311,4.073,4.6,3.065-.108,8.237-1.251,11.944a16.309,16.309,0,0,1-3.283-1.265c-.534-.849,2.045-3.706,1.013-4.866a1.076,1.076,0,0,0-1.555.12L45,44.551l-9.345-.061c-2.041-4.1-3.608-8.6-5.642-12.68-.391-.784-1.26-3.177-2.458-2.1-1.218,1.092,1.214,3.508,1.011,4.866-.8-.009-2.843,1.612-3.414,1.067-1.106-3.418-5.427-8.372-1.633-11.422,2.166-1.741,6.256-2.891,8.7-4.414a7.066,7.066,0,0,0,6.661,5.011c4.2.306,8.1-.595,9.484-5.005M50.876,36.48c.19-.138,3.549,1.182,3.5,1.718L46.092,56.741c-2.413.483-1.76.094-2.151-1.385-.154-.584-.826-1.159-.756-1.662Zm-8.97,20.182H33.994a9.044,9.044,0,0,0-.523-2.5c-1.825-5.272-5.253-10.644-7.139-15.978l-.04-.47,3.415-1.266,7.444,16.531c.953,2.091,4.961,1.162,4.754,3.678m-5-9.786H43.78a36.693,36.693,0,0,1-1.9,4.654c-.633,1.269-1.085,1.592-2.532.719-.473-.285-2.65-5.169-2.434-5.374m19.155,9.786h-7.5L51.382,50.2ZM25.459,60.2c.7-1.007-.72-3.587-.591-4.215a66.355,66.355,0,0,1,3.925-5.462c.2-.2.269-.4.618-.316.154,1.243,3.079,5.908,2.271,6.849-.082.1-1.852.564-2.378.849-1.47.8-2.192,2.494-3.846,2.294M9.842,55h5.726c.919,0,1.614-1.956,2.483-1.88.578.05,4.044,2.823,4.491,3.443,1.778,2.467-.631,5.952,2.915,5.726a12.836,12.836,0,0,0-.623,3.956,15.6,15.6,0,0,0-3.827.225,6.173,6.173,0,0,0-2.353-3.1c-.29-.223-.779-.283-.968-.439-.286-.237-.249-1.143-1.112-1.219-1.158-.1-1,1.2-1.227,1.819-.486,1.352-3.033,1.811-3.03.324s2.669-.9,2.222-3.03a4.4,4.4,0,0,0-2.978-3.067c-.327-.107-.873.044-1.067-.075A9.194,9.194,0,0,1,9.842,55m27.171,9.369H46.7V70.4H37.222a7.271,7.271,0,0,1-1.7-.9,3.111,3.111,0,0,1,1.491-5.134" transform="translate(714.342 416.306)" fill="#8d1939"/>
  </g>
</svg>
