<svg xmlns="http://www.w3.org/2000/svg" xmlns:xlink="http://www.w3.org/1999/xlink" width="292.289" height="317.334" viewBox="0 0 292.289 317.334">
  <defs>
    <clipPath id="clip-path">
      <rect id="Rectángulo_459549" data-name="Rectángulo 459549" width="292" height="317" transform="translate(-0.289 0.334)" fill="#fff" stroke="#707070" stroke-width="1"/>
    </clipPath>
    <clipPath id="clip-path-2">
      <rect id="Rectángulo_459548" data-name="Rectángulo 459548" width="444.667" height="195.481" fill="none"/>
    </clipPath>
    <clipPath id="clip-path-4">
      <rect id="Rectángulo_459540" data-name="Rectángulo 459540" width="25.535" height="14.738" fill="none"/>
    </clipPath>
  </defs>
  <g id="Grupo_1209381" data-name="Grupo 1209381" transform="translate(-1017.711 -1874.666)">
    <g id="Grupo_1208498" data-name="Grupo 1208498" transform="translate(1018 1874.666)">
      <g id="Grupo_1206741" data-name="Grupo 1206741" transform="translate(0 0)">
        <g id="Grupo_1204235" data-name="Grupo 1204235">
          <rect id="Rectángulo_402012" data-name="Rectángulo 402012" width="292" height="317.334" fill="#fbf1ff"/>
        </g>
        <path id="Trazado_1269631" data-name="Trazado 1269631" d="M0,317.334,292,0V317.334Z" fill="#e9c3ff"/>
        <g id="Enmascarar_grupo_1180273" data-name="Enmascarar grupo 1180273" clip-path="url(#clip-path)">
          <g id="Grupo_1209380" data-name="Grupo 1209380" transform="translate(21.711 86.334)">
            <g id="Grupo_1209379" data-name="Grupo 1209379" clip-path="url(#clip-path-2)">
              <g id="Grupo_1209378" data-name="Grupo 1209378" transform="translate(0 0)">
                <g id="Grupo_1209377" data-name="Grupo 1209377" clip-path="url(#clip-path-2)">
                  <path id="Trazado_1269632" data-name="Trazado 1269632" d="M130.111,44.045a40.951,40.951,0,0,0-2.507-3.529,74.676,74.676,0,0,0-12-12.16,9.136,9.136,0,0,0-3.307-1.924c-2.851-.739-3.313,1.827-5.528,2.714-2.246.9-4.753.717-7.118.842-3.118.164-6.191.155-9.3.571-7.4.991-16.6,2.441-20.369,9.7-2.349,4.522-2,9.47-3.146,14.236-1.438,5.984-3.073,11.92-4.51,17.9-1.726,7.185-3.322,14.4-4.641,21.676-1.3,7.176-2.96,14.391-1.8,21.67a9.162,9.162,0,0,0,.6,2.3c.83,1.854,2.662,3.045,4.5,3.918a20.134,20.134,0,0,0,12.686,1.83c6.738-1.45,9.568-6.662,11.686-12.653q1.577-4.45,2.918-8.972c-.489,1.656.131,4.4.182,6.145.061,2.146-.024,4.355.188,6.489.319,3.185,1.666,6.4,4.7,7.875a15.276,15.276,0,0,0,7.452,1.088,24.3,24.3,0,0,0,6.13-.985c7.136-2.276,12.036-10.306,14.99-16.768,3.164-6.914,6.653-14.431,8.449-21.8a120.123,120.123,0,0,0,2.656-14.753c.9-7.911,1.72-16.336-1.824-23.463-.334-.672-.7-1.322-1.1-1.957" transform="translate(113.178 53.635)" fill="#395795"/>
                  <path id="Trazado_1269633" data-name="Trazado 1269633" d="M62.654,51.975a34.487,34.487,0,0,0,12.82,5.878,31.948,31.948,0,0,0,3.547.7,21.6,21.6,0,0,0,4.668.07,30.013,30.013,0,0,0,9.191-2.453A42.229,42.229,0,0,0,107,46.221a34.873,34.873,0,0,0,7.185-11.665,74.907,74.907,0,0,0-6.79-6.2,9.136,9.136,0,0,0-3.307-1.924c-2.851-.739-3.313,1.827-5.525,2.714-2.246.9-4.753.717-7.121.842-3.118.164-6.191.155-9.3.571-7.4.991-16.6,2.441-20.369,9.7a25.232,25.232,0,0,0-2.255,8.75,20.935,20.935,0,0,0,3.13,2.96" transform="translate(121.387 53.635)" fill="#231c20"/>
                  <path id="Trazado_1269634" data-name="Trazado 1269634" d="M81.347,43.09l1.641-5.325.043.015c.985-1.5,1.79-2.857,1.729-4.295-.036-.815-.815-1.6-1.5-2.286-.091-.094-.182-.185-.271-.277a40.755,40.755,0,0,0-3.155-2.912,1.288,1.288,0,0,0-1.732.03,5.467,5.467,0,0,0-1.188,1.392c-.383.571-.751,1.161-1.1,1.751l-1.313-.772c.362-.614.748-1.231,1.146-1.824a6.7,6.7,0,0,1,1.55-1.772,2.789,2.789,0,0,1,3.6.021,42.74,42.74,0,0,1,3.276,3.024c.082.088.17.176.258.264a5.294,5.294,0,0,1,1.939,3.295c.091,2.058-1.121,3.893-2.006,5.237Z" transform="translate(151.939 53.365)" fill="#395795"/>
                  <path id="Trazado_1269635" data-name="Trazado 1269635" d="M81.154,42.121c-3.015-3.249-5.911-6.68-8.616-10.2L74.55,30.38c2.656,3.453,5.5,6.823,8.464,10.018Z" transform="translate(147.926 61.954)" fill="#395795"/>
                  <path id="Trazado_1269636" data-name="Trazado 1269636" d="M73.056,44.147a38.472,38.472,0,0,1-4.544-9l2.395-.836a35.747,35.747,0,0,0,4.243,8.407Z" transform="translate(139.716 69.966)" fill="#395795"/>
                  <path id="Trazado_1269637" data-name="Trazado 1269637" d="M126.111,55.7c-2.428-5.051-3.784-9.136-3.355-14.762a59.46,59.46,0,0,0-.295-11.947,19.89,19.89,0,0,0-2.6-8.4c-2.927-4.519-8-6.136-12.8-7.708-5.845-1.912-11.3-4.413-17.61-4.258a55.656,55.656,0,0,0-7.528,1.137c-3.738.608-7.577.647-11.239,1.617-5.647,1.5-10.483,5.088-15.032,8.753a23.116,23.116,0,0,0-5.86,6.106,7.84,7.84,0,0,0,.334,8.8,29.366,29.366,0,0,0,3.1,3.629,20.415,20.415,0,0,1,2.693,4.261q3.579,6.3,7.161,12.595c1.562,2.748,3.456,5.142,4.945,7.914,1.69,3.143,3.279,6.34,4.826,9.556,2.27,4.711,4.443,9.467,6.72,14.175S85.476,98.5,91.323,98.883a18.691,18.691,0,0,0,6.431-.991,57.365,57.365,0,0,0,19.263-9.683,39.94,39.94,0,0,0,13.294-17.673c1.4-3.635-.146-6.778-1.833-10.1-.781-1.535-1.593-3.118-2.368-4.732" transform="translate(99.113 17.583)" fill="#395795"/>
                  <path id="Trazado_1269638" data-name="Trazado 1269638" d="M95.166,37.331c-.082-.2-.459-.2-.623-.179a56.551,56.551,0,0,0-18.491,5.231q-2.444,1.172-4.766,2.577c-.176.106-.182.261,0,.365a.825.825,0,0,0,.717,0,55.2,55.2,0,0,1,17.567-6.872c1.732-.353,3.483-.62,5.24-.8.152-.015.438-.119.356-.319" transform="translate(145.099 75.747)" fill="#231c20"/>
                  <path id="Trazado_1269639" data-name="Trazado 1269639" d="M85.676,40.13a81.472,81.472,0,0,0-13.087.319c-.149.015-.435.119-.353.319s.459.2.623.179a79.861,79.861,0,0,1,12.817-.3c.149.009.508-.052.508-.258s-.365-.249-.508-.258" transform="translate(147.28 81.576)" fill="#231c20"/>
                  <path id="Trazado_1269640" data-name="Trazado 1269640" d="M68.406,37.289a42.078,42.078,0,0,1-4.234-4.094,5.184,5.184,0,0,1-1.532-2.283c-.155-.915.343-1.8.176-2.723-.024-.137-.137-.188-.258-.231q-2.184-.743-4.367-1.483c-.72-.243-1.438-.489-2.155-.732a3.066,3.066,0,0,1-.772-.319.911.911,0,0,1-.353-.811c0-.726.109-1.468.173-2.191q.1-1.163.216-2.328.219-2.261.48-4.519.3-2.585.641-5.158c.046-.346-1-.386-1.052,0q-.638,4.764-1.109,9.549-.109,1.163-.216,2.328c-.07.766-.188,1.55-.185,2.319a1.391,1.391,0,0,0,.945,1.337c.663.289,1.371.483,2.055.717q2.462.834,4.927,1.675c.1.881-.356,1.742-.185,2.623a5.263,5.263,0,0,0,1.5,2.322A42.557,42.557,0,0,0,67.5,37.559a.817.817,0,0,0,.72.1c.152-.049.377-.21.188-.368" transform="translate(109.836 20.68)" fill="#231c20"/>
                  <path id="Trazado_1269641" data-name="Trazado 1269641" d="M60.965,21.584a1.256,1.256,0,0,0-1.316-.69,1.018,1.018,0,0,0-.663.295,1.113,1.113,0,0,0-.252.541,2.312,2.312,0,0,0,.012.891,1.723,1.723,0,0,0,.036.277,1.783,1.783,0,0,0,.5.93,1.4,1.4,0,0,0,1.435.337.637.637,0,0,0,.4-.526,4.194,4.194,0,0,0,.064-.705,3.343,3.343,0,0,0-.219-1.349" transform="translate(119.699 42.594)" fill="#231c20"/>
                  <path id="Trazado_1269642" data-name="Trazado 1269642" d="M61.931,27.116a1.26,1.26,0,0,0-1.349-.62,1.012,1.012,0,0,0-.647.328,1.119,1.119,0,0,0-.222.553,2.2,2.2,0,0,0,.058.887,1.7,1.7,0,0,0,.049.277,1.77,1.77,0,0,0,.55.9,1.389,1.389,0,0,0,1.45.264.625.625,0,0,0,.374-.544,4.248,4.248,0,0,0,.027-.708,3.368,3.368,0,0,0-.289-1.337" transform="translate(121.725 54)" fill="#231c20"/>
                  <path id="Trazado_1269643" data-name="Trazado 1269643" d="M64.109,31.348a1.265,1.265,0,0,0-1.483-.115,1.026,1.026,0,0,0-.489.535,1.073,1.073,0,0,0-.018.6,2.214,2.214,0,0,0,.362.811,1.759,1.759,0,0,0,.143.243,1.8,1.8,0,0,0,.827.653,1.393,1.393,0,0,0,1.453-.255.633.633,0,0,0,.161-.641,4.346,4.346,0,0,0-.222-.672,3.338,3.338,0,0,0-.732-1.155" transform="translate(126.61 63.317)" fill="#231c20"/>
                  <path id="Trazado_1269644" data-name="Trazado 1269644" d="M77.076,25.222c-.036-.471-.076-.942-.122-1.413q-.128-1.413-.286-2.82-.31-2.754-.739-5.492-.488-3.123-1.128-6.215c-.079-.383-1.118-.328-1.052,0q1.108,5.366,1.763,10.811c.219,1.827.429,3.662.541,5.5a1.371,1.371,0,0,1-.258,1.039,4.951,4.951,0,0,1-.894.757,7.3,7.3,0,0,1-2.076,1.036c-1.538.483-3.295.383-4.58,1.483-.1.088-.079.182,0,.27a7.247,7.247,0,0,1,1.055,1.6A109.161,109.161,0,0,0,59,39.6c-.182.158.036.316.188.368a.816.816,0,0,0,.72-.1,108.32,108.32,0,0,1,10.422-7.905.165.165,0,0,0,.052-.207,7.584,7.584,0,0,0-1.088-1.687C70.411,29.222,72,29.3,73.3,28.9a8.676,8.676,0,0,0,2.152-1c.581-.377,1.386-.878,1.6-1.583a3.076,3.076,0,0,0,.024-1.094" transform="translate(120.168 18.383)" fill="#231c20"/>
                  <path id="Trazado_1269645" data-name="Trazado 1269645" d="M76.522,15.247a21.281,21.281,0,0,1-3.854,13.072c-.106.152-.213.3-.325.447-.745,1.006-1.547,1.969-2.289,2.975a62.1,62.1,0,0,0-4.717,7.96,21.346,21.346,0,0,1-3.264-6.063q-.666-1.591-1.377-3.161-.661-1.45-1.356-2.884a46,46,0,0,0-2.811-4.9,5.609,5.609,0,0,1-.7-1.419,4.013,4.013,0,0,1,.325-2.848,12.679,12.679,0,0,1,4.31-5.225,22.231,22.231,0,0,1,6.136-3,22.907,22.907,0,0,1,5.951-1.222c.97-.055,1.684-.185,2.368.565a5.725,5.725,0,0,1,1.2,2.234,12.673,12.673,0,0,1,.4,3.471" transform="translate(113.577 18.216)" fill="#ffa87d"/>
                  <path id="Trazado_1269646" data-name="Trazado 1269646" d="M68.987,15.458c-.745,1-1.547,1.969-2.289,2.975a62.1,62.1,0,0,0-4.717,7.96,21.421,21.421,0,0,1-3.264-6.063c-.444-1.061-.9-2.112-1.377-3.161.851.073,1.705.1,2.553.094a23.952,23.952,0,0,0,9.094-1.805" transform="translate(116.933 31.524)" fill="#fff"/>
                  <path id="Trazado_1269647" data-name="Trazado 1269647" d="M56.2,20.442a7.588,7.588,0,0,0,2.45,5.106c3.225,2.763,6.927,1.207,9.6-1.328,2.854-2.708,4.386-7.072,4.8-10.887a5.375,5.375,0,0,0-.04-1.833,2.256,2.256,0,0,0-1.036-1.477c-1.909-1.058-5.51,1.7-7.094,2.626a57.691,57.691,0,0,0-7.054,4.881,4.9,4.9,0,0,0-1.222,1.27,3.231,3.231,0,0,0-.4,1.641" transform="translate(114.614 19.956)" fill="#e06f63"/>
                  <path id="Trazado_1269648" data-name="Trazado 1269648" d="M54.067,22.189c1.477,3.513,2.559,7.553,4.48,10.838a32.992,32.992,0,0,0,5.683,7.325c5.063,4.839,11.279.669,14.883-3.781a14.643,14.643,0,0,0,2.778-9.635c-.055-1.109-.231-2.213-.243-3.322a54.077,54.077,0,0,1,.611-5.753c.459-4.848-2.2-9.859-5.513-13.254a12.832,12.832,0,0,0-3.9-2.851A8.1,8.1,0,0,0,68.7,1.522,26.646,26.646,0,0,0,59.59,4.543,19.321,19.321,0,0,0,54.706,7.82c-.985.97-1.082,2.386-1.574,3.592-.167.413-.471.748-.614,1.17a6.64,6.64,0,0,0-.2,1.96,19.251,19.251,0,0,0,1.748,7.647" transform="translate(106.693 2.794)" fill="#ffa87d"/>
                  <path id="Trazado_1269649" data-name="Trazado 1269649" d="M83.67,7.528A6.974,6.974,0,0,1,85.976,9.8c.793,1.5.462,3.328.292,5.036a24,24,0,0,0-.076,3.823A12.93,12.93,0,0,1,86.286,22a13.746,13.746,0,0,1-.62,2.453A2.356,2.356,0,0,1,85,25.475c-1.729,1.386-3.307-2.69-3.665-3.781-.453-1.4-1.179-2.948-2.6-3.3a6.5,6.5,0,0,0-2.437.146A7.925,7.925,0,0,1,72,17.913c-1.413-.635-2.8-1.72-4.328-1.459a10.931,10.931,0,0,0-2.459,1.112A5.183,5.183,0,0,1,60.6,17.33c-.766-.438-1.407-1.07-2.173-1.511a2.463,2.463,0,0,0-3.194.264c-.784.748-.647,2.094-.69,3.036a27.083,27.083,0,0,1-.167,4A3.557,3.557,0,0,1,51.967,20.5a8.98,8.98,0,0,1-.009-3.711,15.616,15.616,0,0,0,.325-3.714,23.891,23.891,0,0,1-.419-3.328A5.5,5.5,0,0,1,53.413,6.4,10.542,10.542,0,0,1,56.784,4,42.181,42.181,0,0,0,60.759,2.55c1.374-.787,2.6-1.875,4.152-2.322a8.952,8.952,0,0,1,4.756.249,20.185,20.185,0,0,0,4.674.976A17.621,17.621,0,0,1,76.91,1.5c3.14.544,3.808,3.933,6.076,5.55.225.161.456.319.684.48" transform="translate(105.566 0.001)" fill="#231c20"/>
                  <path id="Trazado_1269650" data-name="Trazado 1269650" d="M63.008,6.469a2.382,2.382,0,0,1,2.474.556,4.623,4.623,0,0,1,1.161,2.626A6.488,6.488,0,0,1,63.515,16.6a1.961,1.961,0,0,1-.918.28c-2.03-.018-1.836-4.355-1.918-5.726a5.715,5.715,0,0,1,.538-3.231,3.253,3.253,0,0,1,1.79-1.45" transform="translate(123.696 12.925)" fill="#ffa87d"/>
                  <path id="Trazado_1269651" data-name="Trazado 1269651" d="M57.5,7.459a5.713,5.713,0,0,0-1.091.122,5.839,5.839,0,0,0-2.4,1.109c-.3.237-1.277.824-.608,1.055A4.268,4.268,0,0,0,55.489,9.5a11.153,11.153,0,0,1,3.927.073c.529.079,1.042.21,1.14-.362A1.256,1.256,0,0,0,60.227,8a3.775,3.775,0,0,0-1.547-.45A6.083,6.083,0,0,0,57.5,7.459" transform="translate(108.438 15.209)" fill="#231c20"/>
                  <path id="Trazado_1269652" data-name="Trazado 1269652" d="M60.848,6.607a9.106,9.106,0,0,1,4.987.38.559.559,0,0,1,.164.1.143.143,0,0,1,.018.176.224.224,0,0,1-.115.061,44.563,44.563,0,0,0-6.349,1.966c-.584.27-1.732.577-1.985-.353a1.2,1.2,0,0,1,.556-1.152,5.764,5.764,0,0,1,2.723-1.176" transform="translate(117.346 13.164)" fill="#231c20"/>
                  <path id="Trazado_1269653" data-name="Trazado 1269653" d="M56.664,9.885c-.213-.538-.581-1.161-1.237-1.152a.851.851,0,0,0-.757.447.956.956,0,0,0-.082.243c-.024.061-.043.122-.061.182a1.659,1.659,0,0,0,.143,1.2,1.19,1.19,0,0,0,.6.769,1.158,1.158,0,0,0,1.2-.237,1.276,1.276,0,0,0,.2-1.456" transform="translate(111.086 17.809)" fill="#231c20"/>
                  <path id="Trazado_1269654" data-name="Trazado 1269654" d="M60.977,9.137c-.182-.574-.526-1.246-1.207-1.277a1.038,1.038,0,0,0-1.024.7,1.831,1.831,0,0,0-.046.681,1.9,1.9,0,0,0,.714,1.556.943.943,0,0,0,1.015-.015,1.315,1.315,0,0,0,.547-1.647" transform="translate(119.685 16.028)" fill="#231c20"/>
                  <path id="Trazado_1269655" data-name="Trazado 1269655" d="M56.668,16.554c0-.277,0-.553,0-.833.024-2.349.231-4.805-.413-7.094-.073-.261.6-.538.666-.3a21.727,21.727,0,0,1,.444,6.307c-.009.538-.018,1.073-.015,1.611a1.463,1.463,0,0,0,.119.808,1.444,1.444,0,0,0,.535.407,3.265,3.265,0,0,0,2.662.219c.1-.04.343-.125.41.018s-.161.286-.255.322a4.135,4.135,0,0,1-2.86.076,2.243,2.243,0,0,1-1.158-.739,1.561,1.561,0,0,1-.137-.8" transform="translate(114.715 16.794)" fill="#e06f63"/>
                  <path id="Trazado_1269656" data-name="Trazado 1269656" d="M62.284,12.172a11.119,11.119,0,0,0-2.453.34l-2.441.538c-.149.033-.289.176-.158.31a.692.692,0,0,0,.608.082l2.264-.5a9.8,9.8,0,0,1,2.179-.319c.134,0,.435-.04.444-.225s-.328-.228-.444-.228" transform="translate(116.609 24.822)" fill="#e06f63"/>
                  <path id="Trazado_1269657" data-name="Trazado 1269657" d="M60.864,9.1c-.073-.17-.407-.179-.547-.158a4.566,4.566,0,0,1-3.875-1.48,7.931,7.931,0,0,1-1.948-4.1c-.061-.325-.939-.283-.887,0A8.08,8.08,0,0,0,55.892,7.9a5.672,5.672,0,0,0,4.659,1.48c.131-.021.383-.1.313-.28" transform="translate(109.315 6.389)" fill="#395795"/>
                  <path id="Trazado_1269658" data-name="Trazado 1269658" d="M60.213,5.36a.69.69,0,0,0-.608-.082,3.568,3.568,0,0,1-3.687-1.17c-.185-.213-1.036-.085-.766.228a4.771,4.771,0,0,0,4.9,1.334c.143-.043.295-.167.158-.31" transform="translate(112.364 8.162)" fill="#395795"/>
                  <path id="Trazado_1269659" data-name="Trazado 1269659" d="M66.9,1.782a4.935,4.935,0,0,0-2.562-.632c-1.012.015-2,.274-3.009.31A9.078,9.078,0,0,1,57.959.937a.664.664,0,0,0-.608.082c-.143.146.021.261.161.31a10.455,10.455,0,0,0,3.523.59c1.222-.009,2.434-.386,3.653-.31a3.922,3.922,0,0,1,3.459,4.51c-.043.289.842.325.884,0A4.341,4.341,0,0,0,66.9,1.782" transform="translate(116.843 1.835)" fill="#395795"/>
                  <path id="Trazado_1269660" data-name="Trazado 1269660" d="M61.819,3.437a2.8,2.8,0,0,0-1.4-1.295.746.746,0,0,0-.629,0c-.149.076-.173.243,0,.319a2.368,2.368,0,0,1,1.289,2.951c-.064.182.17.258.31.28s.486.015.547-.158a2.689,2.689,0,0,0-.115-2.1" transform="translate(121.681 4.226)" fill="#395795"/>
                  <path id="Trazado_1269661" data-name="Trazado 1269661" d="M62.7,3.2a.693.693,0,0,0-.608-.082c-.134.043-.31.173-.158.31a4.271,4.271,0,0,1,1.149,4.532c-.119.331.757.4.857.119A4.561,4.561,0,0,0,62.7,3.2" transform="translate(126.179 6.29)" fill="#395795"/>
                  <path id="Trazado_1269662" data-name="Trazado 1269662" d="M53.751,2.155a.683.683,0,0,0-.608.082,3.292,3.292,0,0,0-.824,3.331c.058.173.407.179.547.158s.368-.094.31-.28a3,3,0,0,1,.732-2.982c.143-.14-.018-.267-.158-.31" transform="translate(106.383 4.325)" fill="#395795"/>
                  <path id="Trazado_1269663" data-name="Trazado 1269663" d="M71.724,41.91q-2.489,11.429-4.4,22.971-.543,3.269-1.039,6.55c-.03.2.6.231.635,0Q68.667,59.865,70.995,48.4q.656-3.251,1.365-6.489c.043-.195-.584-.234-.635,0" transform="translate(135.163 85.139)" fill="#231c20"/>
                  <path id="Trazado_1269664" data-name="Trazado 1269664" d="M71.2,53.149a39.853,39.853,0,0,0-2.319,6.231c-1.155,4.222-1.854,8.6-3.708,12.6-.052.115-.109.24-.173.356a1.96,1.96,0,0,1-.781.869,2.264,2.264,0,0,1-1.112.176c-2.991-.076-5.832-1.425-8.82-1.565a28.158,28.158,0,0,0-3.431.158c-1.441.1-2.89.14-4.337.106a8.628,8.628,0,0,1-4.1-.83c-1.666-.933-2.583-2.763-3.547-4.313a7.354,7.354,0,0,1-.739-6.121,11.425,11.425,0,0,1,3.352-4.194,16.855,16.855,0,0,1,5.1-3.456c2.088-.824,3.7-1.918,5.893-1.666h0c.225.03.45.07.687.122,1.167.277,2.3.723,3.483.906a8.658,8.658,0,0,0,1.456.094A13.574,13.574,0,0,0,62.5,51.7c1.869-.687,3.644-1.608,5.5-2.313a4.825,4.825,0,0,1,2.143-.422c2.283.228,1.732,2.72,1.052,4.182" transform="translate(77.01 99.831)" fill="#ffa87d"/>
                  <path id="Trazado_1269665" data-name="Trazado 1269665" d="M50.354,50.914a6.04,6.04,0,0,1-1.571,2.778,6.309,6.309,0,0,1-4.07,2.2c-2.079.085-3.091-1.185-3.146-3.164-.021-.663.046-1.319.079-1.979.216-.091.438-.185.66-.267a12.633,12.633,0,0,1,1.83-.574c.195-.046.392-.085.59-.119h0c.225.027.45.07.687.122,1.167.274,2.3.723,3.483.906a8.658,8.658,0,0,0,1.456.094" transform="translate(84.76 101.543)" fill="#e06f63"/>
                  <path id="Trazado_1269666" data-name="Trazado 1269666" d="M38.969,54.14a15.063,15.063,0,0,1,3.787-1.453c.848-.2,1.732-.158,2.571-.392a4.226,4.226,0,0,0,1.985-1.283c.924-.939,1.757-1.96,2.614-2.96.711-.836,1.62-2.033,2.875-1.833a2.779,2.779,0,0,1,1.03.447c.909.571,1.669,1.8,2.748,1.924a16.512,16.512,0,0,0,3.848-.24,14.553,14.553,0,0,1,3.671-.018c2.2.307,3.182,2.416,3.5,4.416a13.942,13.942,0,0,1-3.775,11.72,24.431,24.431,0,0,1-3.158,2.741c-1.021.763-1.839,1.249-2.042,2.589a10.268,10.268,0,0,1-5.832,7.838,13.818,13.818,0,0,1-7.018,1.334A11.464,11.464,0,0,1,41.24,77.8a14.685,14.685,0,0,1-3.331-2.526A36.109,36.109,0,0,1,34.1,71a10.044,10.044,0,0,1-1.708-2.991,10.637,10.637,0,0,1-.35-3.343,10.582,10.582,0,0,1,2.2-6.841,12.779,12.779,0,0,1,1.675-1.593,19.829,19.829,0,0,1,3.048-2.088" transform="translate(65.339 94.211)" fill="#ffa87d"/>
                  <path id="Trazado_1269667" data-name="Trazado 1269667" d="M36.313,50.255a8.248,8.248,0,0,1,1.039.994,13.753,13.753,0,0,0,2.231,2.313c1.656,1.17,3.842,1.173,5.769,1.808A9.089,9.089,0,0,1,50.1,59.05c1.033,1.611,1.69,3.778,3.671,4.422,1.2.392,2.416.255,3.58.693,1.2.45,2.51.459,3.723.869a7.078,7.078,0,0,1,3.62,3.033c1.447,2.334.137,3.717-1.781,5.139a32.846,32.846,0,0,1-20.561,6.255,8.518,8.518,0,0,1-4.635-1.173,7.658,7.658,0,0,1-1.842-1.963c-2.191-3.134-2.954-6.911-3.623-10.616a52.379,52.379,0,0,1-.83-11.571c.085-1.9.663-5.152,3.3-4.65a3.775,3.775,0,0,1,1.59.766" transform="translate(63.981 100.817)" fill="#231c20"/>
                  <path id="Trazado_1269668" data-name="Trazado 1269668" d="M43.243,52.3c-.036,0-.07,0-.1,0-2.754-.04-7.392,2.948-5.419,6.133a3.919,3.919,0,0,0,3.355,1.729c2.556-.024,6.4-2.623,6.033-5.522-.222-1.766-2.358-2.295-3.866-2.337" transform="translate(75.955 106.653)" fill="#ffa87d"/>
                  <path id="Trazado_1269669" data-name="Trazado 1269669" d="M132.865,56.566c-.945,2.434.386,5.383,2.5,7,7.018,5.373,16.254,3.383,24.19,1.848,1.893-.368,3.957-.915,5.033-2.517,1.067-1.587.808-3.708.258-5.541-.587-1.951-2.033-4.626-4.1-5.325-2.89-.985-6.9-.547-9.935-.7l-5.887-.292c-4.1-.2-9.738.906-11.878,5.121-.067.134-.128.267-.179.4" transform="translate(270.319 104.048)" fill="#ffa87d"/>
                  <path id="Trazado_1269670" data-name="Trazado 1269670" d="M156.467,46.105a1.589,1.589,0,0,1,.112.137l-6.531,34.143c-.249-.018-.5-.036-.742-.064-.559-.061-1.109-.152-1.656-.267a12.754,12.754,0,0,1-5.656-2.775,1.712,1.712,0,0,1-.723-1.176,2.181,2.181,0,0,1,.754-1.356A7.788,7.788,0,0,0,144,68.854a8.208,8.208,0,0,0-1.611-3.568,6.215,6.215,0,0,1-.921-1.447,2.371,2.371,0,0,1,.106-1.793c.708-1.62,2.4-2.848,3.516-4.194a40.334,40.334,0,0,0,3.462-4.921c.872-1.456,1.656-2.969,2.662-4.328a9.566,9.566,0,0,1,2.988-2.8,1.827,1.827,0,0,1,2.264.3" transform="translate(288.091 92.882)" fill="#fff"/>
                  <path id="Trazado_1269671" data-name="Trazado 1269671" d="M149.05,47.956c-.4.088-.611.565-.818.887a42.727,42.727,0,0,1-3.872,5.146q-1.2,1.372-2.5,2.629a.644.644,0,0,0-.182.535c.015.116.122.337.261.2a44.142,44.142,0,0,0,4.577-5.146q1.021-1.354,1.939-2.784c.122-.188.249-.511.453-.629.24-.143.5.1.666.249.28.255,1.207,1.556,1.659,1.359.7-.307-.356-1.24-.58-1.4a5.294,5.294,0,0,1-.59-.489c-.264-.252-.6-.647-1.012-.556" transform="translate(288.909 97.769)" fill="#65bfd7"/>
                  <path id="Trazado_1269672" data-name="Trazado 1269672" d="M142.03,50.009a.719.719,0,0,0-.079.307.424.424,0,0,0,.052.258q.529.761,1.058,1.529c.1.143.252.04.319-.091a.717.717,0,0,0,.079-.3.439.439,0,0,0-.049-.258l-1.064-1.529c-.1-.146-.249-.04-.316.088" transform="translate(289.477 101.661)" fill="#231c20"/>
                  <path id="Trazado_1269673" data-name="Trazado 1269673" d="M142.491,49.491a.623.623,0,0,0-.027.562,12.022,12.022,0,0,0,1,1.377c.043.049.082.091.155.07a.309.309,0,0,0,.161-.161.7.7,0,0,0,.082-.3.437.437,0,0,0-.052-.258,12.021,12.021,0,0,1-1-1.377c-.1-.152-.255-.033-.319.091" transform="translate(290.41 100.595)" fill="#231c20"/>
                  <path id="Trazado_1269674" data-name="Trazado 1269674" d="M143.086,48.751a.309.309,0,0,0-.161.161.709.709,0,0,0-.082.3.432.432,0,0,0,.052.258q.479.565.96,1.128c.043.052.082.091.155.073a.309.309,0,0,0,.161-.161.675.675,0,0,0,.079-.3.409.409,0,0,0-.049-.258c-.319-.377-.641-.754-.96-1.131-.046-.049-.082-.091-.155-.07" transform="translate(291.298 99.406)" fill="#231c20"/>
                  <path id="Trazado_1269675" data-name="Trazado 1269675" d="M143.35,48.218a.639.639,0,0,0-.03.565,6.37,6.37,0,0,0,1.155,1.422.138.138,0,0,0,.17-.012.467.467,0,0,0,.146-.222.528.528,0,0,0-.055-.52c-.106-.1-.21-.2-.307-.3-.049-.052-.1-.106-.143-.158l-.024-.027-.027-.033-.07-.082a7.056,7.056,0,0,1-.5-.72c-.091-.158-.255-.033-.316.088" transform="translate(292.162 97.999)" fill="#231c20"/>
                  <path id="Trazado_1269676" data-name="Trazado 1269676" d="M151.653,46.745l-5.817,33.01a1.1,1.1,0,0,1-2.161-.38l5.817-33.01a1.1,1.1,0,0,1,2.161.38" transform="translate(292.959 92.704)" fill="#dd475d"/>
                  <path id="Trazado_1269677" data-name="Trazado 1269677" d="M86.587,47.665c.3,1.62.684,10.61.7,11.817.082,6.133,0,12.26.176,18.394h157.3c.307-1.416.562-2.909.793-4.416a33.77,33.77,0,0,1,1.772-9.227,30.2,30.2,0,0,0,1.055-5.942c.1-1.058.173-2.128.255-3.206Z" transform="translate(176.576 97.203)" fill="#dd475d"/>
                  <path id="Trazado_1269678" data-name="Trazado 1269678" d="M121.081,67.006a.921.921,0,0,0,.477-.976c.751-.046,1.708-.264,1.814-1.012.191-1.34-1.125-2.471-2.061-3.179a17.613,17.613,0,0,0-8.416-3.425A35.05,35.05,0,0,0,108,58.265c-5.03.079-10.063.158-15.09.407a3.639,3.639,0,0,0-3.674,2.714,6.141,6.141,0,0,0,.407,4.921c.842,1.237,3,1.356,4.346,1.468q9.109.752,18.26.781a29.763,29.763,0,0,0,6.37-.462,1.513,1.513,0,0,0,.705-.289.556.556,0,0,0,.146-.693,2.851,2.851,0,0,0,1.4,0,1.146,1.146,0,0,0,.213-.1" transform="translate(181.313 118.783)" fill="#ffa87d"/>
                  <path id="Trazado_1269679" data-name="Trazado 1269679" d="M50.486,82.088c3.295,3.453,7.1,6.5,11.738,6.741a20.486,20.486,0,0,0,6.942-1.2c7.413-2.258,15.71-2.416,23.409-3.334,3.735-.447,7.477-.891,11.233-1.088,5.7-.3,11.4-.024,17.108.012,12.112.076,24.2-.915,36.274-1.909q7.85-.643,15.7-1.289a1.2,1.2,0,0,0,1.334-1.483c.125-5.4.264-10.8.28-16.209.006-2.7-.018-5.4-.094-8.106q-.055-2.02-.152-4.036c-.033-.7.234-2.717-.462-3.112a1.857,1.857,0,0,0-.9-.167l-6.346-.082c-1.778-.024-3.62.6-5.449.669-1.963.079-3.927.036-5.887.085-14.154.35-28.3-.356-42.45-.678-14.133-.319-28.326-.255-42.362,1.614-7.9,1.055-15.151,2.045-20.214,9.021-3.152,4.343-4.5,9.926-4.687,15.215a9.166,9.166,0,0,0,.38,3.44,10.493,10.493,0,0,0,2.155,3.188c.79.906,1.6,1.821,2.456,2.711" transform="translate(92.75 95.343)" fill="#ffd540"/>
                  <path id="Trazado_1269680" data-name="Trazado 1269680" d="M52.337,77.539q.716.7,1.447,1.4a23.686,23.686,0,0,0,4,3.2c3.167,1.893,6.547,2.352,10.036,2.5H179.437c.027-.024.058-.046.082-.07a2.471,2.471,0,0,0,.526-1.772c.049-2.194.739-12.048-1.833-12.434-30.132-4.529-60.8-4.064-91.078-7.528A29.065,29.065,0,0,1,78,60.729c-3.714-1.742-5.69-4.948-8.811-7.331a12.957,12.957,0,0,0-10.8-1.7,17.434,17.434,0,0,0-8.352,6.258,18.191,18.191,0,0,0-2.979,5.288c-.708,2.106-1.31,5.632-.483,7.808.912,2.395,3.966,4.72,5.756,6.483" transform="translate(94.175 104.427)" fill="#ffd540"/>
                  <path id="Trazado_1269681" data-name="Trazado 1269681" d="M48.7,69.526a18.25,18.25,0,0,1,2.325-5.532c1.064-1.72,2.34-3.313,3.319-5.085a12.022,12.022,0,0,0,1.626-5.975,11.515,11.515,0,0,0-.9-4.176,18.31,18.31,0,0,0-4.893,4.687c-3.152,4.34-4.5,9.923-4.684,15.215a9.155,9.155,0,0,0,.377,3.437,10.416,10.416,0,0,0,2.134,3.161,33.341,33.341,0,0,1,.7-5.732" transform="translate(92.75 99.434)" fill="#ffa87d"/>
                  <path id="Trazado_1269682" data-name="Trazado 1269682" d="M105.723,62.1a28.473,28.473,0,0,0-9.838-1.5c-.134.006-.444.04-.444.228s.319.228.444.225a27.1,27.1,0,0,1,9.391,1.435.667.667,0,0,0,.6-.082c.143-.146-.018-.261-.158-.31" transform="translate(194.632 123.565)" fill="#e06f63"/>
                  <path id="Trazado_1269683" data-name="Trazado 1269683" d="M107.568,62.341c-3.395-2.027-7.431-2.389-11.285-2.7-.152-.012-.474-.021-.547.158s.182.271.31.28c3.726.3,7.613.62,10.893,2.577a.7.7,0,0,0,.629,0c.164-.091.158-.225,0-.319" transform="translate(195.209 121.622)" fill="#e06f63"/>
                  <path id="Trazado_1269684" data-name="Trazado 1269684" d="M107.38,61.8a20.462,20.462,0,0,0-10.558-3.033c-.131,0-.444.043-.444.225s.322.225.444.228a19.245,19.245,0,0,1,9.932,2.9c.243.155,1.055-.055.626-.319" transform="translate(196.543 119.835)" fill="#e06f63"/>
                  <path id="Trazado_1269685" data-name="Trazado 1269685" d="M61.169,56a9.888,9.888,0,0,0-6.513-2.489c-.152,0-.508.049-.508.258s.365.258.508.258a8.6,8.6,0,0,1,5.638,2.234.786.786,0,0,0,.693.094c.152-.052.359-.2.182-.356" transform="translate(110.424 109.121)" fill="#b2752b"/>
                  <path id="Trazado_1269686" data-name="Trazado 1269686" d="M148.786,61.44q-17.775-.556-35.523-1.7-17.68-1.14-35.311-2.872-9.975-.976-19.926-2.143c-.158-.018-.559-.021-.623.182s.191.3.353.316Q75.508,57.3,93.325,58.787q17.7,1.473,35.438,2.358,10.007.5,20.023.811c.149.006.508-.049.508-.258s-.365-.255-.508-.258" transform="translate(117.04 111.587)" fill="#b2752b"/>
                  <path id="Trazado_1269687" data-name="Trazado 1269687" d="M56.661,67.686c.486,1.042.97,2.079,1.435,3.115q3.989,8.917,8.379,17.646a3.7,3.7,0,0,0,.915,1.3c.8.635,2.428.48,3.368.38a5.465,5.465,0,0,0,2.7-.939,5.16,5.16,0,0,0,1.857-3.523c.249-1.951-.337-3.623-.656-5.48-.368-2.121-.675-4.252-1.009-6.373q-.994-6.269-1.985-12.534a40.234,40.234,0,0,0-1.681-7.495c-.462-1.267-1.049-2.486-1.547-3.738a25.519,25.519,0,0,1-1.811-10.133c.064-3.747.581-7.471.69-11.215.027-.985.435-2.833.046-3.735-.356-.821-1.3-.489-2.131-.6a28.127,28.127,0,0,0-7.671-.249c-2.3.343-5.082,1.377-6.455,3.383-2.48,3.62-1.176,7.528-.28,11.367,1.143,4.887-.2,10.069.714,15,.891,4.805,3.042,9.349,5.127,13.814" transform="translate(101.282 48.826)" fill="#ffa87d"/>
                  <path id="Trazado_1269688" data-name="Trazado 1269688" d="M72.206,51.4c-.079-.3-.161-.611-.237-.915a24.38,24.38,0,0,1-.684-3.334c-.337-2.9-.76-5.817-1.3-8.7-1.152-6.148-2.872-12.288-6.17-17.6a14.853,14.853,0,0,0-5.838-5.829c-2.51-1.21-5.787-1.149-7.838.742a3.625,3.625,0,0,0-1.064,1.577,14.862,14.862,0,0,0-.27,3.957q-.059,2.375-.112,4.744-.1,4.746-.179,9.489c-.073,4.753-.106,9.513-.07,14.266l.009.884q.014,1.91.049,3.823a1.518,1.518,0,0,0,.337,1.131,1.474,1.474,0,0,0,.9.286q5.863.529,11.753.717c2.161.064,4.316.21,6.477.243,1.009.012,3.924.447,4.756-.489a.92.92,0,0,0,.225-.653,19.75,19.75,0,0,0-.742-4.331" transform="translate(98.751 28.966)" fill="#395795"/>
                  <path id="Trazado_1269689" data-name="Trazado 1269689" d="M68.567,27.411l-.927-.027q-9.469-.292-18.941-.58l-.261-.009-.009-.881c4.62.161,9.246.255,13.868.4,1.638.052,3.276.1,4.915.149.31.012.617.021.927.027.143.307.283.617.429.924" transform="translate(98.761 52.844)" fill="#65bfd7"/>
                  <path id="Trazado_1269690" data-name="Trazado 1269690" d="M57.827,33.836a7.7,7.7,0,0,0-2.513-1.41A3.617,3.617,0,0,1,53.3,30.778c-.125-.274-1-.191-.857.119.86,1.875,3.279,1.833,4.614,3.167a.671.671,0,0,0,.608.082c.143-.046.3-.167.158-.31" transform="translate(106.924 62.428)" fill="#e06f63"/>
                  <path id="Trazado_1269691" data-name="Trazado 1269691" d="M71.232,38.277c-.067-.577-.14-1.155-.207-1.732-.03-.264-.03-.508-.3-.638a1.586,1.586,0,0,0-.781-.079,37.811,37.811,0,0,1-7.252-.3l-.082-.006-1.349-2.9,0-.018-.1-.2c-.082-.167-.158-.334-.231-.5l-.027-.033-3.389-7.085c-.571-1.188-1.109-2.407-1.754-3.562a7.507,7.507,0,0,0-2.295-2.659,4.672,4.672,0,0,0-3.826-.675c-.167.049-.334.191-.182.353a.777.777,0,0,0,.693.094,3.262,3.262,0,0,1,2.805.748,7.946,7.946,0,0,1,2.03,2.656c.584,1.1,1.091,2.234,1.629,3.355q.853,1.783,1.708,3.571c1.055,2.194,2.222,4.37,3.249,6.589.067.14.134.286.2.429a.745.745,0,0,0-.289.128c-.368.28-.085.787.03,1.128q.511,1.482,1.125,2.924.305.716.638,1.428a9.322,9.322,0,0,0,.669,1.352,1.151,1.151,0,0,0,1.158.3l.04-.006c.04.079.076.161.112.237.143.307.283.617.429.924.225.489.453.982.681,1.471q.894,1.915,1.778,3.83c.128.27,1,.188.857-.122Q67.8,46.7,66.606,44.115c-.149-.307-.292-.614-.432-.921-.067-.137-.131-.277-.195-.413.2-.043.4-.088.6-.137a.469.469,0,0,0,.073-.03,19.382,19.382,0,0,1,4.513-.368c.128.006.532-.052.508-.258l-.447-3.711m-2.413,3.5a17.616,17.616,0,0,0-2.507.368c-.416.094-.827.207-1.24.34a.436.436,0,0,1-.185.033c-.115,0-.137-.079-.179-.167-.1-.173-.185-.359-.27-.538q-.543-1.108-1.018-2.249c-.231-.541-.444-1.088-.653-1.641-.167-.444-.371-.875-.508-1.331a.433.433,0,0,1-.015-.325c.1-.164.353-.195.523-.2a5.13,5.13,0,0,1,.638.073c.322.036.65.07.979.1.663.061,1.316.1,1.979.128s1.319.036,1.976.027c.328,0,.656-.012.985-.024.207-.009.45-.049.669-.055a3.046,3.046,0,0,1,.067.6c.03.246.058.5.088.742.058.474.115.951.17,1.425.109.878.21,1.757.316,2.638-.6-.009-1.21.012-1.811.058" transform="translate(100.725 36.141)" fill="#231c20"/>
                  <path id="Trazado_1269692" data-name="Trazado 1269692" d="M80.014,74.236Q81.7,72.048,83.3,69.8c7.893-11.066,15.987-23.795,17.853-37.45a8.175,8.175,0,0,0-.1-3.562c-.653-2.076-2.583-2.313-4.352-2.76a25.017,25.017,0,0,0-7.829-.936c-2.322.17-5.182,1.027-6.726,3.018-1.745,2.252-1.732,5.939-2.182,8.671-1.234,7.522-5.082,13.938-8.641,20.439C67.47,64.261,63.583,71.279,59.51,78.184c-1.392,2.359-2.863,4.951-2.544,7.692A6.05,6.05,0,0,0,60.289,90.6c4.152,1.945,9.875-4.76,12.224-7.367q3.925-4.354,7.5-9" transform="translate(116.082 51.09)" fill="#ffa87d"/>
                  <path id="Trazado_1269693" data-name="Trazado 1269693" d="M89.92,43.335a77.312,77.312,0,0,1-1.662,7.744v.012c-.058.207-.119.517-.185.887-.316,1.669-.787,4.574-1.577,5a2.732,2.732,0,0,1-1.368.2c-3.65-.1-7.3-.2-10.938-.55-1.86-.179-3.717-.425-5.556-.769-1.89-.35-3.836-.255-4.428-1.705a3.618,3.618,0,0,1-.109-1.893q.223-1.418.422-2.851c.043-.3.082-.593.125-.894,1.03-7.5,1.811-15.209,3.675-22.473.669-2.614.708-5.282,2.465-7.507,1.963-2.477,4.322-4.076,7.629-3.875a11.161,11.161,0,0,1,7.872,4.5,20.383,20.383,0,0,1,3.574,8.546,44.6,44.6,0,0,1,.064,15.625" transform="translate(130.568 29.873)" fill="#395795"/>
                  <path id="Trazado_1269694" data-name="Trazado 1269694" d="M87.931,28.352l0,.009c-.055.21-.116.517-.185.887q-9.236-.989-18.47-1.991-2.544-.274-5.085-.571c.046-.3.085-.593.125-.894,6.17.766,12.37,1.349,18.552,2.015l5.066.544" transform="translate(130.898 52.6)" fill="#65bfd7"/>
                  <path id="Trazado_1269695" data-name="Trazado 1269695" d="M70.192,16.2q-1.331,6.9-2.662,13.792-1.336,6.925-2.675,13.853a52.1,52.1,0,0,0-1.164,7.647c-.012.307.875.319.891,0a46.015,46.015,0,0,1,.994-6.778q.666-3.447,1.331-6.9,1.336-6.925,2.675-13.853.748-3.884,1.5-7.765c.055-.28-.824-.328-.887,0" transform="translate(129.884 32.57)" fill="#231c20"/>
                  <path id="Trazado_1269696" data-name="Trazado 1269696" d="M75.094,21.624q-1.112,8.306-2.626,16.549-.219,1.167-.441,2.334c-.07.368-.14.736-.213,1.1-.04.207-.079.41-.119.614-.018.1-.03.216-.052.328l-.015.012a.278.278,0,0,0,.061.465c.176.1.635.125.742-.1a3.741,3.741,0,0,0,.176-.827c.073-.368.143-.736.213-1.106.137-.693.267-1.389.4-2.088q.388-2.088.751-4.182.72-4.162,1.34-8.334.351-2.384.672-4.769c.04-.292-.845-.325-.887,0" transform="translate(145.872 43.626)" fill="#231c20"/>
                  <path id="Trazado_1269697" data-name="Trazado 1269697" d="M77.431,25.083c-.9,3.96-3.623,6.717-6.082,6.161s-3.72-4.225-2.82-8.185,3.623-6.717,6.082-6.158,3.72,4.222,2.82,8.182" transform="translate(139.158 34.32)" fill="#65bfd7"/>
                  <path id="Trazado_1269698" data-name="Trazado 1269698" d="M76.88,50.957a4.337,4.337,0,0,0-.234-2.93A7.051,7.051,0,0,0,75,45.793c-1.863-1.793-4.5-3.018-7.027-2.48a27.547,27.547,0,0,0-4.291,1.821c-1.343.535-2.726.343-4.13.687a7.918,7.918,0,0,0-2.5,1.018,11.4,11.4,0,0,0-4.908,7.51,1.64,1.64,0,0,0,.131,1.295C53.365,57.1,55.289,54.75,55.948,54c.574-.653,1.179-1.629,2.182-1.5a35.527,35.527,0,0,0-1.65,4.064,2.493,2.493,0,0,0,.2,2.428,1.725,1.725,0,0,0,1.857.283A4.433,4.433,0,0,0,60.1,58.068a22.173,22.173,0,0,0,2.331-3.042q-.5,1.418-1,2.842a8.607,8.607,0,0,0-.574,2.276,1.262,1.262,0,0,0,.036.477c.182.553,1.261.939,1.805,1a3.976,3.976,0,0,0,2.672-1.061,12.014,12.014,0,0,0,2.194-2.656c-.3,1.5-.915,5.033,1.772,4.483a2.953,2.953,0,0,0,1.985-1.827,21.152,21.152,0,0,1,.97-2.79,8.128,8.128,0,0,1,1.179-1.368,22.838,22.838,0,0,0,3.018-4.544,3.847,3.847,0,0,0,.4-.906" transform="translate(106.195 88.067)" fill="#ffa87d"/>
                  <path id="Trazado_1269699" data-name="Trazado 1269699" d="M52.253,52.527a4.313,4.313,0,0,0-.553,1.34,1.466,1.466,0,0,0-.015.66,1.247,1.247,0,0,0,1.222.827,2.956,2.956,0,0,0,1.486-.5,11.29,11.29,0,0,0,3.015-2.562,16.115,16.115,0,0,0,1.869-3.516,4.061,4.061,0,0,0,.486-1.456,1.406,1.406,0,0,0-.6-1.334c-2.061-1.2-5.1,4.094-6.018,5.285a13.075,13.075,0,0,0-.894,1.258" transform="translate(105.337 93.414)" fill="#ffa87d"/>
                  <path id="Trazado_1269700" data-name="Trazado 1269700" d="M53.889,54.081a4.324,4.324,0,0,0-.389,1.4,1.45,1.45,0,0,0,.064.656,1.245,1.245,0,0,0,1.313.678,3.012,3.012,0,0,0,1.416-.678,11.2,11.2,0,0,0,2.684-2.9,16.107,16.107,0,0,0,1.438-3.714,4.094,4.094,0,0,0,.31-1.5,1.415,1.415,0,0,0-.754-1.255c-2.191-.951-4.574,4.674-5.346,5.966a13.245,13.245,0,0,0-.736,1.356" transform="translate(109.081 95.136)" fill="#ffa87d"/>
                  <path id="Trazado_1269701" data-name="Trazado 1269701" d="M55.94,55.635a4.288,4.288,0,0,0-.109,1.444,1.431,1.431,0,0,0,.188.632,1.249,1.249,0,0,0,1.419.41,3,3,0,0,0,1.258-.939,11.327,11.327,0,0,0,2.07-3.371,16,16,0,0,0,.684-3.924,4.139,4.139,0,0,0,.015-1.535,1.425,1.425,0,0,0-.985-1.085c-2.334-.5-3.577,5.477-4.082,6.893a12.714,12.714,0,0,0-.459,1.474" transform="translate(113.811 96.333)" fill="#ffa87d"/>
                  <path id="Trazado_1269702" data-name="Trazado 1269702" d="M57.838,56.467a4.395,4.395,0,0,0,.2,1.435,1.478,1.478,0,0,0,.325.574,1.243,1.243,0,0,0,1.471.094,3.034,3.034,0,0,0,1.027-1.191,11.251,11.251,0,0,0,1.289-3.735,16.047,16.047,0,0,0-.179-3.981,4.109,4.109,0,0,0-.319-1.5,1.415,1.415,0,0,0-1.194-.848c-2.389.012-2.307,6.121-2.5,7.613a13.063,13.063,0,0,0-.128,1.538" transform="translate(117.948 96.491)" fill="#ffa87d"/>
                  <path id="Trazado_1269703" data-name="Trazado 1269703" d="M58.567,46.784c-.055-.945-1-1.079-1.763-.839a6.7,6.7,0,0,0-2.5,1.763,10.875,10.875,0,0,0-2.058,2.86c-.094.188.429.28.508.119a10.769,10.769,0,0,1,2.039-2.842,10.518,10.518,0,0,1,1.27-1.076,5.183,5.183,0,0,1,.7-.438c.28-.137.8-.368,1.079-.122.356.313.167,1.024.082,1.407a11.906,11.906,0,0,1-.574,1.827,29.9,29.9,0,0,1-1.705,3.4c-.1.179.422.277.511.119a33.435,33.435,0,0,0,1.587-3.121,13.678,13.678,0,0,0,.55-1.529,4.719,4.719,0,0,0,.277-1.532" transform="translate(106.521 93.483)" fill="#e06f63"/>
                  <path id="Trazado_1269704" data-name="Trazado 1269704" d="M59.6,47.554c-.14-.748-1.14-.772-1.672-.477a4.559,4.559,0,0,0-.985.872c-.365.377-.714.763-1.052,1.164a22.681,22.681,0,0,0-2.027,2.827c-.106.17.413.274.508.119a22.832,22.832,0,0,1,1.881-2.65c.343-.416.7-.824,1.076-1.216.313-.325.769-.948,1.255-1.015.7-.094.471.918.413,1.307q-.123.848-.319,1.687a20.11,20.11,0,0,1-1.091,3.337c-.082.2.441.28.508.119a20.782,20.782,0,0,0,1.015-2.994c.134-.514.243-1.033.334-1.556a4.627,4.627,0,0,0,.155-1.523" transform="translate(109.808 95.645)" fill="#e06f63"/>
                  <path id="Trazado_1269705" data-name="Trazado 1269705" d="M60.889,50.4a8.73,8.73,0,0,0-.082-1.194,5.624,5.624,0,0,0-.216-1.076.657.657,0,0,0-.632-.426,1.375,1.375,0,0,0-.878.353,7.052,7.052,0,0,0-1.4,1.6c-.532.769-1.049,1.544-1.574,2.316-.109.164.4.27.508.119.5-.739,1-1.48,1.5-2.216a6.233,6.233,0,0,1,1.574-1.76c.207-.14.322-.152.4.1.055.191.091.389.128.584a8.965,8.965,0,0,1-.173,3.918c-.046.167.48.243.532.049a9.03,9.03,0,0,0,.313-2.368" transform="translate(114.384 97.288)" fill="#e06f63"/>
                  <path id="Trazado_1269706" data-name="Trazado 1269706" d="M60.8,47.728a7.857,7.857,0,0,0-1.213,2.76,5.4,5.4,0,0,1-.571,1.462,6.025,6.025,0,0,1-1.049,1.21c-.182.167.322.295.45.176a6.773,6.773,0,0,0,1-1.106,4.815,4.815,0,0,0,.623-1.4,15.652,15.652,0,0,1,.486-1.614,6.441,6.441,0,0,1,.781-1.371c.115-.155-.4-.267-.508-.119" transform="translate(118.14 97.189)" fill="#e06f63"/>
                  <path id="Trazado_1269707" data-name="Trazado 1269707" d="M64.2,42.335a10.655,10.655,0,0,1-9.246,5.149c-.322-.006-.322.267,0,.274a11.21,11.21,0,0,0,9.762-5.349c.1-.167-.422-.234-.517-.073" transform="translate(111.577 86.145)" fill="#e06f63"/>
                  <path id="Trazado_1269708" data-name="Trazado 1269708" d="M70.965,32.965A4.627,4.627,0,0,1,67.8,35.7c-.14.033-.3.179-.158.31a.712.712,0,0,0,.608.082,5.214,5.214,0,0,0,3.577-3.009c.131-.319-.742-.4-.857-.122" transform="translate(137.819 66.882)" fill="#e06f63"/>
                  <g id="Grupo_1209376" data-name="Grupo 1209376" transform="translate(104.746 133.541)" opacity="0.4">
                    <g id="Grupo_1209375" data-name="Grupo 1209375">
                      <g id="Grupo_1209374" data-name="Grupo 1209374" clip-path="url(#clip-path-4)">
                        <path id="Trazado_1269709" data-name="Trazado 1269709" d="M60,52.907a13,13,0,0,1-1.146,1.24,13.664,13.664,0,0,1-2.52,1.8,19.543,19.543,0,0,1-5.468,2.134,26.036,26.036,0,0,1-5.927.6,32.359,32.359,0,0,1-5.58-.359,12.064,12.064,0,0,1-4.778-1.881c-.015-.1-.033-.2-.049-.3-.015-.112-.024-.222-.036-.331-.024-.267-.033-.532-.033-.8a8.744,8.744,0,0,1,.4-2.617q.109-.365.255-.72c1.538-3.866,5.653-6.948,10.808-7.607a13.653,13.653,0,0,1,11.458,3.553c.176.182.346.371.511.562a9.3,9.3,0,0,1,1.514,2.48c.1.246.191.492.267.745a9.032,9.032,0,0,1,.316,1.465l.006.036" transform="translate(-34.464 -43.938)" fill="#fff"/>
                      </g>
                    </g>
                  </g>
                  <path id="Trazado_1269710" data-name="Trazado 1269710" d="M57.414,41.6a49.859,49.859,0,0,0-.049,5.349c.009.571.012,1.146-.006,1.714A17.073,17.073,0,0,1,57,51.821a11.479,11.479,0,0,1-.508,1.705A9.851,9.851,0,0,1,55,56.128c-2.556,3.237-6.966,4.866-11.063,4.82a9.034,9.034,0,0,1-8.99-7.784c-.565-3.346.7-6.1,2.337-8.905l.021-.036c.283-.477.544-.96.793-1.45.35-.681.678-1.368.991-2.067l.027-.052a8.131,8.131,0,0,0,.547-1.091,1.058,1.058,0,0,0,.03-.125,11.5,11.5,0,0,1,.143-1.711c.842-2.562,3.744-3.884,6.224-4.194a12.778,12.778,0,0,1,8.252,2,6.8,6.8,0,0,1,2.62,2.611,6.6,6.6,0,0,1,.48,3.456" transform="translate(70.99 68.216)" fill="#fff"/>
                  <path id="Trazado_1269711" data-name="Trazado 1269711" d="M44.281,43.124a3.8,3.8,0,1,1-3.805-3.8,3.805,3.805,0,0,1,3.805,3.8" transform="translate(74.789 80.189)" fill="#65bfd7"/>
                  <path id="Trazado_1269712" data-name="Trazado 1269712" d="M54.181,49.669a9.424,9.424,0,0,1-.842,1.237,18.1,18.1,0,0,0-.213-5.5,11.114,11.114,0,0,0-14.75-7.939,9.989,9.989,0,0,0-2.751,1.568L35.644,39c.283-.477.544-.963.8-1.453a10.931,10.931,0,0,1,1.669-.793,11.867,11.867,0,0,1,15.756,8.48,16.356,16.356,0,0,1,.316,4.431" transform="translate(72.652 73.438)" fill="#65bfd7"/>
                  <path id="Trazado_1269713" data-name="Trazado 1269713" d="M54.47,45.286a17.014,17.014,0,0,1-.359,3.161c-.2-3.538-1.216-7.662-4.425-10.051A12.93,12.93,0,0,0,41.079,35.9a12.794,12.794,0,0,0-4.851,1.38,7.656,7.656,0,0,0,.547-1.094,13.452,13.452,0,0,1,4.246-1.046,13.717,13.717,0,0,1,9.121,2.644,12.047,12.047,0,0,1,4.328,7.5" transform="translate(73.879 71.591)" fill="#65bfd7"/>
                  <path id="Trazado_1269714" data-name="Trazado 1269714" d="M43.3,44.571l-5.8.653a.887.887,0,1,1-.2-1.763l5.8-.653a.887.887,0,1,1,.2,1.763" transform="translate(74.459 87.286)" fill="#395795"/>
                  <path id="Trazado_1269715" data-name="Trazado 1269715" d="M57.628,45.712a25.293,25.293,0,0,1-11.112,4.893,26.341,26.341,0,0,1-4.611.41A24.558,24.558,0,0,1,34.6,49.922c.073-.243.161-.48.252-.717A25.22,25.22,0,0,0,57.114,45.15c.182.182.353.371.514.562" transform="translate(70.551 92.074)" fill="#65bfd7"/>
                  <path id="Trazado_1269716" data-name="Trazado 1269716" d="M59.678,46.895a30.317,30.317,0,0,1-11.227,4.681A32.708,32.708,0,0,1,42,52.222,30.379,30.379,0,0,1,34.5,51.3c-.024-.267-.033-.532-.033-.8A31.144,31.144,0,0,0,59.41,46.15c.1.246.188.492.267.745" transform="translate(70.282 94.114)" fill="#65bfd7"/>
                  <path id="Trazado_1269717" data-name="Trazado 1269717" d="M45.178,59.185h-.033a32.355,32.355,0,0,1-5.638-.365,12.277,12.277,0,0,1-4.893-1.93l-.106-.073-.021-.125c-.018-.112-.036-.213-.046-.313s-.021-.185-.033-.283c-.03-.331-.043-.608-.043-.881a9.239,9.239,0,0,1,.413-2.708c.073-.249.167-.5.261-.739,1.626-4.088,5.966-7.148,11.051-7.8A13.869,13.869,0,0,1,57.8,47.612c.188.188.362.383.529.581a9.506,9.506,0,0,1,1.562,2.562c.106.249.2.5.28.766a8.908,8.908,0,0,1,.328,1.52v.109l-.064.158a14.421,14.421,0,0,1-1.173,1.267,13.814,13.814,0,0,1-2.571,1.842,19.974,19.974,0,0,1-5.556,2.167,26.385,26.385,0,0,1-5.96.6M35.066,56.462a11.756,11.756,0,0,0,4.55,1.76,32.177,32.177,0,0,0,5.532.356h.03A25.964,25.964,0,0,0,51,57.991a19.335,19.335,0,0,0,5.386-2.1,11.384,11.384,0,0,0,3.5-2.872,9.346,9.346,0,0,0-.295-1.319c-.079-.24-.164-.48-.261-.714a8.7,8.7,0,0,0-1.465-2.4c-.155-.185-.319-.368-.492-.544a13.3,13.3,0,0,0-11.2-3.468C41.3,45.2,37.151,48.11,35.6,51.995c-.088.228-.173.456-.246.69a8.677,8.677,0,0,0-.386,2.532q0,.383.036.766c.009.146.021.231.03.316.009.058.015.109.027.164" transform="translate(70.078 89.397)" fill="#fff"/>
                  <path id="Trazado_1269718" data-name="Trazado 1269718" d="M40.4,54.077a4.566,4.566,0,0,1-.59.091c-.4.04-.9.04-1.091-.267a14.831,14.831,0,0,1-.577-2.2,13.291,13.291,0,0,1-.933-3.337,15.1,15.1,0,0,1,1.055-7.322,1.46,1.46,0,0,1,1.781-.732,1.175,1.175,0,0,1,.845,1.544,12.931,12.931,0,0,0-.906,6.285A13.3,13.3,0,0,0,41.058,51.6c.483,1.194.787,2.137-.656,2.474m1.583.094,0,.009,0-.009" transform="translate(75.712 82.059)" fill="#395795"/>
                  <path id="Trazado_1269719" data-name="Trazado 1269719" d="M38.084,25.289c.97.3,1.878.641,2.653.966a26.821,26.821,0,0,1,8.212,5.921q4.039,3.93,7.939,8,1.983,2.074,3.942,4.167c-.021.286,1.255,1.334,1.477,1.571.59.626,1.173,1.261,1.772,1.881a2.2,2.2,0,0,1-.1,3.361,14.394,14.394,0,0,1-2.808,2.681,6.067,6.067,0,0,1-5.741-.328,32.142,32.142,0,0,1-4.756-3.65,53.748,53.748,0,0,0-4.769-3.31,33.175,33.175,0,0,0-6.945-3.711,23.42,23.42,0,0,0-2.975-1,33.149,33.149,0,0,0-4.4-.243c-1.511-.079-3.222-.258-4.136-1.462a5.112,5.112,0,0,1-.656-3.395c.115-2.465.207-4.933,1.307-7.148.805-1.632.933-4.307,3.036-4.908,2-.574,4.65-.106,6.954.6" transform="translate(54.581 49.813)" fill="#ffa87d"/>
                  <path id="Trazado_1269720" data-name="Trazado 1269720" d="M37.1,33.743a4.743,4.743,0,0,1,2.881-1.994,7.6,7.6,0,0,1,4.808.6,21.241,21.241,0,0,1,4.143,2.656,37.528,37.528,0,0,1,4.209,3.544A10.853,10.853,0,0,1,55.529,43a9.316,9.316,0,0,1,.164,4.331c-.164.909-.356,3.058-1.62,3.082a1.987,1.987,0,0,1-1.28-.69.888.888,0,0,1-.407.851c-.629.38-1.371-.237-1.763-.69a39.2,39.2,0,0,0-4.13-4.389,10.481,10.481,0,0,0-5.355-2.583,2.014,2.014,0,0,0-1.155.112,2.344,2.344,0,0,0-.878.985c-.41.693-.821,1.389-1.231,2.082a1.927,1.927,0,0,1-.623.732c-1.608.93-1.535-2.009-1.529-2.69q.023-2.649.043-5.291a9.324,9.324,0,0,1,1.337-5.1" transform="translate(72.844 64.405)" fill="#ffa87d"/>
                  <path id="Trazado_1269721" data-name="Trazado 1269721" d="M40.237,49.381a3.067,3.067,0,0,1-.565,1.252c-.693.784-1.9.17-2.82.094-.523-.049-1.046-.091-1.568-.131l-1.018-.082q-.884-.068-1.775-.14-4.13-.333-8.264-.666a2.918,2.918,0,0,1-1.283-.3,2.445,2.445,0,0,1-.875-2.155c-.125-5.142,1.255-10.16,2.787-15.054.6-1.906,1.222-3.808,1.985-5.656.854-2.079,1.009-3.468,3.823-3.225q2.827.246,5.626.754a60.924,60.924,0,0,1,6.337,1.5c.325.094.647.195.97.295.878.274,1.748.562,2.611.878s-5.413,20.64-5.969,22.64" transform="translate(44.988 47.493)" fill="#395795"/>
                  <path id="Trazado_1269722" data-name="Trazado 1269722" d="M35.407,24.334c-.377,1.824-.833,3.632-1.346,5.419-1.249,4.337-2.83,8.568-4.446,12.777q-1.258,3.269-2.52,6.534c-.34-.027-.678-.055-1.018-.079.131-.34.264-.684.4-1.024,1.626-4.212,3.3-8.407,4.781-12.671A87.31,87.31,0,0,0,34.44,24.039c.322.094.647.191.966.295" transform="translate(53.177 49.023)" fill="#65bfd7"/>
                  <path id="Trazado_1269723" data-name="Trazado 1269723" d="M34.543,27.41a.686.686,0,0,0-.611.036,8.481,8.481,0,0,0-2.015,2.48q-.944,1.482-1.772,3.036c-.161.3.7.45.845.182q.8-1.5,1.714-2.945a8.442,8.442,0,0,1,1.976-2.471c.167-.119-.015-.267-.137-.319" transform="translate(61.435 55.788)" fill="#e06f63"/>
                  <path id="Trazado_1269724" data-name="Trazado 1269724" d="M36.843,33.115a.651.651,0,0,0-.307-.088c-.143-.009-.432,0-.462.191-.1.641-.231,1.28-.386,1.912-.015.07.076.143.119.17a.653.653,0,0,0,.31.088c.152.009.413-.006.459-.191q.232-.948.386-1.912c.009-.073-.07-.14-.119-.17" transform="translate(72.775 67.346)" fill="#e06f63"/>
                  <path id="Trazado_1269725" data-name="Trazado 1269725" d="M39.4,36.36c-.088-.055-.176-.109-.261-.17-.036-.024-.07-.052-.106-.079l-.021-.015-.055-.046a4.092,4.092,0,0,1-.441-.419c-.067-.073-.131-.149-.191-.225-.03-.036-.061-.076-.088-.112l-.03-.043-.033-.052a4.316,4.316,0,0,1-.307-.526c-.085-.17-.362-.213-.532-.2-.109.009-.419.076-.331.255a4.646,4.646,0,0,0,1.748,1.9.721.721,0,0,0,.626.046c.064-.03.137-.073.143-.149a.207.207,0,0,0-.119-.17" transform="translate(75.431 70.301)" fill="#e06f63"/>
                  <path id="Trazado_1269726" data-name="Trazado 1269726" d="M44.911,42.039a15.571,15.571,0,0,0-4.453-6.762.6.6,0,0,0-.514-.109c-.1.024-.292.134-.155.255a15.3,15.3,0,0,1,4.383,6.665c.079.24.833.234.739-.049" transform="translate(81.046 71.683)" fill="#e06f63"/>
                  <path id="Trazado_1269727" data-name="Trazado 1269727" d="M41.446,34.821c-.167-.176-.906-.1-.669.146A13,13,0,0,1,44.221,42.3c.033.283.787.3.757.055a13.3,13.3,0,0,0-3.532-7.531" transform="translate(83.062 70.813)" fill="#e06f63"/>
                  <path id="Trazado_1269728" data-name="Trazado 1269728" d="M1.282,83.193a1.514,1.514,0,0,1-.216-.343,2.01,2.01,0,0,1-.073-1.2,8.635,8.635,0,0,1,.5-1.76,29.03,29.03,0,0,1,3.918-6.568c1.334-1.784,2.5-3.693,3.921-5.41,1.222-1.471,2.629-2.8,3.805-4.3,1.972-2.523,3.282-5.522,5.422-7.911a3.472,3.472,0,0,1,1.59-1.14c1.009-.277,1.711.322,2.489.951.815.656,1.793,1.173,2.547,1.893A6.572,6.572,0,0,1,27.1,59.666a24.784,24.784,0,0,1,1.082,3.905,17.276,17.276,0,0,1,.021,7.914,3.323,3.323,0,0,1-1.647,2.395,3.768,3.768,0,0,1-1.4.188,20.684,20.684,0,0,0-13.674,5.541c-.754.711-1.447,1.48-2.231,2.164A13.32,13.32,0,0,1,6.03,83.831a4,4,0,0,1-4.079-.064,2.97,2.97,0,0,1-.669-.574" transform="translate(1.912 111.122)" fill="#231c20"/>
                  <path id="Trazado_1269729" data-name="Trazado 1269729" d="M.555,84.83a1.862,1.862,0,0,1-.371-2.106,11.032,11.032,0,0,1,.687-1.03q1.039-1.55,2.082-3.106Q5.625,74.593,8.3,70.6q2.1-3.132,4.191-6.258c.143-.055.286-.106.422-.17a3.375,3.375,0,0,0,1.62-1.55,1.722,1.722,0,0,0,.2-1.039,1.041,1.041,0,0,0-.14-.38l2.216-3.31c.675-1.009,2.2-4.586,3.735-4.38a3.446,3.446,0,0,1,1.4.623,12.068,12.068,0,0,1,1.319,1.027,3.8,3.8,0,0,1,.818.939c1.21,2.152-2.6,5.389-3.708,6.762-1.656,2.061-4,3.7-5.778,5.7A52.307,52.307,0,0,0,5.652,82.629c-.4.933-.419,2.371-1.143,3.112-.736.757-2.45.289-3.368-.377a3.333,3.333,0,0,1-.587-.535" transform="translate(0.001 109.117)" fill="#395795"/>
                  <path id="Trazado_1269730" data-name="Trazado 1269730" d="M44.3,46.185c6.984,3.036,11.346,8.34,17.205,12.853C67.558,63.7,74.749,66.508,81.4,70.168A86.816,86.816,0,0,1,97.987,82.036a15.885,15.885,0,0,1,2.921,3.255c2.091,3.38,1.641,7.686,1.036,11.616a20.81,20.81,0,0,1-1.441,5.641,7.351,7.351,0,0,1-4.057,3.981,10.58,10.58,0,0,1-3.939.322,77.665,77.665,0,0,1-12.327-1.419c-4.219-.9-8.309-2.325-12.522-3.264-4.693-1.046-9.5-1.48-14.209-2.48A121.029,121.029,0,0,1,40.8,96.017c-9.191-3.033-18.154-5.772-25.457-12.458a23.393,23.393,0,0,1-3.246-3.538C9.824,76.86,8.793,73,7.809,69.238c-1.757-6.7-3.7-14.19-1.647-21.047,1.7-5.674,9.68-5.9,14.625-6.039a55.9,55.9,0,0,1,22.548,3.626c.325.131.647.267.97.407" transform="translate(10.771 85.9)" fill="#395795"/>
                  <path id="Trazado_1269731" data-name="Trazado 1269731" d="M15.036,55.8c2-.04,4-.258,5.993-.374,1.954-.112,3.909-.195,5.866-.261,3.9-.131,7.8-.243,11.7-.313,2.006-.036,4.012-.049,6.021-.018,1.769.027,3.532.067,5.3.04,2.219-.03,4.462-.094,6.686.043-3.76-3.322-7.379-6.589-12.3-8.729-.322-.14-.644-.274-.97-.4a55.913,55.913,0,0,0-22.552-3.629c-4.942.14-12.926.368-14.622,6.039A22.835,22.835,0,0,0,5.3,55.484c3.246.076,6.489.377,9.741.313" transform="translate(10.77 85.901)" fill="#231c20"/>
                  <path id="Trazado_1269732" data-name="Trazado 1269732" d="M7.462,57.249a2.889,2.889,0,0,1-.711-.082C5.9,56.954,4.8,56.234,4.42,54a20.548,20.548,0,0,1-.188-5.443A6.3,6.3,0,0,1,5.28,45.32a4.955,4.955,0,0,1,4.756-1.778l-.277,1.5a3.429,3.429,0,0,0-3.255,1.188,4.954,4.954,0,0,0-.76,2.48,18.918,18.918,0,0,0,.176,5.039c.134.784.45,1.76,1.194,1.945A3.07,3.07,0,0,0,8.3,55.626l1.836-.319.261,1.5-1.836.322a6.544,6.544,0,0,1-1.1.122" transform="translate(8.427 88.634)" fill="#395795"/>
                  <path id="Trazado_1269733" data-name="Trazado 1269733" d="M10.423,58.54c-.52-4.948-1-9.969-1.432-14.92l2.526-.219c.429,4.936.912,9.938,1.428,14.874Z" transform="translate(18.335 88.508)" fill="#395795"/>
                  <path id="Trazado_1269734" data-name="Trazado 1269734" d="M17.089,57.074c-.714-4.535-1.507-9.121-2.358-13.631l2.492-.468c.854,4.535,1.653,9.145,2.371,13.7Z" transform="translate(30.041 87.639)" fill="#395795"/>
                  <path id="Trazado_1269735" data-name="Trazado 1269735" d="M75.884,67.144c2.763,1.134,5.759,1.662,8.413,3.067,2,1.058,3.863,2,5.93,2.918,1.085.483,2.021,1.675,1.632,2.793A2.917,2.917,0,0,1,90.749,77.2a12.217,12.217,0,0,1-2.994,1.626,24.365,24.365,0,0,1-5.428,1.137,75.5,75.5,0,0,1-14.464.97c-7.209-.447-14.443-1.38-21.615-2.246C34.127,77.229,22.11,75.016,10.1,72.807a1.621,1.621,0,0,1-.824-.319,1.53,1.53,0,0,1-.371-.954,42.148,42.148,0,0,1,.243-9.683c.173-1.678-.125-5.179,1.954-5.756a6.047,6.047,0,0,1,3.018.261A57.22,57.22,0,0,0,25.4,57.7c2.039.085,4.082.134,6.115.219a131.194,131.194,0,0,1,44.374,9.221" transform="translate(17.768 114.168)" fill="#395795"/>
                  <path id="Trazado_1269736" data-name="Trazado 1269736" d="M72.169,65.78a28.341,28.341,0,0,0-10.331-3.793c-4.024-.8-8.088-1.419-12.136-2.082-4.194-.687-8.4-1.337-12.613-1.89s-8.467-1.021-12.722-1.331c-4.231-.307-8.474-.471-12.716-.426-.541.006-1.079.018-1.62.03-.152,0-.508.043-.508.258s.365.261.508.258c4.176-.1,8.355.009,12.522.274,4.191.264,8.367.69,12.534,1.21s8.3,1.14,12.434,1.805c4.057.653,8.115,1.325,12.163,2.042a33.148,33.148,0,0,1,10.44,3.2c.4.222.79.456,1.17.708a.819.819,0,0,0,.693.091c.125-.04.389-.216.182-.353" transform="translate(19.42 114.711)" fill="#231c20"/>
                  <path id="Trazado_1269737" data-name="Trazado 1269737" d="M10.229,58.121a14.21,14.21,0,0,1-2.726-4.4c-.109-.234-.857-.164-.736.1a14.524,14.524,0,0,0,2.805,4.5.573.573,0,0,0,.52.07c.122-.036.261-.143.137-.264" transform="translate(13.773 109.256)" fill="#231c20"/>
                  <path id="Trazado_1269738" data-name="Trazado 1269738" d="M36.866,50.873A53.034,53.034,0,0,0,22.7,48.126c-1.377-.115-2.754-.213-4.13-.307-.131-.009-.4-.018-.468.137s.155.231.267.237A81.535,81.535,0,0,1,32.6,50.013a36.857,36.857,0,0,1,3.878,1.194c.267.1.848-.161.383-.334" transform="translate(36.886 97.508)" fill="#231c20"/>
                  <path id="Trazado_1269739" data-name="Trazado 1269739" d="M35.967,42.17q.7-3.551,1.137-7.151c.371-3.073.608-6.215,1.787-9.075A26.978,26.978,0,0,1,41.55,21.3a11.341,11.341,0,0,1,2.972-3.334,10.428,10.428,0,0,1,4.054-1.34,3.564,3.564,0,0,0,1.486-.474c1.817-1.273-1.982-3.8-3.045-4.14a11.476,11.476,0,0,0-4.152-.328,21.371,21.371,0,0,0-5.729,1.009c-5.386,1.878-9.124,6.838-11.543,12S21.731,35.453,19.077,40.5c-3.708,7.06-9.811,13.181-10.929,21.074-.547,3.86.489,8.644,4.422,10.294a12.544,12.544,0,0,0,11.045-1.079A19.439,19.439,0,0,0,31,62.183a44.456,44.456,0,0,0,3.179-11.027c.544-3.015,1.194-5.975,1.79-8.987" transform="translate(16.34 23.732)" fill="#932409"/>
                  <path id="Trazado_1269740" data-name="Trazado 1269740" d="M72.085,28.628c-1.389-3.744-2.878-4.942-6.708-5.9q-1.112-.283-2.237-.52a63.847,63.847,0,0,0-9.574-1.286,35.24,35.24,0,0,0-22.381,6.37c-7.525,5.361-11.03,13.157-14.16,21.591-2.757,7.422-4.845,15.066-6.93,22.7Q8.181,78.6,6.266,85.621a33.477,33.477,0,0,0-1.173,5.471c-.2,2.006.106,3.541,2.188,3.839a30.184,30.184,0,0,0,7.237-.073c2.887-.295,5.741-.824,8.607-1.255A35.845,35.845,0,0,1,31,93.317q5.425.31,10.859.149c2.544-.073,7.5.6,9.376-1.453a5.93,5.93,0,0,0,1.046-1.921c1.821-4.741,2.425-9.677,4.775-14.2,1.909-3.678,4.237-7.173,5.769-11.033a6.979,6.979,0,0,0,1.331.012c.416-.134.425-.711.523-1.109a32.36,32.36,0,0,0,.623-3.273,8.709,8.709,0,0,0,.213-2.07c-.073-.581-.383-.4-.854-.5a45.647,45.647,0,0,1,.854-5.139,36.079,36.079,0,0,1,3.094-8.884c.854-1.793,2.3-3.313,3.161-5.155a13.312,13.312,0,0,0,.319-10.109" transform="translate(10.28 42.549)" fill="#395795"/>
                  <path id="Trazado_1269741" data-name="Trazado 1269741" d="M39.97,28.032a2.317,2.317,0,0,1-.1.693,6.786,6.786,0,0,1-2.5,3.453c-.158.115-.316.228-.48.334-.927.614-1.921,1.131-2.83,1.778a12.022,12.022,0,0,0-1.273,1.055c-.012.185-.024.371-.03.556a73.779,73.779,0,0,1-.833,9.075A38.972,38.972,0,0,0,31.2,49.2l-.055.234c-.365-1.933-.8-3.86-1.352-5.75a33.456,33.456,0,0,0-2.647-6.7,31.2,31.2,0,0,0-3.276-4.471,51.473,51.473,0,0,1-3.726-4.975A13.238,13.238,0,0,1,18.592,24.3c.529-.079,1.055-.146,1.587-.2,2.489-.842,4.5-2.948,6.841-4.273a2.965,2.965,0,0,1,1.213-.447c.59-.046,1.179.353,1.781.425a10.86,10.86,0,0,1,2.589.471,13.508,13.508,0,0,1,4.936,3.386c.954,1.018,2.425,2.793,2.431,4.371" transform="translate(37.915 39.513)" fill="#ffa87d"/>
                  <path id="Trazado_1269742" data-name="Trazado 1269742" d="M31.442,24.232a2.317,2.317,0,0,1-.1.693,11.435,11.435,0,0,1-2.477,3.787c-.927.614-1.921,1.131-2.83,1.778a11.723,11.723,0,0,0-1.273,1.055c-.012.185-.024.371-.033.556a10.918,10.918,0,0,1-2.2-7.045c.009-2.042,1.173-4.042,3.48-3.8A6.6,6.6,0,0,1,28.932,22.6c.392.261,2.507,1.219,2.51,1.635" transform="translate(45.935 43.313)" fill="#e06f63"/>
                  <path id="Trazado_1269743" data-name="Trazado 1269743" d="M31.647,27.47a.581.581,0,0,0-.547.158,32.608,32.608,0,0,0-5.747,11.194c-.225.781-.79,1.96-.319,2.757,1.128-1.489,1.368-3.447,2.018-5.17A32.391,32.391,0,0,1,29.9,30.664a31.878,31.878,0,0,1,2.058-2.915c.125-.158-.222-.264-.31-.28" transform="translate(50.679 55.998)" fill="#231c20"/>
                  <path id="Trazado_1269744" data-name="Trazado 1269744" d="M28.02,33.029l-1.963-.073-.982-.036a2.509,2.509,0,0,0-.866.024c-.48.158-.425.866-.489,1.277L23.41,36.2c-.1.66-.2,1.319-.307,1.979l-.137.866a3.178,3.178,0,0,0-.119.9c.094.5,1.082.386,1.438.41q1.008.059,2.015.122c.131.006.444-.046.444-.228s-.319-.219-.444-.225l-1.638-.1c-.292-.018-.587-.033-.881-.052-.137-.009-.167-.012-.088-.009.052.015.067-.012.046-.079a1.2,1.2,0,0,0,.058-.371q.255-1.637.511-3.276c.085-.535.167-1.073.252-1.608l.125-.805a1.659,1.659,0,0,0,.058-.365h.027q1.623.059,3.252.122c.131,0,.444-.046.444-.228s-.319-.219-.444-.225" transform="translate(46.57 67.08)" fill="#231c20"/>
                  <path id="Trazado_1269745" data-name="Trazado 1269745" d="M37.411,28.364q-.251,3.57-.5,7.136a20.315,20.315,0,0,1-.334,3.328,2.773,2.773,0,0,1-1.742,2.146.276.276,0,0,0-.222.195c-.125.562.732.693.693,1.24a8.307,8.307,0,0,1-.362,1.386c-.125.468-.249.939-.374,1.407q-.556,2.093-1.112,4.182a20.809,20.809,0,0,0-2.048-3.93,11.175,11.175,0,0,0-.863-1.1q-.237-.269-.492-.52a5.227,5.227,0,0,1-.52-.48c-.191-.255-.015-.492.125-.726s.3-.492.45-.736c.3-.492.6-.982.9-1.471.082-.134-.115-.225-.2-.258l-2.474-.906-1.179-.432a3.2,3.2,0,0,1-1.042-.468,1.941,1.941,0,0,1-.453-1.009c-.1-.407-.185-.815-.267-1.225-.152-.766-.283-1.535-.459-2.295a11.367,11.367,0,0,0-1.76-4.061c-.836-1.2-1.833-2.276-2.659-3.48A12.628,12.628,0,0,1,18.5,21.455c-.061-.325-.942-.28-.887,0a12.9,12.9,0,0,0,1.72,4.459c.805,1.286,1.842,2.407,2.738,3.629a11.347,11.347,0,0,1,1.963,4.231c.185.8.322,1.6.483,2.4.076.392.158.781.255,1.17a2.841,2.841,0,0,0,.389,1.033,2.042,2.042,0,0,0,.979.626c.462.173.927.34,1.392.511l2.535.93q-.433.711-.872,1.428c-.149.243-.3.486-.447.736a.906.906,0,0,0-.179.617.951.951,0,0,0,.346.483c.2.185.4.368.6.568a10.645,10.645,0,0,1,.933,1.125,24.956,24.956,0,0,1,2.681,5.367c.091.222.79.249.857,0q.743-2.786,1.483-5.571c.237-.891.532-1.781.714-2.681a.783.783,0,0,0-.274-.775c-.143-.137-.365-.261-.4-.459,2.112-.742,2.131-3.4,2.261-5.285q.264-3.816.532-7.638c.021-.3-.866-.322-.887,0" transform="translate(35.906 43.291)" fill="#231c20"/>
                  <path id="Trazado_1269746" data-name="Trazado 1269746" d="M21.776,23.868a14.754,14.754,0,0,1,2.392-5.152,16.387,16.387,0,0,1,6.945-5.428,8.111,8.111,0,0,1,5.449-.641,39.433,39.433,0,0,1,5.75,2.295c2.994,1.556,5.826,3.76,7.185,6.848a9.853,9.853,0,0,1,.106,7.692c-.951,2.137-2.924,3.6-3.842,5.708a6.024,6.024,0,0,0-.274,3.559c.419,2.149,2.483,5.109-.69,5.848A4.732,4.732,0,0,0,41.626,46.6c-1.346,1.921-2.854,5.282-5.562,5.413a5.1,5.1,0,0,1-2.656-.7,18.669,18.669,0,0,1-7.154-7.8,36.377,36.377,0,0,1-1.438-3.918c-1.413-4.133-3.462-8.194-3.437-12.558a13.82,13.82,0,0,1,.4-3.179" transform="translate(43.596 25.284)" fill="#ffa87d"/>
                  <path id="Trazado_1269747" data-name="Trazado 1269747" d="M28.87,19.6c-.416-.179-1.511-.675-1.058-.848a4.311,4.311,0,0,1,4.635,1.134c.584.656.486,1.723-.611,1.368a3.649,3.649,0,0,1-.891-.5,13.2,13.2,0,0,0-1.93-1.085c-.015-.009-.067-.03-.146-.064" transform="translate(56.498 37.714)" fill="#932409"/>
                  <path id="Trazado_1269748" data-name="Trazado 1269748" d="M30.117,20.666a.973.973,0,0,0-.723-1.249c-.811-.152-1.389,1.052-1.5,1.7a.839.839,0,0,0,.951,1.207,2.054,2.054,0,0,0,1.277-1.653" transform="translate(56.655 39.57)" fill="#231c20"/>
                  <path id="Trazado_1269749" data-name="Trazado 1269749" d="M33.793,35.315a9.637,9.637,0,0,1,2.322-1.383,21.73,21.73,0,0,0,2.325-.711,16.1,16.1,0,0,0,4.082-2.656,40.59,40.59,0,0,0,4.905-5.358c-.179.222-.064,1.422-.119,1.784a7.5,7.5,0,0,1-.538,1.918c-.45,1.024-.848,1.827.7,1.89a10.2,10.2,0,0,0,2.468-.2,1.5,1.5,0,0,0,1.316.973,4.332,4.332,0,0,0,1.7-.283,2.7,2.7,0,0,1,.553-.128,4.244,4.244,0,0,1,.52.018A3.646,3.646,0,0,0,57.743,28.1c.59-2.863-.9-6.361-2.848-8.437-1.924-2.058-4.468-3.392-6.784-4.942a19.151,19.151,0,0,0-8.16-3.07c-4.425-.562-11.02.331-14.236,3.823-1.775,1.933-2.608,4.981-3.614,7.389a38.917,38.917,0,0,0-2.8,9.394,9.444,9.444,0,0,0,.2,4.431c1.255,3.58,4.671,3.2,7.6,2.21a27.844,27.844,0,0,0,6.689-3.586" transform="translate(39.034 23.45)" fill="#932409"/>
                  <path id="Trazado_1269750" data-name="Trazado 1269750" d="M29.533,18.984a3.985,3.985,0,0,1,.419,1.863,6.183,6.183,0,0,1-1.76,4.352c-1.115,1.055-3.216,1.787-4.206.21a4.668,4.668,0,0,1-.571-2.061,7.242,7.242,0,0,1,.562-4.067,3.192,3.192,0,0,1,4.668-1.325,2.783,2.783,0,0,1,.887,1.027" transform="translate(47.629 35.492)" fill="#ffa87d"/>
                  <path id="Trazado_1269751" data-name="Trazado 1269751" d="M29.149,24.192l-2.021-1.14a.715.715,0,0,0-.629,0c-.058.033-.131.082-.131.161s.073.128.131.158q1.012.57,2.021,1.14a.7.7,0,0,0,.629,0c.061-.033.131-.082.131-.158s-.073-.128-.131-.161" transform="translate(53.772 46.861)" fill="#e06f63"/>
                  <path id="Trazado_1269752" data-name="Trazado 1269752" d="M24.6,12.346a.582.582,0,0,0-.52.07q-1.669,1.614-3.334,3.231c-.122.119.018.228.137.264a.59.59,0,0,0,.523-.07L24.74,12.61c.122-.119-.018-.228-.137-.264" transform="translate(42.219 25.117)" fill="#701807"/>
                  <path id="Trazado_1269753" data-name="Trazado 1269753" d="M21.78,12.242a29.332,29.332,0,0,0-1.094,3.088c-.049.158.14.222.264.24.109.015.422.015.468-.137a30.036,30.036,0,0,1,1.094-3.088c.115-.274-.632-.34-.732-.1" transform="translate(42.169 24.67)" fill="#701807"/>
                  <path id="Trazado_1269754" data-name="Trazado 1269754" d="M34.315,12.072a18.28,18.28,0,0,0-11.552,3.863A24.248,24.248,0,0,0,15.2,26.129,36.012,36.012,0,0,0,13.116,33.2c-.043.237.705.28.76,0a31.935,31.935,0,0,1,4.586-11.753,20.751,20.751,0,0,1,9.246-7.771,15.843,15.843,0,0,1,6.607-1.213c.112,0,.38-.04.38-.195s-.274-.191-.38-.195" transform="translate(26.744 24.597)" fill="#701807"/>
                  <path id="Trazado_1269755" data-name="Trazado 1269755" d="M16.985,16a26.416,26.416,0,0,0-3.07,12.412c0,.271.763.271.76,0a26.17,26.17,0,0,1,3.042-12.309c.134-.249-.611-.334-.732-.1" transform="translate(28.377 32.361)" fill="#701807"/>
                  <path id="Trazado_1269756" data-name="Trazado 1269756" d="M12.823,24.735c-3.34,3.392-4.191,8.291-3.933,12.877.015.274.775.264.76,0-.252-4.5.547-9.349,3.83-12.683.246-.246-.483-.371-.656-.195" transform="translate(18.041 50.275)" fill="#701807"/>
                  <path id="Trazado_1269757" data-name="Trazado 1269757" d="M23.025,30.39a4.744,4.744,0,0,1-1.966-1.848,5.742,5.742,0,0,1-.681-2.872,25.254,25.254,0,0,1,.854-6.571,26.488,26.488,0,0,1,1.207-3.547c.115-.274-.635-.34-.729-.1a26.61,26.61,0,0,0-1.839,6.632,25.1,25.1,0,0,0-.252,3.41,6.13,6.13,0,0,0,.638,3.03,5.2,5.2,0,0,0,2.231,2.143.608.608,0,0,0,.538,0c.128-.073.143-.2,0-.274" transform="translate(40.007 31.21)" fill="#701807"/>
                  <path id="Trazado_1269758" data-name="Trazado 1269758" d="M23.763,21.38c-.073-.146-.334-.152-.468-.137l-.073.009h-.076A.888.888,0,0,1,23,21.238a1.372,1.372,0,0,1-.292-.091,2.21,2.21,0,0,1-.653-.453,4.723,4.723,0,0,1-.9-1.441c-.106-.234-.857-.167-.736.1a4.669,4.669,0,0,0,1.1,1.65,2.538,2.538,0,0,0,1.979.614c.1-.015.337-.091.264-.24" transform="translate(41.615 38.971)" fill="#701807"/>
                  <path id="Trazado_1269759" data-name="Trazado 1269759" d="M33.467,18.812a5.622,5.622,0,0,0-2.413-4.279c-.213-.131-.906.046-.538.277a5.391,5.391,0,0,1,2.213,4.234,6.441,6.441,0,0,1-1,4.629c-.109.131.191.225.264.237a.494.494,0,0,0,.468-.134,6.751,6.751,0,0,0,1.009-4.963" transform="translate(62.015 29.546)" fill="#701807"/>
                  <path id="Trazado_1269760" data-name="Trazado 1269760" d="M31.578,16.05c-.085-.234-.836-.182-.732.1a3.891,3.891,0,0,1-.638,3.69c-.106.134.188.228.264.24a.5.5,0,0,0,.468-.137,4.088,4.088,0,0,0,.638-3.9" transform="translate(61.555 32.43)" fill="#701807"/>
                  <path id="Trazado_1269761" data-name="Trazado 1269761" d="M40.3,14.5a12.3,12.3,0,0,1-5.373,3.571,22.327,22.327,0,0,1-7.237,1.3,22.915,22.915,0,0,1-4.276-.343c-.125-.021-.407-.012-.468.137s.158.219.267.237a24.237,24.237,0,0,0,7.951.061,19.535,19.535,0,0,0,6.872-2.319,11.077,11.077,0,0,0,2.921-2.447c.228-.274-.5-.383-.656-.195" transform="translate(46.766 29.368)" fill="#701807"/>
                  <path id="Trazado_1269762" data-name="Trazado 1269762" d="M33.432,17.222c-.061-.149-.346-.152-.468-.137a16.5,16.5,0,0,1-5.781.073,6.6,6.6,0,0,1-2.41-1.049,8.243,8.243,0,0,1-1.842-1.933c-.152-.216-.887-.112-.736.1a8.592,8.592,0,0,0,1.963,2.058A7.392,7.392,0,0,0,26.8,17.493a18,18,0,0,0,6.367-.03c.112-.015.325-.088.264-.24" transform="translate(45.222 28.668)" fill="#701807"/>
                  <path id="Trazado_1269763" data-name="Trazado 1269763" d="M29.85,12.17a8.911,8.911,0,0,0-6.063.3c-.152.064-.122.2,0,.277a.651.651,0,0,0,.538,0,7.54,7.54,0,0,1,5.142-.24.572.572,0,0,0,.52-.07c.122-.122-.015-.228-.137-.264" transform="translate(48.299 24.013)" fill="#701807"/>
                  <path id="Trazado_1269764" data-name="Trazado 1269764" d="M25.132,28.579a8.44,8.44,0,0,0-8.331-5c-.131.009-.444.036-.444.228s.322.234.444.225A7.615,7.615,0,0,1,24.275,28.7c.119.27.994.2.857-.122" transform="translate(33.359 48.039)" fill="#231c20"/>
                  <path id="Trazado_1269765" data-name="Trazado 1269765" d="M16.574,41.095A30.63,30.63,0,0,1,24.8,37.171a12.05,12.05,0,0,1,4.267-.647,6.083,6.083,0,0,1,3.179,1.14c1.073.766,1.222,1.708,1.538,2.951,1.143,4.5,2.3,9.1,4.9,12.941a8.022,8.022,0,0,1,1.653,3.5,9.321,9.321,0,0,1-.164,3.823,6.961,6.961,0,0,1-.894,2.109,7.363,7.363,0,0,1-2.939,2.474,10.514,10.514,0,0,1-5.744.991,17.289,17.289,0,0,1-2.778-.7A6.579,6.579,0,0,1,25.17,64.75a10.745,10.745,0,0,1-1.851-2.088c-3.361-4.535-6.759-9.133-8.884-14.364a6.2,6.2,0,0,1-.514-4.4,6.1,6.1,0,0,1,2.468-2.672l.185-.128" transform="translate(27.921 74.447)" fill="#ffa87d"/>
                  <path id="Trazado_1269766" data-name="Trazado 1269766" d="M23.6,42.96a17.594,17.594,0,0,1,4.431-1.374c2.887-.508,5.231,1.273,7.392,2.912q4.468,3.392,9.16,6.477A167.93,167.93,0,0,0,64.1,62.019c2.687,1.292,6.565,2.5,6.5,6.085A4.648,4.648,0,0,1,68.365,72.3a6.5,6.5,0,0,1-3.653.246c-3.483-.438-6.978-.875-10.4-1.659A96.479,96.479,0,0,1,20.165,55.427,10.143,10.143,0,0,1,17.673,53.2C14.685,49.066,20.3,44.5,23.6,42.96" transform="translate(34.311 84.627)" fill="#ffa87d"/>
                  <path id="Trazado_1269767" data-name="Trazado 1269767" d="M16.91,75.17l.219.812a.749.749,0,0,0,.322.526.75.75,0,0,0,.526-.027L40.4,69.641a3.979,3.979,0,0,0,1.96-1.033c1.109-1.31-.772-6.711-1.042-8.322q-.866-5.165-1.729-10.328c-1.039-6.209-1.413-12.613-3.747-18.528-1.1-2.8-2.322-4.717-5.176-5.911a12.531,12.531,0,0,0-7.908-.529,16.35,16.35,0,0,0-9.632,7.68,17.353,17.353,0,0,0-2.243,8.942c.009,2.869.839,5.65.714,8.495a41.682,41.682,0,0,0,1.675,11.6c1.2,4.489,2.425,8.975,3.641,13.461" transform="translate(22.187 50.14)" fill="#395795"/>
                  <path id="Trazado_1269768" data-name="Trazado 1269768" d="M51.723,49.955q.821-.734,1.593-1.517c.365-.368.742-.912.471-1.356a1.037,1.037,0,0,0-.936-.374c-1.614.027-2.945,1.179-4.279,2.085-1.842,1.252-4.805,2.93-7.121,2.395a2.329,2.329,0,0,1-1.5-1.714c-.155-.474-.052-2.21-.374-2.45-1.507-1.121-4.7,2.371-5.556,3.191a5.907,5.907,0,0,0-1.6,2.1,5.518,5.518,0,0,0-.185,2.222c.058.942.149,1.884.27,2.82a6.237,6.237,0,0,0,.632,2.3c.924,1.635,2.951,2.146,4.538,2.854A35.141,35.141,0,0,0,44.286,64.2a39.622,39.622,0,0,0,7.948,1.073c1.225.024,2.72-1.143.894-1.787l-5.182-1.833a1.669,1.669,0,0,1-.836-.5c-.526-.714,1.386-1.14,1.821-1.237,2.9-.635,5.921-.739,8.741-1.666a2.546,2.546,0,0,0,.979-.5.977.977,0,0,0,.31-1c-.195-.55-.915-.656-1.5-.663-1.535-.018-3.064.106-4.592.237-.675.058-1.362.131-2.033.216-.729.088-1.383.435-2.091,0q4.117-1.974,8.236-3.945c.435-.207.936-.52.921-1-.018-.556-.7-.812-1.255-.848-3.434-.225-6.383,2.413-9.753,3.112,1.641-1.261,3.289-2.526,4.829-3.905" transform="translate(65.672 95.253)" fill="#ffa87d"/>
                  <path id="Trazado_1269769" data-name="Trazado 1269769" d="M37.71,38.269c-.277.112-.556.222-.833.328-.419.167-.842.328-1.264.486C31.386,40.658,27.046,41.9,22.7,43.1q-4.591,1.267-9.182,2.523l-.833.228c-.076-.316-.149-.635-.219-.951l.833-.228q1.582-.438,3.17-.872c4.349-1.194,8.717-2.346,13.029-3.687,2.434-.754,4.851-1.583,7.221-2.529.28-.109.556-.222.836-.337.049.34.1.681.158,1.018" transform="translate(25.416 75.966)" fill="#65bfd7"/>
                  <path id="Trazado_1269770" data-name="Trazado 1269770" d="M23.19,34.725c.577,3.948-1.085,7.465-3.72,7.85s-5.237-2.5-5.814-6.452,1.085-7.465,3.72-7.85,5.234,2.5,5.814,6.452" transform="translate(27.612 57.585)" fill="#65bfd7"/>
                  <path id="Trazado_1269771" data-name="Trazado 1269771" d="M23.706,44.769a15.91,15.91,0,0,0-1.392-3.021c-.1-.167-.377-.182-.547-.158-.106.015-.41.109-.31.277a15.836,15.836,0,0,1,1.392,3.024c.061.173.407.176.547.158s.371-.1.31-.28" transform="translate(43.715 84.796)" fill="#e06f63"/>
                  <path id="Trazado_1269772" data-name="Trazado 1269772" d="M33.483,48.324a.7.7,0,0,0-.626,0c-.061.033-.131.082-.131.161s.073.125.131.158l.064.04.009.006.012.009c.043.03.085.058.125.091a2.437,2.437,0,0,1,.234.2,2.545,2.545,0,0,1,.377.438,2.911,2.911,0,0,1,.462,1.1c.033.182.289.228.444.225a.646.646,0,0,0,.313-.067c.055-.027.146-.085.131-.158a3.254,3.254,0,0,0-1.544-2.2" transform="translate(66.738 98.395)" fill="#e06f63"/>
                  <path id="Trazado_1269773" data-name="Trazado 1269773" d="M16.826,60.576Q16.284,58.292,15.762,56c-.076-.316-.149-.635-.219-.951-.046-.195-.088-.386-.134-.581Q12.944,43.541,10.954,32.5c-.049-.283.83-.325.887,0q.556,3.082,1.149,6.155,1.564,8.11,3.386,16.169c.076.316.146.635.219.951q.547,2.4,1.118,4.8c.067.271-.808.325-.887,0" transform="translate(22.335 65.816)" fill="#231c20"/>
                  <path id="Trazado_1269774" data-name="Trazado 1269774" d="M23.969,63.45c.052.283-.83.325-.887,0q-.4-2.193-.757-4.392c-.055-.334-.109-.672-.158-1.009q-.2-1.226-.377-2.459Q20.777,48.6,20.227,41.561T19.6,27.456c0-.316.884-.316.887,0q.046,3.98.243,7.96.342,7.053,1.155,14.069.474,4.126,1.115,8.227c.052.34.1.678.161,1.015.249,1.577.523,3.155.808,4.723" transform="translate(39.966 55.508)" fill="#231c20"/>
                  <path id="Trazado_1269775" data-name="Trazado 1269775" d="M52.666,56.366a4.058,4.058,0,0,0-2.1-.416,15.136,15.136,0,0,0-2.286.14c-1.48.188-2.951.5-4.44.562l3.769-1.875a36.863,36.863,0,0,0,3.529-1.906c.3-.195,1.255-.653,1.295-1.033.033-.322-.477-.647-.708-.787a2.6,2.6,0,0,0-1.276-.325,7.315,7.315,0,0,0-2.632.52c-1.778.635-3.416,1.6-5.209,2.194-.231.07-.462.137-.69.2l.015-.015c2.3-1.532,4.677-3.267,6.094-5.69a.757.757,0,0,0,.094-.79,1.045,1.045,0,0,0-.7-.459,3.133,3.133,0,0,0-2.061.647l-4.656,2.5a11.777,11.777,0,0,1-2.535,1.158,5.974,5.974,0,0,1-2.723.061c-.3-.061-.587.228-.17.31a7.052,7.052,0,0,0,4.118-.4c.76-.316,1.477-.748,2.2-1.137s1.441-.772,2.164-1.158,1.441-.775,2.161-1.161A4.094,4.094,0,0,1,46.97,47a.477.477,0,0,1,.52.708,8.112,8.112,0,0,1-1.219,1.705A16.2,16.2,0,0,1,44.8,50.9a21.192,21.192,0,0,1-2.3,1.8,7.682,7.682,0,0,0-1.833,1.213c-.277.35.219.59.517.365.188-.149.477-.125.72-.216.894-.337,1.8-.6,2.672-.982.924-.4,1.827-.845,2.751-1.237a10.106,10.106,0,0,1,2.365-.732,1.875,1.875,0,0,1,2.091.723l.012.012A25.67,25.67,0,0,1,47.043,54.6l-4.121,2.052H42.9c-.094,0-.316.03-.316.167-.292.146-.584.289-.875.435-.122.061-.1.164,0,.228a.519.519,0,0,0,.45,0l1.009-.5a23.364,23.364,0,0,0,4.06-.4,13.759,13.759,0,0,1,4.334-.222,1.164,1.164,0,0,1,.875.489.639.639,0,0,1-.149.857,4.924,4.924,0,0,1-1.951.824c-1.435.371-2.915.577-4.361.887q-1.254.269-2.5.565c-.4.1-.805.2-1.207.3a4.225,4.225,0,0,0-1.125.392c-.064.04-.088.076-.085.109-.143.043-.231.134-.07.237a19.2,19.2,0,0,0,2.72,1.492c.915.407,1.863.678,2.8,1.021.295.109,1.109.426,1.076.839-.021.249-.41.389-.6.471a4.715,4.715,0,0,1-.678.24,4.855,4.855,0,0,1-2.939-.131c-.225-.082-.708.14-.319.28a5.964,5.964,0,0,0,2.571.316,5.744,5.744,0,0,0,1.261-.261,3.239,3.239,0,0,0,1.118-.541c.687-.617-.526-1.237-1.009-1.428-.866-.343-1.772-.571-2.632-.942A19.134,19.134,0,0,1,41.6,60.895a4.155,4.155,0,0,1,1.106-.368c.444-.109.884-.219,1.328-.325q1.235-.292,2.471-.553a46.978,46.978,0,0,0,4.684-1,4.014,4.014,0,0,0,1.775-.912.915.915,0,0,0-.3-1.374" transform="translate(71.504 95.146)" fill="#e06f63"/>
                  <path id="Trazado_1269776" data-name="Trazado 1269776" d="M111.146,90.886c-6.136,0-10.531-2.793-12.13-7.747a17.508,17.508,0,0,1-.705-4.711c-.392-9.8,1.775-19.585,3.872-29.05q.26-1.167.517-2.328l2.972.653c-.17.778-.343,1.553-.517,2.334C103.1,59.31,100.977,68.9,101.35,78.306a14.836,14.836,0,0,0,.562,3.9c1.669,5.176,6.951,5.747,9.957,5.623,17.68-.717,35.624-1.027,53.321-.93,8.963.049,18.041.2,26.983.462a172.945,172.945,0,0,0,17.987-.313c.881-.067,1.79-.079,2.672-.094,4.133-.058,6.726-.252,7.881-3.4.821-2.24.529-4.848.131-7.544q-.155-1.035-.307-2.079c-1.064-7.264-2.164-14.771-4.608-21.442a6.071,6.071,0,0,0-1.583-2.617,6.773,6.773,0,0,0-1.656-.954,25.045,25.045,0,0,0-6.349-1.872l.468-3.006a28.27,28.27,0,0,1,7.118,2.1,9.487,9.487,0,0,1,2.4,1.425,9.16,9.16,0,0,1,2.459,3.881c2.553,6.966,3.674,14.631,4.759,22.044.1.7.2,1.389.307,2.076.459,3.1.784,6.124-.283,9.036-1.933,5.279-6.79,5.346-10.7,5.4-.872.012-1.7.021-2.486.082a175.537,175.537,0,0,1-18.3.322c-8.92-.255-17.977-.413-26.916-.462-17.652-.1-35.548.216-53.182.927-.286.012-.568.018-.845.018" transform="translate(200.39 89.8)" fill="#231c20"/>
                  <path id="Trazado_1269777" data-name="Trazado 1269777" d="M137.41,57.023h0a1.9,1.9,0,0,1-1.9-1.9V44.979a1.9,1.9,0,1,1,3.805,0V55.121a1.9,1.9,0,0,1-1.9,1.9" transform="translate(276.338 87.845)" fill="#395795"/>
                  <path id="Trazado_1269778" data-name="Trazado 1269778" d="M101.364,57.023h0a1.9,1.9,0,0,1-1.9-1.9V44.979a1.9,1.9,0,0,1,3.805,0V55.121a1.9,1.9,0,0,1-1.9,1.9" transform="translate(202.83 87.845)" fill="#395795"/>
                  <path id="Trazado_1269779" data-name="Trazado 1269779" d="M209.217,46.456v48.96A7.22,7.22,0,0,1,202,102.635h-94.6a7.22,7.22,0,0,1-7.224-7.218V46.456a7.22,7.22,0,0,1,7.224-7.218H202a7.22,7.22,0,0,1,7.221,7.218" transform="translate(204.276 80.018)" fill="#395795"/>
                  <path id="Trazado_1269780" data-name="Trazado 1269780" d="M111.547,87.974h39.894c-7.224-18.8-6-42.729-6-42.729H117.547s1.225,23.931-6,42.729" transform="translate(227.477 92.268)" fill="#fff"/>
                  <path id="Trazado_1269781" data-name="Trazado 1269781" d="M101.021,67.829V46.8a6.718,6.718,0,0,1,6.708-6.714h94.61A6.721,6.721,0,0,1,209.05,46.8V67.829h1.015V46.8a7.733,7.733,0,0,0-7.726-7.726h-94.61A7.737,7.737,0,0,0,100,46.8V67.829Z" transform="translate(203.935 79.677)" fill="#231c20"/>
                  <path id="Trazado_1269782" data-name="Trazado 1269782" d="M193.436,45.078H109.482a7.736,7.736,0,0,0-7.726,7.729v30.7a7.739,7.739,0,0,0,4.975,7.221H196.19a7.743,7.743,0,0,0,4.975-7.221v-30.7a7.739,7.739,0,0,0-7.729-7.729m6.714,38.429a6.72,6.72,0,0,1-6.714,6.714H109.482a6.722,6.722,0,0,1-6.714-6.714v-30.7a6.722,6.722,0,0,1,6.714-6.714h83.954a6.72,6.72,0,0,1,6.714,6.714Z" transform="translate(207.51 91.927)" fill="#231c20"/>
                  <path id="Trazado_1269783" data-name="Trazado 1269783" d="M182.422,77.233h-70.77a7.735,7.735,0,0,1-7.726-7.726V58.481a7.736,7.736,0,0,1,7.726-7.729h70.77a7.736,7.736,0,0,1,7.726,7.729V69.507a7.735,7.735,0,0,1-7.726,7.726m-70.77-25.466a6.719,6.719,0,0,0-6.711,6.714V69.507a6.718,6.718,0,0,0,6.711,6.711h70.77a6.718,6.718,0,0,0,6.711-6.711V58.481a6.719,6.719,0,0,0-6.711-6.714Z" transform="translate(211.935 103.498)" fill="#231c20"/>
                  <rect id="Rectángulo_459541" data-name="Rectángulo 459541" width="2.535" height="9.382" transform="translate(376.723 137.516)" fill="#ffd540"/>
                  <rect id="Rectángulo_459542" data-name="Rectángulo 459542" width="2.535" height="9.382" transform="matrix(0.984, -0.177, 0.177, 0.984, 380.222, 137.814)" fill="#ffd540"/>
                  <rect id="Rectángulo_459543" data-name="Rectángulo 459543" width="2.535" height="9.382" transform="translate(328.541 153.998)" fill="#ffd540"/>
                  <rect id="Rectángulo_459544" data-name="Rectángulo 459544" width="2.535" height="9.382" transform="matrix(0.984, -0.177, 0.177, 0.984, 332.039, 154.297)" fill="#ffd540"/>
                  <rect id="Rectángulo_459545" data-name="Rectángulo 459545" width="2.535" height="9.382" transform="translate(350.603 119.003)" fill="#ffd540"/>
                  <rect id="Rectángulo_459546" data-name="Rectángulo 459546" width="2.535" height="9.382" transform="translate(355.169 119.003)" fill="#ffd540"/>
                  <path id="Trazado_1269784" data-name="Trazado 1269784" d="M127.432,49.614c0,1.261-2.5,2.283-5.58,2.283s-5.577-1.021-5.577-2.283,2.5-2.283,5.577-2.283,5.58,1.021,5.58,2.283" transform="translate(237.119 96.522)" fill="#395795"/>
                </g>
              </g>
            </g>
          </g>
        </g>
      </g>
    </g>
  </g>
</svg>
