<svg xmlns="http://www.w3.org/2000/svg" xmlns:xlink="http://www.w3.org/1999/xlink" width="499.765" height="317.334" viewBox="0 0 499.765 317.334">
  <defs>
    <clipPath id="clip-path">
      <rect id="Rectángulo_459633" data-name="Rectángulo 459633" width="499.765" height="292.114" fill="none"/>
    </clipPath>
  </defs>
  <g id="Grupo_1209444" data-name="Grupo 1209444" transform="translate(-914.711 -1356.09)">
    <g id="Grupo_1208498" data-name="Grupo 1208498" transform="translate(914.711 1356.09)">
      <g id="Grupo_1206741" data-name="Grupo 1206741" transform="translate(0 0)">
        <g id="Grupo_1204235" data-name="Grupo 1204235">
          <rect id="Rectángulo_402012" data-name="Rectángulo 402012" width="499.529" height="317.334" fill="#fbf1ff"/>
        </g>
      </g>
    </g>
    <g id="Grupo_1209443" data-name="Grupo 1209443" transform="translate(914.711 1381.31)">
      <g id="Grupo_1209442" data-name="Grupo 1209442" clip-path="url(#clip-path)">
        <path id="Trazado_1270188" data-name="Trazado 1270188" d="M129.393,186.6a42.935,42.935,0,1,1,42.935-42.935A42.983,42.983,0,0,1,129.393,186.6m0-85.317a42.383,42.383,0,1,0,42.383,42.383,42.431,42.431,0,0,0-42.383-42.383" transform="translate(-22.816 -26.583)" fill="#7baefa"/>
        <path id="Trazado_1270189" data-name="Trazado 1270189" d="M143.161,179.007H124.112V157.433H102.539V138.385h21.573V116.811h19.049v21.574h21.573v19.048H143.161Zm-18.5-.552h17.945V156.881h21.573V138.937H142.609V117.363H124.664v21.574H103.091v17.944h21.573Z" transform="translate(-27.06 -30.826)" fill="#7baefa"/>
        <path id="Trazado_1270190" data-name="Trazado 1270190" d="M455.907,174.661H416.9V121.884h39.011Zm-38.459-.552h37.907V122.436H417.448Z" transform="translate(-110.017 -32.165)" fill="#7baefa"/>
        <rect id="Rectángulo_459585" data-name="Rectángulo 459585" width="53.909" height="0.552" transform="translate(361.037 89.719)" fill="#7baefa"/>
        <rect id="Rectángulo_459586" data-name="Rectángulo 459586" width="53.909" height="0.552" transform="translate(332.205 73.031)" fill="#7baefa"/>
        <rect id="Rectángulo_459587" data-name="Rectángulo 459587" width="53.909" height="0.552" transform="translate(361.037 122.454)" fill="#7baefa"/>
        <rect id="Rectángulo_459588" data-name="Rectángulo 459588" width="53.909" height="0.552" transform="translate(361.037 132.199)" fill="#7baefa"/>
        <rect id="Rectángulo_459589" data-name="Rectángulo 459589" width="53.909" height="0.552" transform="translate(361.037 141.944)" fill="#7baefa"/>
        <rect id="Rectángulo_459590" data-name="Rectángulo 459590" width="35.347" height="0.552" transform="translate(379.599 102.222)" fill="#7baefa"/>
        <path id="Trazado_1270191" data-name="Trazado 1270191" d="M647.191,164.847a24.322,24.322,0,1,1-24.322-24.322,24.322,24.322,0,0,1,24.322,24.322" transform="translate(-157.954 -37.084)" fill="#7baefa"/>
        <path id="Trazado_1270192" data-name="Trazado 1270192" d="M642.862,161.994h-12.3v-12.3H620.016v12.3h-12.3V172.54h12.3v12.3h10.546v-12.3h12.3Z" transform="translate(-160.374 -39.504)" fill="#fff"/>
        <path id="Trazado_1270193" data-name="Trazado 1270193" d="M617.827,194.231a32.34,32.34,0,0,1-4.369-.591l.11-.54a31.96,31.96,0,0,0,4.294.581Zm4.409-.005-.038-.551a31.71,31.71,0,0,0,4.294-.589l.112.541a32.315,32.315,0,0,1-4.368.6m-13.03-1.769a32.357,32.357,0,0,1-4.049-1.755l.253-.49a31.991,31.991,0,0,0,3.979,1.725Zm21.644-.02-.186-.521a31.861,31.861,0,0,0,3.973-1.731l.255.49a32.556,32.556,0,0,1-4.042,1.762m-29.462-4.026a32.635,32.635,0,0,1-3.423-2.782l.377-.4a32.025,32.025,0,0,0,3.364,2.734Zm37.266-.031-.319-.451a32.152,32.152,0,0,0,3.359-2.738l.377.4a32.588,32.588,0,0,1-3.417,2.785m-43.7-5.968a32.427,32.427,0,0,1-2.551-3.6l.472-.288a31.831,31.831,0,0,0,2.506,3.534Zm50.13-.04-.428-.349a32.019,32.019,0,0,0,2.5-3.541l.472.287a32.668,32.668,0,0,1-2.546,3.6m-54.717-7.463a32.115,32.115,0,0,1-1.484-4.153l.532-.149a31.514,31.514,0,0,0,1.457,4.082Zm59.294-.055-.506-.22a31.572,31.572,0,0,0,1.451-4.087l.532.149a32.089,32.089,0,0,1-1.477,4.158m-61.678-8.414a32.789,32.789,0,0,1-.305-4.4h.552a32.276,32.276,0,0,0,.3,4.324Zm64.048-.061-.546-.075a32.148,32.148,0,0,0,.291-4.324v-.124h.552v.119a32.673,32.673,0,0,1-.3,4.4m-63.518-8.662-.548-.074a32.518,32.518,0,0,1,.884-4.32l.532.148a31.761,31.761,0,0,0-.869,4.246m62.954-.183a31.845,31.845,0,0,0-.893-4.241l.53-.15a32.211,32.211,0,0,1,.909,4.315Zm-60.641-8.153-.506-.219a32.15,32.15,0,0,1,2.024-3.92l.472.286a31.725,31.725,0,0,0-1.99,3.853m58.281-.166a31.787,31.787,0,0,0-2.008-3.837l.47-.289a32.374,32.374,0,0,1,2.044,3.9Zm-53.8-7.231-.428-.348a32.54,32.54,0,0,1,3-3.229l.378.4a32.038,32.038,0,0,0-2.953,3.174m49.275-.135a32.093,32.093,0,0,0-2.969-3.157l.375-.4a32.562,32.562,0,0,1,3.021,3.212Zm-42.969-5.783-.319-.45a32.483,32.483,0,0,1,3.758-2.3l.255.49a31.931,31.931,0,0,0-3.694,2.264m36.629-.1a31.621,31.621,0,0,0-3.71-2.244l.253-.491a32.337,32.337,0,0,1,3.774,2.284Zm-28.965-3.9-.187-.52a32.407,32.407,0,0,1,4.244-1.2l.113.54a31.632,31.632,0,0,0-4.17,1.179m21.274-.06a31.482,31.482,0,0,0-4.18-1.155l.11-.542a32.177,32.177,0,0,1,4.254,1.176Zm-12.811-1.715-.039-.551a32.888,32.888,0,0,1,4.409-.013l-.036.551a32.5,32.5,0,0,0-4.334.013" transform="translate(-155.085 -34.215)" fill="#7baefa"/>
        <path id="Trazado_1270194" data-name="Trazado 1270194" d="M299.49,84.8,277.041,40.133l-5,8.008H228.32L217.846,60.619,202.329,18.226,184.814,84.8,162.365,40.133l-5,8.008H105.6L95.123,60.619,79.607,18.226,62.091,84.8,39.643,40.133l-5,8.008H6.8V43.724H32.191l7.869-12.6L60.793,72.381,78.917,3.49l17.73,48.443,6.891-8.209h51.376l7.869-12.6,20.732,41.252L201.64,3.49,219.37,51.933l6.891-8.209H269.59l7.869-12.6L298.19,72.381,316.314,3.49l17.731,48.443,6.891-8.209h51.376l7.868-12.6,20.732,41.252L439.038,3.49l17.731,48.443,6.891-8.209h32.9v4.417H465.718L455.244,60.619,439.728,18.226,422.213,84.8l-22.45-44.669-5,8.008H343L332.521,60.619,317,18.226Z" transform="translate(-1.794 -0.921)" fill="#9fc0f8"/>
        <path id="Trazado_1270195" data-name="Trazado 1270195" d="M41.94,351.82h0a20.512,20.512,0,0,1-20.452-20.452V229.251h40.9V331.368A20.512,20.512,0,0,1,41.94,351.82" transform="translate(-5.671 -60.498)" fill="#7baefa"/>
        <path id="Trazado_1270196" data-name="Trazado 1270196" d="M43.378,353.869h0a16.489,16.489,0,0,1-16.441-16.441V255.34H59.819v82.088a16.489,16.489,0,0,1-16.441,16.441" transform="translate(-7.109 -67.383)" fill="#5672c3"/>
        <path id="Trazado_1270197" data-name="Trazado 1270197" d="M61.31,231.763h-41.9a3.916,3.916,0,1,1,0-7.831h41.9a3.916,3.916,0,1,1,0,7.831" transform="translate(-4.087 -59.095)" fill="#7baefa"/>
        <rect id="Rectángulo_459591" data-name="Rectángulo 459591" width="40.904" height="0.368" transform="translate(15.818 172.484)" fill="#3a70bf"/>
        <rect id="Rectángulo_459592" data-name="Rectángulo 459592" width="1.472" height="64.642" transform="translate(49.1 192.356)" fill="#fff"/>
        <rect id="Rectángulo_459593" data-name="Rectángulo 459593" width="1.472" height="7.145" transform="translate(49.1 177.86)" fill="#fff"/>
        <path id="Trazado_1270198" data-name="Trazado 1270198" d="M43.354,207.673a4.768,4.768,0,1,1-4.768-4.768,4.768,4.768,0,0,1,4.768,4.768" transform="translate(-8.925 -53.546)" fill="#7baefa"/>
        <path id="Trazado_1270199" data-name="Trazado 1270199" d="M66.374,197.794a3.29,3.29,0,1,1-3.29-3.29,3.29,3.29,0,0,1,3.29,3.29" transform="translate(-15.779 -51.329)" fill="#7baefa"/>
        <path id="Trazado_1270200" data-name="Trazado 1270200" d="M43.825,184.454a2.53,2.53,0,1,1-2.531-2.531,2.531,2.531,0,0,1,2.531,2.531" transform="translate(-10.23 -48.009)" fill="#7baefa"/>
        <path id="Trazado_1270201" data-name="Trazado 1270201" d="M57.21,174.921a1.789,1.789,0,1,1-1.789-1.789,1.79,1.79,0,0,1,1.789,1.789" transform="translate(-14.153 -45.689)" fill="#7baefa"/>
        <path id="Trazado_1270202" data-name="Trazado 1270202" d="M50.936,152.085a1.789,1.789,0,1,1-1.789-1.789,1.79,1.79,0,0,1,1.789,1.789" transform="translate(-12.498 -39.663)" fill="#7baefa"/>
        <path id="Trazado_1270203" data-name="Trazado 1270203" d="M52.319,191.619a1.265,1.265,0,1,1-1.265-1.265,1.266,1.266,0,0,1,1.265,1.265" transform="translate(-13.139 -50.234)" fill="#7baefa"/>
        <path id="Trazado_1270204" data-name="Trazado 1270204" d="M649.714,257.289a7.174,7.174,0,0,1-7.166-7.165c0-3.818,6.629-19.425,6.912-20.088l.254-.6.254.6c.282.662,6.911,16.269,6.911,20.087a7.174,7.174,0,0,1-7.165,7.165m0-26.433c-1.243,2.966-6.614,15.974-6.614,19.268a6.614,6.614,0,0,0,13.227,0c0-3.294-5.371-16.3-6.613-19.268" transform="translate(-169.566 -60.548)" fill="#7baefa"/>
        <path id="Trazado_1270205" data-name="Trazado 1270205" d="M56.386,243.546c5.816-3.23,9.745,0,9.429,4.093-.513,4.912-12.665,24.255-13.688,25.494-5.7,8.534-12.381,4.177-11.061-3.214-.439-4.147,7.736-22.16,15.32-26.372" transform="translate(-10.793 -63.923)" fill="#fff"/>
        <path id="Trazado_1270206" data-name="Trazado 1270206" d="M94.315,387.357s2.216,2.534,3.973,2.991,4.294.94,4.266,3.652H86.426c.108-2.537.581-4.744,1.491-5.819a9.933,9.933,0,0,0,2.484.132c.734-.285,2.958-1.7,3.914-.955" transform="translate(-22.807 -102.165)" fill="#fff"/>
        <path id="Trazado_1270207" data-name="Trazado 1270207" d="M71.076,388.329s.632,2.108,2.1,2.459c1.756.456,3.606.94,3.578,3.652H63.38c.108-2.537.478-4.846,1.389-5.921a11.406,11.406,0,0,0,2.586.233c.734-.285,2.766-1.17,3.721-.423" transform="translate(-16.726 -102.401)" fill="#fff"/>
        <path id="Trazado_1270208" data-name="Trazado 1270208" d="M90.72,250.361c-1.051-6.411,2.154-9.413,6.025-8.311,5.3,1.06,20.09,16.248,21.558,18.188,6.97,7.169,1.3,12.774-5.538,10.058-5.067-.033-20.651-11.432-22.045-19.935" transform="translate(-23.887 -63.817)" fill="#fff"/>
        <path id="Trazado_1270209" data-name="Trazado 1270209" d="M75.674,239.018c3.412,1.867,6.593,2.353,9.3,0V226.139h-9.3Z" transform="translate(-19.97 -59.677)" fill="#fca886"/>
        <path id="Trazado_1270210" data-name="Trazado 1270210" d="M74.909,240.331l-2.132.146c10.005,36.749,13.711,25.8,14.518.247l-3.084-.392c-2.409,1.6-5.614,1.359-9.3,0" transform="translate(-19.206 -63.422)" fill="#7baefa"/>
        <path id="Trazado_1270211" data-name="Trazado 1270211" d="M66.669,296.446l21.739-.515c1,1.294,5.945,22.408,5.347,36.213S89.46,364.78,89.4,364.8a22.429,22.429,0,0,1-8.946.643c-.595-11.66-.256-23.289,1.329-32.724-1.95-6.682-4.127-22.031-4.127-22.031l-6.125,54.544c-1.759.646-6.584.213-8.447-.432-5.017-62.963,3.58-68.349,3.58-68.349" transform="translate(-16.234 -78.095)" fill="#181818"/>
        <path id="Trazado_1270212" data-name="Trazado 1270212" d="M81.532,312.921l-.73-.095.481-3.708.239-.063a12.763,12.763,0,0,0,6-3.476l.54.5a13.46,13.46,0,0,1-6.114,3.622Z" transform="translate(-21.323 -80.641)" fill="#377dd1"/>
        <path id="Trazado_1270213" data-name="Trazado 1270213" d="M65.673,306.119l-.106-.729c.149-.022,3.654-.573,4.216-3.661l.724.133c-.657,3.612-4.791,4.25-4.833,4.257" transform="translate(-17.303 -79.625)" fill="#377dd1"/>
        <path id="Trazado_1270214" data-name="Trazado 1270214" d="M89.292,242.518c-2.457-2.194-8.844-2.335-8.844-2.335.541,6.224-.2,13.067-1.586,20.222a92.237,92.237,0,0,0-8.595-20.193s-6.034-.164-9.237,2.492c-6.344,5.677-1.618,18.763-1.77,36.143,0,0-3.106,13.246-2.1,41.026,1.418.761,11.326,1.085,20.224,1.05,1.212-5.711,2.063-24.074,2.063-24.074s.713,17.8.455,24.046c7.24-.1,13.575-.442,14.325-.979.3-.176-2.515-75.188-4.931-77.4" transform="translate(-15.031 -63.383)" fill="#fff"/>
        <path id="Trazado_1270215" data-name="Trazado 1270215" d="M74.712,236.611a6.027,6.027,0,0,0-2.684,2.738l4.161,3.474-1.477-3.582Z" transform="translate(-19.008 -62.441)" fill="#fff"/>
        <path id="Trazado_1270216" data-name="Trazado 1270216" d="M88.308,236.611a6.027,6.027,0,0,1,2.684,2.738L88.9,243.482a23.085,23.085,0,0,0-.592-4.241Z" transform="translate(-23.304 -62.441)" fill="#fff"/>
        <path id="Trazado_1270217" data-name="Trazado 1270217" d="M82.405,260.605a.185.185,0,0,1-.158-.091c-4.352-7.36-7.894-12.063-11.147-14.8a.182.182,0,0,1-.063-.165.184.184,0,0,1,.1-.143l2.086-.964-2.734-1.205a.183.183,0,0,1-.1-.232l1.027-2.763.345.128-.967,2.6,2.948,1.3a.183.183,0,0,1,0,.335l-2.2,1.016c3.179,2.748,6.631,7.339,10.825,14.4a59.891,59.891,0,0,0,4.883-15.8l-1.81-1.007a.183.183,0,0,1-.094-.147.185.185,0,0,1,.071-.16l1.2-.922-.543-1.62.349-.116.584,1.745a.183.183,0,0,1-.062.2l-1.081.831,1.676.933a.184.184,0,0,1,.093.187A60.584,60.584,0,0,1,82.574,260.5a.185.185,0,0,1-.158.109Z" transform="translate(-18.574 -63.399)" fill="#92bbf4"/>
        <path id="Trazado_1270218" data-name="Trazado 1270218" d="M87.318,305l-.367-.024c.992-15.089.864-24.851-.485-37.305l.366-.04c1.352,12.478,1.48,22.258.487,37.37" transform="translate(-22.818 -70.626)" fill="#92bbf4"/>
        <path id="Trazado_1270219" data-name="Trazado 1270219" d="M59.188,274.668a69.82,69.82,0,0,1-.06-11.993c.046-.855.093-1.7.132-2.554l.367.018c-.038.85-.085,1.7-.132,2.557a69.538,69.538,0,0,0,.058,11.931Z" transform="translate(-15.543 -68.645)" fill="#92bbf4"/>
        <path id="Trazado_1270220" data-name="Trazado 1270220" d="M104.037,267.991l-.367-.018c.114-2.272.179-6,.141-8.144l.368-.006c.038,2.149-.028,5.89-.142,8.169" transform="translate(-27.358 -68.566)" fill="#92bbf4"/>
        <path id="Trazado_1270221" data-name="Trazado 1270221" d="M74.278,226.812c-4.373-3.407-3.937-14.217.434-15.014l13.911,3.167s1.485,1.818-1.154,7.923Z" transform="translate(-18.792 -55.893)" fill="#181818"/>
        <path id="Trazado_1270222" data-name="Trazado 1270222" d="M74.868,226.427a7.553,7.553,0,0,0,3.312,3.4c2.97,1.224,5.031.79,5.649.482a8.548,8.548,0,0,0,3.48-3.726c.71-1.646,1.845-12.767,1.845-12.767L79.6,210.337l-2.522,1.031-1.689,2.371-.763,2.681a18.1,18.1,0,0,0-1.165,6.218,14.562,14.562,0,0,0,1.4,3.789" transform="translate(-19.381 -55.507)" fill="#fca886"/>
        <path id="Trazado_1270223" data-name="Trazado 1270223" d="M74.823,219.745c1.547-.127,2.306-3.88,2.866-6.713,1.816,1.208,10.031,2.06,11.439,1.445,1.548.216,5.246-6.634-2.508-7.591-6.319-.9-12.149,1.731-11.527,4.434l-1.209,6.8Z" transform="translate(-19.498 -54.548)" fill="#181818"/>
        <path id="Trazado_1270224" data-name="Trazado 1270224" d="M74.366,219.978l-.042-.076a2.169,2.169,0,0,0-.618-.726,1.852,1.852,0,0,0-1.851-.1c-2.456,1.263-.854,6.059,1.671,5.876,1.038-.255,1.282-4.15.84-4.977" transform="translate(-18.64 -57.761)" fill="#fca886"/>
        <path id="Trazado_1270225" data-name="Trazado 1270225" d="M82.833,237.268a7.074,7.074,0,0,1-2.077-.321,5.129,5.129,0,0,1-3.126-2.306l.327-.169a4.837,4.837,0,0,0,2.908,2.124,5.629,5.629,0,0,0,4.229-.213l.175.323a5.126,5.126,0,0,1-2.436.562" transform="translate(-20.486 -61.876)" fill="#d66947"/>
        <path id="Trazado_1270226" data-name="Trazado 1270226" d="M234.994,179.8c-.132,2.932,3.486,3.664,3.908,3.828,2.173.846,7.732.2,7.732.2,1.436-.065,1.427-1.235,1.006-1.292-.207-.01.785-.022.989-.03,1.8-.144,1.378-1.508.668-1.639,1.4.126,1.638-1.4.742-1.55,1.011-.021,1.17-1.426-.307-1.661-.807-.2-7.658-.746-7.658-.746.075-.613,2.736-.348,3.1-1.839a.259.259,0,0,0-.253-.258,15.731,15.731,0,0,0-7.069,1.648c-1.223.54-2.775,1.571-2.855,3.335" transform="translate(-62.013 -46.134)" fill="#f6a97e"/>
        <rect id="Rectángulo_459594" data-name="Rectángulo 459594" width="0.368" height="4.097" transform="translate(181.455 136.336) rotate(-85.735)" fill="#d1655f"/>
        <path id="Trazado_1270227" data-name="Trazado 1270227" d="M252.439,183.124l-5.434-.2.014-.368,5.434.2Z" transform="translate(-65.184 -48.175)" fill="#d1655f"/>
        <rect id="Rectángulo_459595" data-name="Rectángulo 459595" width="0.368" height="6.017" transform="translate(181.987 132.991) rotate(-86.55)" fill="#d1655f"/>
        <path id="Trazado_1270228" data-name="Trazado 1270228" d="M241.761,181.18l-.085-.358a2.681,2.681,0,0,0,1.98-3.137l.363-.063c.005.029.468,2.911-2.258,3.557" transform="translate(-63.777 -46.874)" fill="#d1655f"/>
        <path id="Trazado_1270229" data-name="Trazado 1270229" d="M209.8,161.114a74.757,74.757,0,0,1,18.514,4.838,11.409,11.409,0,0,1-1.968,8.145s-22.177,1.337-25.706-3.865c-3.393-4.461-6.272-26.936-6.272-26.936s8.006-4.334,8.155-4.379,5.856-.124,5.856-.124l.18,5.777a86.8,86.8,0,0,1,1.242,16.544" transform="translate(-51.292 -36.627)" fill="#fff"/>
        <path id="Trazado_1270230" data-name="Trazado 1270230" d="M211.186,172.139l-.1-.354a4.526,4.526,0,0,0,3.032-2.818l.353.1a4.811,4.811,0,0,1-3.286,3.068" transform="translate(-55.705 -44.59)" fill="#181818"/>
        <path id="Trazado_1270231" data-name="Trazado 1270231" d="M388.28,89.962c-8.755-15.3-15.858-35.792-16.177-44.777.088-9.346-1.539-18.964-6.289-26.855C358.849,6.755,344.53.044,331.374,0c-11.824-.038-27.62,1.954-32.607,18.436-.209.693-5.11,3.091-5.971,3.9-7.768,7.342-7.151,19.926-9.025,29.681-2.313,12.044-6.354,23.593-13.5,33.684-13.625,19.234-31.333,38.045-2.543,82.159,23.273,35.661,51.336,37.828,61.238,37.35,9.9.478,37.965-1.689,61.238-37.35,28.79-44.114,11.7-58.67-1.922-77.9" transform="translate(-66.57 0)" fill="#181818"/>
        <path id="Trazado_1270232" data-name="Trazado 1270232" d="M230.079,248.64c-32.2,34.173,21.336,61.546,34.8,23.386,17.384-18.33,24.672-44.949,32.626-76.12,10.621-29.931-32.637-45.586-44.866-15.531-8.768,20.834-12.123,31.272-22.558,68.265" transform="translate(-58.039 -43.329)" fill="#da9dfe"/>
        <path id="Trazado_1270233" data-name="Trazado 1270233" d="M215.889,284.213l-65.647,25.471,6.528,26,71.494-15.376c23.569-6.99,10.311-42.478-12.375-36.1" transform="translate(-39.648 -74.801)" fill="#f6a97e"/>
        <path id="Trazado_1270234" data-name="Trazado 1270234" d="M142.127,339.852s-.414,2.634-6.829,4.781c-11.309,3.668-27.714,2.716-27.714,2.716-6.785-.782-7.1-4.978-4.562-5.952-9.247,2.609-11.394-4.663-6.679-6.047-6.434,1.053-6.669-6.423-1.487-6.249l.1-.219c-4.663-.191-4.83-7.505,1.985-7.889l26.071-4.781c-1.358-.464-13.245-6.96-8.7-13.541,0,0,14.09,6.7,19.027,9.513a25.368,25.368,0,0,1,6.452,4.345c6.478,8.1,4.569,20.119,2.337,23.323" transform="translate(-24.073 -79.874)" fill="#f6a97e"/>
        <path id="Trazado_1270235" data-name="Trazado 1270235" d="M131.487,348.686c-9.956-17.419-6.785-22.816-6.646-23.037l.467.3-.233-.148.234.147c-.032.052-3.084,5.427,6.657,22.469Z" transform="translate(-32.79 -85.937)" fill="#d66947"/>
        <rect id="Rectángulo_459596" data-name="Rectángulo 459596" width="21.78" height="0.552" transform="matrix(0.982, -0.191, 0.191, 0.982, 72.219, 255.21)" fill="#d66947"/>
        <rect id="Rectángulo_459597" data-name="Rectángulo 459597" width="19.691" height="0.551" transform="matrix(0.98, -0.198, 0.198, 0.98, 76.959, 261.642)" fill="#d66947"/>
        <rect id="Rectángulo_459598" data-name="Rectángulo 459598" width="22.24" height="0.551" transform="matrix(0.982, -0.187, 0.187, 0.982, 70.418, 248.629)" fill="#d66947"/>
        <path id="Trazado_1270236" data-name="Trazado 1270236" d="M144.149,330.65c-10.9-2.233-10.819-9.513-10.817-9.586l.552.015c-.007.28-.049,6.9,10.375,9.031Z" transform="translate(-35.186 -84.727)" fill="#d66947"/>
        <path id="Trazado_1270237" data-name="Trazado 1270237" d="M159.964,349.6l-.469-.291c4.093-6.582,2.729-11.987,2.715-12.041l.533-.141c.061.229,1.438,5.69-2.78,12.473" transform="translate(-42.09 -88.965)" fill="#d66947"/>
        <path id="Trazado_1270238" data-name="Trazado 1270238" d="M154.024,319.246a8.07,8.07,0,0,0-3.049-2.079l.183-.52a8.483,8.483,0,0,1,3.287,2.241Z" transform="translate(-39.842 -83.562)" fill="#d66947"/>
        <path id="Trazado_1270239" data-name="Trazado 1270239" d="M533.374,369.066H497.339c-9.569,0-22.9-1.962-32.079-11.308-7.46-7.6-10.338-16.941-7.9-25.639a32.821,32.821,0,0,1,3.683-7.756c.664-1.125,1.349-2.29,1.943-3.459,2.016-3.973,2.584-7.276,1.786-10.39-1.457-5.685-6.348-10.415-11.418-14.68l1.9-2.253c5.445,4.581,10.712,9.714,12.375,16.2.986,3.847.346,7.8-2.013,12.453-.634,1.251-1.344,2.456-2.03,3.621a30.123,30.123,0,0,0-3.385,7.056c-2.148,7.654.463,15.957,7.162,22.78,8.462,8.618,20.973,10.427,29.979,10.427h36.035Z" transform="translate(-119.639 -77.475)" fill="#181818"/>
        <path id="Trazado_1270240" data-name="Trazado 1270240" d="M286.348,155.805a45.652,45.652,0,0,1-.543-8.18c.1-4.817,1.924-9.018,3.689-13.081a63.119,63.119,0,0,0,2.665-6.858,50.765,50.765,0,0,0,1.891-11.279l.551.037a51.255,51.255,0,0,1-1.914,11.4A63.43,63.43,0,0,1,290,134.764c-1.824,4.2-3.547,8.164-3.644,12.873a45.161,45.161,0,0,0,.536,8.08Z" transform="translate(-75.42 -30.72)" fill="#666"/>
        <path id="Trazado_1270241" data-name="Trazado 1270241" d="M471.338,237.023c39.479,25.42-5.9,64.872-28.149,31.072-21.283-13.608-34.763-37.692-49.983-66.032-17.512-26.5,20.708-52.1,39.811-25.871,13.524,18.112,19.292,27.436,38.322,60.831" transform="translate(-102.584 -43.597)" fill="#da9dfe"/>
        <path id="Trazado_1270242" data-name="Trazado 1270242" d="M496.533,270.78l69.418,11.811-1.189,26.781-73.125-.749c-24.491-2.129-18.607-39.552,4.9-37.842" transform="translate(-125.578 -71.443)" fill="#f6a97e"/>
        <rect id="Rectángulo_459599" data-name="Rectángulo 459599" width="34.705" height="49.273" transform="translate(245.266 88.598)" fill="#f6a97e"/>
        <path id="Trazado_1270243" data-name="Trazado 1270243" d="M378.816,158.037l-29.4-6.025c-5.867,4.574-11.445,6.791-16.81,6.871-.028,0-.055,0-.083,0s-.055,0-.083,0c-5.365-.08-10.942-2.3-16.809-6.871l-29.4,6.025c-19.092,5.558-26.109,20-21.53,36.232l20.888,75.838c15.335,21.515,31.981,27.308,46.938,26,14.958,1.306,31.6-4.487,46.938-26l20.888-75.838c4.579-16.228-2.439-30.674-21.53-36.232" transform="translate(-69.495 -40.115)" fill="#da9dfe"/>
        <path id="Trazado_1270244" data-name="Trazado 1270244" d="M397.535,373.762c-3.332-21.865-10.975-43.8-23.838-62.4-31.117,5.188-62.628,4.836-94.482-.368-18.489,18.093-31.259,40.573-38.47,62.767Z" transform="translate(-63.532 -82.07)" fill="#181818"/>
        <path id="Trazado_1270245" data-name="Trazado 1270245" d="M379.223,47.01c-1.019-9.516-5.3-18.09-13.354-23.494-16.316-10.939-41.376-8.419-52.249,9.023a26.947,26.947,0,0,0-3.137,7.152,35.316,35.316,0,0,0-1.152,7.318s-1.948,18.1.978,29.333a53.836,53.836,0,0,0,8.244,17.96,34.177,34.177,0,0,0,10.258,9.361,30.156,30.156,0,0,0,9.422,3.534,35.254,35.254,0,0,0,5.9.6c.047,0,.094-.007.142-.007a.441.441,0,0,0,.142-.007,33.764,33.764,0,0,0,5.9-.585,30.163,30.163,0,0,0,9.422-3.534A34.177,34.177,0,0,0,370,94.3a53.837,53.837,0,0,0,8.244-17.96c2.925-11.227.979-29.322.977-29.333" transform="translate(-81.463 -4.471)" fill="#f6a97e"/>
        <path id="Trazado_1270246" data-name="Trazado 1270246" d="M310.1,75.842S299.005,71,294.243,77.4s4.374,28.4,18.465,15.781-2.6-17.336-2.6-17.336" transform="translate(-77.314 -19.551)" fill="#f6a97e"/>
        <path id="Trazado_1270247" data-name="Trazado 1270247" d="M590.013,285.326s14.857-9.951,19.512-9.6c6.632-2.839,14.535,1.445,15.979,5.141,4.777-.531,6.9,6.485,4.072,10.172a6.791,6.791,0,0,1-1.1,8.171,6.95,6.95,0,0,1-3.692,8.375s.1,6.52-7.179,7.317-18.677-.537-25.539-5.5-7.126-19.335-2.055-24.076" transform="translate(-154.781 -72.521)" fill="#f6a97e"/>
        <path id="Trazado_1270248" data-name="Trazado 1270248" d="M629.722,298.137a4.729,4.729,0,0,1-2.872-.872c-1.39-1.042-2.049-2.953-1.957-5.682l.368-8.5.552.024-.368,8.5c-.085,2.533.5,4.289,1.733,5.218a5.2,5.2,0,0,0,4.219.537c5.181-10.9,4.009-14.183,4-14.215l.51-.21c.057.135,1.332,3.466-4.06,14.774l-.051.107-.113.037a6.818,6.818,0,0,1-1.957.286" transform="translate(-164.904 -74.665)" fill="#d66947"/>
        <path id="Trazado_1270249" data-name="Trazado 1270249" d="M603.2,304.2l-.046-.551c5.06-.426,8.666-2.057,10.719-4.846a10.87,10.87,0,0,0,1.722-8.026l-.03-.136.092-.105a8.1,8.1,0,0,1,3.766-2.718l.127.538a7.641,7.641,0,0,0-3.388,2.441,11.213,11.213,0,0,1-1.841,8.327c-2.149,2.927-5.893,4.635-11.122,5.075" transform="translate(-159.171 -75.953)" fill="#d66947"/>
        <path id="Trazado_1270250" data-name="Trazado 1270250" d="M619.078,290.975a5.565,5.565,0,0,0-2.867-2.191l.153-.53a6.033,6.033,0,0,1,3.184,2.431Z" transform="translate(-162.616 -76.069)" fill="#d66947"/>
        <path id="Trazado_1270251" data-name="Trazado 1270251" d="M642.88,296.024l-5.5-1.175.115-.54,5.5,1.175Z" transform="translate(-168.203 -77.667)" fill="#d66947"/>
        <path id="Trazado_1270252" data-name="Trazado 1270252" d="M636.807,304.506a60.556,60.556,0,0,1-14.279-3.246c-.04-.017-3.418-1.468-2.486-4.3a3.161,3.161,0,0,1,3.784-2.142l-.135.534a2.581,2.581,0,0,0-3.125,1.78c-.774,2.35,2.139,3.6,2.169,3.614a60.02,60.02,0,0,0,14.141,3.209Z" transform="translate(-163.584 -77.782)" fill="#d66947"/>
        <path id="Trazado_1270253" data-name="Trazado 1270253" d="M632.36,314.063,621.513,309.8a4.365,4.365,0,0,1-1.636-5.9c.626-1.1,1.6-1.628,2.361-1.274l-.231.5c-.487-.22-1.178.216-1.65,1.046a3.78,3.78,0,0,0,1.412,5.142l10.793,4.237Z" transform="translate(-163.437 -79.832)" fill="#d66947"/>
        <path id="Trazado_1270254" data-name="Trazado 1270254" d="M628.072,321.759c-.066,0-6.935-1.72-8.085-5.633-.128-2.046,1.131-3.926,2.251-4.16l.114.541c-.708.148-1.939,1.6-1.825,3.525,1.028,3.467,7.521,5.167,7.585,5.179Z" transform="translate(-163.609 -82.326)" fill="#d66947"/>
        <path id="Trazado_1270255" data-name="Trazado 1270255" d="M628.453,326.352a3.864,3.864,0,0,1-1.1-2.565l.552-.019a3.359,3.359,0,0,0,.907,2.161Z" transform="translate(-165.555 -85.441)" fill="#d66947"/>
        <path id="Trazado_1270256" data-name="Trazado 1270256" d="M594.183,321.262a8.965,8.965,0,0,1-5.556-5.853l.532-.147c.011.041,1.214,4.227,5.19,5.473Z" transform="translate(-155.336 -83.197)" fill="#d66947"/>
        <path id="Trazado_1270257" data-name="Trazado 1270257" d="M632.468,299.97l-.552-.026c.031-.66.221-3.984.847-4.622.705-.721,2.012-.2,2.068-.182l-.205.512c-.282-.112-1.1-.322-1.468.057-.353.359-.615,2.707-.689,4.261" transform="translate(-166.76 -77.833)" fill="#d66947"/>
        <path id="Trazado_1270258" data-name="Trazado 1270258" d="M586.138,301.006a15.672,15.672,0,0,1,1.017-6.436l.509.213a15.428,15.428,0,0,0-.975,6.186Z" transform="translate(-154.672 -77.736)" fill="#d66947"/>
        <path id="Trazado_1270259" data-name="Trazado 1270259" d="M350.657,139.544a28.58,28.58,0,0,1-17.7-6.274l.342-.434c10.381,8.161,24.191,8.209,34.363.119l.344.432a27.772,27.772,0,0,1-17.353,6.157" transform="translate(-87.867 -35.055)" fill="#d66947"/>
        <path id="Trazado_1270260" data-name="Trazado 1270260" d="M306.252,93.894c-3.767-1.974-5.61-6.526-4.908-9.376a2.961,2.961,0,0,1,3.078-2.435v.552a2.428,2.428,0,0,0-2.543,2.015c-.651,2.646,1.19,6.953,4.629,8.755Z" transform="translate(-79.485 -21.661)" fill="#d66947"/>
        <path id="Trazado_1270261" data-name="Trazado 1270261" d="M308.051,92.77c-2.081-2.133-4.885-.582-5-.515l-.274-.48c.033-.018,3.29-1.834,5.672.609Z" transform="translate(-79.901 -24.043)" fill="#d66947"/>
        <path id="Trazado_1270262" data-name="Trazado 1270262" d="M395.058,75.842s11.1-4.845,15.86,1.555-4.373,28.4-18.464,15.781,2.6-17.336,2.6-17.336" transform="translate(-102.075 -19.551)" fill="#f6a97e"/>
        <path id="Trazado_1270263" data-name="Trazado 1270263" d="M406.107,93.894l-.256-.489c3.439-1.8,5.281-6.109,4.629-8.755a2.427,2.427,0,0,0-2.543-2.015v-.552a2.962,2.962,0,0,1,3.079,2.435c.7,2.849-1.142,7.4-4.909,9.376" transform="translate(-107.102 -21.661)" fill="#d66947"/>
        <path id="Trazado_1270264" data-name="Trazado 1270264" d="M404.179,92.77l-.4-.385c2.381-2.441,5.64-.628,5.672-.609l-.273.48c-.118-.068-2.921-1.619-5,.515" transform="translate(-106.557 -24.044)" fill="#d66947"/>
        <path id="Trazado_1270265" data-name="Trazado 1270265" d="M355.622,117.071a9.261,9.261,0,0,1-4.888-1.437l.288-.471c2.966,1.8,6.118,1.8,9.63-.01l.253.491a11.531,11.531,0,0,1-5.284,1.427" transform="translate(-92.557 -30.388)" fill="#d66947"/>
        <path id="Trazado_1270266" data-name="Trazado 1270266" d="M353.848,110.622a17.316,17.316,0,0,1-9.134-2.684l.286-.472c5.706,3.467,11.757,3.464,18.5-.01l.253.491a21.606,21.606,0,0,1-9.9,2.674" transform="translate(-90.969 -28.357)" fill="#d66947"/>
        <path id="Trazado_1270267" data-name="Trazado 1270267" d="M311.787,99.784a31.892,31.892,0,0,1-1.967-12.178l.551.021A31.341,31.341,0,0,0,312.306,99.6Z" transform="translate(-81.754 -23.119)" fill="#d66947"/>
        <path id="Trazado_1270268" data-name="Trazado 1270268" d="M401.62,99.784,401.1,99.6a31.341,31.341,0,0,0,1.934-11.968l.552-.021a31.894,31.894,0,0,1-1.968,12.178" transform="translate(-105.849 -23.119)" fill="#d66947"/>
        <path id="Trazado_1270269" data-name="Trazado 1270269" d="M356.626,94.912l-.048-.549c.038,0,3.768-.353,5.462-2.529,1.377-1.768-2.978-10.541-4.774-13.773l.483-.268c.679,1.221,6.576,12,4.727,14.38s-5.687,2.725-5.85,2.738" transform="translate(-94.099 -20.53)" fill="#d66947"/>
        <path id="Trazado_1270270" data-name="Trazado 1270270" d="M320.635,72.337a13.312,13.312,0,0,1,3.9-3.1,9.765,9.765,0,0,1,1.188-.51,4.5,4.5,0,0,1,.653-.186,4.6,4.6,0,0,1,.738-.081,11.37,11.37,0,0,1,2.562.325,34.553,34.553,0,0,1,4.665,1.51,47.13,47.13,0,0,1,4.439,1.976.36.36,0,0,1-.279.661H338.5c-1.511-.52-3.036-1.021-4.552-1.508-1.522-.469-3.052-.914-4.574-1.237a10.556,10.556,0,0,0-2.214-.261,5.68,5.68,0,0,0-2,.6,30.037,30.037,0,0,0-4.029,2.342l-.017.011a.36.36,0,0,1-.472-.537" transform="translate(-84.591 -18.066)" fill="#181818"/>
        <path id="Trazado_1270271" data-name="Trazado 1270271" d="M388.92,72.866a30.561,30.561,0,0,0-4.128-2.35,5.868,5.868,0,0,0-2.056-.593,11.062,11.062,0,0,0-2.264.264c-1.554.324-3.115.768-4.668,1.237-1.548.487-3.1.988-4.648,1.508h0a.36.36,0,0,1-.275-.663,48.853,48.853,0,0,1,4.537-1.976,35.933,35.933,0,0,1,4.758-1.508,11.883,11.883,0,0,1,2.6-.326,6.324,6.324,0,0,1,2.624.766,13.663,13.663,0,0,1,4,3.109.36.36,0,0,1-.466.542Z" transform="translate(-97.82 -18.066)" fill="#181818"/>
        <path id="Trazado_1270272" data-name="Trazado 1270272" d="M334.319,81.371a4.969,4.969,0,1,1-7.17-2.7,12.7,12.7,0,0,0-6.911,2.8c3.483,7.319,9.626,9.3,18.88,5.044a28.6,28.6,0,0,0-4.8-5.148" transform="translate(-84.509 -20.761)" fill="#fff"/>
        <path id="Trazado_1270273" data-name="Trazado 1270273" d="M326.232,82.961a4.977,4.977,0,1,0,9.669-1.594,10.56,10.56,0,0,0-7.17-2.7,4.956,4.956,0,0,0-2.5,4.292" transform="translate(-86.091 -20.758)" fill="#181818"/>
        <path id="Trazado_1270274" data-name="Trazado 1270274" d="M382.607,78.666a5,5,0,1,1-7.17,2.7,28.645,28.645,0,0,0-4.8,5.148c9.253,4.256,15.4,2.275,18.88-5.044a12.693,12.693,0,0,0-6.911-2.8" transform="translate(-97.81 -20.76)" fill="#fff"/>
        <path id="Trazado_1270275" data-name="Trazado 1270275" d="M381.748,87.931a4.961,4.961,0,0,0,2.478-9.268,10.556,10.556,0,0,0-7.17,2.7,4.915,4.915,0,0,0-.285,1.594,4.977,4.977,0,0,0,4.977,4.977" transform="translate(-99.428 -20.756)" fill="#181818"/>
        <path id="Trazado_1270276" data-name="Trazado 1270276" d="M338.837,86.647c-5.572-7.93-11.625-9.594-18.5-5.087l-.3-.462c7.08-4.64,13.558-2.879,19.256,5.231Z" transform="translate(-84.455 -20.735)" fill="#181818"/>
        <path id="Trazado_1270277" data-name="Trazado 1270277" d="M370.853,86.621,370.4,86.3c5.7-8.184,12.177-9.962,19.259-5.279l-.3.461c-6.876-4.548-12.929-2.869-18.5,5.134" transform="translate(-97.747 -20.71)" fill="#181818"/>
        <path id="Trazado_1270278" data-name="Trazado 1270278" d="M307.776,55.118c9.973-2.676,7.257-13.4,14.085-21.736,7.681-5.648,16.278-5.333,24.947-3.483,0,0,9.656,36.473,38.708,14.2-7.691,0-4.434-8.648-9.464-13.206L364.791,14.936,335.337,10.07,320.011,20.349Q306.29,30.5,305.937,47.039Z" transform="translate(-80.736 -2.657)" fill="#181818"/>
        <path id="Trazado_1270279" data-name="Trazado 1270279" d="M327.569,37.158c6.676-4.071,14.589-6.152,24.947-3.483-5.1-22.782-24.947,3.483-24.947,3.483" transform="translate(-86.444 -6.434)" fill="#444"/>
        <path id="Trazado_1270280" data-name="Trazado 1270280" d="M323.016,37.774c-7.529-4.778-7.94-11.884-7.944-11.954l.552-.026c0,.068.411,6.9,7.688,11.514Z" transform="translate(-83.146 -6.807)" fill="#666"/>
        <path id="Trazado_1270281" data-name="Trazado 1270281" d="M326.955,31.2l-.5-.238a51.413,51.413,0,0,1,4.726-7.658c3.873-5.138,7.661-7.787,11.262-7.873l.012.552c-8.2.2-15.43,15.067-15.5,15.217" transform="translate(-86.151 -4.072)" fill="#666"/>
        <path id="Trazado_1270282" data-name="Trazado 1270282" d="M386.33,52.583a21.621,21.621,0,0,1-19.05-11.107l.5-.239c.082.169,8.451,16.894,30.213,8.365l.2.514a32.506,32.506,0,0,1-11.862,2.467" transform="translate(-96.924 -10.882)" fill="#666"/>
        <path id="Trazado_1270283" data-name="Trazado 1270283" d="M404.981,61.206l-.258-.489a55.462,55.462,0,0,0,5.811-3.812l.332.441a56.16,56.16,0,0,1-5.885,3.859" transform="translate(-106.805 -15.017)" fill="#666"/>
        <path id="Trazado_1270284" data-name="Trazado 1270284" d="M303.6,71.126a5.506,5.506,0,0,1-4.819-2.38l.482-.269c.071.124,1.783,3.05,6.551,1.788l.141.534a9.218,9.218,0,0,1-2.356.328" transform="translate(-78.848 -18.071)" fill="#666"/>
        <path id="Trazado_1270285" data-name="Trazado 1270285" d="M431.492,258.628l-.535-.138a382.818,382.818,0,0,0,8.965-46.595l.548.07a383.472,383.472,0,0,1-8.978,46.662" transform="translate(-113.728 -55.918)" fill="#db4d28"/>
        <path id="Trazado_1270286" data-name="Trazado 1270286" d="M285.826,277.008c-4.129-16.065-9.161-50.188-10.95-64.2l.548-.071c1.788,14,6.815,48.088,10.938,64.129Z" transform="translate(-72.539 -56.142)" fill="#db4d28"/>
        <path id="Trazado_1270287" data-name="Trazado 1270287" d="M458.05,289.062a6.377,6.377,0,0,1-4.986-.792c-6.377-4.083-11.555-11.653-16.163-17.531-9.216-13.759,11.621-45.078,35-39.27,2.905.835,15.228,14.893,12.09,17.691.713,1.575,1.36,3.19,1.919,4.816a1.419,1.419,0,0,1-.467,1.682s-1.388-.95-1.858-1.257c-17.243-1.174-33.648,18.319-25.531,34.662" transform="translate(-114.708 -60.896)" fill="#181818"/>
        <path id="Trazado_1270288" data-name="Trazado 1270288" d="M461.878,294.922c-2.84-4.675-6.14-14.127,3.669-24.908,7.461-8.2,19.538-13.109,25.338-10.291l-.241.5c-5.6-2.717-17.372,2.127-24.688,10.167-9.568,10.515-6.366,19.706-3.606,24.249Z" transform="translate(-121.12 -68.329)" fill="#666"/>
        <path id="Trazado_1270289" data-name="Trazado 1270289" d="M458.632,250.758s-11.487-9.8-9.617-11.671c6.061-6.161,18.6-11.471,26.614-7.8l5.65,6.741Z" transform="translate(-118.439 -60.718)" fill="#181818"/>
        <path id="Trazado_1270290" data-name="Trazado 1270290" d="M461.672,260.781c-3.544,0-11.555-14.037-12.467-15.657l.481-.27c2.431,4.317,9.257,15.376,11.963,15.376a.832.832,0,0,0,.1-.005c1.167-.122,3.11-1.276,5.361-2.614,5.275-3.134,13.243-7.87,20.812-4.991l-.2.516c-7.316-2.786-14.841,1.686-20.333,4.95-2.4,1.427-4.3,2.554-5.586,2.688a1.308,1.308,0,0,1-.133.007" transform="translate(-118.543 -64.616)" fill="#666"/>
        <path id="Trazado_1270291" data-name="Trazado 1270291" d="M473.516,305.492c-2.434-1.841-5.658-8.923-5.122-16.913.372-5.555,2.73-13.258,11.851-18.406l.272.48c-8.908,5.028-11.21,12.544-11.573,17.963-.5,7.5,2.518,14.63,4.9,16.436Z" transform="translate(-123.592 -71.298)" fill="#db4d28"/>
        <path id="Trazado_1270292" data-name="Trazado 1270292" d="M271.837,301.277l-.521-.181c.986-2.827-.45-10.432-5.026-16.4-3.307-4.31-9.391-9.29-19.588-8.539l-.04-.551c10.445-.777,16.678,4.336,20.067,8.754,4.873,6.353,6.114,14.035,5.109,16.916" transform="translate(-65.093 -72.711)" fill="#db4d28"/>
        <path id="Trazado_1270293" data-name="Trazado 1270293" d="M331.743,140.121s-3.8-.944-4.05,10.377c.339,7.171,12.219,7.893,22.188,7.9s17.833-4.3,19.035-6.1.8-12.18-2.468-12.874c-4.06,8.191-29.238,8.191-34.705.693" transform="translate(-86.477 -36.794)" fill="#da9dfe"/>
        <path id="Trazado_1270294" data-name="Trazado 1270294" d="M317.28,251.159c-13.646,0-22.11-10.243-22.229-10.39l.43-.347c.166.207,16.878,20.4,41.237,3.318l.316.451c-7.343,5.151-14.009,6.967-19.754,6.967" transform="translate(-77.863 -63.446)" fill="#db4d28"/>
        <path id="Trazado_1270295" data-name="Trazado 1270295" d="M389.754,251.159c-5.745,0-12.408-1.816-19.754-6.967l.316-.451c24.372,17.088,41.071-3.112,41.237-3.318l.43.347c-.118.147-8.584,10.39-22.229,10.39" transform="translate(-97.642 -63.446)" fill="#db4d28"/>
        <path id="Trazado_1270296" data-name="Trazado 1270296" d="M349.132,163.47c-9.346,0-19.427-2.591-21.649-7.817l.508-.216c2.248,5.287,13.1,7.752,22.663,7.457,11.683-.361,17.117-4.082,18.305-7.442l.52.184c-1.906,5.388-10.966,7.567-18.808,7.81q-.766.023-1.54.024" transform="translate(-86.421 -41.019)" fill="#db4d28"/>
        <path id="Trazado_1270297" data-name="Trazado 1270297" d="M492.761,367.708l67.1-13.661a11.032,11.032,0,0,1,2.227-.222l25.5.051-24.107,5.661a1.571,1.571,0,0,1-1.226,1.852l-.993.2v20.467a2.637,2.637,0,0,1-2.637,2.637H497.339a2.449,2.449,0,0,1-2.449-2.449V378.2h0v-3.137l-.611.124a1.57,1.57,0,0,1-1.851-1.227l-.894-4.4a1.571,1.571,0,0,1,1.227-1.852" transform="translate(-129.705 -93.373)" fill="#fff"/>
        <path id="Trazado_1270298" data-name="Trazado 1270298" d="M531.951,376.541l66.37-13.653v21.561a2.637,2.637,0,0,1-2.637,2.637H534.4a2.449,2.449,0,0,1-2.449-2.449v-4.043h0v-4.052Z" transform="translate(-140.38 -95.765)" fill="#7baefa"/>
        <path id="Trazado_1270299" data-name="Trazado 1270299" d="M530.125,375.207l67.974-13.8a1.571,1.571,0,0,0,1.227-1.852l-.894-4.4a1.572,1.572,0,0,0-1.852-1.227l-67.974,13.8a1.572,1.572,0,0,0-1.227,1.852l.894,4.4a1.572,1.572,0,0,0,1.852,1.227" transform="translate(-139.165 -93.391)" fill="#7baefa"/>
        <rect id="Rectángulo_459600" data-name="Rectángulo 459600" width="26.386" height="0.368" transform="translate(365.186 281.508)" fill="#92bbf4"/>
        <path id="Trazado_1270300" data-name="Trazado 1270300" d="M531.975,377.964l-.074-.361,66.37-13.474.074.361Z" transform="translate(-140.367 -96.092)" fill="#3a70bf"/>
        <rect id="Rectángulo_459601" data-name="Rectángulo 459601" width="26.388" height="0.368" transform="translate(362.098 274.77)" fill="#92bbf4"/>
        <path id="Trazado_1270301" data-name="Trazado 1270301" d="M610.757,389.828H600.471a1.854,1.854,0,1,1,0-3.707h10.286a1.854,1.854,0,0,1,0,3.707m-10.286-3.339a1.485,1.485,0,0,0,0,2.971h10.286a1.485,1.485,0,0,0,0-2.971Z" transform="translate(-157.973 -101.896)" fill="#3a70bf"/>
        <rect id="Rectángulo_459602" data-name="Rectángulo 459602" width="4.508" height="0.368" transform="translate(368.462 284.225)" fill="#92bbf4"/>
        <path id="Trazado_1270302" data-name="Trazado 1270302" d="M442.1,155.244l-.529-.155c2.569-8.761-1.518-15.717-6.251-23.77-3.271-5.566-6.977-11.876-8.939-19.685l.534-.135c1.943,7.732,5.628,14.005,8.881,19.54,4.8,8.164,8.941,15.215,6.3,24.205" transform="translate(-112.52 -29.424)" fill="#666"/>
        <path id="Trazado_1270303" data-name="Trazado 1270303" d="M451.009,255.886c2.2,1.852,4.929-.523,5.308-.753,1.954-1.184,4.771-5.89,4.771-5.89.806-1.156-.108-1.847-.4-1.553-.131.155.452-.623.567-.788.96-1.481-.35-1.97-.876-1.5.933-1.014-.11-2.108-.761-1.5.587-.8-.41-1.76-1.474-.752-.637.508-5.15,5.508-5.15,5.508-.432-.424,1.363-2.335.419-3.5a.254.254,0,0,0-.351.043,15.413,15.413,0,0,0-2.938,6.479c-.31,1.273-.435,3.095.889,4.209" transform="translate(-118.731 -64.053)" fill="#f6a97e"/>
        <path id="Trazado_1270304" data-name="Trazado 1270304" d="M461,252.664l-.275-.246,2.675-2.995.275.246Z" transform="translate(-121.583 -65.822)" fill="#d66947"/>
        <rect id="Rectángulo_459603" data-name="Rectángulo 459603" width="5.329" height="0.368" transform="matrix(0.637, -0.771, 0.771, 0.637, 338.116, 185.377)" fill="#d66947"/>
        <rect id="Rectángulo_459604" data-name="Rectángulo 459604" width="5.897" height="0.368" transform="translate(336.851 184.189) rotate(-48.978)" fill="#d66947"/>
        <path id="Trazado_1270305" data-name="Trazado 1270305" d="M397.574,239.253a6.11,6.11,0,0,1-2.965,5.665v0a56.761,56.761,0,0,1-16.841,7.041c3.347,3.137,7.02,6.7,6.8,8-1.347,2.868-1.681,12.395-3.858,12.956-1.134.572-18.4-9.365-16.3-16.5,5.009-16.63,21.371-22.687,21.371-22.687l1.125.036c.9-.656,2.946-.113,4.138-.2a6.114,6.114,0,0,1,6.521,5.679" transform="translate(-96.122 -61.604)" fill="#fff"/>
        <path id="Trazado_1270306" data-name="Trazado 1270306" d="M411.863,384.623s-.816,3.306,1.455,3.795c2.714.635,6.245,2.5,5.726,4.705H403.766c.167-3.53.74-6.741,2.146-8.236,1.567.16,4.475-1.3,5.951-.264" transform="translate(-106.552 -101.401)" fill="#fff"/>
        <path id="Trazado_1270307" data-name="Trazado 1270307" d="M381.614,384.623a2.949,2.949,0,0,0,1.65,4.062c2.044.616,4.757,2.184,3.569,4.438H373.517c.166-3.53.739-6.741,2.145-8.236,1.567.16,4.476-1.3,5.952-.264" transform="translate(-98.57 -101.401)" fill="#fff"/>
        <rect id="Rectángulo_459605" data-name="Rectángulo 459605" width="22.641" height="9.454" transform="translate(292.622 182.201) rotate(-69.704)" fill="#f6a97e"/>
        <path id="Trazado_1270308" data-name="Trazado 1270308" d="M396.518,286.785h-23.4c-6.481,18.263-.961,75.914-.961,75.914,2.9.975,6.052,1.058,10.665,0,0,0,1.464-36.881,2.851-57.571a216.113,216.113,0,0,0,6.046,24.575,196.211,196.211,0,0,0,2.968,33,16.944,16.944,0,0,0,10.053,0c.027-11.062,1.851-23.287,1.207-34.654-1.158-20.453-6.545-37.632-9.434-41.26" transform="translate(-97.633 -75.681)" fill="#77aaf4"/>
        <path id="Trazado_1270309" data-name="Trazado 1270309" d="M413.969,228.287h0a6.215,6.215,0,0,1-3.663-7.962l1.7-4.59a6.215,6.215,0,0,1,7.962-3.663c3.2,1.182,7.385-2.1,6.2,1.092l-2.054,5.557c.034,1.644.307,2.763-.216,3.234s-1.4,1.128-1.4,1.128c-2,5.325-5.334,6.385-8.531,5.2" transform="translate(-108.177 -55.864)" fill="#f6a97e"/>
        <path id="Trazado_1270310" data-name="Trazado 1270310" d="M410.653,206.488c3.089-2.984,8.614-2.213,11.6-.465,3.157-.537,4.918,1.1,4.886,3.222-.485,3.664-3.55,3.875-6.7,3.382-1.126,3.619-1.868,5.708-3.357,5.784a4.043,4.043,0,0,0,.858-2.13,1.454,1.454,0,0,0-2.286-1.378c-.92.6-1.776,2.907-.913,4.838-3.764,2.171-5.931,1.563-9.164.367-.046-6.173-.732-13.677,5.076-13.62" transform="translate(-107.018 -53.961)" fill="#181818"/>
        <path id="Trazado_1270311" data-name="Trazado 1270311" d="M362.3,322.317s-.434-22.728,8.636-51.646a107.146,107.146,0,0,1,8.664-31.2c3.409-6.786,7.672-6.864,12.344-5.136l9.011,3.332c7.6,3.049,11.583,7.878,9.323,13.99-2.076,10.229-4.891,18.821-10.223,27.288,4.01,20.988,6.236,47.614,5.609,48.515-5.747,1.363-17.1,1.448-24.91.9-.246,0-1.3-19.836-1.3-19.836a138.63,138.63,0,0,0-1.152,19.736c-9.562-.144-16-3.809-16-5.952" transform="translate(-95.608 -61.592)" fill="#fff"/>
        <path id="Trazado_1270312" data-name="Trazado 1270312" d="M453.127,261.394l1.3-1.66c-.534-1.731-3.629-4.011-6.06-4.164l-2.149,2.545Z" transform="translate(-117.756 -67.444)" fill="#fff"/>
        <path id="Trazado_1270313" data-name="Trazado 1270313" d="M415.775,243.248a6.111,6.111,0,0,1,5.96,2.316l0,0a56.779,56.779,0,0,1,8.872,15.953c2.745-3.675,5.878-7.722,7.19-7.651,3,1.02,5.168,2.152,5.969,4.253.695,1.064-8.874,18.956-16.2,17.661-7.167-1.371-16.319-20.823-16.319-20.823l.257-.5c-.752-.82-.44-2.915-.655-4.091a6.115,6.115,0,0,1,4.919-7.112" transform="translate(-108.397 -64.166)" fill="#fff"/>
        <rect id="Rectángulo_459606" data-name="Rectángulo 459606" width="3.806" height="0.369" transform="translate(321.835 201.14) rotate(-87.138)" fill="#92bbf4"/>
        <path id="Trazado_1270314" data-name="Trazado 1270314" d="M402.887,230.969a5.411,5.411,0,0,0-1.96,2.337c2.086,3.093,5.968,4.265,11.665,4.391a8.621,8.621,0,0,0-.78-3.457c-2.611-.362-6.483-1.421-8.925-3.271" transform="translate(-105.803 -60.952)" fill="#fff"/>
        <path id="Trazado_1270315" data-name="Trazado 1270315" d="M420.243,274.813a98.823,98.823,0,0,1-5.43-8.62l.325-.172a98.444,98.444,0,0,0,5.405,8.58Z" transform="translate(-109.467 -70.202)" fill="#92bbf4"/>
        <path id="Trazado_1270316" data-name="Trazado 1270316" d="M410.529,249.956l-.364-.059c.438-2.682,1.534-4.573,3.259-5.622a8.072,8.072,0,0,1,6.135-.571l-.115.349a7.855,7.855,0,0,0-5.832.539c-1.627.991-2.665,2.8-3.084,5.365" transform="translate(-108.241 -64.216)" fill="#92bbf4"/>
        <path id="Trazado_1270317" data-name="Trazado 1270317" d="M408.791,242.168c-2.484-.015-13.685-4.585-17.624-7.19l.2-.307c4.1,2.71,15.231,7.116,17.424,7.129Z" transform="translate(-103.227 -61.929)" fill="#92bbf4"/>
        <path id="Trazado_1270318" data-name="Trazado 1270318" d="M411.887,238.734a20.218,20.218,0,0,1-5.69-1.153c-1.388-.469-4.7-1.736-5.5-3.386l.332-.16c.508,1.058,2.483,2.253,5.282,3.2a16.63,16.63,0,0,0,6.187,1.092l.06.364a4.24,4.24,0,0,1-.676.047" transform="translate(-105.743 -61.761)" fill="#92bbf4"/>
        <path id="Trazado_1270319" data-name="Trazado 1270319" d="M422.677,219s-1.922,5.4,1.787,6.012c0,0,.367,7.109-5.776,6.108-3.471-.535.96-3.931,1.518-8.88Z" transform="translate(-110.143 -57.793)" fill="#181818"/>
        <path id="Trazado_1270320" data-name="Trazado 1270320" d="M453.252,261.956c-1.469-3.3-5.879-4.17-5.923-4.178l.068-.362c.188.036,4.643.912,6.19,4.391Z" transform="translate(-118.048 -67.931)" fill="#92bbf4"/>
        <path id="Trazado_1270321" data-name="Trazado 1270321" d="M374.7,268.625l-.359-.082c.39-1.71.757-3.444,1.144-5.281,1.9-8.986,4.048-19.171,9.462-26.506l.3.219c-5.366,7.271-7.508,17.413-9.4,26.363-.389,1.838-.755,3.574-1.145,5.287" transform="translate(-98.786 -62.479)" fill="#92bbf4"/>
        <path id="Trazado_1270322" data-name="Trazado 1270322" d="M409.568,296.661l-.074-.361a6.159,6.159,0,0,0,2.886-1.2l.258.262a6.33,6.33,0,0,1-3.071,1.3" transform="translate(-108.064 -77.876)" fill="#92bbf4"/>
        <path id="Trazado_1270323" data-name="Trazado 1270323" d="M394.027,294.446h-.006a30.587,30.587,0,0,1-14.512-3.781.184.184,0,0,1-.087-.2l.6-3a.184.184,0,0,1,.1-.129.188.188,0,0,1,.163,0,36.142,36.142,0,0,0,14.553,3.738.184.184,0,0,1,.169.232l-.8,3a.184.184,0,0,1-.178.136m-14.219-4.033a30.231,30.231,0,0,0,14.079,3.66l.705-2.642a36.5,36.5,0,0,1-14.255-3.661Z" transform="translate(-100.127 -75.822)" fill="#92bbf4"/>
        <path id="Trazado_1270324" data-name="Trazado 1270324" d="M382.636,290.4a.685.685,0,1,1-.685-.685.684.684,0,0,1,.685.685" transform="translate(-100.615 -76.455)" fill="#aed3ff"/>
        <path id="Trazado_1270325" data-name="Trazado 1270325" d="M398.015,294.246a.685.685,0,1,1-.685-.685.684.684,0,0,1,.685.685" transform="translate(-104.673 -77.47)" fill="#aed3ff"/>
        <rect id="Rectángulo_459607" data-name="Rectángulo 459607" width="0.552" height="102.657" transform="translate(167.744 189.059)" fill="#181818"/>
        <rect id="Rectángulo_459608" data-name="Rectángulo 459608" width="0.552" height="102.657" transform="translate(132.986 189.059)" fill="#181818"/>
        <rect id="Rectángulo_459609" data-name="Rectángulo 459609" width="41.008" height="2.042" transform="translate(126.247 205.391)" fill="#181818"/>
        <rect id="Rectángulo_459610" data-name="Rectángulo 459610" width="41.008" height="2.042" transform="translate(129.373 189.038)" fill="#181818"/>
        <rect id="Rectángulo_459611" data-name="Rectángulo 459611" width="41.008" height="2.042" transform="translate(119.997 238.096)" fill="#181818"/>
        <rect id="Rectángulo_459612" data-name="Rectángulo 459612" width="41.008" height="2.042" transform="translate(123.122 221.743)" fill="#181818"/>
        <rect id="Rectángulo_459613" data-name="Rectángulo 459613" width="41.008" height="2.042" transform="translate(113.747 270.801)" fill="#181818"/>
        <rect id="Rectángulo_459614" data-name="Rectángulo 459614" width="41.008" height="2.042" transform="translate(116.873 254.448)" fill="#181818"/>
        <rect id="Rectángulo_459615" data-name="Rectángulo 459615" width="104.641" height="0.736" transform="translate(112.661 291.653) rotate(-78.87)" fill="#181818"/>
        <rect id="Rectángulo_459616" data-name="Rectángulo 459616" width="104.641" height="0.736" transform="matrix(0.193, -0.981, 0.981, 0.193, 147.429, 291.655)" fill="#181818"/>
        <path id="Trazado_1270326" data-name="Trazado 1270326" d="M262.173,101.5H259.35a.51.51,0,0,1-.51-.51v-3.78a.511.511,0,0,1,.51-.51h2.823a.51.51,0,0,1,.51.51v3.78a.51.51,0,0,1-.51.51" transform="translate(-68.307 -25.52)" fill="#181818"/>
        <path id="Trazado_1270327" data-name="Trazado 1270327" d="M263.734,94.894h-7.489a.519.519,0,0,1-.519-.519V88.01a.478.478,0,0,1,.478-.478h7.53Z" transform="translate(-67.485 -23.099)" fill="#181818"/>
        <path id="Trazado_1270328" data-name="Trazado 1270328" d="M266.605,94.894s1.409-1.03,1.409-1.039V88.571l-1.409-1.039Z" transform="translate(-70.356 -23.099)" fill="#77aaf4"/>
        <path id="Trazado_1270329" data-name="Trazado 1270329" d="M268.519,94.227a23.038,23.038,0,0,1,8.4-2.451v-.381a22.539,22.539,0,0,1-8.4-2.45Z" transform="translate(-70.861 -23.472)" fill="#181818"/>
        <path id="Trazado_1270330" data-name="Trazado 1270330" d="M261.785,124.692h-2.329a1.122,1.122,0,0,1-1.122-1.122v-22.4a.368.368,0,0,1,.369-.369h3.844a.375.375,0,0,1,.375.375v22.375a1.136,1.136,0,0,1-1.137,1.137" transform="translate(-68.173 -26.602)" fill="#181818"/>
        <path id="Trazado_1270331" data-name="Trazado 1270331" d="M255.683,95.2h0a.352.352,0,0,1-.351-.351V87.227a.351.351,0,0,1,.7,0v7.625a.353.353,0,0,1-.351.351" transform="translate(-67.381 -22.926)" fill="#fff"/>
        <rect id="Rectángulo_459617" data-name="Rectángulo 459617" width="4.587" height="4.472" transform="translate(190.161 77.671)" fill="#77aaf4"/>
        <rect id="Rectángulo_459618" data-name="Rectángulo 459618" width="3.843" height="0.368" transform="translate(190.532 71.61)" fill="#666"/>
        <rect id="Rectángulo_459619" data-name="Rectángulo 459619" width="3.843" height="0.368" transform="translate(190.532 74.019)" fill="#666"/>
        <path id="Trazado_1270332" data-name="Trazado 1270332" d="M262.277,112.87c.141-.27-.192-2.048-.691-1.5,0,0-3.026,3.817-4.18,4.183-.629.212-.488-1.813-.488-1.813a2.186,2.186,0,0,0-1.089.375c-2.28,1.446-2.8,4.854-2.8,4.854-.375,1.608.925,4.509,2.817,4.068a30.029,30.029,0,0,0,5.067-1.786c1.268-.774,2.2-3.7,2.2-3.7.241-.565.076-1.932-.177-1.508.4-.64-.011-1.52-.437-1.489a1.41,1.41,0,0,0-.216-1.69" transform="translate(-66.756 -29.363)" fill="#fca886"/>
        <path id="Trazado_1270333" data-name="Trazado 1270333" d="M261.583,117.041l-.244-.276a17.574,17.574,0,0,0,2.994-3.459l.307.2a17.949,17.949,0,0,1-3.058,3.532" transform="translate(-68.966 -29.901)" fill="#d66947"/>
        <path id="Trazado_1270334" data-name="Trazado 1270334" d="M263.785,120.859l-.269-.252a14.108,14.108,0,0,0,2.107-3.058l.325.173a14.443,14.443,0,0,1-2.163,3.137" transform="translate(-69.541 -31.021)" fill="#d66947"/>
        <path id="Trazado_1270335" data-name="Trazado 1270335" d="M262.7,118.857l-.252-.268a13.093,13.093,0,0,0,2.421-3.029l.319.183a13.427,13.427,0,0,1-2.487,3.114" transform="translate(-69.259 -30.496)" fill="#d66947"/>
        <path id="Trazado_1270336" data-name="Trazado 1270336" d="M257.175,117.542a1.186,1.186,0,0,1-.712-.2l.224-.291c.021.015.5.353,1.488-.175l.174.324a2.494,2.494,0,0,1-1.174.337" transform="translate(-67.68 -30.844)" fill="#d66947"/>
        <path id="Trazado_1270337" data-name="Trazado 1270337" d="M170.64,292.709s10.8,3.857,7.812,6.19H162.43c-1.2.105-.466-2.977.344-6.19Z" transform="translate(-42.698 -77.245)" fill="#fff"/>
        <path id="Trazado_1270338" data-name="Trazado 1270338" d="M210.119,270.735s11.707,3.051,8.986,6.1h-17.2c-1.2.1-.466-2.933.344-6.1Z" transform="translate(-53.117 -71.446)" fill="#fff"/>
        <path id="Trazado_1270339" data-name="Trazado 1270339" d="M197.478,112.506s-2.989-3.939-2.989-6.094c0-2.905,8.693-8.035,11.319-7.366s4.368,6.609,4.368,6.609Z" transform="translate(-51.325 -26.122)" fill="#fff"/>
        <path id="Trazado_1270340" data-name="Trazado 1270340" d="M198.135,189.239A279.08,279.08,0,0,1,223,214.747a8.358,8.358,0,0,1,0,10.64l-17.663,23.842c-5.061,1.027-8.37,1.114-9.435,0,0,0,2.88-15.7,12.068-29.111-8.961-3.9-24.936-17.452-27.829-27.5Z" transform="translate(-47.538 -49.939)" fill="#77aaf4"/>
        <path id="Trazado_1270341" data-name="Trazado 1270341" d="M169.312,191.124s-1.79,4.537.593,11.492c-3.842,18.657-6.226,39.445-7.791,61.431a12.813,12.813,0,0,0,8.593-.8c13.44-35.149,17.762-56.093,20.237-76.876l-2.481-5.3-7.98,2.882Z" transform="translate(-42.781 -47.785)" fill="#77aaf4"/>
        <path id="Trazado_1270342" data-name="Trazado 1270342" d="M216.051,106.247a19.006,19.006,0,0,1,2.112.746,9.061,9.061,0,0,1,.6,6.854c-1.056,3.945-3.634-5.529-3.634-5.529Z" transform="translate(-56.772 -28.038)" fill="#181818"/>
        <path id="Trazado_1270343" data-name="Trazado 1270343" d="M213.479,108.244s6.869,14.325,2.107,17.265a5.307,5.307,0,0,1-3.018.792l-2.283,6.823-8.65-3.841s1.408-3.976,1.325-5.632a19.391,19.391,0,0,1-1.781-8.987l2.982-5.467,5.343-.953,3.106.331Z" transform="translate(-53.082 -28.565)" fill="#fca886"/>
        <path id="Trazado_1270344" data-name="Trazado 1270344" d="M196.682,111.5a7.124,7.124,0,0,1,1.012-4.593,8.246,8.246,0,0,1,3.268-2.652,16.716,16.716,0,0,1,4.509-1.3c.97-.156,1.948-.258,2.927-.335a11.931,11.931,0,0,0,3.237-.476,4.321,4.321,0,0,0,1.664-1.047c.582,1.809,1.2,5.51-1.072,6.908-3.9,2.374-9.583,3.192-9.583,3.192,1.086,2.5,2.207,5.045,1.45,5.549a1.64,1.64,0,0,0-1.771-1.21c-2.533.422-2.2,3.762,1.16,4.586a2.668,2.668,0,0,1-1.954,1.773c-5.625-3.916-6.992-7.892-4.848-10.4" transform="translate(-51.65 -26.681)" fill="#181818"/>
        <path id="Trazado_1270345" data-name="Trazado 1270345" d="M196.746,214.46l-.358-.086,1.24-5.12.359.086Z" transform="translate(-51.826 -55.221)" fill="#3a70bf"/>
        <path id="Trazado_1270346" data-name="Trazado 1270346" d="M215.141,132.021a5.916,5.916,0,0,1-4.188-2.6l.309-.2a5.648,5.648,0,0,0,3.909,2.43Z" transform="translate(-55.67 -34.102)" fill="#d66947"/>
        <path id="Trazado_1270347" data-name="Trazado 1270347" d="M193.213,133.013c-7.184,2.464-20.269,10.844-26.88,51.256,9.751,2.571,25.546,3.006,25.546,3.006,1.537-3.841,3.156-12.322,3.156-12.322l4.116,3.8c4.638-16.273,5.4-27.04,3.252-40.642-5.667-.388-9.048-5.191-9.189-5.1" transform="translate(-43.895 -35.101)" fill="#fff"/>
        <path id="Trazado_1270348" data-name="Trazado 1270348" d="M230.275,140.591l-19.806-3.446-1.516,11.7,21.825,2.118c3.874.254,6.18-1.54,7.165-3.761l9.414-23.7-5.941-1.243Z" transform="translate(-55.142 -32.264)" fill="#fca886"/>
        <path id="Trazado_1270349" data-name="Trazado 1270349" d="M229.035,139.927a74.761,74.761,0,0,1,9.928-16.358,11.4,11.4,0,0,1,7.243,4.214s-5.058,21.635-11.051,23.529c-5.245,1.977-27.6-1.688-27.6-1.688s-1.865-8.911-1.865-9.067,1.554-5.647,1.554-5.647l5.589,1.478a86.824,86.824,0,0,1,16.208,3.539" transform="translate(-54.279 -32.609)" fill="#fff"/>
        <path id="Trazado_1270350" data-name="Trazado 1270350" d="M213.792,159.8a38.724,38.724,0,0,1-8.49-1.933l.122-.347a38.357,38.357,0,0,0,8.41,1.914Z" transform="translate(-54.178 -41.568)" fill="#92bbf4"/>
        <path id="Trazado_1270351" data-name="Trazado 1270351" d="M239.429,149.476l-.368-.007a4.524,4.524,0,0,0-1.833-3.71l.2-.308a4.81,4.81,0,0,1,2,4.026" transform="translate(-62.604 -38.384)" fill="#92bbf4"/>
        <path id="Trazado_1270352" data-name="Trazado 1270352" d="M217.263,230.564l2.582-2.755.269.252-1.842,1.965,4.1-.671.06.364Z" transform="translate(-57.335 -60.118)" fill="#3a70bf"/>
        <path id="Trazado_1270353" data-name="Trazado 1270353" d="M203.047,129.975a18.973,18.973,0,0,0,8.763,6.191l.4,3.086-4.785-.2-3.343-3.84-2.524-2.626Z" transform="translate(-53.19 -34.3)" fill="#fff"/>
        <path id="Trazado_1270354" data-name="Trazado 1270354" d="M203.409,146.435l-.367-.036a6.818,6.818,0,0,1,2.333-4.844,7.416,7.416,0,0,1,5.037-1.451l-.039.366a7.164,7.164,0,0,0-4.768,1.373,6.464,6.464,0,0,0-2.2,4.593" transform="translate(-53.582 -36.966)" fill="#92bbf4"/>
        <path id="Trazado_1270355" data-name="Trazado 1270355" d="M206.174,138.4a13.222,13.222,0,0,1-4.833-4.824l.316-.188a12.85,12.85,0,0,0,4.7,4.692Z" transform="translate(-53.133 -35.201)" fill="#92bbf4"/>
        <path id="Trazado_1270356" data-name="Trazado 1270356" d="M205.439,181.992l-.357-.089c.036-.146,3.676-14.7,4.907-22.381l.364.058c-1.234,7.7-4.877,22.266-4.913,22.412" transform="translate(-54.12 -42.097)" fill="#92bbf4"/>
        <path id="Trazado_1270357" data-name="Trazado 1270357" d="M213.449,181.567l-.358-.083a107.574,107.574,0,0,0,2.071-12.291l.366.039a108.05,108.05,0,0,1-2.078,12.336" transform="translate(-56.234 -44.649)" fill="#92bbf4"/>
        <path id="Trazado_1270358" data-name="Trazado 1270358" d="M175.288,182.371a23.919,23.919,0,0,1-5.242-.646l.092-.357a22.343,22.343,0,0,0,6.218.6l.452-2.392a18.516,18.516,0,0,1-5.952-.879l.127-.346a18.368,18.368,0,0,0,6.024.858h.025a.182.182,0,0,1,.18.218l-.519,2.749a.184.184,0,0,1-.165.149c-.413.034-.828.049-1.239.049" transform="translate(-44.874 -47.066)" fill="#92bbf4"/>
        <path id="Trazado_1270359" data-name="Trazado 1270359" d="M177.451,181.354a.5.5,0,1,1-.5-.5.5.5,0,0,1,.5.5" transform="translate(-46.564 -47.726)" fill="#aed3ff"/>
        <path id="Trazado_1270360" data-name="Trazado 1270360" d="M517.593,224.931a3.24,3.24,0,0,1-2.74.04,5.985,5.985,0,0,1-2.294-2.214A12.4,12.4,0,0,1,511,219.695a1.336,1.336,0,0,1,.978-1.91c-.067-.835,1.095-1.329,1.48-.937-.237-.55,1.162-1.419,1.454-.695-.636-1.276-2.336-5.111-2.336-5.111-.5-1.077.824-2.125,1.591-.818.488.688,3.536,6.955,3.536,6.955.551-.3-.534-2.709.74-3.6a.263.263,0,0,1,.361.158,14.8,14.8,0,0,1,.885,7.266c-.058,1.354-.456,3.2-2.093,3.928" transform="translate(-134.818 -55.317)" fill="#f3a786"/>
        <path id="Trazado_1270361" data-name="Trazado 1270361" d="M512.757,223.738a1.156,1.156,0,0,1-.971-.574l.465-.3a.61.61,0,0,0,.506.32h0a.764.764,0,0,0,.611-.406l.157-.246.237.17a.7.7,0,0,0,.768.078.575.575,0,0,0,.255-.6l-.138-.968.624.753a.582.582,0,0,0,.736.19c.189-.113.233-.334.122-.607l-1.308-3.189.51-.21,1.309,3.19a.988.988,0,0,1-.349,1.29,1.079,1.079,0,0,1-1.007.033,1.09,1.09,0,0,1-.468.586,1.2,1.2,0,0,1-1.143.037,1.225,1.225,0,0,1-.916.448Z" transform="translate(-135.058 -57.57)" fill="#d66947"/>
        <rect id="Rectángulo_459620" data-name="Rectángulo 459620" width="0.552" height="3.339" transform="matrix(0.916, -0.401, 0.401, 0.916, 378.408, 161.629)" fill="#d66947"/>
        <rect id="Rectángulo_459621" data-name="Rectángulo 459621" width="0.552" height="3.206" transform="translate(376.909 162.587) rotate(-25.619)" fill="#d66947"/>
        <path id="Trazado_1270362" data-name="Trazado 1270362" d="M517.365,225.675a4.655,4.655,0,0,1-.5-1.494l.548-.075a4.076,4.076,0,0,0,.445,1.314Z" transform="translate(-136.398 -59.141)" fill="#d66947"/>
        <path id="Trazado_1270363" data-name="Trazado 1270363" d="M517.89,221.318l-.466-.3a4.039,4.039,0,0,1,1.915-1.485l.179.522a3.534,3.534,0,0,0-1.628,1.26" transform="translate(-136.546 -57.935)" fill="#d66947"/>
        <path id="Trazado_1270364" data-name="Trazado 1270364" d="M566.8,207.027a12.989,12.989,0,0,1,8.666.547c2.917,1.3,4.783,3.9,6.36,6.866,1.417,2.668,2.889,5.311,4.426,7.906,2.509,4.237,3.894,10.152,1.545,14.988.858,7.571-20.7-.964-20.7-.964s-3.38,6.238-6.1,2.2c-5.4-5.782.919-18.813.919-18.813-.643-6.9.529-11.468,4.888-12.725" transform="translate(-147.466 -54.503)" fill="#181818"/>
        <path id="Trazado_1270365" data-name="Trazado 1270365" d="M551.243,240.41,531.772,243.8l-8.311-13.675a35.143,35.143,0,0,1-6.274,2.434l7.047,17.744c.968,2.183,3.234,3.947,7.043,3.7l21.456-2.082Z" transform="translate(-136.484 -60.729)" fill="#fca886"/>
        <path id="Trazado_1270366" data-name="Trazado 1270366" d="M531.455,241.588a73.511,73.511,0,0,0-9.759-16.082,11.21,11.21,0,0,0-7.12,4.143s4.972,21.269,10.864,23.131c5.156,1.943,27.137-1.66,27.137-1.66s1.834-8.76,1.834-8.913-1.527-5.552-1.527-5.552l-1.848.283c-5.351.616-14.306,2.984-19.58,4.649" transform="translate(-135.794 -59.51)" fill="#fff"/>
        <path id="Trazado_1270367" data-name="Trazado 1270367" d="M534.738,250.974a4.734,4.734,0,0,1,1.968-3.961l.2.309a4.444,4.444,0,0,0-1.8,3.644Z" transform="translate(-141.115 -65.186)" fill="#92bbf4"/>
        <path id="Trazado_1270368" data-name="Trazado 1270368" d="M585.531,384.465s-.633,2.855-1.43,3.569-4.213,1.728-3.953,4.93h10.69s1.253-.042,1.253-1.189-.436-3.794-.749-6.47c-1.133-1.474-4.3-1.852-5.811-.84" transform="translate(-153.095 -101.309)" fill="#fff"/>
        <path id="Trazado_1270369" data-name="Trazado 1270369" d="M561.673,385.5c-1.394.2-1.248,2.8-4.359,3.545-3.786.774-6.088,2.111-6.124,3.587.036.3-.108.559.054.751h15.651a1.154,1.154,0,0,0,1.155-1.166,44.749,44.749,0,0,0-.807-5.533l-.513-.79c-.551.9-4.339,1.651-5.056-.394" transform="translate(-145.45 -101.733)" fill="#fff"/>
        <path id="Trazado_1270370" data-name="Trazado 1270370" d="M581.036,236.814c-4.947,2.636-10.233,4.28-17.379.513l4.714-1.823V224.717h8.637v10.809Z" transform="translate(-148.747 -59.302)" fill="#f3a786"/>
        <path id="Trazado_1270371" data-name="Trazado 1270371" d="M581.036,240.778c-6.551,11.026-12.635,16.84-17.379.513l3.987-1.555c1.554,1.388,6.158,1.613,10.532.063Z" transform="translate(-148.747 -63.265)" fill="#77aaf4"/>
        <path id="Trazado_1270372" data-name="Trazado 1270372" d="M577.308,361.895c-.745-.623-5.582-59.083-5.582-59.083l-.774-.419s-1.157,59.117-1.534,59.491c-.688.682-7.856-.023-8.394-.647-.334-.386-6.053-54.872-3.6-64.932a30.506,30.506,0,0,1,5.128-11.883h18.138s5.608,5.106,5.873,20.487c0,0,2.054,36.586-1.008,56.545-.7.652-7.505,1.065-8.25.442" transform="translate(-146.941 -75.058)" fill="#181818"/>
        <path id="Trazado_1270373" data-name="Trazado 1270373" d="M587.329,290.836c-13.862,2.725-29.335,1.644-33.469-.172l2.176-25.247s-2.674-15.661-1.582-18.378c1-2.651,3.037-4.241,5.979-5.409l2.833-1c.421,3.486,4.235,9.375,4.235,9.375s7.136-7.937,9.71-9.455l4.121,1.061c3.284,1.025,4.983,2.024,6.031,4.816,1.421,3.7-3.747,20.3-3.747,20.3a77.793,77.793,0,0,1,3.712,24.1" transform="translate(-146.161 -63.48)" fill="#fff"/>
        <path id="Trazado_1270374" data-name="Trazado 1270374" d="M570.849,228.841h0a6.393,6.393,0,0,0,6.374-6.374V217.7a6.374,6.374,0,1,0-12.748,0s-.14,11.141,6.374,11.141" transform="translate(-148.963 -55.768)" fill="#f3a786"/>
        <path id="Trazado_1270375" data-name="Trazado 1270375" d="M572.287,234.553a6.58,6.58,0,0,1-2.361-.435l.2-.516a6.032,6.032,0,0,0,2.164.4,6.1,6.1,0,0,0,4.572-2.074l.414.365a6.654,6.654,0,0,1-4.986,2.261" transform="translate(-150.401 -61.205)" fill="#d66947"/>
        <path id="Trazado_1270376" data-name="Trazado 1270376" d="M577.027,217.655a20.241,20.241,0,0,1-8.9-5.738,5.2,5.2,0,0,0-3.7,3.672l-.732-2.906.958-2.483,4.359-1.585,4.5.264,3.079,2.272,1.61,3.319Z" transform="translate(-148.755 -55.053)" fill="#181818"/>
        <path id="Trazado_1270377" data-name="Trazado 1270377" d="M555.254,278H539.918a1.611,1.611,0,0,1-1.606-1.606l-3.793-20.671a1.611,1.611,0,0,1,1.606-1.606h15.336a1.611,1.611,0,0,1,1.606,1.606l3.793,20.671A1.611,1.611,0,0,1,555.254,278" transform="translate(-141.057 -67.06)" fill="#77aaf4"/>
        <path id="Trazado_1270378" data-name="Trazado 1270378" d="M559.891,277.989v-.368a1.4,1.4,0,0,0,1.4-1.4l-3.728-20.3a1.408,1.408,0,0,0-1.4-1.428v-.368a1.765,1.765,0,0,1,1.763,1.763l3.728,20.3a1.768,1.768,0,0,1-1.761,1.8" transform="translate(-146.769 -67.065)" fill="#3a70bf"/>
        <path id="Trazado_1270379" data-name="Trazado 1270379" d="M581.213,220.94c.066-.007.871-1.215,1.938-.443,1.681,1.225.063,4.8-1.769,4.41-1.833-.748-.169-3.967-.169-3.967" transform="translate(-153.197 -58.12)" fill="#f3a786"/>
        <path id="Trazado_1270380" data-name="Trazado 1270380" d="M563.195,272.691c-1.309,2.561-4.746,1.43-5.184,1.365-2.261-.333-6.682-3.578-6.682-3.578-1.191-.752-.617-1.744-.23-1.588.18.092-.658-.4-.827-.506-1.461-.993-.442-1.952.226-1.719-1.253-.572-.716-1.986.119-1.68-.851-.508-.306-1.781,1.067-1.265.785.221,6.883,3.079,6.883,3.079l-.434-2.551a15.114,15.114,0,0,1,4.25,4.218c.78,1.053,1.6,2.683.813,4.225" transform="translate(-145.017 -69.563)" fill="#f6a97e"/>
        <path id="Trazado_1270381" data-name="Trazado 1270381" d="M555.23,272.723,551.6,271l.158-.332,3.627,1.723Z" transform="translate(-145.566 -71.428)" fill="#d66947"/>
        <rect id="Rectángulo_459622" data-name="Rectángulo 459622" width="0.368" height="5.329" transform="translate(405.399 197.299) rotate(-62.455)" fill="#d66947"/>
        <rect id="Rectángulo_459623" data-name="Rectángulo 459623" width="0.368" height="5.897" transform="translate(405.543 195.585) rotate(-63.79)" fill="#d66947"/>
        <path id="Trazado_1270382" data-name="Trazado 1270382" d="M566.627,277.259l-2.019-.615c-.552-1.725.679-5.366,2.584-6.883l3.22.856Z" transform="translate(-148.963 -71.189)" fill="#fff"/>
        <path id="Trazado_1270383" data-name="Trazado 1270383" d="M580.833,247.836a38.474,38.474,0,0,0,1.053,18.178c-4.355-1.442-11.043-3.472-12.076-2.663-1.876,2.554-3.006,4.723-2.46,6.9.039,1.27,18.128,10.462,23.389,5.21,5.092-5.228.638-26.5.638-26.5-1.39-7.854-9.092-7.078-10.543-1.126" transform="translate(-149.685 -64.185)" fill="#fff"/>
        <path id="Trazado_1270384" data-name="Trazado 1270384" d="M589.247,276.755a3.772,3.772,0,0,0-2.241-2.863l.172-.325a4.118,4.118,0,0,1,2.434,3.143Z" transform="translate(-154.908 -72.193)" fill="#92bbf4"/>
        <path id="Trazado_1270385" data-name="Trazado 1270385" d="M567.115,277.434c-.723-3.738,2.428-7.007,2.563-7.144l.263.258c-.032.032-3.151,3.27-2.465,6.816Z" transform="translate(-149.631 -71.328)" fill="#92bbf4"/>
        <path id="Trazado_1270386" data-name="Trazado 1270386" d="M582.1,266.83a.175.175,0,0,1-.058-.01c-7.921-2.66-11.131-2.54-11.925-2.437a.225.225,0,0,1-.071-.005l-1.948-.518.094-.356,1.914.509c.86-.1,4.077-.185,11.715,2.345-3.3-11.1-2.414-18.266.193-19.633l.171.327c-2.866,1.5-2.828,9.9.091,19.54a.183.183,0,0,1-.048.185.181.181,0,0,1-.128.052" transform="translate(-149.92 -65.11)" fill="#92bbf4"/>
        <path id="Trazado_1270387" data-name="Trazado 1270387" d="M585.894,286.4c-5.81,0-16.176-3.275-19.339-6.574l-1.974-.6.107-.353,2.02.615a.181.181,0,0,1,.079.05c3.6,3.821,17.912,7.8,21.869,6.078l.147.337a7.611,7.611,0,0,1-2.91.447" transform="translate(-148.991 -73.593)" fill="#92bbf4"/>
        <path id="Trazado_1270388" data-name="Trazado 1270388" d="M570.377,252.413a.163.163,0,0,1-.144-.069,32,32,0,0,1-5.887-11.283l.355-.1a31.6,31.6,0,0,0,5.68,10.978A97.532,97.532,0,0,1,581.1,240.962l.241.279a97.761,97.761,0,0,0-10.821,11.106.18.18,0,0,1-.14.066" transform="translate(-148.929 -63.589)" fill="#92bbf4"/>
        <rect id="Rectángulo_459624" data-name="Rectángulo 459624" width="0.368" height="17.144" transform="translate(68.692 235.65) rotate(-12.463)" fill="#181818"/>
        <path id="Trazado_1270389" data-name="Trazado 1270389" d="M93.49,305.364,83,307.682a1.91,1.91,0,0,1-2.278-1.453l-7.8-35.318a1.91,1.91,0,0,1,1.453-2.278l10.493-2.319a1.91,1.91,0,0,1,2.277,1.453l7.8,35.318a1.91,1.91,0,0,1-1.453,2.277" transform="translate(-19.23 -70.267)" fill="#181818"/>
        <path id="Trazado_1270390" data-name="Trazado 1270390" d="M92.529,296.244l-13.214,2.92a1.585,1.585,0,0,1-1.889-1.2l-7.444-33.687a1.585,1.585,0,0,1,1.205-1.889l13.214-2.92a1.585,1.585,0,0,1,1.889,1.2l7.444,33.687a1.584,1.584,0,0,1-1.205,1.889" transform="translate(-18.458 -68.461)" fill="#181818"/>
        <path id="Trazado_1270391" data-name="Trazado 1270391" d="M93.228,294.5l-16.343,3.611a1.664,1.664,0,0,1-1.985-1.266l-6.533-29.563a1.664,1.664,0,0,1,1.266-1.985l16.343-3.611a1.664,1.664,0,0,1,1.985,1.266l6.533,29.563a1.665,1.665,0,0,1-1.266,1.984" transform="translate(-18.032 -69.047)" fill="#7baefa"/>
        <path id="Trazado_1270392" data-name="Trazado 1270392" d="M81.988,312.429l-.079-.359,14.224-3.142.079.36Z" transform="translate(-21.615 -81.525)" fill="#666"/>
        <path id="Trazado_1270393" data-name="Trazado 1270393" d="M74.287,292.489c-.548,2.883,2.93,4.123,3.324,4.345,2.031,1.146,7.625,1.3,7.625,1.3,1.43.139,1.589-1.02,1.179-1.136-.2-.038.781.091.984.11,1.8.114,1.577-1.3.893-1.527,1.368.324,1.82-1.152.955-1.428,1,.123,1.361-1.245-.067-1.688-.771-.313-7.475-1.827-7.475-1.827.161-.6,2.758.044,3.327-1.379a.259.259,0,0,0-.214-.291,15.715,15.715,0,0,0-7.231.626c-1.288.361-2.971,1.159-3.3,2.9" transform="translate(-19.589 -76.217)" fill="#f6a97e"/>
        <rect id="Rectángulo_459625" data-name="Rectángulo 459625" width="0.368" height="4.097" transform="translate(62.707 220.121) rotate(-77.562)" fill="#d1655f"/>
        <rect id="Rectángulo_459626" data-name="Rectángulo 459626" width="0.368" height="5.437" transform="translate(63.296 218.6) rotate(-79.714)" fill="#d1655f"/>
        <rect id="Rectángulo_459627" data-name="Rectángulo 459627" width="0.369" height="6.018" transform="matrix(0.202, -0.979, 0.979, 0.202, 63.709, 216.885)" fill="#d1655f"/>
        <path id="Trazado_1270394" data-name="Trazado 1270394" d="M67.736,293.238c-.459-2.4,1.031-6.774,2.525-7.885L48.332,276.28c-7.7-1.561-10,8.07-3.17,10.7a103.1,103.1,0,0,0,19.552,5.768c.964.151,3.022.494,3.022.494" transform="translate(-10.848 -72.864)" fill="#fff"/>
        <rect id="Rectángulo_459628" data-name="Rectángulo 459628" width="0.368" height="13.041" transform="translate(40.809 204.912) rotate(-67.314)" fill="#92bbf4"/>
        <path id="Trazado_1270395" data-name="Trazado 1270395" d="M70.835,298.184a77.871,77.871,0,0,1-11.346-2.664l.113-.35a77.522,77.522,0,0,0,11.283,2.648Z" transform="translate(-15.699 -77.894)" fill="#92bbf4"/>
        <path id="Trazado_1270396" data-name="Trazado 1270396" d="M91.739,277.234c-.161,2.9-3.862,3.271-4.3,3.391-2.264.621-7.773-.562-7.773-.562-1.433-.206-1.307-1.359-.88-1.373.208.011-.785-.1-.989-.128-1.786-.317-1.231-1.622-.506-1.681-1.416-.014-1.5-1.541-.589-1.6-1.011-.121-1.031-1.522.474-1.608.83-.119,7.753.018,7.753.018-.014-.612-2.709-.612-2.921-2.118a.259.259,0,0,1,.279-.23,16.026,16.026,0,0,1,6.923,2.321c1.172.654,2.625,1.823,2.528,3.571" transform="translate(-20.053 -71.606)" fill="#f6a97e"/>
        <rect id="Rectángulo_459629" data-name="Rectángulo 459629" width="0.368" height="4.128" transform="translate(58.795 207.327) rotate(-88.59)" fill="#d1655f"/>
        <rect id="Rectángulo_459630" data-name="Rectángulo 459630" width="0.369" height="5.478" transform="translate(57.247 205.489) rotate(-86.472)" fill="#d1655f"/>
        <path id="Trazado_1270397" data-name="Trazado 1270397" d="M83.039,277.024l-6.058-.233.015-.368,6.058.233Z" transform="translate(-20.315 -72.947)" fill="#d1655f"/>
        <path id="Trazado_1270398" data-name="Trazado 1270398" d="M92.928,279.8c1.03-2.2.629-6.764-.565-8.188L116,268.1c7.911.329,7.83,10.142.515,11.046a101.483,101.483,0,0,1-20.517.9c-.979-.084-3.075-.243-3.075-.243" transform="translate(-24.374 -70.75)" fill="#fff"/>
        <path id="Trazado_1270399" data-name="Trazado 1270399" d="M97.566,271.475l-.066-.362c.69-.124,16.912-3.028,19.066-1.773l-.185.317c-1.63-.947-13.021.775-18.815,1.818" transform="translate(-25.73 -70.995)" fill="#92bbf4"/>
        <rect id="Rectángulo_459631" data-name="Rectángulo 459631" width="0.368" height="3.25" transform="matrix(0.017, -1, 1, 0.017, 73.847, 209.598)" fill="#92bbf4"/>
        <rect id="Rectángulo_459632" data-name="Rectángulo 459632" width="499.765" height="0.736" transform="translate(0 291.378)" fill="#181818"/>
      </g>
    </g>
  </g>
</svg>
