<svg xmlns="http://www.w3.org/2000/svg" xmlns:xlink="http://www.w3.org/1999/xlink" width="85" height="85" viewBox="0 0 85 85">
  <defs>
    <clipPath id="clip-path">
      <rect id="Rectángulo_459441" data-name="Rectángulo 459441" width="67.711" height="67.666" fill="#8d1939"/>
    </clipPath>
  </defs>
  <g id="Grupo_1208380" data-name="Grupo 1208380" transform="translate(-705.342 -410.184)">
    <path id="Sustracción_110" data-name="Sustracción 110" d="M15975.961,19829.512h85v85h-85Z" transform="translate(-15270.619 -19419.328)" fill="#ffe19a"/>
    <g id="Grupo_1209191" data-name="Grupo 1209191" transform="translate(714.342 418.184)">
      <g id="Grupo_1209190" data-name="Grupo 1209190" clip-path="url(#clip-path)">
        <path id="Trazado_1269244" data-name="Trazado 1269244" d="M45.575,21.819l5.356,11.134c.324.088.355-.086.535-.21A20.182,20.182,0,0,0,53.5,30.707c.474-.7.365-1.531.916-1.892,1.955-1.281,2.645,2.474,2.828,3.709,1.52-1.835,1.258-4.383,3.334-5.874,1.064-.764,4.278-1.749,4.968-.282.479,1.017-.387,1.515-.739,2.37-1.067,2.594-.391,2.992-.6,5.391-.082.913-.509,1.776-.638,2.678,1.052-.568,2.405-3.238,3.766-2.161.814.644-.268,3.47-.607,4.359-1.357,3.559-3.615,6.551-7.433,7.555-.426.112-1.439-.084-1.292.413l1.07,2.253c1.618-.288,3.62-4.359,5.042-1.941a26.389,26.389,0,0,1,1.7,4.538c-.141,1.212-3.569,2.92-3.5,3.68l5.223,10.42-.17,1.452-1.117.274-64.9,0C.6,67.743.211,67.275,0,66.63L7.244,51.9c-.849-.727-4.433-2.279-4.812-3.1-.291-.633.554-4.6.91-5.294a1.231,1.231,0,0,1,1.555-.61c1.082.332,4.422,3.129,5.234,3.128l1.2-2.455A3.79,3.79,0,0,1,9.19,39.717c.062-.487.466-1.065.422-1.486a12.356,12.356,0,0,1-.951-1.016C7.855,35.867,8.026,34.9,8.3,33.4c-3.128-.991-5.642-4.047-3.463-7.2C3.1,24.778,1.694,23.633,2.158,21.118c.136-.734.714-1.146.8-1.852-4.493-2.359-3.49-6.027.724-7.976C8.806,8.917,17.37,8.829,22.71,10.53l4.233,2.08L27.5,10.9c-.885-.829-6.272-3.469-6.5-4.215-.373-1.2.833-4.257,1.079-5.585L23.722.952l6.762,4.14c1.041-.97,2.49-7.114,4.432-4.412C35.6,1.63,38,7.444,38.329,7.65c1.45,0,2.711-.313,4.132.255.483-2.167,1.076-4.256,2.8-5.779C50.3-2.325,58.306,1.22,58.21,7.9c6.639-2.176,12.293,5.476,8.01,11.117-3.175,4.182-8.38,2.419-12.907,2.831-.461.819-1.407,4.931-2,5.182a1.69,1.69,0,0,1-1.082.106c-1.885-.525.585-4.071.487-5.317Zm8.565-2.355h7.387a9.383,9.383,0,0,0,2.354-1.286c3.624-3.489-.036-9.742-4.968-7.966-.924.333-1.781,1.5-2.714.878s-.175-3.118-.361-4.353c-.851-5.645-10.355-5.7-10.889.871-.093,1.138.87,2.671-.031,3.385-.987.782-1.925-.454-2.833-.781-.4-.145-2.461-.7-2.5-.064l4.7,9.212,7.147.075,1.2-3.4c-1.3.152-5.662,1.877-5.557-.515L50.3,6.312a1.219,1.219,0,0,1,2.087.463c.2,1.149-2.607,7.076-2.319,7.333,1.346.177,5.683-1.846,5.521.692-.045.7-1.651,4.475-1.454,4.663M28.871,8.757l.594-1.4L23.736,3.832,23.5,5.659Zm35.762,56.53L33.905,4.05,3.178,65.287Zm-42.4-47.32a22.432,22.432,0,0,0-8.681-1.724c-1.017.017-3.884.673-4.6.329a1.187,1.187,0,0,1,.205-2.151,25.7,25.7,0,0,1,5.48-.533,22.953,22.953,0,0,1,8.381,1.9,10.435,10.435,0,0,0,1.652.883c.821-1.154,1.455-1.675.114-2.649-4.134-3-18.074-3.2-21.805.435-1.653,1.609.705,2.814,2.124,3.4,4.178,1.727,11.013,1.827,15.379.827.493-.113,1.457-.272,1.746-.713m.644,2.569a34.585,34.585,0,0,1-17.441-.008c-2.632,1.852.336,3.544,2.182,4.237a21.448,21.448,0,0,0,9.74.849,16.827,16.827,0,0,0,3.368-.915ZM19.236,27.6a27.4,27.4,0,0,1-8.217.4c-1.551-.192-4.818-1.91-4.649.776.194,3.085,8.717,4.041,10.959,2.967Zm44.54,12.207c-.194-.161-3.961,2.335-4.284.307-.164-1.03,1.983-3.921,2.261-5.652a16.823,16.823,0,0,0-.1-3.092c.021-.935.526-1.983.618-2.915-1.428.742-1.4,2.284-1.953,3.505-.859,1.89-3.827,5.769-6.076,4.2-.449-.906.543-2.222.534-3.213-.865.928-2.652,1.756-2.188,3.151.825,2.482,3.014,5.3,3.925,7.854l.333.308c3.22.507,5.584-1.824,6.925-4.46M15.811,34.453l-5-.194c-1.475,2.086,1.69,3.207,3.362,3.382Zm-2.568,5.354c-1.928-.571-2.28.39-.964,1.707ZM5.107,45.8c.051.708-.5,1.412-.019,2.051.2.274,2.985,1.872,3.233,1.712.193-.124.7-1.116.547-1.407ZM61,53.081c.172.126,2.047-1.43,2.111-1.649.16-.552-.348-1.362-.722-1.772L60.379,51.5Z" transform="translate(0 0.001)" fill="#8d1939"/>
        <path id="Trazado_1269245" data-name="Trazado 1269245" d="M72.247,65.745a1.509,1.509,0,0,1,1.9,1.03l21.774,43.533c.6,1.574-.24,1.962-1.644,2.091H51.431a1.966,1.966,0,0,1-1.872-.93Zm20.627,44.29L72.957,69.566l-20.34,40.47Z" transform="translate(-38.947 -51.6)" fill="#8d1939"/>
        <path id="Trazado_1269246" data-name="Trazado 1269246" d="M142.356,141.685a37.247,37.247,0,0,1,5.3-.041c.536.1.765.533.932,1.011l-.621,15.351c.067,1.7-4.693,1.375-5.336.868-.968-.763-.579-5.065-.636-6.43-.115-2.74-.705-6.811-.451-9.426.054-.553.179-1.153.808-1.333m3.7,2.309h-2.144l.523,12.648,1.191.2Z" transform="translate(-111.189 -111.256)" fill="#8d1939"/>
        <path id="Trazado_1269247" data-name="Trazado 1269247" d="M144.521,229.31c.2-1.09,4.711-.942,5.262-.551.716.508.6,3.3.528,4.2-.039.462-.131,1.383-.758,1.383h-4.5a3.583,3.583,0,0,1-.535-.535,34.3,34.3,0,0,1,0-4.5m3.427,1.6h-1.073v1.073h1.073Z" transform="translate(-113.507 -179.547)" fill="#8d1939"/>
      </g>
    </g>
  </g>
</svg>
