<svg xmlns="http://www.w3.org/2000/svg" xmlns:xlink="http://www.w3.org/1999/xlink" width="96" height="96" viewBox="0 0 96 96">
  <defs>
    <clipPath id="clip-path">
      <rect id="Rectángulo_455595" data-name="Rectángulo 455595" width="96" height="96" fill="none"/>
    </clipPath>
    <clipPath id="clip-path-2">
      <rect id="Rectángulo_459567" data-name="Rectángulo 459567" width="43.965" height="54.203" fill="#fff"/>
    </clipPath>
  </defs>
  <g id="Grupo_1208677" data-name="Grupo 1208677" transform="translate(-735.746 -9118)">
    <g id="Grupo_1180407" data-name="Grupo 1180407" transform="translate(735.746 9117.971)">
      <g id="Grupo_1179172" data-name="Grupo 1179172" transform="translate(0 0.03)" clip-path="url(#clip-path)">
        <path id="Trazado_998483" data-name="Trazado 998483" d="M92.562,52.469A40.092,40.092,0,1,1,52.469,12.377,40.093,40.093,0,0,1,92.562,52.469" transform="translate(-4.455 -4.484)" fill="#8d1939"/>
        <path id="Trazado_998485" data-name="Trazado 998485" d="M90.9,46.451A44.45,44.45,0,1,1,46.451,2,44.45,44.45,0,0,1,90.9,46.451Z" transform="translate(1.564 1.535)" fill="none" stroke="#8d1939" stroke-miterlimit="10" stroke-width="4"/>
      </g>
    </g>
    <g id="Grupo_1180408" data-name="Grupo 1180408" transform="translate(755.746 9137)">
      <g id="Grupo_1099618" data-name="Grupo 1099618" transform="translate(0.297 -0.464)">
        <rect id="Rectángulo_401104" data-name="Rectángulo 401104" width="56.349" height="57.028" transform="translate(0)" fill="none"/>
      </g>
      <g id="Grupo_1209407" data-name="Grupo 1209407" transform="translate(6.297 1.536)">
        <g id="Grupo_1209406" data-name="Grupo 1209406" clip-path="url(#clip-path-2)">
          <path id="Trazado_1270079" data-name="Trazado 1270079" d="M36.441,8.722a7.937,7.937,0,0,0-7.506-7.053,86.925,86.925,0,0,0-11.164,0,3.055,3.055,0,0,0-1.858.775c-.506.5-.657,1.516-1.2,1.747-.73.313-2.113.018-2.968.13-6.358.835-3.726,10.7-4.277,14.929-.15.792-1.42.86-1.545-.3-.213-1.987-.235-9.818.261-11.513a7.18,7.18,0,0,1,7.684-4.827A4.632,4.632,0,0,1,16.917.194c6.469.49,15.509-2.325,19.652,4.218,2.744,4.335.855,12.154,1.42,17.166.067.349.7.621,1,1.016,2.032,2.734-.538,5.8-3.609,5.431a13.581,13.581,0,0,1-17.71,11.087,21.529,21.529,0,0,0-2.6-1.039v5.344a10.782,10.782,0,0,1-.646,1.368c-.219.36-.842.672-.734,1.083a11.621,11.621,0,0,0,2.107,1.624,11.874,11.874,0,0,0,12.131.111,14.448,14.448,0,0,0,2.252-1.628c.25-.456-.47-.859-.736-1.288a4.007,4.007,0,0,1-.6-1.727c-.1-1.122-.363-3.931,1.413-2.768.4,1.3-.232,2.509.57,3.729.571.867,1.372.958,2.28,1.283,2.543.91,5.6,1.476,8.021,2.512,2.545,1.087,3.066,3.147,2.756,5.78-.1.884-1.426,1.064-1.558-.161-.123-1.141.245-2.031-.433-3.132-.89-1.447-4.9-1.845-6.463-2.626-6.676,8.659-20.119,8.832-26.788.085L8.4,47.587c-1.545.81-5.477,1.157-6.373,2.613-.776,1.262-.128,3.021-.575,3.723a.916.916,0,0,1-1.381-.154A14.959,14.959,0,0,1,.111,50.61,4.337,4.337,0,0,1,2.9,47.673c2.8-1.143,6.509-1.637,9.171-2.91,2.514-1.2,1.09-5.742,1.409-8.051a13.4,13.4,0,0,1-4.943-8.686c-3.432.519-6-3.624-3.063-5.969,1.463-1.168,3.48-.269,4.3-1.432.661-.939.226-3.943.328-5.248a4.318,4.318,0,0,1,4.1-4.259c3.84-.3,8.058.243,11.94,0,1,.11,1.213,1.391.138,1.543-3.581.5-8.224-.358-11.916.016-4.5.456-1.342,6.071-3.264,8.817-.267.382-.909.731-.993,1.175-.192,1-.2,3.291,1.077,3.563H32.728a1.513,1.513,0,0,0,1.07-1.253,17.274,17.274,0,0,0,.013-2.591c-.018-.065-.789-.6-1-.894-1.759-2.442.734-7.432-2.258-8.585-.715-.276-2.121-.085-1.678-1.37.359-1.041,2.705.038,3.3.52,2.787,2.251,1,5.358,1.7,8.055.345,1.334,2.56,1.455,2.56,1ZM8.407,22.893c-1.7-.362-3.353,1.173-2.24,2.782.646.934,1.73.563,2.7.625a7.582,7.582,0,0,1-.463-3.408M35.048,26.3c1.023-.058,2.128.325,2.764-.719.987-1.621-.663-3.031-2.3-2.688a7.584,7.584,0,0,1-.463,3.408m-1.395,1.7H10.265l.33,1.684c1.032.215,4.693-.372,5.257.4a.55.55,0,0,1,.148.326l-.392.847H13.13c-.018,0-.309.225-.157.311,5.182,3.23,12.922,3.294,18.046-.079.022-.043-.364-.232-.386-.232H18.242c-.311,0-.889-1.351.32-1.539l14.68,0Zm-2.014,5.113c-.97.45-1.889.992-2.9,1.353a21.1,21.1,0,0,1-14.547-.4c-.653-.283-1.246-.7-1.909-.955a11.785,11.785,0,0,0,19.361,0M12.049,46.489l-1.782.645a15.3,15.3,0,0,0,23.382,0l-1.782-.645a13.611,13.611,0,0,1-19.819,0" transform="translate(0 0)" fill="#fff"/>
          <path id="Trazado_1270080" data-name="Trazado 1270080" d="M92.162,121.195c.36.674.287,1.128-.427,1.433-.3.128-3.24.864-3.49.863a.871.871,0,0,1-.7-1.3,17.579,17.579,0,0,1,4-1.152.831.831,0,0,1,.615.155" transform="translate(-73.881 -102.29)" fill="#fff"/>
          <path id="Trazado_1270081" data-name="Trazado 1270081" d="M168.929,122.079a.864.864,0,0,1-.65,1.364c-.245,0-3.2-.736-3.49-.863-.714-.307-.788-.756-.427-1.433a.815.815,0,0,1,.5-.166,21.57,21.57,0,0,1,4.071,1.1" transform="translate(-138.726 -102.243)" fill="#fff"/>
          <path id="Trazado_1270082" data-name="Trazado 1270082" d="M170.324,145.03c-1.119,1.133-2.1-1.909-.779-2.262,1.26-.337,1.171,1.865.779,2.262" transform="translate(-142.75 -120.626)" fill="#fff"/>
          <path id="Trazado_1270083" data-name="Trazado 1270083" d="M104.1,145.03c-.392-.4-.481-2.6.779-2.262,1.311.35.315,3.37-.779,2.262" transform="translate(-87.761 -120.626)" fill="#fff"/>
        </g>
      </g>
    </g>
  </g>
</svg>
