<svg xmlns="http://www.w3.org/2000/svg" xmlns:xlink="http://www.w3.org/1999/xlink" width="150" height="150" viewBox="0 0 150 150">
  <defs>
    <clipPath id="clip-path">
      <rect id="Rectángulo_459445" data-name="Rectángulo 459445" width="70.624" height="81.543" fill="#6a2874"/>
    </clipPath>
  </defs>
  <g id="Grupo_1208383" data-name="Grupo 1208383" transform="translate(-561.711 -8567.084)">
    <g id="Grupo_1207828" data-name="Grupo 1207828" transform="translate(561.711 8567.084)">
      <g id="Grupo_1177470" data-name="Grupo 1177470" transform="translate(0 0)">
        <circle id="Elipse_13609" data-name="Elipse 13609" cx="75" cy="75" r="75" fill="#f6e1fe"/>
        <g id="Grupo_1207827" data-name="Grupo 1207827" transform="translate(32.621 32.621)">
          <g id="Grupo_1099618" data-name="Grupo 1099618" transform="translate(0.149 0.009)">
            <rect id="Rectángulo_401104" data-name="Rectángulo 401104" width="84.532" height="84.532" transform="translate(0)" fill="none"/>
          </g>
          <g id="Grupo_1209200" data-name="Grupo 1209200" transform="translate(7.149 1.008)">
            <g id="Grupo_1209199" data-name="Grupo 1209199" clip-path="url(#clip-path)">
              <path id="Trazado_1269285" data-name="Trazado 1269285" d="M33.447,81.543,37.64,64.575l-.458-4.757c-1.462,1.778-1.81,4.544-3.266,6.307-1.385-4.3-2.707-7.346-2.335-12.027.09-1.136,1.047-4.1.835-4.8L22.89,38.254a7.667,7.667,0,0,1,2.839-10.566c.772-.391,6.424-1.965,6.761-1.722l.485,2.31A47.1,47.1,0,0,0,27.542,29.5a5.291,5.291,0,0,0-2.271,8.006L35.219,48.83c-.947,3.488-1.741,6.743-1.063,10.4.07.38-.159.406.456.356l5.373-12.713L34.619,37.5c-.908-1.023-3.42-1.233-4.686-1.868l-.167-.218.676-1.967,5.193,1.359,7.693-1.669a.5.5,0,0,0,.406-.533c.112-1.582-1.422-4.636-1.426-6.41l-6.624,1.352c-.508-.127-.716-1.806-.57-2.274l6.512-1.432-.47-2.1c3.728-.691,7.509-2,11.212-2.692a9.565,9.565,0,0,1,6.784.719L61.91,16.2c-.086-1.178-.584-2.233-.673-3.442a11.606,11.606,0,0,1,3.73-9.607l1.61,1.659a9.722,9.722,0,0,0-2.76,9.225c1.512-.782.835-1.277.979-2.384.641-4.929,6.863-5.287,8.713-.89,1.625-.805,1.583-2.737,2.607-3.948l5.451,2.084C80.094,3.251,73.328.8,68.257,3.52l-.838-2.107A11.671,11.671,0,0,1,82.7,5.313c4.862,7.673-1.16,14-3.231,21.333l-5.495-2.072a25.894,25.894,0,0,0-1.866,4.4c-.352,1.554,1.088,5.2,1.26,7.157s-.129,4.06.058,6.015c.353,3.68,1.795,7.676,2.13,11.419,5.3,6.44,14.032,10.957,11.271,20.726a5.424,5.424,0,0,1-1.05,2.22l-4.516.081c-.652-.223-1.454-3.7-2.372-4.636-2.252-2.3-7.589-4.5-10.219-6.768-.368-.317-2.574-3.4-2.744-3.275l-.45,2.19,3.951,17.432ZM78.061,23.611c.857-2.952,2.631-5.859,3.511-8.758.258-.851.985-2.732.094-3.37a24.682,24.682,0,0,0-4.527-1.649c-.633,2.528-3.6,3.985-6.083,3.733.086-1.542.212-3.363-1.781-3.5-2.865-.192-1.475,2.938-1.834,3.721A26.725,26.725,0,0,1,65.33,15.9c-1.425,1.624-2.722,3.368-4.066,5.059l8.547,6.366c.692.065,1.344-2.77,1.716-3.373-.709-.986-2.023-1.592-2.415-2.949-.173-.6-.4-3.4.19-3.454l1.962.717c-.685,4.1,4.23,3.859,6.8,5.349m-10.275,27.8c3.2-6.984,4.563-13.981,1.643-21.379-3.524-2.226-6.837-5.223-10.35-7.4a7.176,7.176,0,0,0-6.068-1.29c-2.869.478-5.872,1.738-8.82,2.044l2.822,12.362,9.19-2.088.586,2.2c-.095.319-.344.286-.578.367-3.057,1.065-6.967,1.336-10.091,2.406L40.553,52.587l22.683,9.12.37-.163,3.354-7.979,1.994.649c-.271,2.281-2.307,3.648-1.122,5.909a13.064,13.064,0,0,0,2.68,3.392c2.7,2.239,8.03,4.56,10.239,6.814.9.918,1.28,3.037,1.866,3.741.345.415,1.122.2,1.6.242a9.9,9.9,0,0,0-1.362-9.59c-2.735-3.418-6.541-6.388-9.329-9.826l-1.539-7.456L70.12,52.11ZM44.424,35.289l-7.239,1.638,4.088,7c.847-2.382,2.557-5.2,3.173-7.6a1.524,1.524,0,0,0-.022-1.047m5.258,43.918h16.7l-3.324-14.9-7.5-3.042-7.947,6.476L46.063,65.9l6.773-5.841L39.874,54.91c-1.006,5.578-.17,12.715,4.443,16.582.736.617,2.495,1.453,2.919,1.987.612.769,1.969,5.574,2.447,5.729m-2.686,0c-.74-1.006-1-3.373-1.763-4.194-.646-.7-2.505-1.6-3.375-2.465a18.154,18.154,0,0,1-2.688-3.856L36.484,79.207Z" transform="translate(-16.725 0)" fill="#6a2874"/>
              <path id="Trazado_1269286" data-name="Trazado 1269286" d="M14.252,187.087l5.155,4.668-1.417,1.865-5.157-4.434c-.342-.644,1.042-1.669,1.419-2.1" transform="translate(-9.794 -143.383)" fill="#6a2874"/>
              <path id="Trazado_1269287" data-name="Trazado 1269287" d="M22.232,252.207c.432-.084,1.771,1.047,1.7,1.448l-4.536,5.286-1.734-1.716Z" transform="translate(-13.535 -193.288)" fill="#6a2874"/>
              <path id="Trazado_1269288" data-name="Trazado 1269288" d="M7.143,228.067c-.221.636.562,2.1.013,2.466l-7.018.57L0,229.011l.286-.443Z" transform="translate(0 -174.79)" fill="#6a2874"/>
            </g>
          </g>
        </g>
      </g>
      <ellipse id="Elipse_13678" data-name="Elipse 13678" cx="18.074" cy="18.074" rx="18.074" ry="18.074" transform="translate(0.769 113.817)" fill="#da9dfe"/>
      <g id="Grupo_1207826" data-name="Grupo 1207826" transform="translate(0 116.123)">
        <path id="Trazado_998481" data-name="Trazado 998481" d="M0,13.012q4.541.393,9.077.815l-.253.1,1.3-2.34a.35.35,0,0,1,.4-.123.254.254,0,0,1,.184.174l0,.009,1.114,5.034-.836-.059,1.8-4.073,1.816-4.068,1.822-4.067L18.27.354a.772.772,0,0,1,.885-.326.543.543,0,0,1,.472.536V.572L18.9,7.156l-.762,6.581-.773,6.58-.8,6.579-1.5-.222c1.16-2.774,2.354-5.539,3.536-8.307l1.778-4.152,1.8-4.146,0-.01a.657.657,0,0,1,.753-.287.475.475,0,0,1,.413.442L23.082,15.5l-.295,5.285-.776-.111,2.607-5,0-.008a.274.274,0,0,1,.277-.117l4.931.63,4.928.647-4.969-.438-4.966-.456.281-.125L22.763,20.88a.443.443,0,0,1-.508.185.318.318,0,0,1-.269-.285v-.011l.074-5.289.1-5.289,1.17.145-1.676,4.175-1.7,4.17c-1.136,2.779-2.26,5.561-3.418,8.335a.838.838,0,0,1-.96.376c-.35-.082-.566-.334-.536-.6v0l.762-6.581.791-6.579.8-6.579L18.234.48,19.59.7,17.666,4.738,15.723,8.774l-1.948,4.035-1.966,4.029-.005.01a.482.482,0,0,1-.552.192.359.359,0,0,1-.279-.261L10.1,11.718l.586.059-1.431,2.3,0,.007a.257.257,0,0,1-.249.1Q4.5,13.609,0,13.012" transform="translate(0 4.236) rotate(-7)" fill="#fff"/>
      </g>
    </g>
    <path id="Trazado_1267128" data-name="Trazado 1267128" d="M77.377,52.427V64.859a.84.84,0,0,1-.841.84h-10a.841.841,0,0,0-.841.841v10a.841.841,0,0,1-.841.841H52.427a.841.841,0,0,1-.841-.841v-10a.841.841,0,0,0-.84-.841H40.713a.841.841,0,0,1-.841-.84V52.427a.841.841,0,0,1,.841-.841H50.745a.84.84,0,0,0,.84-.84V40.714a.841.841,0,0,1,.841-.841H64.858a.841.841,0,0,1,.841.841V50.746a.841.841,0,0,0,.841.84h10a.841.841,0,0,1,.841.841" transform="translate(630.197 8531.593)" fill="#8d1939"/>
  </g>
</svg>
