<svg xmlns="http://www.w3.org/2000/svg" xmlns:xlink="http://www.w3.org/1999/xlink" width="85" height="85" viewBox="0 0 85 85">
  <defs>
    <clipPath id="clip-path">
      <rect id="Rectángulo_459400" data-name="Rectángulo 459400" width="72.574" height="72.612" fill="#8d1939"/>
    </clipPath>
  </defs>
  <g id="Grupo_1208351" data-name="Grupo 1208351" transform="translate(-705.342 -410.426)">
    <path id="Sustracción_110" data-name="Sustracción 110" d="M15975.961,19829.512h85v85h-85Z" transform="translate(-15270.619 -19419.086)" fill="#ffe19a"/>
    <g id="Grupo_1209144" data-name="Grupo 1209144" transform="translate(712.342 416.427)">
      <g id="Grupo_1209143" data-name="Grupo 1209143" clip-path="url(#clip-path)">
        <path id="Trazado_1269091" data-name="Trazado 1269091" d="M49.077,0c15.7,1.723,26.429,16.246,22.783,31.833C68.754,45.112,56.918,57.152,47,65.863c-.57.255-6.734-5.973-7.809-6.764l-4.05-4.381V69.594c0,1.239-1.915,3.057-3.224,3.017H3.2A3.532,3.532,0,0,1,.172,70.231L0,17.188c.347-2.2,1.768-3.02,3.853-3.221L23.759,13.9c.37-.111,1.823-2.759,2.26-3.358A26.651,26.651,0,0,1,44.5,0ZM37.964,54.181c2.054,2.245,4.288,4.632,6.534,6.678.311.283,1.959,1.817,2.085,1.882.16.082.256.139.413,0,8.8-8.06,19.234-18.838,22.366-30.7C75.891,7.309,44.38-8.417,28.694,10.929c-11.962,14.753-1.355,31.64,9.27,43.252m-15.1-37.745H2.993a2.379,2.379,0,0,0-.571.678L2.257,68.562c.133,1.594.464,1.666,1.976,1.769,8.707.6,18.08-.472,26.858,0a1.606,1.606,0,0,0,1.763-1.566c.593-5.053-.443-11.253-.016-16.43a11.724,11.724,0,0,0-2.009-2.971c-.129-.15.01-.39-.477-.264v9.571H4.866l-.312-.312V23.51H20.886l.52-2.5H11.628V18.725h10.4ZM20.99,25.8H7.05V49.725a18.213,18.213,0,0,1,4.158-3.641A6.02,6.02,0,0,1,9.862,43.9c-.713-1.958-.856-9.931-.2-11.85,1.668-4.913,7.427-4.126,11.54-3.752Zm.577,5.042c-3.905-.842-10.528-1.589-9.941,4.322l2.674-.034a3.451,3.451,0,0,1,6.514,0l1.841.032ZM17.187,35.2a1.168,1.168,0,0,0,.74,2.214,1.168,1.168,0,0,0-.74-2.214m-5.56,2.251v4.057c0,2.1,2.151,4.442,4.115,5.039,4.547,1.381,7.538-1.99,7.754-6.277.027-.533.174-2.618-.351-2.79l-2.225-.038a3.515,3.515,0,0,1-6.62.042ZM28.064,49.725V45.46c0-.2-1.756-2.944-2.03-3.373-.132-.206.02-.372-.466-.267a6.468,6.468,0,0,1-1.646,4.265,23.167,23.167,0,0,1,4.141,3.64m-6.658-1.454a9.622,9.622,0,0,1-5.095.828c-.871-.09-1.573-.6-2.394-.519l3.64,3.638Zm-4.993,7.9,0-1.556-5.3-5.467c-2.378,1.46-3.573,4.376-4.06,7.023Zm11.651,0c-.521-2.7-1.7-5.469-4.059-7.037-.787,1.035-5.131,4.6-5.3,5.48-.09.477.043,1.06,0,1.556Z" fill="#8d1939"/>
        <rect id="Rectángulo_459397" data-name="Rectángulo 459397" width="2.291" height="2.291" transform="translate(37.425 70.321)" fill="#8d1939"/>
        <rect id="Rectángulo_459398" data-name="Rectángulo 459398" width="2.291" height="2.291" transform="translate(42.211 70.321)" fill="#8d1939"/>
        <rect id="Rectángulo_459399" data-name="Rectángulo 459399" width="2.291" height="2.291" transform="translate(46.788 70.321)" fill="#8d1939"/>
        <path id="Trazado_1269092" data-name="Trazado 1269092" d="M141.942,22.821c18.467-1.88,30.706,18.018,19.889,33.2C149.58,73.229,122.344,63.4,123.668,42.2c.6-9.569,8.641-18.4,18.274-19.383m.625,2.29c-13.919,1.313-21.381,18.1-13.151,29.463,7.657,10.568,23.536,10.561,30.838-.333,8.977-13.394-1.727-30.635-17.687-29.13" transform="translate(-97.901 -17.975)" fill="#8d1939"/>
        <path id="Trazado_1269093" data-name="Trazado 1269093" d="M57.213,292.551a54.651,54.651,0,0,1,8.075-.049c2.245.269,2.378,2.614,2.157,4.455-.213,1.778-1.041,2.446-2.788,2.622-1.461.146-6.771.184-7.875-.442-1.743-.987-1.709-6.105.432-6.586m7.758,2.245H58.1v2.289h6.866Z" transform="translate(-43.981 -231.547)" fill="#8d1939"/>
        <path id="Trazado_1269094" data-name="Trazado 1269094" d="M152.266,70.4c-.384,4.372,2.569,8.754,7.074,9.154V75.5c0-1.326,1.976-2.674,3.224-2.809a47.808,47.808,0,0,1,7.857.05c4.316.722,3.007,6.366,1.408,9.006-4.672,7.711-17.23,6.054-22.678-.011-4.832-5.38-6.048-17.731-.323-22.782,2.866-2.529,10.037-4.755,10.519.935a45.853,45.853,0,0,1-.062,7.443c-.185,1.266-1.636,3.071-2.962,3.071Zm2.289-11.651V67.8c0,.551,2.052.412,2.4-.718a45.44,45.44,0,0,0,0-7.51c-.343-1.129-1.468-.8-2.4-.822m-2.289.832a7.768,7.768,0,0,0-4.575,6.14c-.811,8.173,1.435,17.675,11.131,18.617,4.455.433,9.343.015,11.337-4.576h-8.53v2.29a10.766,10.766,0,0,1-10.652-5.891,18.935,18.935,0,0,1-1-3.161V68.11h2.289Zm9.675,17.893h8.738a1.434,1.434,0,0,0-.555-2.358,36.288,36.288,0,0,0-7.631,0,1.484,1.484,0,0,0-.552,2.36" transform="translate(-114.839 -44.6)" fill="#8d1939"/>
        <path id="Trazado_1269095" data-name="Trazado 1269095" d="M233.382,67.64c.565.5.642,1.715.712,1.784.225.225,1.825.027,2.163,1.473a13.065,13.065,0,0,1-.056,4.323c-.449,1.113-1.716.933-2.029,1.3-.474.556-.007,1.378-1.349,1.979a7.586,7.586,0,0,1-4.427.055c-1.051-.507-.918-1.394-1.387-1.942-.432-.5-1.522-.407-2.046-1.491a8.642,8.642,0,0,1-.1-4.162c.5-1.531,1.542-1.113,2.131-1.615.247-.211.25-.914.525-1.348.852-1.345,4.744-1.347,5.859-.358m-1.6,1.807h-2.291l0,2.291c-.565.1-2.261-.295-2.469.34L227,74.026l2.407.194.09,2.3,2.2-.2.09-2.3,2.291,0V71.735l-2.291,0Z" transform="translate(-177.919 -53.011)" fill="#8d1939"/>
      </g>
    </g>
  </g>
</svg>
