<svg xmlns="http://www.w3.org/2000/svg" xmlns:xlink="http://www.w3.org/1999/xlink" width="96" height="96" viewBox="0 0 96 96">
  <defs>
    <clipPath id="clip-path">
      <rect id="Rectángulo_455595" data-name="Rectángulo 455595" width="96" height="96" fill="none"/>
    </clipPath>
    <clipPath id="clip-path-2">
      <rect id="Rectángulo_459395" data-name="Rectángulo 459395" width="44.913" height="57.027" fill="#fff"/>
    </clipPath>
  </defs>
  <g id="Grupo_1208349" data-name="Grupo 1208349" transform="translate(-735.746 -9118)">
    <g id="Grupo_1180407" data-name="Grupo 1180407" transform="translate(735.746 9117.971)">
      <g id="Grupo_1179172" data-name="Grupo 1179172" transform="translate(0 0.03)" clip-path="url(#clip-path)">
        <path id="Trazado_998483" data-name="Trazado 998483" d="M92.562,52.469A40.092,40.092,0,1,1,52.469,12.377,40.093,40.093,0,0,1,92.562,52.469" transform="translate(-4.455 -4.484)" fill="#8d1939"/>
        <path id="Trazado_998485" data-name="Trazado 998485" d="M90.9,46.451A44.45,44.45,0,1,1,46.451,2,44.45,44.45,0,0,1,90.9,46.451Z" transform="translate(1.564 1.535)" fill="none" stroke="#8d1939" stroke-miterlimit="10" stroke-width="4"/>
      </g>
    </g>
    <g id="Grupo_1180408" data-name="Grupo 1180408" transform="translate(755.746 9137)">
      <g id="Grupo_1099618" data-name="Grupo 1099618" transform="translate(-0.035 -0.227)">
        <rect id="Rectángulo_401104" data-name="Rectángulo 401104" width="56.349" height="57.028" transform="translate(0)" fill="none"/>
      </g>
      <g id="Grupo_1209140" data-name="Grupo 1209140" transform="translate(5.965 -0.227)">
        <g id="Grupo_1209139" data-name="Grupo 1209139" clip-path="url(#clip-path-2)">
          <path id="Trazado_1269080" data-name="Trazado 1269080" d="M18.06,109.765v-2.476a3.214,3.214,0,0,1,.631-.807c.82-.634,1.927-.325,2.885-.391v-1.918H5.279v5.592H7.6a3.031,3.031,0,0,1,.485.485c.236.521-.256,1.048-.8,1.12a42.3,42.3,0,0,1-6.046-.042A1.977,1.977,0,0,1,.015,110L0,66.381a1.645,1.645,0,0,1,.847-1.55l43.105-.05.844.913.114,44a1.812,1.812,0,0,1-1.007,1.549l-33.793,0c-.706-.33-.265-1.48.042-1.48ZM43.3,66.307H1.6v43.458H3.521V69.9a1.911,1.911,0,0,1,1.274-1.6l34.919-.079A1.874,1.874,0,0,1,41.387,69.9v39.863H43.3ZM21.575,69.822H5.279v32.753h16.3Zm18.054,0h-16.3v32.753h16.3Zm0,34.351h-16.3v1.918c.958.066,2.064-.243,2.884.391a3.211,3.211,0,0,1,.631.807v2.476H39.63Zm-18.053,3.514c-.416.066-1.633-.159-1.848.15l-.07,1.928h1.919Zm3.675,2.079-.071-1.928c-.216-.31-1.433-.084-1.848-.15v2.079Z" transform="translate(0 -54.431)" fill="#fff"/>
          <path id="Trazado_1269081" data-name="Trazado 1269081" d="M51.816,217.067c-.221-.19-4.98.093-5.822-.009a1.686,1.686,0,0,1-1.356-1.521c-.148-1.222-.212-3.394,1.355-3.606,1.719-.233,3.962.18,5.741.017.326-1.006.463-1.69,1.654-1.889,1.3-.217,3.521-.207,3.72,1.476a38.474,38.474,0,0,1,0,5.759c-.218,1.816-2.258,1.88-3.72,1.636-1.075-.18-1.44-.844-1.572-1.863m3.69.144v-5.352a2.009,2.009,0,0,0-2.077,0v5.352Zm-3.675-3.675H46.239v1.917h5.592Z" transform="translate(-37.446 -176.416)" fill="#fff"/>
          <path id="Trazado_1269082" data-name="Trazado 1269082" d="M80.1,109.029A31.738,31.738,0,0,1,84.842,109a1.657,1.657,0,0,1,1.131,1.106l.079,11.591A1.715,1.715,0,0,1,84.9,123.1a20.051,20.051,0,0,1-4.49.068,1.881,1.881,0,0,1-1.325-1.072l-.075-11.6a1.741,1.741,0,0,1,1.082-1.474m4.354,1.558H80.616v11.024H84.21l.24-.24Z" transform="translate(-66.39 -91.521)" fill="#fff"/>
          <path id="Trazado_1269083" data-name="Trazado 1269083" d="M162.74,211.922c.221.19,4.981-.1,5.823.009a1.628,1.628,0,0,1,1.355,1.521c.139,1.172.2,3.415-1.355,3.606-1.752.214-3.938-.166-5.741-.017-.329,1.087-.527,1.741-1.789,1.913-1.446.2-3.37.123-3.585-1.66a38.492,38.492,0,0,1,0-5.759c.2-1.682,2.423-1.693,3.72-1.476,1.075.18,1.44.844,1.572,1.863m-1.613,5.289v-5.352a2.009,2.009,0,0,0-2.077,0v5.352Zm7.19-3.675h-5.592v1.917h5.592Z" transform="translate(-132.202 -176.416)" fill="#fff"/>
          <path id="Trazado_1269084" data-name="Trazado 1269084" d="M159.1,109.029a31.739,31.739,0,0,1,4.746-.032,1.657,1.657,0,0,1,1.131,1.106l.079,11.591A1.715,1.715,0,0,1,163.9,123.1a20.051,20.051,0,0,1-4.49.068,1.881,1.881,0,0,1-1.325-1.072l-.075-11.6a1.741,1.741,0,0,1,1.082-1.474m4.354,1.558h-3.835v10.785l.24.24h3.595Z" transform="translate(-132.768 -91.521)" fill="#fff"/>
          <path id="Trazado_1269085" data-name="Trazado 1269085" d="M122.8,2.149c.413.051,1.654-.151,1.88.207a11.533,11.533,0,0,1,0,3.6c-.335.472-1.364.259-1.88.3-.054.527.2,1.526-.324,1.857a10.948,10.948,0,0,1-3.3.082c-.731-.237-.439-1.352-.491-1.94-.5-.031-1.674.17-1.933-.373a15.446,15.446,0,0,1,.021-3.462c.2-.47,1.466-.215,1.912-.277.062-.506-.188-1.592.255-1.926a7.831,7.831,0,0,1,3.522-.045c.559.324.268,1.4.335,1.971m-1.37-.749H120.06c.151,1.846-.048,2.325-1.994,2.119V4.892c1.989-.163,2.132.014,1.994,1.994h1.372c.048-.438-.16-1.694.247-1.934l1.747-.06V3.519c-.65-.05-1.457.212-1.933-.373Z" transform="translate(-98.029 0)" fill="#fff"/>
        </g>
      </g>
    </g>
  </g>
</svg>
