<svg xmlns="http://www.w3.org/2000/svg" xmlns:xlink="http://www.w3.org/1999/xlink" width="85" height="85" viewBox="0 0 85 85">
  <defs>
    <clipPath id="clip-path">
      <rect id="Rectángulo_459520" data-name="Rectángulo 459520" width="77.289" height="77.278" fill="#8d1939"/>
    </clipPath>
  </defs>
  <g id="Grupo_1208380" data-name="Grupo 1208380" transform="translate(-705.342 -409.729)">
    <path id="Sustracción_110" data-name="Sustracción 110" d="M15975.961,19829.512h85v85h-85Z" transform="translate(-15270.619 -19419.781)" fill="#ffe19a"/>
    <g id="Grupo_1209326" data-name="Grupo 1209326" transform="translate(709.342 413.73)">
      <g id="Grupo_1209325" data-name="Grupo 1209325" clip-path="url(#clip-path)">
        <path id="Trazado_1269507" data-name="Trazado 1269507" d="M68.527,82.871,90.581,60.733l.053-.509L60.782,30.26c-.576-.23-.925.148-1.338.462C55.27,33.889,51.335,39.6,47.159,43.013a1.107,1.107,0,0,1-1.889-.982L58.45,28.62a3.258,3.258,0,0,1,3.277-.394c10.4,9.664,20.2,20.111,30.387,30.061a3.262,3.262,0,0,1,0,4.219l-29.56,29.56a3.263,3.263,0,0,1-4.219,0l-29.56-29.56a3.29,3.29,0,0,1-.107-4.1l13.736-13.73c1.183-.408,1.833.554,1.432,1.66L30.309,60.06l-.053.509L52.142,82.649V78.775c-1.732-.77-2.96-.621-3.921-2.5-1.243-2.431-1.3-7.492-2.22-10.622-1.005-3.429-2.93-6.06-3.994-9.07-2.4-6.789,4.788-5.468,7.371-1.614l2.765,3.988V42.24c0-1.865,2.919-3.517,4.651-2.988-.706-4.757,5.247-6.95,6.866-2.214a3.88,3.88,0,0,1,4.2,1.217,9.541,9.541,0,0,1,.664,1.107v4.761a3.7,3.7,0,0,1,4.844,3.46c-.322,7.753.522,15.978.038,23.675A8.316,8.316,0,0,1,71.3,76.9c-.507.58-2.771,2.273-2.771,2.765Zm-11.735-23.8V42.018c0-.564-2.115-1.193-2.423.677l.193,17.938C57.52,62.314,60.04,65.9,58.9,69.369c-2.545.988-1.9-1.593-2.261-3.063-.79-3.227-3.948-3.517-5.837-5.234-1.5-1.361-3.946-6.886-6.094-7.206-1.428-.213-.905,1.046-.58,1.923,1.1,2.967,2.952,5.552,3.962,8.881.97,3.2.968,6.154,1.677,9.173.755,3.218,2.019,1.6,3.693,2.95.865.7,1.114,3.111,1.128,4.191.015,1.2-.512,2.855-.188,3.947a54.741,54.741,0,0,0,5.707,5.6,1,1,0,0,0,.509.053c1.018-.162,4.467-4.473,5.581-5.283.355-1.814-.079-3.841.114-5.643.316-2.948,4.074-3.593,4.6-6.695-.5-8.121.846-17.442.066-25.425-.159-1.628-1.548-1.973-2.352-.553l-.1,12.524a1.11,1.11,0,0,1-2.007.234l-.214-19.714a1.215,1.215,0,0,0-2.222-.462l-.213,19.715c-.735,1.563-2.067,1.36-2.218-.428-.56-6.655.448-14.073,0-20.81-.255-1.626-2.214-1.846-2.433-.245l0,21.253a1.211,1.211,0,0,1-2.421.014" transform="translate(-21.802 -21.761)" fill="#8d1939"/>
        <path id="Trazado_1269508" data-name="Trazado 1269508" d="M37.6.058A8.215,8.215,0,0,1,43.73,1.773L57.585,15.594c.745,1.263-.471,2.167-1.684,1.463L42.369,3.577c-2.7-1.958-5.416-1.685-7.938.4L3.877,34.536a6.007,6.007,0,0,0,0,8.2L34.43,73.292c2.791,2.308,5.642,2.3,8.424,0,4.054-3.35,7.708-8.236,11.718-11.751,1.139-.749,2.385.273,1.686,1.461L43.849,75.393a8.116,8.116,0,0,1-10.525-.108L1.884,43.841a8.116,8.116,0,0,1,.108-10.525L33.437,1.876A8.225,8.225,0,0,1,37.6.058" transform="translate(0 0.001)" fill="#8d1939"/>
        <path id="Trazado_1269509" data-name="Trazado 1269509" d="M262.006,84.273a1.16,1.16,0,0,1,1.4-.068L278.008,98.83a8.123,8.123,0,0,1,0,10.412l-15.933,15.951-1.232.1-.617-1.075,15.788-16.085a6,6,0,0,0,.1-8.079L261.941,85.892a1.444,1.444,0,0,1,.066-1.619" transform="translate(-202.607 -65.401)" fill="#8d1939"/>
      </g>
    </g>
  </g>
</svg>
