<svg xmlns="http://www.w3.org/2000/svg" xmlns:xlink="http://www.w3.org/1999/xlink" width="150" height="150" viewBox="0 0 150 150">
  <defs>
    <clipPath id="clip-path">
      <rect id="Rectángulo_459444" data-name="Rectángulo 459444" width="81.578" height="72" fill="#6a2874"/>
    </clipPath>
  </defs>
  <g id="Grupo_1208382" data-name="Grupo 1208382" transform="translate(-561.711 -8567.084)">
    <g id="Grupo_1207828" data-name="Grupo 1207828" transform="translate(561.711 8567.084)">
      <g id="Grupo_1177470" data-name="Grupo 1177470" transform="translate(0 0)">
        <circle id="Elipse_13609" data-name="Elipse 13609" cx="75" cy="75" r="75" fill="#f6e1fe"/>
        <g id="Grupo_1207827" data-name="Grupo 1207827" transform="translate(32.621 32.621)">
          <g id="Grupo_1099618" data-name="Grupo 1099618" transform="translate(-1.792 0.009)">
            <rect id="Rectángulo_401104" data-name="Rectángulo 401104" width="84.532" height="84.532" transform="translate(0)" fill="none"/>
          </g>
          <g id="Grupo_1209198" data-name="Grupo 1209198" transform="translate(-0.792 6.008)">
            <g id="Grupo_1209197" data-name="Grupo 1209197" clip-path="url(#clip-path)">
              <path id="Trazado_1269282" data-name="Trazado 1269282" d="M10.484,22.266l3.644,6.995c15.207-3.79,29.265-10.8,43.633-16.828-.458-1.757-1.642-3.068-1.347-4.973C57.151,2.7,64.137.314,66.985,4.732c2.464,3.821,3.848,9.915,6.119,14.009A3.689,3.689,0,0,1,71.221,23.2c-.77.484-3.452,2-3.982.934-1.083-2.179,4.591-2.011,3.878-4.562L66.423,8.927c-.354,1.379-1.854,2.494-3.041,3.162C58,15.112,49.961,18.174,44.11,20.668c-9.5,4.051-19.133,7.983-29.179,10.493l2.443,5.3a26.633,26.633,0,0,0,4.343-.743c1.131-.312,4.062-1.884,4.6-1.934.9-.083,1.346,1.113.965,1.771-.6,1.036-7.766,3.138-9.31,2.857.616,1.418.363,4.619,1.414,5.488,2.956,2.442,9.369-2.116,12.155-3.505,4.278-2.133,8.631-4.114,12.871-6.324,1.353-.506,2.189.69,1.244,1.778q-6.874,3.219-13.647,6.652c-3.529,1.78-7.053,4.6-11.32,4.074-.9-.11-1.607-.6-2.483-.677-.733,3.207-1.961,6.287-2.507,9.548-1.572,9.389,1.288,15.291,11.747,14.322,4.99-.463,7.378-4.516,11.67-5.65,9.312-2.459,19.107,9.532,27.847,3.039,1.587-1.179,2.047-2.59,3.12-4.135,2.643-.036,8.619.418,9.338-3.068.41-1.987-1.245-3.623-3.112-3.935-3.16-.529-4.576.744-7.319,1.464-10.19,2.675-19.185-3.4-25.4-10.877-.712-.858-3.6-4.539-3.809-5.329s.124-1.489,1.007-1.486,2.132,2.583,2.733,3.375c5.868,7.726,14.6,15.058,25.05,12.264,2.948-.788,4.327-1.939,7.724-1.506,3.547.453,6.179,3.577,4.986,7.194-1.221,3.7-6.883,4.144-10.149,4.012-1.338,3.163-4.543,5.109-7.807,5.883-5.608,1.33-12.4-3.118-17.8-4.578C36.456,63.981,35.5,71.06,27.891,71.854c-14.4,1.5-16.312-8.915-13.412-20.433.556-2.21,2.111-5.518,2.3-7.534.512-5.45-7.523-19.492-10.469-24.587C5.515,17.922-.054,9.454,0,8.845A1.931,1.931,0,0,1,.657,7.86C2.1,7.153,3,10.632,3.764,11.2a20.5,20.5,0,0,0,3.589.742,19.738,19.738,0,0,0,15.537-4.3,33.19,33.19,0,0,0,2.818-2.8c.675-1.151-.636-2.8-.485-3.979A1.074,1.074,0,0,1,27.276.675c1.5,6.475,3.347,12.86,5.437,19.162a1.048,1.048,0,0,1-1.847.886L26.519,7.055c-5.5,5.97-12.97,8-20.949,6.787L8.832,19.76l.644.343a21.653,21.653,0,0,0,10.258-1.108c.8-.3,2.25-1.268,2.858-1.366,1.177-.19,1.743,1.205.609,2.026a24.173,24.173,0,0,1-7.686,2.611ZM61.912,4.535c-3.637.6-4.176,4.3-2.163,6.96,2.262-1.274,4.185-1.251,5.1-4.025.248-.755.6-1.43.071-2.07a3.24,3.24,0,0,0-3.006-.864" transform="translate(0 0.001)" fill="#6a2874"/>
              <path id="Trazado_1269283" data-name="Trazado 1269283" d="M213.76,98.909c17.029-2.3,17.97,22.858,2.267,23.118-14.526.241-15.748-21.294-2.267-23.118m1.877,1.876c-12.444.256-12.217,19.159.168,19.148,12.5-.011,12.431-19.407-.168-19.148" transform="translate(-156.523 -75.646)" fill="#6a2874"/>
              <path id="Trazado_1269284" data-name="Trazado 1269284" d="M235.6,128.355h4.1c.71,0,.907,2.106-.468,2.106H235.6v3.862c0,1-2.106.977-2.106.234v-4.1h-3.628c-1.515,0-1.12-2.106-.468-2.106h4.1v-4.1c0-1.16,2.106-.758,2.106,0Z" transform="translate(-175.269 -94.62)" fill="#6a2874"/>
            </g>
          </g>
        </g>
      </g>
      <ellipse id="Elipse_13678" data-name="Elipse 13678" cx="18.074" cy="18.074" rx="18.074" ry="18.074" transform="translate(0.769 113.817)" fill="#da9dfe"/>
      <g id="Grupo_1207826" data-name="Grupo 1207826" transform="translate(0 116.123)">
        <path id="Trazado_998481" data-name="Trazado 998481" d="M0,13.012q4.541.393,9.077.815l-.253.1,1.3-2.34a.35.35,0,0,1,.4-.123.254.254,0,0,1,.184.174l0,.009,1.114,5.034-.836-.059,1.8-4.073,1.816-4.068,1.822-4.067L18.27.354a.772.772,0,0,1,.885-.326.543.543,0,0,1,.472.536V.572L18.9,7.156l-.762,6.581-.773,6.58-.8,6.579-1.5-.222c1.16-2.774,2.354-5.539,3.536-8.307l1.778-4.152,1.8-4.146,0-.01a.657.657,0,0,1,.753-.287.475.475,0,0,1,.413.442L23.082,15.5l-.295,5.285-.776-.111,2.607-5,0-.008a.274.274,0,0,1,.277-.117l4.931.63,4.928.647-4.969-.438-4.966-.456.281-.125L22.763,20.88a.443.443,0,0,1-.508.185.318.318,0,0,1-.269-.285v-.011l.074-5.289.1-5.289,1.17.145-1.676,4.175-1.7,4.17c-1.136,2.779-2.26,5.561-3.418,8.335a.838.838,0,0,1-.96.376c-.35-.082-.566-.334-.536-.6v0l.762-6.581.791-6.579.8-6.579L18.234.48,19.59.7,17.666,4.738,15.723,8.774l-1.948,4.035-1.966,4.029-.005.01a.482.482,0,0,1-.552.192.359.359,0,0,1-.279-.261L10.1,11.718l.586.059-1.431,2.3,0,.007a.257.257,0,0,1-.249.1Q4.5,13.609,0,13.012" transform="translate(0 4.236) rotate(-7)" fill="#fff"/>
      </g>
    </g>
    <path id="Trazado_1267128" data-name="Trazado 1267128" d="M77.377,52.427V64.859a.84.84,0,0,1-.841.84h-10a.841.841,0,0,0-.841.841v10a.841.841,0,0,1-.841.841H52.427a.841.841,0,0,1-.841-.841v-10a.841.841,0,0,0-.84-.841H40.713a.841.841,0,0,1-.841-.84V52.427a.841.841,0,0,1,.841-.841H50.745a.84.84,0,0,0,.84-.84V40.714a.841.841,0,0,1,.841-.841H64.858a.841.841,0,0,1,.841.841V50.746a.841.841,0,0,0,.841.84h10a.841.841,0,0,1,.841.841" transform="translate(630.197 8531.593)" fill="#8d1939"/>
  </g>
</svg>
