<svg xmlns="http://www.w3.org/2000/svg" xmlns:xlink="http://www.w3.org/1999/xlink" width="113.341" height="113.341" viewBox="0 0 113.341 113.341">
  <defs>
    <clipPath id="clip-path">
      <rect id="Rectángulo_459448" data-name="Rectángulo 459448" width="68.464" height="77.919" fill="#6a2874"/>
    </clipPath>
  </defs>
  <g id="Grupo_1209831" data-name="Grupo 1209831" transform="translate(-587.643 -1918.31)">
    <path id="Trazado_998483" data-name="Trazado 998483" d="M125.718,69.047a56.67,56.67,0,1,1-56.67-56.67,56.671,56.671,0,0,1,56.67,56.67" transform="translate(575.266 1905.933)" fill="#fff"/>
    <g id="Grupo_1209205" data-name="Grupo 1209205" transform="translate(610.711 1936)" clip-path="url(#clip-path)">
      <path id="Trazado_1269305" data-name="Trazado 1269305" d="M43.506,30.8A8.12,8.12,0,0,1,53.852,32.58,8.307,8.307,0,0,1,68.4,39.123c-.146,1.318-1.677,5.935-3.2,5.941-2.334.009.059-3.252.376-4.1,2.374-6.3-3.7-11.675-8.831-7.941-1.177.857-1.465,2.391-3.119,2.244-.974-.086-1.208-1.077-1.883-1.693a5.974,5.974,0,0,0-9.864,2.6c-1.06,3.7,1.854,7.969,4.182,10.643,1.4,1.607,6.789,5.884,6.789,7.673v5.006h2.225V54.054c0-1.08,4.748-5.191,5.791-6.224.661-.654.607-1.44,1.874-1.23.748.124.891.742.751,1.4-.294,1.376-5.062,4.827-6.023,6.226-.615,1.665.471,5.729-.684,6.993-.633.693-1.755.416-1.907.54a24.7,24.7,0,0,1-1.137,2.534c-3.592,4.819-9.814.81-13.014,3.673-1.967,1.759-1.065,4.028-2.075,6.157-2.013,4.241-7.719,3.955-11.729,3.639-3.056-.241-6.333-2.846-6.333-6.127V68.182c-1.344-.084-4.452.5-4.847-1.271a19.468,19.468,0,0,1,.052-4.525c.368-1.177,1.883-1.04,1.915-1.229-.219-2.181.248-4.767,0-6.892-.038-.324-.028-.572-.345-.767h-4c-3.42,0-8.065-4.982-8.286-8.4l.119-34.7c.734-2.228,5.915-1.6,7.592-.6a22.913,22.913,0,0,1,2.263,1.965,12.027,12.027,0,0,0,13.533,0c1.27-.965,1.819-2.176,3.62-2.61,1.871-.45,6.192-.716,6.416,1.957L38.554,45.1c-.75,4.185-4.43,7.972-8.733,8.4-.764.076-3.286-.177-3.683.1l-.208,2.8H37.61c.077,0,1.236-.479,1.425-.578a4.5,4.5,0,0,0,2.248-3.537,55.313,55.313,0,0,0-.011-8.224c-.116-.625-1.121-2.125-1.387-3.062-.974-3.424-.411-5.752,1.407-8.73-.611-7.983.777-17.095,0-24.942a1.437,1.437,0,0,0-.214-.9c-.439-.556-3.883-.247-4.928-.412-1.99-.315-3.978-1.818-5.991-2.463A29.039,29.039,0,0,0,12.3,3.934c-1.608.624-3.083,1.8-4.825,2.072-1.083.17-4.3-.108-4.817.3-.719.566-.084,5.546-.318,6.8a1.1,1.1,0,0,1-2.2-.007,39.564,39.564,0,0,1,0-6.643c.545-3.848,5.528-2,8.278-3.069C11.651,2.128,13.376.854,17.167.347,24.749-.666,28.361.6,35.053,3.323c2.331.947,4.164.174,6.244.654.828.191,2.209,1.414,2.209,2.241Zm-7.12-19.58H32.938c-.777,0-2.378,1.828-3.022,2.318-4.258,3.234-11.512,3.514-15.851.314-.737-.544-2.546-2.632-3.376-2.632H7.24V23.572c2.931,1.65,5.681-.905,8.794-.789,2.18.081,4.026,1.507,6.234,1.355,1.9-.131,3.608-1.388,5.779-1.361,2.873.035,5.392,2.369,8.34.907Zm0,14.907a12.88,12.88,0,0,1-3.2.195c-1.747-.17-3.665-1.342-5.356-1.313-2.252.038-4.131,1.587-6.907,1.338-1.722-.155-3.6-1.367-5.331-1.338-1.6.027-3.462,1.148-5.155,1.313a12.879,12.879,0,0,1-3.2-.195v18.8a18.6,18.6,0,0,0,1,2.34,8.068,8.068,0,0,0,5.222,3.9c2.915.532,12.755.4,15.928.11,3.065-.281,7-3.595,7-6.8Zm7.12,21.137v5.674c0,2.287-3.4,5.674-5.674,5.674h-11.9l.009,2.661a1.813,1.813,0,0,1,1.826.955,17.631,17.631,0,0,1,.121,4.681,3.011,3.011,0,0,1-1.622,1.27H22.814v3.226a4.777,4.777,0,0,0,2.554,3.676c1.418.6,6.787.665,8.361.342A4.479,4.479,0,0,0,37,72.024c.1-.578-.023-1.167.076-1.7a6.938,6.938,0,0,1,5.669-5.678c3.235-.425,8.549,1.384,9.66-2.909-3.311-.5-1.463-5.264-2.118-7.563ZM23.7,53.5H19.922V56.39H23.7Zm0,5.117H19.922v2.67H23.7Zm2,4.895H17.919v2.447h7.787Z" transform="translate(0 0)" fill="#6a2874"/>
      <path id="Trazado_1269306" data-name="Trazado 1269306" d="M.538,76.989c.247-.88,2.225-.6,2.225,0v35.377a7.486,7.486,0,0,0,1.216,2.121,4.731,4.731,0,0,0,3.115,1.335c1.529.132,6.785-.337,7.685.1.511.25.53,1.016.409,1.521-.127.368-.619.522-.981.578-1.715.266-7.805.157-9.377-.383-1.7-.586-4.292-3.2-4.292-5.053Z" transform="translate(-0.418 -59.425)" fill="#6a2874"/>
      <path id="Trazado_1269307" data-name="Trazado 1269307" d="M82.959,19.9a3.115,3.115,0,0,1,.693,3.321c-1.473,4.286-10.086,3.882-10.973-.27-1.037-4.856,7.4-6.17,10.28-3.051m-1.78,3.183c1.282-1.24-.619-2.4-1.833-2.573-1.605-.222-3.858-.07-4.494,1.683.682,2.224,4.839,2.329,6.327.89" transform="translate(-56.44 -14.159)" fill="#6a2874"/>
      <path id="Trazado_1269308" data-name="Trazado 1269308" d="M79.229,135.471a1.889,1.889,0,0,1,2.025,1c1.009,1.394,3.42,6.344,3.6,7.972.673,6.2-7.064,8.338-9.8,3.567-1.509-2.634-.288-5.131.857-7.61.493-1.066,2.252-4.71,3.318-4.928m.392,2.858c-1.046,1.972-3.567,5.792-2.9,8.016.6,2,3.5,2.623,5.026,1.225,2.469-2.258-.967-6.967-2.125-9.241" transform="translate(-57.809 -105.296)" fill="#6a2874"/>
      <path id="Trazado_1269309" data-name="Trazado 1269309" d="M49.248,129.545a1.185,1.185,0,0,1-.509,1.943,21.641,21.641,0,0,1-5.132-.195,1.148,1.148,0,0,1,.516-1.974c.708-.153,4.733-.168,5.126.226" transform="translate(-33.607 -100.468)" fill="#6a2874"/>
      <path id="Trazado_1269310" data-name="Trazado 1269310" d="M49.03,149.126c.957.158.978,1.691.222,2.225H44.135c-.726,0-.726-2.225,0-2.225a38.953,38.953,0,0,1,4.895,0" transform="translate(-33.892 -115.876)" fill="#6a2874"/>
      <path id="Trazado_1269311" data-name="Trazado 1269311" d="M49.248,85.19c-.393.393-4.418.379-5.126.226a1.148,1.148,0,0,1-.516-1.974,21.638,21.638,0,0,1,5.132-.195,1.185,1.185,0,0,1,.509,1.943" transform="translate(-33.607 -64.675)" fill="#6a2874"/>
      <path id="Trazado_1269312" data-name="Trazado 1269312" d="M83.779,83.5c.359-.358,4.5-.4,5.17-.271a1.128,1.128,0,0,1,.465,2.015,19.322,19.322,0,0,1-4.905.2,1.206,1.206,0,0,1-.73-1.944" transform="translate(-64.915 -64.661)" fill="#6a2874"/>
    </g>
  </g>
</svg>
