<svg xmlns="http://www.w3.org/2000/svg" xmlns:xlink="http://www.w3.org/1999/xlink" width="96" height="96" viewBox="0 0 96 96">
  <defs>
    <clipPath id="clip-path">
      <rect id="Rectángulo_455595" data-name="Rectángulo 455595" width="96" height="96" fill="none"/>
    </clipPath>
    <clipPath id="clip-path-2">
      <rect id="Rectángulo_459569" data-name="Rectángulo 459569" width="46.21" height="57.027" fill="#fff"/>
    </clipPath>
  </defs>
  <g id="Grupo_1208680" data-name="Grupo 1208680" transform="translate(-735.746 -9118)">
    <g id="Grupo_1180407" data-name="Grupo 1180407" transform="translate(735.746 9117.971)">
      <g id="Grupo_1179172" data-name="Grupo 1179172" transform="translate(0 0.03)" clip-path="url(#clip-path)">
        <path id="Trazado_998483" data-name="Trazado 998483" d="M92.562,52.469A40.092,40.092,0,1,1,52.469,12.377,40.093,40.093,0,0,1,92.562,52.469" transform="translate(-4.455 -4.484)" fill="#8d1939"/>
        <path id="Trazado_998485" data-name="Trazado 998485" d="M90.9,46.451A44.45,44.45,0,1,1,46.451,2,44.45,44.45,0,0,1,90.9,46.451Z" transform="translate(1.564 1.535)" fill="none" stroke="#8d1939" stroke-miterlimit="10" stroke-width="4"/>
      </g>
    </g>
    <g id="Grupo_1180408" data-name="Grupo 1180408" transform="translate(755.746 9137)">
      <g id="Grupo_1099618" data-name="Grupo 1099618" transform="translate(0.297 -0.465)">
        <rect id="Rectángulo_401104" data-name="Rectángulo 401104" width="56.349" height="57.028" transform="translate(0)" fill="none"/>
      </g>
      <g id="Grupo_1209411" data-name="Grupo 1209411" transform="translate(5.297 -0.465)">
        <g id="Grupo_1209410" data-name="Grupo 1209410" clip-path="url(#clip-path-2)">
          <path id="Trazado_1270087" data-name="Trazado 1270087" d="M52.934,9.859c.1-.475.809-.975,1.111-1.333l.111-2.66c.467-.608,1.192-.5,1.875-.488.173-.171-.236-4.078.12-4.851a.878.878,0,0,1,1.681.36c.088.679-.168,4.332-.009,4.491,3.129-.4,1.727,1.695,2.116,3.306.023.1.585.372.793.71.586.951.375,2.832.228,3.927L58.478,15.4c.342.5,2.6,1.832,2.6,2.281v2.852h4.644c.212,0,.677.464.73.737a33.247,33.247,0,0,1,0,4.555c-.21,1.119-2.021.158-2.25.847l-2.974,27.5a3.191,3.191,0,0,1-2.84,2.7c-6.48-.353-13.465.477-19.886.009a3.172,3.172,0,0,1-3.133-2.571l-3-27.638-.239-.25c-.6-.2-1.828.377-2.01-.6a33.248,33.248,0,0,1,0-4.555c.053-.272.518-.737.73-.737H35.5V7.252c0-.786,1.041-1.618,1.137-2.122C36.942,3.518,35.8.875,38.341.644a60.694,60.694,0,0,1,8.649,0c2.461.293,1.157,3.144,1.579,4.614.106.369,1.106,1.273,1.106,1.827V20.533h3.259ZM40.06,2.445h-1.63V4.808a1.3,1.3,0,0,0,1.63,0Zm3.259,0H41.853V5.052H43.32Zm3.422,0h-1.63V4.808c.388.447,1.093.184,1.63.244Zm1.141,6.681c-.127-1.073.508-2.153-.887-2.291-2.9-.287-6.313.211-9.271.037-.637.214-.394,1.717-.434,2.255ZM58.149,7.171H55.867V8.311h2.281Zm-3.585,3.5v9.859H59.29l-.083-2.28c-.641-.594-3.126-2.022-3.107-2.855.022-1,2.77-2.158,3.11-2.848.254-.516.267-2.3-.5-2.442a16.537,16.537,0,0,0-3.877.147,1.047,1.047,0,0,0-.274.419m-6.681.244H37.29v6.355H47.882Zm0,8.148H37.535c-.426.347-.2.975-.244,1.467H47.882Zm-15.97,5.7H64.586a2.66,2.66,0,0,0,0-2.444H31.912ZM62.386,26.4H34.194l3.256,28.277,1.055.412c6.309-.439,13.35.557,19.571,0,.753-.067,1.2-.28,1.366-1.079Z" transform="translate(-25.149 0)" fill="#fff"/>
          <path id="Trazado_1270088" data-name="Trazado 1270088" d="M230.161,57.938c6.464-.935,7.43,8.7,1.407,9.39-6.315.725-7.287-8.54-1.407-9.39m1.994,1.914a3.03,3.03,0,0,0-3.909,4.073c1.08-1.147,2.727-2.363,3.666-3.584.126-.163.316-.207.243-.489m-2.443,5.538c2.781.829,4.783-1.36,3.909-4.073-1.08,1.147-2.726,2.363-3.666,3.584-.126.163-.315.207-.243.489" transform="translate(-189.379 -48.443)" fill="#fff"/>
          <path id="Trazado_1270089" data-name="Trazado 1270089" d="M5.249,52.791a2.635,2.635,0,0,1,3.263,3.427,61.19,61.19,0,0,1-4.106,6.974A2.614,2.614,0,0,1,.119,60.534c1.308-1.939,2.464-5.121,3.9-6.856a3.017,3.017,0,0,1,1.231-.887m.349,5c.237-.794,1.82-2.316,1.08-3.071C5.584,53.6,4.659,56.3,4.178,56.941c-.04.4,1.149,1.005,1.42.847m-.953,1.654L3.028,58.8c-.189.819-1.637,2.261-1.079,3.092,1.443.935,1.963-1.618,2.7-2.448" transform="translate(0 -44.12)" fill="#fff"/>
          <path id="Trazado_1270090" data-name="Trazado 1270090" d="M136.036,186.642c.974-.332,1.29.172,1.366,1.024.538,6.012-.42,12.818,0,18.914-.148,1.487-1.836,1.308-1.8-.159.422-6.046-.535-12.794,0-18.755.031-.343.058-.893.441-1.024" transform="translate(-113.358 -156.141)" fill="#fff"/>
          <path id="Trazado_1270091" data-name="Trazado 1270091" d="M95.846,187.1c.283-.282,1.334-.363,1.471.163l.123,19.6c-.108,1.376-1.691,1.376-1.8,0,.394-6.119-.513-12.87,0-18.913.021-.253.028-.671.208-.851" transform="translate(-79.919 -156.423)" fill="#fff"/>
          <path id="Trazado_1270092" data-name="Trazado 1270092" d="M178.076,187.1c.18.179.187.6.208.851.51,6.044-.4,12.794,0,18.913-.108,1.376-1.691,1.376-1.8,0l.123-19.6c.137-.526,1.188-.445,1.471-.163" transform="translate(-147.723 -156.423)" fill="#fff"/>
          <path id="Trazado_1270093" data-name="Trazado 1270093" d="M93.7,69.832c.3.3.18,1.174.2,1.591,2.429-.277,2.642,2.22,0,1.791.439,2.642-2.228,2.649-1.791,0l-1.468-.08c-.993-1.163.251-1.934,1.468-1.711-.418-1.033.7-2.475,1.59-1.591" transform="translate(-75.57 -58.222)" fill="#fff"/>
        </g>
      </g>
    </g>
  </g>
</svg>
