<svg xmlns="http://www.w3.org/2000/svg" xmlns:xlink="http://www.w3.org/1999/xlink" width="96" height="96" viewBox="0 0 96 96">
  <defs>
    <clipPath id="clip-path">
      <rect id="Rectángulo_455595" data-name="Rectángulo 455595" width="96" height="96" fill="none"/>
    </clipPath>
    <clipPath id="clip-path-2">
      <rect id="Rectángulo_459106" data-name="Rectángulo 459106" width="50.884" height="55.618" fill="#fff"/>
    </clipPath>
  </defs>
  <g id="Grupo_1207706" data-name="Grupo 1207706" transform="translate(-735.746 -9118)">
    <g id="Grupo_1180407" data-name="Grupo 1180407" transform="translate(735.746 9117.971)">
      <g id="Grupo_1179172" data-name="Grupo 1179172" transform="translate(0 0.03)" clip-path="url(#clip-path)">
        <path id="Trazado_998483" data-name="Trazado 998483" d="M92.627,52.5A40.125,40.125,0,1,1,52.5,12.377,40.125,40.125,0,0,1,92.627,52.5" transform="translate(-4.488 -4.517)" fill="#8d1939"/>
        <path id="Trazado_998485" data-name="Trazado 998485" d="M90.973,46.487A44.486,44.486,0,1,1,46.487,2,44.486,44.486,0,0,1,90.973,46.487Z" transform="translate(1.527 1.499)" fill="none" stroke="#8d1939" stroke-miterlimit="10" stroke-width="4"/>
      </g>
    </g>
    <g id="Grupo_1180408" data-name="Grupo 1180408" transform="translate(755.746 9137)">
      <g id="Grupo_1099618" data-name="Grupo 1099618" transform="translate(0 0)">
        <rect id="Rectángulo_401104" data-name="Rectángulo 401104" width="56.349" height="57.028" transform="translate(0)" fill="none"/>
      </g>
      <g id="Grupo_1208921" data-name="Grupo 1208921" transform="translate(2.081 1.409)">
        <g id="Grupo_1208920" data-name="Grupo 1208920" clip-path="url(#clip-path-2)">
          <path id="Trazado_1267952" data-name="Trazado 1267952" d="M0,234.093c1-2.69,3.05-3.63,5.764-2.626,2.675.989,5.319,2.715,8.058,3.645-.2-6.569,6.583-3.969,10.508-4.591.675-.107,1.968-.846,2.809-1.092a14.5,14.5,0,0,1,9.2.294c.341.117,1.479.808,1.567.808H50.884V232.4H38.841v11.194H50.884l-.024,1.588-.562.286c-10.355-.406-21.084.512-31.395,0-.671-.033-1.706-.1-2.347-.2C13.63,244.839,4.865,240.4,2.091,238.7A4.474,4.474,0,0,1,0,236.129Zm36.976,9.5V232.143a12.031,12.031,0,0,0-9.535-.885c-.787.251-1.96,1.028-2.6,1.129-1.908.3-6.684-.462-8.092.219a1.872,1.872,0,0,0,.635,3.528c2.263.273,5.679-.417,7.769.033.97.209,1.09,1.7-.463,1.836-2.941.264-6.312-.181-9.3-.046l-10.8-4.97a2.189,2.189,0,0,0-1.759,3.963c3.93,1.348,10.954,6.642,14.9,6.642Z" transform="translate(0 -190.007)" fill="#fff"/>
          <path id="Trazado_1267953" data-name="Trazado 1267953" d="M79.751,14.743h5.343c2.359,0,5.441,2.982,5.638,5.387l-.044,18.186a4.39,4.39,0,0,1-.506.512H87.044V36.962H88.91V25.938H84.33V36.962H82.465V20.34H84.33v3.731h4.58V20.256c0-.059-.363-.928-.44-1.087-1.36-2.806-4.477-2.749-7.195-2.477L76.189,27.634h3.477a3.172,3.172,0,0,1,.779.408.805.805,0,0,1,.161.517,37.313,37.313,0,0,1-.008,5.608c-.037.34-.171.93-.594.93h-12.3v3.731H65.842V35.1H59.991c-.423,0-.557-.59-.594-.93a47.347,47.347,0,0,1,.083-7.892A77.956,77.956,0,0,1,63.5,16.891a5.728,5.728,0,0,1,3.449-2.148h3.477c-2.031-2.272-2.122-5.65-1.863-8.563a6.537,6.537,0,0,1,13.055,0c.259,2.912.168,6.291-1.863,8.563M78.733,3.718a4.482,4.482,0,0,0-7.293,0ZM70.676,5.584c-.321.215-.265.585-.265.933a2.972,2.972,0,0,0,.038.652l.227.281H79.5c.321-.215.265-.585.265-.933a2.972,2.972,0,0,0-.038-.652L79.5,5.584ZM70.7,9.17c-.766.251.057,2.84.428,3.426a4.713,4.713,0,0,0,7.979-.107c.371-.63,1.18-3.166.22-3.343Zm-2.144,7.439c-3.047-.378-3.787,1.641-4.745,3.987l4.745,1.271Zm10.516,0h-8.65v9.329h4.325Zm-17.3,9.329h6.785l-.007-2.2L63.06,22.532ZM68.556,27.8H61.263v5.428h7.293Zm5.6,0H70.422v5.428h3.731Zm4.58,1.7H76.019v3.731h2.714Z" transform="translate(-49.22 0)" fill="#fff"/>
          <rect id="Rectángulo_459105" data-name="Rectángulo 459105" width="1.867" height="1.867" transform="translate(40.706 49.852)" fill="#fff"/>
        </g>
      </g>
    </g>
  </g>
</svg>
