<svg xmlns="http://www.w3.org/2000/svg" xmlns:xlink="http://www.w3.org/1999/xlink" width="96" height="96" viewBox="0 0 96 96">
  <defs>
    <clipPath id="clip-path">
      <rect id="Rectángulo_455595" data-name="Rectángulo 455595" width="96" height="96" fill="none"/>
    </clipPath>
    <clipPath id="clip-path-2">
      <rect id="Rectángulo_459568" data-name="Rectángulo 459568" width="56.333" height="52.656" fill="#fff"/>
    </clipPath>
  </defs>
  <g id="Grupo_1208679" data-name="Grupo 1208679" transform="translate(-735.746 -9118)">
    <g id="Grupo_1180407" data-name="Grupo 1180407" transform="translate(735.746 9117.971)">
      <g id="Grupo_1179172" data-name="Grupo 1179172" transform="translate(0 0.03)" clip-path="url(#clip-path)">
        <path id="Trazado_998483" data-name="Trazado 998483" d="M92.562,52.469A40.092,40.092,0,1,1,52.469,12.377,40.093,40.093,0,0,1,92.562,52.469" transform="translate(-4.455 -4.484)" fill="#8d1939"/>
        <path id="Trazado_998485" data-name="Trazado 998485" d="M90.9,46.451A44.45,44.45,0,1,1,46.451,2,44.45,44.45,0,0,1,90.9,46.451Z" transform="translate(1.564 1.535)" fill="none" stroke="#8d1939" stroke-miterlimit="10" stroke-width="4"/>
      </g>
    </g>
    <g id="Grupo_1180408" data-name="Grupo 1180408" transform="translate(755.746 9137)">
      <g id="Grupo_1099618" data-name="Grupo 1099618" transform="translate(0.297 -0.465)">
        <rect id="Rectángulo_401104" data-name="Rectángulo 401104" width="56.349" height="57.028" transform="translate(0)" fill="none"/>
      </g>
      <g id="Grupo_1209409" data-name="Grupo 1209409" transform="translate(0.297 2.536)">
        <g id="Grupo_1209408" data-name="Grupo 1209408" clip-path="url(#clip-path-2)">
          <path id="Trazado_1270084" data-name="Trazado 1270084" d="M27.772,7.77a3.662,3.662,0,0,1,5.5,2.907c.248,2.783-.215,5.911.013,8.731,1.691.441,3.014,1.812,4.313,2.93,6.187,5.328,11.978,11.146,18.24,16.4.7.724.578,1.014.115,1.8-2.25,3.81-5.579,7.431-7.885,11.263a.988.988,0,0,1-.641.37c-.509.079-4.241-2.139-5.174-2.509-1.468-.582-2.984-.755-4.436-1.393A11.621,11.621,0,0,1,31.6,41.574c-.167-.125-.945,1.181-.99,1.422-.436,2.35.294,5.976,0,8.489a1.55,1.55,0,0,1-.672,1.159l-20.488.011a.876.876,0,0,1-.666-.832c-.437-3.251.878-8.578-.784-11.372-1.045-1.757-2.974-3.55-4.173-5.319C.912,30.837,1.452,24.221,0,19.293c.132-4.023,5.127-3.52,6.757-.749,1.092,1.855.78,4.2,1.447,6.21.369-.4,1.319-.562,1.418-1.08l0-16.654a3.7,3.7,0,0,1,5.495-2.913,3.616,3.616,0,0,1,7-1.665,3.718,3.718,0,0,1,4.749.494,8.3,8.3,0,0,1,.91,1.587Zm-7.16,10.491V3.524a2.218,2.218,0,0,0-1.77-1.743c-.681-.043-1.894.7-1.894,1.41v15.4c1.254-.186,2.384-.747,3.663-.333m5.31,2.645.01-15.874a1.778,1.778,0,0,0-3.478,0l-.016,13.784a9.226,9.226,0,0,1,1.92,1.278c.249.229.481.809.754.921a1.751,1.751,0,0,0,.81-.109M12.949,23.754a5.463,5.463,0,0,1,1.173-2.908c.371-.5.912-.642,1-1.328.5-3.744-.383-8.621-.019-12.487a1.832,1.832,0,0,0-3.574-.265l-.088,16.727Zm18.487.335V10.351a3.353,3.353,0,0,0-.84-.991c-1.457-.914-2.7.312-2.83,1.817-.278,3.135.231,6.66-.005,9.838-.033.357.413.286.67.5a4.781,4.781,0,0,1,1.544,2.206ZM10.62,42.49c.279,2.635-.207,5.725,0,8.409H28.771V42.323c0-.25,1.731-2.33,1.623-2.97l-2.7-2.9a5.17,5.17,0,0,1-4.807.313A6.843,6.843,0,0,1,11.09,33.61a5.242,5.242,0,0,1-4.622-3.953,17.954,17.954,0,0,1,.162-2.812A47.715,47.715,0,0,0,5.468,20c-.515-1.4-3.05-2.908-3.624-.857L4.076,31.716c1.252,3.863,6.11,6.67,6.544,10.774M32.433,30.583a3.767,3.767,0,0,0-2-4.907c-.544-.2-1.68-.208-1.992-.506-.5-.477-.1-1.835-1.21-2.286-1.236-.5-2.007.47-2.628.3-.444-.119-1.445-1.773-2.2-2.3a4.96,4.96,0,0,0-7.577,2.491c-.269.841.012,2.3-.708,2.625-.7.314-1.7-.55-2.585-.586a3.213,3.213,0,0,0-2.413,5.424c1.243,1.3,2.5.58,3.264,1.065.484.306.482,1.481.708,2.123a5,5,0,0,0,7.006,2.614c.767-.391,2.034-1.988,2.459-2.027.308-.028,1.453.729,2.162.784a10.917,10.917,0,0,0,1.558-.154c.075-.288-.12-.333-.248-.5-1.114-1.45-4.074-3.349-4.374-5.117a3.612,3.612,0,0,1,2.178-4.238c3.574-1.352,5.721,3.1,8.106,4.945.167.129.212.322.5.248m.834-9.158v4.246a5.459,5.459,0,0,1,.472.527c1.168,2.295,2.486,2.87,3.764,4.729a2.715,2.715,0,0,1-3.986,3.652l-7.531-7.454a1.838,1.838,0,0,0-1.972,3.058c2.179,2.247,4.89,4.44,6.917,6.816,2.6,3.046,2.541,6.354,6.181,8.806,1.811,1.22,3.531,1.3,5.477,2.016,1.528.564,2.959,1.513,4.42,2.224l7.21-10.222L33.862,21.58Zm1,8.993L33.628,32a11.006,11.006,0,0,0,1.307,1.329.89.89,0,0,0,1.2-1.2c-.123-.28-1.677-1.883-1.872-1.708" transform="translate(0 0)" fill="#fff"/>
          <path id="Trazado_1270085" data-name="Trazado 1270085" d="M231.237,61.923c-3.839,4.455-11.008-1.76-6.653-6.242,4.024-4.142,10.592,1.672,6.653,6.242M227.27,56.2c-2.874.483-2.7,4.855-.029,5.277a2.705,2.705,0,1,0,.029-5.277" transform="translate(-186.053 -45.228)" fill="#fff"/>
          <path id="Trazado_1270086" data-name="Trazado 1270086" d="M270.865,119.705c3.656-.524,5.63,4.508,2.6,6.594-5.115,3.514-8.514-5.746-2.6-6.594m-.9,4.9a1.826,1.826,0,0,0,2.776-2.36c-1.624-2.072-4.357.7-2.776,2.36" transform="translate(-223.152 -99.74)" fill="#fff"/>
        </g>
      </g>
    </g>
  </g>
</svg>
