<svg xmlns="http://www.w3.org/2000/svg" xmlns:xlink="http://www.w3.org/1999/xlink" width="187.711" height="121.729" viewBox="0 0 187.711 121.729">
  <defs>
    <clipPath id="clip-path">
      <rect id="Rectángulo_459641" data-name="Rectángulo 459641" width="102.347" height="111.74" fill="none"/>
    </clipPath>
  </defs>
  <g id="Grupo_1209842" data-name="Grupo 1209842" transform="translate(-289.711 -1775)">
    <g id="Grupo_1208513" data-name="Grupo 1208513" transform="translate(0.434 -7093.039)">
      <g id="Grupo_1204518" data-name="Grupo 1204518" transform="translate(289.277 8868.039)">
        <rect id="Rectángulo_455283" data-name="Rectángulo 455283" width="187.711" height="121.729" rx="19" fill="#e9c3ff"/>
      </g>
    </g>
    <g id="Grupo_1209446" data-name="Grupo 1209446" transform="translate(332.711 1780)">
      <g id="Grupo_1209445" data-name="Grupo 1209445" clip-path="url(#clip-path)">
        <path id="Trazado_1270400" data-name="Trazado 1270400" d="M33.9,9.85a12.064,12.064,0,0,1,6.681-8.789c3.422-1.409,12.62-1.606,15.68.582,1.638,1.171,2.492,3.911,2.7,4.052s1.591.012,2.274.2A7.7,7.7,0,0,1,66.41,11.9c.286,1.846-.327,5.441.133,6.78.159.465,1.17.854,1.607,1.355,2.4,2.759,2.6,6.8-.337,9.238-2.1,1.741-3.72,1.394-6.266,1.634l-2.956,4.447c4.113.334,8.16,2.5,10.05,6.243a21.385,21.385,0,0,1,1.468,4.456v8.064H92c2.753,2.77,7.278,6.149,9.552,9.21a2.672,2.672,0,0,1,.8,1.507l-.126,45.588a2.151,2.151,0,0,1-2.308,1.312l-64.192-.022c-3.679-1.531-1.183-6.94.637-9.23.315-.4,1.094-.55,1.172-.869.255-1.043-.192-2.88-.01-4.047l-13.656,6.912H0V100.86H22.876L37.536,93.4,37.468,79.19A9.592,9.592,0,0,1,30.607,71.9c-.321-.25-4.6,3.949-5.1,3.949H0V71.9H24.522a39.779,39.779,0,0,0,5.692-4.841c.512-6.52-.447-13.565.056-20.022.543-6.969,4.9-10.683,11.535-11.841l-2.961-4.28c-2.342-.27-3.87.128-5.908-1.333a6.311,6.311,0,0,1,.636-10.51c-1.191-.5-6.718-4.445-7.4-4.445H0V11H27.484c.427,0,5.448,3.578,6.418,3.95.144-1.621-.2-3.523,0-5.1m3.621.658c-.276,2.057.2,4.627,0,6.748.886-.037,1.209-.868,2.17-.984,1.449-.176,3.952.494,5.889.321a12.01,12.01,0,0,0,6.4-2.491c1.793-1.47,2.5-4.3,5.13-2.439,1.331.94,4.267,4.842,5.271,5.262.672.281.463-.457.489-.815.125-1.7.165-4.253-.981-5.607-1.853-2.192-5.134-.137-6.079-2.15C55.08,6.8,55.834,5.76,53.76,4.475,52.124,3.462,47,3.559,44.932,3.764c-3.9.387-6.871,2.745-7.409,6.745m10.7,9.381c-1.562.21-3.491-.152-5.1,0-.276,1.028,2.649,1.805,2.641,2.147L44.1,25.154l-2.955-1.313c-1.122,12.588,16.929,14.617,18.1,1.8a37.512,37.512,0,0,0,0-6.241c-.119-.625-2.883-3.479-3.449-3.476-2.164,1.438-4.912,3.6-7.57,3.962m-10.7,1.975c-4.647-.313-4.584,5.684,0,5.266Zm25.345,5.266c4.584.418,4.647-5.579,0-5.266ZM53.651,37.664a20.516,20.516,0,0,1-6.91,0,3.48,3.48,0,1,0,6.91,0M41.144,48.855V58.4l11.371-9.2,2.448,2.787L41.144,63.173V68.6h18.1V48.855h3.621v5.266h3.621V46.715a13.337,13.337,0,0,0-1.5-4.093c-1.791-2.629-4.743-3.417-7.712-3.973-.893,8.673-13.265,8.671-14.157,0-4.841.634-8.609,2.908-9.173,8.107-.107.988-.359,5.392.5,5.673.81.265,2.177-.082,3.083.048l0-3.624Zm-3.621,6.912c-.659.046-3.621-.261-3.621.494V64a13.136,13.136,0,0,0,3.621-2.469Zm52.006,1.975H62.868V108.1H98.745V66.629H90.681a5.561,5.561,0,0,1-1.152-1.481ZM95.783,63l-2.63-2.63,0,2.635ZM37.523,75.187V66.3a18.479,18.479,0,0,0-3.153,2.277c-1.5,1.855.752,6.362,3.153,6.61m5.6-2.962c-.656.023-1.321-.019-1.977,0V91.478l2.306-1.151c.086.072.513.009.812.327a10.4,10.4,0,0,1,1.165,2.486c-.011.6-1.672,1.439-2.306,1.8a16.637,16.637,0,0,0-1.771.625c-.532.409-.029,4.327-.206,5.3.656.018,1.321-.025,1.977,0,1.747.062,3.518-.045,5.266,0V79.136h3.621V100.86h7.241V72.224c-5.362.141-10.771-.189-16.128,0m5.266,32.257H39.663c-.6,0-2.245,2.751-1.81,3.621H48.385Zm10.862,0H52.006V108.1h7.241Z" transform="translate(0 0)" fill="#12263f"/>
        <rect id="Rectángulo_459634" data-name="Rectángulo 459634" width="21.395" height="3.621" transform="translate(0 3.761)" fill="#12263f"/>
        <rect id="Rectángulo_459635" data-name="Rectángulo 459635" width="19.749" height="3.621" transform="translate(0 64.983)" fill="#12263f"/>
        <rect id="Rectángulo_459636" data-name="Rectángulo 459636" width="19.749" height="3.621" transform="translate(0 93.619)" fill="#12263f"/>
        <path id="Trazado_1270401" data-name="Trazado 1270401" d="M217.661,175.427v7.406a5.561,5.561,0,0,0,1.152,1.481h8.064v41.473H191v-50.36Zm-6.911,3.619h-3.624l0,3.624-3.624,0v3.624l3.624,0,0,3.624h3.624l0-3.624,3.624,0v-3.624l-3.624,0Zm7.24,21.4c-.046-.659.261-3.621-.494-3.621H207.128v3.621Zm-13.193-.951c-.795-.082-2.106-1.749-2.723-1.647-.815.135-3.284,4.592-4.326,5.224-1.917-2.62-2.948-1.508-4.42.784,1.607,1.416,3.358,4.659,5.823,3.612.452-.192,5.926-7.57,5.646-7.974m18.46,4.572H207.128v3.621h16.128Zm0,7.241H207.128v3.621h16.128Zm-21.236.675-3.955,5.249c-2.5-2.188-2.63-1.968-4.738.539,1.028,1.31,3.647,4.842,5.336,4.341,1.265-.376,4.89-6.48,6.13-7.731.074-.533-2.2-1.956-2.772-2.4m21.236,6.566H207.128v3.621h16.128Z" transform="translate(-128.132 -117.685)" fill="#ffe19a"/>
        <path id="Trazado_1270402" data-name="Trazado 1270402" d="M110.083,127.627l-3.622,0,0,3.624c-.905-.13-2.272.218-3.082-.048-.858-.28-.606-4.684-.5-5.673.564-5.2,4.332-7.473,9.173-8.107.892,8.671,13.264,8.673,14.157,0,2.969.556,5.921,1.344,7.712,3.973a13.337,13.337,0,0,1,1.5,4.093v7.406h-3.621v-5.266h-3.621v19.749h-18.1v-5.431l13.819-11.19-2.448-2.787-11.371,9.2Z" transform="translate(-68.939 -78.772)" fill="#9fc0f8"/>
        <path id="Trazado_1270403" data-name="Trazado 1270403" d="M130.931,219.3c5.358-.189,10.767.141,16.128,0V247.94h-7.241V226.216H136.2V247.94c-1.748-.045-3.52.062-5.266,0v-5.925c.634-.356,2.3-1.2,2.306-1.8a10.4,10.4,0,0,0-1.165-2.486c-.3-.317-.726-.254-.812-.327-.3-.254-.4-.335-.348-.792Z" transform="translate(-87.812 -147.08)" fill="#8d1939"/>
        <path id="Trazado_1270404" data-name="Trazado 1270404" d="M131.978,52.352c2.658-.357,5.407-2.524,7.57-3.962.566,0,3.33,2.85,3.449,3.476a37.513,37.513,0,0,1,0,6.241c-1.168,12.813-19.218,10.784-18.1-1.8l2.955,1.313,1.659-3.118c.009-.342-2.916-1.119-2.641-2.147,1.611-.152,3.539.21,5.1,0" transform="translate(-83.757 -32.462)" fill="#fee7ec"/>
        <path id="Trazado_1270405" data-name="Trazado 1270405" d="M113.82,17.91c.538-4,3.507-6.357,7.409-6.745,2.066-.205,7.192-.3,8.828.712,2.074,1.285,1.321,2.326,2.048,3.876.945,2.013,4.226-.042,6.079,2.15,1.145,1.355,1.105,3.91.981,5.607-.026.358.183,1.1-.489.815-1-.42-3.94-4.322-5.271-5.262-2.633-1.86-3.337.97-5.13,2.439a12.01,12.01,0,0,1-6.4,2.491c-1.936.174-4.44-.5-5.889-.321-.961.117-1.284.948-2.17.984.2-2.121-.276-4.691,0-6.748" transform="translate(-76.297 -7.401)" fill="#633c0b"/>
        <path id="Trazado_1270406" data-name="Trazado 1270406" d="M126.971,219.415l-.019,17.311c-.057.457.045.538.348.792l-2.306,1.151V219.413c.656-.018,1.321.025,1.977,0" transform="translate(-83.852 -147.19)" fill="#8d1939"/>
        <path id="Trazado_1270407" data-name="Trazado 1270407" d="M125.386,317.427v3.621H114.853c-.434-.869,1.215-3.621,1.81-3.621Z" transform="translate(-77.001 -212.946)" fill="#75767a"/>
        <rect id="Rectángulo_459637" data-name="Rectángulo 459637" width="7.241" height="3.621" transform="translate(52.006 104.481)" fill="#75767a"/>
        <path id="Trazado_1270408" data-name="Trazado 1270408" d="M106.621,169.378v5.76A13.136,13.136,0,0,1,103,177.606v-7.735c0-.755,2.962-.448,3.621-.494" transform="translate(-69.097 -113.61)" fill="#fee7ec"/>
        <path id="Trazado_1270409" data-name="Trazado 1270409" d="M106.589,210.314c-2.4-.248-4.651-4.755-3.153-6.61a18.478,18.478,0,0,1,3.153-2.277Z" transform="translate(-69.066 -135.127)" fill="#fee7ec"/>
        <path id="Trazado_1270410" data-name="Trazado 1270410" d="M148.907,114.429a3.48,3.48,0,1,1-6.911,0,20.518,20.518,0,0,0,6.911,0" transform="translate(-95.256 -76.765)" fill="#fee7ec"/>
        <path id="Trazado_1270411" data-name="Trazado 1270411" d="M106.944,66.4v5.266c-4.584.418-4.647-5.579,0-5.266" transform="translate(-69.421 -44.538)" fill="#fee7ec"/>
        <path id="Trazado_1270412" data-name="Trazado 1270412" d="M191,71.669V66.4c4.647-.313,4.584,5.684,0,5.266" transform="translate(-128.132 -44.538)" fill="#fee7ec"/>
        <path id="Trazado_1270413" data-name="Trazado 1270413" d="M126.876,288.427v5.925c-.656-.023-1.321.019-1.977,0,.177-.975-.326-4.893.206-5.3a16.634,16.634,0,0,1,1.771-.625" transform="translate(-83.758 -193.491)" fill="#75767a"/>
        <path id="Trazado_1270414" data-name="Trazado 1270414" d="M285.63,186.057l-2.635,0,0-2.635Z" transform="translate(-189.847 -123.052)" fill="#75767a"/>
        <path id="Trazado_1270415" data-name="Trazado 1270415" d="M236.24,186.422l0,3.624,3.624,0v3.624l-3.624,0,0,3.624h-3.624l0-3.624-3.624,0v-3.624l3.624,0,0-3.624Z" transform="translate(-153.621 -125.061)" fill="#12263f"/>
        <rect id="Rectángulo_459638" data-name="Rectángulo 459638" width="16.128" height="3.621" transform="translate(78.996 86.378)" fill="#12263f"/>
        <rect id="Rectángulo_459639" data-name="Rectángulo 459639" width="16.128" height="3.621" transform="translate(78.996 93.619)" fill="#12263f"/>
        <rect id="Rectángulo_459640" data-name="Rectángulo 459640" width="16.128" height="3.621" transform="translate(78.996 100.861)" fill="#12263f"/>
        <path id="Trazado_1270416" data-name="Trazado 1270416" d="M206.766,286.479c.573.441,2.846,1.864,2.772,2.4-1.24,1.251-4.865,7.356-6.13,7.731-1.689.5-4.308-3.03-5.336-4.341,2.108-2.506,2.239-2.727,4.738-.539Z" transform="translate(-132.876 -192.184)" fill="#12263f"/>
        <path id="Trazado_1270417" data-name="Trazado 1270417" d="M209.542,245.173c.279.4-5.194,7.782-5.646,7.974-2.465,1.047-4.216-2.2-5.823-3.612,1.472-2.292,2.5-3.4,4.42-.784,1.042-.633,3.511-5.09,4.327-5.225.616-.1,1.928,1.565,2.723,1.647" transform="translate(-132.877 -163.366)" fill="#12263f"/>
        <path id="Trazado_1270418" data-name="Trazado 1270418" d="M250.862,244.048H240v-3.621h10.368c.755,0,.448,2.961.494,3.621" transform="translate(-161.004 -161.29)" fill="#12263f"/>
      </g>
    </g>
  </g>
</svg>
