<svg xmlns="http://www.w3.org/2000/svg" xmlns:xlink="http://www.w3.org/1999/xlink" width="187.711" height="121.729" viewBox="0 0 187.711 121.729">
  <defs>
    <clipPath id="clip-path">
      <rect id="Rectángulo_459442" data-name="Rectángulo 459442" width="101.495" height="104.83" fill="none"/>
    </clipPath>
  </defs>
  <g id="Grupo_1209194" data-name="Grupo 1209194" transform="translate(-289.711 -1211)">
    <g id="Grupo_1208298" data-name="Grupo 1208298" transform="translate(0.434 -7657.039)">
      <g id="Grupo_1204518" data-name="Grupo 1204518" transform="translate(289.277 8868.039)">
        <rect id="Rectángulo_455283" data-name="Rectángulo 455283" width="187.711" height="121.729" rx="19" fill="#e9c3ff"/>
      </g>
    </g>
    <g id="Grupo_1209193" data-name="Grupo 1209193" transform="translate(332.711 1219)">
      <g id="Grupo_1209192" data-name="Grupo 1209192" clip-path="url(#clip-path)">
        <path id="Trazado_1269248" data-name="Trazado 1269248" d="M74.869,47.785H82.4c2.968,0,7.855,4.906,7.855,7.855v4.969c2.874.492,10.48-1.557,11.2,2.42l.033,38.471a3.236,3.236,0,0,1-2.248,3.2l-51.127.126c-3.585-.785-3.139-4.1-3.066-7.033H3.216c-.8,0-3.075-2.217-3.216-3.2V3.533A5.123,5.123,0,0,1,4.482,0l54.51.023C64.544,4.8,69.537,10.45,74.869,15.565ZM57.236,2.9H4.177a4.362,4.362,0,0,0-1.285.96L2.9,93.944a8.3,8.3,0,0,0,.956.968h41.2V63.654a9.626,9.626,0,0,1,.954-1.932c1.708-2.16,7.935-.679,10.588-1.114v-5.29c0-2.905,4.981-7.534,7.855-7.534h7.534V17.649H61.564c-1.449,0-4.328-2.157-4.328-3.687Zm2.885,2.244v8.5a5.422,5.422,0,0,0,1.443,1.122h8.175l-1.268-1.771c-2.632-1.96-4.893-5.458-7.386-7.368-.323-.247-.4-.618-.964-.479M87.372,60.608V55.96c0-2.889-3.623-5.074-6.24-5.3-3.536-.306-13.32-.462-16.606.088a6.7,6.7,0,0,0-3.9,2.509,19.422,19.422,0,0,0-1.142,2.064v5.29l2.887,0c-.1-4.037-.475-6.715,4.313-7.068,2.922-.216,12.73-.412,15.185.23,3.031.793,2.688,4.332,2.62,6.838ZM71.983,56.441H65.732c-.785,0-.4,3.445-.481,4.168h6.732ZM81.6,60.608c-.08-.722.3-4.168-.481-4.168H74.869v4.168Zm16.992,2.885H48.419a3.217,3.217,0,0,0-.481.481v37.51a3.217,3.217,0,0,0,.481.481H98.593Z" fill="#070808"/>
        <path id="Trazado_1269249" data-name="Trazado 1269249" d="M63.365,9.05V20.111c0,1.53,2.879,3.687,4.328,3.687H78.112V53.933H70.578c-2.874,0-7.855,4.629-7.855,7.534v5.29c-2.652.435-8.88-1.045-10.587,1.114a9.618,9.618,0,0,0-.954,1.931v31.258H9.986a8.273,8.273,0,0,1-.955-.968L9.022,10.01a4.368,4.368,0,0,1,1.285-.96ZM44.372,12.976c-2.359-2.445-4.079,5.755-.469,4.674,1.266-.379,1.112-4.007.469-4.674M31.536,17.432c-2.794.765,1.8,5.968,3.3,4.289,1.328-1.489-1.7-4.727-3.3-4.289M51.9,21.794c1.875,1.9,6.762-4.457,2.964-4.441-1.117,0-4.365,3.025-2.964,4.441M28.26,50.407H58.4c1.14,0,.906-5.517.727-6.5a5.4,5.4,0,0,0-5.36-4.1C53.392,32.8,55.705,24.8,48.091,20.958c-5.075-2.561-11.718-.528-14.06,4.764a18.968,18.968,0,0,0-1.12,5.933c-.077,1.228.267,7.866-.017,8.159-.156.16-2.764.336-4.042,1.728-1.4,1.52-2.241,8.369-.593,8.865M26.71,28.979a1.386,1.386,0,0,0,0,2.462c1.169.4,5.94.452,4.765-1.874-.426-.843-3.96-.864-4.765-.588m29.174,0a1.478,1.478,0,0,0-.782,1.34c.185,2.089,6.719,2.328,5.654-.867-.243-.73-4.165-.717-4.872-.474M28.819,56.421c.357.357,1.171.368,1.671.41,9.44.8,19.966-.634,29.525,0,1.948-.119,2.444-2.667.322-2.92l-31.276.178a1.577,1.577,0,0,0-.243,2.328M18.441,60.3c-.995.576-1.716-1.662-2.531-2.034-.929-.424-2.141-.114-2.245.97s3.545,5.182,4.589,4.912c.619-.16,7.472-7.6,7.56-8.205a1.494,1.494,0,0,0-2.517-1.2,42.781,42.781,0,0,1-4.354,4.634,5.16,5.16,0,0,0-.5.922m11.1,4.212H58.4c1.015,0,1.015-2.885,0-2.885H29.542c-1.215,0-1.568,2.624,0,2.885M46.854,70.6H29.222c-.715,0-1.479,2.448.383,2.807,5.021-.208,10.722.543,15.662.093,2.45-.223,3.246-2.432,1.588-2.9m-21.4.722a1.618,1.618,0,0,0-1.965-.047l-5.184,5.749c-1.042.312-1.455-2.163-3.187-2.286-.407-.029-1.059-.019-1.308.329-.8,2.514,2.285,3.444,3.133,5.4l1.854-.1c1.2-1.39,6.946-6.625,7.024-8.007a1.748,1.748,0,0,0-.368-1.041M29.222,78.3c-1.22.421-.843,2.885,0,2.885H46.534c1.015,0,1.015-2.885,0-2.885Zm17.633,8.977H29.222c-.715,0-1.479,2.448.383,2.807,5.014-.213,10.729.55,15.662.093,2.441-.226,3-2.46,1.588-2.9m-22.691.372c-1.465.227-4.587,5.088-6.163,6.034-.805-.619-2.093-2.576-3.153-2.488-3.346.278,1.184,5.312,2.357,5.856a1.7,1.7,0,0,0,1.592,0c1.766-.82,5.033-5.878,6.816-7.292a1.359,1.359,0,0,0-1.449-2.11m23.092,9.81a1.728,1.728,0,0,0-.239-2.331l-17.475-.157c-1.373.257-1.8,2.621.637,2.886a109.482,109.482,0,0,0,15.407.013,2.955,2.955,0,0,0,1.67-.411" transform="translate(-6.13 -6.149)" fill="#fff5d4"/>
        <path id="Trazado_1269250" data-name="Trazado 1269250" d="M200.183,198.05v38.471H150.01a3.216,3.216,0,0,1-.481-.481v-37.51a3.217,3.217,0,0,1,.481-.481Zm-26.03,2.337c-20.813.883-20.919,31.748-1.376,33.565,24.822,2.308,24.862-34.561,1.376-33.565" transform="translate(-101.591 -134.556)" fill="#9fc0f8"/>
        <path id="Trazado_1269251" data-name="Trazado 1269251" d="M213.422,167.375l-2.887,0c.068-2.506.411-6.044-2.62-6.838-2.454-.642-12.262-.446-15.185-.23-4.788.354-4.417,3.032-4.313,7.068l-2.887,0v-5.29a19.425,19.425,0,0,1,1.142-2.064,6.7,6.7,0,0,1,3.9-2.509c3.286-.55,13.07-.394,16.606-.088,2.617.227,6.24,2.412,6.24,5.3Z" transform="translate(-126.05 -106.767)" fill="#ff9ebf"/>
        <path id="Trazado_1269252" data-name="Trazado 1269252" d="M187.53,15.985c.559-.139.641.231.964.479,2.493,1.91,4.754,5.408,7.386,7.368l1.268,1.771h-8.175a5.422,5.422,0,0,1-1.443-1.122Z" transform="translate(-127.409 -10.84)" fill="#8f8e8f"/>
        <path id="Trazado_1269253" data-name="Trazado 1269253" d="M210.209,176.05v4.168h-6.732c.08-.722-.3-4.168.481-4.168Z" transform="translate(-138.226 -119.609)" fill="#fff5d4"/>
        <path id="Trazado_1269255" data-name="Trazado 1269255" d="M67.111,73.308c-1.648-.5-.8-7.345.593-8.865,1.278-1.392,3.886-1.568,4.041-1.728.285-.292-.06-6.931.017-8.159a18.977,18.977,0,0,1,1.12-5.934c2.342-5.291,8.985-7.325,14.06-4.764,7.614,3.842,5.3,11.843,5.671,18.855a5.4,5.4,0,0,1,5.361,4.1c.179.981.413,6.5-.727,6.5Zm22.6-10.58V51.347a19.225,19.225,0,0,0-.9-1.983,7.528,7.528,0,0,0-12.83-.528,11.576,11.576,0,0,0-1.336,3.473V62.728Zm5.45,7.694c-.047-1.83.512-3.532-1.289-4.642l-22.847-.1c-2.225.679-1.864,2.831-1.832,4.74Z" transform="translate(-44.98 -29.049)" fill="#070808"/>
        <path id="Trazado_1269256" data-name="Trazado 1269256" d="M69.929,151.5a1.577,1.577,0,0,1,.243-2.328l31.276-.178c2.122.253,1.625,2.8-.322,2.921-9.559-.638-20.085.791-29.525,0-.5-.042-1.314-.054-1.671-.41" transform="translate(-47.239 -101.226)" fill="#070808"/>
        <path id="Trazado_1269257" data-name="Trazado 1269257" d="M70.809,175.935c-1.568-.261-1.215-2.885,0-2.885H99.663c1.015,0,1.015,2.885,0,2.885Z" transform="translate(-47.396 -117.571)" fill="#070808"/>
        <path id="Trazado_1269258" data-name="Trazado 1269258" d="M88.01,201.05c1.658.468.862,2.678-1.588,2.9-4.941.45-10.642-.3-15.662-.093-1.862-.36-1.1-2.807-.383-2.807Z" transform="translate(-47.285 -136.594)" fill="#070808"/>
        <path id="Trazado_1269259" data-name="Trazado 1269259" d="M88.386,279.536a2.954,2.954,0,0,1-1.67.411,109.481,109.481,0,0,1-15.407-.013c-2.437-.265-2.01-2.629-.637-2.886l17.475.157a1.728,1.728,0,0,1,.239,2.331" transform="translate(-47.259 -188.228)" fill="#070808"/>
        <path id="Trazado_1269260" data-name="Trazado 1269260" d="M88.01,253.05c1.409.44.853,2.674-1.588,2.9-4.932.457-10.647-.306-15.662-.093-1.862-.36-1.1-2.807-.383-2.807Z" transform="translate(-47.285 -171.923)" fill="#070808"/>
        <path id="Trazado_1269261" data-name="Trazado 1269261" d="M70.377,225.05H87.689c1.015,0,1.015,2.885,0,2.885H70.377c-.843,0-1.22-2.464,0-2.885" transform="translate(-47.284 -152.9)" fill="#070808"/>
        <path id="Trazado_1269262" data-name="Trazado 1269262" d="M33.947,254.164a1.359,1.359,0,0,1,1.449,2.11c-1.783,1.413-5.05,6.472-6.816,7.292a1.7,1.7,0,0,1-1.592,0c-1.173-.544-5.7-5.579-2.357-5.856,1.06-.088,2.347,1.869,3.153,2.488,1.576-.946,4.7-5.807,6.163-6.034" transform="translate(-15.912 -172.665)" fill="#070808"/>
        <path id="Trazado_1269263" data-name="Trazado 1269263" d="M28.277,156.209a5.161,5.161,0,0,1,.5-.922,42.867,42.867,0,0,0,4.354-4.633,1.494,1.494,0,0,1,2.517,1.2c-.088.6-6.941,8.045-7.56,8.206-1.045.27-4.694-3.82-4.59-4.912s1.316-1.394,2.245-.969c.815.372,1.536,2.61,2.531,2.034" transform="translate(-15.965 -102.057)" fill="#070808"/>
        <path id="Trazado_1269264" data-name="Trazado 1269264" d="M35.327,202.548a1.748,1.748,0,0,1,.368,1.041c-.078,1.382-5.823,6.617-7.024,8.007l-1.854.1c-.849-1.956-3.931-2.886-3.133-5.4.249-.348.9-.357,1.308-.329,1.732.122,2.145,2.6,3.187,2.286l5.184-5.749a1.618,1.618,0,0,1,1.964.047" transform="translate(-16.002 -137.37)" fill="#070808"/>
        <path id="Trazado_1269265" data-name="Trazado 1269265" d="M142.049,39.39c-1.4-1.416,1.848-4.436,2.965-4.441,3.8-.017-1.089,6.336-2.965,4.441" transform="translate(-96.274 -23.745)" fill="#070808"/>
        <path id="Trazado_1269266" data-name="Trazado 1269266" d="M153.531,70.894c.708-.243,4.629-.256,4.872.474,1.065,3.2-5.469,2.956-5.654.867a1.478,1.478,0,0,1,.782-1.34" transform="translate(-103.776 -48.064)" fill="#070808"/>
        <path id="Trazado_1269267" data-name="Trazado 1269267" d="M77.376,35.107c1.6-.438,4.629,2.8,3.3,4.289-1.5,1.679-6.094-3.524-3.3-4.289" transform="translate(-51.97 -23.825)" fill="#070808"/>
        <path id="Trazado_1269268" data-name="Trazado 1269268" d="M62.609,70.875c.8-.277,4.339-.255,4.765.588,1.175,2.325-3.6,2.276-4.765,1.874a1.386,1.386,0,0,1,0-2.462" transform="translate(-42.028 -48.046)" fill="#070808"/>
        <path id="Trazado_1269269" data-name="Trazado 1269269" d="M113.892,20.325c.643.667.8,4.295-.468,4.674-3.611,1.081-1.891-7.118.468-4.674" transform="translate(-75.65 -13.498)" fill="#070808"/>
        <path id="Trazado_1269270" data-name="Trazado 1269270" d="M192.8,205.3c23.486-1,23.447,35.873-1.375,33.565-19.544-1.817-19.437-32.682,1.375-33.565m-.645,2.888c-19.2,1.852-14.785,31.978,4.634,27.715,16.579-3.639,13.126-29.428-4.634-27.715" transform="translate(-120.234 -139.466)" fill="#070808"/>
        <path id="Trazado_1269271" data-name="Trazado 1269271" d="M107.6,68.543H92.529V58.124a11.576,11.576,0,0,1,1.336-3.473,7.529,7.529,0,0,1,12.83.528,19.284,19.284,0,0,1,.9,1.983ZM101.11,55.967a1.531,1.531,0,0,0-.475-2.432c-2.179-.65-5.248,2.029-5.724,4.086-.3,1.286-.693,4.128.983,4.218,2.435.131,1.327-2.511,1.929-3.871.693-1.565,2.773-1.511,3.287-2" transform="translate(-62.865 -34.865)" fill="#ff9ebf"/>
        <path id="Trazado_1269272" data-name="Trazado 1269272" d="M101.412,119H75.444c-.032-1.909-.393-4.061,1.832-4.74l22.847.1c1.8,1.11,1.242,2.812,1.289,4.642" transform="translate(-51.229 -77.632)" fill="#8f8e8f"/>
        <path id="Trazado_1269273" data-name="Trazado 1269273" d="M198.122,214.174c17.759-1.713,21.212,24.076,4.634,27.715-19.419,4.263-23.837-25.863-4.634-27.715m-2.819,3.592c-.412,1.363.3,4.641,0,6.252h-6.252a3.218,3.218,0,0,0-.481.481v7.534c.315-.1.7.321.8.321H195.3v5.931c0,1.627,6.838,1.386,7.821.768a3.159,3.159,0,0,0,.835-1.089v-5.61h5.931a2.862,2.862,0,0,0,.636-.646c.594-1.27.108-6.1-.155-7.689h-6.412v-5.61a4.147,4.147,0,0,0-.529-1.148c-.775-.552-7.788-.615-8.127.507" transform="translate(-126.205 -145.456)" fill="#efefef"/>
        <path id="Trazado_1269274" data-name="Trazado 1269274" d="M105.595,60.457c-.514.491-2.594.436-3.287,2-.6,1.36.506,4-1.929,3.871-1.676-.09-1.28-2.932-.983-4.218.476-2.057,3.545-4.737,5.724-4.086a1.531,1.531,0,0,1,.475,2.432" transform="translate(-67.349 -39.355)" fill="#070808"/>
        <path id="Trazado_1269275" data-name="Trazado 1269275" d="M201.263,223.659c.339-1.122,7.353-1.059,8.127-.507a4.148,4.148,0,0,1,.529,1.148v5.61h6.412c.263,1.594.749,6.419.155,7.689a2.862,2.862,0,0,1-.636.646h-5.931v5.61a3.159,3.159,0,0,1-.835,1.089c-.983.618-7.821.859-7.821-.768v-5.931h-5.931c-.106,0-.487-.425-.8-.321v-7.534a3.216,3.216,0,0,1,.481-.481h6.252c.3-1.61-.412-4.889,0-6.252m5.771,2.084h-2.885v5.61a4.915,4.915,0,0,1-.8,1.122h-6.252c.1.747-.289,2.656.3,3.066,1.066.741,6.753-.878,6.753,1.262v5.61h2.885v-5.931a5.351,5.351,0,0,1,.8-.8h5.931v-3.206h-5.931a5.352,5.352,0,0,1-.8-.8Z" transform="translate(-132.165 -151.348)" fill="#070808"/>
        <path id="Trazado_1269276" data-name="Trazado 1269276" d="M212.4,232.05v5.931a5.352,5.352,0,0,0,.8.8h5.931v3.206H213.2a5.351,5.351,0,0,0-.8.8v5.931h-2.885v-5.61c0-2.14-5.687-.521-6.753-1.262-.59-.41-.2-2.319-.3-3.066h6.252a4.915,4.915,0,0,0,.8-1.122v-5.61Z" transform="translate(-137.528 -157.656)" fill="#8d1939"/>
      </g>
    </g>
  </g>
</svg>
