<svg xmlns="http://www.w3.org/2000/svg" xmlns:xlink="http://www.w3.org/1999/xlink" width="90" height="90" viewBox="0 0 90 90">
  <defs>
    <clipPath id="clip-path">
      <rect id="Rectángulo_459525" data-name="Rectángulo 459525" width="61.008" height="61.323" fill="none"/>
    </clipPath>
  </defs>
  <g id="Grupo_1209353" data-name="Grupo 1209353" transform="translate(-339.711 -1450)">
    <circle id="Elipse_13688" data-name="Elipse 13688" cx="45" cy="45" r="45" transform="translate(339.711 1450)" fill="#fff"/>
    <g id="Grupo_1209333" data-name="Grupo 1209333" transform="translate(353.711 1464)" clip-path="url(#clip-path)">
      <path id="Trazado_1269523" data-name="Trazado 1269523" d="M14.226,57.1c-.215.809-.257,1.133-1.138,1.229a65.845,65.845,0,0,1-9.136.006C-.46,57.989-.364,54.755.412,51.274a25.439,25.439,0,0,1,9.3-14.745,28.957,28.957,0,0,1,6.266-3.208,17.342,17.342,0,0,1-4.691-8.294c-.168-.948-.03-2.878-.253-3.608-.086-.28-1.288-1.039-1.623-1.536a4.122,4.122,0,0,1-.136-4.15c.425-.749,1.956-1.679,2.027-1.845.217-.5.227-1.551.417-2.2a15.071,15.071,0,0,1,7.589-9.26c.537-.262,2.6-.862,2.772-1,.2-.162.217-.758.76-1.083.673-.4,4.39-.373,5.347-.285,1.581.145,1.2,1.017,1.778,1.425.368.261,1.809.6,2.4.886a14.879,14.879,0,0,1,7.713,9.662c.1.408.255,1.97.322,2.05a4.169,4.169,0,0,1,.7.259c2.8,2,2.368,5.507-.556,7.086.508,4.592-1.67,8.671-4.732,11.9a24.294,24.294,0,0,1,9.587,6.2c.246.048,1.346-.751,1.626-.954.8-.584,2.276-2.339,3.092-2.368.756-.027,2.179,1.64,2.9,2.194A16.3,16.3,0,0,0,58.1,41.042c.991.313,2.65.124,2.815,1.4a19.659,19.659,0,0,1-1.789,9.637c-1.363,2.982-5.773,9.7-9.525,9.223-2.086-.266-3.486-2.783-4.588-2.958l-21.4-.009c-.594,0-1.3-.53-1.138-1.229.061-.025.524-1.053.79-1.053h20.1c-.656-1.44-1.6-2.7-2.257-4.149a20.533,20.533,0,0,1-1.787-7.163c-.2-4.077.544-2.923,3.868-4.043-.452-.716-5.131-4.278-5.614-3.774a9.413,9.413,0,0,1-1.716,6.094c-.7,1.094-1.831,3-3.3,2.164a86.093,86.093,0,0,0-6.811-6.491c-.422.074-5.131,5.289-6.077,6.044-1.2.954-1.62.878-2.629-.182a12.139,12.139,0,0,1-3.075-7.8c-5.646,2.8-9.266,8-10.92,14-.352,1.274-1.528,4.6.253,5.088,1.809.5,9.965-.12,10.535.435.156.152.258.745.395.833M27.564,2.521H24.405a34.482,34.482,0,0,1-1.229,11.232h5.616A39.181,39.181,0,0,1,27.564,2.521M13.875,13.753h6.581c1.42-3,1.582-6.575,1.577-9.831a12.059,12.059,0,0,0-8.158,9.831m24.044,0A11.969,11.969,0,0,0,30.111,4.1a22.984,22.984,0,0,0,1.314,9.655Zm2.22,2.87a2.119,2.119,0,0,0-.6-.366l-26.989-.051a1.5,1.5,0,0,0,0,2.991H39.064a1.524,1.524,0,0,0,1.075-2.575M38.27,21.651H13.524c-.795,6.324,6.439,14.343,12.733,14.048,6-.282,12.676-7.954,12.014-14.048M23.176,37.623a4.925,4.925,0,0,1-1.349-.319c-.81-.327-3.1-1.861-3.518-1.936-.388-.07-1.639.218-1.773.615a11.209,11.209,0,0,0-.027,2.251,9.232,9.232,0,0,0,1.847,4.126,8.228,8.228,0,0,0,1.4-1.049A32.319,32.319,0,0,0,23,38.063c.1-.149.244-.174.173-.44m11.895-1.89a3.718,3.718,0,0,0-1.586-.365c-.419.076-2.444,1.438-3.168,1.76a6.045,6.045,0,0,1-1.7.5c-.072.266.07.291.173.44a46.937,46.937,0,0,0,4.327,4.284c1.04.182,2.948-5.492,1.954-6.614m23.556,7.859c-3.267-.5-5.963-2.443-8.509-4.4a19.428,19.428,0,0,1-8.32,4.411c-.266,4.335,1.731,8.667,4.375,12,.9,1.134,2.867,3.571,4.434,3.215,1.436-.327,4.564-4.527,5.356-5.877a19.326,19.326,0,0,0,2.664-9.352" transform="translate(0 0)" fill="#050504"/>
      <path id="Trazado_1269524" data-name="Trazado 1269524" d="M25.2,229.724c-.136-.089-.239-.682-.395-.833-.569-.555-8.726.063-10.535-.435-1.781-.491-.6-3.813-.253-5.088,1.654-6,5.274-11.2,10.92-14a12.139,12.139,0,0,0,3.075,7.8c1.009,1.06,1.433,1.136,2.629.182.947-.755,5.655-5.97,6.077-6.044a86.088,86.088,0,0,1,6.811,6.491c1.466.841,2.6-1.069,3.3-2.164a9.413,9.413,0,0,0,1.716-6.094c.483-.5,5.162,3.058,5.614,3.774-3.324,1.121-4.066-.034-3.868,4.043a20.533,20.533,0,0,0,1.788,7.163c.652,1.452,1.6,2.71,2.256,4.149h-20.1c-.266,0-.729,1.028-.79,1.053-.575.238-2.254-.07-2.984.176a1.145,1.145,0,1,0-2.282-.176c-.58-.034-2.553.281-2.984,0" transform="translate(-10.975 -172.622)" fill="#f6e1fe"/>
      <path id="Trazado_1269525" data-name="Trazado 1269525" d="M100.326,320.334a1.145,1.145,0,1,1-2.282-.176,1.145,1.145,0,1,1,2.282.176" transform="translate(-80.835 -263.056)" fill="#050504"/>
      <path id="Trazado_1269526" data-name="Trazado 1269526" d="M101.519,123.36c.663,6.093-6.01,13.766-12.014,14.048-6.293.3-13.527-7.723-12.733-14.048Z" transform="translate(-63.249 -101.71)" fill="#f3c4ad"/>
      <path id="Trazado_1269527" data-name="Trazado 1269527" d="M254.87,227.72a19.326,19.326,0,0,1-2.664,9.352c-.792,1.35-3.92,5.55-5.356,5.877-1.567.356-3.535-2.081-4.434-3.215-2.644-3.334-4.641-7.665-4.375-12a19.427,19.427,0,0,0,8.319-4.411c2.546,1.954,5.243,3.894,8.509,4.4m-5.309,2.305c-.947.172-3.406,3.753-3.74,3.831-.284.066-1.086-.846-1.469-.971-1.184-.388-1.969.567-1.5,1.674a8.339,8.339,0,0,0,2.985,2.123c.753.027,1.731-1.194,2.279-1.766a38.027,38.027,0,0,0,2.823-3.333,1.266,1.266,0,0,0-1.38-1.557" transform="translate(-196.244 -184.129)" fill="#eabb5d"/>
      <path id="Trazado_1269528" data-name="Trazado 1269528" d="M92.79,92.754a1.524,1.524,0,0,1-1.075,2.575H65.206a1.5,1.5,0,0,1,0-2.991l26.989.051a2.119,2.119,0,0,1,.6.366" transform="translate(-52.651 -76.131)" fill="#eabb5d"/>
      <path id="Trazado_1269529" data-name="Trazado 1269529" d="M79.055,32.176a12.059,12.059,0,0,1,8.159-9.831c.005,3.256-.157,6.834-1.577,9.831Z" transform="translate(-65.18 -18.423)" fill="#fbd68d"/>
      <path id="Trazado_1269530" data-name="Trazado 1269530" d="M178.927,33h-6.494a22.984,22.984,0,0,1-1.314-9.655A11.969,11.969,0,0,1,178.927,33" transform="translate(-141.008 -19.248)" fill="#fbd68d"/>
      <path id="Trazado_1269531" data-name="Trazado 1269531" d="M136.443,14.36a39.187,39.187,0,0,0,1.229,11.232h-5.616a34.477,34.477,0,0,0,1.229-11.232Z" transform="translate(-108.879 -11.84)" fill="#eabb5d"/>
      <path id="Trazado_1269532" data-name="Trazado 1269532" d="M100.53,203.722c.072.266-.069.291-.173.44a32.32,32.32,0,0,1-3.245,3.249,8.23,8.23,0,0,1-1.4,1.048,9.228,9.228,0,0,1-1.847-4.126,11.2,11.2,0,0,1,.027-2.251c.134-.4,1.385-.685,1.773-.615.418.075,2.708,1.61,3.518,1.936a4.928,4.928,0,0,0,1.349.319" transform="translate(-77.354 -166.099)" fill="#da9dfe"/>
      <path id="Trazado_1269533" data-name="Trazado 1269533" d="M169.418,201.848c.995,1.122-.913,6.8-1.954,6.614a46.892,46.892,0,0,1-4.326-4.284c-.1-.149-.244-.173-.173-.44a6.04,6.04,0,0,0,1.7-.5c.724-.321,2.749-1.683,3.168-1.76a3.716,3.716,0,0,1,1.586.366" transform="translate(-134.348 -166.116)" fill="#da9dfe"/>
      <path id="Trazado_1269534" data-name="Trazado 1269534" d="M271.634,261.429a1.266,1.266,0,0,1,1.38,1.557,38.038,38.038,0,0,1-2.823,3.333c-.548.573-1.526,1.793-2.279,1.766a8.339,8.339,0,0,1-2.985-2.123c-.472-1.107.314-2.062,1.5-1.674.383.125,1.185,1.038,1.469.971.335-.078,2.793-3.659,3.74-3.831" transform="translate(-218.316 -215.532)" fill="#050504"/>
    </g>
  </g>
</svg>
