<svg xmlns="http://www.w3.org/2000/svg" xmlns:xlink="http://www.w3.org/1999/xlink" width="96" height="96" viewBox="0 0 96 96">
  <defs>
    <clipPath id="clip-path">
      <rect id="Rectángulo_455595" data-name="Rectángulo 455595" width="96" height="96" fill="none"/>
    </clipPath>
    <clipPath id="clip-path-2">
      <rect id="Rectángulo_459656" data-name="Rectángulo 459656" width="54.349" height="54.238" fill="#fff"/>
    </clipPath>
  </defs>
  <g id="Grupo_1208627" data-name="Grupo 1208627" transform="translate(-735.746 -9118)">
    <g id="Grupo_1180407" data-name="Grupo 1180407" transform="translate(735.746 9117.971)">
      <g id="Grupo_1179172" data-name="Grupo 1179172" transform="translate(0 0.03)" clip-path="url(#clip-path)">
        <path id="Trazado_998483" data-name="Trazado 998483" d="M92.627,52.5A40.125,40.125,0,1,1,52.5,12.377,40.125,40.125,0,0,1,92.627,52.5" transform="translate(-4.488 -4.517)" fill="#8d1939"/>
        <path id="Trazado_998485" data-name="Trazado 998485" d="M90.973,46.487A44.486,44.486,0,1,1,46.487,2,44.486,44.486,0,0,1,90.973,46.487Z" transform="translate(1.527 1.499)" fill="none" stroke="#8d1939" stroke-miterlimit="10" stroke-width="4"/>
      </g>
    </g>
    <g id="Grupo_1180408" data-name="Grupo 1180408" transform="translate(755.746 9137)">
      <g id="Grupo_1099618" data-name="Grupo 1099618" transform="translate(0 -0.169)">
        <rect id="Rectángulo_401104" data-name="Rectángulo 401104" width="56.349" height="57.028" transform="translate(0)" fill="none"/>
      </g>
      <g id="Grupo_1209462" data-name="Grupo 1209462" transform="translate(1 1.831)">
        <g id="Grupo_1209461" data-name="Grupo 1209461" clip-path="url(#clip-path-2)">
          <path id="Trazado_1270688" data-name="Trazado 1270688" d="M107.9,62.229l-31.4-31.4a1.145,1.145,0,0,1-.339-1.077c.131-.454,3.152-2.442,3.755-2.781C100.607,15.336,123.5,38.5,111.641,59.006c-.327.566-2.248,3.441-2.664,3.561a1.145,1.145,0,0,1-1.077-.339m-7.826-15.334v2.72c0,.477-.75,1.491-.55,1.937l9.026,9.017c.3.073.191-.084.269-.192,5.263-7.36,5.937-16.707,1.112-24.505a21.817,21.817,0,0,0-31.775-5.84l7.417,7.5,22.2.025c2.1.081,2.284,1.937,2.074,3.641-.115.934-.617,1.064-.729,1.447-.1.329.023.711-.046,1.042-.968,4.679-5.484,2.839-9,3.2m8.083-7.616H87.328L89.3,41.267c1,.3,4.411-.62,4.414.886,0,1.209-1.91.721-2.657.932l2.412,2.251,12.1-.014a1.793,1.793,0,0,0,1.8-2.314h-10.8c-.891,0-.891-1.71,0-1.71h11.58Zm-9.637,7.616H94.944l3.187,3.263c.069-.171.388-.774.388-.854Z" transform="translate(-64.293 -20.143)" fill="#fff"/>
          <path id="Trazado_1270689" data-name="Trazado 1270689" d="M31.523,77.037C42,86.625,51.551,97.726,62,107.4c.459.529,1.025,1.048.472,1.728a22.676,22.676,0,0,1-3.56,2.5C38.434,123.207,15.571,100.464,27.023,79.9a23.339,23.339,0,0,1,2.725-3.8c.848-.395,1.318.528,1.776.946m29.153,31.614-.151-.389-10.5-10.33c-.688.1-3.894-.213-4.2.15a22.169,22.169,0,0,0-.969,3.228c-.188,1.122.048,2.7-.274,3.613a2.619,2.619,0,0,1-2.166,1.718,41.154,41.154,0,0,1-7.037-.129,3.267,3.267,0,0,1-2.027-3.805l3.534-10.753c-.289-1.272-1.027-.877-1.9-1.056A2.661,2.661,0,0,1,32.8,88.012c.177-1.183.912-.912,1.114-1.386a20.18,20.18,0,0,0,.391-2.718c.094-.514.334-.917.4-1.413l-4.251-4.311-.389-.151a28.005,28.005,0,0,0-3.568,7.236,21.785,21.785,0,0,0,26.569,27.036,26.6,26.6,0,0,0,7.616-3.655M37.518,85.337l-1.552-1.552-.313,1.552Zm-3.1,2.961c.207,1.563,1.93.7,3.026,1.549,1.374,1.06,1.055,2.331.655,3.763-.815,2.919-2.358,6.059-3.019,8.949-.254,1.112-.306,2.29,1.13,2.51a37.858,37.858,0,0,0,5.748.017c1.7-.155,1.025-1.5,1.161-2.725.343-3.1,1.709-5.974,2.568-8.942l-6.41-6.338L35.6,87.042c-.363.53-.385,1.2-1.188,1.256m14.14,8.077-1.631-1.556-.546,1.556Z" transform="translate(-20.234 -64.183)" fill="#fff"/>
          <path id="Trazado_1270690" data-name="Trazado 1270690" d="M94.256,56.238c.637-.1,1.426,1.073,1.815,1.545,13.327,16.152,2.748,41.365-17.879,43.8-6.622.781-16.813-1.516-21.437-6.657-.836-.93-.062-1.986,1.163-1.163,3.568,2.4,5.366,4.181,9.8,5.432,22.83,6.443,41.5-18.986,28.327-38.741a37.839,37.839,0,0,1-2.457-3.305.806.806,0,0,1,.669-.909" transform="translate(-47.638 -47.492)" fill="#fff"/>
          <path id="Trazado_1270691" data-name="Trazado 1270691" d="M25.179.063a27.637,27.637,0,0,1,17.49,4.8c.721.505,2.447,1.527,2.1,2.51a.76.76,0,0,1-.91.352,26.575,26.575,0,0,1-2.62-1.9C18.393-8.833-8.407,16.881,5.133,40.068c.4.687,2.6,3.59,2.645,3.893a.882.882,0,0,1-.285.744c-.979.587-2.191-1.441-2.678-2.143-11.926-17.2-.4-41.071,20.364-42.5" transform="translate(0 0)" fill="#fff"/>
          <path id="Trazado_1270692" data-name="Trazado 1270692" d="M109.934,181.92a12.441,12.441,0,0,1,3.006.037,1.456,1.456,0,0,1,.89,1.679c-.273,1.864-1.564,4.285-1.968,6.43-.169.9.154,2.449-1.192,2.694a19.141,19.141,0,0,1-3.379-.025,1.524,1.524,0,0,1-1.006-1.872,65.735,65.735,0,0,1,2.682-8.044,1.576,1.576,0,0,1,.967-.9m-1.976,9.293h2.176a30.2,30.2,0,0,1,2.023-7.539c.076-.476-1.175-.127-1.485-.244Z" transform="translate(-89.742 -153.581)" fill="#fff"/>
        </g>
      </g>
    </g>
  </g>
</svg>
