<svg xmlns="http://www.w3.org/2000/svg" xmlns:xlink="http://www.w3.org/1999/xlink" width="85" height="85" viewBox="0 0 85 85">
  <defs>
    <clipPath id="clip-path">
      <rect id="Rectángulo_459382" data-name="Rectángulo 459382" width="72.81" height="72.681" fill="#8d1939"/>
    </clipPath>
  </defs>
  <g id="Grupo_1208293" data-name="Grupo 1208293" transform="translate(-705.342 -409)">
    <path id="Sustracción_110" data-name="Sustracción 110" d="M15975.961,19829.512h85v85h-85Z" transform="translate(-15270.619 -19420.512)" fill="#ffe19a"/>
    <g id="Grupo_1209129" data-name="Grupo 1209129" transform="translate(711.342 415)">
      <g id="Grupo_1209128" data-name="Grupo 1209128" clip-path="url(#clip-path)">
        <path id="Trazado_1269033" data-name="Trazado 1269033" d="M143.218,53.249a3.945,3.945,0,0,1,2.811,3.417A87.615,87.615,0,0,1,146,69.527a4.04,4.04,0,0,1-2.509,2.888L96.5,72.564a3.764,3.764,0,0,1-3.625-3.433,69.793,69.793,0,0,1,.018-10.57,6.349,6.349,0,0,1,6-5.313L98.7,37.766c-2.02-2.952-4.977-6.048-5.392-9.762-.867-7.754,5.356-13.482,12.848-13.369a9.9,9.9,0,0,1,2.282-12.353c8.375-6.844,19.772,3.02,14.534,12.353,6.041-.163,11.811,3.733,12.846,9.888,1.08,6.423-3.4,10.275-6.618,15.129v13.6Zm-30.052-50.6c-8.539,1.336-7.433,15.7,2.8,14.22,8.728-1.26,7.348-15.809-2.8-14.22m12.041,24.294a2.569,2.569,0,0,1,.421,1.053l-9.475,13.359,4.229,6.288,11.608-16c3.921-6.54.029-13.461-7.252-14.511a15.146,15.146,0,0,0-3.483-.167c-.534.124-1.724,1.183-2.433,1.509a9.752,9.752,0,0,1-8.481-.024c-.717-.348-1.845-1.41-2.424-1.519a16.038,16.038,0,0,0-5.957.873c-6.755,2.508-7.8,9.055-4.063,14.751,4.338,6.614,9.512,12.734,13.871,19.344a3.645,3.645,0,0,0,6.122-3.839L103.784,28.537a1.259,1.259,0,0,1,1.9-1.59l8.278,11.544.8.64L123.393,27.2a1.325,1.325,0,0,1,1.814-.257m-15.516,26.31-8.3-11.625V53.249Zm17.023,0V43.284l-7.058,9.965Zm9.757,2.491H97.962a10.634,10.634,0,0,0-1.558.934,4.609,4.609,0,0,0-1.019,2.095,66.8,66.8,0,0,0-.018,10.158c.045.416.209,1.138.727,1.138h3.425c-.985-2.445-1.147-6.547,1.031-8.415a9.732,9.732,0,0,1,2.187-1.135h33.735ZM140,70.064h3.01a3.486,3.486,0,0,0,.519-.519V56.259a3.476,3.476,0,0,0-.519-.519h-4.256v5.917c0,.11,1.222,1.187,1.493,1.62A5.914,5.914,0,0,1,140,70.064m-37.012-7.015c-1.913.431-1.751,3.318-1.611,4.845a2.3,2.3,0,0,0,1.786,2.158l32.586.017a3.622,3.622,0,0,0,.4-7.05Z" transform="translate(-73.443 0)" fill="#8d1939"/>
        <path id="Trazado_1269034" data-name="Trazado 1269034" d="M14.585,270.1c7.788,7.788-4,19.877-11.945,12.049-8.032-7.907,4.1-19.892,11.945-12.049m-6.615-.015c-9.6,1.03-4.885,16.167,3.718,11.191,5.533-3.2,2.612-11.87-3.718-11.191" transform="translate(0 -212.002)" fill="#8d1939"/>
      </g>
    </g>
  </g>
</svg>
