<svg xmlns="http://www.w3.org/2000/svg" xmlns:xlink="http://www.w3.org/1999/xlink" width="69" height="69" viewBox="0 0 69 69">
  <defs>
    <clipPath id="clip-path">
      <rect id="Rectángulo_459111" data-name="Rectángulo 459111" width="38.441" height="42" fill="#fff"/>
    </clipPath>
  </defs>
  <g id="Grupo_1207721" data-name="Grupo 1207721" transform="translate(-616.711 -749.381)">
    <circle id="Elipse_13676" data-name="Elipse 13676" cx="34.5" cy="34.5" r="34.5" transform="translate(616.711 749.381)" fill="#6a2874"/>
    <g id="Grupo_1208933" data-name="Grupo 1208933" transform="translate(631.711 763.381)">
      <g id="Grupo_1208932" data-name="Grupo 1208932" transform="translate(0 0)" clip-path="url(#clip-path)">
        <path id="Trazado_1268011" data-name="Trazado 1268011" d="M24,23.275v5.764C24,35,20.212,39.749,15.574,39.749c-4.461,0-8.246-4.747-8.246-10.709v-7A5.843,5.843,0,0,0,12,16.474a5.749,5.749,0,0,0-5.982-5.551A5.781,5.781,0,0,0,0,16.474c0,2.677,2.23,4.945,4.885,5.568v7c0,7.2,4.921,12.96,10.69,12.96,5.982,0,10.656-5.764,10.656-12.96V23.275a11.2,11.2,0,0,0,7.114-3.5,1.505,1.505,0,0,0,.425-1.248c2.9-3.285,4.672-7.6,4.672-11.12,0-5.141-2.9-5.749-7.327-6.587A1.51,1.51,0,0,0,29.558,0a1.675,1.675,0,0,0-1.769,1.445,1.675,1.675,0,0,0,1.769,1.446c.459,0,.673-.214,1.1-.214,4.461.838,5.559,1.034,5.559,4.73A15.632,15.632,0,0,1,32,17.3c-.425,0-.673.214-1.1.624a8.818,8.818,0,0,1-5.77,2.677,8.736,8.736,0,0,1-5.771-2.677c-.246-.411-.707-.411-1.133-.624-2.441-2.875-4.212-6.783-4.212-9.888,0-3.7,1.31-3.892,5.77-4.73.213,0,.425.214.885.214,1.132,0,1.769-.624,1.769-1.446S21.8,0,20.673,0a1.739,1.739,0,0,0-1.557.82C14.69,1.658,12,2.267,12,7.408c0,3.515,1.768,7.835,4.672,11.12-.211.427,0,.822.249,1.248A12.11,12.11,0,0,0,24,23.275" transform="translate(0 0)" fill="#fff" fill-rule="evenodd"/>
      </g>
    </g>
  </g>
</svg>
