<svg xmlns="http://www.w3.org/2000/svg" xmlns:xlink="http://www.w3.org/1999/xlink" width="85" height="85" viewBox="0 0 85 85">
  <defs>
    <clipPath id="clip-path">
      <rect id="Rectángulo_459557" data-name="Rectángulo 459557" width="74.378" height="74.864" fill="#8d1939"/>
    </clipPath>
  </defs>
  <g id="Grupo_1208683" data-name="Grupo 1208683" transform="translate(0.289 8.253)">
    <path id="Sustracción_110" data-name="Sustracción 110" d="M0,0H85V85H0Z" transform="translate(-0.289 -8.253)" fill="#ffe19a"/>
    <g id="Grupo_1209392" data-name="Grupo 1209392" transform="translate(5.711 -3.253)">
      <g id="Grupo_1209391" data-name="Grupo 1209391" clip-path="url(#clip-path)">
        <path id="Trazado_1269938" data-name="Trazado 1269938" d="M67.034,46.8c-3.443.463-6.937,5.564-10.6,6.248-1.26,1.786,5.924,7.354,6.941,8.789.708.417,2.329-.476,2.911-.975A4.719,4.719,0,0,0,67.734,56.4c-.165-.969-1.114-1.906-1.2-2.459C66.313,52.6,68.2,52.5,69.048,52.035c1.552-.857,2.036-2.278,2.414-3.917l2.331-.026C73.52,50.7,72.112,53.43,69.5,54.317c1.821,4.015-.121,7.876-3.857,9.76l8.7,8.692c.285.4-1.242,1.742-1.486,1.7L55.042,56.649c-1.755-3.1-1.321-9.637-1.635-13.386-.4-4.729-1.306-6.823.062-11.743.484-1.742,2.424-4.828.936-6.315-1.265-1.265-2.613-.373-3.566.682a17.688,17.688,0,0,0-4.08,8.795c-.156,1.869.521,3.926-1.067,5.371-1.465,1.333-3.618,1.09-5.308.354-2.084-.908-8.607-7.495-10.693-9.477-4.332-4.117-9.31-10.063-13.833-13.634-2.426-1.915-5.041-.422-4.052,2.55L28.957,36.6a1.392,1.392,0,0,1,0,1.479,1.34,1.34,0,0,1-1.637.154L9.209,20.512c-2.191-2.029-5.379-.165-3.965,2.677l18.9,18.674a1.134,1.134,0,0,1-1.835,1.173L6.421,27.592C4.02,25.639.86,28.356,3.1,30.911c4.532,5.165,11.262,9.821,15.549,15.135.972,1.2.618,2.045-.96,2.046L5.714,36.883a2.448,2.448,0,0,0-3.391,1.878c-.071,1.789,3.03,3.872,4.206,5.032C12.717,49.9,19.7,57.67,26.27,63.1c3.9,3.227,7.018,2.542,11.522,3.5,3.577.76,6.192,3.829,8.519,6.457l-1.565,1.409c-2.376-1.772-4.185-4.819-7.17-5.5-3.044-.7-5.955-.5-8.992-1.737-3.009-1.227-5.2-3.63-7.515-5.8-5.642,2.1-12.168-1.4-12.726-7.54A7.171,7.171,0,0,1,2.119,43.042C1.714,42.154.863,41.811.43,40.878a4.662,4.662,0,0,1,2.98-6.413c-3.94-2.948-5.106-7.4-.021-9.868a4.579,4.579,0,0,1,3.778-7.286c.507,0,1.784.407,2.046.22a4.863,4.863,0,0,1,7.489-2.58c.8.548,4.185,4.289,4.657,4.37a8.856,8.856,0,0,1,3.072-1.6c.826-.148,2.258.064,2.8-.2.273-.134.587-.859.966-1.18,5.3-4.5,13.023-1.788,13.84,5.148,4.682-1.057,1.167-5.964.207-8.685C41.224,9.9,39.836,3.883,42.068,1.452s7.046-1.743,8.021,1.57c2.592,8.812,4.12,7.9,10.189,13.63C62,18.277,63.366,20.194,64.99,21.81c2.62,2.607,5.076,2.472,8.6,2.77l.2,2.268c-.325.325-5.637-.517-6.439-.752-3.573-1.047-6.677-5.887-9.543-8.482-4.739-4.289-7.395-5.386-9.672-12-.485-1.409-.222-3.244-2.564-3.25-3.514-.009-2.187,6.32-1.55,8.436,1.122,3.729,5.359,9.471.344,12.267a46.7,46.7,0,0,1-7.593,2.707H29.161v-2.36h7.4c.63,0,2.249-.945,3.089-.88a5.791,5.791,0,0,0-9.191-5.008c-.91.643-1.9,2.611-2.581,2.794-.484.13-.931-.277-1.419-.323a4.729,4.729,0,0,0-3.307.845L30.339,28.1a6.1,6.1,0,0,1,6.269-.651c.543.3,1.143,1.2,1.506,1.3.574.152,1.64-.395,2.314-.4.515,0,1.132.357,1.679.224.152-.037,1.188-2.049,1.743-2.6,2.228-2.2,3.66-1.769,6.128-2.67.622-.227,1.057-.832,1.835-.954a4.5,4.5,0,0,1,5.068,2.414,16.714,16.714,0,0,1,.492,2.083c.183.559.672.988.863,1.5.254.676.515,2.292.733,2.648.092.149,1.892.978,2.36,1.34a8.16,8.16,0,0,1,.335,12.315c-.487.421-2.612,1.515-2.695,1.649-.426.691-.4,2.726-1.27,3.5.151.142,1.338-.723,1.574-.892,2.02-1.45,5.155-4.47,7.761-4.47h6.759V46.8c-2.113.2-4.71-.276-6.759,0M47.4,26.419a6.4,6.4,0,0,0-3.042,2.857c-.241.436-.26,1.035-.509,1.422-.838,1.311-2.247.015-3.4.033-1.2.019-2.447,1.028-3.454.839-.844-.159-.572-1.106-.956-1.625-.672-.908-3.173-.865-4.088-.2,3.235,2.89,6.18,6.256,9.774,8.68C45.313,39.5,44.2,36.688,44.4,34.468a18.012,18.012,0,0,1,.58-2.853c.545-1.861,1.684-3.431,2.419-5.2M56.892,32.8c-.548-.544.127-1.941-.692-2.31-.2.943-.558,1.836-.761,2.782-.846,3.944-.041,6.163.328,9.987.146,1.509.19,3.094.218,4.611l.837-3.292c5.415-1.171,7.231-8.306,2.019-11.046-.489-.257-1.726-.51-1.949-.732m-48.85,15.8c-1.062-1.009-2.49-2.59-3.556-3.417-.215-.167-.274-.415-.643-.319a4.825,4.825,0,0,0,4.184,6.669c.757.024,1.38-.48,2.028.1.554.493.5,2.091.716,2.932a7.066,7.066,0,0,0,8.094,5l-.111-.54c-3.664-3.377-7.106-7-10.712-10.425" transform="translate(0 0)" fill="#8d1939"/>
        <path id="Trazado_1269939" data-name="Trazado 1269939" d="M298.946,45.181l-2.333.4a11.027,11.027,0,0,0-8.309-7.259l.357-2.14c4.808.5,8.968,4.4,10.285,8.994" transform="translate(-226.439 -28.422)" fill="#8d1939"/>
        <path id="Trazado_1269940" data-name="Trazado 1269940" d="M68.391,311.741l-.512,2.3c-4.656-.871-9.05-4.453-9.989-9.177l2.154-.343a10.925,10.925,0,0,0,8.346,7.223" transform="translate(-45.469 -239.174)" fill="#8d1939"/>
        <path id="Trazado_1269941" data-name="Trazado 1269941" d="M287.121,56.8a7.525,7.525,0,0,0-4.213-2.011l.415-2.269c2.8-.039,6.966,3.259,7.644,5.917.3,1.179-1.255,1-2.065,1.2a8.886,8.886,0,0,0-1.78-2.837" transform="translate(-222.201 -41.249)" fill="#8d1939"/>
        <path id="Trazado_1269942" data-name="Trazado 1269942" d="M76.227,299.229a7.5,7.5,0,0,0,6.036,4.914l-.446,2.126a9.189,9.189,0,0,1-7.925-6.634Z" transform="translate(-58.037 -235.02)" fill="#8d1939"/>
      </g>
    </g>
  </g>
</svg>
