<svg xmlns="http://www.w3.org/2000/svg" xmlns:xlink="http://www.w3.org/1999/xlink" width="162.25" height="162.25" viewBox="0 0 162.25 162.25">
  <defs>
    <clipPath id="clip-path">
      <rect id="Rectángulo_459664" data-name="Rectángulo 459664" width="81.221" height="73.276" fill="#6a2874"/>
    </clipPath>
  </defs>
  <g id="Grupo_1209796" data-name="Grupo 1209796" transform="translate(-873.711 -2952)">
    <g id="Grupo_1209792" data-name="Grupo 1209792" transform="translate(568.564 -7060.459)">
      <g id="Grupo_1177470" data-name="Grupo 1177470" transform="translate(305.146 10012.421)">
        <circle id="Elipse_13609" data-name="Elipse 13609" cx="81.125" cy="81.125" r="81.125" transform="translate(0 0.038)" fill="#f6e1fe"/>
        <g id="Grupo_1207827" data-name="Grupo 1207827" transform="translate(35.635 35.96)">
          <g id="Grupo_1099618" data-name="Grupo 1099618" transform="translate(0.365 0.078)">
            <rect id="Rectángulo_401104" data-name="Rectángulo 401104" width="90" height="90" transform="translate(0)" fill="none"/>
          </g>
          <g id="Grupo_1209801" data-name="Grupo 1209801" transform="translate(5.069 2.906)">
            <g id="Grupo_1099618-2" data-name="Grupo 1099618" transform="translate(-1.704 0.172)">
              <rect id="Rectángulo_401104-2" data-name="Rectángulo 401104" width="82.711" height="83.708" transform="translate(0)" fill="none"/>
            </g>
            <g id="Grupo_1209476" data-name="Grupo 1209476" transform="translate(-0.236 4.576)">
              <g id="Grupo_1209475" data-name="Grupo 1209475" transform="translate(0)" clip-path="url(#clip-path)">
                <path id="Trazado_1270737" data-name="Trazado 1270737" d="M41.024,13.29H72.554a17.308,17.308,0,0,1,2.511,1.142A6.231,6.231,0,0,1,74.9,24.758,12.075,12.075,0,0,1,72.288,25.8H64.7c1.515,3.241,1.013,7.175-2.659,8.762l.006.362c3.361,3.473,1,9.012-3.732,9.9,2.772,4.9-.234,9.394-5.975,9.767a228.785,228.785,0,0,1-25.035,0,13.027,13.027,0,0,1-6.751-2.159c-1.544-1.1-2.292-2.622-3.67-3.805L1.526,48.557C-.546,48.236-.42,46.041,1.5,45.806c4.638.594,11.561-.776,15.918.07,2.307.448,3.024,3.025,4.74,4.3a10.28,10.28,0,0,0,4.1,1.648H36.5c-1.216-2.256-1.536-4.435-.051-6.679.3-.456,1.421-1.351,1.363-1.669-3.507-2.922-2.87-7.856,1.1-10.067-.263-1-1.1-1.724-1.289-2.789-.758-4.195,2.052-7.256,6.446-7.582,8.976-.665,18.817.565,27.885-.05,3.567-.979,4.015-5.5.416-6.779l-34.823-.282a1.44,1.44,0,0,1-.912-2.135c1.213-1.859,5.759-5.675,5.968-7.666.28-2.66-2.691-4.246-5.03-2.71-6.856,4.953-13.26,10.98-20.11,15.87a15.041,15.041,0,0,1-2.52,1.634c-2.145.889-10.847.885-13.442.625A1.379,1.379,0,0,1,1.251,18.8c3.9-.682,9.306,1,13.087-.7,7.085-5,13.631-11.393,20.706-16.31C37.673-.041,40.176-.82,43.135,1.17c5.377,3.617.783,8.767-2.111,12.12m2.323,12.569c-3.834.658-3.836,6.029-.265,6.639a124.315,124.315,0,0,0,16.683.043c3.751-.546,3.752-6.034-.044-6.682a121.119,121.119,0,0,0-16.374,0m-1.589,9.516c-4.1.564-4.565,5.3-.807,6.633l17.222.045c3.781-1.383,3.195-6.122-.855-6.679a100.653,100.653,0,0,0-15.56,0m.266,9.508c-4.874.658-5.024,6.51.453,6.95A74.964,74.964,0,0,0,53.107,51.8c2.947-.377,4.5-3.579,2.426-5.74a5.256,5.256,0,0,0-3.457-1.253,66.545,66.545,0,0,0-10.051.074" transform="translate(0 0)" fill="#6a2874"/>
                <path id="Trazado_1270738" data-name="Trazado 1270738" d="M245.1,198.229a2.039,2.039,0,0,1,1.668.838c2.387,2.444,7.635,10.779,7.733,14,.255,8.357-11.135,11.979-16.506,5.506-4.1-4.94-.667-10.131,2.278-14.611.719-1.095,3.719-5.574,4.826-5.737m.206,3.719c-.615,0-5.842,8.788-6.123,10-1.377,5.934,6.334,9.716,10.656,5.517,4.73-4.6-1.864-11.476-4.532-15.518" transform="translate(-173.289 -148.617)" fill="#6a2874"/>
                <path id="Trazado_1270739" data-name="Trazado 1270739" d="M255.754,140.12a3.974,3.974,0,0,1-.945-4.842c.362-.861,2.568-4.172,3.387-4.327,1.569-.3,1.954.639,2.737,1.671,1.28,1.688,2.674,3.8,1.855,5.907a4.5,4.5,0,0,1-7.034,1.591m3.363-5.417c-3.191,1.205-1.449,5.967,1.075,2.617Z" transform="translate(-186.699 -98.142)" fill="#6a2874"/>
                <path id="Trazado_1270740" data-name="Trazado 1270740" d="M258.035,70.278c2.477-.2,2.6,3.638.207,3.68a1.843,1.843,0,1,1-.207-3.68" transform="translate(-188.075 -52.687)" fill="#6a2874"/>
              </g>
            </g>
          </g>
        </g>
      </g>
      <ellipse id="Elipse_13678" data-name="Elipse 13678" cx="19.243" cy="19.243" rx="19.243" ry="19.243" transform="translate(305.965 10136.186)" fill="#da9dfe"/>
      <g id="Grupo_1207826" data-name="Grupo 1207826" transform="translate(305.146 10138.641)">
        <path id="Trazado_998481" data-name="Trazado 998481" d="M0,13.854q4.835.419,9.664.868l-.27.112,1.389-2.491a.373.373,0,0,1,.426-.131.271.271,0,0,1,.2.185l0,.01,1.186,5.359L11.7,17.7l1.915-4.337,1.934-4.332,1.94-4.33L19.452.377A.822.822,0,0,1,20.394.03.578.578,0,0,1,20.9.6V.609l-.77,7.01-.812,7.007-.823,7.006-.854,7L16.044,28.4c1.235-2.953,2.506-5.9,3.765-8.845l1.893-4.42,1.917-4.414,0-.011a.7.7,0,0,1,.8-.305.505.505,0,0,1,.439.47l-.29,5.628-.314,5.627-.826-.118,2.776-5.324,0-.009a.291.291,0,0,1,.3-.125l5.25.671,5.247.689-5.291-.467-5.287-.485.3-.133-2.494,5.4a.472.472,0,0,1-.54.2.338.338,0,0,1-.286-.3v-.012l.079-5.631.1-5.631L24.836,11,23.051,15.45l-1.809,4.44c-1.209,2.959-2.407,5.921-3.64,8.874a.892.892,0,0,1-1.022.4c-.373-.087-.6-.356-.57-.635v0l.812-7.007.842-7,.854-7,.9-7,1.444.232-2.048,4.3-2.069,4.3-2.074,4.3-2.093,4.29-.005.011a.513.513,0,0,1-.588.2.382.382,0,0,1-.3-.278l-.924-5.388.624.063L9.86,14.986l0,.007a.273.273,0,0,1-.265.1q-4.8-.609-9.59-1.244" transform="translate(0 4.51) rotate(-7)" fill="#fff"/>
      </g>
    </g>
    <path id="Trazado_1271488" data-name="Trazado 1271488" d="M79.8,53.239V66.476a.9.9,0,0,1-.9.895H68.265a.9.9,0,0,0-.9.9V78.909a.9.9,0,0,1-.9.9H53.239a.9.9,0,0,1-.9-.9V68.266a.9.9,0,0,0-.895-.9H40.767a.9.9,0,0,1-.9-.895V53.239a.9.9,0,0,1,.9-.9H51.449a.9.9,0,0,0,.895-.895V40.768a.9.9,0,0,1,.9-.9H66.475a.9.9,0,0,1,.9.9V51.449a.9.9,0,0,0,.9.895H78.908a.9.9,0,0,1,.9.9" transform="translate(951.754 2916.793)" fill="#8d1939"/>
  </g>
</svg>
