<svg xmlns="http://www.w3.org/2000/svg" xmlns:xlink="http://www.w3.org/1999/xlink" width="292" height="222" viewBox="0 0 292 222">
  <defs>
    <clipPath id="clip-path">
      <path id="Trazado_1266782" data-name="Trazado 1266782" d="M0,0H292V222H0Z" fill="#fff5d4"/>
    </clipPath>
    <clipPath id="clip-path-2">
      <rect id="Rectángulo_459413" data-name="Rectángulo 459413" width="267.412" height="220.657" fill="none"/>
    </clipPath>
  </defs>
  <g id="Grupo_1208353" data-name="Grupo 1208353" transform="translate(-185.422 -6730.594)">
    <g id="Enmascarar_grupo_1180272" data-name="Enmascarar grupo 1180272" transform="translate(185.422 6730.594)" clip-path="url(#clip-path)">
      <g id="Grupo_1209146" data-name="Grupo 1209146" transform="translate(13 0.995)">
        <g id="Grupo_1209145" data-name="Grupo 1209145" clip-path="url(#clip-path-2)">
          <path id="Trazado_1269096" data-name="Trazado 1269096" d="M121.155,220.657a110.562,110.562,0,0,1-32.284-4.786A108.761,108.761,0,0,1,77.927,211.9a6.918,6.918,0,0,1-.78.045,6.715,6.715,0,0,1-5.6-3.008c-2.578-1.289-5.092-2.675-7.505-4.138a110.626,110.626,0,0,1-18.293-13.839A109.375,109.375,0,0,1,10.9,110.93q0-1.427.038-2.879A41.705,41.705,0,0,1,0,79.759a42.423,42.423,0,0,1,39.084-42.1A110.7,110.7,0,0,1,166.3,10.794l1.044-5.386A6.714,6.714,0,0,1,175.686.234L262.463,23.69a6.67,6.67,0,0,1,4.755,8.031L245.71,118.931a6.712,6.712,0,0,1-8.088,4.894l-6.788-1.634c-.347,3.481-.854,6.887-1.518,10.188a108.077,108.077,0,0,1-9.572,27.772c-1.324,2.625-2.76,5.2-4.261,7.663a110.6,110.6,0,0,1-10.808,14.769l-.606.691c-.144.17-.336.383-.562.617a110.544,110.544,0,0,1-82.353,36.764" transform="translate(0)" fill="#fff"/>
          <path id="Trazado_1269097" data-name="Trazado 1269097" d="M223.678,110.267a102.509,102.509,0,0,1-10.963,46.222c-1.241,2.457-2.582,4.871-4,7.2a103.492,103.492,0,0,1-10.148,13.868c-.2.234-.414.467-.625.712-.112.134-.235.268-.381.412A104.026,104.026,0,0,1,77.548,204.246c-.571-.256-1.129-.523-1.677-.79a99.514,99.514,0,0,1-9.387-5.017A104.085,104.085,0,0,1,32.6,165.364a102.148,102.148,0,0,1-16.037-55.1C16.563,53.347,62.919,7.2,120.115,7.2S223.678,53.347,223.678,110.267" transform="translate(1.611 0.663)" fill="#6a2874"/>
          <path id="Trazado_1269098" data-name="Trazado 1269098" d="M160.589,6.111,142.994,96.84l82.863,19.937,21.508-87.21Z" transform="translate(13.911 0.562)" fill="#9fc0f8"/>
          <path id="Trazado_1269119" data-name="Trazado 1269119" d="M0,0,5.34.006,5.347,5.37.006,5.363Z" transform="translate(176.747 16.818) rotate(-75.418)" fill="#ffa255"/>
          <path id="Trazado_1269120" data-name="Trazado 1269120" d="M0,0,5.341.006,5.347,5.37.006,5.364Z" transform="translate(174.963 23.642) rotate(-75.418)" fill="#e7d8dd"/>
          <path id="Trazado_1269121" data-name="Trazado 1269121" d="M0,0,5.341.006,5.347,5.37.006,5.364Z" transform="translate(173.18 30.467) rotate(-75.418)" fill="#ff988c"/>
          <path id="Trazado_1269099" data-name="Trazado 1269099" d="M198.661,33.483a26.033,26.033,0,1,0,17.546,32.394,26.169,26.169,0,0,0-17.546-32.394" transform="translate(16.052 2.979)" fill="#faeddc"/>
          <path id="Trazado_1269100" data-name="Trazado 1269100" d="M178.357,75.5,158.4,83.524l13.122-18.983Z" transform="translate(15.409 5.938)" fill="#faeddc"/>
          <rect id="Rectángulo_459404" data-name="Rectángulo 459404" width="25.605" height="5.196" transform="translate(204.972 73.705) rotate(-89.818)" fill="#8d1939"/>
          <rect id="Rectángulo_459405" data-name="Rectángulo 459405" width="5.171" height="25.729" transform="translate(194.738 63.455) rotate(-89.818)" fill="#8d1939"/>
          <path id="Trazado_1269101" data-name="Trazado 1269101" d="M100.634,122c0,3.826-7.812,3.447-15.222,2.224a.654.654,0,0,0-.145-.022c-6.639-1.113-12.907-2.87-12.907-2.87l-2.258,21.2-2.19,20.586-2.85,26.87a104.115,104.115,0,0,1-33.884-33.076c.414-7.418,1.565-14.359,4.582-18.362,3.453-4.582,13.1-17.195,21.613-26.926,1.766-2.035,3.487-3.938,5.1-5.617,4.057-4.237,7.376-7.062,8.9-6.862a1.935,1.935,0,0,1,.235.045c.134.023.269.056.414.09a18.082,18.082,0,0,1,2.022.734,54.588,54.588,0,0,1,5.432,2.746c.983.557,2.022,1.168,3.073,1.814.134.078.257.166.391.245.358.222.726.455,1.084.689,1.487.946,3,1.969,4.47,3.014,1.9,1.368,3.733,2.792,5.376,4.2a41.414,41.414,0,0,1,3.453,3.314c2.034,2.213,3.319,4.282,3.319,5.961" transform="translate(3.033 9.12)" fill="#ff988c"/>
          <path id="Trazado_1269102" data-name="Trazado 1269102" d="M200.422,170.993,89.327,199.42l-.224.056-14,3.593-1.442.367-.235-1.156-6.538-31.887L61.265,142.9l-.123-.567L56.348,118.9,41.719,47.486,72.284,39.6,118.65,27.634,148.188,20Z" transform="translate(4.059 1.84)" fill="#ad8b96"/>
          <path id="Trazado_1269103" data-name="Trazado 1269103" d="M47.785,50.236,76.244,186.307,189.186,158,142.646,26.258Z" transform="translate(4.649 2.416)" fill="#faeddc"/>
          <path id="Trazado_1269122" data-name="Trazado 1269122" d="M0,0,82.84.1l.005,4.117-82.84-.1Z" transform="translate(73.666 101.79) rotate(-15.802)" fill="#e7d8dd"/>
          <path id="Trazado_1269123" data-name="Trazado 1269123" d="M0,0,82.84.1l.005,4.117-82.84-.1Z" transform="translate(75.851 109.475) rotate(-15.802)" fill="#e7d8dd"/>
          <path id="Trazado_1269124" data-name="Trazado 1269124" d="M0,0,82.84.1l.005,4.117-82.84-.1Z" transform="translate(78.037 117.161) rotate(-15.802)" fill="#e7d8dd"/>
          <path id="Trazado_1269125" data-name="Trazado 1269125" d="M0,0,82.84.1l.005,4.117-82.84-.1Z" transform="translate(81.198 126.267) rotate(-15.802)" fill="#e7d8dd"/>
          <path id="Trazado_1269104" data-name="Trazado 1269104" d="M63.1,60.165l20.461-5.214L90.3,75.314,67.589,80.777Z" transform="translate(6.138 5.056)" fill="#e7d8dd"/>
          <path id="Trazado_1269126" data-name="Trazado 1269126" d="M0,0,40.02.05l0,2.816L0,2.816Z" transform="translate(104.109 59.74) rotate(-15.803)" fill="#e7d8dd"/>
          <path id="Trazado_1269127" data-name="Trazado 1269127" d="M0,0,40.02.05l0,2.816L0,2.816Z" transform="translate(105.604 64.996) rotate(-15.803)" fill="#e7d8dd"/>
          <path id="Trazado_1269128" data-name="Trazado 1269128" d="M0,0,40.02.05l0,2.816L0,2.816Z" transform="translate(107.099 70.253) rotate(-15.803)" fill="#e7d8dd"/>
          <path id="Trazado_1269105" data-name="Trazado 1269105" d="M140.411,130.362c-.075.319-.153.63-.235.95-2.966,11.491-11.66,25.371-12.315,26.407l.048.148A134.263,134.263,0,0,1,108.862,146.7c-.165-.115-.324-.238-.49-.359C100.424,140.488,94,133.426,98.232,127.7c6.993-9.449,20.84.251,20.84.251l.042-.122s6.451-15.54,17.456-11.277c4.873,1.891,5.331,7.4,3.842,13.812" transform="translate(9.425 10.655)" fill="#ff9ebf"/>
          <path id="Trazado_1269106" data-name="Trazado 1269106" d="M105.781,144.377l7.038-1.582,4.1-12.759,11.671,13.989-.424-6.271,9.368-2.107" transform="translate(10.291 11.964)" fill="none" stroke="#faeddc" stroke-linecap="round" stroke-linejoin="round" stroke-width="0.522"/>
          <path id="Trazado_1269107" data-name="Trazado 1269107" d="M121.152,34.723,68.747,49.333l-.327-1.161a11.325,11.325,0,0,1,7.893-13.967l30.478-8.5a11.392,11.392,0,0,1,14.034,7.854Z" transform="translate(6.615 2.326)" fill="#3d2929"/>
          <path id="Trazado_1269108" data-name="Trazado 1269108" d="M104.089,28.607,77.368,36.058,77.07,35a6.148,6.148,0,0,1,4.286-7.585l14.812-4.131a6.19,6.19,0,0,1,7.623,4.266Z" transform="translate(7.475 2.121)" fill="#3d2929"/>
          <path id="Trazado_1269109" data-name="Trazado 1269109" d="M88.648,192.559a46.5,46.5,0,0,1-1.14,5.95c-.2.745-.4,1.491-.614,2.224a102.891,102.891,0,0,1-12.248-4.582l-1.442.367-.235-1.158a99.507,99.507,0,0,1-9.387-5.016,103.6,103.6,0,0,1-17.188-13l9.7-18.706,1.475-2.848s.537-4.359,1.532-10.743c.167-1.124.358-2.3.548-3.548.067-.378.134-.768.2-1.156.257-1.58.537-3.237.838-4.927.492-2.758,1.039-5.639,1.621-8.542l.033-.167c.47-2.268.961-4.537,1.487-6.773,1.888-8.141,4.158-15.726,6.705-20.3a12.3,12.3,0,0,1,2.615-3.459A3.707,3.707,0,0,1,75.2,95.2a2.3,2.3,0,0,1,.614.022,1.117,1.117,0,0,1,.425.09c1.173.322,2.168,1.446,3.029,3.17a22.407,22.407,0,0,1,1.453,3.87c.257.878.5,1.824.726,2.825q.1.45.2.934c.269,1.279.5,2.647.726,4.071.28,1.757.526,3.6.726,5.516.168,1.357.3,2.747.425,4.161.157,1.556.28,3.136.4,4.726.67,9.131.95,18.429,1.285,24.69a53.594,53.594,0,0,0,.638,6.851c.145.656.324,1.424.5,2.28.571,2.7,1.263,6.328,1.821,10.443.336,2.5.627,5.183.816,7.963a78.2,78.2,0,0,1-.347,15.749" transform="translate(4.513 8.758)" fill="#ff988c"/>
          <path id="Trazado_1269110" data-name="Trazado 1269110" d="M55.063,159.437s3.16-13.079,4.824-23.012S65.709,96.03,74.359,95.2s9.483,46.19,9.982,53.639,2.494,16.721,3.493,23.012A87.847,87.847,0,0,1,88,192.713" transform="translate(5.357 8.758)" fill="none" stroke="#3d2929" stroke-linecap="round" stroke-miterlimit="10" stroke-width="0.445"/>
          <path id="Trazado_1269111" data-name="Trazado 1269111" d="M53,135.871a31.624,31.624,0,0,1,6.066,1.9" transform="translate(5.156 12.501)" fill="none" stroke="#3d2929" stroke-linecap="round" stroke-miterlimit="10" stroke-width="0.445"/>
          <path id="Trazado_1269112" data-name="Trazado 1269112" d="M55.2,133.061q2,1.859,3.85,3.865" transform="translate(5.37 12.242)" fill="none" stroke="#3d2929" stroke-linecap="round" stroke-miterlimit="10" stroke-width="0.445"/>
          <path id="Trazado_1269113" data-name="Trazado 1269113" d="M78.1,76.036a35.638,35.638,0,0,1-32.052,35.382h-.029c-1.2.116-2.42.18-3.654.18h-.153a35.562,35.562,0,1,1,0-71.124h.153c1.234,0,2.455.064,3.654.18h.029A35.638,35.638,0,0,1,78.1,76.036" transform="translate(0.645 3.724)" fill="#da9dfe"/>
          <path id="Trazado_1269114" data-name="Trazado 1269114" d="M74.593,75.766a32.426,32.426,0,0,1-29.162,32.192H45.4c-1.091.106-2.2.165-3.325.165H41.94a32.357,32.357,0,1,1,0-64.714h.139c1.124,0,2.234.059,3.325.164h.026A32.426,32.426,0,0,1,74.593,75.766" transform="translate(0.931 3.994)" fill="#faeddc"/>
          <path id="Trazado_1269115" data-name="Trazado 1269115" d="M41.765,73.048a2.091,2.091,0,1,1-2.09-2.08,2.085,2.085,0,0,1,2.09,2.08" transform="translate(3.656 6.529)" fill="#3d2929"/>
          <path id="Trazado_1269116" data-name="Trazado 1269116" d="M39.15,58.791V74.723H60.187" transform="translate(3.809 5.409)" fill="none" stroke="#3d2929" stroke-linecap="round" stroke-linejoin="round" stroke-width="0.53"/>
          <line id="Línea_3780" data-name="Línea 3780" y2="4.334" transform="translate(43.11 50.407)" fill="none" stroke="#3d2929" stroke-linecap="round" stroke-linejoin="round" stroke-width="0.53"/>
          <line id="Línea_3781" data-name="Línea 3781" y2="4.334" transform="translate(43.11 105.571)" fill="none" stroke="#3d2929" stroke-linecap="round" stroke-linejoin="round" stroke-width="0.53"/>
          <line id="Línea_3782" data-name="Línea 3782" x1="4.355" transform="translate(68.649 80.156)" fill="none" stroke="#3d2929" stroke-linecap="round" stroke-linejoin="round" stroke-width="0.53"/>
          <line id="Línea_3783" data-name="Línea 3783" x1="4.355" transform="translate(13.218 80.156)" fill="none" stroke="#3d2929" stroke-linecap="round" stroke-linejoin="round" stroke-width="0.53"/>
          <line id="Línea_3784" data-name="Línea 3784" y2="15.61" transform="translate(205.052 120.728)" fill="none" stroke="#faeddc" stroke-linecap="round" stroke-linejoin="round" stroke-width="0.857"/>
          <line id="Línea_3785" data-name="Línea 3785" x1="11.091" y2="11.038" transform="translate(199.506 123.014)" fill="none" stroke="#faeddc" stroke-linecap="round" stroke-linejoin="round" stroke-width="0.857"/>
          <line id="Línea_3786" data-name="Línea 3786" x1="15.686" transform="translate(197.209 128.533)" fill="none" stroke="#faeddc" stroke-linecap="round" stroke-linejoin="round" stroke-width="0.857"/>
          <line id="Línea_3787" data-name="Línea 3787" x1="11.091" y1="11.038" transform="translate(199.506 123.014)" fill="none" stroke="#faeddc" stroke-linecap="round" stroke-linejoin="round" stroke-width="0.857"/>
          <line id="Línea_3788" data-name="Línea 3788" y2="15.61" transform="translate(125.444 10.268)" fill="none" stroke="#faeddc" stroke-linecap="round" stroke-linejoin="round" stroke-width="0.857"/>
          <line id="Línea_3789" data-name="Línea 3789" x1="11.091" y2="11.038" transform="translate(119.899 12.554)" fill="none" stroke="#faeddc" stroke-linecap="round" stroke-linejoin="round" stroke-width="0.857"/>
          <line id="Línea_3790" data-name="Línea 3790" x1="15.686" transform="translate(117.601 18.073)" fill="none" stroke="#faeddc" stroke-linecap="round" stroke-linejoin="round" stroke-width="0.857"/>
          <line id="Línea_3791" data-name="Línea 3791" x1="11.091" y1="11.038" transform="translate(119.899 12.554)" fill="none" stroke="#faeddc" stroke-linecap="round" stroke-linejoin="round" stroke-width="0.857"/>
          <line id="Línea_3792" data-name="Línea 3792" y2="15.61" transform="translate(125.444 190.866)" fill="none" stroke="#faeddc" stroke-linecap="round" stroke-linejoin="round" stroke-width="0.857"/>
          <line id="Línea_3793" data-name="Línea 3793" x1="11.091" y2="11.038" transform="translate(119.899 193.152)" fill="none" stroke="#faeddc" stroke-linecap="round" stroke-linejoin="round" stroke-width="0.857"/>
          <line id="Línea_3794" data-name="Línea 3794" x1="15.686" transform="translate(117.601 198.671)" fill="none" stroke="#faeddc" stroke-linecap="round" stroke-linejoin="round" stroke-width="0.857"/>
          <line id="Línea_3795" data-name="Línea 3795" x1="11.091" y1="11.038" transform="translate(119.899 193.152)" fill="none" stroke="#faeddc" stroke-linecap="round" stroke-linejoin="round" stroke-width="0.857"/>
          <line id="Línea_3796" data-name="Línea 3796" y2="15.61" transform="translate(36.706 123)" fill="none" stroke="#faeddc" stroke-linecap="round" stroke-linejoin="round" stroke-width="0.857"/>
          <line id="Línea_3797" data-name="Línea 3797" x1="11.091" y2="11.038" transform="translate(31.16 125.286)" fill="none" stroke="#faeddc" stroke-linecap="round" stroke-linejoin="round" stroke-width="0.857"/>
          <line id="Línea_3798" data-name="Línea 3798" x1="15.686" transform="translate(28.863 130.805)" fill="none" stroke="#faeddc" stroke-linecap="round" stroke-linejoin="round" stroke-width="0.857"/>
          <line id="Línea_3799" data-name="Línea 3799" x1="11.091" y1="11.038" transform="translate(31.16 125.286)" fill="none" stroke="#faeddc" stroke-linecap="round" stroke-linejoin="round" stroke-width="0.857"/>
          <path id="Trazado_1269117" data-name="Trazado 1269117" d="M63.2,30.983l4.742,1.131L63.288,33.4l-1.137,4.72-1.29-4.636L56.118,32.35l4.659-1.284,1.137-4.719Z" transform="translate(5.459 2.424)" fill="#faeddc"/>
          <path id="Trazado_1269118" data-name="Trazado 1269118" d="M155.311,166.514l4.742,1.131-4.658,1.283-1.137,4.72-1.29-4.636-4.742-1.131,4.659-1.284,1.136-4.719Z" transform="translate(14.42 14.893)" fill="#faeddc"/>
        </g>
      </g>
    </g>
  </g>
</svg>
