<svg xmlns="http://www.w3.org/2000/svg" xmlns:xlink="http://www.w3.org/1999/xlink" width="292" height="223.406" viewBox="0 0 292 223.406">
  <defs>
    <clipPath id="clip-path">
      <rect id="Rectángulo_459380" data-name="Rectángulo 459380" width="247.613" height="214.5" fill="none"/>
    </clipPath>
  </defs>
  <g id="Grupo_1208284" data-name="Grupo 1208284" transform="translate(-185.711 -6737.594)">
    <g id="Grupo_1209125" data-name="Grupo 1209125">
      <path id="Trazado_1266782" data-name="Trazado 1266782" d="M0,0H292V223.073H0Z" transform="translate(185.711 6737.927)" fill="#fff5d4"/>
      <path id="Trazado_1269016" data-name="Trazado 1269016" d="M185.711,6961l292-223.406V6961Z" fill="#ffe19a"/>
      <g id="Grupo_1209124" data-name="Grupo 1209124" transform="translate(207.904 6744.594)">
        <g id="Grupo_1209123" data-name="Grupo 1209123" transform="translate(0 0)" clip-path="url(#clip-path)">
          <path id="Trazado_1268933" data-name="Trazado 1268933" d="M125.641,76.059a231.032,231.032,0,0,0-51.619-2.385c-5.851.356-11.839.8-17.379,2.867-4.39,1.641-6.8,6.294-.208,6.516l28.947.971c-.514,1.108,1.1,1.945,2.314,2.1a166.574,166.574,0,0,0,31.612,1.023c3.841-.243,7.889-.695,10.989-2.979a4.707,4.707,0,0,0,1.907-2.454,4.075,4.075,0,0,0-1.92-4.18,11.5,11.5,0,0,0-4.642-1.477" transform="translate(90.88 127.024)" fill="#65bfd7"/>
          <path id="Trazado_1268934" data-name="Trazado 1268934" d="M28.524,62.842a6.741,6.741,0,0,0-4.587-.356c-9.621,2.26-7.867,15.136-3.146,21.219,1.934,2.489,4.91,4.519,8.19,4.4,2.99-.115,6.087-2.467,6.516-5.479A24.316,24.316,0,0,0,31.385,65.4a7.537,7.537,0,0,0-2.861-2.56" transform="translate(29.455 108.035)" fill="#231c20"/>
          <path id="Trazado_1268935" data-name="Trazado 1268935" d="M66.376,50.875a25.573,25.573,0,0,0-2.894-7.643c-2.963-5.312-4.434-9.251-10.975-10.748-3.48-.793-7.255-1.168-10.513.287a16.943,16.943,0,0,0-6.27,5.594,54.9,54.9,0,0,0-10.74,35.72c.282,4.68,1.018,9.323,1.753,13.954q1.444,9.093,2.886,18.186.722,4.546,1.442,9.093c.342,2.147,1.548,5.2,1.253,7.323a16.553,16.553,0,0,0-3.947-2.867,5.584,5.584,0,0,0-4.732-.159,5.954,5.954,0,0,0-1.759,1.431c-5.222,5.868-1.042,11.815,3.92,15.94,3.381,2.812,6.907,5.17,10.5,7.665a38.6,38.6,0,0,0,8.8,4.563c2.4.873,5,1.97,7.583,2.106a15.127,15.127,0,0,0,6.951-1.8,9.581,9.581,0,0,0,3.124-2.279c1.89-2.235,2.008-5.424,1.994-8.352a332.365,332.365,0,0,0-1.964-34.525c-1.546-14.126,1.277-27.246,3.318-41.23.594-4.062,1.045-8.223.274-12.258" transform="translate(33.793 55.16)" fill="#395795"/>
          <path id="Trazado_1268936" data-name="Trazado 1268936" d="M28.08,43.516A29.922,29.922,0,0,0,31.1,46.263a29.539,29.539,0,0,0,3.573,2.229c1.226.662,2.489,1.25,3.734,1.871,1.4.7,2.793,1.39,4.213,2.035,1.45.657,2.916,1.283,4.388,1.89,1.4.574,2.807,1.157,4.259,1.606,2,.615,4.046,1.091,6.032,1.748a27.073,27.073,0,0,0-.339-6.768,25.6,25.6,0,0,0-2.894-7.643c-2.963-5.31-4.432-9.251-10.975-10.748-3.48-.793-7.255-1.168-10.513.287a16.964,16.964,0,0,0-6.27,5.594q-.73.968-1.414,1.972c1.009,1.108,2.115,2.139,3.184,3.179" transform="translate(43.207 55.16)" fill="#231c20"/>
          <path id="Trazado_1268937" data-name="Trazado 1268937" d="M90.886,21.381a57.6,57.6,0,0,1-3.655-5.08,18.439,18.439,0,0,0-7.3-6.535A10.321,10.321,0,0,0,73.9,9.022c-2.3.44-2.979,1.68-4.659,2.993A6.477,6.477,0,0,1,66.5,13.152c-3.146.624-6.407-.011-9.558-.287-6.439-.561-11.079,3.824-12.958,9.64-2.369,7.337-4.36,14.785-6.27,22.251a32.037,32.037,0,0,1-1.417,5.3c-.588,1.286-1.332,2.339-1.814,3.715a87.2,87.2,0,0,1-4.131,10.094c-.569,1.143-1.168,2.27-1.811,3.376a22.355,22.355,0,0,0-2.251,4.467,5.9,5.9,0,0,0,.367,4.845A8.5,8.5,0,0,0,28.3,78.32l4.36,3.876c2.993,2.659,6.043,5.359,9.676,7.038,4.976,2.3,10.63,2.511,16.109,2.681,4.579.145,8.7-.022,12.091-3.5A29.9,29.9,0,0,0,74.2,83.433q3.283-5.166,6.535-10.351,1.617-2.6,3.214-5.208c.531-.87,1.056-1.745,1.584-2.618.317-.528.574-1.346,1.133-1.647a10.93,10.93,0,0,0,.988-.473,3.078,3.078,0,0,0,.873-1.124q.964-1.74,1.926-3.482a11.137,11.137,0,0,0,.922-1.95c.131-.4.219-.821.356-1.22a8.522,8.522,0,0,1,.785-1.592,29.575,29.575,0,0,1,7.881-9.186c2.03-1.42,5.851-3.537,5.8-6.39a6.865,6.865,0,0,0-.572-2.276,18.167,18.167,0,0,0-6.1-8.589c-2.711-2.125-5.851-2.99-8.3-5.567-.118-.123-.235-.249-.347-.378" transform="translate(45.028 15.369)" fill="#395795"/>
          <path id="Trazado_1268938" data-name="Trazado 1268938" d="M55.229,47.883c1.275,1.078,3.649.766,5.266,1.05,1.857.328,3.671.848,5.5,1.283,1.253.3,3.564,1.176,4.809.681-.553-4.256-1.866-8.551-2.774-12.753q-.689-3.2-1.373-6.393c-.378-1.756-1.039-2.4-2.965-2.087q-4.789.776-9.582,1.548c-1.335.216-3.222.2-3.518,1.833a5.007,5.007,0,0,0,.142,1.918,61.977,61.977,0,0,0,3.871,12.08,2.27,2.27,0,0,0,.621.84" transform="translate(87.729 51.352)" fill="#ffa87d"/>
          <path id="Trazado_1268939" data-name="Trazado 1268939" d="M71,58.114c-.109.03-.222.06-.331.088a54.469,54.469,0,0,1-6.521,1.338q-3.894.529-7.785,1.061c-.528.071-1.081.167-1.633.235a9.349,9.349,0,0,1-1.554.088c-.9-.033-1.1-.408-1.239-1.384q-.226-1.572-.454-3.14c-.055-.375-.107-.75-.161-1.127-.75-5.181-1.48-10.351-2.019-15.557-.583-5.627-1.19-10.731,1.184-16.049a13.291,13.291,0,0,1,3.685-5.121,7.57,7.57,0,0,1,3.7-1.592c2.251-.282,4.15-.2,5.766,1.1a6.673,6.673,0,0,1,1.171,1.22c2.4,3.176,2.465,7.427,2.916,11.21q.767,6.43,1.532,12.86.451,3.812.925,7.621.1.771.219,1.546.086.562.172,1.132A30.37,30.37,0,0,1,71,58.114" transform="translate(84.643 29.191)" fill="#395795"/>
          <path id="Trazado_1268940" data-name="Trazado 1268940" d="M68.952,31c-.287.027-.577.057-.864.09-2.6.274-5.195.673-7.736,1.061l-8.319,1.277-2.169.331c-.055-.378-.107-.752-.161-1.127l2.443-.377,8.034-1.231c2.462-.378,4.973-.763,7.5-1.042.367-.038.733-.079,1.1-.115.055.377.115.752.172,1.133" transform="translate(86.258 51.831)" fill="#65bfd7"/>
          <path id="Trazado_1268941" data-name="Trazado 1268941" d="M61.158,21.848a.647.647,0,0,0-.564,0A26.433,26.433,0,0,0,49.7,31.819c-.148.246.626.345.771.109a26.043,26.043,0,0,1,7.859-8.174,25.569,25.569,0,0,1,2.826-1.619c.15-.074.134-.208,0-.287" transform="translate(86.226 37.804)" fill="#231c20"/>
          <path id="Trazado_1268942" data-name="Trazado 1268942" d="M53.7,27.175q-1.018-.726-2.035-1.455a.633.633,0,0,0-.547-.071c-.09.03-.254.137-.183.238l-.025.027q-1.375,2.232-2.673,4.505-.316.55-.626,1.1c-.107.194-.216.386-.323.58a1.239,1.239,0,0,0-.227.481c-.014.323.6.514.829.635q.579.316,1.157.626a.647.647,0,0,0,.564,0c.142-.082.148-.208,0-.287l-1.059-.574-.531-.287c-.063-.033-.15-.047-.156-.129,0-.055.118-.219.14-.263q.591-1.059,1.193-2.112,1.128-1.961,2.312-3.884l1.5,1.072a.643.643,0,0,0,.547.074c.1-.036.3-.167.142-.279" transform="translate(81.676 44.456)" fill="#231c20"/>
          <path id="Trazado_1268943" data-name="Trazado 1268943" d="M61.925,23.648,61.7,27.13c-.038.564-.074,1.124-.112,1.685a3.817,3.817,0,0,1-.055.662.576.576,0,0,1-.052.145c-.088-.03-.175-.063-.263-.088a4.382,4.382,0,0,0-4.541,1.384.111.111,0,0,0,0,.109c.17.246.342.5.512.744.112.164.4.451.315.657-.074.17-.361.32-.506.435-.2.161-.4.32-.6.479a23.148,23.148,0,0,0-2.093,1.811,10.066,10.066,0,0,0-1.584,2.117,11.008,11.008,0,0,1-.93,1.469,25.788,25.788,0,0,0-1.316-5.523,11.663,11.663,0,0,0-1.546-2.771c-.29-.386-.695-.884-.591-1.4.044-.23.23-.419.219-.662a.743.743,0,0,0-.3-.531,5.459,5.459,0,0,0-1.474-.7q-.878-.361-1.753-.725c-.55-.227-1.116-.432-1.652-.689a1.288,1.288,0,0,1-.739-1.269c-.036-1.163.014-2.336.041-3.5.03-1.2.082-2.391.178-3.581a28.881,28.881,0,0,1,1.622-7.862c.112-.3-.676-.358-.771-.109-1.688,4.492-1.825,9.342-1.863,14.082a5.045,5.045,0,0,0,.1,1.66,1.684,1.684,0,0,0,1.018.933c1.143.5,2.306.955,3.458,1.431.263.109.533.211.793.328.2.09.462.219.528.446s-.137.449-.189.662a1.206,1.206,0,0,0,.066.728,6.478,6.478,0,0,0,.867,1.321,10.781,10.781,0,0,1,.8,1.376A23.952,23.952,0,0,1,51.1,39.47c.044.29.585.224.744.1,1.143-.864,1.581-2.317,2.44-3.414a19.933,19.933,0,0,1,3.4-3.088c.216-.178.648-.416.643-.741a.75.75,0,0,0-.181-.388c-.15-.216-.3-.432-.449-.651-.131-.191-.263-.271-.082-.46a3.393,3.393,0,0,1,1.209-.815,3.142,3.142,0,0,1,1.827-.17,3.727,3.727,0,0,0,.936.222.7.7,0,0,0,.722-.522,7.239,7.239,0,0,0,.109-1.291c.033-.525.068-1.048.1-1.573l.2-3.034c.019-.274-.78-.29-.8,0" transform="translate(72.599 16.07)" fill="#231c20"/>
          <path id="Trazado_1268944" data-name="Trazado 1268944" d="M46.628,22.105a.679.679,0,0,0-.205-.126l-.016-.008a.746.746,0,0,0-.369-.082,1.245,1.245,0,0,0-1.122.539c-.025.038-.044.079-.066.12l-.008.011a1.725,1.725,0,0,0-.282,1.193l.019.077a1.141,1.141,0,0,0,.022.194.637.637,0,0,0,.465.479,1.153,1.153,0,0,0,1-.2.869.869,0,0,0,.2-.156.94.94,0,0,0,.189-.293,2.412,2.412,0,0,0,.342-1.149.769.769,0,0,0-.175-.6" transform="translate(77.301 37.973)" fill="#231c20"/>
          <path id="Trazado_1268945" data-name="Trazado 1268945" d="M45.543,26.527a.679.679,0,0,0-.205-.126l-.014-.008a.763.763,0,0,0-.372-.082,1.245,1.245,0,0,0-1.122.539c-.025.038-.044.079-.066.12l-.008.011a1.74,1.74,0,0,0-.282,1.193l.019.077a.921.921,0,0,0,.025.194.63.63,0,0,0,.462.479,1.153,1.153,0,0,0,1-.2.869.869,0,0,0,.2-.156.979.979,0,0,0,.191-.3,2.39,2.39,0,0,0,.339-1.146.768.768,0,0,0-.175-.6" transform="translate(75.419 45.648)" fill="#231c20"/>
          <path id="Trazado_1268946" data-name="Trazado 1268946" d="M43.541,31.2a.679.679,0,0,0-.205-.126l-.016-.008a.746.746,0,0,0-.369-.082,1.245,1.245,0,0,0-1.122.539c-.025.038-.044.079-.066.12l-.008.011a1.729,1.729,0,0,0-.282,1.2l.019.074a1.142,1.142,0,0,0,.022.194.637.637,0,0,0,.465.479,1.153,1.153,0,0,0,1-.2.869.869,0,0,0,.2-.156.909.909,0,0,0,.189-.293,2.412,2.412,0,0,0,.342-1.149.768.768,0,0,0-.175-.6" transform="translate(71.944 53.758)" fill="#231c20"/>
          <path id="Trazado_1268947" data-name="Trazado 1268947" d="M26.859,43.97c-.161-.109-.375-.235-.6-.369a5.6,5.6,0,0,1-2.2-1.833c-.6-1.171.09-2.487.424-3.118.213-.386.446-.919.692-1.483.881-2.013,1.978-4.516,3.893-5.017a3.287,3.287,0,0,1,2.563.506,8.316,8.316,0,0,1,1.685,1.573l-.03.025.222-.123a.841.841,0,0,1-.585,1.226l-.378.066-.254-.284a7.2,7.2,0,0,0-1.4-1.329,1.92,1.92,0,0,0-1.477-.331c-1.272.331-2.26,2.591-2.982,4.24-.26.594-.506,1.154-.744,1.584-.353.67-.654,1.371-.41,1.844a5.387,5.387,0,0,0,1.677,1.28c.241.142.471.279.662.408Zm5.829-9.963a.527.527,0,0,0-.375.785l.468-.26Z" transform="translate(41.351 55.65)" fill="#395795"/>
          <path id="Trazado_1268948" data-name="Trazado 1268948" d="M28.027,45.564a.961.961,0,0,1-.377-.077.944.944,0,0,1-.577-.968.982.982,0,0,1,.6-.8,53.971,53.971,0,0,0,4.3-6.051c.558-.916,1.1-1.874,1.625-2.8l.8.443.788.462c-.531.936-1.083,1.9-1.652,2.845a54.662,54.662,0,0,1-4.694,6.546,1.053,1.053,0,0,1-.81.4" transform="translate(46.978 60.507)" fill="#395795"/>
          <path id="Trazado_1268949" data-name="Trazado 1268949" d="M65.859,15.407a25.7,25.7,0,0,1-2.716,7.476,56.65,56.65,0,0,1-5.974,8.655l-.246.3a59.967,59.967,0,0,1-6.88,7.772.852.852,0,0,1-.651.287c-.3-.055-.451-.4-.539-.7q-1.358-4.526-2.711-9.052a62.625,62.625,0,0,1-2.355-9.755,8.713,8.713,0,0,1-.09-2.112,3.6,3.6,0,0,1,1.127-2.292c.853-.826,1.931-1.387,2.809-2.186,1.57-1.42,2.462-3.376,4.081-4.727,1.732-1.442,3.233-3.129,5.539-3.657a6.587,6.587,0,0,1,3.346.268c2.355.717,4.639,2.3,5.364,4.659a10.759,10.759,0,0,1-.1,5.063" transform="translate(75.778 9.2)" fill="#ffa87d"/>
          <path id="Trazado_1268950" data-name="Trazado 1268950" d="M55.6,13.166a56.56,56.56,0,0,1-5.972,8.655c-1.343-1.5-1.756-4.812-1.592-6.212a5.928,5.928,0,0,1,1.784-3.98,2.626,2.626,0,0,1,3.43-.172c.665.481,1.753.78,2.224,1.472.03.047.057.093.085.145a.566.566,0,0,1,.041.093" transform="translate(83.316 18.915)" fill="#e06f63"/>
          <path id="Trazado_1268951" data-name="Trazado 1268951" d="M73.166,18.755a14.234,14.234,0,0,1-2,3.258c-.52.635-1.209,1.111-1.7,1.767a3.989,3.989,0,0,0-.75,2.1c-.156,1.234-.194,2.476-.26,3.715-.055,1.031-.052,2.451-1.105,3.02a2.637,2.637,0,0,1-1.026.254c-1.012.093-2.281-.388-3.162.134a15.506,15.506,0,0,0-2.744,2.388,13.777,13.777,0,0,1-2.738,2.117c-1.827,1.031-3.77.014-5.148-1.308A13.151,13.151,0,0,1,48.637,25.26a23.329,23.329,0,0,1,.8-3.863c.328-1.154.662-1.989.044-3.108a9.687,9.687,0,0,1-.123-9.213,13.049,13.049,0,0,1,4.489-5.02A10.831,10.831,0,0,1,57.9,2.336a13.808,13.808,0,0,1,3.945-.016,34.318,34.318,0,0,1,5.3,1.02A9.491,9.491,0,0,1,70.146,4.6a10.2,10.2,0,0,1,2.177,2.3,9.986,9.986,0,0,1,2.27,6.385,11.961,11.961,0,0,1-.342,2.153,18.291,18.291,0,0,1-1.086,3.313" transform="translate(83.737 3.792)" fill="#ffa87d"/>
          <path id="Trazado_1268952" data-name="Trazado 1268952" d="M83,16.194a5.438,5.438,0,0,1-1.3.615,5.726,5.726,0,0,1-3.19.079,8.822,8.822,0,0,1-3.925-2.415c-.815-.818-1.732-1.882-2.864-1.66-.84.164-1.36.982-1.808,1.712a18.284,18.284,0,0,1-3.682,4.489,10.106,10.106,0,0,1-3.964,2.106c-1.507.38-2.905.988-4.393,1.477a27.8,27.8,0,0,1-10.332,1.557,3.342,3.342,0,0,1-1.981-.591c-.845-.706-.331-1.617-.194-2.487a46.49,46.49,0,0,1,2.965-10.039,43.939,43.939,0,0,1,2.7-5.714C52.51,2.781,55.984.883,58.78.256a11.562,11.562,0,0,1,5.627.205c1.472.4,2.941,1.546,4.442,1.693a7.182,7.182,0,0,0,1.7-.178,7.339,7.339,0,0,1,4.987,1.081,4.158,4.158,0,0,0,1.206.648,8.292,8.292,0,0,0,1.543.019,2.711,2.711,0,0,1,2.388,1.811c.172.517.167,1.288.791,1.5a3.564,3.564,0,0,0,.856.107,3.53,3.53,0,0,1,2.785,2.539A6.064,6.064,0,0,1,83,16.194" transform="translate(78.25 -0.001)" fill="#932409"/>
          <path id="Trazado_1268953" data-name="Trazado 1268953" d="M58.378,12.193a1.011,1.011,0,0,0,.241-.927A3.929,3.929,0,0,0,57.357,9.2a4.284,4.284,0,0,0-1.9-1.275c-.394-.1-.629.145-.473.44a7.046,7.046,0,0,0,.834.936,13.908,13.908,0,0,1,1.414,2.093c.142.26.454.949.892.9a.529.529,0,0,0,.254-.1" transform="translate(95.339 13.711)" fill="#932409"/>
          <path id="Trazado_1268954" data-name="Trazado 1268954" d="M55.235,9.577c.484-.356,1.507-.583,1.633.29a.924.924,0,0,1-.109.531,2.067,2.067,0,0,1-.536.635,1.772,1.772,0,0,1-1.209.446.926.926,0,0,1-.243-.041.645.645,0,0,1-.419-.512,1.011,1.011,0,0,1,.233-.706,3.221,3.221,0,0,1,.651-.643" transform="translate(94.316 16.072)" fill="#231c20"/>
          <path id="Trazado_1268955" data-name="Trazado 1268955" d="M54,14.593l.079-.057c2.084-1.548,3.843-6.442.544-7.7a3.7,3.7,0,0,0-3.5.629c-1.9,1.48-3.288,5.63-1.354,7.591,1.179,1.193,3.08.367,4.235-.465" transform="translate(84.76 11.513)" fill="#ffa87d"/>
          <path id="Trazado_1268956" data-name="Trazado 1268956" d="M54.019,14.265c-.446-.481-.878-.979-1.283-1.483a.53.53,0,0,0-.492-.142.442.442,0,0,0-.238.093c-.036.038-.082.107-.041.159.438.542.892,1.07,1.365,1.578a.422.422,0,0,0,.238.093.737.737,0,0,0,.309-.019c.131-.044.265-.145.142-.279" transform="translate(90.156 21.919)" fill="#e06f63"/>
          <path id="Trazado_1268957" data-name="Trazado 1268957" d="M62.854,4.887a3.536,3.536,0,0,1-2.454,1.5,6.765,6.765,0,0,1-3.411-.58c-.282-.112-.886.161-.4.35a7.838,7.838,0,0,0,4.111.61A4.273,4.273,0,0,0,63.626,5c.153-.238-.618-.342-.771-.109" transform="translate(97.892 8.253)" fill="#701807"/>
          <path id="Trazado_1268958" data-name="Trazado 1268958" d="M60.512,3.717A3.4,3.4,0,0,1,59.33,5.363a3.257,3.257,0,0,1-.84.46,2.747,2.747,0,0,1-.916.17c-.123,0-.4.036-.4.205s.293.2.4.2a3.93,3.93,0,0,0,3.707-2.574c.1-.3-.687-.358-.769-.109" transform="translate(99.223 6.176)" fill="#701807"/>
          <path id="Trazado_1268959" data-name="Trazado 1268959" d="M56.757.675c-.066-.156-.364-.156-.492-.142a10.085,10.085,0,0,0-7.793,5.129,10.056,10.056,0,0,0-.946,2.511c-.057.241.728.293.8,0A9.475,9.475,0,0,1,56.478.926c.118-.014.342-.093.279-.252" transform="translate(82.475 0.913)" fill="#701807"/>
          <path id="Trazado_1268960" data-name="Trazado 1268960" d="M51.592,2.116a.625.625,0,0,0-.547.074,8,8,0,0,0-2.891,4.776c-.047.252.744.3.8,0a7.7,7.7,0,0,1,2.782-4.571c.148-.115-.033-.243-.142-.279" transform="translate(83.567 3.617)" fill="#701807"/>
          <path id="Trazado_1268961" data-name="Trazado 1268961" d="M57.156,1.645a3.624,3.624,0,0,1-.93,1.28,3.521,3.521,0,0,1-.624.44,3.135,3.135,0,0,1-.711.29c-.123.033-.274.153-.142.276a.623.623,0,0,0,.547.074,4.074,4.074,0,0,0,2.632-2.251c.123-.282-.662-.356-.771-.109" transform="translate(94.93 2.594)" fill="#701807"/>
          <path id="Trazado_1268962" data-name="Trazado 1268962" d="M70.69,36.14a66.9,66.9,0,0,0-17.726-1.373c-3.047.191-5.126,1.258-5.911,4.311A71.979,71.979,0,0,1,43.39,50.95c-1.748,3.868-2.5,7.681-.725,11.858,1.972,4.637,7.011,7.2,11.908,8.387S64.6,72.577,69.249,74.572c3.865,1.663,9.049,3.635,11.8,6.913,3.54,4.2,7.205,8.278,11.128,12.129a12.748,12.748,0,0,0,3.417,2.64,10.029,10.029,0,0,0,3.48.788,20.856,20.856,0,0,0,5.931-.394,14.809,14.809,0,0,0,6.013-2.626,15.961,15.961,0,0,0,5.775-10.759,36.236,36.236,0,0,0-1.327-14.241c-1.461-4.9-4.825-9-8.4-12.652-6-6.138-13.095-12.414-21.135-15.6A92.7,92.7,0,0,0,70.69,36.14" transform="translate(72.284 60.135)" fill="#ffa87d"/>
          <path id="Trazado_1268963" data-name="Trazado 1268963" d="M69.783,77.7c1.447,5.643,2.55,11.588,4.546,17.048.4,1.111.763,2.218,1.105,3.351,1.215,4,3.157,7.914,6.368,10.586a20.094,20.094,0,0,0,4.448,2.714,58.859,58.859,0,0,0,10.012,3.274,67.1,67.1,0,0,0,11.585,2.251,71.123,71.123,0,0,0,9.686-.126,2.34,2.34,0,0,0,1.578-.492c.654-.667-.038-1.206-.539-1.581a30.538,30.538,0,0,1-2.361-2.09,28.177,28.177,0,0,0-5.468-3.666q-5.433-3.053-10.865-6.108c-3.17-1.781-8.8-4.426-9.55-8.343-.5-2.588-1.313-5.121-1.825-7.711-1.335-6.77-1.365-13.743-2.954-20.459A29.125,29.125,0,0,0,80.373,54.93a11.079,11.079,0,0,0-3.584-3.143,14.068,14.068,0,0,0-5.482-1.13,8.54,8.54,0,0,0-3.679.326c-3.668,1.447-4.82,6.792-3.154,10.023C67.1,66.1,68.364,72.164,69.783,77.7" transform="translate(110.599 87.826)" fill="#ffa87d"/>
          <path id="Trazado_1268964" data-name="Trazado 1268964" d="M66.6,76.434A29.653,29.653,0,0,0,69.914,86.6c.826,1.5,2.943,3.808,4.12,1.141a1.373,1.373,0,0,1-.249,1.712c1.874.022,3.977-.049,5.274-1.4a.47.47,0,0,1,.32-.2c.222,0,.293.3.342.512a1.728,1.728,0,0,0,1.513,1.3,2.931,2.931,0,0,1,1-3.3,20.967,20.967,0,0,1,3.173-1.9,11.611,11.611,0,0,0,5-7.137A16.283,16.283,0,0,0,90.868,73c-.03-1.36-.41-2.7-.438-4.043a14.577,14.577,0,0,0-2.016-6.907,21.2,21.2,0,0,0-9.361-8.792,12.9,12.9,0,0,0-6.371-1.647c-5.025.153-4.9,5.509-5.553,9.328A50.581,50.581,0,0,0,66.6,76.434" transform="translate(114.927 89.567)" fill="#231c20"/>
          <path id="Trazado_1268965" data-name="Trazado 1268965" d="M75.768,58.765a12.973,12.973,0,0,0-1.9-3.562.53.53,0,0,0-.492-.142c-.082.011-.391.107-.282.249a14.318,14.318,0,0,1,2.618,6.423,23.168,23.168,0,0,1,.3,3.534,15.684,15.684,0,0,1-.252,3.3,6.417,6.417,0,0,1-1.614,3.272c-.26.26.506.388.687.205,1.614-1.636,1.964-4.021,1.981-6.223a20.767,20.767,0,0,0-1.045-7.055" transform="translate(126.818 95.544)" fill="#395795"/>
          <path id="Trazado_1268966" data-name="Trazado 1268966" d="M75.381,59.831a11.144,11.144,0,0,1-3.663,7.731c-.134.123.027.241.145.279a.616.616,0,0,0,.547-.074,11.458,11.458,0,0,0,3.77-7.936c.014-.276-.785-.29-.8,0" transform="translate(124.38 103.467)" fill="#395795"/>
          <path id="Trazado_1268967" data-name="Trazado 1268967" d="M71.729,55.245a16.343,16.343,0,0,0-2.024-2.716c-.172-.189-.941-.068-.689.205a16.643,16.643,0,0,1,4.289,10.876,16.189,16.189,0,0,1-.285,3.31c-.049.252.741.3.8,0a16.9,16.9,0,0,0-2.09-11.675" transform="translate(119.691 91.005)" fill="#395795"/>
          <path id="Trazado_1268968" data-name="Trazado 1268968" d="M70.747,57.1c-.047-.293-.84-.26-.8,0a12.567,12.567,0,0,1-.747,6.7c-.118.29.67.358.769.109a12.76,12.76,0,0,0,.777-6.809" transform="translate(120.079 98.743)" fill="#395795"/>
          <path id="Trazado_1268969" data-name="Trazado 1268969" d="M59.476,66.428c6.718,16.356,7.7,35,16.834,50.134a11.882,11.882,0,0,0,4.029,4.47,6.656,6.656,0,0,0,9.872-6.6,20.8,20.8,0,0,0-1.7-4.875,52.027,52.027,0,0,1-1.767-5.446c-.361-1.368-.667-2.749-.974-4.128-.271-1.234-.544-2.465-.812-3.7-2.071-9.555-3.822-19.154-2.566-28.947.172-1.354.394-2.7.52-4.059a29.382,29.382,0,0,0-.561-9.005c-.233-1.07-.331-2.467-1.119-3.255a12.133,12.133,0,0,0-3.113-2.063,16.812,16.812,0,0,0-14.257-.372q-.2.09-.4.189a8.573,8.573,0,0,0-3,2.229c-1.909,2.391-1.469,4.987-2.065,7.747-.626,2.88-.057,4.91,1.081,7.681" transform="translate(100.896 81.868)" fill="#ffa87d"/>
          <path id="Trazado_1268970" data-name="Trazado 1268970" d="M81.551,70.839q-1.042-.226-2.1-.391a16.036,16.036,0,0,0-6.836.142,14.632,14.632,0,0,0-6.639,4.484c-2.861,3.162,2.777,7.137,5.583,8.073a17.648,17.648,0,0,0,2.35.55c.635.118,9.5,1.535,9.5,1.308q9.191.989,18.421,1.513c3.581.205,7.1.326,10.69.468,3.9.153,7.772.974,11.653,1.324a4.05,4.05,0,0,0,1.384-.036,1.368,1.368,0,0,0,1-.875,6.036,6.036,0,0,0,2.544.678,1.385,1.385,0,0,0,.76-.131.562.562,0,0,0,.276-.659l1.455.26a1.638,1.638,0,0,0,.763.011.557.557,0,0,0,.419-.572c.424-.148.911.222,1.324.049a.756.756,0,0,0,.317-.968c-.345-.892-1.948-1.762-2.73-2.229q-1.448-.87-2.9-1.74a22.437,22.437,0,0,0-2.744-1.474c-3.668-1.554-7.752-1.048-11.626-1.045a47.833,47.833,0,0,1-11.782-1.9c-7.159-1.841-13.883-5.3-21.088-6.842" transform="translate(113.132 121.745)" fill="#ffa87d"/>
          <path id="Trazado_1268971" data-name="Trazado 1268971" d="M92.378,78.165a18.293,18.293,0,0,0-7.315-3.179.623.623,0,0,0-.547.074c-.12.123.008.249.145.279a17.576,17.576,0,0,1,7.028,3.031.631.631,0,0,0,.547.074c.107-.036.293-.164.142-.279" transform="translate(146.596 130.09)" fill="#e06f63"/>
          <path id="Trazado_1268972" data-name="Trazado 1268972" d="M94.76,79.148A14.215,14.215,0,0,0,86.266,74.4c-.134-.022-.427-.011-.49.142s.164.233.279.252a13.482,13.482,0,0,1,8.015,4.557c.164.194.933.079.689-.205" transform="translate(148.845 129.108)" fill="#e06f63"/>
          <path id="Trazado_1268973" data-name="Trazado 1268973" d="M95.077,79.388c-1.652-2.64-4.5-4.177-7.348-5.208a.6.6,0,0,0-.544.071c-.131.134.019.235.142.279,2.708.982,5.411,2.462,6.978,4.968.148.233.925.137.771-.109" transform="translate(151.223 128.679)" fill="#e06f63"/>
          <path id="Trazado_1268974" data-name="Trazado 1268974" d="M111.3,116.927c-5.072-.041-9.971-1.546-14.8-2.949-2.435-.708-4.9-1.351-7.3-2.18-1.209-.419-2.374-.944-3.556-1.428a31.906,31.906,0,0,0-3.48-1.209,30.9,30.9,0,0,0-7.632-1.124c-1.061-3.69-2.112-7.383-3.056-11.106-.985-3.884-1.855-7.8-2.484-11.76a78.4,78.4,0,0,1-1.039-11.946c-.011-2,.082-4,.252-6,.172-2.043.4-4.081.553-6.13a29.441,29.441,0,0,0-.96-11.355q-.226-.677-.5-1.332c-.1-.246-.892-.181-.771.107A25.563,25.563,0,0,1,68.04,59.8c-.211,4.059-.821,8.083-.881,12.154A75.7,75.7,0,0,0,68,83.912c.577,3.964,1.409,7.889,2.366,11.776s2.041,7.731,3.14,11.574c.079.271.156.539.233.81-.077.03-.14.079-.14.159,0,.107.123.161.238.183.03.1.057.2.088.3.071.246.859.205.769-.109l-.044-.156a29.248,29.248,0,0,1,10.173,2.106c1.171.473,2.317,1,3.5,1.431,2.383.867,4.858,1.5,7.29,2.2s4.861,1.436,7.326,2.019a37.845,37.845,0,0,0,8.36,1.127c.118,0,.4-.038.4-.205s-.287-.2-.4-.2" transform="translate(115.433 83.752)" fill="#e06f63"/>
          <path id="Trazado_1268975" data-name="Trazado 1268975" d="M61.792,60.244a43.452,43.452,0,0,0-3.072-8.187c-.134-.238-.916-.15-.771.109a43.378,43.378,0,0,1,3.072,8.187c.079.246.867.2.771-.109" transform="translate(100.539 90.101)" fill="#e06f63"/>
          <path id="Trazado_1268976" data-name="Trazado 1268976" d="M69.418,48.427a15.748,15.748,0,0,0-7.607-6.056.6.6,0,0,0-.544.074c-.131.134.019.233.142.279a15.086,15.086,0,0,1,7.238,5.813c.153.23.927.129.771-.109" transform="translate(106.24 73.477)" fill="#e06f63"/>
          <path id="Trazado_1268977" data-name="Trazado 1268977" d="M63.068,42.432a30.228,30.228,0,0,0-5.463.4A23.484,23.484,0,0,0,44.45,49.526a17.67,17.67,0,0,0-4.946,13.7c.205,1.991.941,3.313,3.023,3.28L59.5,66.229c2.525-.041,3.77-1.228,5.537-2.8,1.986-1.762,4.265-3.146,6.363-4.768,2.831-2.188,5.479-5.1,5.813-8.663A5.8,5.8,0,0,0,75.2,44.924a8.382,8.382,0,0,0-2.716-1.116,38.9,38.9,0,0,0-9.413-1.376" transform="translate(68.422 73.634)" fill="#395795"/>
          <path id="Trazado_1268978" data-name="Trazado 1268978" d="M47.637,117.335l.049,0a79.7,79.7,0,0,0,8.869-.588c3.028-.268,6.054-.6,9.057-1.081a69.261,69.261,0,0,0,14.372-3.734c5.444-2.123,9.536-7.047,12.064-12.187a79.914,79.914,0,0,0,7.17-20.035A34.743,34.743,0,0,0,97.9,61.1,19.481,19.481,0,0,0,92.507,53a13.185,13.185,0,0,0-2.32-1.567A15.086,15.086,0,0,0,73.9,52.9c-2.106,1.74-2.063,3.324-2.385,5.766-.944,7.074-2.065,14.121-3.045,21.189-.525,3.8,0,8.874-3.871,11.248a9.084,9.084,0,0,1-2.377.905,72.869,72.869,0,0,0-8.335,2.369q-4.534,1.855-9,3.863c-5.8,2.6-11.4,5.539-17.1,8.335-.268.142-.539.285-.812.424a5.712,5.712,0,0,0-.741-.309,4.131,4.131,0,0,0-4.533,1.048c-.451.539-.665,1.187-1.406.8-1.447-.75-2.074-1.7-3.852-1.165a7.627,7.627,0,0,0-1.939.782,14.428,14.428,0,0,0-2.53,2.659,16.047,16.047,0,0,1-1.381,1.275l-4.7,4.016a16.981,16.981,0,0,1-2.6,1.953c-1.007.572-4.44,1.715-2.916,3.4a2.873,2.873,0,0,0,1.641.747,11.186,11.186,0,0,0,3.006.142,1.469,1.469,0,0,1,.673.041,2.1,2.1,0,0,1,.651.585,3.818,3.818,0,0,0,2.787.84,47.868,47.868,0,0,0,9.99-1.3q5.3-1.091,10.575-2.3,4.542-1.034,9.139-1.8a48.654,48.654,0,0,1,8.789-1.089" transform="translate(-0.001 86.281)" fill="#ffa87d"/>
          <path id="Trazado_1268979" data-name="Trazado 1268979" d="M71.123,60.906c-.044.315-.068.64-.14.941-.336,1.433-.763,2.85-1.2,4.256q-1.3,4.226-3,8.316c-.479,1.152-.985,2.29-1.507,3.419a36.62,36.62,0,0,1-6.628,1.816c-1.31.276-2.621.561-3.909.936a24.687,24.687,0,0,0-3.86,1.5c-1.313.637-2.593,1.343-3.89,2.011s-2.618,1.329-3.939,1.967q-3.923,1.9-7.936,3.605-4.4,1.867-8.9,3.5c-.027-.052-.055-.1-.066-.115-.071-.115-.14-.23-.211-.345-.156-.257-.317-.514-.49-.76a5.536,5.536,0,0,0-1-1.124,5.133,5.133,0,0,0-2.689-1.105,5.357,5.357,0,0,0-5.085,2.5c-.588.925-1.056,1.912-1.685,2.815A19.843,19.843,0,0,1,12.939,97.5a27.84,27.84,0,0,1-5.206,4.117c-1.094.687-2.227,1.319-3.373,1.918a15.158,15.158,0,0,0-1.628.862,1.216,1.216,0,0,0-.624,1.3c.088.287.87.2.8-.036-.172-.561.265-.949.714-1.193.479-.257.974-.492,1.455-.747,1.023-.536,2.03-1.1,3.012-1.707a29.419,29.419,0,0,0,5.244-4.032,21.375,21.375,0,0,0,2.1-2.4,24.3,24.3,0,0,0,1.691-2.725A5.4,5.4,0,0,1,19.231,90.6a4,4,0,0,1,2.818-.394,4.575,4.575,0,0,1,2.73,2.011c.178.265.342.539.509.81.123.2.246.512.471.624a.71.71,0,0,0,.728-.071l.016-.022q8.186-2.963,16.057-6.7c2.648-1.261,5.241-2.621,7.848-3.964a26.957,26.957,0,0,1,3.945-1.715A38.245,38.245,0,0,1,58.3,80.164c1.647-.353,3.3-.678,4.924-1.141.733-.211,1.565-.4,2.254-.654.823-.3,1.119-1.625,1.433-2.342q.8-1.826,1.518-3.685,1.42-3.656,2.517-7.424c.506-1.743,1.321-3.789,1.086-5.63.011.077-.728.892-.8,1.119a2.924,2.924,0,0,0-.107.5" transform="translate(3.592 102.895)" fill="#e06f63"/>
          <path id="Trazado_1268980" data-name="Trazado 1268980" d="M29.814,67.1c-.153-.014-.4.011-.484.164a4.942,4.942,0,0,1-1.026,1.3,2.352,2.352,0,0,1-.613.421,1.216,1.216,0,0,1-.3.1c-.011,0-.068.008-.027,0-.008,0-.068,0-.025,0a.51.51,0,0,1-.17-.025.61.61,0,0,0-.544.1c-.129.131.033.241.156.274,1.444.38,2.7-.955,3.321-2.1.085-.156-.191-.227-.29-.238" transform="translate(46.129 116.448)" fill="#e06f63"/>
          <path id="Trazado_1268981" data-name="Trazado 1268981" d="M82.34,55.38c-.5,1.666-1.888,2.336-3.294,3.1a13.508,13.508,0,0,0-3.633,2.913,27.42,27.42,0,0,0-4.67,8.149c-3.285,8.174-4.295,16.588-6.325,25.055q-.209.87-.41,1.74c-.279,1.174-.55,2.344-.821,3.521q-.439,1.924-.875,3.852c-.564,2.495-.613,4.5-3.72,3.986q-4.395-.743-8.765-1.619-2.048-.414-4.087-.862-2.306-.5-4.6-1.048c-1.907-.454-3.8-.974-5.69-1.469-.977-.257-1.953-.509-2.935-.741a10.332,10.332,0,0,1-1.532-.5,18.17,18.17,0,0,1-3.261-1.822c-.834-.558-3.378-1.206-3.22-2.257,1.223-7.974,2.812-15.86,4.319-23.772q.3-1.551.585-3.1.406-2.158.791-4.317a55.92,55.92,0,0,1,1.666-7.476c.137-.421.284-.84.44-1.25a29.486,29.486,0,0,1,2.7-5.362,41.143,41.143,0,0,1,8.3-9.282c5.1-4.3,13.24-6.021,19.685-6.956a101.755,101.755,0,0,1,11.872-.938c1.846-.049,2.588.367,3.389,1.956a40.869,40.869,0,0,1,4.276,15.4,8.56,8.56,0,0,1-.191,3.1" transform="translate(42.517 60.598)" fill="#ffd540"/>
          <path id="Trazado_1268982" data-name="Trazado 1268982" d="M39.313,41.079c-2.856-.916-3.956,3.625-3.912,5.591.016.818,1.939.722,2.24.156q.1-.189.181-.377a4.772,4.772,0,0,0,1.825-2.662c.345-.905.949-2.3-.334-2.708" transform="translate(61.436 71.081)" fill="#fff"/>
          <path id="Trazado_1268983" data-name="Trazado 1268983" d="M40.965,47.488a1.706,1.706,0,0,0-2.459-.829,1.9,1.9,0,0,0-.722,1.617,1.788,1.788,0,0,0,0,.96.632.632,0,0,0,.027.077c.005.06.014.118.019.172a2.988,2.988,0,0,0,1.5,2.3c.471.274,1.836.312,1.948-.413.022-.142.036-.284.044-.424a.4.4,0,0,0,.025-.1,7.048,7.048,0,0,0-.388-3.356" transform="translate(65.463 80.565)" fill="#fff"/>
          <path id="Trazado_1268984" data-name="Trazado 1268984" d="M46.3,40.222c-.027-.719-1.537-.681-1.948-.41a3.911,3.911,0,0,0-1.855,2.73,4.337,4.337,0,0,0-.254.766c-.211.916.8,1.19,1.54,1.135,1.849-.134,2.574-2.689,2.517-4.221" transform="translate(73.257 68.781)" fill="#fff"/>
          <path id="Trazado_1268985" data-name="Trazado 1268985" d="M30.417,44.736a1.525,1.525,0,0,1-1.5,1.045l-.131.005c.016.019.027.047.044.066.323.4-.58.684-.8.717a2.053,2.053,0,0,1-.684-.008,29.572,29.572,0,0,1,2.7-5.362,1.441,1.441,0,0,1,.416.76,7.078,7.078,0,0,1-.055,2.777" transform="translate(47.471 71.5)" fill="#fff"/>
          <path id="Trazado_1268986" data-name="Trazado 1268986" d="M38,38.242a3.182,3.182,0,0,0-3.058.6A7.045,7.045,0,0,0,31.8,40.98c-.252.3-.129.514.178.706,1.163.728,2.536.071,3.638-.454A6.849,6.849,0,0,0,38.528,38.9c.222-.336-.312-.574-.525-.657" transform="translate(54.961 66.051)" fill="#fff"/>
          <path id="Trazado_1268987" data-name="Trazado 1268987" d="M34.5,49.5a3.585,3.585,0,0,0-1.04-1.688c.005-.777-2.156-.81-2.276-.055a.444.444,0,0,0-.047.03,2.038,2.038,0,0,0-.454,1.759,3.483,3.483,0,0,0,.851,1.852,1.4,1.4,0,0,0,1.108.271,1.824,1.824,0,0,0,1.9-.29c.424-.487.14-1.338-.038-1.879" transform="translate(53.205 81.939)" fill="#fff"/>
          <path id="Trazado_1268988" data-name="Trazado 1268988" d="M28.9,52.2a1.913,1.913,0,0,0-.421.126.8.8,0,0,0-.334.172,5.461,5.461,0,0,0-1.236,1.168,3.972,3.972,0,0,0-.862,1.193l0,0c-.429.49-.99,1.184-.3,1.718,1.329,1.02,3.354-.142,4.073-1.351a5.4,5.4,0,0,0,.741-2.18c.041-.815-1.056-.952-1.663-.848" transform="translate(44.124 90.544)" fill="#fff"/>
          <path id="Trazado_1268989" data-name="Trazado 1268989" d="M36.76,55.6a4.164,4.164,0,0,0-1.127-1.775l.008-.046c.088-.443-.75-.662-1.436-.561a2.366,2.366,0,0,0-.479.022,1.584,1.584,0,0,0-.678,2.7,1.2,1.2,0,0,0,.317.178,1.814,1.814,0,0,0,1.149,1.354,2.419,2.419,0,0,0,2.046-.2c.585-.424.4-1.086.2-1.677" transform="translate(56.463 92.309)" fill="#fff"/>
          <path id="Trazado_1268990" data-name="Trazado 1268990" d="M41.369,57.384c-.279,1.174-.55,2.347-.821,3.521a2.272,2.272,0,0,1-2.678.531c-.227-.1-.4-.312-.3-.566a8.494,8.494,0,0,1,.6-1.135.434.434,0,0,1,.049-.082l.049-.068a8.082,8.082,0,0,1,1.811-1.929,1.728,1.728,0,0,1,1.28-.271" transform="translate(65.157 99.549)" fill="#fff"/>
          <path id="Trazado_1268991" data-name="Trazado 1268991" d="M36.55,63.06q-2.048-.414-4.087-.862a3.32,3.32,0,0,1-.15-.449c-.15-.555-.345-1.316.181-1.732a1.954,1.954,0,0,1,2.273.1,6.449,6.449,0,0,1,1.332,1.54,2.851,2.851,0,0,1,.451,1.4" transform="translate(55.796 103.61)" fill="#fff"/>
          <path id="Trazado_1268992" data-name="Trazado 1268992" d="M31.55,62.22c-.977-.257-1.953-.509-2.935-.741a10.334,10.334,0,0,1-1.532-.5,1.949,1.949,0,0,1-.254-1.54c-.036-.2-.06-.4-.079-.6-.066-.777,2.2-.829,2.284-.005a4.139,4.139,0,0,1,2.3,2.632,5.781,5.781,0,0,1,.213.752" transform="translate(46.421 101.072)" fill="#fff"/>
          <path id="Trazado_1268993" data-name="Trazado 1268993" d="M27.088,50.437c-.038.421-.512.585-1.009.591q.3-1.551.588-3.1A3.6,3.6,0,0,1,27,49.316a3.42,3.42,0,0,1,.09,1.122" transform="translate(45.26 83.175)" fill="#fff"/>
          <path id="Trazado_1268994" data-name="Trazado 1268994" d="M44.238,39.452c-.068-.293-.856-.246-.8,0a77.422,77.422,0,0,1,1.71,10.737c.025.29.823.271.8,0a77.423,77.423,0,0,0-1.71-10.737" transform="translate(75.383 68.117)" fill="#993741"/>
          <path id="Trazado_1268995" data-name="Trazado 1268995" d="M33.791,46.631q-1.1,6.627-2.3,13.24T29.034,73.078q-.722,3.73-1.466,7.454c-.049.249.739.3.8,0q1.321-6.586,2.558-13.191T33.312,54.12q.652-3.742,1.277-7.49c.044-.257-.75-.3-.8,0" transform="translate(47.84 80.566)" fill="#993741"/>
          <path id="Trazado_1268996" data-name="Trazado 1268996" d="M46.841,21.14a5.538,5.538,0,0,0-1.261-.952c-2.2-1.206-4.94-.711-7.3.145a13.989,13.989,0,0,0-5.1,2.957c-3.028,2.949-2.741,7.219-2.752,11.1q-.021,7.168.235,14.337c.088,2.446.334,4.91.334,7.356a16.142,16.142,0,0,0,.971,6.026,7.581,7.581,0,0,0,3.31,4.029,8.625,8.625,0,0,0,3.2.856,7.6,7.6,0,0,0,5.137-.96c2.716-1.907,3.381-5.5,3.493-8.548q.517-13.812,2.032-27.563a16.374,16.374,0,0,0-.142-3.936,8.346,8.346,0,0,0-2.164-4.842" transform="translate(52.808 33.788)" fill="#ffa87d"/>
          <path id="Trazado_1268997" data-name="Trazado 1268997" d="M55.411,24.594c-.514,6.754-1.548,13.453-2.694,20.131-.068.378-.131.752-.194,1.127q-.41,2.351-.829,4.7a.744.744,0,0,1-.946.763,150.248,150.248,0,0,1-20.987-2.4,33.961,33.961,0,0,1,.558-4.522c.057-.388.118-.774.175-1.132.186-1.179.342-2.131.38-2.353A119.335,119.335,0,0,1,34.3,26.544c1.179-3.849,2.528-8.092,5.8-10.7a10.516,10.516,0,0,1,8.628-2.167,8.643,8.643,0,0,1,6.45,5.909,14.65,14.65,0,0,1,.227,5.009" transform="translate(51.613 23.369)" fill="#395795"/>
          <path id="Trazado_1268998" data-name="Trazado 1268998" d="M52.348,25.823c-.066.378-.131.752-.194,1.127a110.131,110.131,0,0,0-12.124-1l-10.08-.457c.06-.391.118-.774.175-1.135l9.957.454a111.257,111.257,0,0,1,12.266,1.012" transform="translate(51.979 42.27)" fill="#65bfd7"/>
          <path id="Trazado_1268999" data-name="Trazado 1268999" d="M46.163,35.424c-.249-.413-.955-.419-1.368-.484q-2.158-.357-4.319-.711a1.218,1.218,0,0,0-.181-.005q1-5.289,1.775-10.619.419-2.88.766-5.769c.033-.265-.763-.293-.8,0Q40.794,28.114,38.7,38.264q-.591,2.848-1.245,5.684c-.057.243.73.3.8,0,.142-.61.276-1.22.413-1.833q1.887.135,3.775.265l.908.066a1.938,1.938,0,0,0,.886-.036c.263-.112.293-.353.361-.6.09-.328.178-.657.265-.985q.513-1.892,1.02-3.778c.082-.312.167-.621.252-.933a.859.859,0,0,0,.03-.687m-.769.457c-.071.3-.159.594-.238.889l-.886,3.285L43.827,41.7c-.033.12-.068.235-.1.356l.06.016-.115-.008c-.074,0-.153-.011-.227-.016-.3-.022-.6-.041-.908-.063q-1.892-.135-3.783-.265.784-3.541,1.464-7.1l.044.008,3.324.544c.276.047.555.09.832.137a6.1,6.1,0,0,1,.8.137c.23.071.224.23.172.44" transform="translate(64.995 30.588)" fill="#231c20"/>
          <path id="Trazado_1269000" data-name="Trazado 1269000" d="M31.392,22.145A85.118,85.118,0,0,0,29.63,34.263c-.019.274.78.293.8,0a85.119,85.119,0,0,1,1.762-12.118c.055-.243-.733-.293-.8,0" transform="translate(51.423 38.082)" fill="#231c20"/>
          <path id="Trazado_1269001" data-name="Trazado 1269001" d="M41.308,23.164c-1.056,3.611-3.7,6.015-5.914,5.37s-3.149-4.1-2.093-7.709,3.7-6.018,5.914-5.37,3.149,4.1,2.093,7.709" transform="translate(57.041 26.638)" fill="#65bfd7"/>
          <path id="Trazado_1269002" data-name="Trazado 1269002" d="M54.328,49.682a199.489,199.489,0,0,0,25.648,2.777,4.855,4.855,0,0,0,1.907-.186c1.827-.689,2.309-2.711,2.314-4.473,0-2.5-2.629-3.274-4.525-4.016-2.971-1.157-5.892-2.44-8.86-3.605Q62.036,36.74,53.095,33.75c-2.919-.977-6.1-2.027-9.191-1.406-1.77.356-3.625.626-5.389,1.091-2.653.7-6.128,2.407-7.134,5.167-1.206,3.31,2.3,5.843,5.017,6.768A88.16,88.16,0,0,0,48.915,48.73q2.7.5,5.414.952" transform="translate(54.036 55.809)" fill="#ffa87d"/>
          <path id="Trazado_1269003" data-name="Trazado 1269003" d="M49.564,39.145c-.033.068-.063.14-.09.211a8.14,8.14,0,0,0-.454,3.028,3.171,3.171,0,0,0,.145,1.135A2.919,2.919,0,0,0,50.607,44.9a10.789,10.789,0,0,0,4.727,1.294,7.086,7.086,0,0,1,1.321.022,4.486,4.486,0,0,1,1.127.654,21.5,21.5,0,0,1,2.172,1.639c1.4,1.182,2.689,2.478,4.1,3.649a.924.924,0,0,0,1.428-.131c.383-.648-.055-1.658-.309-2.268q.492.525.979,1.056a3.855,3.855,0,0,0,2.188,1.458.823.823,0,0,0,.744-.219.889.889,0,0,0,.153-.585,5.88,5.88,0,0,0-.684-2.292,2.223,2.223,0,0,0,1.718,1.316.247.247,0,0,0,.306-.167,2.681,2.681,0,0,0-.025-2.052,15.844,15.844,0,0,1-.711-1.981,1.886,1.886,0,0,0,1.009.35.487.487,0,0,0,.339-.082c.336-.279.317-1.067.2-1.428a3.893,3.893,0,0,0-.55-1.009q-.8-1.169-1.674-2.287A12.224,12.224,0,0,0,66.691,39.3a11.806,11.806,0,0,0-2.941-1.3,12.647,12.647,0,0,0-1.792-.457,32.433,32.433,0,0,0-7.2-.566,10.617,10.617,0,0,0-3.4.369,3.489,3.489,0,0,0-1.8,1.805" transform="translate(85.075 64.13)" fill="#ffa87d"/>
          <path id="Trazado_1269004" data-name="Trazado 1269004" d="M40.2,32.117a10.363,10.363,0,0,0-6.267,2.057c-.15.112.038.243.145.279a.619.619,0,0,0,.544-.074A9.242,9.242,0,0,1,40.2,32.525c.118,0,.4-.038.4-.205s-.287-.2-.4-.2" transform="translate(58.788 55.738)" fill="#e06f63"/>
          <path id="Trazado_1269005" data-name="Trazado 1269005" d="M78.428,48.532a8.991,8.991,0,0,0-1.442-2.177c-.566-.711-1.127-1.433-1.734-2.112-2.342-2.61-5.84-3.425-9.21-3.622-2.1-.123-4.2-.093-6.3-.107a.314.314,0,0,0-.145-.079,28.982,28.982,0,0,1-5.742-1.945c-.927-.429-1.808-.933-2.705-1.414a12.653,12.653,0,0,0-2.591-.979,7.724,7.724,0,0,1-2.736-1.157.626.626,0,0,0-.544-.074c-.109.036-.3.161-.145.279,1.469,1.138,3.387,1.209,5.017,2,.952.46,1.855,1.02,2.809,1.48A30.335,30.335,0,0,0,55.789,39.8a29.439,29.439,0,0,0,3.348.977c.06.118.29.145.388.145,1.677.014,3.354.014,5.031.052a22.314,22.314,0,0,1,4.806.517,10.677,10.677,0,0,1,3.873,1.734,17.708,17.708,0,0,1,3.149,3.46,7.551,7.551,0,0,1,1.324,2.093c.1.306.29.971.011,1.239-.142.14-.621.287-.763.1a.411.411,0,0,0-.323-.148,20.308,20.308,0,0,0-1.595-2.224c-.607-.747-1.242-1.463-1.882-2.18-.172-.189-.938-.071-.689.208a30.416,30.416,0,0,1,3.381,4.273,12.34,12.34,0,0,1,1.16,2.415,1.6,1.6,0,0,1,.06,1.381c-.107.161-.175.227-.342.123a2.209,2.209,0,0,1-.481-.449A.381.381,0,0,0,76,53.423c-.068-.145-.142-.29-.222-.429A23.891,23.891,0,0,0,73.947,50.3a17.7,17.7,0,0,0-2.459-2.659.618.618,0,0,0-.544-.074c-.118.038-.285.159-.145.279A21.03,21.03,0,0,1,74.4,52.132,7.091,7.091,0,0,1,75.61,54.6a2.541,2.541,0,0,1,.057.594c-.005.148-.044.514-.238.558-.115.027-.38-.164-.473-.216-.2-.12-.4-.246-.588-.377a11.723,11.723,0,0,1-2.251-2.038.373.373,0,0,0-.235-.093,14.619,14.619,0,0,0-3.233-3.9c-.189-.175-.957-.044-.692.205a13.108,13.108,0,0,1,3.318,4.142,5.931,5.931,0,0,1,.4,1.256,5.175,5.175,0,0,1,.077.58c.005.1.016.2.016.293,0,.055-.052.238.005.246a1.063,1.063,0,0,1-.443-.161A2.943,2.943,0,0,1,70.8,55.3c-.315-.265-.6-.561-.895-.845a46.392,46.392,0,0,0-3.939-3.611,5.3,5.3,0,0,0-2.216-1.2,24.966,24.966,0,0,0-2.826-.235c-1.748-.126-3.972-.345-4.672-2.265-.085-.246-.878-.189-.766.109a2.5,2.5,0,0,0,.23.479q-4.645-.156-9.271-.6c-.137-.011-.429-.016-.492.142s.164.241.279.252q4.793.468,9.6.624a.636.636,0,0,0,.15-.014,5.581,5.581,0,0,0,3.739,1.589c1.02.1,2.046.153,3.064.23a3.268,3.268,0,0,1,1.4.336,9.175,9.175,0,0,1,1.165.829,56.965,56.965,0,0,1,4.267,3.942,3.233,3.233,0,0,0,2.221,1.187c.424-.005.719-.2.722-.643a5.115,5.115,0,0,0-.191-1.3,11.55,11.55,0,0,0,1.387,1.113,4.159,4.159,0,0,0,1.294.689,1.154,1.154,0,0,0,1.272-.364,1.806,1.806,0,0,0,.041-1.332l-.025-.09a1.186,1.186,0,0,0,1.217-.074c.733-.509.377-1.494.12-2.169a11.841,11.841,0,0,0-.673-1.466,2.563,2.563,0,0,0,1.081-.194c.785-.323.594-1.236.342-1.882" transform="translate(78.232 60.455)" fill="#e06f63"/>
          <path id="Trazado_1269006" data-name="Trazado 1269006" d="M68.758,40.15l-6.546-2.232c-2.125-.725-4.243-1.5-6.393-2.153A19.047,19.047,0,0,0,52.2,35c-.137-.014-.427-.016-.492.142s.164.238.279.252a28.154,28.154,0,0,1,6.278,1.674q3.221,1.1,6.439,2.194L68.356,40.5a.6.6,0,0,0,.544-.074c.131-.131-.016-.235-.142-.279" transform="translate(89.724 60.726)" fill="#e06f63"/>
          <path id="Trazado_1269007" data-name="Trazado 1269007" d="M80.755,90.432a4.635,4.635,0,0,0-1.967-2.777,12.075,12.075,0,0,0-3.179-1.4c-.914-.252-1.844-.388-2.768-.6a12.2,12.2,0,0,1-9.005-7.722,29.759,29.759,0,0,1-1.488-6.472c-.227-1.567-.55-3.66-2.032-4.568a5.351,5.351,0,0,0-3.605-.32q-3.738.562-7.432,1.4c.06-.014.492,5.356.506,5.851.063,1.983.025,3.966-.079,5.95-.189,3.731-.615,7.435-.971,11.139-.071.722-.107,1.45-.112,2.177a2.257,2.257,0,0,0,.164,1.037c.6,1.212,3.616.711,4.713.711h3.365a1.015,1.015,0,0,1,.1-.115,1.571,1.571,0,0,1,.892-.372,3.065,3.065,0,0,1,1.989.449l.057.038c.019.011.079,0,.1,0H72.7c2.276,0,4.552.011,6.828,0,.506,0,1.091.06,1.417-.41.391-.574.153-1.748.093-2.391a9.206,9.206,0,0,0-.287-1.6" transform="translate(84.382 115.263)" fill="#231c20"/>
          <path id="Trazado_1269008" data-name="Trazado 1269008" d="M56.714,70.594a.68.68,0,0,0-.594.079,8.528,8.528,0,0,1-2.585,1.543c-.126.049-.3.167-.153.3a.661.661,0,0,0,.594.079,9.506,9.506,0,0,0,2.894-1.7c.15-.129-.027-.265-.156-.3" transform="translate(92.546 122.458)" fill="#395795"/>
          <path id="Trazado_1269009" data-name="Trazado 1269009" d="M56.275,71.547a4.7,4.7,0,0,1-2.344,2.175c-.167.071-.145.238,0,.315a.744.744,0,0,0,.615,0,5.2,5.2,0,0,0,2.566-2.372c.15-.29-.7-.383-.837-.118" transform="translate(93.393 123.898)" fill="#395795"/>
          <path id="Trazado_1269010" data-name="Trazado 1269010" d="M56.8,72.216c-.164-.019-.435-.011-.533.156q-.7,1.174-1.39,2.347c-.1.164.194.26.3.274.164.019.435.011.533-.156q.693-1.174,1.39-2.347c.1-.164-.194-.26-.3-.274" transform="translate(95.213 125.317)" fill="#395795"/>
          <path id="Trazado_1269011" data-name="Trazado 1269011" d="M57.573,72.873a.665.665,0,0,0-.306-.066c-.159.005-.4.038-.435.222a5.8,5.8,0,0,1-.941,2.158c-.041.057,0,.131.044.17a.5.5,0,0,0,.26.1.573.573,0,0,0,.533-.156,6.082,6.082,0,0,0,.974-2.276c.014-.066-.085-.134-.129-.156" transform="translate(96.97 126.356)" fill="#395795"/>
          <path id="Trazado_1269012" data-name="Trazado 1269012" d="M58.2,73.284c-.022-.181-.29-.224-.435-.222-.109,0-.454.041-.435.222a4.405,4.405,0,0,1-.32,2.235c-.134.309.722.388.837.118a4.656,4.656,0,0,0,.353-2.353" transform="translate(98.922 126.798)" fill="#395795"/>
          <path id="Trazado_1269013" data-name="Trazado 1269013" d="M66.483,45.657a17.064,17.064,0,0,0-2.12-.949C59.4,42.834,50.234,40.26,47.277,46.672c-1.13,2.446-1.059,5.263-.955,7.963.859,22.74,2.158,45.459,4.155,68.122l17.841-4.21c.859-.2,3.05-.451,3.545-1.313a2.738,2.738,0,0,0,.246-1.409q-.025-16.8-.052-33.6c-.008-5.9-.016-11.8-.276-17.691-.211-4.724.438-11.949-2.134-16.088a8.179,8.179,0,0,0-3.165-2.793" transform="translate(80.299 73.894)" fill="#395795"/>
          <path id="Trazado_1269014" data-name="Trazado 1269014" d="M46.861,48.6c-.025-.29-.821-.274-.8,0q.279,3.328.555,6.655c.025.29.823.274.8,0q-.279-3.328-.555-6.655" transform="translate(79.941 83.985)" fill="#231c20"/>
          <path id="Trazado_1269015" data-name="Trazado 1269015" d="M78.937,77.258a47.385,47.385,0,0,0-5.972.3,42.26,42.26,0,0,1-6.059-.03,38.082,38.082,0,0,1-5.786-.977c-1.877-.454-3.742-.966-5.641-1.338a21.359,21.359,0,0,0-6.366-.394c-.12.014-.345.093-.279.252s.361.156.49.142c3.8-.41,7.534.75,11.185,1.639a40.473,40.473,0,0,0,5.742,1.031,42.54,42.54,0,0,0,5.933.123,60.617,60.617,0,0,1,6.751-.342c.118.008.4-.041.4-.2s-.287-.2-.4-.205" transform="translate(84.734 129.69)" fill="#395795"/>
        </g>
      </g>
    </g>
  </g>
</svg>
