<svg xmlns="http://www.w3.org/2000/svg" xmlns:xlink="http://www.w3.org/1999/xlink" width="69" height="69" viewBox="0 0 69 69">
  <defs>
    <clipPath id="clip-path">
      <rect id="Rectángulo_459108" data-name="Rectángulo 459108" width="42" height="42" fill="#fff"/>
    </clipPath>
  </defs>
  <g id="Grupo_1209793" data-name="Grupo 1209793" transform="translate(-273.711 -2542)">
    <circle id="Elipse_13677" data-name="Elipse 13677" cx="34.5" cy="34.5" r="34.5" transform="translate(273.711 2542)" fill="#6a2874"/>
    <g id="Grupo_1208927" data-name="Grupo 1208927" transform="translate(287.711 2555)">
      <g id="Grupo_1208926" data-name="Grupo 1208926" clip-path="url(#clip-path)">
        <path id="Trazado_1268000" data-name="Trazado 1268000" d="M165.047,156.1a10.288,10.288,0,0,1,11.26,12.909c-2.056,7.985-12.5,10.208-17.825,3.884-5.128-6.1-1.392-15.938,6.565-16.793m4.474,6.33-4.306,5.663c-.342.154-2.826-2.326-3.642-2.42a1.316,1.316,0,0,0-1.289,2.119c.2.286,3.886,3.119,4.329,3.368a1.314,1.314,0,0,0,1.609,0l5.525-7.256a1.355,1.355,0,0,0-2.228-1.473" transform="translate(-134.67 -134.588)" fill="#fff"/>
        <path id="Trazado_1268001" data-name="Trazado 1268001" d="M18.97.071c11.5-.941,22.318,7.534,22.987,19.264.06,1.061.252,2.865-1.176,2.969-1.9.139-1.42-2.373-1.6-3.633C36.887,2.166,15.614-3.216,6.047,10.377A18.359,18.359,0,0,0,18.67,39.187c1.251.18,4.083-.306,3.6,1.842-.324,1.435-3.31.9-4.4.748C5.818,40.1-2.084,28.2.485,16.361A21.165,21.165,0,0,1,18.97.071" transform="translate(0 0)" fill="#fff"/>
        <path id="Trazado_1268002" data-name="Trazado 1268002" d="M87.031,55.183V40a2.1,2.1,0,0,1,.636-.738,1.327,1.327,0,0,1,1.968.884l-.1,16.931a1.319,1.319,0,0,1-1.061.726c-2.872.338-6.4-.252-9.342-.011a1.327,1.327,0,0,1-.884-1.968,2.1,2.1,0,0,1,.738-.636Z" transform="translate(-67.347 -33.712)" fill="#fff"/>
      </g>
    </g>
  </g>
</svg>
