<svg xmlns="http://www.w3.org/2000/svg" xmlns:xlink="http://www.w3.org/1999/xlink" width="96" height="96" viewBox="0 0 96 96">
  <defs>
    <clipPath id="clip-path">
      <rect id="Rectángulo_455595" data-name="Rectángulo 455595" width="96" height="96" fill="none"/>
    </clipPath>
    <clipPath id="clip-path-2">
      <rect id="Rectángulo_459456" data-name="Rectángulo 459456" width="52.049" height="51.982" fill="#fff"/>
    </clipPath>
  </defs>
  <g id="Grupo_1207883" data-name="Grupo 1207883" transform="translate(-735.746 -9118)">
    <g id="Grupo_1180407" data-name="Grupo 1180407" transform="translate(735.746 9117.971)">
      <g id="Grupo_1179172" data-name="Grupo 1179172" transform="translate(0 0.03)" clip-path="url(#clip-path)">
        <path id="Trazado_998483" data-name="Trazado 998483" d="M92.261,52.319A39.942,39.942,0,1,1,52.319,12.377,39.942,39.942,0,0,1,92.261,52.319" transform="translate(-4.304 -4.333)" fill="#8d1939"/>
        <path id="Trazado_998485" data-name="Trazado 998485" d="M90.566,46.284A44.283,44.283,0,1,1,46.284,2,44.283,44.283,0,0,1,90.566,46.284Z" transform="translate(1.731 1.702)" fill="none" stroke="#8d1939" stroke-miterlimit="10" stroke-width="4"/>
      </g>
    </g>
    <g id="Grupo_1180408" data-name="Grupo 1180408" transform="translate(755.746 9137)">
      <g id="Grupo_1099618" data-name="Grupo 1099618" transform="translate(-0.289 0.272)">
        <rect id="Rectángulo_401104" data-name="Rectángulo 401104" width="56.349" height="57.028" transform="translate(0)" fill="none"/>
      </g>
      <g id="Grupo_1209218" data-name="Grupo 1209218" transform="translate(1.711 2.272)">
        <g id="Grupo_1209217" data-name="Grupo 1209217" clip-path="url(#clip-path-2)">
          <path id="Trazado_1269335" data-name="Trazado 1269335" d="M5.507,13.173H46.549a3.487,3.487,0,0,0-.3-1.121c-.637-1.879-2.5-7.554-3.58-8.807a4.7,4.7,0,0,0-2.654-1.525c-1.393-.2-4,.259-5.117-.106a.6.6,0,0,1-.417-.331c-.1-.492-.048-.985.5-1.09A35.714,35.714,0,0,1,40.342.2,6.346,6.346,0,0,1,44.68,3.475l3.542,9.666a4.357,4.357,0,0,1,.262,8.609L44.567,47.085a5.788,5.788,0,0,1-5.1,4.9L12.3,51.977a6.013,6.013,0,0,1-4.473-3.586L3.572,21.75a4.356,4.356,0,0,1,.262-8.609L7.422,3.372A6.247,6.247,0,0,1,11.993.183c6.35-.581,13.571.455,20.013,0A.759.759,0,1,1,32,1.684c-6.318.4-13.322-.546-19.559-.008A4.714,4.714,0,0,0,8.764,4.117,71.563,71.563,0,0,0,5.8,12.052a3.487,3.487,0,0,0-.3,1.121m41.34,8.656H15.73c-.269,0-.833-.946-.312-1.358l32.51-.173a2.824,2.824,0,0,0-.1-5.639l-44.115.072c-3.264,1.027-2.807,5.257.682,5.6,2.78.276,5.951-.228,8.774.031.684.2.463,1.462-.119,1.462H5.209L9.161,47.5a4.16,4.16,0,0,0,3.876,2.989c8.425.63,17.623-.489,26.129,0a4.232,4.232,0,0,0,3.9-3.858Z" transform="translate(-0.001 -0.001)" fill="#fff"/>
          <path id="Trazado_1269336" data-name="Trazado 1269336" d="M96.515,168.1a7.969,7.969,0,0,1,5.105-1,24.015,24.015,0,0,1,2.8.851,4.6,4.6,0,0,0,.032-3.234c-.288-.807-1.1-1.289-.542-2.129.692-1.042,1.725-.139,2.383.437a9.23,9.23,0,0,1,2.722,4.74,7.861,7.861,0,0,0,.265,1.825c.109.182.661.4.887.605a9.31,9.31,0,0,1,2.955,4.358c.227.792.756,2.727-.42,2.949-1.125.213-1-.475-1.436-1.093a4.732,4.732,0,0,0-3.258-2.038,7.852,7.852,0,0,1-3.872,6.788c-.041.469,1.769,1.542,2.227,1.646.879.2,2.3-.263,2.726.709.44,1.008-.691,1.481-1.45,1.757a9.342,9.342,0,0,1-4.146.4c-.8-.1-2.676-1-3.023-1s-2.223.9-3.023,1a9.313,9.313,0,0,1-4.256-.443c-.591-.224-1.5-.611-1.45-1.373.086-1.346,1.987-.861,2.836-1.054.458-.1,2.268-1.177,2.227-1.646a7.824,7.824,0,0,1-3.872-6.788,5.147,5.147,0,0,0-2.632,1.247c-.641.625-.852,1.866-1.774,1.9-1.495.053-.981-1.976-.742-2.848a8.985,8.985,0,0,1,3.881-5.073,10.954,10.954,0,0,1,1.3-4.523c.54-.936,2.412-3.262,3.6-2.91,1.508.448-.2,2.388-.328,3.342a6.15,6.15,0,0,0,.288,2.6m-1.793-.522c-.1-.645.073-1.491,0-2.164-1.379,1.269-1.353,3.333-1.564,5.077a7.255,7.255,0,0,0-3.51,3.578c.124.114.953-.565,1.195-.67,5.806-2.526,10.981,4.355,6.868,9.106a14.17,14.17,0,0,1-2.242,1.712,8.055,8.055,0,0,0,2.75-.308c.609-.171,1.95-.969,2.25-.969s1.641.8,2.25.969a8.055,8.055,0,0,0,2.75.308,13.055,13.055,0,0,1-2.315-1.788,5.842,5.842,0,0,1,6.941-9.03c.241.1,1.07.784,1.195.67a7.428,7.428,0,0,0-1.953-2.6,14.717,14.717,0,0,1-1.615-1.072,28.066,28.066,0,0,1-.389-2.895,5.08,5.08,0,0,0-1.044-2.09,6.045,6.045,0,0,1-3.4,6.147c-3.132,1.41-7.613-.455-8.162-3.984m4.892,1.012a3.963,3.963,0,0,0-2.054.779,4.229,4.229,0,0,0,5.814,0,5.271,5.271,0,0,0-3.761-.779m3.765,11c2.032-.623,2.99-3.089,3.132-5.073a4.316,4.316,0,0,0-3.132,5.073m-5.822,0c.345-2.231-.771-4.6-3.133-4.923.2,1.933,1.138,4.32,3.133,4.923" transform="translate(-74.441 -137.916)" fill="#fff"/>
          <path id="Trazado_1269337" data-name="Trazado 1269337" d="M167.61,237.074a1.167,1.167,0,0,1,.834,2.176,1.167,1.167,0,0,1-.834-2.176" transform="translate(-142 -201.633)" fill="#fff"/>
        </g>
      </g>
    </g>
  </g>
</svg>
