<svg xmlns="http://www.w3.org/2000/svg" xmlns:xlink="http://www.w3.org/1999/xlink" width="96" height="96" viewBox="0 0 96 96">
  <defs>
    <clipPath id="clip-path">
      <rect id="Rectángulo_455595" data-name="Rectángulo 455595" width="96" height="96" fill="none"/>
    </clipPath>
    <clipPath id="clip-path-2">
      <rect id="Rectángulo_459654" data-name="Rectángulo 459654" width="52" height="36" transform="translate(0 0)" fill="#fff"/>
    </clipPath>
  </defs>
  <g id="Grupo_1208624" data-name="Grupo 1208624" transform="translate(-735.746 -9118)">
    <g id="Grupo_1180407" data-name="Grupo 1180407" transform="translate(735.746 9117.971)">
      <g id="Grupo_1179172" data-name="Grupo 1179172" transform="translate(0 0.03)" clip-path="url(#clip-path)">
        <path id="Trazado_998483" data-name="Trazado 998483" d="M92.627,52.5A40.125,40.125,0,1,1,52.5,12.377,40.125,40.125,0,0,1,92.627,52.5" transform="translate(-4.488 -4.517)" fill="#8d1939"/>
        <path id="Trazado_998485" data-name="Trazado 998485" d="M90.973,46.487A44.486,44.486,0,1,1,46.487,2,44.486,44.486,0,0,1,90.973,46.487Z" transform="translate(1.527 1.499)" fill="none" stroke="#8d1939" stroke-miterlimit="10" stroke-width="4"/>
      </g>
    </g>
    <g id="Grupo_1180408" data-name="Grupo 1180408" transform="translate(755.746 9137)">
      <g id="Grupo_1099618" data-name="Grupo 1099618" transform="translate(0 -0.169)">
        <rect id="Rectángulo_401104" data-name="Rectángulo 401104" width="56.349" height="57.028" transform="translate(0)" fill="none"/>
      </g>
      <g id="Grupo_1209458" data-name="Grupo 1209458" transform="translate(1.5 10.836)">
        <g id="Grupo_1209457" data-name="Grupo 1209457" transform="translate(0.5 -0.004)" clip-path="url(#clip-path-2)">
          <path id="Trazado_1270683" data-name="Trazado 1270683" d="M6.63,27.611l14.42-14.336c3.915-.946,7.877-2.658,11.761-3.586,1.8-.431,3.59-.186,4.215,1.828.688,2.212-.608,3.377-2.5,4.065-3.083,1.123-6.5,1.8-9.609,2.895l-1.233,1.387h7.375a6.429,6.429,0,0,1,1.075.415,3.183,3.183,0,0,1,0,5.278,6.429,6.429,0,0,1-1.075.415h-3.5v-1.49h3.2a5.033,5.033,0,0,0,.922-.493,1.587,1.587,0,0,0-.725-2.536,52.493,52.493,0,0,0-8.252-.11,1.094,1.094,0,0,0-.6.15c-.153.088-2.164,2.263-2.377,2.54-.115.15-.287.188-.223.448h6.407v1.49H19.072v6.481l1.713,1.711,5.663-5.658a3.058,3.058,0,0,1,3.882,4.705C26.468,36.277,21.344,44.3,16.017,44.3H4.619c.066-.387-.2-1.473.244-1.618,3.726-.261,7.771.275,11.457-.015a7.756,7.756,0,0,0,4.319-1.938,88.434,88.434,0,0,0,8.567-8.567c1.168-1.46.305-2.946-1.454-2.646-2.515,1.993-4.618,4.533-6.968,6.737l-3.173-3.231V24.14l6.536-7.023c3.268-1.246,7.228-1.829,10.416-3.143,1.79-.738,1.227-2.846-.507-3.043L21.85,14.67,7.375,29.1H0v-1.49Z" transform="translate(-0.464 -8.088)" fill="#fff"/>
          <path id="Trazado_1270684" data-name="Trazado 1270684" d="M252.837,69V85.688h-4.619V84.2h3.129V70.49H237.49V84.2H243.6v1.49H236V69Z" transform="translate(-201.301 -58.715)" fill="#fff"/>
          <rect id="Rectángulo_459647" data-name="Rectángulo 459647" width="4" height="1" transform="translate(13 6)" fill="#fff"/>
          <rect id="Rectángulo_459648" data-name="Rectángulo 459648" width="3" height="2" transform="translate(0 34)" fill="#fff"/>
          <rect id="Rectángulo_459649" data-name="Rectángulo 459649" height="4" transform="translate(20 0)" fill="#fff"/>
          <path id="Trazado_1270685" data-name="Trazado 1270685" d="M102.03,10.018l2.3,2.327-.958,1.094-2.3-2.327Z" transform="translate(-86.477 -8.521)" fill="#fff"/>
          <path id="Trazado_1270686" data-name="Trazado 1270686" d="M255.995,90.636V89l1.5.066.075,1.434Z" transform="translate(-218.317 -75.731)" fill="#fff"/>
          <rect id="Rectángulo_459650" data-name="Rectángulo 459650" width="1.491" height="1.64" transform="translate(40.807 13.264)" fill="#fff"/>
          <rect id="Rectángulo_459651" data-name="Rectángulo 459651" width="1.64" height="1.491" transform="translate(4.154 22.502)" fill="#fff"/>
          <rect id="Rectángulo_459652" data-name="Rectángulo 459652" width="1.491" height="1.491" transform="translate(1.174 22.502)" fill="#fff"/>
          <rect id="Rectángulo_459653" data-name="Rectángulo 459653" width="1.491" height="1.491" transform="translate(43.787 25.482)" fill="#fff"/>
        </g>
      </g>
    </g>
  </g>
</svg>
