<svg xmlns="http://www.w3.org/2000/svg" xmlns:xlink="http://www.w3.org/1999/xlink" width="69" height="69" viewBox="0 0 69 69">
  <defs>
    <clipPath id="clip-path">
      <rect id="Rectángulo_459110" data-name="Rectángulo 459110" width="42" height="28.38" fill="#fff"/>
    </clipPath>
  </defs>
  <g id="Grupo_1207720" data-name="Grupo 1207720" transform="translate(-616.711 -749.381)">
    <circle id="Elipse_13676" data-name="Elipse 13676" cx="34.5" cy="34.5" r="34.5" transform="translate(616.711 749.381)" fill="#6a2874"/>
    <g id="Grupo_1208931" data-name="Grupo 1208931" transform="translate(630.71 769.381)">
      <g id="Grupo_1208930" data-name="Grupo 1208930" transform="translate(0 0)" clip-path="url(#clip-path)">
        <path id="Trazado_1268010" data-name="Trazado 1268010" d="M41.586.115c-2.238-1.307-5.689,9.007-6,9.831l-.142.157h.142a1.646,1.646,0,0,1,1.809.666c.31.811,0,2.119-1.19,3.6a22.432,22.432,0,0,1-4.19,3.935c.142-.157.452-.327.594-.484,1.048-1.32,2.1-2.458,2.976-3.451,1.047-1.635,1.5-2.615,1.047-3.268-.286-.5-.737-.5-1.333-.328C30.97,12.73,23.8,20.6,20.948,25.843,18.282,20.6,11.093,12.73,6.618,10.769c-.6-.169-1.048-.169-1.334.328-.31.653,0,1.633,1.191,3.268.737.993,1.784,2.131,2.975,3.451.167.157.31.327.452.484a28.026,28.026,0,0,1-4.189-3.935c-1.048-1.477-1.477-2.785-1.048-3.6.168-.5.9-.823,1.81-.666V9.946C6.166,9.122,2.595-1.192.5.115.19.115-.261.6.19,1.919.643,3.71,3.477,15.842,4.833,17.476a5.178,5.178,0,0,0,.88.994c3.451,2.942,8.213,5.242,10.617,9.334,2.094.994,3.736.654,4.618-.654,1.071,1.308,2.546,1.648,4.785.654,2.261-4.092,7.045-6.392,10.473-9.334.428-.327.737-.5.88-.994,1.357-1.634,4.333-13.766,4.784-15.557.31-1.32,0-1.8-.285-1.8M32.611,7.488a13.493,13.493,0,0,1-2.38,4.419H28.589L27.518,7.658a.7.7,0,0,0-.738-.667.915.915,0,0,0-.9.5L24.4,11.253l-.9-6.876c0-.327-.452-.667-.738-.824a1.232,1.232,0,0,0-1.047.654l-2.237,8.367-1.809-7.06c0-.484-.429-.654-.881-.654a.7.7,0,0,0-.761.654l-1.476,6.393H12C10.807,10.273,9.76,8.8,9.617,7.488a6.349,6.349,0,0,1,.88-4.915A5.244,5.244,0,0,1,14.829.442c.31,0,.453-.157.6-.157A6.749,6.749,0,0,1,20.21,2.573a1.067,1.067,0,0,0,.9.5,1.325,1.325,0,0,0,.9-.5A6.447,6.447,0,0,1,26.78.285c.167,0,.31.157.452.157,2.095.157,3.6.823,4.475,2.131a6.247,6.247,0,0,1,.9,4.915M24.4,17.973c-.9.98-2.832,3.111-3.285,3.111s-2.095-1.961-3.143-2.941v-.17c-1.5-1.308-2.975-2.785-4.475-4.262h1.785a.8.8,0,0,0,.738-.653l.9-3.439,1.642,6.72a1.043,1.043,0,0,0,.9.654,1.3,1.3,0,0,0,.9-.654L22.3,8.965l.738,5.9c.167.5.452.823.761.823a1.17,1.17,0,0,0,1.047-.5l1.643-4.419.6,2.289a.986.986,0,0,0,.9.653h.6c-1.357,1.477-2.856,2.954-4.19,4.262" transform="translate(0 0)" fill="#fff" fill-rule="evenodd"/>
      </g>
    </g>
  </g>
</svg>
