<svg xmlns="http://www.w3.org/2000/svg" xmlns:xlink="http://www.w3.org/1999/xlink" width="109.796" height="109.796" viewBox="0 0 109.796 109.796">
  <defs>
    <clipPath id="clip-path">
      <rect id="Rectángulo_459423" data-name="Rectángulo 459423" width="71" height="71.033" fill="#6a2874"/>
    </clipPath>
  </defs>
  <g id="Grupo_1209824" data-name="Grupo 1209824" transform="translate(-274.734 -3493.098)">
    <g id="Grupo_1209823" data-name="Grupo 1209823">
      <path id="Trazado_998483" data-name="Trazado 998483" d="M122.173,67.275a54.9,54.9,0,1,1-54.9-54.9,54.9,54.9,0,0,1,54.9,54.9" transform="translate(262.357 3480.721)" fill="#fff"/>
      <rect id="Rectángulo_401104" data-name="Rectángulo 401104" width="76.991" height="77.919" transform="translate(291.711 3509.599)" fill="none"/>
    </g>
    <g id="Grupo_1209162" data-name="Grupo 1209162" transform="translate(294.711 3512.599)" clip-path="url(#clip-path)">
      <path id="Trazado_1269168" data-name="Trazado 1269168" d="M29.514,43.362c-4.655,2.073-10.973,3.272-11.8,9.256l-.043,13.59c-.71,1.488-2.023,1.026-2.2-.561a72.271,72.271,0,0,1,.3-13.953c1.2-5.939,6.3-7.609,11.3-9.555.162-.219-2.072-1.224-2.339-1.422a8.656,8.656,0,0,1-2.519-10.657c.569-1.15,1.594-2.088,2.248-3.246,2.944-5.207.481-10.664,2.658-16.265,5.32-13.686,25.176-13.713,30.424,0,2.06,5.381-.131,11.012,2.251,15.858,1.06,2.157,2.953,3.4,3.269,6.09a8.527,8.527,0,0,1-4.189,8.789c-.479.3-1.371.311-1.282.851,5.714,1.885,10.871,4.324,11.4,11.085L68.987,69.2l1.734.2c.638,1,.226,1.935-1.012,1.845L.464,71.1c-.676-.289-.509-1.494.055-1.9H25.038L23.2,52.422a3.454,3.454,0,0,1,2.956-2.956h3.357ZM28.09,16.707h3.764a26.12,26.12,0,0,0,4.57-1.127A25.031,25.031,0,0,0,50.053,4.516c-9.56-6.022-22.125.927-21.963,12.191m28.463-.022A13.69,13.69,0,0,0,51.7,5.923C47.6,12.855,40.275,17.348,32.389,18.769c.134,5.3-1.381,12.313,4.406,15.176,2.5,1.235,8.276,1.315,10.764.1A8.269,8.269,0,0,0,51.894,28.3c-.727.517-1.438,1.081-2.174,1.588-.315.217-1.358.624-1.433.7-.138.144-.109.586-.282.834-1.113,1.594-3.163,1.739-4.958,1.552-4.223-.438-3.951-5.6-.8-6.089a20.281,20.281,0,0,1,4.01.034,3.3,3.3,0,0,1,1.875,1.57c1.74-.981,3.774-2.64,3.981-4.761.159-1.624-.12-3.524-.03-5.179-1.042-.032-5-1.7-5.34-2.511-.206-.487-.138-1.356.41-1.546.9-.312,2.43,1.029,3.388,1.429a10.223,10.223,0,0,0,6.016.755M30.328,18.742H28.09v3.968c0,4.483-4.926,7.331-4.687,11.605.2,3.625,3.181,5.836,6.624,5.994,2.274.1,5.657-1.989,5.566-4.54a12.4,12.4,0,0,1-4.281-4.682,18.119,18.119,0,0,1-.983-2.883Zm26.248.2H54.134v9.461c0,1.444-1.975,4.679-3.047,5.7-1.224,1.168-2.74,1.061-1.936,2.944,1.7,3.992,7.954,4.149,10.561.8C64.26,32,56.576,28.443,56.576,22.913Zm-14.141,11.8h3.459c.427,0,.7-1.344-.1-1.731a8.727,8.727,0,0,0-3.527.086c-.524.336-.27,1.509.169,1.644m4.345,5.932a29.19,29.19,0,0,1-9.109-.012c-.661,3.191-3.257,4.689-6.089,5.71l.057,2.421a37.868,37.868,0,0,0,16.641.95,28.834,28.834,0,0,0,4.434-1.06,3.7,3.7,0,0,0,.1-2.345c-.177-.293-2.441-1.081-3.021-1.455a7.77,7.77,0,0,1-3.013-4.209M60.645,69.2h6l.305-.305V53.433c0-3.128-2.3-5.926-4.95-7.259a53.918,53.918,0,0,0-7.055-2.813v6.1h4.578a3.5,3.5,0,0,1,2.751,2.741Zm-29.1-19.737H52.913l-.1-2.648a41.611,41.611,0,0,1-21.259.207ZM59.73,51.7H25.953c-.778,0-.547,2.244-.507,2.746.337,4.325.9,9.1,1.425,13.428.03.242.184,1.314.32,1.337l31.229-.1,1.827-16.1Z" transform="translate(-0.018 -0.219)" fill="#6a2874"/>
      <path id="Trazado_1269169" data-name="Trazado 1269169" d="M10.735.066A12.116,12.116,0,0,1,20.757,20.474l.084.292c1.621.8,2.8,2.2.731,3.363-7.111.093-14.95,1.4-19.506-5.339A12.06,12.06,0,0,1,10.735.066m7.774,21.915c.059-.407-.342-.534-.409-.926-.228-1.333,1.216-2.046,1.917-2.957a10.039,10.039,0,0,0-4.5-15.4C5.652-.786-2.3,11.063,4.679,18.821c1.012,1.125,4.116,3.161,5.589,3.161Z" transform="translate(0 0)" fill="#6a2874"/>
      <path id="Trazado_1269170" data-name="Trazado 1269170" d="M194.415,276.152c5.178-.567,6.059,7.255,1.145,7.87-5.509.689-6.166-7.319-1.145-7.87m-.91,2.66a1.9,1.9,0,0,0,2.251,2.962c2.584-1.335-.293-5.068-2.251-2.962" transform="translate(-152.145 -219.939)" fill="#6a2874"/>
      <path id="Trazado_1269171" data-name="Trazado 1269171" d="M34.007,54.127c1.044-1.048,2.542.987,1.378,1.681a1.1,1.1,0,0,1-1.378-1.681" transform="translate(-26.844 -42.879)" fill="#6a2874"/>
      <path id="Trazado_1269172" data-name="Trazado 1269172" d="M75.549,54.146c1.658-.24,1.743,2.547-.21,1.96a1.045,1.045,0,0,1,.21-1.96" transform="translate(-59.536 -43.117)" fill="#6a2874"/>
      <path id="Trazado_1269173" data-name="Trazado 1269173" d="M55.064,54.144c1.33-.2,1.506,1.807.351,2-1.7.285-1.585-1.814-.351-2" transform="translate(-43.123 -43.116)" fill="#6a2874"/>
    </g>
  </g>
</svg>
