<svg xmlns="http://www.w3.org/2000/svg" xmlns:xlink="http://www.w3.org/1999/xlink" width="113.341" height="113.341" viewBox="0 0 113.341 113.341">
  <defs>
    <clipPath id="clip-path">
      <rect id="Rectángulo_459450" data-name="Rectángulo 459450" width="65.621" height="75.627" fill="#6a2874"/>
    </clipPath>
  </defs>
  <g id="Grupo_1209833" data-name="Grupo 1209833" transform="translate(-1211.643 -1918.31)">
    <path id="Trazado_998483" data-name="Trazado 998483" d="M125.718,69.047a56.67,56.67,0,1,1-56.67-56.67,56.671,56.671,0,0,1,56.67,56.67" transform="translate(1199.266 1905.933)" fill="#fff"/>
    <g id="Grupo_1209209" data-name="Grupo 1209209" transform="translate(1235.711 1938)" clip-path="url(#clip-path)">
      <path id="Trazado_1269319" data-name="Trazado 1269319" d="M64.838,82.076c-1.554-.331-.957-2.287-1.233-2.769a14.238,14.238,0,0,0-1.417-.864c-.743-.187-2.09.507-3,.579-6.935.547-10.851-7.972-5.036-12.387,1.435-1.089,2.958-.967,3.861-1.544.314-.2.824-1.205,1.17-1.532A6.988,6.988,0,0,1,63.4,61.718c2.875-8.635,15.612-7.62,17.135,1.311,13.563.953,10.959,18.431-2.183,16.545L72.987,90.442c-1.352,2.047-3.832,1.171-3.718-1.331.091-2,.854-4.474,1.07-6.517a.6.6,0,0,0-.313-.518,38.511,38.511,0,0,1-5.189,0m9.405-6.7h3.351c1.289,0,1.494,2.033,2.161,2.166,1.981.4,5.151-1.146,6.375-2.712,3.713-4.752-1.131-9.96-6.382-9.623-1.033.066-2.952,1.044-3.688.459-1.125-1.658.7-2.182,2.058-2.414-.442-5.92-9.214-7.148-12.057-2.22-.582,1.008-.512,2.574-1.7,2.838-1.349.3-2.681.135-3.734,1.451,0,.252,3.961,1.211,2.148,2.8-.871.764-1.551-.149-2.374-.417-5.476-1.784-9.432,4.778-4.858,8.1,1.094.794,3.418,1.445,4.653.763.351-.193.1-.277.034-.472-.311-.87-1.446-2.2-.576-3.1,1.395-1.432,1.983,1.189,2.4,1.918a4.352,4.352,0,0,0,2.46,2.187c.786-2.454,1.228-5.1,2.108-7.516.29-.8.422-1.542,1.3-1.948.854-.4,5.123-.4,6.2-.246a2.523,2.523,0,0,1,1.744,1.066c.646,1.557-1.216,5.237-1.616,6.914m-.649-5.838H69.162L66.027,79.914h5.73c.395,0,.967.711.992,1.187.075,1.411-.712,4.061-.857,5.652-.022.242-.2.776.187.727l4.543-9.728H72.837a1.381,1.381,0,0,1-1.2-1.182c0-1.066,2.4-6.591,1.959-7.034" transform="translate(-40.235 -43.703)" fill="#6a2874"/>
      <path id="Trazado_1269320" data-name="Trazado 1269320" d="M66.156,73.092c-.544.562-3.954,1.7-4.869,1.939C34.073,82.256,19.253,44.96,43.149,31.381,66.8,17.943,90.874,48.725,72.378,68.393c-.617.657-2.863,3.1-3.68,1.729a1.615,1.615,0,0,1-.063-1.147c.1-.322,3.132-3.271,3.722-4.063,14.543-19.56-10.111-44.72-30.082-30.3C22.835,48.65,37.821,79.506,61.023,72.822c.941-.271,3.883-1.679,4.427-1.624a1.18,1.18,0,0,1,.705,1.894" transform="translate(-24.421 -22.016)" fill="#6a2874"/>
      <path id="Trazado_1269321" data-name="Trazado 1269321" d="M181.6,132.682c-.627.673-2.618,1.376-2.739,2.14-.222,1.395,1.3,2.647.775,4.869-.138.577-.758,1.142-.758,1.6s.6,1.214.644,1.955c.122,2.249-1.633,2.546-1.911,3.5-.133.456-.009,1.044-.14,1.59-.71,2.959-2.484,4.6-5.6,4.728l-10.824-2.112c-.411.1-.928,1.742-1.049,2.181-.273.989-.247,3.124-1.183,3.375-2.727.729-.678-5.377-.059-6.451a16.839,16.839,0,0,1-5.735-3.456c-.474-.413-3.664-3.579-3.74-3.836a1.11,1.11,0,0,1,1.41-1.419c.788.321,3.727,3.665,4.967,4.564,3.782,2.742,10.891,4.38,15.532,4.791,1.33.118,2.393.056,3.316-1,1.227-1.408.268-2.739.944-4.029.36-.687,1.72-1.09,1.868-2.04.128-.825-1.145-1.682-1.25-2.545,0-.9,1.377-1.422,1.5-2.174.325-1.947-2.672-3.658.211-6.261,2.354-2.125,3.526-1.075,1.628-4.867-1.7-3.4-4.4-6.289-3.475-10.385.674-3,1.662-3.173,1.414-7.013-.085-1.323-1.313-5.9-.971-6.6.231-.469,1.021-.549,1.478-.4.732.243,1.553,5.04,1.629,5.94a29.571,29.571,0,0,1,.009,4.927c-.382,2.916-2.557,3.475-1,7.311.832,2.056,3.607,5.56,4,7.458a4.207,4.207,0,0,1-.891,3.66" transform="translate(-116.964 -80.978)" fill="#6a2874"/>
      <path id="Trazado_1269322" data-name="Trazado 1269322" d="M14.6,95.633c-.5-.5-.151-2.433-.317-3.25C13.9,90.462,8.5,86.4,6.871,84.445A29.762,29.762,0,0,1,4.514,49.65a25.658,25.658,0,0,1,2.962-4.061,1.139,1.139,0,0,1,1.842,1.295c-.07.229-1.341,1.587-1.648,2.031C.191,59.756.148,73.505,9.032,83.58c2.04,2.313,6.014,4.679,7.067,7.419.358.932,1.163,4.475-.19,4.869a1.718,1.718,0,0,1-1.31-.235" transform="translate(0 -35.474)" fill="#6a2874"/>
      <path id="Trazado_1269323" data-name="Trazado 1269323" d="M51.209,8.073a2.7,2.7,0,0,1,.078-1.481,39.23,39.23,0,0,1,3.583-2.47C70.3-4.808,90.14,1.4,98.7,16.687c.462.824,1.686,3.149-.289,3.088-.732-.022-2.829-3.865-3.471-4.733C85.908,2.824,69.675-1.8,56.084,5.985c-.84.481-4.113,3.317-4.875,2.089" transform="translate(-40.087 0)" fill="#6a2874"/>
      <path id="Trazado_1269324" data-name="Trazado 1269324" d="M61.959,293.815c.367.368.292,1.672.264,2.216-.058,1.159-1.473,8.831-1.994,9.353-.755.757-1.953.16-1.88-1.1.086-1.488.914-3.871,1.214-5.506.154-.837.489-4.68.768-4.96a1.438,1.438,0,0,1,1.627,0" transform="translate(-45.731 -230.092)" fill="#6a2874"/>
    </g>
  </g>
</svg>
