<svg xmlns="http://www.w3.org/2000/svg" xmlns:xlink="http://www.w3.org/1999/xlink" width="162.25" height="162.25" viewBox="0 0 162.25 162.25">
  <defs>
    <clipPath id="clip-path">
      <rect id="Rectángulo_459665" data-name="Rectángulo 459665" width="67.547" height="80.498" fill="#6a2874"/>
    </clipPath>
  </defs>
  <g id="Grupo_1209803" data-name="Grupo 1209803" transform="translate(-249.711 -2952)">
    <g id="Grupo_1209790" data-name="Grupo 1209790" transform="translate(-55.436 -7060.459)">
      <g id="Grupo_1177470" data-name="Grupo 1177470" transform="translate(305.146 10012.421)">
        <circle id="Elipse_13609" data-name="Elipse 13609" cx="81.125" cy="81.125" r="81.125" transform="translate(0 0.038)" fill="#f6e1fe"/>
        <g id="Grupo_1207827" data-name="Grupo 1207827" transform="translate(35.635 35.96)">
          <g id="Grupo_1099618" data-name="Grupo 1099618" transform="translate(-4.635 -3.922)">
            <rect id="Rectángulo_401104" data-name="Rectángulo 401104" width="90" height="90" transform="translate(0)" fill="none"/>
          </g>
          <g id="Grupo_1209804" data-name="Grupo 1209804" transform="translate(-2.491 0.657)">
            <g id="Grupo_1099618-2" data-name="Grupo 1099618" transform="translate(0.297 0.172)">
              <rect id="Rectángulo_401104-2" data-name="Rectángulo 401104" width="79.54" height="80.498" transform="translate(0)" fill="none"/>
            </g>
            <g id="Grupo_1209478" data-name="Grupo 1209478" transform="translate(5.944 0.172)">
              <g id="Grupo_1209477" data-name="Grupo 1209477" clip-path="url(#clip-path)">
                <path id="Trazado_1270741" data-name="Trazado 1270741" d="M122.726,65.867l8.855,5.424c2.048,1.419,1.349,3.863-.824,4.653-4.078,1.482-6.751-1.5-10.2-2.989l-1.218,4.157,10.114,10.423,1.019,2.05c.508,7.611,1.735,15.531,2.047,23.118.085,2.08.3,2.725-1.976,2.928-1.012.09-4.211.2-4.791-.456l-4.665-20.2c-1-2.3-3.8-2.682-5.748-3.916a14.278,14.278,0,0,1-1.792,4.81c-3.393,6.474-8.564,12.7-12.2,19.109-.891.889-5.738.894-6.578.483-.995-.486-.549-1.7-.32-2.474,1.935-6.58,8.395-15.369,8.926-22.071.366-4.613-1.334-9.461.641-13.784.545-1.193,1.563-2.188,2.119-3.406,2.391-5.243,3.2-12.544,5.3-18.031,3.059-8.02,13.524-5.273,13.427,2.048-.019,1.4-2.4,7.748-2.134,8.12m-1.254-4.576c1.427-3.19,1.113-7.775-3.211-8-3.23-.169-3.955,1.813-4.847,4.392a137.913,137.913,0,0,0-4.453,15.2c-.053.277-.187.756-.041.961l8.255,2.486,1.225-4.893-3.01-1.76c.042-3.092-2.928-12.547,2.838-11.75,2.29.316,2.013,2,3.244,3.361m8.6,12.274c.138-.187-.624-.711-.82-.864-1.717-1.349-8.218-4.613-9.017-5.716-.855-1.18-1.136-5.42-1.979-6.308-.361-.38-.585-.347-1.073-.3l.691,8.206c2.881.972,7.972,5.4,10.808,5.312.483-.016.917-.281,1.389-.325m-13.811,4.917-8.447-2.354c-.371.037-.924.869-1.133,1.215-2.288,3.79-.5,9.472-.845,13.886a21.119,21.119,0,0,1-1.4,5.355c-2,5.559-5.279,10.948-7.207,16.577l2.6-.308c3.3-5.972,8.032-11.647,11.258-17.593,2.694-4.964,3.628-11.341,5.165-16.778m13.811,34.678-1.983-23.028c-.309-1.146-7.124-7.971-8.444-9.051-.215-.176-1.118-.846-1.231-.76l-2.177,8.4c3.523,1.868,6.273,2.387,7.609,6.579,1.732,5.435,2.118,12.126,3.737,17.689Z" transform="translate(-65.254 -35.231)" fill="#6a2874"/>
                <path id="Trazado_1270742" data-name="Trazado 1270742" d="M31.479,37.938c1.512.32,7.445-1.908,7.811.026.179,2.309-4.253,1.867-6.083,2.251C20.775,42.821,10.931,50.441,4.6,61.329a1.168,1.168,0,0,1-1.886-1.25c.346-1.65,5.1-7.755,6.465-9.21,1.33-1.417,2.952-2.454,4.147-3.982-1.855-.624-3.635-1.456-5.524-2C6.1,44.4,1.86,43.922.753,43.345a1.207,1.207,0,0,1-.191-2.014c.9-.719,5.36.58,6.622.951.285-4.408,2.043-8.484,5.93-10.8a12.488,12.488,0,0,1,18.365,6.46m-2.5.963C26.888,31.217,16.6,29.734,11.8,36c-1.434,1.871-2.467,4.876-1.773,7.133l5.548,2.17A40.494,40.494,0,0,1,28.98,38.9" transform="translate(-0.075 -20.516)" fill="#6a2874"/>
                <path id="Trazado_1270743" data-name="Trazado 1270743" d="M172.924,6.131c7.64-.416,6.8,13.834-1.592,12.489-6.294-1.008-5.2-12.119,1.592-12.489M172,8.9c-2.682.694-3.417,6.24-.551,7.152,4.825,1.536,6.424-8.671.551-7.152" transform="translate(-115.86 -4.243)" fill="#6a2874"/>
                <path id="Trazado_1270744" data-name="Trazado 1270744" d="M112.09,35.312a1.273,1.273,0,0,1,.762,2.176,49.288,49.288,0,0,1-4.289,2.482,1.3,1.3,0,0,1-1.234-2.177,31.443,31.443,0,0,1,4.761-2.481" transform="translate(-74.13 -24.474)" fill="#6a2874"/>
                <path id="Trazado_1270745" data-name="Trazado 1270745" d="M87.686,15.957c-1.169-.738,1.707-5.6,2.412-5.952a1.244,1.244,0,0,1,1.8,1.472,25.061,25.061,0,0,1-2.716,4.369,2.172,2.172,0,0,1-1.5.111" transform="translate(-60.581 -6.819)" fill="#6a2874"/>
                <path id="Trazado_1270746" data-name="Trazado 1270746" d="M5.8,37.783a1.3,1.3,0,0,1-1.151,2.25A49.134,49.134,0,0,1,.365,37.551c-.827-1-.168-2.428,1.158-2.1.272.067,4.113,2.158,4.283,2.333" transform="translate(0 -24.536)" fill="#6a2874"/>
                <path id="Trazado_1270747" data-name="Trazado 1270747" d="M61.391,6.264a1.786,1.786,0,0,1-1.076.778c-2.1.013-2-8.1.458-6.926a3.265,3.265,0,0,1,.618.623,40.675,40.675,0,0,1,0,5.525" transform="translate(-40.773 0)" fill="#6a2874"/>
                <path id="Trazado_1270748" data-name="Trazado 1270748" d="M29.66,15.83c-1.217.769-2.148-.924-2.66-1.706-.688-1.048-3-5.217.031-4.35.687.2,3.825,5.3,2.629,6.056" transform="translate(-17.678 -6.693)" fill="#6a2874"/>
              </g>
            </g>
          </g>
        </g>
      </g>
      <ellipse id="Elipse_13678" data-name="Elipse 13678" cx="19.243" cy="19.243" rx="19.243" ry="19.243" transform="translate(305.965 10136.186)" fill="#da9dfe"/>
      <g id="Grupo_1207826" data-name="Grupo 1207826" transform="translate(305.146 10138.641)">
        <path id="Trazado_998481" data-name="Trazado 998481" d="M0,13.854q4.835.419,9.664.868l-.27.112,1.389-2.491a.373.373,0,0,1,.426-.131.271.271,0,0,1,.2.185l0,.01,1.186,5.359L11.7,17.7l1.915-4.337,1.934-4.332,1.94-4.33L19.452.377A.822.822,0,0,1,20.394.03.578.578,0,0,1,20.9.6V.609l-.77,7.01-.812,7.007-.823,7.006-.854,7L16.044,28.4c1.235-2.953,2.506-5.9,3.765-8.845l1.893-4.42,1.917-4.414,0-.011a.7.7,0,0,1,.8-.305.505.505,0,0,1,.439.47l-.29,5.628-.314,5.627-.826-.118,2.776-5.324,0-.009a.291.291,0,0,1,.3-.125l5.25.671,5.247.689-5.291-.467-5.287-.485.3-.133-2.494,5.4a.472.472,0,0,1-.54.2.338.338,0,0,1-.286-.3v-.012l.079-5.631.1-5.631L24.836,11,23.051,15.45l-1.809,4.44c-1.209,2.959-2.407,5.921-3.64,8.874a.892.892,0,0,1-1.022.4c-.373-.087-.6-.356-.57-.635v0l.812-7.007.842-7,.854-7,.9-7,1.444.232-2.048,4.3-2.069,4.3-2.074,4.3-2.093,4.29-.005.011a.513.513,0,0,1-.588.2.382.382,0,0,1-.3-.278l-.924-5.388.624.063L9.86,14.986l0,.007a.273.273,0,0,1-.265.1q-4.8-.609-9.59-1.244" transform="translate(0 4.51) rotate(-7)" fill="#fff"/>
      </g>
    </g>
    <path id="Trazado_1271486" data-name="Trazado 1271486" d="M79.8,53.239V66.476a.9.9,0,0,1-.9.895H68.265a.9.9,0,0,0-.9.9V78.909a.9.9,0,0,1-.9.9H53.239a.9.9,0,0,1-.9-.9V68.266a.9.9,0,0,0-.895-.9H40.767a.9.9,0,0,1-.9-.895V53.239a.9.9,0,0,1,.9-.9H51.449a.9.9,0,0,0,.895-.895V40.768a.9.9,0,0,1,.9-.9H66.475a.9.9,0,0,1,.9.9V51.449a.9.9,0,0,0,.9.895H78.908a.9.9,0,0,1,.9.9" transform="translate(327.754 2916.793)" fill="#8d1939"/>
  </g>
</svg>
