<svg xmlns="http://www.w3.org/2000/svg" xmlns:xlink="http://www.w3.org/1999/xlink" width="113.341" height="113.341" viewBox="0 0 113.341 113.341">
  <defs>
    <clipPath id="clip-path">
      <rect id="Rectángulo_459530" data-name="Rectángulo 459530" width="75.289" height="75.191" fill="#6a2874"/>
    </clipPath>
  </defs>
  <g id="Grupo_1209841" data-name="Grupo 1209841" transform="translate(-1211.643 -3401.806)">
    <path id="Trazado_998483" data-name="Trazado 998483" d="M125.718,69.047a56.67,56.67,0,1,1-56.67-56.67,56.671,56.671,0,0,1,56.67,56.67" transform="translate(1199.266 3389.429)" fill="#fff"/>
    <g id="Grupo_1209357" data-name="Grupo 1209357" transform="translate(1232.71 3420)" clip-path="url(#clip-path)">
      <path id="Trazado_1269589" data-name="Trazado 1269589" d="M10.606,58c-2.507,1.037-5.448,1.1-7.185,3.453-2.284,3.091-.709,9.234-1.232,12.952a1.136,1.136,0,0,1-2.108-.4c.362-5.916-1.892-13.6,4.941-16.54,3.174-1.367,7.24-1.977,10.52-3.234,1.335-1.864,1.466-5,4.522-4.4L20.014,47.3a15.781,15.781,0,0,1-6.84-10.995c-3.771.387-6.54-3.774-3.857-6.78.444-.5,1.159-.659,1.285-1.294l.017-7.064C4.358,19.906,3.247,15.051,6.864,10.1c8.294-11.366,27.159-12.9,38.624-5.78,3.661,2.275,9.765,7.836,8.206,12.636-.864,2.66-3.141,3.768-5.706,4.218L48,28.238c.636.936,1.541,1.009,2.042,2.257,1.353,3.368-1.262,6.007-4.62,5.8-1.186,10.87-13.389,17.124-23.209,12.466l.044,2.319,6.972,3.868,6.515-3.508c.569-.219,1.488-.2,1.69.482a1.3,1.3,0,0,1,0,.767c-.257.877-4.971,2.96-5.978,3.6-.077.341.121.44.314.648,1.225,1.325,5.31,3.9,5.776,5.4a2.253,2.253,0,0,1-.369,2.141L30.032,74.74c-.884.571-1.237.1-1.8-.518-2.985-3.271-6.35-9.425-9.072-13.279a9.948,9.948,0,0,0-1.68-2.081V74.228c0,1.086-2.149.746-2.149,0V56.713l-2.579.645V74.443c-.548.927-2.149.444-2.149-.43ZM48,18.674c3.407-.084,4.518-3.007,2.967-5.868C43.385-1.171,15.473-1.255,7.854,12.591c-1.6,2.917-.876,5.924,2.751,6.083V13.408a12.1,12.1,0,0,1,.679-1.47c1.695-2.531,6.685-1.355,4.8.508-.531.526-1.87-.17-2.8.635a3.3,3.3,0,0,0-.533.756v6.125h33.1v-6.34c0-.623-1.1-.913-1.612-.966-3.3-.346-7.136.262-10.493-.009-1.069,2.583-3.318,4.606-6.216,3.179-1.364-.671-1.8-2.021-2.667-3.136-1.2-.412-6.224.851-6.045-1.182.152-1.717,4.747-.755,5.973-1,.149-7.749,8.847-7.64,9.25-.012,3.456.325,7.633-.424,11,.067A3.272,3.272,0,0,1,47.355,11.9,9.884,9.884,0,0,1,48,12.979ZM30.733,13.442c2.207-2.127.492-8.176-2.4-6.157-1.675,1.171-1.784,4.022-.718,5.658a1.951,1.951,0,0,0,3.114.5m14.473,8.671H13.614c3.022,2.614,8.612,3.428,12.574,3.651,6.035.339,14.024-.064,19.017-3.651M12.755,28.13c1.451.079,2.652.173,2.6-1.614-.009-.31.044-.63-.232-.859a14.392,14.392,0,0,0-2.366-.965Zm33.1-3.439c-1.326.566-2.51.542-2.378,2.266.114,1.488,1.15,1.141,2.378,1.173Zm-4.729,1.933a51.918,51.918,0,0,1-23.638,0,3.286,3.286,0,0,1-2.522,3.6c-1.112.2-2.406-.169-3.479.39a1.821,1.821,0,0,0,.311,3.308c1.639.35,1.206-.979,2.151-1.073a1.466,1.466,0,0,1,1.07.432c.187.323.4,3.307.6,4.13,3.53,14.681,25.232,14.126,27.819-1.5.215-1.3-.443-3.511,1.726-2.907l.79.939c2.678.4,3.353-3.275.2-3.647-1.287-.152-2.163.266-3.377-.491a3.751,3.751,0,0,1-1.65-3.188M27.368,56.286l-7.879-4.279c-.569-.056-1.393,2.428-1.751,2.916L21.9,61.011c1.7-1.352,3.774-2.814,5.334-4.28.182-.171.2-.148.137-.445m1.858,1.523-2.214,2.015c.388,3.278,4.09,3.483,4.651.214a5.812,5.812,0,0,0-2.437-2.228m-4.009,3.632L23.272,62.85l2.59,3.749a5.5,5.5,0,0,0-.646-5.157M33.169,66.6l2.33-3.547-1.793-1.608L32.33,63.68c.119.235.4,3.215.839,2.918m-4.077,5.157c.374.258,1.853-1.98,1.925-2.487a23.467,23.467,0,0,0-.68-4.456c-.224-.6-1.344-.34-1.871-.339L27.593,69.1Z" transform="translate(0 0)" fill="#6a2874"/>
      <path id="Trazado_1269590" data-name="Trazado 1269590" d="M196.471,185.469c4.046.193,8.657-.434,12.636-.06a3.611,3.611,0,0,1,2.36,1.078,80.844,80.844,0,0,1,8.059,8.059,3.612,3.612,0,0,1,1.078,2.361,86.718,86.718,0,0,1,0,11.837,4.421,4.421,0,0,1-.971,2.467,81.44,81.44,0,0,1-8.166,8.167,4.319,4.319,0,0,1-2.576,1.078,86.757,86.757,0,0,1-11.837,0,3.612,3.612,0,0,1-2.361-1.078,80.845,80.845,0,0,1-8.059-8.059,3.611,3.611,0,0,1-1.078-2.36,88.492,88.492,0,0,1,0-12.052,3.422,3.422,0,0,1,.755-2.039,93.429,93.429,0,0,1,8.7-8.7,3.368,3.368,0,0,1,1.454-.695m.424,2.143-.8.488-8.281,8.482-.052,12.54,9.185,9.082h12.273l9.134-9.134V196.8l-9.082-9.185Z" transform="translate(-145.519 -145.467)" fill="#6a2874"/>
      <path id="Trazado_1269591" data-name="Trazado 1269591" d="M115.137,176.114c.819-.823,1.8.406,2.564.662a6.07,6.07,0,0,0,3.406.041c.9-.3,1.911-1.7,2.767-.408,1.325,2-3.662,2.97-5.025,2.871-1.218-.089-5.405-1.463-3.712-3.166" transform="translate(-90.081 -138.046)" fill="#6a2874"/>
      <path id="Trazado_1269592" data-name="Trazado 1269592" d="M164.583,136.788c2.177-.656,1.888,2.869.986,3.141-2.177.656-1.888-2.869-.986-3.141" transform="translate(-128.681 -107.327)" fill="#6a2874"/>
      <path id="Trazado_1269593" data-name="Trazado 1269593" d="M99.078,136.829c1.889-.571,2.1,2.975.589,3.2-1.718.252-1.789-2.833-.589-3.2" transform="translate(-77.146 -107.374)" fill="#6a2874"/>
      <path id="Trazado_1269594" data-name="Trazado 1269594" d="M231.636,216.078l-5.767-5.729a60.935,60.935,0,0,0-8.668-.159.993.993,0,0,0-.645.214l-5.854,5.966.171,9.152,6.163,5.907,8.338.044c.933-.178,1.607-2.191,2.9-1.609,1.739,1.212-.662,2.86-1.7,3.667l-10.606.052-7.414-7.414V215.511l7.414-7.414h10.657l7.347,7.267.066,10.589c-.317,1.079-3.582,4.127-3.842,1.769-.17-1.542,1.538-1.779,1.733-2.8a52.954,52.954,0,0,0,.014-7.741,1.589,1.589,0,0,0-.307-1.1" transform="translate(-163.733 -163.375)" fill="#6a2874"/>
    </g>
  </g>
</svg>
