<svg xmlns="http://www.w3.org/2000/svg" xmlns:xlink="http://www.w3.org/1999/xlink" width="96" height="96" viewBox="0 0 96 96">
  <defs>
    <clipPath id="clip-path">
      <rect id="Rectángulo_455595" data-name="Rectángulo 455595" width="96" height="96" fill="none"/>
    </clipPath>
    <clipPath id="clip-path-2">
      <rect id="Rectángulo_459458" data-name="Rectángulo 459458" width="54.459" height="53.566" fill="#fff"/>
    </clipPath>
  </defs>
  <g id="Grupo_1207885" data-name="Grupo 1207885" transform="translate(-735.746 -9118)">
    <g id="Grupo_1180407" data-name="Grupo 1180407" transform="translate(735.746 9117.971)">
      <g id="Grupo_1179172" data-name="Grupo 1179172" transform="translate(0 0.03)" clip-path="url(#clip-path)">
        <path id="Trazado_998483" data-name="Trazado 998483" d="M92.261,52.319A39.942,39.942,0,1,1,52.319,12.377,39.942,39.942,0,0,1,92.261,52.319" transform="translate(-4.304 -4.333)" fill="#8d1939"/>
        <path id="Trazado_998485" data-name="Trazado 998485" d="M90.566,46.284A44.283,44.283,0,1,1,46.284,2,44.283,44.283,0,0,1,90.566,46.284Z" transform="translate(1.731 1.702)" fill="none" stroke="#8d1939" stroke-miterlimit="10" stroke-width="4"/>
      </g>
    </g>
    <g id="Grupo_1180408" data-name="Grupo 1180408" transform="translate(755.746 9137)">
      <g id="Grupo_1099618" data-name="Grupo 1099618" transform="translate(-0.289 0.057)">
        <rect id="Rectángulo_401104" data-name="Rectángulo 401104" width="56.349" height="57.028" transform="translate(0)" fill="none"/>
      </g>
      <g id="Grupo_1209222" data-name="Grupo 1209222" transform="translate(0.711 2.056)">
        <g id="Grupo_1209221" data-name="Grupo 1209221" clip-path="url(#clip-path-2)">
          <path id="Trazado_1269342" data-name="Trazado 1269342" d="M24.816,44.928v6.624a1.4,1.4,0,0,0,.314.309,16.313,16.313,0,0,0,4.3-.06c.537-.423,0-3.439.249-4.271.191-.633,1.386-.791,1.529-.03a29.078,29.078,0,0,1-.01,4.354,2.372,2.372,0,0,1-1.353,1.609,36.316,36.316,0,0,1-5.1.03c-.467-.086-1.488-1.06-1.488-1.473V44.928H5.413c-3.6,0-6.611-4.763-4.937-8.053L22.725,2.083A5.927,5.927,0,0,1,31.67,2l7.52,11.652a.809.809,0,0,1-1.289.974l-7.19-11.2C28,.365,25.333,1.243,23.193,4.265c-7.406,10.456-13.7,22.188-21,32.765A4.169,4.169,0,0,0,5.251,43.22l44.628-.113a4.21,4.21,0,0,0,2.643-5.546L39.9,17.768a.865.865,0,0,1,.711-1.327c.551.049,1.532,1.8,1.882,2.318,3.444,5.148,7.111,10.75,10.286,16.052,1.3,2.164,2.242,3.6,1.3,6.264-.662,1.877-2.994,3.853-5.03,3.853Z" transform="translate(0 -0.001)" fill="#fff"/>
          <path id="Trazado_1269343" data-name="Trazado 1269343" d="M44.249,20.21a2.709,2.709,0,0,1,2.6.911L68.677,55.244a2.6,2.6,0,0,1-2.168,3.432H23.167a2.582,2.582,0,0,1-2.125-3.544,24.045,24.045,0,0,1,2.524-3.864,1.022,1.022,0,0,1,.388-.1c2.324-.15-1.182,3.771-1.395,4.385-.271.783-.072,1.385.781,1.543l43.246-.061a1.035,1.035,0,0,0,.471-1.578c-7.1-10.385-13.317-21.409-20.424-31.784-1.772-2.586-1.821-2.583-3.591,0-5.689,8.3-10.7,17.106-16.29,25.478a.846.846,0,0,1-1.594-.358l17.8-27.85a3.713,3.713,0,0,1,1.287-.737" transform="translate(-17.607 -17.014)" fill="#fff"/>
          <path id="Trazado_1269344" data-name="Trazado 1269344" d="M144.824,91.592a1.386,1.386,0,0,1,1.67,1.195c.047,1.007-1.272,3.6-1.514,4.727,1.144-.113,2.18.471,1.833,1.756l-6.661,9.391a1.308,1.308,0,0,1-2.177-1.072l1.862-8.359c-4.329.275-1.229-3.815-1.246-6.079-1.139.058-2.074.15-2.334-1.179.791-2.252,1.209-5.064,2.1-7.233.268-.65.482-1.01,1.24-1.1a40.922,40.922,0,0,1,6.085,0,1.515,1.515,0,0,1,1.295,1.054c.2.982-2.456,6.627-2.155,6.9m.312-6.389h-5.065c-.987,1.968-1.318,4.314-2.1,6.388,1.111-.1,2.588-.072,2.463,1.436-.053.637-1.384,4.326-1.216,4.487,1.437-.085,2.493.091,2.3,1.753-.248,2.112-1.2,4.518-1.517,6.663l4.828-6.625c.04-.12-1.557-.169-1.563-1.4,0-.649,1.618-4.564,1.409-4.755a1.337,1.337,0,0,1-1.709-1.31Z" transform="translate(-115.022 -70.51)" fill="#fff"/>
          <path id="Trazado_1269345" data-name="Trazado 1269345" d="M288.225,58.372a.835.835,0,0,1,.658,1.448c-.132.144-2.938,2.111-3.114,2.183-.969.4-1.773-.246-1.154-1.153.857-.387,2.846-2.353,3.609-2.478" transform="translate(-240.076 -49.265)" fill="#fff"/>
          <path id="Trazado_1269346" data-name="Trazado 1269346" d="M291,90.461a15.706,15.706,0,0,1,2.432.467.826.826,0,0,1-.445,1.522,18.2,18.2,0,0,1-2.216-.419.82.82,0,0,1,.229-1.57" transform="translate(-245.036 -76.362)" fill="#fff"/>
          <path id="Trazado_1269347" data-name="Trazado 1269347" d="M270.685,49.15c1.763-.533.885,3.071.359,3.326-1.8.872-1.123-3.1-.359-3.326" transform="translate(-227.837 -41.445)" fill="#fff"/>
        </g>
      </g>
    </g>
  </g>
</svg>
