<svg xmlns="http://www.w3.org/2000/svg" xmlns:xlink="http://www.w3.org/1999/xlink" width="69" height="69" viewBox="0 0 69 69">
  <defs>
    <clipPath id="clip-path">
      <rect id="Rectángulo_459537" data-name="Rectángulo 459537" width="42" height="34.88" fill="#fff"/>
    </clipPath>
  </defs>
  <g id="Grupo_1208504" data-name="Grupo 1208504" transform="translate(-305.059 -11337.507)">
    <g id="Elipse_13679" data-name="Elipse 13679" transform="translate(305.059 11337.507)" fill="#6a2874" stroke="#707070" stroke-width="1">
      <circle cx="34.5" cy="34.5" r="34.5" stroke="none"/>
      <circle cx="34.5" cy="34.5" r="34" fill="none"/>
    </g>
    <g id="Grupo_1209369" data-name="Grupo 1209369" transform="translate(319.059 11355.507)">
      <g id="Grupo_1209368" data-name="Grupo 1209368" clip-path="url(#clip-path)">
        <path id="Trazado_1269602" data-name="Trazado 1269602" d="M247.846,100.925v4.094a3.472,3.472,0,0,0-2.529,0v-4.094l-1.563-.062-3.732-3.854.081-5.448,3.68-3.725,5.424-.012,3.913,3.913-.038,5.452-3.673,3.673Zm1.927-7.707h-6.382v2.408h6.382Z" transform="translate(-211.12 -77.249)" fill="#fff"/>
        <path id="Trazado_1269603" data-name="Trazado 1269603" d="M76.943,95.377v2.83c0,2.669-3.2,4.75-5.7,4.5-1.958-.194-4.53-2.331-4.53-4.38v-2.95a14.359,14.359,0,0,1-1.6-.028c-1.564-.316-1.164-2.775-.142-2.743.132,0,1.458,1.484,1.945,1.784,1.624,1,5.615.905,7.567.751a5.441,5.441,0,0,0,3.972-2.412c.869-.363,1.26.874,1.113,1.6-.251,1.23-1.66,1.079-2.621,1.051" transform="translate(-56.352 -81.454)" fill="#fff"/>
        <path id="Trazado_1269604" data-name="Trazado 1269604" d="M85.9,193.643c.019.271.292.713.189.957-.22.527-2.764,2.262-2.824,2.608l1.617,1.848,2.914-2.628a7.947,7.947,0,0,1,1.436.331c.127.046.213-.061.154.179l-4.824,8.242-2.67.025L77,196.772l1.681-.306,2.835,2.591,1.617-1.847c-.052-.3-2.615-2.109-2.824-2.609-.1-.245.171-.686.189-.957a9.831,9.831,0,0,0,5.408,0" transform="translate(-67.727 -170.326)" fill="#fff"/>
        <path id="Trazado_1269605" data-name="Trazado 1269605" d="M71.152.1A29.1,29.1,0,0,1,75.588.069a1.07,1.07,0,0,1,.5.1l4.859,3.21c.364.488-.751,2.613-1.275,2.715L67.212,6.036c-.416-.5-1.454-1.968-1.146-2.59Zm2.383,1.3L71.791,3.145l1.744,1.744,1.744-1.744Z" transform="translate(-58.062 0)" fill="#fff"/>
        <path id="Trazado_1269606" data-name="Trazado 1269606" d="M96.235,70.62a3.27,3.27,0,0,1-2.709,2.77,32.921,32.921,0,0,1-4.582,0A3.139,3.139,0,0,1,86,70.62Z" transform="translate(-75.644 -62.116)" fill="#fff"/>
        <path id="Trazado_1269607" data-name="Trazado 1269607" d="M168.057,225.559v7.707H163l4.469-7.512c.123-.23.35-.209.589-.194" transform="translate(-143.372 -198.391)" fill="#fff"/>
        <path id="Trazado_1269608" data-name="Trazado 1269608" d="M57.057,233.327H52V225.62l.48.061c1.573,2.515,3.016,5.121,4.577,7.645" transform="translate(-45.738 -198.452)" fill="#fff"/>
        <path id="Trazado_1269609" data-name="Trazado 1269609" d="M281.974,254.208H278V250.9a4.727,4.727,0,0,1,.306-.657,2.046,2.046,0,0,1,2.884-.487,3.051,3.051,0,0,1,.783,1.144Z" transform="translate(-244.525 -219.334)" fill="#fff"/>
        <path id="Trazado_1269610" data-name="Trazado 1269610" d="M3.733,240.363H0c.9-2.415,1.189-5.429,3.733-6.743Z" transform="translate(0 -205.489)" fill="#fff"/>
        <path id="Trazado_1269611" data-name="Trazado 1269611" d="M229.733,240.363H226V233.62c2.551,1.316,2.821,4.329,3.733,6.743" transform="translate(-198.786 -205.489)" fill="#fff"/>
      </g>
    </g>
  </g>
</svg>
