<svg xmlns="http://www.w3.org/2000/svg" xmlns:xlink="http://www.w3.org/1999/xlink" width="69" height="69" viewBox="0 0 69 69">
  <defs>
    <clipPath id="clip-path">
      <rect id="Rectángulo_459379" data-name="Rectángulo 459379" width="42" height="42" fill="#fff"/>
    </clipPath>
  </defs>
  <g id="Grupo_1208276" data-name="Grupo 1208276" transform="translate(-304.711 -11338.09)">
    <circle id="Elipse_13679" data-name="Elipse 13679" cx="34.5" cy="34.5" r="34.5" transform="translate(304.711 11338.09)" fill="#6a2874"/>
    <g id="Grupo_1209122" data-name="Grupo 1209122" transform="translate(319 11352.09)">
      <g id="Grupo_1209121" data-name="Grupo 1209121" transform="translate(-0.289)" clip-path="url(#clip-path)">
        <path id="Trazado_1268923" data-name="Trazado 1268923" d="M19.077,30v6.354h6.172l.187.191v3.241c-1.1-.4-2.21-.676-3.116.319a2.739,2.739,0,0,0-.05,3.881L19.013,49.7c-.245.3-.59-.013-.877,0-2.124.064-3.452,3.027-1.671,4.509,2.047,1.7,5.622,2.937,7.819,4.612l1.034.216a.936.936,0,0,1-.07,1.088H14.713v2.8H0V30Zm-3.865,4.321H2.494V37.5H15.212ZM18.3,40.96c-.143-.143-.452-.146-.649-.163-4.659-.408-9.88.321-14.6,0-.964.218-.857,1.037.128,1.153,4.617-.33,9.8.428,14.348,0a1.045,1.045,0,0,0,.873-.389.6.6,0,0,0-.1-.6m-.031,3.4H2.681c-.328,0-.328,1.017,0,1.017H18.391c.228,0,.5-.91-.125-1.017M2.805,48.936H16.77c.091,0,.384-.4.318-.565a.782.782,0,0,0-.318-.452H2.681c-.228,0-.5.91.125,1.017m-.125,2.542c-.7.595-.052.96.617,1.023,3.2.3,6.85-.228,10.1-.015l.551-.33c.086-.173-.006-.678-.169-.678Zm4.427,5.845c-.412-3.232-4.162-.294-4.224,1.567.775.835.9-.177,1.3-.666.281-.342,1.17-1.327,1.608-1.292.576.236.321,1.078.705,1.58.805,1.054,1.64-.887,2.027-.8.319.212.541.871.912.985.7.215,1.215-.386,1.454-.338.2.04.43.753,1.146.865.505.079,3.4.088,2.56-.957-.361-.448-1.774.154-2.423-.072-.265-.093-.316-.719-1.049-.841-.684-.115-1.021.334-1.217.319-.345-.026-.637-1.458-1.835-.948-.371.158-.584.536-.968.6" transform="translate(0.229 -26.187)" fill="#fff"/>
        <path id="Trazado_1268924" data-name="Trazado 1268924" d="M56.312,0V15.886l-2.724-1.609c-.187-1.635.181-3.6-.014-5.2a.887.887,0,0,0-.169-.467L47.646,2.8H31V0Z" transform="translate(-26.906)" fill="#fff"/>
        <rect id="Rectángulo_459378" data-name="Rectángulo 459378" width="15.849" height="3.231" transform="translate(13.472 38.769)" fill="#fff"/>
        <path id="Trazado_1268925" data-name="Trazado 1268925" d="M168.478,147.366l-3.323,5.961L159,149.9l3.315-5.981Z" transform="translate(-138.947 -125.633)" fill="#fff"/>
        <path id="Trazado_1268926" data-name="Trazado 1268926" d="M231.683,190.939a.656.656,0,0,1-.089.462,24.19,24.19,0,0,1-1.424,2.489c-.122.187-.289.605-.515.585l-8.549-5.134,1.925-3.372Z" transform="translate(-193.308 -162.335)" fill="#fff"/>
        <path id="Trazado_1268927" data-name="Trazado 1268927" d="M181.654,112.026a1.592,1.592,0,0,1,.99.21c2.387,1.031,4.938,3.18,7.334,4.344,1.249.869.016,2.986-1.313,2.609L181,114.673c-1.065-.575-.224-2.465.652-2.647" transform="translate(-157.767 -97.771)" fill="#fff"/>
        <path id="Trazado_1268928" data-name="Trazado 1268928" d="M134.837,193.082a1.2,1.2,0,0,1,.765.184c2.4,1.006,4.993,3.258,7.433,4.37,1.242.887.031,3.209-1.4,2.569l-7.577-4.476c-1.065-.663-.209-2.479.779-2.646" transform="translate(-116.683 -168.532)" fill="#fff"/>
        <path id="Trazado_1268929" data-name="Trazado 1268929" d="M138.222,275v2.224l-.187.191H127V275Z" transform="translate(-110.936 -240.052)" fill="#fff"/>
        <path id="Trazado_1268930" data-name="Trazado 1268930" d="M299.058,224.979a1.609,1.609,0,0,1,1.877,1.789,42.834,42.834,0,0,1-2.215,3.971,1.556,1.556,0,0,1-2.6-1.111,32.475,32.475,0,0,1,2.118-3.953,1.684,1.684,0,0,1,.818-.7" transform="translate(-258.964 -196.36)" fill="#fff"/>
        <path id="Trazado_1268931" data-name="Trazado 1268931" d="M166.237,36.21H161V31Z" transform="translate(-140.696 -27.06)" fill="#fff"/>
        <path id="Trazado_1268932" data-name="Trazado 1268932" d="M214.743,225.577H212c.068-.6.66-.924.94-1.52a2.24,2.24,0,0,0,.221-1.761c-.143-.582-.6-.861-.662-1.421.181-.179,1.967.978,2.244,1.207Z" transform="translate(-185.337 -192.789)" fill="#fff"/>
      </g>
    </g>
  </g>
</svg>
