<svg xmlns="http://www.w3.org/2000/svg" xmlns:xlink="http://www.w3.org/1999/xlink" width="69" height="69" viewBox="0 0 69 69">
  <defs>
    <clipPath id="clip-path">
      <rect id="Rectángulo_459418" data-name="Rectángulo 459418" width="42" height="42" fill="#fff"/>
    </clipPath>
  </defs>
  <g id="Grupo_1208360" data-name="Grupo 1208360" transform="translate(-616.422 -749.337)">
    <circle id="Elipse_13676" data-name="Elipse 13676" cx="34.5" cy="34.5" r="34.5" transform="translate(616.422 749.337)" fill="#6a2874"/>
    <g id="Grupo_1209152" data-name="Grupo 1209152" transform="translate(630.422 762.337)">
      <g id="Grupo_1209151" data-name="Grupo 1209151" clip-path="url(#clip-path)">
        <path id="Trazado_1269136" data-name="Trazado 1269136" d="M15.876.127c3.165.164,6.75-.317,9.866-.035a1.232,1.232,0,0,1,1.284,1.067c.312,1.706-.4,5.069.256,6.464a2.451,2.451,0,0,0,2.9,1.239c1.632-.446,3.724-2.422,5.27-2.9a1.223,1.223,0,0,1,1.61.532l4.869,8.368a1.235,1.235,0,0,1-.26,1.194l-5.331,3.115c-2.942,3.537,2.7,4.94,4.911,6.5.635.448.914.707.645,1.571a30.487,30.487,0,0,1-1.723,2.964c-.9,1.563-2.094,3.917-3.111,5.3a1.223,1.223,0,0,1-1.61.532c-1.519-.472-3.551-2.353-5.161-2.869a2.5,2.5,0,0,0-3.011,1.209c-.656,1.4.056,4.755-.256,6.464a1.275,1.275,0,0,1-.9,1.031c-3.165-.164-6.75.317-9.866.035a1.232,1.232,0,0,1-1.284-1.067c-.312-1.706.4-5.069-.256-6.464a2.451,2.451,0,0,0-2.9-1.239c-1.632.447-3.724,2.422-5.27,2.9a1.223,1.223,0,0,1-1.61-.532L.066,27.14a1.235,1.235,0,0,1,.26-1.194L5.657,22.83c2.942-3.537-2.7-4.94-4.911-6.5C.112,15.88-.167,15.622.1,14.757a30.487,30.487,0,0,1,1.723-2.964c.9-1.575,2.083-3.9,3.111-5.3a1.223,1.223,0,0,1,1.61-.532c1.519.472,3.551,2.353,5.161,2.869a2.5,2.5,0,0,0,3.011-1.209c.656-1.4-.056-4.755.256-6.464a1.275,1.275,0,0,1,.9-1.032m5.751,18.2V12.3h2.3c.455,0,.918.873,1.332,1.156,1.174.8,4.368,1.12,4.458-.816.061-1.3-2.182-2.229-3.283-2.229-.968,0-1.5.6-2.087.666-.742.078-1.885-.334-2.719-.147V6.746c0-.495-1.046-.647-1.231-.114-.257.738.221,3.884-.083,4.3-2.433.363-6.919,1.156-6.915,4.309,0,1.873,1.629,2.979,3.245,3.534,1.223.42,2.554.452,3.736.874l-.025,4.139c-1.92.406-4.851.9-4.854,3.377,0,2.314,3.023,3.028,4.858,3.372l.083,9.308a.816.816,0,0,0,1.116.137c.152-.173.44-2.252.7-2.877.763-1.85,2.825-3.254,2.4-5.522-.21-1.128-1.885-1.829-2.894-2.086l-.118-.158V25.064c2-.475,5.384-.1,5.691-2.829.376-3.334-3.229-3.529-5.711-3.907" transform="translate(0 -0.001)" fill="#fff"/>
        <path id="Trazado_1269137" data-name="Trazado 1269137" d="M111.834,90.706v5.551c-.2.253-.815.083-1.147.032-7.321-1.142-4.582-5.638,1.147-5.583" transform="translate(-91.461 -78.273)" fill="#fff"/>
        <path id="Trazado_1269138" data-name="Trazado 1269138" d="M155.273,144.2c.094-.313,1.107-.081,1.425-.032.8.124,2.392.489,2.811,1.208a1.4,1.4,0,0,1-.852,2.016,13.917,13.917,0,0,1-3.069.55.332.332,0,0,1-.314-.179Z" transform="translate(-133.646 -124.294)" fill="#fff"/>
        <path id="Trazado_1269139" data-name="Trazado 1269139" d="M124.6,183.709v3.975c-1.225-.228-4.283-.852-3.324-2.656.436-.82,2.457-1.133,3.324-1.319" transform="translate(-104.224 -158.528)" fill="#fff"/>
        <path id="Trazado_1269140" data-name="Trazado 1269140" d="M155.273,230.022v-3.906c0-.551,1.746.328,1.813.963a6.465,6.465,0,0,1-1.4,2.736c-.133.135-.183.257-.416.208" transform="translate(-133.646 -194.972)" fill="#fff"/>
      </g>
    </g>
  </g>
</svg>
