<svg xmlns="http://www.w3.org/2000/svg" xmlns:xlink="http://www.w3.org/1999/xlink" width="187.711" height="121.729" viewBox="0 0 187.711 121.729">
  <defs>
    <clipPath id="clip-path">
      <rect id="Rectángulo_459559" data-name="Rectángulo 459559" width="102.009" height="102.437" fill="none"/>
    </clipPath>
  </defs>
  <g id="Grupo_1209844" data-name="Grupo 1209844" transform="translate(-289.711 -2514)">
    <g id="Grupo_1209395" data-name="Grupo 1209395">
      <g id="Grupo_1208513" data-name="Grupo 1208513" transform="translate(0.434 -6354.039)">
        <g id="Grupo_1204518" data-name="Grupo 1204518" transform="translate(289.277 8868.039)">
          <rect id="Rectángulo_455283" data-name="Rectángulo 455283" width="187.711" height="121.729" rx="19" fill="#e9c3ff"/>
        </g>
      </g>
      <g id="Grupo_1209394" data-name="Grupo 1209394" transform="translate(332.711 2524)">
        <g id="Grupo_1209393" data-name="Grupo 1209393" clip-path="url(#clip-path)">
          <path id="Trazado_1269943" data-name="Trazado 1269943" d="M43.456,91.311c.585-.009,1.175,0,1.758,0-.207,4.132,1.349,9.863-4.024,11.057l-36.528.07A4.843,4.843,0,0,1,.408,97.91c1-18.548-1.293-38.431,0-56.823.432-6.151,4.9-11.3,11.137-11.847.212-.2-.3-4.656.218-5.783.649-1.419,2.841-.787,3.006-.947.292-.284-.523-4.851.442-5.853.787-.816,2.777-.446,2.777-.59V9.92c-6.271.976-9.1-6.758-3.17-9.464,10.461.2,21.917-.934,32.314-.21a11.534,11.534,0,0,1,8.989,5.064c1.047,1.621,3.2,7.295.358,7.824a53.439,53.439,0,0,1-8.172-.011c-2.221-.348-1.3-3.2-2.653-3.2H27.647v6.148c0,.172,2.369-.377,3.07,1.175.437.969-.06,5.062.149,5.267a8.313,8.313,0,0,1,2.047.149c1.872.836.973,4.916,1.176,6.582,4.152.175,8.45,3.621,10.005,7.415,1.715,4.185.966,8.675,1.121,13.082-.584-.005-1.174.008-1.758,0-.488-.008-.979.009-1.466,0,.468-7.295.43-16.636-8.93-17.565a145.633,145.633,0,0,0-20.638,0,9.8,9.8,0,0,0-8.747,8.673l.117,57.487.732.732,35.84.135c2.964-.006,1.026-7.3,1.627-7.888.487-.008.978.009,1.466,0M14.765,4.943c-.034,1.134.9,1.645,1.9,1.762,9.015,1.059,20.028-.824,29.257.02,2.069-.346,3.153,2.755,3.752,3.133.284.18.764.038,1.1.061,1.254.086,2.548-.061,3.8,0A8.025,8.025,0,0,0,47.67,3.51L16.36,3.464a1.669,1.669,0,0,0-1.6,1.479m6.441,7.9c-.02,1.168.015,2.347,0,3.515h3.223c-.057-1.651.073-3.329,0-4.979-.022-.487.019-.98,0-1.466H21.2c-.011.973.019,1.956,0,2.929m0,6.441c-1.07.015-2.152-.011-3.222,0v3.223c1.558,0,3.128-.011,4.686,0,1.656.01,3.323-.008,4.979,0V19.287c-2.143.025-4.3-.029-6.442,0m9.662,6.441h-16.1V28.95h16.1Z" transform="translate(0 0)" fill="#050404"/>
          <path id="Trazado_1269944" data-name="Trazado 1269944" d="M45.43,187.845c.131-1.512,4.157-1.309,5.391-1.146,5.483.722,16.872,11.237,22.276,14.028h27.96c-.132-.8.191-2.032.008-2.737-.085-.326-.574-.163-.593-.191-.821-1.22-.653-1.549-2.489-1.756H76.171c-.865-2.331,1.168-2.794,3.073-3.221,10.465.775,22.129-1.724,32.072,1.6,7.37,5.115,13.643,11.871,20.874,17.091a3.949,3.949,0,0,0,.779-.537c.485.3.292,1.111.3,1.606.069,5.524.174,11.337,0,16.839-.574.006-.814-.394-1.175-.726-6.083-5.594-11.46-11.99-17.648-17.486a10.866,10.866,0,0,0-2.976-.83c-9.756-.893-21.011.918-30.766.025a9.517,9.517,0,0,1-4.094-1.469Z" transform="translate(-32.129 -131.96)" fill="#fdc8bc"/>
          <path id="Trazado_1269945" data-name="Trazado 1269945" d="M59.777,164.668a37.526,37.526,0,0,1,4.684,2.049c1.021.456,2.241.975,3.221,1.464,1.819.909,3.585,2.048,5.437,2.92.216.343-.263.988-.459,1.472-.135.332-.85.738-.585,1.462,1.07.014,2.15-.014,3.22,0,10.845.155,24.461-2.358,33.223,4.4,5.416,4.177,12.048,9.907,16.994,14.64a1.231,1.231,0,0,0,.724.29l0,.428c-.687.3-.922,1.325-1.167,1.616a3.97,3.97,0,0,1-.779.537c-7.231-5.221-13.5-11.977-20.874-17.091-9.943-3.323-21.607-.824-32.072-1.6-1.905.427-3.938.891-3.073,3.221.518,1.4,1.4,1.5,2.78,1.758h21.52c.019.028.509-.135.593.191.183.7-.14,1.937-.008,2.736H65.194c-5.4-2.791-16.793-13.306-22.276-14.028-1.235-.162-5.261-.365-5.391,1.146a3.731,3.731,0,0,0,1.486,3.345c8.666,5.67,16.864,12.481,25.53,18.093,3.692,2.391,6.628,4.021,11.178,4.339,9.089.634,18.814-.624,27.967.14l15.974,17.422c.348.556-.125,1.038-.451,1.457a2.79,2.79,0,0,1-.293.293c-.448.417-1.171,1.195-1.619.6l-14.983-16.711c-8.872-.462-18.382.631-27.18.017a28.236,28.236,0,0,1-7.454-1.769,42.905,42.905,0,0,1-5.655-3.567c-8.765-5.863-17.084-12.472-25.815-18.394a6.742,6.742,0,0,1-1.614-6.73c.78-2.188,3.894-3.2,6-3.219,1.028-.01,4.472.954,4.924.837.352-.091,1.556-1.924,3.046-2.236s3.527.4,4.267.245c.138-.028,1.092-1.473,2.169-1.714a24.313,24.313,0,0,1,4.769-.061m11.709,9.08c-5.136-1.9-9.6-5.724-15.221-6.15-.136.61.321.665.666.941,3.019,2.415,7.234,4.226,10.363,6.609ZM65,177.31c-3.887-1.561-10.153-7.732-14.139-7.969-.592-.035-1.923-.15-2.2.456L64.61,180.769Z" transform="translate(-24.226 -116.395)" fill="#050404"/>
          <path id="Trazado_1269946" data-name="Trazado 1269946" d="M21.3,109.882c-3.368,5.986-2.431,13.864-2.347,20.645.006.5-.188,1.3.3,1.606a6.742,6.742,0,0,0,1.614,6.73c8.731,5.922,17.05,12.531,25.815,18.394a42.928,42.928,0,0,0,5.655,3.567v1.757c-.488.008-.979-.009-1.466,0,.006.584-.008,1.174,0,1.758a22.925,22.925,0,0,1-5.774-3.156c-8.9-5.863-17.221-12.669-26.139-18.509v23.275c0,1.329,3.488,4.658,5.149,4.513,7.257-.444,15.377.678,22.53.037,2.523-.226,5.067-2.063,5.4-4.7.1,0,.2,0,.293,0v3.221c-.488.008-.979-.009-1.466,0-.6.589,1.337,7.881-1.627,7.888l-35.84-.135-.732-.732-.117-57.487a9.8,9.8,0,0,1,8.747-8.673" transform="translate(-8.878 -77.711)" fill="#499af4"/>
          <path id="Trazado_1269947" data-name="Trazado 1269947" d="M36.32,109a145.629,145.629,0,0,1,20.638,0c9.361.929,9.4,10.27,8.931,17.565.487.008.978-.009,1.466,0v2.049c-.98-.49-2.2-1.009-3.221-1.464,1.144-4.4-3.493-6.874-4.684-2.049a24.293,24.293,0,0,0-4.77.061c-1.077.241-2.031,1.685-2.169,1.714-.74.153-2.776-.558-4.267-.245s-2.694,2.146-3.046,2.236c-.452.117-3.9-.847-4.924-.837-2.109.021-5.223,1.031-6,3.219-.485-.3-.292-1.111-.3-1.606-.084-6.78-1.021-14.658,2.347-20.645m19.131,5.461c.915.947,2.233.934,3.193,2.517,1.177,1.941.391,5.952,4.113,4.842,3.907-1.165-.383-8.664-2.74-10.313-3.816-2.669-6.87.568-4.565,2.954" transform="translate(-23.897 -76.83)" fill="#4fc2f1"/>
          <path id="Trazado_1269948" data-name="Trazado 1269948" d="M133.226,232.456a10.248,10.248,0,0,1-.325,3.187l-5.823.326v-.293c.326-.419.8-.9.451-1.457L111.555,216.8c-9.152-.764-18.877.495-27.967-.14-4.55-.317-7.487-1.948-11.178-4.339-8.666-5.611-16.865-12.422-25.53-18.093a3.73,3.73,0,0,1-1.486-3.344l31.173,21.087a9.517,9.517,0,0,0,4.094,1.469c9.755.894,21.01-.918,30.766-.025a10.867,10.867,0,0,1,2.976.83c6.188,5.5,11.565,11.892,17.648,17.486.361.332.6.733,1.175.726" transform="translate(-32.093 -134.997)" fill="#fcb2a1"/>
          <path id="Trazado_1269949" data-name="Trazado 1269949" d="M167.855,98.876a2.383,2.383,0,0,1,2.108.386c2.48,1.558,7.145,13.068,7.342,16.077.676,10.316-14.159,12.514-17.129,3.371-1.29-3.971,1.574-10.482,3.4-14.148.742-1.486,2.656-5.265,4.276-5.686m6.22,17.792a4.082,4.082,0,0,0-.293-1.757,16.065,16.065,0,0,0-1.171-3.513c-.068-.195.051-.618-.071-.942-.582-1.538-2.772-6.626-3.71-7.657-.2-.223-.474-.306-.606-.183-1.494,3.619-5.221,9.443-5.282,13.334-.1,6.457,10.4,7.164,11.133.718" transform="translate(-113.052 -69.859)" fill="#050404"/>
          <path id="Trazado_1269950" data-name="Trazado 1269950" d="M231.159,90.654c.181.18,2.869-.27,2.934.167-.1.508.114,2.935,0,3.053-.133.133-2.8-.136-2.931,0s.089,2.7,0,3.223h-3.516l0-3.223-3.223,0V90.652l3.223,0,0-3.223c5.323-1.031,2.848,2.559,3.513,3.223" transform="translate(-158.719 -61.703)" fill="#050404"/>
          <path id="Trazado_1269951" data-name="Trazado 1269951" d="M138.772,54.877l0,3.223,3.223,0v3.223l-3.223,0,0,3.223c-.524-.086-3.107.116-3.223,0-.132-.131.133-2.805,0-2.931s-2.923-.015-3.207-.306c-.162-.167.084-2.655-.017-3.208l3.223,0,0-3.223Z" transform="translate(-93.557 -38.81)" fill="#050404"/>
          <path id="Trazado_1269952" data-name="Trazado 1269952" d="M144.884,289.873c.585-.01,1.174,0,1.758,0l0,3.053c-.047.307-1.37.171-1.762.169-.1,0-.2,0-.293,0-.391-.01-.783.012-1.173,0-.009-.487.01-.978,0-1.466-.01-.585,0-1.174,0-1.758.487-.008.978.01,1.466,0" transform="translate(-101.428 -205.003)" fill="#050404"/>
          <path id="Trazado_1269953" data-name="Trazado 1269953" d="M166.511,193.346c-1.07-.015-2.15.013-3.22,0-.265-.724.45-1.13.585-1.462Z" transform="translate(-115.443 -135.704)" fill="#fcb2a1"/>
          <path id="Trazado_1269954" data-name="Trazado 1269954" d="M323.723,344.175h-.293a2.791,2.791,0,0,0,.293-.293Z" transform="translate(-228.738 -243.202)" fill="#fdc8bc"/>
          <path id="Trazado_1269955" data-name="Trazado 1269955" d="M50.43,13.31a1.669,1.669,0,0,1,1.6-1.479l31.311.046a8.025,8.025,0,0,1,6.91,6.408c-1.257-.059-2.551.088-3.8,0-.652-2.984-3.861-4.459-6.619-4.946Z" transform="translate(-35.665 -8.367)" fill="#4fc2f1"/>
          <path id="Trazado_1269956" data-name="Trazado 1269956" d="M86.439,21.859c-.341-.023-.82.118-1.1-.061-.6-.379-1.683-3.479-3.752-3.133-9.229-.845-20.241,1.038-29.257-.02-.994-.117-1.931-.628-1.9-1.762l29.392.032c2.758.487,5.967,1.962,6.619,4.946" transform="translate(-35.663 -11.939)" fill="#499af4"/>
          <rect id="Rectángulo_459558" data-name="Rectángulo 459558" width="16.103" height="3.221" transform="translate(14.765 25.73)" fill="#499af4"/>
          <path id="Trazado_1269957" data-name="Trazado 1269957" d="M72.4,65.859c2.143-.03,4.3.023,6.442,0v3.223c-1.655-.01-3.323.009-4.979,0-.389-1.2-1.611-1.751-1.464-3.221" transform="translate(-51.195 -46.57)" fill="#f6f6f6"/>
          <path id="Trazado_1269958" data-name="Trazado 1269958" d="M75.635,38.778c.075,1.649-.055,3.327,0,4.979H72.413c.016-1.168-.019-2.347,0-3.515,1.242-.333,1.7-1.772,3.221-1.464" transform="translate(-51.209 -27.395)" fill="#fdc8bc"/>
          <path id="Trazado_1269959" data-name="Trazado 1269959" d="M64.647,65.873c-.147,1.469,1.075,2.025,1.464,3.221-1.558-.01-3.128.006-4.686,0V65.872c1.07-.009,2.152.017,3.222,0" transform="translate(-43.441 -46.585)" fill="#fdc8bc"/>
          <path id="Trazado_1269960" data-name="Trazado 1269960" d="M72.42,36.805c.017-.973-.013-1.956,0-2.929h3.223c.018.486-.023.979,0,1.466-1.523-.308-1.979,1.131-3.221,1.464" transform="translate(-51.215 -23.958)" fill="#499af4"/>
          <path id="Trazado_1269961" data-name="Trazado 1269961" d="M174.73,220.639H153.21c-1.382-.258-2.263-.362-2.78-1.758h21.811c1.835.207,1.668.537,2.489,1.756" transform="translate(-106.388 -154.799)" fill="#fcb2a1"/>
          <path id="Trazado_1269962" data-name="Trazado 1269962" d="M99.784,188.734l-.388,3.459L83.44,181.22c.282-.605,1.612-.491,2.2-.456,3.986.237,10.251,6.408,14.139,7.969" transform="translate(-59.011 -127.819)" fill="#fcb2a1"/>
          <path id="Trazado_1269963" data-name="Trazado 1269963" d="M124.6,181.038l-4.192,1.4c-3.129-2.383-7.344-4.195-10.363-6.609-.345-.276-.8-.331-.666-.941,5.623.426,10.085,4.255,15.221,6.15" transform="translate(-77.336 -123.685)" fill="#fcb2a1"/>
          <path id="Trazado_1269964" data-name="Trazado 1269964" d="M126.114,160.573a37.481,37.481,0,0,0-4.684-2.049c1.191-4.825,5.829-2.346,4.684,2.049" transform="translate(-85.878 -110.25)" fill="#f6f6f6"/>
          <path id="Trazado_1269965" data-name="Trazado 1269965" d="M66.342,243.547c.008.488-.01.979,0,1.466.389.01.782-.011,1.173,0-.338,2.634-2.881,4.47-5.4,4.7-7.152.641-15.273-.481-22.53-.037-1.661.145-5.149-3.183-5.149-4.513V221.882c8.918,5.841,17.242,12.646,26.139,18.509a22.925,22.925,0,0,0,5.774,3.156" transform="translate(-24.35 -156.921)" fill="#4fc2f1"/>
          <path id="Trazado_1269966" data-name="Trazado 1269966" d="M105.85,118.976c-2.3-2.386.749-5.623,4.565-2.954,2.357,1.649,6.647,9.148,2.74,10.313-3.722,1.11-2.935-2.9-4.113-4.842-.96-1.583-2.278-1.57-3.193-2.517" transform="translate(-74.296 -81.344)" fill="#f6f6f6"/>
          <path id="Trazado_1269967" data-name="Trazado 1269967" d="M181.536,125.8c-.735,6.446-11.234,5.74-11.133-.718.061-3.891,3.787-9.716,5.282-13.334.132-.123.4-.039.606.183.938,1.031,3.128,6.119,3.71,7.657.123.324,0,.747.071.942-.309-1.178-2.8-2.07-3.2-.694-.389,1.32,4.117,4.182,3.2.694a16.065,16.065,0,0,1,1.171,3.513c-4.176-.208-3.528,5.713.293,1.757" transform="translate(-120.513 -78.991)" fill="#4fc2f1"/>
          <path id="Trazado_1269968" data-name="Trazado 1269968" d="M200.515,153.869a4.082,4.082,0,0,1,.293,1.757c-3.821,3.956-4.469-1.965-.293-1.757" transform="translate(-139.785 -108.816)" fill="#f6f6f6"/>
          <path id="Trazado_1269969" data-name="Trazado 1269969" d="M195.635,138.523c.914,3.489-3.592.626-3.2-.694.405-1.376,2.894-.485,3.2.694" transform="translate(-136.076 -96.983)" fill="#f6f6f6"/>
        </g>
      </g>
    </g>
  </g>
</svg>
