<svg xmlns="http://www.w3.org/2000/svg" xmlns:xlink="http://www.w3.org/1999/xlink" width="69" height="69" viewBox="0 0 69 69">
  <defs>
    <clipPath id="clip-path">
      <rect id="Rectángulo_459414" data-name="Rectángulo 459414" width="42" height="41.939" fill="#fff"/>
    </clipPath>
  </defs>
  <g id="Grupo_1209161" data-name="Grupo 1209161" transform="translate(-273.711 -2838.725)">
    <circle id="Elipse_13683" data-name="Elipse 13683" cx="34.5" cy="34.5" r="34.5" transform="translate(273.711 2838.725)" fill="#6a2874"/>
    <g id="Grupo_1209148" data-name="Grupo 1209148" transform="translate(287.711 2852.725)">
      <g id="Grupo_1209147" data-name="Grupo 1209147" clip-path="url(#clip-path)">
        <path id="Trazado_1269129" data-name="Trazado 1269129" d="M146.66,214.983h-1.684v2.8h1.641a1.612,1.612,0,0,0,1.111-.343,1.247,1.247,0,0,0,.383-.98,1.471,1.471,0,0,0-.386-1.059,1.441,1.441,0,0,0-1.065-.416" transform="translate(-127.548 -189.139)" fill="#fff"/>
        <path id="Trazado_1269130" data-name="Trazado 1269130" d="M19.581.047A20.988,20.988,0,1,0,39.057,31.665C47.638,17.111,36.335-1.033,19.581.047M13.434,11.258H18.47V6.222h5.036v5.036h5.036v5.036H23.506v5.036H18.47V16.294H13.434Zm.455,22.013H12.053V24.357H13.89Zm7.631-3.9a3.735,3.735,0,0,1-2.482.756h-1.61v3.141H15.592V24.357h3.477a4.025,4.025,0,0,1,1.766.367,2.709,2.709,0,0,1,1.172,1.044,2.911,2.911,0,0,1,.41,1.54,2.559,2.559,0,0,1-.9,2.066m4.335-1.913a4.939,4.939,0,0,0,1.289.551,5.57,5.57,0,0,1,2.284,1.17,2.329,2.329,0,0,1,.716,1.739,2.145,2.145,0,0,1-.875,1.815,3.834,3.834,0,0,1-2.357.658,4.554,4.554,0,0,1-1.874-.376,2.968,2.968,0,0,1-1.289-1.032,2.644,2.644,0,0,1-.444-1.518h1.843q0,1.476,1.763,1.475a1.714,1.714,0,0,0,1.022-.266.866.866,0,0,0,.367-.744.942.942,0,0,0-.367-.8,4.822,4.822,0,0,0-1.322-.588,9.356,9.356,0,0,1-1.512-.609,2.471,2.471,0,0,1-1.518-2.21,2.154,2.154,0,0,1,.407-1.289,2.657,2.657,0,0,1,1.169-.884,4.4,4.4,0,0,1,1.711-.319,4.011,4.011,0,0,1,1.7.346,2.713,2.713,0,0,1,1.16.977,2.557,2.557,0,0,1,.413,1.433H28.308a1.2,1.2,0,0,0-.386-.952,1.585,1.585,0,0,0-1.084-.34,1.694,1.694,0,0,0-1.047.285.9.9,0,0,0-.374.75.86.86,0,0,0,.438.729" transform="translate(0 -0.001)" fill="#fff"/>
      </g>
    </g>
  </g>
</svg>
