<svg xmlns="http://www.w3.org/2000/svg" xmlns:xlink="http://www.w3.org/1999/xlink" width="96" height="96" viewBox="0 0 96 96">
  <defs>
    <clipPath id="clip-path">
      <rect id="Rectángulo_455595" data-name="Rectángulo 455595" width="96" height="96" fill="none"/>
    </clipPath>
    <clipPath id="clip-path-2">
      <rect id="Rectángulo_459579" data-name="Rectángulo 459579" width="32.013" height="54.832" fill="#fff"/>
    </clipPath>
  </defs>
  <g id="Grupo_1208697" data-name="Grupo 1208697" transform="translate(-735.746 -9118)">
    <g id="Grupo_1180407" data-name="Grupo 1180407" transform="translate(735.746 9117.971)">
      <g id="Grupo_1179172" data-name="Grupo 1179172" transform="translate(0 0.03)" clip-path="url(#clip-path)">
        <path id="Trazado_998483" data-name="Trazado 998483" d="M92.627,52.5A40.125,40.125,0,1,1,52.5,12.377,40.125,40.125,0,0,1,92.627,52.5" transform="translate(-4.488 -4.517)" fill="#8d1939"/>
        <path id="Trazado_998485" data-name="Trazado 998485" d="M90.973,46.487A44.486,44.486,0,1,1,46.487,2,44.486,44.486,0,0,1,90.973,46.487Z" transform="translate(1.527 1.499)" fill="none" stroke="#8d1939" stroke-miterlimit="10" stroke-width="4"/>
      </g>
    </g>
    <g id="Grupo_1180408" data-name="Grupo 1180408" transform="translate(755.746 9137)">
      <g id="Grupo_1099618" data-name="Grupo 1099618" transform="translate(0 -0.168)">
        <rect id="Rectángulo_401104" data-name="Rectángulo 401104" width="56.349" height="57.028" transform="translate(0)" fill="none"/>
      </g>
      <g id="Grupo_1209431" data-name="Grupo 1209431" transform="translate(12 0.832)">
        <g id="Grupo_1209430" data-name="Grupo 1209430" clip-path="url(#clip-path-2)">
          <path id="Trazado_1270169" data-name="Trazado 1270169" d="M17.252,13.54c.08,2.811-2.751,2.282-4.693,2.05A8.593,8.593,0,0,1,6.465,20.4c-.393.08-.875-.037-1.191.064S4.71,21.831,3.454,22.1c-1.614.345-3.117-.3-3.3-2.048a40.142,40.142,0,0,1,0-5.965c.14-1.233,1.419-1.1,1.567-.307.241,1.288-.332,5.8.149,6.559a1.409,1.409,0,0,0,1.465.1l.273-.7L3.571,2.04c-.182-.62-1.638-.62-1.82,0l-.036,8.907c-.152.8-1.438.871-1.564-.307A58.767,58.767,0,0,1,.187,1.731C.561-.329,3.538-.514,4.79.98c.177.211.2.568.252.608.089.077,1.912.3,2.322.425a8.108,8.108,0,0,1,5.027,4.311c2.006-1.019,5.264-.8,4.86,2.2C19.906,8.936,25.269,7,24.8,11.4l.236.235h2.78l.236-.235c-.179-2.039,1.986-1.69,1.59.257.715-.11,1.3.206,1.07.985-.188.65-1.016.546-1.062.591-.085.085.212,1.391-.749,1.536s-.8-.919-.984-1.543H24.783v4.079c2.642.107,2.152,3.506,2.743,5.337.46,1.425,2.028,3.249,2.618,4.756a1.944,1.944,0,0,1,.21,1.519.812.812,0,0,1-1.338-.078l-2.689-5.076-7.709-.028c-2.246,3.5-4,7.2-4.179,11.444a33.327,33.327,0,0,0,15.993.011c.116-.154-.589-3.2-.468-3.837a.827.827,0,0,1,1.335-.4c1.555,5.162.437,10.532-2.1,15.171-.576,1.055-1.216,2.438-2.3,3.038-1.3.724-2.735.4-4.164.465.177,2.518.163,5.536-3.216,5.178-3.348-.355-1.794-4.135-2.345-5.969-.349-1.163-1.975-3.417-2.574-4.8a20.107,20.107,0,0,1,.157-16.743c.645-1.4,2.16-3.372,2.57-4.648.627-1.948.013-4.881,2.6-5.433-.153-1.166.282-2.654-.245-3.67ZM5.171,18.874c9.052-.436,9.056-15.135,0-15.532Zm8.315-4.707c.462-.091,2.013.236,2.175-.257-.1-1.8.205-3.873.031-5.635-.12-1.212-1.342-1.026-2.206-.618Zm9.727,3.138V10.48a2.619,2.619,0,0,0-.392-.392h-5.57v1.883h2.9A3.889,3.889,0,0,1,21.488,13.3v4Zm2.51,4.864c-.09-.63-.272-2.967-.782-3.219a24.9,24.9,0,0,0-5.242.064l-.566,3.154Zm4.549,14.748a38.742,38.742,0,0,1-15.845,0c.214.82.224,1.678.386,2.515.607,3.139,2.2,5.84,3.725,8.59,2.026-.077,4.323.221,6.32.03a2.885,2.885,0,0,0,1.728-.625,28.754,28.754,0,0,0,2.253-4.18,16.532,16.532,0,0,0,1.434-6.331m-9.1,12.708H18.821v2.9a4.23,4.23,0,0,0,.63.625c.588.272,1.723-.211,1.723-.781Z" transform="translate(0 0)" fill="#fff"/>
        </g>
      </g>
    </g>
  </g>
</svg>
