<svg xmlns="http://www.w3.org/2000/svg" xmlns:xlink="http://www.w3.org/1999/xlink" width="96" height="96" viewBox="0 0 96 96">
  <defs>
    <clipPath id="clip-path">
      <rect id="Rectángulo_455595" data-name="Rectángulo 455595" width="96" height="96" fill="none"/>
    </clipPath>
    <clipPath id="clip-path-2">
      <rect id="Rectángulo_459658" data-name="Rectángulo 459658" width="53.349" height="52.247" fill="#fff"/>
    </clipPath>
  </defs>
  <g id="Grupo_1207711" data-name="Grupo 1207711" transform="translate(-735.746 -9118)">
    <g id="Grupo_1180407" data-name="Grupo 1180407" transform="translate(735.746 9117.971)">
      <g id="Grupo_1179172" data-name="Grupo 1179172" transform="translate(0 0.03)" clip-path="url(#clip-path)">
        <path id="Trazado_998483" data-name="Trazado 998483" d="M92.627,52.5A40.125,40.125,0,1,1,52.5,12.377,40.125,40.125,0,0,1,92.627,52.5" transform="translate(-4.488 -4.517)" fill="#8d1939"/>
        <path id="Trazado_998485" data-name="Trazado 998485" d="M90.973,46.487A44.486,44.486,0,1,1,46.487,2,44.486,44.486,0,0,1,90.973,46.487Z" transform="translate(1.527 1.499)" fill="none" stroke="#8d1939" stroke-miterlimit="10" stroke-width="4"/>
      </g>
    </g>
    <g id="Grupo_1180408" data-name="Grupo 1180408" transform="translate(755.746 9137)">
      <g id="Grupo_1099618" data-name="Grupo 1099618" transform="translate(0 -0.05)">
        <rect id="Rectángulo_401104" data-name="Rectángulo 401104" width="56.349" height="57.028" transform="translate(0)" fill="none"/>
      </g>
      <g id="Grupo_1209466" data-name="Grupo 1209466" transform="translate(2 1.95)">
        <g id="Grupo_1209465" data-name="Grupo 1209465" clip-path="url(#clip-path-2)">
          <path id="Trazado_1270696" data-name="Trazado 1270696" d="M10.916,3.267H42.21c.028-.955-.285-2.775.908-3.137A12.188,12.188,0,0,1,46.07.094c.309.069,1.024.7,1.024.96V3.267H51.9c.609,0,1.168.937,1.261,1.487.156.927.194,4.349-.416,5.006a3.067,3.067,0,0,1-1.15.529h-4.5v.458h5.114a4.239,4.239,0,0,1,.67.551c.463.706.476,4.8.081,5.543a2.843,2.843,0,0,1-.9.775H47.095V22.96h4.961a3.89,3.89,0,0,1,.695.416c.621.7.634,4.879.209,5.678a2.844,2.844,0,0,1-.9.775H47.095v.458H51.9a3.552,3.552,0,0,1,.913.614c.631.825.361,3.384.378,4.506.009.583.389,1.027-.078,1.589a1.72,1.72,0,0,1-.45.313H47.095v9.923a1.455,1.455,0,0,1,1.6.915c.6,1.19,1.356,3.743-.608,3.974a46.829,46.829,0,0,1-6.728,0,1.349,1.349,0,0,1-1.381-1.068c-.2-.883.717-4.327,2.228-3.824V37.31H34.5c-1.329.6-7.035,5.488-7.939,5.485-.778,0-6.612-4.838-7.784-5.485H10.916V47c.251.295.649.222.973.4.969.535,2.278,4.451.023,4.717a46.657,46.657,0,0,1-6.877,0c-1.993-.234-1.108-2.9-.538-4.057a1.369,1.369,0,0,1,1.534-.832V37.31H1.375A1.62,1.62,0,0,1,.149,36.245a24.582,24.582,0,0,1-.036-4.776C.2,31,.788,30.287,1.222,30.287H6.031v-.458H1.069c-.518,0-.955-.958-1-1.443a27.117,27.117,0,0,1,.039-4.4c.069-.309.7-1.024.96-1.024H6.031V17.617H1.069c-.518,0-.955-.958-1-1.443a27.117,27.117,0,0,1,.039-4.4c.069-.309.7-1.024.96-1.024H6.031V10.29h-4.5A1.589,1.589,0,0,1,.073,8.843,28.262,28.262,0,0,1,.11,4.292,1.9,1.9,0,0,1,1.222,3.267H6.031V1.054c0-.456.662-.938,1.142-1C7.9-.027,10.916-.171,10.916.9ZM9.237,1.74H7.709V3.268H9.237Zm36.179,0H43.888V3.268h1.528ZM4.5,4.947H1.756V8.61c.417-.068,1.528.164,1.759-.149Zm7.175,0h-5.5L5.267,8.61h5.5Zm7.327,0H13.587a16.639,16.639,0,0,0-.992,3.664h5.5Zm7.327,0H20.915a12.57,12.57,0,0,0-.992,3.664h5.267a16.3,16.3,0,0,0,1.145-3.664m7.327,0H28.013L27.1,8.61h5.419a24.515,24.515,0,0,0,1.145-3.664m7.327,0H35.34L34.425,8.61h5.419c.606-1.107.631-2.493,1.145-3.664m7.175,0h-5.5L41.752,8.61h5.5Zm3.358,0L49.915,5.1,49.079,8.61h2.214l.229-.229ZM9.237,10.29H7.709v.457H9.237Zm32.973,0H10.916l0,.227.227.231H42.21Zm3.207,0H43.888v.457h1.528ZM4.351,12.427h-2.6v3.511l1.825-.007Zm7.327,0h-5.5l-.916,3.511h5.419a17.261,17.261,0,0,0,.992-3.511m7.48,0H13.587l-.994,3.433c.489.347.458-.224.68-.383.331-.237.726-.383,1.051-.634Zm21.677,0H34.119l5.952,3.205Zm7.327,0H42.744l-.992,3.511h5.419Zm3.358,0c-.417.063-1.345-.162-1.605.15l-.837,3.361h2.442ZM38.514,16.579c-3.365-1.932-7.224-3.826-11.181-4.007a20.583,20.583,0,0,0-9.886,2.494A18.9,18.9,0,0,0,14.8,16.54a.634.634,0,0,0-.228.535c.466,6.977-1.912,13.374,4.295,18.313,2.4,1.909,5.214,3.6,7.7,5.426L27,40.646c4.482-3.78,11.059-5.992,11.555-12.718.269-3.652-.186-7.661-.038-11.348M9.236,17.617H7.71V22.96H9.236Zm3.664,0H10.916v5.114c.485.459,1.351.141,1.985.229Zm29.31,0H40.225V22.96H42.21Zm3.206,0H43.889V22.96h1.527ZM4.5,24.639H1.756V28.15l1.825-.007Zm7.175,0h-5.5L5.267,28.15h5.419a16.266,16.266,0,0,0,.992-3.511m28.547,0v2.29l.613-2.062Zm7.938,0h-5.5l-.916,3.511h5.419a17.26,17.26,0,0,0,.992-3.511m3.358,0c-.417.063-1.345-.162-1.605.15l-.837,3.361h2.442ZM9.237,29.83H7.709v.457H9.237Zm4.121.457,0-.227-.227-.231H10.916v.458Zm28.852-.458H39.92l-.153.458H42.21Zm3.207,0H43.888v.457h1.528ZM4.351,31.967h-2.6V35.63c.438-.07,1.491.169,1.758-.15Zm7.327,0h-5.5L5.267,35.63h5.5Zm4.732,3.664c.066-.266-.109-.305-.228-.459-.4-.525-.914-.968-1.333-1.567-.313-.448-1.008-2.452-1.491-1.254a26.336,26.336,0,0,0-.765,3.281Zm20.3,0h3.129l.993-3.664-1.656.025a14.02,14.02,0,0,1-2.467,3.639m11.449-3.664h-5.5l-.916,3.664h5.5Zm.916,3.664h2.214c.49-.93.133-2.337.208-3.414l-.229-.229-1.181,0c-.141.025-.164.131-.22.238a20.344,20.344,0,0,0-.792,3.406M9.236,37.31H7.71v9.923H9.236Zm36.179,0H43.889v9.923h1.527ZM5.573,50.438h5.954L10.975,48.9l-4.847.03c-.27.087-.629,1.436-.555,1.506m36.179,0h5.954L47.154,48.9l-5.091.016Z" transform="translate(0 0)" fill="#fff"/>
          <path id="Trazado_1270697" data-name="Trazado 1270697" d="M136.313,98.526c1.053-1.454,2.949-3.236,4.428-1.146,2.229,3.152-3.2,7.339-3.978,10.068-.236.829-.245,3.75-.435,3.992a.669.669,0,0,1-.542.221l-9.747-.037c-.883-.265-.449-2.191-.6-2.913-.087-.422-.536-1.092-.685-1.6a37.7,37.7,0,0,1-.815-11.259c.123-1.841.678-2.994,2.755-2.817a2.151,2.151,0,0,1,1.67-2.223c.317-.079.93-.014,1.055-.091s.5-1.275,1.352-1.471c1.263-.29,2.789.376,2.8,1.794.988-.332,2.743.75,2.743,1.761Zm-7.022.992V92.648c0-.3-.916-.3-.916,0v7.022c0,.729-1.679.765-1.679.153V94.938c0-.286-.909-.506-1.059.468a41.473,41.473,0,0,0,.493,10.478,10.533,10.533,0,0,0,.712,1.883l8.075.049c.457-2.172,1.994-3.687,3.138-5.487.654-1.029,1.64-2.316,1.47-3.583-.043-.319-.224-.808-.616-.61-.87.618-2.26,3.3-3.058,3.669-.439.2-1.218-.153-1.218-.456v-8.4c0-.3-.916-.3-.916,0v6.717a.855.855,0,0,1-1.647.273l-.168-8.961-.79-.022-.175,8.678c-.245.848-1.486.631-1.647-.12m5.5,10h-7.633v.458h7.633Z" transform="translate(-104.941 -75.566)" fill="#fff"/>
        </g>
      </g>
    </g>
  </g>
</svg>
