<svg xmlns="http://www.w3.org/2000/svg" xmlns:xlink="http://www.w3.org/1999/xlink" width="162.25" height="162.25" viewBox="0 0 162.25 162.25">
  <defs>
    <clipPath id="clip-path">
      <rect id="Rectángulo_459119" data-name="Rectángulo 459119" width="84.136" height="93" fill="#6a2874"/>
    </clipPath>
  </defs>
  <g id="Grupo_1207093" data-name="Grupo 1207093" transform="translate(-305.146 -10012.459)">
    <g id="Grupo_1177470" data-name="Grupo 1177470" transform="translate(305.146 10012.421)">
      <circle id="Elipse_13609" data-name="Elipse 13609" cx="81.125" cy="81.125" r="81.125" transform="translate(0 0.038)" fill="#f6e1fe"/>
      <g id="Grupo_1207827" data-name="Grupo 1207827" transform="translate(35.635 35.96)">
        <g id="Grupo_1099618" data-name="Grupo 1099618" transform="translate(0.365 -2.922)">
          <rect id="Rectángulo_401104" data-name="Rectángulo 401104" width="90" height="90" transform="translate(0)" fill="none"/>
        </g>
        <g id="Grupo_1208949" data-name="Grupo 1208949" transform="translate(3.366 -3.922)">
          <g id="Grupo_1208948" data-name="Grupo 1208948" clip-path="url(#clip-path)">
            <path id="Trazado_1268047" data-name="Trazado 1268047" d="M8.5,26.515a1.547,1.547,0,0,1-2.87.394L5.5,15.088c-.153-.622-6.062-.972-4.142-3.532.35-.466,4.909-1.9,5.9-2.251C16.682,6.03,26.23,3.04,35.731,0c9.4,3.135,18.891,6.053,28.245,9.306.994.346,5.557,1.786,5.9,2.251a1.6,1.6,0,0,1-.214,2.037L56.973,18.022l.011,10.762c1.187.076,7.945.311,7.945,1.466v7.335H70.27a7,7,0,0,1,.817.805l.185,20.626a16.038,16.038,0,0,0,7.768,2.838c1.177.11,3.755-.275,4.607.25.908.56.3,7.061.148,8.391-1.047,8.99-4.682,16.124-12.48,21.19-1.658,1.077-2.028,1.885-4.009.8-6.04-3.306-11.377-10.043-12.524-16.744L.35,75.4,0,74.007.153,38.39a7,7,0,0,1,.817-.805H6.311V30.249c0-1.155,6.757-1.39,7.945-1.466l-.134-10.675L8.5,15.979Zm55.33-14.268L35.715,2.985,7.407,12.247l.674.541,27.4,9.079,27.673-9.079Zm-9.861,6.666L35.709,24.964,17.268,18.913v9.87a33.181,33.181,0,0,1,18.217,4.709c5.688-3.049,11.9-5.042,18.488-4.709Zm-20,52.815V36.118c-7-4.718-15.991-4.888-24.2-4.094l-.453.359V67.46A43.476,43.476,0,0,1,27.735,69.4c2.12.677,4.132,1.746,6.242,2.324M36.99,36.384V71.728c5.377-1.743,10.642-4.155,16.437-4.267.337-1.353-.816-4.463.384-5.36.932-.7,6.443.212,7.984-1.027l.136-.668L61.66,32.1c-8.315-.923-17.723-.759-24.67,4.285M6.311,40.519H3.024V72.8H27.951c.062-.388-.46-.349-.754-.463a40.48,40.48,0,0,0-15.008-2.215c-1.1.057-5.878,1.314-5.878-.389Zm61.9,0H64.929V59.725l3.287-1.867ZM81.091,64.791a21.974,21.974,0,0,1-12.42-3.69,21.19,21.19,0,0,1-12.235,3.69c-.388,10.1,3.023,19.723,12.241,25.042,9.348-5.172,12.56-15.018,12.414-25.042m-37.8,8H53.972l-.277-2.4c-.594-.6-8.427,1.459-9.651,1.934-.293.114-.816.075-.754.463" transform="translate(0 0.001)" fill="#6a2874"/>
            <path id="Trazado_1268048" data-name="Trazado 1268048" d="M44.6,179.077a27.7,27.7,0,0,1,13.3,2.36c1.339.646,3.4,1.49,2.862,3.241-.627,2.024-4.79-.95-6.1-1.418a26.381,26.381,0,0,0-9.59-1.325c-1.49.063-7.032,1.615-6.117-1.41.393-1.3,4.351-1.383,5.646-1.448" transform="translate(-28.208 -131.277)" fill="#6a2874"/>
            <path id="Trazado_1268049" data-name="Trazado 1268049" d="M39.209,209.33a1.551,1.551,0,0,1,.951-2.547,32.721,32.721,0,0,1,16.885,1.582c1.357.587,5.167,2.181,3.34,3.977-1.176,1.156-3.334-.775-4.672-1.347-4.21-1.8-7.821-1.7-12.336-1.613-1.016.019-3.353.744-4.169-.052" transform="translate(-28.176 -151.268)" fill="#6a2874"/>
            <path id="Trazado_1268050" data-name="Trazado 1268050" d="M43.364,151.875c4.966-.351,9.84,0,14.358,2.132,1.389.656,3.695,1.5,3.172,3.2-.692,2.252-4.286-.567-5.623-1.08-5.194-1.993-10.069-1.314-15.5-1.174-2.363-2.881,1.586-2.937,3.6-3.079" transform="translate(-28.344 -111.276)" fill="#6a2874"/>
            <path id="Trazado_1268051" data-name="Trazado 1268051" d="M152.864,179.025c2.1-.152,6.958-.062,8.9.512a1.477,1.477,0,0,1,.192,2.735c-.982.428-4.066-.331-5.339-.39a26.3,26.3,0,0,0-9.385,1.259c-1.384.476-5.423,3.252-6.226,1.675-.876-1.721,1.3-2.707,2.595-3.344a26.211,26.211,0,0,1,9.266-2.447" transform="translate(-102.234 -131.223)" fill="#6a2874"/>
            <path id="Trazado_1268052" data-name="Trazado 1268052" d="M152.13,151.829a43.351,43.351,0,0,1,5.408-.091c.983.049,4.395.294,4.913.815a1.566,1.566,0,0,1,.373.728c.5,2.7-3.495,1.432-5.012,1.391-3.953-.109-7.466-.016-11.177,1.408-1.473.565-4.664,3.16-5.535,1.265-.75-1.631,1.04-2.406,2.309-3.073a24.748,24.748,0,0,1,8.722-2.443" transform="translate(-102.321 -111.23)" fill="#6a2874"/>
            <path id="Trazado_1268053" data-name="Trazado 1268053" d="M162.411,209.286c-.822.8-3.148.071-4.167.053-4.909-.09-8.371-.128-12.936,1.829-1.173.5-2.966,2.312-4.072,1.13-1.771-1.895,1.9-3.362,3.34-3.976,4.422-1.888,12.218-2.683,16.885-1.582a1.607,1.607,0,0,1,.95,2.547" transform="translate(-102.206 -151.225)" fill="#6a2874"/>
            <path id="Trazado_1268054" data-name="Trazado 1268054" d="M235.765,256.411c2.16.1,5.7-.806,4.4,2.49-.506.783-3.452.323-4.405.443-.206,1.363.741,4.424-1.258,4.528-2.39.124-1.66-2.971-1.752-4.528-1.663-.143-4.242.686-4.637-1.467.388-2.27,2.9-1.27,4.637-1.465-.177-2.237-.208-6.116,3.012-3.869Z" transform="translate(-165.632 -184.682)" fill="#6a2874"/>
          </g>
        </g>
      </g>
    </g>
    <ellipse id="Elipse_13678" data-name="Elipse 13678" cx="19.243" cy="19.243" rx="19.243" ry="19.243" transform="translate(305.965 10136.186)" fill="#da9dfe"/>
    <g id="Grupo_1207826" data-name="Grupo 1207826" transform="translate(305.146 10138.641)">
      <path id="Trazado_998481" data-name="Trazado 998481" d="M0,13.854q4.835.419,9.664.868l-.27.112,1.389-2.491a.373.373,0,0,1,.426-.131.271.271,0,0,1,.2.185l0,.01,1.186,5.359L11.7,17.7l1.915-4.337,1.934-4.332,1.94-4.33L19.452.377A.822.822,0,0,1,20.394.03.578.578,0,0,1,20.9.6V.609l-.77,7.01-.812,7.007-.823,7.006-.854,7L16.044,28.4c1.235-2.953,2.506-5.9,3.765-8.845l1.893-4.42,1.917-4.414,0-.011a.7.7,0,0,1,.8-.305.505.505,0,0,1,.439.47l-.29,5.628-.314,5.627-.826-.118,2.776-5.324,0-.009a.291.291,0,0,1,.3-.125l5.25.671,5.247.689-5.291-.467-5.287-.485.3-.133-2.494,5.4a.472.472,0,0,1-.54.2.338.338,0,0,1-.286-.3v-.012l.079-5.631.1-5.631L24.836,11,23.051,15.45l-1.809,4.44c-1.209,2.959-2.407,5.921-3.64,8.874a.892.892,0,0,1-1.022.4c-.373-.087-.6-.356-.57-.635v0l.812-7.007.842-7,.854-7,.9-7,1.444.232-2.048,4.3-2.069,4.3-2.074,4.3-2.093,4.29-.005.011a.513.513,0,0,1-.588.2.382.382,0,0,1-.3-.278l-.924-5.388.624.063L9.86,14.986l0,.007a.273.273,0,0,1-.265.1q-4.8-.609-9.59-1.244" transform="translate(0 4.51) rotate(-7)" fill="#fff"/>
    </g>
  </g>
</svg>
