<svg xmlns="http://www.w3.org/2000/svg" xmlns:xlink="http://www.w3.org/1999/xlink" width="109.796" height="109.796" viewBox="0 0 109.796 109.796">
  <defs>
    <clipPath id="clip-path">
      <rect id="Rectángulo_459425" data-name="Rectángulo 459425" width="77.005" height="77.919" fill="#6a2874"/>
    </clipPath>
  </defs>
  <g id="Grupo_1209826" data-name="Grupo 1209826" transform="translate(-898.705 -3493.098)">
    <path id="Trazado_998483" data-name="Trazado 998483" d="M122.173,67.275a54.9,54.9,0,1,1-54.9-54.9,54.9,54.9,0,0,1,54.9,54.9" transform="translate(886.328 3480.721)" fill="#fff"/>
    <g id="Grupo_1209169" data-name="Grupo 1209169" transform="translate(914.711 3509.599)" clip-path="url(#clip-path)">
      <path id="Trazado_1269180" data-name="Trazado 1269180" d="M30.03,65.875V68.4H3.333c-.576,0-1.014,1.99-.8,2.521h27.5v2.521H2.53v47.437H35.072V85.812h2.521v39.531a5.354,5.354,0,0,1-1.716,2.409,6.308,6.308,0,0,1-2.515.693c-9.365.8-19.855-.612-29.339-.011-2.568-.258-3.8-1.705-4.021-4.229l0-54.33a5.533,5.533,0,0,1,.96-2.707,8.538,8.538,0,0,1,1.914-1.294ZM35.072,123.4H2.53c-.17,1.285.33,2.43,1.714,2.526,9.375-.65,19.88.847,29.12.006,1.775-.162,1.826-.869,1.708-2.532" transform="translate(0 -50.779)" fill="#6a2874"/>
      <path id="Trazado_1269181" data-name="Trazado 1269181" d="M184.311,38.843c-1-.762-5.887-6.35-6.484-6.473-.323-.066-.327-.052-.592.124-.975.646-2.071,2.359-3.085,3.113l6.764,6.765c.5.524-1.3,2.09-1.58,2.041l-6.939-6.822c-.763.166-1.367.75-2.2.612-1.108-.183-1.936-1.731-2.585-1.8-.543-.056-3.8,1.055-5.038,1.147-19.031,1.4-28.048-22.957-12.792-33.875,15.3-10.949,34.914,4.4,28.718,21.841,1.037,1.573,2.6,2.966.958,4.82l7.063,7.1-1.6,1.611ZM159.89,2.562a16.5,16.5,0,0,0-14.737,12.074C141.634,28.27,155.42,39.3,168.037,33.478l2.525,2,7.017-6.973c-.519-.678-2.023-1.636-2.035-2.515-.008-.571,1.058-2.993,1.249-4,1.939-10.282-6.3-20.159-16.9-19.421" transform="translate(-109.51 -0.001)" fill="#6a2874"/>
      <path id="Trazado_1269182" data-name="Trazado 1269182" d="M36.367,169.73c-4.438-4.418-8-11.413-8.53-17.71-.519-6.181.966-4.073,5.012-2.95a26.873,26.873,0,0,0,13.8.277c1.332-.316,3.427-1.4,4.442-1.531,1.835-.243,1.751,1.3,1.694,2.628a30.428,30.428,0,0,1-9.848,20.4c-.9.8-2.139,2.269-3.291,1.683a24.18,24.18,0,0,1-3.278-2.8m13.669-18.711a31.6,31.6,0,0,1-19.706,0,26.475,26.475,0,0,0,9.97,18.749c5.487-4.676,9.528-11.4,9.736-18.75" transform="translate(-21.381 -113.922)" fill="#6a2874"/>
      <path id="Trazado_1269183" data-name="Trazado 1269183" d="M177.284,21.931c16.15-1.521,20.789,22.059,5.5,26.81-19.568,6.08-25.4-24.936-5.5-26.81m0,2.517c-14.506,1.524-12.692,24.2,2.891,22.37,13.891-1.629,11.905-23.924-2.891-22.37" transform="translate(-127.134 -16.851)" fill="#6a2874"/>
      <path id="Trazado_1269184" data-name="Trazado 1269184" d="M72.834,207.875c.336.292-3.21,4.528-3.813,4.8-.582.1-3.568-4.038-3.979-4.8Z" transform="translate(-50.137 -160.237)" fill="#6a2874"/>
      <path id="Trazado_1269185" data-name="Trazado 1269185" d="M95.815,178.154l-3.541,2.1c-.3.036-1.247-1.505-1.249-1.732-.006-.641,2.889-2.2,3.539-2.627.319.416,1.51,1.82,1.251,2.26" transform="translate(-70.165 -135.585)" fill="#6a2874"/>
      <path id="Trazado_1269186" data-name="Trazado 1269186" d="M57.144,178.258,55.9,180.529,52.136,177.9,53.6,175.97Z" transform="translate(-40.189 -135.643)" fill="#6a2874"/>
      <path id="Trazado_1269187" data-name="Trazado 1269187" d="M218.084,49.875,216.118,58.6l-1.232-.024-1.843-8.7Z" transform="translate(-164.22 -38.445)" fill="#6a2874"/>
      <path id="Trazado_1269188" data-name="Trazado 1269188" d="M217.14,98.648c3.5-1.047,3.375,4.572.056,3.516-1.573-.5-1.416-3.109-.056-3.516" transform="translate(-166.552 -75.941)" fill="#6a2874"/>
    </g>
  </g>
</svg>
