<svg xmlns="http://www.w3.org/2000/svg" xmlns:xlink="http://www.w3.org/1999/xlink" width="162.25" height="162.25" viewBox="0 0 162.25 162.25">
  <defs>
    <clipPath id="clip-path">
      <rect id="Rectángulo_459435" data-name="Rectángulo 459435" width="88.289" height="82.944" fill="#6a2874"/>
    </clipPath>
  </defs>
  <g id="Grupo_1208376" data-name="Grupo 1208376" transform="translate(-305.146 -10012.459)">
    <g id="Grupo_1177470" data-name="Grupo 1177470" transform="translate(305.146 10012.421)">
      <circle id="Elipse_13609" data-name="Elipse 13609" cx="81.125" cy="81.125" r="81.125" transform="translate(0 0.038)" fill="#f6e1fe"/>
      <g id="Grupo_1207827" data-name="Grupo 1207827" transform="translate(35.635 35.96)">
        <g id="Grupo_1099618" data-name="Grupo 1099618" transform="translate(0.365 0.078)">
          <rect id="Rectángulo_401104" data-name="Rectángulo 401104" width="90" height="90" transform="translate(0)" fill="none"/>
        </g>
        <g id="Grupo_1209182" data-name="Grupo 1209182" transform="translate(1.365 4.078)">
          <g id="Grupo_1209181" data-name="Grupo 1209181" clip-path="url(#clip-path)">
            <path id="Trazado_1269227" data-name="Trazado 1269227" d="M88.289,82.944H85.3V73.026c0-2.912-4.318-6.6-7.23-6.628C58.593,70.17,39.246,75.233,19.75,79.209c-1.728.686-2.248,2.038-2.689,3.7l-2.95.036c.377-2.844,1.6-5.25,4.349-6.381,1.5-.616,3.2-.627,4.634-1.344L35.33,59.738c1.32-1.2,11.42-7.142,11.633-7.956.284-1.087-1.609-1.8-2.553-1.734-2.333.173-7.582,6.161-8.031,1.252-.568-6.208.463-13.26,0-19.561-.444-1.863-2.246-2.51-3.986-1.842a51.556,51.556,0,0,0-5.335,3.087,2.838,2.838,0,0,0-.868,1.578c-.477,7.531.357,15.207-.428,22.669L2.152,82.281C1.509,82.612.483,81.032,0,80.6l22.975-24.82c.3-1.132-6.941-10.371-6.946-11.824-.007-2.017,6.282-4,6.914-5.3.377-.775.042-3.013.2-4.143.6-4.164,4.234-4.943,7.289-6.9l-1.38-8.659c-.352-.889-1.506-1.225-2.173-1.9-1.949-1.984-3.478-6.485-.735-8.337C31.494,5.1,42.9.531,49.3.073,62.433-.866,75.278,7.257,76.343,21.118a201.51,201.51,0,0,1,0,23.117c-.19,3.241-1.358,7.224-1.38,10.327-.018,2.559,1.115,5.716,1.143,8.365l.4.417a11.3,11.3,0,0,1,10.573,6,16,16,0,0,1,1.211,3.408ZM73.57,41.87c-.514-11.262,2.7-24.419-6.332-33.113C59.974,1.766,49.714,1.918,40.671,5.03c-1.453.5-12.471,5.568-12.843,6.176-.968,1.583,1.613,4.462,3.135,5.023,3.175,1.172,8.945-1.285,10.585-.532,1.4.641,2.979,6.9,4.219,8.287.631.7,1.206-.476,1.914-.548,1.485-.151,2.8,2.914,3.388,4.077,1.736-1.081,4.888-1.036,6.924-.816a4.927,4.927,0,0,1,4.149,3.459c.181.887-.05,1.8.065,2.652.359,2.659.793,6.379,1.421,8.9,1.272,5.108,6.879,1.007,9.942.158M40.151,18.864l-7.837.769.935,6.811a7.649,7.649,0,0,1,5.177,2.635l5.03-2.93Zm-.772,13v17.39L55.146,39.6,47.525,26.97Zm18.884-2.174a35.664,35.664,0,0,0-4.891,0c-.165,0-.575.559-.295.833l4.239,7.047c.81.553,2.147-5.867,1.841-6.874a3.4,3.4,0,0,0-.894-1.006M73.071,45.448c-3.4.584-5.213,2.792-8.793,1.321-3.411-1.4-3.452-4.414-4.111-7.57a9.594,9.594,0,0,1-2.494,2.4c-3.051,2.093-6.762,3.731-9.743,6.017-.274.287-.236.329.045.568,1.352,1.153,2.245,1.758,1.943,3.853-.481,3.341-8.162,6.066-10.266,8.627,4.027.372,8.979-4.42,9.239,2.45l23.641-4.9c-1.215-4.219.5-8.482.54-12.766M23.076,49.523V42.186c-.586.584-3.249,1.58-3.264,2.3ZM73.346,64.194c-.255-.636-.091-2.814-.7-2.963L50,66.254l.949,3.109ZM45.9,62.564c-3.144.629-6.115,1.921-9.243.4L27.969,74.247,47.8,70.172Z" transform="translate(0 0)" fill="#6a2874"/>
            <path id="Trazado_1269228" data-name="Trazado 1269228" d="M21.941,152.306c.219.308-.791,2.7-1.464,2.7l-8.58-4.225c.317-.7.646-1.575,1.023-2.227.14-.243-.041-.412.462-.345Z" transform="translate(-8.664 -107.925)" fill="#6a2874"/>
            <path id="Trazado_1269229" data-name="Trazado 1269229" d="M22.029,210.934l-8.558,4.1c-.593.079-1.008-1.912-1.453-2.341l8.546-4.462c.648-.009,1.694,2.382,1.465,2.7" transform="translate(-8.752 -151.651)" fill="#6a2874"/>
            <rect id="Rectángulo_459434" data-name="Rectángulo 459434" width="8.967" height="2.989" transform="translate(3.785 50.338)" fill="#6a2874"/>
          </g>
        </g>
      </g>
    </g>
    <ellipse id="Elipse_13678" data-name="Elipse 13678" cx="19.243" cy="19.243" rx="19.243" ry="19.243" transform="translate(305.965 10136.186)" fill="#da9dfe"/>
    <g id="Grupo_1207826" data-name="Grupo 1207826" transform="translate(305.146 10138.641)">
      <path id="Trazado_998481" data-name="Trazado 998481" d="M0,13.854q4.835.419,9.664.868l-.27.112,1.389-2.491a.373.373,0,0,1,.426-.131.271.271,0,0,1,.2.185l0,.01,1.186,5.359L11.7,17.7l1.915-4.337,1.934-4.332,1.94-4.33L19.452.377A.822.822,0,0,1,20.394.03.578.578,0,0,1,20.9.6V.609l-.77,7.01-.812,7.007-.823,7.006-.854,7L16.044,28.4c1.235-2.953,2.506-5.9,3.765-8.845l1.893-4.42,1.917-4.414,0-.011a.7.7,0,0,1,.8-.305.505.505,0,0,1,.439.47l-.29,5.628-.314,5.627-.826-.118,2.776-5.324,0-.009a.291.291,0,0,1,.3-.125l5.25.671,5.247.689-5.291-.467-5.287-.485.3-.133-2.494,5.4a.472.472,0,0,1-.54.2.338.338,0,0,1-.286-.3v-.012l.079-5.631.1-5.631L24.836,11,23.051,15.45l-1.809,4.44c-1.209,2.959-2.407,5.921-3.64,8.874a.892.892,0,0,1-1.022.4c-.373-.087-.6-.356-.57-.635v0l.812-7.007.842-7,.854-7,.9-7,1.444.232-2.048,4.3-2.069,4.3-2.074,4.3-2.093,4.29-.005.011a.513.513,0,0,1-.588.2.382.382,0,0,1-.3-.278l-.924-5.388.624.063L9.86,14.986l0,.007a.273.273,0,0,1-.265.1q-4.8-.609-9.59-1.244" transform="translate(0 4.51) rotate(-7)" fill="#fff"/>
    </g>
  </g>
</svg>
