<svg xmlns="http://www.w3.org/2000/svg" xmlns:xlink="http://www.w3.org/1999/xlink" width="96" height="96" viewBox="0 0 96 96">
  <defs>
    <clipPath id="clip-path">
      <rect id="Rectángulo_455595" data-name="Rectángulo 455595" width="96" height="96" fill="none"/>
    </clipPath>
    <clipPath id="clip-path-2">
      <rect id="Rectángulo_459572" data-name="Rectángulo 459572" width="52.348" height="53.696" fill="#fff"/>
    </clipPath>
  </defs>
  <g id="Grupo_1208624" data-name="Grupo 1208624" transform="translate(-735.746 -9118)">
    <g id="Grupo_1180407" data-name="Grupo 1180407" transform="translate(735.746 9117.971)">
      <g id="Grupo_1179172" data-name="Grupo 1179172" transform="translate(0 0.03)" clip-path="url(#clip-path)">
        <path id="Trazado_998483" data-name="Trazado 998483" d="M92.627,52.5A40.125,40.125,0,1,1,52.5,12.377,40.125,40.125,0,0,1,92.627,52.5" transform="translate(-4.488 -4.517)" fill="#8d1939"/>
        <path id="Trazado_998485" data-name="Trazado 998485" d="M90.973,46.487A44.486,44.486,0,1,1,46.487,2,44.486,44.486,0,0,1,90.973,46.487Z" transform="translate(1.527 1.499)" fill="none" stroke="#8d1939" stroke-miterlimit="10" stroke-width="4"/>
      </g>
    </g>
    <g id="Grupo_1180408" data-name="Grupo 1180408" transform="translate(755.746 9137)">
      <g id="Grupo_1099618" data-name="Grupo 1099618" transform="translate(0 -0.168)">
        <rect id="Rectángulo_401104" data-name="Rectángulo 401104" width="56.349" height="57.028" transform="translate(0)" fill="none"/>
      </g>
      <g id="Grupo_1209417" data-name="Grupo 1209417" transform="translate(2 1.832)">
        <g id="Grupo_1209416" data-name="Grupo 1209416" clip-path="url(#clip-path-2)">
          <path id="Trazado_1270104" data-name="Trazado 1270104" d="M17.11,2.034A3.064,3.064,0,0,1,21.527.465l9.731,9.412c-.293-1.714-1.645-3.837-1.811-5.5C29.115,1.058,33.925-.42,35.485,2.96,37.5,7.334,38.6,12.785,40.521,17.3c.3.7,2.138,4.241,2.679,4.4.4.119,1.24-.587,2.573.032,1.6.743,1.694,2.469,1.241,3.977L52.3,31.053a.912.912,0,0,1-1.2,1.2l-5.44-5.292-8.411,8.365-.077.388,5.053,5.111c.405,1.147-.39,1.916-1.433,1.12-1.678-1.279-3.243-3.554-4.923-4.929-.533-.239-1.855.832-3.3-.226a2.738,2.738,0,0,1-1-3.227l-3.691-1.077a19.6,19.6,0,0,0,1.1,7.821,2.766,2.766,0,0,1,2.961,3.849c-.179.4-.712.722-.655,1.131l3.491,7.3a.913.913,0,0,1-1.645.709l-3.406-7.283L18.5,51.244c1.717,2.433-.813,3.609-1.546.768a2.756,2.756,0,0,1-2.915-4.374,22.577,22.577,0,0,1-6.675-6.865C4.6,36.16,2.7,30.622.116,25.874a3.171,3.171,0,0,1,2.849-4.158c.111-.123-1.112-2.3-1.193-2.726A3.147,3.147,0,0,1,4.81,15.1c-2.874-4.973,4.442-7.7,5.845-2.152l1.225-.845c-2.345-1.747-2.642-4.724.154-6.151-3.5-2.371-.242-7.624,3.284-5.434.342.213,1.553,1.688,1.791,1.512m4.615,23.22v-5.92c0-.422.867-1.431,1.226-1.7a3.125,3.125,0,0,1,4.925,2.156l-.01,10.591a21.235,21.235,0,0,0,4.745,1.6c.167.005.291.033.419-.112l8.827-8.988a18.482,18.482,0,0,1-2.986-4.867c-1.779-4.192-2.98-8.929-4.622-13.215A6.259,6.259,0,0,0,33.558,3.2a1.363,1.363,0,0,0-2.306.913l3.136,9.177c.134.984-.706,1.332-1.524.9L20.706,2.054c-1.914-.637-2.7.847-1.445,2.367C21.167,6.736,23.967,8.8,25.95,11.11a.887.887,0,0,1-1.461,1L14.575,2.188A1.34,1.34,0,0,0,12.6,3.995L22.931,14.45a1.075,1.075,0,0,1-.437,1.042,1.026,1.026,0,0,1-1.07-.163L13.771,7.76a1.323,1.323,0,0,0-1.737,1.891c.709,1.139,2.853,2.447,3.666,3.56,1.76,2.409,3.853,7.932,5.278,10.868a2.741,2.741,0,0,0,.747,1.175M14.148,14.071c-1.107-.777-2.462-.188-2.258,1.253l4.226,8.849c.429,1.153-.5,1.867-1.449,1.143L8.478,12.438a1.34,1.34,0,0,0-2.529.827l6.122,12.8c.542,1.122-.656,2.041-1.488,1.028-1.7-2.793-2.765-6.644-4.512-9.327-.912-1.4-2.383-1-2.565.587l4.615,9.818,0,.93a.967.967,0,0,1-1.471.081c-.68-.938-2.045-4.989-2.855-5.448A1.382,1.382,0,0,0,1.726,24.87a14.31,14.31,0,0,0,.953,2.284A141.32,141.32,0,0,0,8.9,39.85,17.538,17.538,0,0,0,15.8,46.465L27.273,41c-1.644-4.468-1-9.3-1.082-13.982-.039-2.211.049-4.727-.153-6.92-.162-1.759-2.43-1.8-2.627.309-.144,1.545.3,8.834-.136,9.514a1.119,1.119,0,0,1-1.206.154ZM44.13,23.287,33.4,33.934c-.681,1.181.589,2.071,1.553,1.245l10.3-10.308c.739-.885-.01-1.92-1.121-1.583M29.222,42.041l-13.293,6.4c-1.27.637-.636,2.256.726,1.8l13.272-6.41a.99.99,0,0,0-.706-1.8" transform="translate(0 0)" fill="#fff"/>
          <path id="Trazado_1270105" data-name="Trazado 1270105" d="M66.063,242.111a16.675,16.675,0,0,1-3.331-4.746.886.886,0,0,1,1.435-.964,31.7,31.7,0,0,0,2.3,3.544c.584.692,2.942,2.493,3.111,2.894.33.784-.357,1.339-1.161,1.156a11.414,11.414,0,0,1-2.353-1.884" transform="translate(-53.039 -199.856)" fill="#fff"/>
        </g>
      </g>
    </g>
  </g>
</svg>
