<svg xmlns="http://www.w3.org/2000/svg" xmlns:xlink="http://www.w3.org/1999/xlink" width="85" height="85" viewBox="0 0 85 85">
  <defs>
    <clipPath id="clip-path">
      <rect id="Rectángulo_459467" data-name="Rectángulo 459467" width="70.249" height="72.693" fill="#8d1939"/>
    </clipPath>
  </defs>
  <g id="Grupo_1208370" data-name="Grupo 1208370" transform="translate(-706.342 -410.359)">
    <path id="Sustracción_110" data-name="Sustracción 110" d="M15975.961,19829.512h85v85h-85Z" transform="translate(-15269.619 -19419.152)" fill="#ffe19a"/>
    <g id="Grupo_1209233" data-name="Grupo 1209233" transform="translate(713.342 416.361)">
      <g id="Grupo_1209232" data-name="Grupo 1209232" clip-path="url(#clip-path)">
        <path id="Trazado_1269404" data-name="Trazado 1269404" d="M208.849,177.155c1.465-1.417,3.866-3.619,6.08-3.422,1.947.173.492,2.485.367,3.553-.341,2.918,1.5,5.811,2.021,8.639,1.377,7.473-5.081,13.864-12.244,14.548-14.069,1.343-20.442-10.509-16.575-23,.319-1.031,1.265-4.154,2.466-4.156,1.875.408.931,2.2.961,3.509.042,1.809.992,5.49,3.433,4.722,1.263-1.61-.417-3.346-.627-4.946-.846-6.424,5.592-13.516,12.068-12.495,2.406.379-.117,3.083-.462,4.22-1.118,3.685,1.388,5.633,2.513,8.827m-4.5-10.492c-4.166.908-7.769,4.9-7.281,9.316.169,1.535,1.146,2.7,1.086,4.5-.126,3.792-4.432,4.73-6.657,1.931l-1.278-2.037a16.767,16.767,0,0,0,1.749,12.489,17.3,17.3,0,0,0,2.642,2.927c.7.3-.286-1.5-.357-1.786a9.9,9.9,0,0,1,.139-5.708c.3-1.029.932-2.848,2.32-1.943.477.311.792,2.327,1.64,2.586-.233-2.53,1.507-4.9,3.578-6.168.693-.426,3.169-1.636,3.86-1.383,1.826.67.2,2.319.059,3.588a9.89,9.89,0,0,0,.432,3.962c.327.316,1.053-1.163,1.116-1.344.538-1.55.158-4.911,2.954-2.407,2.645,2.369,2.9,6.648,1.5,9.748a9.5,9.5,0,0,0,3.061-4.754c1.185-4.647-2.514-8.754-1.994-13.449a7.183,7.183,0,0,0-2.227,2.161c-.887,1.315-1.163,4.1-2.793,3.835-1.218-.2-.666-2.39-.778-3.3-.342-2.791-2.971-5.207-3.354-8a11.457,11.457,0,0,1,.586-4.762m5.144,21.63c-.078.074-.635,1.446-.986,1.908-2.309,3.044-3.536,2.442-4.525-1.006a18.828,18.828,0,0,1-.595-4.542,4.822,4.822,0,0,0-2.679,5.247c.09.9.881,1.776-.008,2.559-1.119.985-2.989-1.022-3.845-1.7-.23-.184-.264-.478-.539-.11a6.8,6.8,0,0,0,9.828,6.83c3.112-1.446,5.316-5.59,3.795-8.881-.087-.187-.078-.65-.445-.3" transform="translate(-147.254 -128.884)" fill="#8d1939"/>
        <path id="Trazado_1269405" data-name="Trazado 1269405" d="M26.846,99.334c10.426-1.34,13.248,13.231,18.351,19.659.612,1.315-.841,2.625-1.9,1.477-3.008-4.761-5.479-10.119-8.511-14.831-3.387-5.264-9.506-5.485-12.981-.213-5.468,10.681-12.923,20.963-18.282,31.617-2.537,5.043-.6,9.787,4.873,11.262L45,148.319c1.384.089,1.827,1.38.746,2.253l-37.165.114a9.7,9.7,0,0,1-7.815-13.4L20.51,103.064a10.2,10.2,0,0,1,6.336-3.73" transform="translate(0 -77.993)" fill="#8d1939"/>
        <path id="Trazado_1269406" data-name="Trazado 1269406" d="M57.686,160.7a1.322,1.322,0,0,1-1.122,2.095c-9.951-.594-20.791.776-30.636,0a5.671,5.671,0,0,1-4.921-3c-1.139-2.408-.386-3.8.716-5.929,5.744-11.1,12.877-21.7,19.09-32.523a5.335,5.335,0,0,1,7.5.656c2.637,4.739,5.964,9.489,8.395,14.306.723,1.433,1.629,3.054-.891,2.82-3.472-5.041-6.157-10.648-9.425-15.847a3.026,3.026,0,0,0-4.677.678L23.3,155.869c-1.283,2.187.222,4.441,2.64,4.563,9.9.637,20.852-.839,30.632-.006.334.028.877.036,1.116.274" transform="translate(-16.063 -94.388)" fill="#8d1939"/>
        <path id="Trazado_1269407" data-name="Trazado 1269407" d="M188.3,21.715a1.389,1.389,0,0,1-.582-1.869c4.157-5.943,7.456-12.918,11.607-18.8.915-1.3,2.043-1.557,2.467.212l-1.154,11.872c.481.568,6.943,0,8.216.241.716.134.851.717.753,1.371L194.137,35.692c-1.034.492-1.773-.06-1.765-1.155l3.742-12.821Zm17.668-6h-5.889c-.615,0-1.956-.4-2.04-1.19l.756-8.018-7.818,12.849h7.174c.664,0,.78,1.061.736,1.577-.187,2.179-1.872,4.918-2.022,7.2Z" transform="translate(-147.372 0)" fill="#8d1939"/>
        <path id="Trazado_1269408" data-name="Trazado 1269408" d="M119.186,185.786l1.911.762c3.493,2.779-.29,8.2-4.044,5.757-2.808-1.829-1.484-6.574,1.916-6.31l-1.7-.763c-1.871-1.3-1.2-3.813-1.291-5.776-.158-3.239-.414-6.527-.386-9.791.59-3.5,6.412-3.365,6.807-.057-.4,4.325.265,9.686-.484,13.876a2.883,2.883,0,0,1-2.733,2.3m-.624-2.379c.38.08.881.092,1.02-.331.156-4.445.606-8.928.365-13.368l-1.8-.17c-.6,1.143-.049,2.378-.022,3.494.074,3.075-.081,6.391.2,9.434a3.575,3.575,0,0,0,.234.94m-.4,6.823a1.155,1.155,0,0,0,1.682-1.576c-.9-1.136-2.812.445-1.682,1.576" transform="translate(-90.787 -131.302)" fill="#8d1939"/>
        <path id="Trazado_1269409" data-name="Trazado 1269409" d="M290.3,171.895c-.21.258-.8.321-.962.855-.183.618.026,1.524-.1,2.26-.212,1.295-2.032,3.668-3.363,2.608-1.416-1.128.7-2,.962-2.866.4-1.3-.364-2.437.735-3.762,1.811-2.184,3.906-.549,2.723.905" transform="translate(-224.276 -133.536)" fill="#8d1939"/>
      </g>
    </g>
  </g>
</svg>
