<svg xmlns="http://www.w3.org/2000/svg" xmlns:xlink="http://www.w3.org/1999/xlink" width="187.711" height="152.207" viewBox="0 0 187.711 152.207">
  <defs>
    <clipPath id="clip-path">
      <rect id="Rectángulo_459436" data-name="Rectángulo 459436" width="112.624" height="121" fill="none"/>
    </clipPath>
  </defs>
  <g id="Grupo_1209185" data-name="Grupo 1209185" transform="translate(-289.711 -4973)">
    <g id="Grupo_1208377" data-name="Grupo 1208377" transform="translate(0.434 -3895.039)">
      <g id="Grupo_1204518" data-name="Grupo 1204518" transform="translate(289.277 8868.039)">
        <rect id="Rectángulo_455283" data-name="Rectángulo 455283" width="187.711" height="152.207" rx="19" fill="#e9c3ff"/>
      </g>
    </g>
    <g id="Grupo_1209184" data-name="Grupo 1209184" transform="translate(327.711 4988)">
      <g id="Grupo_1209183" data-name="Grupo 1209183" clip-path="url(#clip-path)">
        <path id="Trazado_1269230" data-name="Trazado 1269230" d="M58.735,127.394c.027-1.525-.8-2.193-2.27-2.4-7.506-1.043-17.265.888-24.875-.014-4.322-.513-3.313-6.257-3.125-9.364,2.363-.459,3.678-.274,5.734-1.871,6.422-4.985,1.9-14.627-5.887-14.008V90.057c11.818.43,11.768-16.244,0-15.555V64.477c11.75.717,11.832-16.042,0-15.555V39.239c6.273.449,11.061-5.868,8.024-11.65a10.2,10.2,0,0,0-4.555-3.742c-1.05-.262-3.124.168-3.419-.73a31.264,31.264,0,0,1,.034-6.092,3.679,3.679,0,0,1,3.532-3.037l72.528.1a3.739,3.739,0,0,1,2.35,3.526l0,57.711c-2.836.823-4.143,2.41-5.7,4.734-3.674,5.5-10.188,16.254-12.776,22.14-1.605,3.651-1.57,7.6,1.377,10.635.966.993,4.2,2.8,5.494,2.8h11.581v6.741c0,.662-1.717,2.553-2.61,2.575-8.445.726-18.342-.908-26.609.008-1.655.184-2.557.712-2.585,2.429H69.106c.062-3.511-4.756-2.807-4.84,0ZM68,20.677a29.326,29.326,0,0,0-25.6,37.15C48.73,80.3,77.906,86.426,92.949,68.442c16.5-19.731.545-49.967-24.95-47.766" transform="translate(-18.468 -9.151)" fill="#ff9ebf"/>
        <path id="Trazado_1269231" data-name="Trazado 1269231" d="M40.267,118.243a2.121,2.121,0,0,1-1.923,2.4c-8.151-.487-17.183.724-25.226.034-8.022-.688-8.53-8.042-8.11-14.533-1.856-.052-4.634.647-4.871-1.894-.372-4,4.767-2.066,4.876-2.8l0-6.025c-6.831,1.176-6.418-5.792,0-4.836V80.906c-6.57,1.092-6.673-6,0-4.838V69.845c-6.666,1.261-6.683-5.753,0-4.492V55.324c-6.677,1.264-6.677-5.754,0-4.491V44.607c-6.647,1.183-6.6-5.959,0-4.836V30.088c-6.418.956-6.831-6.012,0-4.836l0-6.025c-.109-.731-5.248,1.2-4.876-2.8.237-2.541,3.015-1.842,4.871-1.894C4.586,8.031,5.1.69,13.117,0L85.395,0a8.626,8.626,0,0,1,7.76,7.8l-.01,58.36a12.583,12.583,0,0,1,5,3.712c3.828,7.613,9.32,14.978,13.046,22.561,1.718,3.5,2.179,6.9-.261,10.228-1.261,1.719-4.4,3.832-6.539,3.832H93.159v7.087c0,3.015-4.194,6.656-7.117,7.056-8.238,1.13-18.8-.787-27.288.038-1.648-.207-2.266-.776-2.239-2.428.028-1.717.93-2.246,2.585-2.429,8.267-.916,18.164.718,26.609-.008.893-.023,2.61-1.913,2.61-2.575V106.49H76.738c-1.293,0-4.528-1.81-5.494-2.8-2.947-3.032-2.982-6.985-1.377-10.635,2.588-5.886,9.1-16.642,12.776-22.14,1.554-2.325,2.86-3.912,5.7-4.734l0-57.711a3.739,3.739,0,0,0-2.35-3.526l-72.528-.1A3.679,3.679,0,0,0,9.927,7.874a31.237,31.237,0,0,0-.034,6.092c.294.9,2.369.468,3.419.729a10.205,10.205,0,0,1,4.555,3.742c3.037,5.782-1.75,12.1-8.024,11.65v9.683c11.833-.487,11.752,16.271,0,15.555V65.351c11.766-.689,11.816,15.984,0,15.555v9.683c7.791-.618,12.309,9.023,5.887,14.008-2.057,1.6-3.372,1.412-5.734,1.871-.188,3.107-1.2,8.851,3.125,9.363,7.61.9,17.369-1.029,24.875.014,1.47.2,2.3.874,2.27,2.4M9.845,25.25c5.507.47,5.589-6.6,0-6.223Zm0,25.582c5.594.309,5.485-6.8,0-6.223Zm0,25.236c5.485.573,5.594-6.531,0-6.223Zm79.41-5.112A4.572,4.572,0,0,0,87,72.846c-4.77,6.319-8.156,15.769-12.914,22.347a4.3,4.3,0,0,0,3.337,6.464c8.436-.63,18,.81,26.3.009a4.552,4.552,0,0,0,3.426-1.76c1.558-2.23.589-3.657-.446-5.748-3.675-7.425-8.931-14.7-12.853-22.063-.975-1.37-3.075-1.487-4.592-1.14M9.845,101.65c5.589.379,5.507-6.693,0-6.223Z" transform="translate(0)" fill="#050303"/>
        <path id="Trazado_1269232" data-name="Trazado 1269232" d="M132.478,337.542c.084-2.807,4.9-3.511,4.84,0-.066,3.786-4.917,2.592-4.84,0" transform="translate(-86.68 -219.299)" fill="#050303"/>
        <path id="Trazado_1269233" data-name="Trazado 1269233" d="M92.724,33.124c25.494-2.2,41.455,28.035,24.95,47.766C102.63,98.873,73.454,92.752,67.121,70.274a29.327,29.327,0,0,1,25.6-37.15m-.348,4.838c-16.724,1.722-26.552,20.126-19.125,35.17,8.575,17.37,33.543,18.183,43.109,1.259A24.465,24.465,0,0,0,92.376,37.961" transform="translate(-43.192 -21.598)" fill="#050303"/>
        <path id="Trazado_1269234" data-name="Trazado 1269234" d="M228.315,204.939c1.517-.347,3.617-.231,4.592,1.14,3.922,7.36,9.178,14.638,12.853,22.063,1.035,2.091,2,3.518.446,5.748a4.552,4.552,0,0,1-3.426,1.76c-8.3.8-17.863-.639-26.3-.009a4.3,4.3,0,0,1-3.337-6.464c4.759-6.578,8.144-16.029,12.914-22.347a4.576,4.576,0,0,1,2.257-1.89m3.124,6.586a2.547,2.547,0,0,0-4.038,1.487,49.186,49.186,0,0,0,.052,8.547,2.4,2.4,0,0,0,4.745-.292c.248-1.589.272-8.776-.759-9.741M229.362,226.7c-3.082.563-2.286,5.058.575,4.788,3.364-.318,2.588-5.367-.575-4.788" transform="translate(-139.059 -133.983)" fill="#eabb5d"/>
        <path id="Trazado_1269235" data-name="Trazado 1269235" d="M28.48,61.235V55.012c5.589-.379,5.507,6.693,0,6.223" transform="translate(-18.634 -35.985)" fill="#fd7d95"/>
        <path id="Trazado_1269236" data-name="Trazado 1269236" d="M28.48,135.2v-6.223c5.485-.573,5.594,6.531,0,6.223" transform="translate(-18.634 -84.368)" fill="#fd7d95"/>
        <path id="Trazado_1269237" data-name="Trazado 1269237" d="M28.48,208.244v-6.223c5.594-.309,5.485,6.8,0,6.223" transform="translate(-18.634 -132.176)" fill="#fd7d95"/>
        <path id="Trazado_1269238" data-name="Trazado 1269238" d="M28.48,282.22V276c5.507-.47,5.589,6.6,0,6.223" transform="translate(-18.634 -180.57)" fill="#fd7d95"/>
        <path id="Trazado_1269239" data-name="Trazado 1269239" d="M101.322,47.069A24.465,24.465,0,0,1,125.306,83.5c-9.566,16.923-34.534,16.11-43.109-1.259-7.427-15.044,2.4-33.448,19.125-35.17m-12.568,27.7c-1.672,2.063-2.687,3.332-1.78,6.155.637,1.983,5.43,6.8,7.413,7.451,7.346,2.426,17.827-7.323,22.017-12.74,5.555-7.182,7.945-13.439-.14-19.853-3.328-2.639-5.211-2.5-8.5-.016-2.47,1.863-6.768,6.315-3.433,9.187.674.581,2.177.692,1.867,1.833a74.9,74.9,0,0,1-6.338,6.475c-1.613,1.052-1.2-.5-1.97-1.524-2.8-3.693-7.209.659-9.131,3.031" transform="translate(-52.138 -30.706)" fill="#ffe19a"/>
        <path id="Trazado_1269240" data-name="Trazado 1269240" d="M259.279,223.283c1.031.965,1.007,8.153.759,9.741a2.4,2.4,0,0,1-4.746.292,49.186,49.186,0,0,1-.052-8.547,2.547,2.547,0,0,1,4.038-1.487" transform="translate(-166.899 -145.741)" fill="#050303"/>
        <path id="Trazado_1269241" data-name="Trazado 1269241" d="M257.489,268.1c3.162-.578,3.939,4.471.575,4.788-2.86.27-3.656-4.225-.575-4.788" transform="translate(-167.186 -175.391)" fill="#050303"/>
        <path id="Trazado_1269242" data-name="Trazado 1269242" d="M101.906,87.863c1.922-2.372,6.336-6.725,9.132-3.031.772,1.02.357,2.575,1.97,1.523a74.894,74.894,0,0,0,6.337-6.476c.311-1.14-1.193-1.252-1.867-1.833-3.335-2.873.963-7.324,3.433-9.187,3.293-2.484,5.176-2.623,8.5.017,8.085,6.413,5.7,12.671.14,19.853-4.19,5.416-14.67,15.166-22.017,12.74-1.982-.655-6.775-5.468-7.413-7.452-.907-2.823.108-4.091,1.78-6.155m19.9-12.594c2.508.97,2.929,4.286,1.9,6.577-.4.883-7.1,7.775-8.112,8.482a5.522,5.522,0,0,1-6.212.3c-.575-.346-1.3-1.606-1.88-1.5-.464.081-3.26,2.827-2.824,3.771a47.482,47.482,0,0,0,3.858,3.766c2.744,1.415,6.856-1.3,9.087-2.924,3.659-2.668,12.706-11.86,12.362-16.52-.081-1.094-4.1-5.415-4.9-5.415-.613,0-3.581,3.041-3.282,3.463" transform="translate(-65.29 -43.803)" fill="#050303"/>
        <path id="Trazado_1269243" data-name="Trazado 1269243" d="M130.986,84.468c-.3-.421,2.669-3.463,3.282-3.463.8,0,4.818,4.321,4.9,5.415.344,4.659-8.7,13.851-12.362,16.52-2.232,1.628-6.343,4.339-9.087,2.924a47.484,47.484,0,0,1-3.858-3.766c-.436-.943,2.36-3.689,2.824-3.771.578-.1,1.305,1.158,1.88,1.5a5.522,5.522,0,0,0,6.212-.3c1.007-.708,7.716-7.6,8.112-8.482,1.027-2.291.605-5.607-1.9-6.577" transform="translate(-74.469 -53.002)" fill="#8d1939"/>
      </g>
    </g>
  </g>
</svg>
