<svg xmlns="http://www.w3.org/2000/svg" xmlns:xlink="http://www.w3.org/1999/xlink" width="96" height="96" viewBox="0 0 96 96">
  <defs>
    <clipPath id="clip-path">
      <rect id="Rectángulo_455595" data-name="Rectángulo 455595" width="96" height="96" fill="none"/>
    </clipPath>
    <clipPath id="clip-path-2">
      <rect id="Rectángulo_459114" data-name="Rectángulo 459114" width="45.996" height="57.027" fill="#fff"/>
    </clipPath>
  </defs>
  <g id="Grupo_1180557" data-name="Grupo 1180557" transform="translate(-735.746 -9118)">
    <g id="Grupo_1180407" data-name="Grupo 1180407" transform="translate(735.746 9117.971)">
      <g id="Grupo_1179172" data-name="Grupo 1179172" transform="translate(0 0.03)" clip-path="url(#clip-path)">
        <path id="Trazado_998483" data-name="Trazado 998483" d="M92.562,52.469A40.092,40.092,0,1,1,52.469,12.377,40.093,40.093,0,0,1,92.562,52.469" transform="translate(-4.455 -4.484)" fill="#8d1939"/>
        <path id="Trazado_998485" data-name="Trazado 998485" d="M90.9,46.451A44.45,44.45,0,1,1,46.451,2,44.45,44.45,0,0,1,90.9,46.451Z" transform="translate(1.564 1.535)" fill="none" stroke="#8d1939" stroke-miterlimit="10" stroke-width="4"/>
      </g>
    </g>
    <g id="Grupo_1180408" data-name="Grupo 1180408" transform="translate(755.746 9137)">
      <g id="Grupo_1099618" data-name="Grupo 1099618" transform="translate(-0.035 0)">
        <rect id="Rectángulo_401104" data-name="Rectángulo 401104" width="56.349" height="57.028" transform="translate(0)" fill="none"/>
      </g>
      <g id="Grupo_1208939" data-name="Grupo 1208939" transform="translate(4.965 0)">
        <g id="Grupo_1208938" data-name="Grupo 1208938" clip-path="url(#clip-path-2)">
          <path id="Trazado_1268027" data-name="Trazado 1268027" d="M11.034,5.14a4.006,4.006,0,0,1,2.037-2.213,4.14,4.14,0,0,1,3.192.17,3.452,3.452,0,0,1,6.867,0c2.1-.848,4.443-.207,5.067,2.124,2.116-1.213,5.2-.168,5.541,2.384.49,3.629.222,7.867.506,11.588.273,3.581,1.06,7.123,1.3,10.708l8.874.033c1.744.394,1.591,4.055,1.38,5.4-.134.854-.506,1.115-1.1,1.678a1.937,1.937,0,0,1,1.139,1.8,63.723,63.723,0,0,1,.008,8.666c-.088,1.136-.321,2.055-1.532,2.391-.746.207-3.762.359-4.205-.259a.912.912,0,0,1,.747-1.4h3.187l0-9.395c-.127-.646-1.313-.748-1.314-1.8,0-.858,1.316-1.627,1.316-1.8V31.535H35.713a33.412,33.412,0,0,1-.566,7.524c-.314,1.613-1.194,3.667-1.381,5.156-.157,1.249.087,2.716-.014,3.991H37.1c1.218,0,1.06,1.8.163,1.8H33.752c-.158,1.058.293,6.327-.2,6.824a1.088,1.088,0,0,1-1.23,0c-.483-.485-.04-4.122-.22-5.009L16.918,49.513v7.11a.892.892,0,0,1-1.63-.331L15.2,46.248,6.227,37.4l-6.1-10.9a3.652,3.652,0,0,1,1.878-4.246c3.616-1.622,6.053,3.368,8.537,5.27.165.126.206.315.491.244V17.725c0-.528,1.634-.467,1.634.327v3.841l20.1-.818L32.006,7.7a1.874,1.874,0,0,0-3.079-.852,3.594,3.594,0,0,0-.568,1.066V18.542c0,.533-1.634.533-1.634,0V5.794a4,4,0,0,0-.733-1.065,1.791,1.791,0,0,0-2.039-.073,3.527,3.527,0,0,0-.824,1.138V18.542c0,.533-1.634.533-1.634,0V3.179a3.817,3.817,0,0,0-.614-1.066,1.78,1.78,0,0,0-2.944.94l-.189,14.684c-.477.5-1.3.563-1.443-.207L16.265,6.283a1.863,1.863,0,0,0-3.523-.907l-.083,9.233c-.2,1.285-1.624.848-1.624.5Zm1.634,18.387v4.495l8.1,3.676c.919.06,3.364-1.785,4.444-1.93,1-.135,1.3.746.739,1.45l-15.9,7.591,5.659,5.459L34,33.986a24.223,24.223,0,0,0-.41-6.373l-4.7,2.26c-.82.147-1.13-.425-1-1.165.2-.683,4.69-2.231,5.462-2.893l-.443-3.083Zm6.047,9.314c-.154-.336-.609-.475-.922-.628-.716-.349-5.31-2.454-5.671-2.43-.608.041-.713.511-1.565.022l-6.1-5.991c-1.637-.553-3.07.425-2.7,2.21a7.207,7.207,0,0,0,.588,1.209A84.864,84.864,0,0,0,7.371,36.1c.287.412.708,1.1,1.208,1.257.78.243,8.708-4.146,10.136-4.514m15.2,3.272-8.171,4.574,7.033.589a24.605,24.605,0,0,0,1.138-5.163m-1.639,6.87L22.92,42.2l-6.1,3.393.084,2.026L32.118,50Z" transform="translate(0 0)" fill="#fff"/>
        </g>
      </g>
    </g>
  </g>
</svg>
