<svg xmlns="http://www.w3.org/2000/svg" xmlns:xlink="http://www.w3.org/1999/xlink" width="96" height="96" viewBox="0 0 96 96">
  <defs>
    <clipPath id="clip-path">
      <rect id="Rectángulo_455595" data-name="Rectángulo 455595" width="96" height="96" fill="none"/>
    </clipPath>
    <clipPath id="clip-path-2">
      <rect id="Rectángulo_459115" data-name="Rectángulo 459115" width="56.349" height="35.926" fill="#fff"/>
    </clipPath>
  </defs>
  <g id="Grupo_1207822" data-name="Grupo 1207822" transform="translate(-735.746 -9118)">
    <g id="Grupo_1180407" data-name="Grupo 1180407" transform="translate(735.746 9117.971)">
      <g id="Grupo_1179172" data-name="Grupo 1179172" transform="translate(0 0.03)" clip-path="url(#clip-path)">
        <path id="Trazado_998483" data-name="Trazado 998483" d="M92.562,52.469A40.092,40.092,0,1,1,52.469,12.377,40.093,40.093,0,0,1,92.562,52.469" transform="translate(-4.455 -4.484)" fill="#8d1939"/>
        <path id="Trazado_998485" data-name="Trazado 998485" d="M90.9,46.451A44.45,44.45,0,1,1,46.451,2,44.45,44.45,0,0,1,90.9,46.451Z" transform="translate(1.564 1.535)" fill="none" stroke="#8d1939" stroke-miterlimit="10" stroke-width="4"/>
      </g>
    </g>
    <g id="Grupo_1180408" data-name="Grupo 1180408" transform="translate(755.746 9137)">
      <g id="Grupo_1099618" data-name="Grupo 1099618" transform="translate(-0.035 -0.227)">
        <rect id="Rectángulo_401104" data-name="Rectángulo 401104" width="56.349" height="57.028" transform="translate(0)" fill="none"/>
      </g>
      <g id="Grupo_1208941" data-name="Grupo 1208941" transform="translate(-0.035 10.773)">
        <g id="Grupo_1208940" data-name="Grupo 1208940" clip-path="url(#clip-path-2)">
          <path id="Trazado_1268028" data-name="Trazado 1268028" d="M0,32.684c.448-.6.849-1.392,1.616-1.622C.248,28.788.821,25.084,3.843,24.639,5.463,24.4,8.6,24.363,9.85,25.5A15.24,15.24,0,0,1,11.1,27.659c.778.265,2.544-1.753,3.714-1.916.7-.1,4.316.192,4.751.557a.853.853,0,0,1-.313,1.468,24.016,24.016,0,0,1-3.322-.421c-1.826-.083-2.2,1.365-3.681,1.815-.392.119-1.1.084-1.26.2s-.331,1.392-.77,1.629c.945.917,1.806,1.687,1.59,3.152h6.469V32.2c-.275-.275-5.873.43-3.883-1.859l9.867.89v-2.75c-1.1-.27-3.024.019-2.268-1.7.548-.555,2.159.142,2.9.072l.161-.568c-.145-4.449-1.434-9.169-1.609-13.565a4.766,4.766,0,0,1,1.139-3.806c-1.059-.368-2.184-1.837-2.816-2.766-1.317-1.937-1.332-3.839.66-5.3,3.565-2.607,5.812,1.37,7.422,4.011a4.856,4.856,0,0,1,2.888-.467l7.537,2.185c.486-.493,1.746-.794,2.148-1.219s.034-1.4,1.042-1.6c.663-.133.9.3,1.256.29.276-.006.961-.623,1.369-.727C48.4,2.737,50.3,6.156,47.876,7.3c1.035,1.41-.678,2.585-1.493,3.761-1.275,1.838-2.446,3.753-3.684,5.614,2.087.607,4.647.81,6.667,1.5a2.262,2.262,0,0,1,1.17.771l2.515,10.02c.625-.014.783-.823,1.208-1.135a1.235,1.235,0,0,1,1.881.391c.078,1.173.447,6.591-.029,7.282a.681.681,0,0,1-.376.271l-53.881.153A2.511,2.511,0,0,1,0,35.272ZM24.547,1.659A2.35,2.35,0,0,0,22.516,4.1c.135.694,2.286,3.343,3,3.482a2.845,2.845,0,0,0,2.628-1.839c.108-1.066-2.39-4.211-3.593-4.081M47.016,5.075c-.4-.339-.656.063-1.082.116a3.392,3.392,0,0,0,.506.945c.336.2,1.309-.438.576-1.061M36.061,7.14c-1.484-.257-3.322-1.433-4.816-1.031-1.035.279-2.262,1.7-3.116,2.381-.822.651-2.026,1.126-2.661,2.029-1.019,1.449.271,5.177.251,6.961l1.276-.339c.183-.8-.554-2.656.616-2.859a1.2,1.2,0,0,1,1.318.392c.974,1.011,1.831,3.191,2.768,4.349l.414-.082L36.374,14.3c.087-.505-3.142-3.715-3.23-4.666-.193-2.07,2.124-.925,2.44-1.123Zm9.39,2.091c.29.207.711-.758.961-.888-.257-.188-2.045-2.26-2.257-2.021-.392,1.593.742,1.776,1.3,2.909M42.536,7.292,40.194,8.407l-2.405-.618L37.2,9.231l3.122.784A16.54,16.54,0,0,0,42.3,7.946c.164-.222.3-.329.234-.654M25.878,31.39l4.611.491.32-.168L44.623,10.63c-.017-.1-1.266-1.558-1.525-1.084L25.878,28.074Zm13.1-20.054-3.234-.808,1.86,2.421c.184-.252,1.583-1.382,1.374-1.613M29.114,22.009,30.7,20.474l-1.912-2.831Zm22.8,9.218L49.09,19.9l-7.361-1.7-1.772,2.766-.98,7.513,8.088.807L45.2,24.114c-.607-.643-3.2-.009-3.318-1.221-.1-1,.833-.924,1.539-.881,1.062.065,2.745.227,3.276,1.251l2.869,7.806ZM27.171,18.774l-1.294.326.649,5.658c.2.229.954-.955,1.107-1.082Zm8.088,9.218,2.027.173.559-3.891a23.282,23.282,0,0,0-2.586,3.718M3.128,26.754a2.5,2.5,0,0,0,.479,3.7,8.214,8.214,0,0,0,4.86-.057,2.407,2.407,0,0,0-.315-4c-.91-.363-4.259-.369-5.024.362M35.5,34.14H48.2c-.043-1.032.207-2.177-.429-3.081l-13.24-1.464-.481.18-1.375,2.261c1.613.019,2.146.814,2.83,2.1m19.166-1.456V30.1c-.57.423-1.314.924-.787,1.678ZM10.189,34.14A1.632,1.632,0,0,0,9.1,32.395a40.307,40.307,0,0,0-6.12-.042c-1.08.1-1.49.735-1.529,1.787Zm9.7,0H33.48c.034-.424.022-.269-.244-.318-.31-.058-.672-.1-.989-.147-4.08-.584-8.286-.614-12.351-1.314Zm33.641,0c-.573-1.749-2.061-1.328-3.569-1.223l-.151,1.223Z" transform="translate(0 0.001)" fill="#fff"/>
        </g>
      </g>
    </g>
  </g>
</svg>
