<svg xmlns="http://www.w3.org/2000/svg" xmlns:xlink="http://www.w3.org/1999/xlink" width="162.25" height="162.25" viewBox="0 0 162.25 162.25">
  <defs>
    <clipPath id="clip-path">
      <rect id="Rectángulo_459428" data-name="Rectángulo 459428" width="86.434" height="86.667" transform="translate(0 0)" fill="#6a2874"/>
    </clipPath>
  </defs>
  <g id="Grupo_1208373" data-name="Grupo 1208373" transform="translate(-305.146 -10012.459)">
    <g id="Grupo_1177470" data-name="Grupo 1177470" transform="translate(305.146 10012.421)">
      <circle id="Elipse_13609" data-name="Elipse 13609" cx="81.125" cy="81.125" r="81.125" transform="translate(0 0.038)" fill="#f6e1fe"/>
      <g id="Grupo_1207827" data-name="Grupo 1207827" transform="translate(35.635 35.96)">
        <g id="Grupo_1099618" data-name="Grupo 1099618" transform="translate(0.365 0.078)">
          <rect id="Rectángulo_401104" data-name="Rectángulo 401104" width="90" height="90" transform="translate(0)" fill="none"/>
        </g>
        <g id="Grupo_1209176" data-name="Grupo 1209176" transform="translate(2.365 2.079)">
          <g id="Grupo_1209175" data-name="Grupo 1209175" transform="translate(0 -0.001)" clip-path="url(#clip-path)">
            <path id="Trazado_1269205" data-name="Trazado 1269205" d="M100.009,55.447c-.127-.216-1.792-.868-2.149-1.436-.712-1.133.089-1.985-.009-2.659-.019-.134-1.339-.693-1.586-1.691-.334-1.35,1.545-3.2,1.144-4.095-.336-.75-2.489-1.329-3.286-2.173-4.033-4.268,6.727-9.45,5.832-12.754-.2-.731-1.428-1.423-1.838-2.13-1.654-2.855.446-8.334,1.511-11.285C104.19,4.582,111.5,1.585,124.442.214c17.884-1.895,33.52,8.914,32.042,28.082-.822,10.656-10.354,13.18-9.646,26.234.452,8.333,2.98,9.564,5.98,16.293a51.751,51.751,0,0,1,2.8,8.084c.681,2.763,2.143,7.04-1.969,7.439-10.541,1.021-22.718-.8-33.432,0-4.324-.405-2.654-4.475-2.579-7.3.116-4.361.284-9.857-.826-14.044-.21-.794-.974-3.383-1.982-3.366-2.913.709-6.87,2.612-9.772,2.871-3.271.291-5.515-2.72-5.514-5.765,0-.876.835-2.657.461-3.292M120.356,70c7.224-.863,14.941-3.02,20.657-7.679.765-.624,3.175-2.74,3.342-3.586.239-1.2-.427-3.607-.487-4.948-.45-9.959,3.678-11.845,7.712-19.259,3.169-5.823,2.456-15.48-1.08-21.032-3.414-5.361-12.053-10.135-18.379-10.576-6.436-.448-19.722,1.332-24.51,5.952-2.977,2.873-7.244,12.667-7.309,16.716-.035,2.2,2.166,2.549,2.465,4.458.761,4.87-4.692,7.373-6.65,11.125,3.41,1.9,5.5,3.312,3.45,7.541,4.265.666,1.074,2.843,1.217,3.815a3.934,3.934,0,0,1,1.884,2.121c.543,2.079-1.467,7.334,2.4,6.877,2.821-.334,16.622-4.933,18.734-6.515,1.61-1.206,1.071-1.63,1.692-3.01.669-1.488,2.7-.883,2.735.794.085,4.49-6.6,6.682-10.1,7.556.976,3.162,2.555,6.224,2.229,9.65m24.993-7.424c-.314-.282-1.533,1.21-1.862,1.477-6.485,5.264-14.393,7.869-22.654,8.776l-.232,2.616c9.2-.917,18.977-3.481,25.879-9.9Zm8.169,20.788c-.67-5.431-2.895-10.455-5.2-15.343a43.812,43.812,0,0,1-18.26,8.836c-3.118.741-6.323,1.037-9.458,1.679l-.492,4.828Z" transform="translate(-70.146 0)" fill="#6a2874"/>
            <path id="Trazado_1269206" data-name="Trazado 1269206" d="M6.58,133.806a1.5,1.5,0,0,1,2.055,1.539c-.086.615-1.612,2.431-2.026,3.2C1.794,147.42,1.5,156.9,6.362,165.849c.657,1.208,2.81,3.386,2,4.634-1.111,1.7-2.452-.062-3.144-1.01-6.246-8.551-6.751-20.922-2.2-30.322.464-.959,2.765-5.1,3.569-5.343" transform="translate(0 -100.632)" fill="#6a2874"/>
            <path id="Trazado_1269207" data-name="Trazado 1269207" d="M28.664,150.952a1.444,1.444,0,0,1,1.548,1.8c-.078.577-1.979,3.234-2.434,4.263a20.435,20.435,0,0,0,.325,17.423c.616,1.243,2.676,3.353,1.995,4.694-2.019,2.2-4.161-2.486-4.873-4.044a23.272,23.272,0,0,1-.394-18.546c.5-1.217,2.538-5.387,3.833-5.587" transform="translate(-17.379 -113.58)" fill="#6a2874"/>
            <path id="Trazado_1269208" data-name="Trazado 1269208" d="M50.437,168.815a1.5,1.5,0,0,1,2.033,1.311c0,.556-1.781,3.23-2.145,4.272a12.967,12.967,0,0,0-.073,8.607c.341,1.032,2.2,3.8,2.239,4.212.147,1.514-1.535,2.168-2.721.972-2.861-2.884-3.5-9.5-2.657-13.292.267-1.208,2.175-5.737,3.324-6.083" transform="translate(-35.195 -126.979)" fill="#6a2874"/>
            <path id="Trazado_1269209" data-name="Trazado 1269209" d="M71.577,191.845a1.583,1.583,0,0,1,2.029,1.319c0,.626-.836,1.823-.836,2.969,0,1.248,2.017,4.166-.524,4.327-2.983.189-2.963-7.954-.669-8.615" transform="translate(-52.62 -144.323)" fill="#6a2874"/>
            <path id="Trazado_1269210" data-name="Trazado 1269210" d="M233.705,28.708c1.626-.465,6.194.587,7.933,1.12,5.065,1.552,9.957,5.072,11.878,10.148.442,1.169,1.659,4.52-.553,4.538-1.78.014-1.659-2.223-2.169-3.548-2.209-5.734-8.47-8.515-14.2-9.308-1.317-.182-3.957.5-3.829-1.641a1.518,1.518,0,0,1,.944-1.309" transform="translate(-175.154 -21.516)" fill="#6a2874"/>
            <path id="Trazado_1269211" data-name="Trazado 1269211" d="M308.992,104.755c1.918-.593,2.831,1.864,1.307,2.546-2.127.952-2.9-2.052-1.307-2.546" transform="translate(-231.883 -78.761)" fill="#6a2874"/>
          </g>
        </g>
      </g>
    </g>
    <ellipse id="Elipse_13678" data-name="Elipse 13678" cx="19.243" cy="19.243" rx="19.243" ry="19.243" transform="translate(305.965 10136.186)" fill="#da9dfe"/>
    <g id="Grupo_1207826" data-name="Grupo 1207826" transform="translate(305.146 10138.641)">
      <path id="Trazado_998481" data-name="Trazado 998481" d="M0,13.854q4.835.419,9.664.868l-.27.112,1.389-2.491a.373.373,0,0,1,.426-.131.271.271,0,0,1,.2.185l0,.01,1.186,5.359L11.7,17.7l1.915-4.337,1.934-4.332,1.94-4.33L19.452.377A.822.822,0,0,1,20.394.03.578.578,0,0,1,20.9.6V.609l-.77,7.01-.812,7.007-.823,7.006-.854,7L16.044,28.4c1.235-2.953,2.506-5.9,3.765-8.845l1.893-4.42,1.917-4.414,0-.011a.7.7,0,0,1,.8-.305.505.505,0,0,1,.439.47l-.29,5.628-.314,5.627-.826-.118,2.776-5.324,0-.009a.291.291,0,0,1,.3-.125l5.25.671,5.247.689-5.291-.467-5.287-.485.3-.133-2.494,5.4a.472.472,0,0,1-.54.2.338.338,0,0,1-.286-.3v-.012l.079-5.631.1-5.631L24.836,11,23.051,15.45l-1.809,4.44c-1.209,2.959-2.407,5.921-3.64,8.874a.892.892,0,0,1-1.022.4c-.373-.087-.6-.356-.57-.635v0l.812-7.007.842-7,.854-7,.9-7,1.444.232-2.048,4.3-2.069,4.3-2.074,4.3-2.093,4.29-.005.011a.513.513,0,0,1-.588.2.382.382,0,0,1-.3-.278l-.924-5.388.624.063L9.86,14.986l0,.007a.273.273,0,0,1-.265.1q-4.8-.609-9.59-1.244" transform="translate(0 4.51) rotate(-7)" fill="#fff"/>
    </g>
  </g>
</svg>
