<svg xmlns="http://www.w3.org/2000/svg" xmlns:xlink="http://www.w3.org/1999/xlink" width="96" height="96" viewBox="0 0 96 96">
  <defs>
    <clipPath id="clip-path">
      <rect id="Rectángulo_455595" data-name="Rectángulo 455595" width="96" height="96" fill="none"/>
    </clipPath>
    <clipPath id="clip-path-2">
      <rect id="Rectángulo_459117" data-name="Rectángulo 459117" width="44.026" height="53.293" fill="#fff"/>
    </clipPath>
  </defs>
  <g id="Grupo_1207825" data-name="Grupo 1207825" transform="translate(-735.746 -9118)">
    <g id="Grupo_1180407" data-name="Grupo 1180407" transform="translate(735.746 9117.971)">
      <g id="Grupo_1179172" data-name="Grupo 1179172" transform="translate(0 0.03)" clip-path="url(#clip-path)">
        <path id="Trazado_998483" data-name="Trazado 998483" d="M92.562,52.469A40.092,40.092,0,1,1,52.469,12.377,40.093,40.093,0,0,1,92.562,52.469" transform="translate(-4.455 -4.484)" fill="#8d1939"/>
        <path id="Trazado_998485" data-name="Trazado 998485" d="M90.9,46.451A44.45,44.45,0,1,1,46.451,2,44.45,44.45,0,0,1,90.9,46.451Z" transform="translate(1.564 1.535)" fill="none" stroke="#8d1939" stroke-miterlimit="10" stroke-width="4"/>
      </g>
    </g>
    <g id="Grupo_1180408" data-name="Grupo 1180408" transform="translate(755.746 9137)">
      <g id="Grupo_1099618" data-name="Grupo 1099618" transform="translate(-0.035 -0.227)">
        <rect id="Rectángulo_401104" data-name="Rectángulo 401104" width="56.349" height="57.028" transform="translate(0)" fill="none"/>
      </g>
      <g id="Grupo_1208945" data-name="Grupo 1208945" transform="translate(5.965 1.774)">
        <g id="Grupo_1208944" data-name="Grupo 1208944" clip-path="url(#clip-path-2)">
          <path id="Trazado_1268041" data-name="Trazado 1268041" d="M23.763,18.032h6.152a4.432,4.432,0,0,1,2.418,1.532c.488.67,1.545,2.8.009,2.731-1.063-.049-.64-1.935-2.2-2.511a14.811,14.811,0,0,0-4.327-.234c-.485.094-.471.834-.7,1.274A5.777,5.777,0,0,1,14.33,19.566c-1.487.159-4.1-.38-5.41.256a35.346,35.346,0,0,0-4.129,5.883l4.011,2.5c.53-.6,1.291-2.386,2.245-2.1a2.194,2.194,0,0,1,.564.505v3.722h2.962c.236,0,2.772-2.953,3.34-3.343.819-.562,2.818-.563,3.8-.455,1.432.158,1.548.8,1.442,2.127h4.1v-2.2c0-.674,1.519-.674,1.519,0v2.2H33.94c.027-1.033-1.149-2.735-1.177-3.6a.867.867,0,0,1,1.491-.553c.3.447,1.091,3.841,1.433,3.843,1.477-1.242,2.853-2.809,4.327-4.024,1.267-1.044,2.533-1.314,3.561.24,1.378,2.082-.785,3.833-1.461,5.658-.588,1.586-.252,3-2.293,3.783a10.471,10.471,0,0,0-1.286.309c-.261.212-.287,1.25-1.1,1.181-.139.185,1.327,3.74,1.449,4.392a3.08,3.08,0,0,1-4.228,3.47c-2.195-.833-2.23-4.924-3.069-6.8-1.026-.279-1.691-.84-1.6-1.974l-1.213.154-.005,8.433c2.282,4.329.207,9.562-4.927,9.951-7,.531-14.663-.417-21.737,0C.614,52.979,1.331,51.6,1.661,51.6H15.408V43.779l-.228-.228H1.661a1.486,1.486,0,0,1-.528-.679c-.008-.288.441-.84.68-.84H9.939V35.8H3.332c-.559,0-1.8-.782-1.276-1.576.536-.817,1.449.131,2.181.064l11.783-.078c1.549-.291,2.269-4.574,3.417-4.786.932-.172,2.357.409,2.2-1.219h-2.81c-.334,0-3.055,3.637-3.984,3.611-2.247-.158-5.091.328-7.265.042a.885.885,0,0,1-.824-.687l1.059-1.9L3.939,27c-.588,1.07-2.079,2.6-2.319,3.754-.114.551.162,1.463-.6,1.684-1.207.35-1.084-1.24-.911-1.982.725-3.1,5.642-8.162,7.1-11.282a4.517,4.517,0,0,1,2.2-1.14h6.608c.292-1.384-.467-1.334-1.126-2.14a10.538,10.538,0,0,1-.732-1.471c-.08-.08-1.138-.307-1.44-.459a3.632,3.632,0,0,1-1.879-3.144c.011-.533.28-1.009.314-1.521.139-2.077-.183-3.707.854-5.678C14.031-.231,18.343-.148,22.175.1a6.775,6.775,0,0,1,6.446,6.01c.13,1.455.2,2.948.312,4.4a3.366,3.366,0,0,1-1.382,3.187c-.5.35-1.593.56-1.813.77-.183.175-.352.856-.609,1.214-.635.886-1.719.943-1.366,2.355m3.343-9.721c.281-2.746-.843-5.618-3.677-6.426-1.621-.462-6.08-.458-7.624.215-2.516,1.1-3.261,3.64-2.98,6.212l1.215.151a3.414,3.414,0,0,1,1.415-3.523c2.914-1.776,2.6,1.9,4.2,2.392C21.7,7.96,25.262,5.5,25.891,8.463Zm-2.887.151c-1.632.2-3.523.9-5.1.311a4.119,4.119,0,0,1-2.35-2.742c-.537.217-.984.457-1.141,1.06a40.539,40.539,0,0,0-.072,6.46,2.293,2.293,0,0,0,1.476,2.018,21.576,21.576,0,0,0,5.271.17c.648-.088,1.912-.929,1.912-1.582ZM14.041,12.715V10.361c0-.213-.969-.887-1.434-.219a1.816,1.816,0,0,0,1.434,2.574m11.848-2.506v2.506c1.9-.152,2.214-4.005,0-2.506m-3.646,7.063H17.535c-.006,1.4.362,2.542-1.519,2.279a4.139,4.139,0,0,0,7.2,1.353,6,6,0,0,0,.693-1.131c.117-.4-.786-.157-1.106-.252-.747-.223-.547-1.641-.561-2.249M17,36.564h7.063c-1.073-2.1-.405-2.908,1.749-3.188,1.343-.175,2.862-.141,4.227-.3a2.489,2.489,0,0,1,1.611-1.458,30.015,30.015,0,0,1,4.471-.67,3.061,3.061,0,0,1,1.836,1.066c.372.433,0,.784,1.059.59,1.471-.27,1.209-1.8,1.573-2.832.455-1.284,2.956-3.852,1.143-4.731-.514-.042-5.029,5.045-6.268,5.075l-12.548.06a4.843,4.843,0,0,1-2.931.791c-.875,1.7-1.414,3.822-3.3,4.676ZM36.64,32.8c-.372-.384-4.123.107-4.669.35-.638.284-.448,1.171-.46,1.742l5.468-.761A4.206,4.206,0,0,0,36.64,32.8m-9.383,2.092-2.128.229c.641,1.3,1.091,2.731,1.751,4.022.09.176.142.421.377.458Zm8.65.916-2.736.545c.452,1.092.965,4.88,1.842,5.442a1.579,1.579,0,0,0,2.4-1.2c.015-1.19-1.325-3.486-1.5-4.782M16.775,42.032l-1.747-6.076H11.61v6.076Zm8.051-3.949H17.383c.076,1.648,2.59,5.564-.456,5.468V51.6H23.99C27,51.6,28.7,47.97,27.866,45.3c-.752-2.414-2.356-4.769-3.04-7.213" transform="translate(0 -0.001)" fill="#fff"/>
        </g>
      </g>
    </g>
  </g>
</svg>
