<svg xmlns="http://www.w3.org/2000/svg" xmlns:xlink="http://www.w3.org/1999/xlink" width="85" height="85" viewBox="0 0 85 85">
  <defs>
    <clipPath id="clip-path">
      <rect id="Rectángulo_459463" data-name="Rectángulo 459463" width="75.198" height="68.849" fill="#8d1939"/>
    </clipPath>
  </defs>
  <g id="Grupo_1208473" data-name="Grupo 1208473" transform="translate(-705.342 -410.184)">
    <path id="Sustracción_110" data-name="Sustracción 110" d="M15975.961,19829.512h85v85h-85Z" transform="translate(-15270.619 -19419.328)" fill="#ffe19a"/>
    <g id="Grupo_1209228" data-name="Grupo 1209228" transform="translate(710.342 418.184)">
      <g id="Grupo_1209227" data-name="Grupo 1209227" clip-path="url(#clip-path)">
        <path id="Trazado_1269367" data-name="Trazado 1269367" d="M63.738,59.882l-17.1-17.2c-.381-.158-.864,1.371-.913,1.662-.565,3.348.563,3.828,2.188,6.1,2.105,2.938.4,6.6-3.21,6.446-2.714-.114-5.373-4.4-6.183-6.729-1.847-5.308-.277-10.6,3.5-14.57-7.826-.592-9.553-11.69-2.083-14.45a7.5,7.5,0,0,1,9.824,9.285c1.206-.227,2.361-.638,3.582-.824,2.224-.34,4.625.2,6.058-1.9.881-1.291.487-2.12.883-3.417,1.114-3.643,6.617-3.3,7.274.278.988,5.387-3.969,11.728-9.41,12.1l.1.432L66.4,45.03l9.645-9.311c.539-.226,1.013.143,1.439.434,3.608,4.171,8.5,7.882,12.072,12,2.143,2.472,2.831,5.856-.24,7.955-3.268,2.234-5.741-.238-7.951-2.341-1.662-1.58-3.241-3.414-4.831-5.07l-4.617,4.414c0,.372,4.66,4.391,5.273,5.259a2.436,2.436,0,0,1,.509,1.211c-.258,4.872.416,10.213.016,15.029-.215,2.595-1.6,4.958-4.4,5.272a90.009,90.009,0,0,1-13.121,0,1.628,1.628,0,0,1-.961-.328,1.4,1.4,0,0,1,1.18-2.255h7.848a5.276,5.276,0,0,1-.643-2.045c-.346-3.479.458-7.83.009-11.19a2.1,2.1,0,0,0-1.613-1.613l-12.222-.035c-1.756-.392-1.093-2.534-.261-2.534ZM46.244,31.637c4.931-4.967-3.523-12.138-7.663-6.481-3.609,4.932,3.3,10.875,7.663,6.481m18.518-7.183a1.345,1.345,0,0,0-1.9.257c-.528.878-.356,2.743-1.235,4.141C59.151,32.8,54.871,31.47,51.06,32.69c-7.8,2.5-13.991,11.211-9,19.091.716,1.131,2.41,3.42,3.851,2.207,1.4-1.175-.779-2.625-1.4-3.58a8.739,8.739,0,0,1-.743-8.241c.615-1.374,2.145-3.782,3.771-2.206L69.748,62.2a2.828,2.828,0,0,1,.447,1.228c.432,3.8-.371,8.335.04,12.216a2.523,2.523,0,0,0,4.881-.4l.015-15.028c-1.231-2.159-4.639-4.158-5.9-6.142a1.416,1.416,0,0,1-.224-1.491l6.653-6.682a1.363,1.363,0,0,1,1.732.226l8.118,8.008a2.294,2.294,0,0,0,2.638-3.713L76.5,38.825l-9.527,9.134-1.422-.108L55.567,37.842c-1.7-4.093,1.073-3.136,3.608-3.918,3.447-1.063,6.253-4.9,5.853-8.558a1.694,1.694,0,0,0-.266-.912" transform="translate(-27.595 -16.199)" fill="#8d1939"/>
        <path id="Trazado_1269368" data-name="Trazado 1269368" d="M265.018.076c1.4-.319,1.668.436,2.71.855a12.527,12.527,0,0,0,4.34,1.056c1.219,0,3.308-.982,3.559.937-.811,9.109,3.2,17.461-6.962,22.089-1.346.613-2.541,1.409-4.008.926-4.582-1.508-8.637-4.5-9.046-9.665-.35-4.417.183-9.4.12-13.872.849-1.249,2.407-.4,3.652-.42A12.767,12.767,0,0,0,263.656.866c.472-.2.895-.683,1.362-.789m8.018,4.256h-3.118A20.8,20.8,0,0,1,266.8,3.257V23.04c2.87-.958,5.419-2.668,6.138-5.8Zm-8.6-.86c-.882-.121-2.39.86-3.118.86H258.2c.664,6.614-2.805,16.734,6.236,18.492Z" transform="translate(-200.553 0)" fill="#8d1939"/>
        <path id="Trazado_1269369" data-name="Trazado 1269369" d="M.816,308.155l73.075-.057a1.2,1.2,0,0,1,.373,2.331,37.7,37.7,0,0,0-3.848.239c-.424.015-.832-.217-1.268-.214-21.308.173-43.011-.208-64.282.243-1.18-.595-4.175.374-4.737-.873a1.2,1.2,0,0,1,.687-1.67" transform="translate(0 -241.849)" fill="#8d1939"/>
        <path id="Trazado_1269370" data-name="Trazado 1269370" d="M44.974,228.978c1,.481,3.714.237,4.4.971,1.272,1.355-1.935,3.236-2.62,4.234,1.25,5.757.264,5.859-4.491,3.285-1.2.326-3.03,2.094-4.224,1.559-1.519-.681.127-3.6-.264-4.9-.262-.865-2.708-2.156-2.764-3.262-.1-1.93,3.477-1.294,4.688-1.89.633-.926,1.293-3.733,2.545-3.811,1.645.157,1.908,2.636,2.728,3.811m-2.425.487c-.6-.142-.566.692-.894,1.146-.67.928-1.433.99-2.542,1,.125.75,1.32,1.142,1.462,1.884.115.6-.334,1.323-.172,1.984a3.444,3.444,0,0,1,3.868,0c-.2-1.776-.264-2.5,1.289-3.55.067-.474-.065-.255-.321-.315-1.54-.361-2.27-.275-2.69-2.154" transform="translate(-27.482 -176.75)" fill="#8d1939"/>
        <path id="Trazado_1269371" data-name="Trazado 1269371" d="M82.79,202.887c.772-.222,3.431-.228,3.891.538,1.338,2.232-3.709,2.574-4.489,1.476a1.363,1.363,0,0,1,.6-2.014" transform="translate(-64.341 -159.159)" fill="#8d1939"/>
        <path id="Trazado_1269372" data-name="Trazado 1269372" d="M111.3,286.316a1.939,1.939,0,0,1-.162-1.673c.44-.869,4.543-1.136,4.807.59.3,1.947-4.207,1.522-4.645,1.083" transform="translate(-87.151 -222.902)" fill="#8d1939"/>
      </g>
    </g>
  </g>
</svg>
