<svg xmlns="http://www.w3.org/2000/svg" xmlns:xlink="http://www.w3.org/1999/xlink" width="69" height="69" viewBox="0 0 69 69">
  <defs>
    <clipPath id="clip-path">
      <rect id="Rectángulo_459643" data-name="Rectángulo 459643" width="45.7" height="45.573" fill="#fff"/>
    </clipPath>
  </defs>
  <g id="Grupo_1208503" data-name="Grupo 1208503" transform="translate(-305.059 -11337.508)">
    <circle id="Elipse_13679" data-name="Elipse 13679" cx="34.5" cy="34.5" r="34.5" transform="translate(305.059 11337.508)" fill="#6a2874"/>
    <g id="Grupo_1209450" data-name="Grupo 1209450" transform="translate(317.059 11349.508)">
      <g id="Grupo_1209449" data-name="Grupo 1209449" clip-path="url(#clip-path)">
        <path id="Trazado_1270420" data-name="Trazado 1270420" d="M148.6.032,157.043,0a.742.742,0,0,1,.716.716c-.2,2.594.247,5.534,0,8.085-.059.608-.219.786-.846.846-2.55.245-5.49-.2-8.084,0-.48-.006-.662-.417-.712-.85a55.214,55.214,0,0,1,0-7.819c.036-.394.087-.753.487-.945m7.719,1.276h-6.768v6.9h6.768Z" transform="translate(-128.716)" fill="#fff"/>
        <path id="Trazado_1270421" data-name="Trazado 1270421" d="M.3,283.79a1.264,1.264,0,0,1-.166-.679,59.256,59.256,0,0,1,0-7.953c.047-.5.176-.775.717-.845,2.548.267,5.747-.332,8.213,0,.584.079.668.452.716.976.23,2.525-.189,5.389,0,7.953-.071.547-.352.67-.845.717a59,59,0,0,1-7.953,0A1.264,1.264,0,0,1,.3,283.79m8.039-8.039h-6.9v6.9h6.9Z" transform="translate(0 -238.519)" fill="#fff"/>
        <path id="Trazado_1270422" data-name="Trazado 1270422" d="M275.351,128.061l9.279-.034a1.205,1.205,0,0,1,.2.713,59.6,59.6,0,0,1,0,7.822,1.205,1.205,0,0,1-.2.713h-9.248a1.205,1.205,0,0,1-.2-.713,60.155,60.155,0,0,1,0-7.821,1.262,1.262,0,0,1,.166-.679m8.169,1.141h-6.9v6.9h6.9Z" transform="translate(-239.256 -111.363)" fill="#fff"/>
        <path id="Trazado_1270423" data-name="Trazado 1270423" d="M57.639,112.528c-.586-1.137-1.261-2.169-2.728-1.941-.571.089-.938.682-1.508.059-1.353-1.742-2.618-5.984-4.784-6.669-1.756-.555-4.061-.554-5.884-1.015l-5.842-5.872a.8.8,0,0,1,.93-1.2c.345.1,2.059,2.112,2.565,2.518a2.989,2.989,0,0,0,3.909.262c1.7-1.3,1.3-3.3.019-4.653-.542-.689-3.628-3.57-3.87-3.8-1.237-1.168-1.91-2.134-3.9-1.516-1.552.48-3.9,3.98-5.392,4.954-.362-6.316-9.58-5.524-8.56.945.307,1.949,2.439,3.26,4.263,3.415-.6.447-1.137,1.6-1.99,1.342-.413-.126-2.5-2.585-3.173-3.076a2.913,2.913,0,0,0-4.4,3.623,15.773,15.773,0,0,0,1.84,1.984c1.342,1.392,4.141,4.172,4.352,4.319,2.558,1.78,3.614-.6,5.2-1.817,1.717-1.321,2.652.328,3.751,1.462.229,1.4-.18,3.391,0,4.813a45.478,45.478,0,0,0,.022,5.187c.354,4.116,5.644,2.436,8.372,2.821.671.192.32,1.749,1.479,2.426a5.128,5.128,0,0,0,4.147-.239c.918-.769.805-3.606.719-4.757-.359-4.838-5.078-2.878-8.276-3.308-1.008-.136-.858-2.211-.39-2.875a18.964,18.964,0,0,1,1.374-1.359,4.954,4.954,0,0,1,1.977.1,25.887,25.887,0,0,1,4.208.869l4.248,7.336A2.789,2.789,0,0,0,52.956,118a14.507,14.507,0,0,0,4.083-2.033c1.568-1.1,1.4-1.88.6-3.441" transform="translate(-14.738 -76.991)" fill="#fff"/>
        <path id="Trazado_1270424" data-name="Trazado 1270424" d="M174.071,18.516l.28.825.205.064.454-.208c.019-.8-.989-.33-1.037-1.177-.044-.788.54-.589.852-.827.418-.319.093-.819-.386-.649-.306.108-.108.924-1.048.771-.738-.121-.477-1.122-.131-1.556A1.775,1.775,0,0,1,176.4,16.97c-.017.361-.332.82-.314,1.037.032.37.374.609.28,1.233a1.729,1.729,0,0,1-3.444-.3c.071-.62.67-.7,1.152-.42" transform="translate(-150.402 -13.142)" fill="#fff"/>
        <path id="Trazado_1270425" data-name="Trazado 1270425" d="M30.081,291.955c-.109-.1-.983.089-.882-.822.075-.676,2.082-.823,2.292.128a26.5,26.5,0,0,1,.02,4.13c-.144.878-1.219,1.051-1.4.239-.127-.588.1-3.547-.036-3.674" transform="translate(-25.392 -252.764)" fill="#fff"/>
        <path id="Trazado_1270426" data-name="Trazado 1270426" d="M301.322,146.089c.376.041,1.061-.137,1.313.183.236.3.185.97-.233,1.093a15.922,15.922,0,0,1-2.574.023.854.854,0,0,1-.569-.482c-.213-.791,2.374-3.015,1.923-3.67-.882-.416-.658,1.1-1.678.707-.745-.455-.292-1.4.264-1.815a1.758,1.758,0,0,1,2.83,1.2c.146,1.043-.894,1.884-1.276,2.763" transform="translate(-260.181 -123.305)" fill="#fff"/>
      </g>
    </g>
  </g>
</svg>
