<svg xmlns="http://www.w3.org/2000/svg" xmlns:xlink="http://www.w3.org/1999/xlink" width="109.796" height="109.796" viewBox="0 0 109.796 109.796">
  <defs>
    <clipPath id="clip-path">
      <rect id="Rectángulo_459426" data-name="Rectángulo 459426" width="73.83" height="73.666" fill="#6a2874"/>
    </clipPath>
  </defs>
  <g id="Grupo_1209828" data-name="Grupo 1209828" transform="translate(-1210.704 -3493.098)">
    <g id="Grupo_1209827" data-name="Grupo 1209827">
      <path id="Trazado_998483" data-name="Trazado 998483" d="M122.173,67.275a54.9,54.9,0,1,1-54.9-54.9,54.9,54.9,0,0,1,54.9,54.9" transform="translate(1198.328 3480.721)" fill="#fff"/>
      <rect id="Rectángulo_401104" data-name="Rectángulo 401104" width="76.991" height="77.919" transform="translate(1227.711 3509.599)" fill="none"/>
    </g>
    <g id="Grupo_1209171" data-name="Grupo 1209171" transform="translate(1229.711 3511.599)" clip-path="url(#clip-path)">
      <path id="Trazado_1269189" data-name="Trazado 1269189" d="M33.5,35.677c.23,2.373-.354,4.954-3.275,4.649C28,40.093,27.2,36.86,25.545,35.72L9.551,35.674A3.776,3.776,0,0,1,6.059,31.99c.6-9.147-.774-19.263,0-28.3A3.686,3.686,0,0,1,9.54,0L53.516.151c1.961.731,2.635,2.506,2.568,4.5l1.909.1c.415.277.64,2.659,1.269,3.163,1.5,1.2,2.72-.534,4.214-.839.272.122,4.08,3.962,4.232,4.22.684,1.166-1.8,2.461-.7,4.279.551.913,3.123,1.036,3.224,1.461l0,6.261-2.96,1.3A17.977,17.977,0,0,1,71.49,34.94a22.587,22.587,0,0,0,.045,3.12c.113.382,1.384,1.424,1.751,2.259,1.1,2.5.442,4.629-1.164,6.655-.163.206-.584.249-.635.458-.207.835-.008,2.3-.305,3.446-.676,2.6-3.949,6.114-6.76,6.114H59.673c-.1.5.069.34.273.473,1.33.868,2.866,1.265,4.352,2.394,2.843,2.159,5.928,6.87,5.928,10.534v3.271H26.432c-2.075,0-4.96-3.322-4.96-5.382V61.847H16.83c.233,2.239-.218,4.906-3.06,4.653-2.13-.19-2.607-3.055-3.516-4.618C6.959,61.493.582,63.3.148,58.373c.379-5.458-.474-11.518,0-16.9A3.681,3.681,0,0,1,3.641,38c5.987-.6,12.911.449,19-.009,1.434-.2,3.686,1.7,3.686,3.067V52.35H40.573a8.882,8.882,0,0,1,2.2.963,6.845,6.845,0,0,1,2.548,6.424l4.613-2.35.032-1.932c-2.918-1.5-5.712-3.256-6.575-6.663-4.28.441-8.07-2.281-7.545-6.865.262-2.288,1.991-2.979,2.254-3.865a17.536,17.536,0,0,0,.043-2.384ZM8.387,3.491c-.339,1.59.252,4.292,0,6.015H43.739l2.53-2.475c1.379.489,2.687,2.021,4.108.88.628-.5.854-2.886,1.269-3.163l1.909-.1c.06-1.123.18-2.089-1.174-2.31L10.171,2.32A1.842,1.842,0,0,0,8.387,3.491M63.094,21.283l2.2,1.485,2.578-1.154L67.8,18.789l-2.536-1.052-1.284-3.379.94-2.378L62.914,9.962l-2.487,1.02c-.816-.554-2.9-.792-3.338-1.531-.292-.5-.409-1.727-.685-2.059-.335-.4-2.445-.213-3.072-.111-.358.239-.505,1.983-.943,2.434a16.852,16.852,0,0,1-3.533,1.233c-.54-.091-1.76-1.108-2.277-.913l-2.045,2.105,1.17,2.362-1.338,3.231-2.648.977.11,3.045,2.637.95,2.076-1.422c-.661-12.443,17.122-12.467,16.55,0M41.628,11.828H8.7l-.317.317V31.983A1.723,1.723,0,0,0,9.966,33.36l16.845.039c.771.226,2.63,3.7,3.429,4.38a.693.693,0,0,0,.73.22V33.355h7.07a41.364,41.364,0,0,0,1.4-4.086,20.193,20.193,0,0,1,2.923-4.675l-2.96-1.3.034-6.376c3.589-.689,4.489-2.008,2.19-5.09m19.1,8.23c-.407-7.607-11.6-7.631-11.709,0a16.93,16.93,0,0,1,11.709,0M68.96,36.943V33.249a17.61,17.61,0,0,0-1.811-4.732A14.291,14.291,0,0,0,42.7,28.1c-1.188,1.934-2.488,5.867-2.249,8.113.031.292.018.61.362.718l2.186-.2v-3.06c0-1.464,1.764-4.562,2.738-5.7,7.559-8.857,21.9-2.686,20.9,8.765Zm-4.644-.212c.57-13.969-19.6-14.012-18.992,0a7.472,7.472,0,0,0,5.921-6.111l2.31.627A11.029,11.029,0,0,1,50.6,36.627c3.711.324,7.253-2.123,9.177-5.16l1.984,1.359L60.4,34.836a6.862,6.862,0,0,0,3.912,1.895m-13.19,2.533c-1.864.158-3.919-.117-5.8,0v7.914c0,1.389,1.774,3.683,2.886,4.5,1.656,1.219,3.977,1.328,4.266,3.754a21.377,21.377,0,0,0,.076,2.457,19.081,19.081,0,0,0,2.184,2.893c.793-.527,2.58-2.776,2.416-3.677-2.973-.284-4.684-3.429-2.751-5.917,1.569-2.02,6.258-1.557,8.424-.75,2.355-3.381,1.254-7.505,1.492-11.385a8.79,8.79,0,0,1-5.8-2.71,13.78,13.78,0,0,1-5.582,2.616c-.466.092-1.383.268-1.806.3m-8.126,0c-6.377-.924-6.448,7.984,0,6.965Zm23.638,0v6.965c6.45.974,6.332-7.858,0-6.965M21.474,59.315A8.377,8.377,0,0,1,22,55.939c.4-1.013,1.909-2.382,2-2.856a78.537,78.537,0,0,0,0-10.97c-.125-1.121-.557-1.816-1.784-1.8-5.785.417-12.259-.52-17.96,0-1.254.114-1.679.539-1.794,1.794-.459,5.027.367,10.741.005,15.844.182,2.312,3.268,1.061,4.86,1.368A6.145,6.145,0,0,1,9.65,53.51a5.958,5.958,0,0,1,4.339-10.666c5.235.468,6.967,7.454,2.844,10.666a6.291,6.291,0,0,1,2.317,5.805Zm-8.92-14.091c-5.091.858-2.723,9,2.248,6.68,3.605-1.684,1.921-7.382-2.248-6.68m56.4,3.326-2.713.239c.126,1.107-1.983,3.132-2.088,3.69-.072.386.36,1.421.161,1.979a5.642,5.642,0,0,0,4.641-5.908m-6.963,6.12c.04-1.274.081-2.19-1.36-2.334a22.036,22.036,0,0,0-4.129.117c-.935.457-.173,2.217.318,2.217Zm-47.487,8.97c.191-1.295-.14-2.982,0-4.327h2.323c.543-6.144-7.784-6.2-7.178,0,.614.072,1.538-.213,2.009.207.568.506,1.72,3.777,2.216,4.645.282.274.607-.369.63-.527M43,66.49V57.943c0-1.511-1.784-3.113-3.271-3.272a86.286,86.286,0,0,0-12.856.019c-.9.128-2.868,1.525-2.868,2.409V66.49Zm24.693,4.854a12.106,12.106,0,0,0-5.206-9.884c-.668-.468-3.038-1.93-3.727-1.7-.6.2-3.49,5.166-4.042,5.042l-4.01-5.245a16.151,16.151,0,0,0-5.277,3.351c-.377,2.216.258,4.585-.428,6.747-.183.578-.7,1.066-.737,1.69ZM42.578,69.023H24.216c.694,1.669,1.934,2.2,3.684,2.331a81.057,81.057,0,0,0,11.594-.033c1.3-.158,2.838-.9,3.084-2.3" transform="translate(0)" fill="#6a2874"/>
      <path id="Trazado_1269190" data-name="Trazado 1269190" d="M63.56,68.041v4.643h7.176V84.5H58.706V79.86H51.741V68.041Zm-2.322,2.322H54.063v7.176h6.859l.317-.317ZM68.2,75.006H63.56V79.86H61.237v2.323H68.2Z" transform="translate(-40.821 -53.681)" fill="#6a2874"/>
      <path id="Trazado_1269191" data-name="Trazado 1269191" d="M157.6,68.041c-.1.754.284,1.765-.317,2.322h-4.538V68.041Z" transform="translate(-120.505 -53.681)" fill="#6a2874"/>
      <path id="Trazado_1269192" data-name="Trazado 1269192" d="M157.6,92.363h-4.854V90.041h4.538c.6.557.221,1.567.317,2.322" transform="translate(-120.505 -71.038)" fill="#6a2874"/>
      <path id="Trazado_1269193" data-name="Trazado 1269193" d="M157.6,113.041c-.1.754.284,1.765-.317,2.322h-4.538v-2.322Z" transform="translate(-120.505 -89.183)" fill="#6a2874"/>
      <path id="Trazado_1269194" data-name="Trazado 1269194" d="M157.6,137.363h-4.854v-2.322h4.538c.6.557.221,1.567.317,2.322" transform="translate(-120.505 -106.54)" fill="#6a2874"/>
      <path id="Trazado_1269195" data-name="Trazado 1269195" d="M54.06,24.486H51.736V21.951c.521.078,1.952-.2,2.23.2Z" transform="translate(-40.817 -17.3)" fill="#6a2874"/>
      <path id="Trazado_1269196" data-name="Trazado 1269196" d="M76.06,21.952v2.535H73.736l.093-2.336c.278-.4,1.709-.12,2.231-.2" transform="translate(-58.174 -17.301)" fill="#6a2874"/>
      <path id="Trazado_1269197" data-name="Trazado 1269197" d="M99.06,24.486H96.736V21.951c.521.078,1.952-.2,2.23.2Z" transform="translate(-76.32 -17.3)" fill="#6a2874"/>
      <path id="Trazado_1269198" data-name="Trazado 1269198" d="M254.793,197.036c.059.707-.1,1.515.012,2.2.084.527.478.879.573,1.325.408,1.924-.823,2.722-2.383,3.384l-1.132-1.781,1.22-1.013c-.973-1.279-.875-2.586-.824-4.12Z" transform="translate(-198.707 -155.451)" fill="#6a2874"/>
      <path id="Trazado_1269199" data-name="Trazado 1269199" d="M227.03,191.3a1.223,1.223,0,0,1,.145,2.423,1.223,1.223,0,1,1-.145-2.423" transform="translate(-178.188 -150.924)" fill="#6a2874"/>
      <path id="Trazado_1269200" data-name="Trazado 1269200" d="M283.412,191.24a1.191,1.191,0,0,1,.921,1.964c-1.557,1.717-3.07-1.769-.921-1.964" transform="translate(-222.756 -150.876)" fill="#6a2874"/>
      <path id="Trazado_1269201" data-name="Trazado 1269201" d="M144.809,270.164c4.827-.568,5.312,6.928.563,7.131-4.558.195-5.079-6.6-.563-7.131m-.236,2.518c-1.013.35-.564,2.612.918,2.2s1.037-2.876-.918-2.2" transform="translate(-111.774 -213.121)" fill="#6a2874"/>
    </g>
  </g>
</svg>
