<svg xmlns="http://www.w3.org/2000/svg" xmlns:xlink="http://www.w3.org/1999/xlink" width="69" height="69" viewBox="0 0 69 69">
  <defs>
    <clipPath id="clip-path">
      <rect id="Rectángulo_459514" data-name="Rectángulo 459514" width="45.68" height="38" fill="#fff"/>
    </clipPath>
  </defs>
  <g id="Grupo_1208485" data-name="Grupo 1208485" transform="translate(-305.059 -11337.925)">
    <circle id="Elipse_13679" data-name="Elipse 13679" cx="34.5" cy="34.5" r="34.5" transform="translate(305.059 11337.925)" fill="#6a2874"/>
    <g id="Grupo_1209315" data-name="Grupo 1209315" transform="translate(317.059 11353.925)">
      <g id="Grupo_1209314" data-name="Grupo 1209314" clip-path="url(#clip-path)">
        <path id="Trazado_1269465" data-name="Trazado 1269465" d="M132.025,177.214a7.136,7.136,0,0,1,1.594,3.591,39.672,39.672,0,0,1,.024,5.533c-.063.571-.673.736-1.113.919-4.312,1.79-9.819.989-14.127-.448.084-3.961-.889-8.144,2.731-10.557,2.48-1.653,8.736-1.433,10.892.962" transform="translate(-102.919 -150.287)" fill="#fff"/>
        <path id="Trazado_1269466" data-name="Trazado 1269466" d="M63.886,153.634a24.606,24.606,0,0,1-6.781-1.346c-.146-.1-.116-.267-.134-.423-.217-1.88-.1-5.982.675-7.664,1.88-4.09,5.838-3.346,9.369-3.358a6.133,6.133,0,0,0,.457,2.273c.264.663.938,1.337,1.094,1.794.085.249-.046.172-.152.228-1.723.913-2.869,1.584-3.8,3.538a16.509,16.509,0,0,0-.731,2.045Z" transform="translate(-49.462 -120.788)" fill="#fff"/>
        <path id="Trazado_1269467" data-name="Trazado 1269467" d="M6.474,119.919a17.8,17.8,0,0,1-4.459-.751c-.547-.171-1.866-.511-1.934-1.16a28.925,28.925,0,0,1,.231-6.443A6.335,6.335,0,0,1,3.7,107.447c1.841-.78,3.958-.358,5.893-.453a6.481,6.481,0,0,0,1.7,4.186,7.693,7.693,0,0,0-4.1,3.767,10.8,10.8,0,0,0-.719,2.343Z" transform="translate(0 -91.762)" fill="#fff"/>
        <path id="Trazado_1269468" data-name="Trazado 1269468" d="M268.494,118.783v-2.629a10.8,10.8,0,0,0-.719-2.343,7.627,7.627,0,0,0-4.1-3.767,6.481,6.481,0,0,0,1.7-4.186c3.4-.078,6.931-.5,8.794,3.259.86,1.734.93,5.781.722,7.756-.026.249-.011.316-.214.477a12.528,12.528,0,0,1-2.242.824,21.4,21.4,0,0,1-3.938.609" transform="translate(-229.306 -90.769)" fill="#fff"/>
        <path id="Trazado_1269469" data-name="Trazado 1269469" d="M212.256,150.934a9.885,9.885,0,0,0-1.567-3.55,7.634,7.634,0,0,0-2.961-2.176c-.106-.056-.238.021-.152-.228.148-.434.807-1.089,1.056-1.693a7.2,7.2,0,0,0,.5-2.371c2.676.122,5.167-.61,7.417,1.361,2.916,2.553,1.963,6.4,2.075,9.984a14.72,14.72,0,0,1-5,1.443c-.232.023-1.368.138-1.368-.07-.071-.856.1-1.868,0-2.7" transform="translate(-180.498 -120.859)" fill="#fff"/>
        <path id="Trazado_1269470" data-name="Trazado 1269470" d="M142.613.058c6.458-.9,7.615,8.966,1.99,10.412-6.826,1.755-8.313-9.532-1.99-10.412" transform="translate(-120.528 0)" fill="#fff"/>
        <path id="Trazado_1269471" data-name="Trazado 1269471" d="M147.083,105.076c5.276-.778,7.151,7.544,2.153,9.453-6.3,2.407-8.484-8.52-2.153-9.453" transform="translate(-124.61 -90.1)" fill="#fff"/>
        <path id="Trazado_1269472" data-name="Trazado 1269472" d="M89.086,78.776a5.891,5.891,0,0,1-1.477.591c-5.259.761-7.27-6.615-3.01-9.109,3.108-1.82,6.7.656,6.682,4.438a7.906,7.906,0,0,0-1.642,2.336c-.159.378-.442,1.614-.552,1.744" transform="translate(-71.566 -59.75)" fill="#fff"/>
        <path id="Trazado_1269473" data-name="Trazado 1269473" d="M260.327,34.97c3.521-.6,6.353,3.067,4.99,6.72a4.364,4.364,0,0,1-6,2.559,7.2,7.2,0,0,0-1.3-3.27c-.644-.843-1.446-.9-1.269-2.1a5.033,5.033,0,0,1,3.584-3.908" transform="translate(-223.258 -29.944)" fill="#fff"/>
        <path id="Trazado_1269474" data-name="Trazado 1269474" d="M28.94,36.155a4.71,4.71,0,0,1,5.12,4.16c.048.887-.728,1.117-1.245,1.771a6.182,6.182,0,0,0-1.3,3.272c-2.046,1.329-4.978.117-5.957-2.178C24.287,40.2,25.9,36.6,28.94,36.155" transform="translate(-21.847 -30.984)" fill="#fff"/>
        <path id="Trazado_1269475" data-name="Trazado 1269475" d="M207.265,78.1a4.627,4.627,0,0,1-4.048,1.317c-1.282-.189-.933-.792-1.281-1.73a6.252,6.252,0,0,0-2.322-3.19c.171-3.834,3.922-6.08,6.957-4a5.209,5.209,0,0,1,.694,7.6" transform="translate(-173.597 -59.797)" fill="#fff"/>
        <path id="Trazado_1269476" data-name="Trazado 1269476" d="M82.364,17.391a6.135,6.135,0,0,0-2.594-4.5,4.332,4.332,0,0,1,5.565-3.36c.348.115,1.577.726,1.588,1.1a6.858,6.858,0,0,0,.637,6.289c-.36,1.133-1.168.237-1.9.078a5.792,5.792,0,0,0-3.292.393" transform="translate(-69.373 -7.994)" fill="#fff"/>
        <path id="Trazado_1269477" data-name="Trazado 1269477" d="M219.725,12.588a5.575,5.575,0,0,0-2.853,4.565,7.132,7.132,0,0,0-3.292-.252c-.506.091-1.268.783-1.6-.04-.155-.384.518-1.468.652-1.987a7.885,7.885,0,0,0-.173-4.159,4.17,4.17,0,0,1,6.564.182c.22.281.918,1.365.7,1.69" transform="translate(-184.333 -7.897)" fill="#fff"/>
        <path id="Trazado_1269478" data-name="Trazado 1269478" d="M156.314,78.13a6.66,6.66,0,0,0-.912,3.125,5.478,5.478,0,0,0-4.625.145,8.047,8.047,0,0,0-1.109-3.269Z" transform="translate(-130.16 -67.027)" fill="#fff"/>
      </g>
    </g>
  </g>
</svg>
