<svg xmlns="http://www.w3.org/2000/svg" xmlns:xlink="http://www.w3.org/1999/xlink" width="69" height="69" viewBox="0 0 69 69">
  <defs>
    <clipPath id="clip-path">
      <rect id="Rectángulo_459644" data-name="Rectángulo 459644" width="50.725" height="38.333" fill="#fff"/>
    </clipPath>
  </defs>
  <g id="Grupo_1208504" data-name="Grupo 1208504" transform="translate(-305.059 -11337.508)">
    <circle id="Elipse_13679" data-name="Elipse 13679" cx="34.5" cy="34.5" r="34.5" transform="translate(305.059 11337.508)" fill="#6a2874"/>
    <g id="Grupo_1209452" data-name="Grupo 1209452" transform="translate(314.059 11353.508)">
      <g id="Grupo_1209451" data-name="Grupo 1209451" clip-path="url(#clip-path)">
        <path id="Trazado_1270427" data-name="Trazado 1270427" d="M125.9,52.329V78.735a6.718,6.718,0,0,1-.313.705,1.915,1.915,0,0,1-2.97.25,4.784,4.784,0,0,1-.5-1.246V63.822l-.591.064-.166,15.109a1.908,1.908,0,0,1-3.059.834,5.225,5.225,0,0,1-.548-.8v-26.7l-.587.245-.059,11.693a1.508,1.508,0,0,1-3-.074c.269-3.806-.334-8.044,0-11.8a3.735,3.735,0,0,1,3-3.109,61.527,61.527,0,0,1,9.154-.014,3.758,3.758,0,0,1,3.26,3c.5,3.631-.338,8.311,0,12.053a1.531,1.531,0,0,1-3.033-.149l-.151-11.634Z" transform="translate(-97.418 -41.964)" fill="#fff"/>
        <path id="Trazado_1270428" data-name="Trazado 1270428" d="M222.018,51V76.392c0,.6-1.089,1.314-1.7,1.332-.647.019-1.8-.694-1.8-1.332V62.061H217.8V52.1a7.008,7.008,0,0,0-.671-2.238,16.684,16.684,0,0,0-1.365-1.617h7.2c.9,0,2.563,1.866,2.534,2.849L225.445,62.8a1.491,1.491,0,0,1-2.811-.26L222.6,51.512Z" transform="translate(-184.371 -41.222)" fill="#fff"/>
        <path id="Trazado_1270429" data-name="Trazado 1270429" d="M56.457,50.8c-.547-.091-.679.344-.73.8L55.7,62.485a1.46,1.46,0,0,1-2.669-.035L53,50.474c.7-2.513,2.9-2.809,5.2-2.574a7.12,7.12,0,0,0,1.389,3.485c.011-.836-.285-2.2,1-1.871.723.63.129,1.457.087,2.23-.176,3.266.141,6.69.006,9.972h-.728v14.04a1.994,1.994,0,0,1-1.693,1.627c-.539.033-1.8-.67-1.8-1.191Z" transform="translate(-45.289 -40.875)" fill="#fff"/>
        <path id="Trazado_1270430" data-name="Trazado 1270430" d="M281.345,44.875a3.463,3.463,0,0,1,2.281,1.939,72.864,72.864,0,0,1,3.178,8.752c.256.807.715,1.534.145,2.333a1.363,1.363,0,0,1-2.1.059l-2.411-6.244,1.461,8.519c-.1.929-.921.8-1.66.812l-.218.219L281.969,71.4a1.642,1.642,0,0,1-2.664.689,4.67,4.67,0,0,1-.506-.8V61.024l-.583-.074c.006-.238.275-.393.365-.653.462-1.332.371-9.891.216-11.71a5.109,5.109,0,0,0-1.165-2.908l-.869-.8c1.423.144,3.208-.195,4.583,0" transform="translate(-236.496 -38.293)" fill="#fff"/>
        <path id="Trazado_1270431" data-name="Trazado 1270431" d="M8.549,45.24,7.264,46.5l-.75,2.015L6.482,71.761a1.706,1.706,0,0,1-2.772.692,3.871,3.871,0,0,1-.4-.661V48.077l-.291-.147a.672.672,0,0,0-.3.576c-.359,2.944.538,7.386-.055,10.128a1.351,1.351,0,0,1-2.639.145L0,47.821c.1-.976,1.561-2.581,2.511-2.581Z" transform="translate(0 -38.658)" fill="#fff"/>
        <path id="Trazado_1270432" data-name="Trazado 1270432" d="M205.762,157.422a2.931,2.931,0,0,0,2.824-1.031l.667-1.151v12.294a4.578,4.578,0,0,1-.594,1.152c-.924.916-2.9.2-2.9-.861Z" transform="translate(-175.826 -132.654)" fill="#fff"/>
        <path id="Trazado_1270433" data-name="Trazado 1270433" d="M109.254,158.277v10.257c0,.639-1.032,1.454-1.7,1.477-.646.023-1.8-.7-1.8-1.332V156.24c.287.191.342.632.583.945a2.965,2.965,0,0,0,2.909,1.092" transform="translate(-90.375 -133.509)" fill="#fff"/>
        <path id="Trazado_1270434" data-name="Trazado 1270434" d="M148.5.069c5.239-.888,4.936,7.009.145,6.186-3.38-.58-3.315-5.649-.145-6.186" transform="translate(-124.858 0)" fill="#fff"/>
        <path id="Trazado_1270435" data-name="Trazado 1270435" d="M269.478,167.5c-.246,1.133-2.734,1.677-2.773.154l.009-9.828a3.03,3.03,0,0,0,2.764-.583Z" transform="translate(-227.903 -134.363)" fill="#fff"/>
        <path id="Trazado_1270436" data-name="Trazado 1270436" d="M49.762,157.24a2.886,2.886,0,0,0,2.764.583l-.024,10.45c-.8.728-2.739.144-2.739-.921Z" transform="translate(-42.522 -134.363)" fill="#fff"/>
        <path id="Trazado_1270437" data-name="Trazado 1270437" d="M214.065.107c4.376-.744,4.846,5.289,1.241,5.9-4.02.675-4.837-5.284-1.241-5.9" transform="translate(-180.967 -0.037)" fill="#fff"/>
        <path id="Trazado_1270438" data-name="Trazado 1270438" d="M84.957.1C89.82-.725,89.666,6.7,85.1,6,81.852,5.5,81.867.627,84.957.1" transform="translate(-70.627 -0.032)" fill="#fff"/>
        <path id="Trazado_1270439" data-name="Trazado 1270439" d="M271.6.322c3.989-.491,4.332,5.44.538,5.644-3.52.189-4.024-5.215-.538-5.644" transform="translate(-230.054 -0.251)" fill="#fff"/>
        <path id="Trazado_1270440" data-name="Trazado 1270440" d="M29.917.135A2.85,2.85,0,0,1,33.13,4.22c-1.321,2.607-5.559,1.459-5.347-1.553A3,3,0,0,1,29.917.135" transform="translate(-23.735 -0.066)" fill="#fff"/>
        <path id="Trazado_1270441" data-name="Trazado 1270441" d="M99.047,49.672l-1-.047-.286-1.388,1.538.142Z" transform="translate(-83.535 -41.219)" fill="#fff"/>
      </g>
    </g>
  </g>
</svg>
