<svg xmlns="http://www.w3.org/2000/svg" xmlns:xlink="http://www.w3.org/1999/xlink" width="187.711" height="121.729" viewBox="0 0 187.711 121.729">
  <defs>
    <clipPath id="clip-path">
      <rect id="Rectángulo_459466" data-name="Rectángulo 459466" width="94.617" height="108.312" fill="none"/>
    </clipPath>
  </defs>
  <g id="Grupo_1209231" data-name="Grupo 1209231" transform="translate(-289.711 -3663)">
    <g id="Grupo_1208475" data-name="Grupo 1208475" transform="translate(0.434 -5205.039)">
      <g id="Grupo_1204518" data-name="Grupo 1204518" transform="translate(289.277 8868.039)">
        <rect id="Rectángulo_455283" data-name="Rectángulo 455283" width="187.711" height="121.729" rx="19" fill="#e9c3ff"/>
      </g>
    </g>
    <g id="Grupo_1209230" data-name="Grupo 1209230" transform="translate(336.711 3670)">
      <g id="Grupo_1209229" data-name="Grupo 1209229" clip-path="url(#clip-path)">
        <path id="Trazado_1269373" data-name="Trazado 1269373" d="M2.108,87.8A1.871,1.871,0,0,1,.268,86.077a102.977,102.977,0,0,1,0-14.834c.235-1.434,1.314-2.23,2.635-1.43,1.278.774.6,3.072.755,4.355H8.924c-.083-.445.133-2.007-.014-2.156-.317-.321-2.187.5-2.187-1.717S8.588,68.9,8.911,68.578a14.006,14.006,0,0,0,.028-2.573c-.087-.368-2.572-.546-2.427-2.167.14-1.573,2.27-1.327,2.4-1.456A14.332,14.332,0,0,0,8.925,59.3c-.121-.112-2.585.248-2.414-1.655.16-1.775,2.3-1.337,2.414-1.443.176-.163-.119-3.953.017-4.784.416-2.543,3.39-1.957,3.39-.638V56.2H16.36V50.467c0-.773,2.693-1.755,3.092.316.125.647-.3,3.557.471,3.557H33.4c.051-1.354-.6-5.1,1.656-4.893a3.207,3.207,0,0,1,1.443,1.02v14.1c1.481-1.541,2.8-.461,4.1-.671.845-.135,5.911-2.113,7.359-2.591.26-.086.878-.12.617-.607-.151-.281-4.539-2.335-5.548-3.128-3.547-2.788-6.438-7.378-6.844-11.9a7.3,7.3,0,0,1-7.411-7.875c.093-.725.672-1.517.6-2.188-.072-.689-.876-1.027-1.2-1.605-1.525-2.754-1.356-5.961,1.184-8.013a19.792,19.792,0,0,1,2.969-1.369c.181-.255.351-5.084.585-6.231A22.744,22.744,0,0,1,43.53,3.9,39.971,39.971,0,0,0,48.652.966C50.3-.229,58.582-.327,60.2.738c.5.332.842,1.005,1.42,1.368.849.534,2.16.739,3.084,1.253A22.626,22.626,0,0,1,76.815,24.4c.207.593,1.287.512,1.926.862a6.033,6.033,0,0,1,2.5,8.286c-.3.606-1.213,1.419-1.316,1.807-.218.825.555,2.306.539,3.3a7.29,7.29,0,0,1-7.388,7.018c-.621,5.552-4.261,10.38-8.905,13.246-.567.35-3.975,1.584-3.5,2.227.168.227,4.5,1.223,5.427,1.545.756.263,2,1.119,2.539,1.187.947.119,1.409-.531,2.79-.007a72.382,72.382,0,0,1,7.794,7.075c.416.823.235,1.515.517,2.271.313.839,1.956,2.588,2.558,3.639,5.2,9.061,8.048,19.956,12.326,29.52-.076,2.592-2.648,2.334-3.591.317-.237-.508-.383-1.782-.7-2.555-3.867-9.467-7-19.349-12.32-28.115-.37-.051-.4-.114-.635.188-1.009,1.31-1.637,5.342-3.007,5.937a4.357,4.357,0,0,1-1,.069c-2.19-.837-.48-3.866.256-5.476.4-.866,2.283-3.77,2.238-4.268-.1-1.075-3.971-3.846-4.819-4.816-1.233,2.427-.219,9.9-2.161,11.468-1.247,1.008-2.163.513-3.569.3V91.208h5.577c.012-1.488-.44-5.139,1.859-4.957a1.772,1.772,0,0,1,1.565,1.688c.741,5.658-.585,12.927-.015,18.76-.518,2.112-3.017,2.078-3.408,0-.327-1.738.24-4.344,0-6.2H56.017c-.163,1.978.223,4.264,0,6.2-.284,2.466-2.818,1.811-3.1,0-.284-1.835.208-4.281,0-6.2H38.047c-.163,1.978.223,4.264,0,6.2-.284,2.466-2.818,1.811-3.1,0-.719-10.12,2.225-21.69-3.563-30.666-.4.007-3.523,5.751-3.928,6.6-3.524,7.393-5.8,17.143-9.55,24.066-1.581,2.917-3.847,1.457-3.1-1.237-2.786-.432-11.75.885-13.623-.784a4.633,4.633,0,0,1-.938-2.47,56.718,56.718,0,0,1,0-8.682c.143-1.222.6-1.85,1.865-2.008.05.08,1.549.56,1.549,1.084v9.45h12.7c3.569-8.418,6.067-17.472,10.715-25.379.528-.9,2.191-2.806,2.443-3.444.292-.741.024-1.469.323-2.155a33.755,33.755,0,0,1,2.789-2.8c.263-.257.77-.258.77-.3V57.438H19.458V76.492a1.806,1.806,0,0,1-1.084,1.084H3.657c-.337,2.058.655,8.2-.48,9.595-.271.334-1.043.573-1.07.63m56.7-84.272c-.3.1-.672-.31-.775-.31H50.9a3.109,3.109,0,0,0-.465.465v12.7A14.583,14.583,0,0,1,48.957,21.1c-.8,1.386-2.186,2.278-3.165,3.5h17.66c-.381-.786-1.289-1.057-1.873-1.69-.889-.965-2.775-4.383-2.775-5.59ZM47.032,6.007C39.54,8.726,35.3,16.838,35.569,24.6h4.8a46.955,46.955,0,0,0,4.816-3.859,10.047,10.047,0,0,0,1.845-3.112Zm15.181,4.647c-.048,6.332-1.042,8.134,4.338,12.083.436.32,2.175,1.859,2.324,1.859h4.492v-4.8c0-.139-.658-2.223-.787-2.621-1.574-4.85-5.5-9.458-10.365-11.165-.011,1.545.01,3.1,0,4.646M44.863,35.13c-.056.026-.3.8-.63,1.069-1.171.949-3.771.288-5.257.48V44.27c0,6.9,7.577,13.418,14.135,14.058,8.185.8,17.157-6.183,17.157-14.678V36.679H49.975c-.891,0-1.3-1.489-1.394-1.549l.618-1.4c7.289-.389,14.681,0,22-.152,2.4-.049,7.765.787,7.765-2.943S73.6,27.743,71.2,27.695c-11.395-.231-25.549-.824-36.728-.014-1.778.129-3.89.554-4.1,2.72a3.3,3.3,0,0,0,1.491,2.708c1.859.774,8.358-.184,10.962.192,1.186.171,1.925.529,2.044,1.829m-8.985,1.549c-.876.152-3.366-.433-3.674.508a4.15,4.15,0,0,0,3.674,5.379Zm37.488,0v5.887a4.026,4.026,0,0,0,3.747-3.87c.125-3.02-1.456-1.824-3.747-2.017M16.361,59.295H12.33v3.1h4.031Zm41.2,2.17H51.679c-.188,1.144.517,4.247-.617,4.8-2.36,1.156-2.439-1.7-2.66-1.726-1.189-.162-3.317.988-4.467,1.415,1.811.876,9.185,7.782,10.388,7.911a1.835,1.835,0,0,0,1.186-.365l9.8-7.395c.092-.422-.322-.334-.617-.455a14.492,14.492,0,0,0-3.85-1.109c-.416.061.125,1.778-1.6,1.869-2.66.141-1.405-3.183-1.673-4.948m-41.2,4.026H12.33V68.9c3.507.071,4.478.661,4.031-3.411M43.934,79.435c-1.466.065-2.259.757-3.57-.3-1.88-1.522-1.239-8.963-2.01-11.469-.895.5-5.319,4.447-5.224,5.055A26.232,26.232,0,0,1,36.2,78.343a32.344,32.344,0,0,1,1.852,7.133v5.732h5.887Zm22.928-3.1.616-8.057c-1.2,1.3-8.225,5.618-8.669,6.665-.283.666.518.411.78.447,2.422.331,4.828.814,7.273.945m-16.423-.933c.145-.594-.217-.6-.52-.872a70.187,70.187,0,0,0-6.643-5.13c-.281-.19-1.281-1.072-1.509-.811l.617,7.746ZM16.361,72H12.33v2.172h4.031Zm36.557,6.2c-.806-.106-5.887.538-5.887,1.084V91.208h5.887Zm8.985.62-5.887-.62V91.208H61.9ZM52.919,94.306H38.047c.022.581-.215,3.1.465,3.1H52.919Zm18.279,0H56.017c.1.735-.279,2.566.29,2.963.955.667,12.3-.192,14.383.092.894-.293.393-2.255.508-3.055" transform="translate(0 0)" fill="#060504"/>
        <path id="Trazado_1269374" data-name="Trazado 1269374" d="M6.655,215.752c.026-.056.8-.3,1.069-.63,1.134-1.4.142-7.536.48-9.595H22.921a1.806,1.806,0,0,0,1.084-1.084V185.389H37.947v10.534c0,.041-.507.042-.77.3a33.72,33.72,0,0,0-2.79,2.8c-.3.686-.031,1.415-.323,2.156-.251.638-1.915,2.545-2.443,3.444-4.649,7.908-7.145,16.961-10.715,25.379H8.2v-9.45c0-.525-1.5-1-1.549-1.084a26.169,26.169,0,0,1,0-3.718M16.8,214.129c.616-.617.6-2.341-.452-2.651-1.186-.352-3.3-.276-3.686,1.169-.551,2.049,3.222,2.4,4.138,1.483m-.013,2.308a1.688,1.688,0,0,0,.233,3.365c4.114.443,3.683-4.232-.233-3.365" transform="translate(-4.548 -127.951)" fill="#ff9ebf"/>
        <path id="Trazado_1269375" data-name="Trazado 1269375" d="M235.423,251.5a4.354,4.354,0,0,0,1-.069c1.37-.595,2-4.627,3.007-5.937.233-.3.265-.239.634-.188,5.322,8.766,8.453,18.649,12.32,28.115.316.773.461,2.047.7,2.555h-16.73c-.569-5.833.756-13.1.016-18.76a1.772,1.772,0,0,0-1.565-1.688c.137-.569.468-3.891.62-4.028" transform="translate(-162.056 -169.272)" fill="#9fc0f8"/>
        <path id="Trazado_1269376" data-name="Trazado 1269376" d="M74.843,276.075H57.8c3.753-6.923,6.026-16.673,9.55-24.066.4-.849,3.528-6.593,3.928-6.6,5.788,8.977,2.844,20.546,3.563,30.666" transform="translate(-39.894 -169.376)" fill="#9fc0f8"/>
        <path id="Trazado_1269377" data-name="Trazado 1269377" d="M122.711,330.585c.223-1.932-.163-4.218,0-6.2h14.871c.208,1.915-.284,4.361,0,6.2Z" transform="translate(-84.664 -223.886)" fill="#eabb5d"/>
        <path id="Trazado_1269378" data-name="Trazado 1269378" d="M180.711,330.585c.223-1.932-.163-4.218,0-6.2h14.871c.24,1.852-.327,4.458,0,6.2Z" transform="translate(-124.694 -223.886)" fill="#eabb5d"/>
        <path id="Trazado_1269379" data-name="Trazado 1269379" d="M135.407,113.238c.091.06.5,1.549,1.394,1.549H157.1v6.971c0,8.495-8.972,15.477-17.158,14.678-6.558-.64-14.134-7.162-14.134-14.058v-7.591c1.486-.192,4.086.469,5.257-.48.334-.271.573-1.043.63-1.069a25.671,25.671,0,0,1,3.718,0m-3.334,3.793c-1.272,1.273.274,4.317,2.088,2.865,2.264-1.812-.53-4.425-2.088-2.865m18.75,0c-1.458-1.457-3.982.752-2.615,2.618,1.553,2.117,4.153-1.08,2.615-2.618m-9.926,1.531c-1.645.48-1.645,4.716-.217,5.361,3.275,1.478,3.479-6.312.217-5.361m-4.336,7.427a1.652,1.652,0,0,0-.808,2.552c1.184,2.011,5.11,2.623,7.217,2.331,1.583-.219,5.538-2.161,4.23-4.172-1.259-1.936-2.9.344-4.187.806-3.5,1.254-4.875-1.942-6.452-1.517" transform="translate(-86.826 -78.108)" fill="#fee7ec"/>
        <path id="Trazado_1269380" data-name="Trazado 1269380" d="M138.83,88.44a7.317,7.317,0,0,1,0,5.887c-7.319.148-14.71-.237-22,.152l-.618,1.4a25.676,25.676,0,0,0-3.718,0c-.119-1.3-.857-1.658-2.044-1.829-2.6-.376-9.1.582-10.962-.192A3.3,3.3,0,0,1,98,91.146c.213-2.167,2.326-2.591,4.1-2.72,11.179-.81,25.333-.217,36.728.014" transform="translate(-67.632 -60.745)" fill="#ffe19a"/>
        <path id="Trazado_1269381" data-name="Trazado 1269381" d="M160.816,10.7V24.486c0,1.207,1.886,4.626,2.775,5.59.584.634,1.491.9,1.873,1.69H147.8c.978-1.219,2.361-2.11,3.165-3.5a14.582,14.582,0,0,0,1.483-4.714v-12.7a3.108,3.108,0,0,1,.465-.465h7.126c.1,0,.47.411.775.31" transform="translate(-102.01 -7.17)" fill="#eabb5d"/>
        <path id="Trazado_1269382" data-name="Trazado 1269382" d="M126.239,19.389V31.007a10.047,10.047,0,0,1-1.845,3.112,46.957,46.957,0,0,1-4.816,3.859h-4.8c-.27-7.758,3.971-15.87,11.463-18.589" transform="translate(-79.208 -13.382)" fill="#ffe19a"/>
        <path id="Trazado_1269383" data-name="Trazado 1269383" d="M218.858,232.954c-.151.137-.483,3.459-.62,4.028-2.3-.182-1.847,3.469-1.859,4.957H210.8V230.166c1.407.21,2.322.7,3.569-.3,1.942-1.569.928-9.042,2.161-11.468.848.97,4.723,3.741,4.819,4.816.045.5-1.842,3.4-2.238,4.268-.736,1.61-2.446,4.639-.256,5.476" transform="translate(-145.492 -150.731)" fill="#eabb5d"/>
        <path id="Trazado_1269384" data-name="Trazado 1269384" d="M155.438,198.389c.268,1.764-.986,5.089,1.673,4.948,1.728-.092,1.187-1.808,1.6-1.869a14.492,14.492,0,0,1,3.85,1.109c.3.121.709.033.617.455l-9.8,7.395a1.835,1.835,0,0,1-1.186.365c-1.2-.129-8.578-7.035-10.388-7.911,1.15-.427,3.278-1.577,4.467-1.415.221.03.3,2.882,2.66,1.726,1.134-.556.429-3.658.617-4.8Z" transform="translate(-97.872 -136.924)" fill="#fee7ec"/>
        <path id="Trazado_1269385" data-name="Trazado 1269385" d="M117.732,230.162v11.773h-5.887V236.2a32.345,32.345,0,0,0-1.852-7.133,26.233,26.233,0,0,0-3.065-5.627c-.1-.608,4.329-4.555,5.224-5.055.771,2.506.13,9.947,2.01,11.469,1.311,1.061,2.1.369,3.57.3" transform="translate(-73.799 -150.727)" fill="#eabb5d"/>
        <path id="Trazado_1269386" data-name="Trazado 1269386" d="M200.8,24.04c.012-1.545-.01-3.1,0-4.646,4.861,1.707,8.791,6.314,10.365,11.165.129.4.787,2.482.787,2.621v4.8H207.46c-.149,0-1.888-1.539-2.324-1.859-.351-4.239-1.481-8.844-4.337-12.083" transform="translate(-138.586 -13.385)" fill="#eabb5d"/>
        <path id="Trazado_1269387" data-name="Trazado 1269387" d="M186.689,253.009V265.4H180.8V252.389Z" transform="translate(-124.786 -174.194)" fill="#eabb5d"/>
        <path id="Trazado_1269388" data-name="Trazado 1269388" d="M157.69,252.363v13.012H151.8V253.448c0-.547,5.08-1.19,5.887-1.084" transform="translate(-104.771 -174.168)" fill="#eabb5d"/>
        <path id="Trazado_1269389" data-name="Trazado 1269389" d="M195.911,304.389c-.115.8.386,2.761-.508,3.055-2.081-.284-13.428.575-14.383-.092-.569-.4-.192-2.228-.29-2.963Z" transform="translate(-124.713 -210.083)" fill="#ffe19a"/>
        <path id="Trazado_1269390" data-name="Trazado 1269390" d="M137.624,304.389v3.1H123.217c-.68,0-.443-2.517-.465-3.1Z" transform="translate(-84.705 -210.083)" fill="#ffe19a"/>
        <path id="Trazado_1269391" data-name="Trazado 1269391" d="M229.8,89.282c2.4.049,7.765-.787,7.765,2.943S232.2,95.12,229.8,95.169a7.317,7.317,0,0,0,0-5.887" transform="translate(-158.605 -61.588)" fill="#eabb5d"/>
        <path id="Trazado_1269392" data-name="Trazado 1269392" d="M197.732,228.447c-2.445-.131-4.851-.613-7.273-.944-.262-.036-1.063.219-.78-.447.445-1.048,7.473-5.363,8.669-6.665Z" transform="translate(-130.871 -152.108)" fill="#9fc0f8"/>
        <path id="Trazado_1269393" data-name="Trazado 1269393" d="M143.48,228.1l-8.055.933-.617-7.746c.229-.261,1.229.622,1.509.811a70.131,70.131,0,0,1,6.643,5.13c.3.275.665.278.52.872" transform="translate(-93.042 -152.695)" fill="#9fc0f8"/>
        <path id="Trazado_1269394" data-name="Trazado 1269394" d="M204.913,46.472c-5.38-3.949-4.385-5.752-4.338-12.083,2.857,3.239,3.986,7.844,4.338,12.083" transform="translate(-138.362 -23.735)" fill="#ffe19a"/>
        <path id="Trazado_1269395" data-name="Trazado 1269395" d="M107.155,118.294v5.887a4.15,4.15,0,0,1-3.674-5.379c.308-.941,2.8-.356,3.674-.508" transform="translate(-71.277 -81.614)" fill="#fee7ec"/>
        <path id="Trazado_1269396" data-name="Trazado 1269396" d="M236.8,118.218c2.291.193,3.872-1,3.747,2.017a4.025,4.025,0,0,1-3.747,3.87Z" transform="translate(-163.436 -81.538)" fill="#fee7ec"/>
        <path id="Trazado_1269398" data-name="Trazado 1269398" d="M36.2,285.36c3.916-.868,4.346,3.807.233,3.365a1.688,1.688,0,0,1-.233-3.365" transform="translate(-23.956 -196.875)" fill="#060504"/>
        <path id="Trazado_1269399" data-name="Trazado 1269399" d="M30.222,271.854c-.917.92-4.689.567-4.138-1.483.389-1.444,2.5-1.52,3.686-1.169,1.048.311,1.068,2.034.453,2.652" transform="translate(-17.964 -185.676)" fill="#060504"/>
        <path id="Trazado_1269400" data-name="Trazado 1269400" d="M158.071,154.414c1.577-.425,2.949,2.77,6.452,1.517,1.291-.462,2.928-2.742,4.187-.806,1.308,2.011-2.647,3.953-4.23,4.172-2.107.292-6.033-.32-7.217-2.331a1.652,1.652,0,0,1,.808-2.552" transform="translate(-108.335 -106.534)" fill="#060504"/>
        <path id="Trazado_1269401" data-name="Trazado 1269401" d="M171.713,130.39c3.262-.951,3.058,6.838-.217,5.361-1.428-.644-1.428-4.881.217-5.361" transform="translate(-117.641 -89.936)" fill="#060504"/>
        <path id="Trazado_1269402" data-name="Trazado 1269402" d="M199.86,124.578c1.539,1.538-1.062,4.735-2.615,2.618-1.368-1.865,1.157-4.074,2.615-2.618" transform="translate(-135.863 -85.655)" fill="#060504"/>
        <path id="Trazado_1269403" data-name="Trazado 1269403" d="M145,124.568c1.558-1.56,4.352,1.053,2.088,2.866-1.814,1.452-3.36-1.592-2.088-2.866" transform="translate(-99.757 -85.645)" fill="#060504"/>
      </g>
    </g>
  </g>
</svg>
