<svg xmlns="http://www.w3.org/2000/svg" xmlns:xlink="http://www.w3.org/1999/xlink" width="162.25" height="162.25" viewBox="0 0 162.25 162.25">
  <defs>
    <clipPath id="clip-path">
      <rect id="Rectángulo_459429" data-name="Rectángulo 459429" width="63.085" height="90" fill="#6a2874"/>
    </clipPath>
  </defs>
  <g id="Grupo_1208374" data-name="Grupo 1208374" transform="translate(-305.146 -10012.459)">
    <g id="Grupo_1177470" data-name="Grupo 1177470" transform="translate(305.146 10012.421)">
      <circle id="Elipse_13609" data-name="Elipse 13609" cx="81.125" cy="81.125" r="81.125" transform="translate(0 0.038)" fill="#f6e1fe"/>
      <g id="Grupo_1207827" data-name="Grupo 1207827" transform="translate(35.635 35.96)">
        <g id="Grupo_1099618" data-name="Grupo 1099618" transform="translate(0.365 0.078)">
          <rect id="Rectángulo_401104" data-name="Rectángulo 401104" width="90" height="90" transform="translate(0)" fill="none"/>
        </g>
        <g id="Grupo_1209178" data-name="Grupo 1209178" transform="translate(13.365 0.078)">
          <g id="Grupo_1209177" data-name="Grupo 1209177" clip-path="url(#clip-path)">
            <path id="Trazado_1269212" data-name="Trazado 1269212" d="M6.317.068,56.287,0a7.492,7.492,0,0,1,6.388,5.161c.824,25.833.108,51.849.362,77.75a7.529,7.529,0,0,1-5.173,6.65c-17.441.585-35.2.586-52.641,0A7.33,7.33,0,0,1,.41,84.749C-.4,58.829.285,32.724.062,6.737A7.534,7.534,0,0,1,6.317.068m.269,3.019A4.455,4.455,0,0,0,3.271,6.1l-.2,76.54A4.4,4.4,0,0,0,7.334,86.9H55.752a4.4,4.4,0,0,0,4.262-4.262V7.272A4.4,4.4,0,0,0,55.752,3.01Z" transform="translate(0)" fill="#6a2874"/>
            <path id="Trazado_1269213" data-name="Trazado 1269213" d="M25.4,21.487a85.163,85.163,0,0,1,12.837-.039c2.229.315,3.092,2.629,4.481,2.943,1.156.261,9.515.181,10.356-.252,1.209-.623,1.772-2.305,3.673-2.651a81.56,81.56,0,0,1,12.591-.07A4.562,4.562,0,0,1,73.06,25.4V95.267a4.47,4.47,0,0,1-3.987,3.987l-43.191-.007a4.563,4.563,0,0,1-3.72-3.98l.008-70.138A4.875,4.875,0,0,1,25.4,21.487m.542,3.017L25.337,25v70.67l.607.493,43.529-.081.493-.607L69.885,25c-.254-.458-.62-.5-1.088-.561a82.1,82.1,0,0,0-11.28.019c-.78.149-1.878,1.793-2.92,2.3-2.238,1.1-11.725,1.1-13.97,0-1.2-.588-1.748-1.771-2.92-2.3Z" transform="translate(-16.068 -15.377)" fill="#6a2874"/>
            <path id="Trazado_1269214" data-name="Trazado 1269214" d="M105.12,15.681c1.631-.468,5.936-.263,4.617,2.419-.379.772-4.411.743-5.088.412-1.009-.493-.646-2.51.472-2.83" transform="translate(-75.444 -11.227)" fill="#6a2874"/>
            <path id="Trazado_1269215" data-name="Trazado 1269215" d="M57.76,106.089a11.826,11.826,0,0,0-1.7,2,4.882,4.882,0,0,0,6.263,6.537c1.874-.8,4.071-5.094,6.127-4.49,1.242.365,6.3,6.747,7.9,7.788,1.413,1.641-2.288,4.7-3.574,5.779a13.925,13.925,0,0,1-13.942,2.661c-3.289-1.211-12.562-10.258-14.075-13.423a13.738,13.738,0,0,1,2.025-14.955,47.7,47.7,0,0,1,3.837-3.86,1.714,1.714,0,0,1,1.956,0l7.764,7.924c.827,1.7-1.627,3.011-2.578,4.036m-6.265-8.354c-.293.049-.834.618-.6,1.08.622,1.237,4.043,3.561,4.965,4.944l.841-.82v-.545c-.719-.656-4.6-4.76-5.2-4.659M48.3,100.742c-2.261,3.874-2.663,8-.23,11.912,1.4,2.259,8.953,9.692,11.306,10.691,2.423,1.029,8.325,1.208,10.1-1.013.344-.43.253-.173,0-.556A54.208,54.208,0,0,0,64.6,117c-.75-.084-1.251.544-1.945.711-7.188,1.728-12.231-5.323-8.988-11.752ZM67.719,113.96c-.295.049-.834.617-.6,1.079.622,1.237,4.043,3.561,4.965,4.944l.841-.82v-.545c-.668-.648-4.69-4.744-5.2-4.658" transform="translate(-31.465 -68.024)" fill="#6a2874"/>
            <path id="Trazado_1269216" data-name="Trazado 1269216" d="M47.05,240.217H79.371a5.3,5.3,0,0,1,3.1,2.953,24.963,24.963,0,0,1,.071,5.862,5.206,5.206,0,0,1-2.494,2.73l-33.274.157c-3.347-1.207-3.255-4.736-2.959-7.793a4.672,4.672,0,0,1,3.239-3.91m8.6,2.962H47.537c-.941,0-.908,4.723-.433,5.382a5.209,5.209,0,0,0,.982.667h7.562Zm12.1,0H58.673v6.049h9.074Zm3.025,6.049h7.562a5.209,5.209,0,0,0,.982-.667c.476-.659.508-5.382-.433-5.382H70.772Z" transform="translate(-31.668 -174.164)" fill="#6a2874"/>
            <path id="Trazado_1269217" data-name="Trazado 1269217" d="M119.232,65.126c12.315-1.158,15.987,16.959,4.033,20.531-14.839,4.433-19.047-19.119-4.033-20.531m0,3.02c-9.435,1.147-8.03,15.6,1.294,15.057,10.147-.586,8.9-16.3-1.294-15.057" transform="translate(-79.64 -47.18)" fill="#6a2874"/>
            <path id="Trazado_1269218" data-name="Trazado 1269218" d="M136.017,87.107a1.577,1.577,0,0,1,1.592,2.148L130.862,96l-.655.139c-1.4-.708-5.468-3.812-4.133-5.488,1.629-2.045,3.646,1.735,4.345,1.613,1.3-.817,4.367-4.967,5.6-5.161" transform="translate(-91.215 -63.143)" fill="#6a2874"/>
          </g>
        </g>
      </g>
    </g>
    <ellipse id="Elipse_13678" data-name="Elipse 13678" cx="19.243" cy="19.243" rx="19.243" ry="19.243" transform="translate(305.965 10136.186)" fill="#da9dfe"/>
    <g id="Grupo_1207826" data-name="Grupo 1207826" transform="translate(305.146 10138.641)">
      <path id="Trazado_998481" data-name="Trazado 998481" d="M0,13.854q4.835.419,9.664.868l-.27.112,1.389-2.491a.373.373,0,0,1,.426-.131.271.271,0,0,1,.2.185l0,.01,1.186,5.359L11.7,17.7l1.915-4.337,1.934-4.332,1.94-4.33L19.452.377A.822.822,0,0,1,20.394.03.578.578,0,0,1,20.9.6V.609l-.77,7.01-.812,7.007-.823,7.006-.854,7L16.044,28.4c1.235-2.953,2.506-5.9,3.765-8.845l1.893-4.42,1.917-4.414,0-.011a.7.7,0,0,1,.8-.305.505.505,0,0,1,.439.47l-.29,5.628-.314,5.627-.826-.118,2.776-5.324,0-.009a.291.291,0,0,1,.3-.125l5.25.671,5.247.689-5.291-.467-5.287-.485.3-.133-2.494,5.4a.472.472,0,0,1-.54.2.338.338,0,0,1-.286-.3v-.012l.079-5.631.1-5.631L24.836,11,23.051,15.45l-1.809,4.44c-1.209,2.959-2.407,5.921-3.64,8.874a.892.892,0,0,1-1.022.4c-.373-.087-.6-.356-.57-.635v0l.812-7.007.842-7,.854-7,.9-7,1.444.232-2.048,4.3-2.069,4.3-2.074,4.3-2.093,4.29-.005.011a.513.513,0,0,1-.588.2.382.382,0,0,1-.3-.278l-.924-5.388.624.063L9.86,14.986l0,.007a.273.273,0,0,1-.265.1q-4.8-.609-9.59-1.244" transform="translate(0 4.51) rotate(-7)" fill="#fff"/>
    </g>
  </g>
</svg>
