<svg xmlns="http://www.w3.org/2000/svg" xmlns:xlink="http://www.w3.org/1999/xlink" width="96" height="96" viewBox="0 0 96 96">
  <defs>
    <clipPath id="clip-path">
      <rect id="Rectángulo_455595" data-name="Rectángulo 455595" width="96" height="96" fill="none"/>
    </clipPath>
    <clipPath id="clip-path-2">
      <rect id="Rectángulo_459577" data-name="Rectángulo 459577" width="52.1" height="54.298" fill="#fff"/>
    </clipPath>
  </defs>
  <g id="Grupo_1208699" data-name="Grupo 1208699" transform="translate(-735.746 -9118)">
    <g id="Grupo_1180407" data-name="Grupo 1180407" transform="translate(735.746 9117.971)">
      <g id="Grupo_1179172" data-name="Grupo 1179172" transform="translate(0 0.03)" clip-path="url(#clip-path)">
        <path id="Trazado_998483" data-name="Trazado 998483" d="M92.627,52.5A40.125,40.125,0,1,1,52.5,12.377,40.125,40.125,0,0,1,92.627,52.5" transform="translate(-4.488 -4.517)" fill="#8d1939"/>
        <path id="Trazado_998485" data-name="Trazado 998485" d="M90.973,46.487A44.486,44.486,0,1,1,46.487,2,44.486,44.486,0,0,1,90.973,46.487Z" transform="translate(1.527 1.499)" fill="none" stroke="#8d1939" stroke-miterlimit="10" stroke-width="4"/>
      </g>
    </g>
    <g id="Grupo_1180408" data-name="Grupo 1180408" transform="translate(755.746 9137)">
      <g id="Grupo_1099618" data-name="Grupo 1099618" transform="translate(1.349 1.365)">
        <rect id="Rectángulo_401104" data-name="Rectángulo 401104" width="53.651" height="54.298" transform="translate(0)" fill="none"/>
      </g>
      <g id="Grupo_1209427" data-name="Grupo 1209427" transform="translate(2.301 1.365)">
        <g id="Grupo_1209426" data-name="Grupo 1209426" transform="translate(0 0)" clip-path="url(#clip-path-2)">
          <path id="Trazado_1270160" data-name="Trazado 1270160" d="M25.979,11.672,31.36.8a2.832,2.832,0,0,1,4.733,1.459c-.761,8-2.357,15.927-3.239,23.926l1.989,4.085a5.422,5.422,0,0,1,2.08.41c1.086.636,1.547,2.667,2.971,2.628a9.781,9.781,0,0,1,3.509.226c.591.157,2.214.608,2.144,1.377-.137,1.5-2.5.063-3.325-.041-1.652-.206-2.959.462-4.425-.709-.858-.685-1.288-2.309-2.4-2.273l-5.27,2.373a1.279,1.279,0,0,0-.7,1.257c1.972,3.735,3.426,8.12,5.547,11.736,2.485,4.236,7.411,7.234,12.088,4.256,4.843-3.084,4.037-8.986.917-13.06-.505-.66-1.7-1.24-1.232-2.192.782-1.58,3.211,2.214,3.566,2.814,6.5,10.991-6.194,20.7-14.77,11.658-2.318-2.445-5.739-10.094-7.1-13.433a4.317,4.317,0,0,1-.56-2.637c.063-.3.415-.6.358-.9a24.145,24.145,0,0,0-1.2-2.529c-.679-.958-1.173-1.015-1.905-.09a20.412,20.412,0,0,0-1.306,2.441c-.092.47.831,1.784.33,2.5-3.335,6.119-5.385,16.279-13.269,18a8.7,8.7,0,0,1-8.868-3.121c-5.433-6.69.928-17.637,9.094-17.822.717-.016,1.183.341,1.85-.009,1.243-.651,1.384-2.785,3.151-2.93.384-.032.926.223,1.148.082a36.063,36.063,0,0,0,1.9-3.865,1.287,1.287,0,0,0,.128-.649l-1.8-12.307c.077-.849,1.469-1.039,1.6-.108L21.2,27.888c.671,2.594,2.274,1.078,3.764.9,2.856-.349,3.6,1.726,4.535,3.906l3.788-1.575c.169-.2-1.775-4.151-2.039-4.717-3.812-8.18-7.74-16.315-11.643-24.452a1.185,1.185,0,0,0-1.993.5,8.012,8.012,0,0,0,.145,1.966c.187,1.639.933,4.29.888,5.786-.026.859-1.02.889-1.533.421-.221-2.312-.95-4.831-1.086-7.121a3.063,3.063,0,0,1,.466-2.331,2.829,2.829,0,0,1,4.1-.522C22.739,4.1,24.2,8,25.979,11.672m5.6,11.669,2.962-20.31a1.187,1.187,0,0,0-2.214-.8l-5.352,11.39Zm-11.669,5.6c-.353-.065-.247.019-.345.2a10.053,10.053,0,0,0-.742,1.978l3.739,1.493.772-1.647a2.993,2.993,0,0,1-3.424-2.023m-3.619,2.986c-.854.186-1.414,2.432-3.065,2.852-1.948.5-3.2-.285-5.557.822-4.907,2.3-8.165,9.654-4.4,14.26,3.079,3.768,7.75,3.6,11.279.553,2.811-2.43,6.13-10.162,7.675-13.8.492-1.156.881-1.713-.436-2.475a38.5,38.5,0,0,0-4.671-2.175,1.521,1.521,0,0,0-.825-.042" transform="translate(0 0)" fill="#fff"/>
          <path id="Trazado_1270161" data-name="Trazado 1270161" d="M247.531,249.2c5.276-.37,7.812,8.9,2.836,10.317-6.25,1.776-9.185-9.872-2.836-10.317m-.323,1.713c-3.486.646-1.052,8.547,2.931,6.976,2.8-1.1.954-7.7-2.931-6.976" transform="translate(-206.025 -210.417)" fill="#fff"/>
          <path id="Trazado_1270162" data-name="Trazado 1270162" d="M157.342,139.575c3.215,0,3.355,4.766.158,4.9-3.393.146-3.422-4.9-.158-4.9m.663,3.145a.9.9,0,0,0-1.14-1.372c-1.12.686.319,2.193,1.14,1.372" transform="translate(-130.821 -117.859)" fill="#fff"/>
          <path id="Trazado_1270163" data-name="Trazado 1270163" d="M40.63,250.367c3.205,3.253-.405,10.42-5.114,9.236-2.9-.728-3.307-4.365-2.326-6.752,1.137-2.765,4.934-5.028,7.44-2.484m-3.565.6c-2.6.537-4.2,6.678-.955,7.107,4.449.589,6.013-8.149.955-7.107" transform="translate(-27.622 -210.478)" fill="#fff"/>
        </g>
      </g>
    </g>
  </g>
</svg>
