<svg xmlns="http://www.w3.org/2000/svg" xmlns:xlink="http://www.w3.org/1999/xlink" width="96" height="96" viewBox="0 0 96 96">
  <defs>
    <clipPath id="clip-path">
      <rect id="Rectángulo_455595" data-name="Rectángulo 455595" width="96" height="96" fill="none"/>
    </clipPath>
    <clipPath id="clip-path-2">
      <rect id="Rectángulo_459580" data-name="Rectángulo 459580" width="50.035" height="50.215" fill="#fff"/>
    </clipPath>
  </defs>
  <g id="Grupo_1208695" data-name="Grupo 1208695" transform="translate(-735.746 -9118)">
    <g id="Grupo_1180407" data-name="Grupo 1180407" transform="translate(735.746 9117.971)">
      <g id="Grupo_1179172" data-name="Grupo 1179172" transform="translate(0 0.03)" clip-path="url(#clip-path)">
        <path id="Trazado_998483" data-name="Trazado 998483" d="M92.627,52.5A40.125,40.125,0,1,1,52.5,12.377,40.125,40.125,0,0,1,92.627,52.5" transform="translate(-4.488 -4.517)" fill="#8d1939"/>
        <path id="Trazado_998485" data-name="Trazado 998485" d="M90.973,46.487A44.486,44.486,0,1,1,46.487,2,44.486,44.486,0,0,1,90.973,46.487Z" transform="translate(1.527 1.499)" fill="none" stroke="#8d1939" stroke-miterlimit="10" stroke-width="4"/>
      </g>
    </g>
    <g id="Grupo_1180408" data-name="Grupo 1180408" transform="translate(755.746 9137)">
      <g id="Grupo_1099618" data-name="Grupo 1099618" transform="translate(0 -0.168)">
        <rect id="Rectángulo_401104" data-name="Rectángulo 401104" width="56.349" height="57.028" transform="translate(0)" fill="none"/>
      </g>
      <g id="Grupo_1209433" data-name="Grupo 1209433" transform="translate(3 3.832)">
        <g id="Grupo_1209432" data-name="Grupo 1209432" clip-path="url(#clip-path-2)">
          <path id="Trazado_1270170" data-name="Trazado 1270170" d="M4.728,49.506a1.329,1.329,0,0,1-.374.487,11.238,11.238,0,0,1-4.009.024A.823.823,0,0,1,0,49.5L.071.544.43.186l17.7-.072c.69.131.544.854.718,1.289a1.571,1.571,0,0,0,2.973-.041c.212-.53,0-1.209.765-1.237C26.327.353,30.513-.225,34.2.1A1.156,1.156,0,0,1,35.055.4c.164.459.121,1.189-.46,1.257l-11.014.033c-.47.091-.428.953-.925,1.231l.061.208A4.824,4.824,0,0,1,24.959,6.4a6.354,6.354,0,0,1,7.153,6.111c-.579,5.018.936,12.422-.358,17.13-.637,2.317-3.636,5.593-6.164,5.593H22.651l-.006,1.482c1.27.208,1.02,3.447.561,4.162a2.21,2.21,0,0,1-2.132.664c-.362,3.122.62,6.662,4.232,7.025,9.037.909,4.749-9.949,6.193-14.738,1.317-4.37,8.491-4.346,9.753.084.1.352.152,1.529.2,1.589.039.045.335.037.481.157a2.729,2.729,0,0,1,1.04,1.546,32.055,32.055,0,0,1,.022,5.4,2.855,2.855,0,0,1-.583,1.281c-.72.82-1.153.251-.965,1.871.429,3.7,6.228,3.864,6.975.268l.038-17.885a.8.8,0,0,1,1.57,0l0,17.774c-.54,5.436-9.271,6.061-10.177-.144a7.559,7.559,0,0,0-.025-1.122c-.153-.451-1.389-.7-1.554-2.174a31.871,31.871,0,0,1,.013-5.007,2.511,2.511,0,0,1,1.573-2.043c-.077-2.632-1.977-3.474-4.382-3.2a3.088,3.088,0,0,0-2.615,2.547c-.5,3.41.782,8.94-.677,11.941-2.258,4.644-9.657,4.623-11.958.045a10.541,10.541,0,0,1-.737-5.214c-.994.111-2.06-.142-2.261-1.252a9.423,9.423,0,0,1,.124-3.106c.13-.2.462-.255.536-.467a10.965,10.965,0,0,0,.023-1.483H14.98a10.889,10.889,0,0,1-2.368-.93A7.855,7.855,0,0,1,8.594,28c-.385-5.129.3-10.738.008-15.919a6.393,6.393,0,0,1,5.247-5.65c.437-.05,1.656.111,1.852-.156a5.419,5.419,0,0,1,2.2-3.248l-.555-1.343H4.728ZM3.151,1.688H1.573V48.574H3.151ZM23.224,6.42c-.52-3.236-5.214-3.137-5.879,0ZM13.867,8.031a4.759,4.759,0,0,0-3.675,3.924c.281,5.206-.429,10.9-.021,16.048a6.517,6.517,0,0,0,5.107,5.646,66.881,66.881,0,0,0,9.88.011c2.916-.289,5.187-3.112,5.376-5.951-.287-4.888.39-10.223.007-15.058a4.911,4.911,0,0,0-3.817-4.643c-3.938.383-9.06-.569-12.858.022m7.207,27.207L19.63,35.3c-.271.189-.082,1.161-.135,1.515h1.579Zm20.36,4.016c.471-3.26-2.052-3.248-1.579,0Zm-19.5-.861H18.779v1.577h3.154Zm19.5,2.437H39.856c-.46,3.05,2.067,3.078,1.579,0" transform="translate(0 0)" fill="#fff"/>
          <path id="Trazado_1270171" data-name="Trazado 1270171" d="M92.5,91.082c.151-.538,1.352-.567,1.547.317.378,1.722-.215,4.571.024,6.428.031.244.054.435.293.568l10.372-.061c.223-.142.225-.553.245-.794a100.794,100.794,0,0,0,0-12.917,1.389,1.389,0,0,0-.183-.748l-10.434-.106c-.239.133-.261.323-.293.568-.124.96.309,4.072-.285,4.589a.76.76,0,0,1-1.282-.428,30.873,30.873,0,0,1,.006-4.575A2.584,2.584,0,0,1,94.3,82.13c3.238.237,7-.349,10.171-.01a2.365,2.365,0,0,1,2.085,2.5c.32,4.253-.252,8.9-.006,13.2a2.341,2.341,0,0,1-2.079,2.222c-3.138.336-6.84-.254-10.04,0-.6.094-1.932-1.212-1.932-1.652Z" transform="translate(-79.172 -70.252)" fill="#fff"/>
          <path id="Trazado_1270172" data-name="Trazado 1270172" d="M115.288,169.827l6.56-.028a.8.8,0,0,1,0,1.57c-1.977-.2-4.536.288-6.439-.006a1.132,1.132,0,0,1-.515-.2c-.294-.485-.259-1.227.394-1.334" transform="translate(-98.269 -145.453)" fill="#fff"/>
          <path id="Trazado_1270173" data-name="Trazado 1270173" d="M122.384,148.733c-.439.44-6.04.038-7.059.173-.809-.152-.641-1.423.143-1.569,1.949.161,4.263-.229,6.165-.007.766.089,1.326.826.751,1.4" transform="translate(-98.334 -126.146)" fill="#fff"/>
        </g>
      </g>
    </g>
  </g>
</svg>
