<svg xmlns="http://www.w3.org/2000/svg" xmlns:xlink="http://www.w3.org/1999/xlink" width="69" height="69" viewBox="0 0 69 69">
  <defs>
    <clipPath id="clip-path">
      <rect id="Rectángulo_459642" data-name="Rectángulo 459642" width="37" height="40" transform="translate(0 0.334)" fill="#fff"/>
    </clipPath>
  </defs>
  <g id="Grupo_1208502" data-name="Grupo 1208502" transform="translate(-305.059 -11337.508)">
    <circle id="Elipse_13679" data-name="Elipse 13679" cx="34.5" cy="34.5" r="34.5" transform="translate(305.059 11337.508)" fill="#6a2874"/>
    <g id="Grupo_1209448" data-name="Grupo 1209448" transform="translate(321.059 11352.507)">
      <g id="Grupo_1209447" data-name="Grupo 1209447" transform="translate(0 -0.333)" clip-path="url(#clip-path)">
        <path id="Trazado_1270419" data-name="Trazado 1270419" d="M21.314.041a3.419,3.419,0,0,1,3.9,3.926c-.072.914-.947,2.923-.235,3.567a13.207,13.207,0,0,0,2.429.764,32.416,32.416,0,0,1,7.409,4.237c1.385,1.093,1.46,2.17,1.67,3.824.151,1.191.555,4.393.2,5.367a2.8,2.8,0,0,1-4.34,1.095c-1.595-1.272-.917-4.381-1.5-6.171l-3.464-1.9c-.854-.255-1.391.252-1.57,1.063a41.862,41.862,0,0,0-.709,5.022c-.207,3.381,3.031,6.621,2.85,10.445a40.492,40.492,0,0,1-.974,7.049,2.76,2.76,0,0,1-5.281-.643c-.2-1.659.562-3.816.561-5.5,0-3.021-2.621-5.61-4.046-8.081l-5.637,4.758c-2.5,2.072-1.662,5.524-2.445,8.207-.876,3-5.583,2.526-5.409-1.321.079-1.751.623-6.505,1.322-7.96,1.146-2.383,4.258-4.03,5.908-6.094,1.479-1.851,1.1-5.224,1.63-7.487-.185-.527-.36-.768-.948-.785-2.241-.065-4.351,2.372-6.925.563A55.337,55.337,0,0,1,.342,8.493,2.379,2.379,0,0,1,3.864,5.4L8.073,8.958c2.272-.756,4.776-2.439,7.178-2.635.847-.069,2.23.334,2.617-.575.859-2.019.222-5.241,3.445-5.707" transform="translate(-0.001 0.292)" fill="#fff"/>
      </g>
    </g>
  </g>
</svg>
