<svg id="Grupo_1209456" data-name="Grupo 1209456" xmlns="http://www.w3.org/2000/svg" xmlns:xlink="http://www.w3.org/1999/xlink" width="292" height="292" viewBox="0 0 292 292">
  <defs>
    <clipPath id="clip-path">
      <rect id="Rectángulo_459646" data-name="Rectángulo 459646" width="292" height="292" fill="none"/>
    </clipPath>
  </defs>
  <g id="Grupo_1209455" data-name="Grupo 1209455" clip-path="url(#clip-path)">
    <path id="Trazado_1270449" data-name="Trazado 1270449" d="M96.11,22.845h.618c-.173-.072-.342-.145-.5-.219-.033.074-.072.147-.113.219" transform="translate(-2.129 -0.501)" fill="#ffe3ec"/>
    <path id="Trazado_1270450" data-name="Trazado 1270450" d="M14.842,44.429H0V60.874l14.013.027Z" transform="translate(0 -0.984)" fill="#ffe3ec"/>
    <path id="Trazado_1270451" data-name="Trazado 1270451" d="M30.47,30.693l20.987.416-.086,5.364c5.134.64,8.6,1.854,8.6,3.246s-3.513,2.623-8.7,3.259l-.521,32.278,9.969.712,1.068,31.33,33.822.712L94.71,27.536H76.388v-.16c-2.618-.464-4.525-1.885-4.525-3.566,0-2.058,2.856-3.728,6.38-3.728a9.929,9.929,0,0,1,3.373.564c.425-1.817,3.091-3.217,6.319-3.217a9.811,9.811,0,0,1,3.558.633,7.63,7.63,0,0,1,3.088-2.011l-.046-4.168,17.493-.109.025,1.011c3.033-.221,6.275-.342,9.645-.342,16.92,0,30.636,3.023,30.636,6.751a1.833,1.833,0,0,1-.4,1.093c1.738-.133,3.6-.205,5.546-.205,9.341,0,16.914,1.669,16.914,3.728,0,1.581-4.471,2.933-10.779,3.473v.253H112.433l1.328,51.635,11.741.244,2.431-48.3,35.958.712-.458,28.36,44.069.281L206.971,12.6l17.492-.109L225.7,60.585l18.178.115.831-27.447L274.971,36.1l-.506,45.977,2.159.014a10.206,10.206,0,0,1,4.262.956l1.348-71.216H244.994V11.67c-2.619-.464-4.525-1.885-4.525-3.566,0-2.058,2.856-3.727,6.379-3.727a9.907,9.907,0,0,1,3.374.564c.425-1.818,3.091-3.218,6.319-3.218a9.818,9.818,0,0,1,3.558.634A8.985,8.985,0,0,1,264.072,0H0V28.544c2.332-.125,4.769-.192,7.276-.192,9.269,0,17.576.907,23.194,2.34" fill="#ffe3ec"/>
    <path id="Trazado_1270452" data-name="Trazado 1270452" d="M268.536,6.783h.618c-.173-.072-.342-.145-.5-.219-.033.074-.072.147-.113.219" transform="translate(-5.948 -0.145)" fill="#ffe3ec"/>
    <path id="Trazado_1270453" data-name="Trazado 1270453" d="M93.121,18.425a9.81,9.81,0,0,0-3.558-.634c-3.228,0-5.894,1.4-6.319,3.218a9.929,9.929,0,0,0-3.373-.564c-3.524,0-6.38,1.668-6.38,3.727,0,1.682,1.907,3.1,4.525,3.566v.16H96.337l-.128-11.485a7.623,7.623,0,0,0-3.088,2.011m2.488,4.282c.041-.072.08-.145.113-.219.162.074.331.147.5.219Z" transform="translate(-1.628 -0.364)" fill="#fff"/>
    <path id="Trazado_1270454" data-name="Trazado 1270454" d="M166.152,27.817v-.252c6.309-.542,10.78-1.893,10.78-3.474,0-2.058-7.572-3.727-16.914-3.727-1.943,0-3.81.072-5.547.205a1.84,1.84,0,0,0,.4-1.094c0-3.729-13.716-6.75-30.636-6.75-3.37,0-6.612.12-9.645.341l.379,14.751Z" transform="translate(-2.538 -0.282)" fill="#fff"/>
    <path id="Trazado_1270455" data-name="Trazado 1270455" d="M61.132,40.543c0-1.392-3.466-2.606-8.6-3.245l-.1,6.5c5.191-.637,8.7-1.857,8.7-3.259" transform="translate(-1.161 -0.826)" fill="#fff"/>
    <path id="Trazado_1270456" data-name="Trazado 1270456" d="M15.5,31.038l14.971.3c-5.618-1.433-13.925-2.34-23.194-2.34-2.507,0-4.944.066-7.276.193v14.9H14.842Z" transform="translate(0 -0.642)" fill="#fff"/>
    <path id="Trazado_1270457" data-name="Trazado 1270457" d="M265.547,2.356a9.814,9.814,0,0,0-3.558-.634c-3.228,0-5.893,1.4-6.319,3.218a9.929,9.929,0,0,0-3.373-.564c-3.524,0-6.38,1.668-6.38,3.727,0,1.682,1.906,3.1,4.524,3.566v.161h37.242L287.9.537l9.55.111V0H269.519a8.985,8.985,0,0,0-3.972,2.357m2.488,4.282c.041-.072.08-.145.113-.219.162.074.331.147.5.219Z" transform="translate(-5.447 0)" fill="#fff"/>
    <path id="Trazado_1270458" data-name="Trazado 1270458" d="M33.443,134.824A21.411,21.411,0,0,1,40,132.6l1.359-19.65H54l-.712,20.274-7.612.176a7.6,7.6,0,0,1,1.9,1.425h67.883l.148-11.546h7.7l-.582,11.546h7.959l0-.542h-1.2V123.6h1.267l.009-1.264h-2.494v-8.593s1.282-.028,2.548-.042l.34-53.45,4.729.03.156-6.135h2.811V60.3l3.3.021.155-6.077h2.811v6.1l3.3.021.155-6.117H151.4v6.137l3.3.021.154-6.06h2.812v6.078l5.769.037.458-28.36-35.958-.712-2.432,48.3-11.741-.244L112.434,27.8l-.379-14.751-.026-1.011-17.492.109.046,4.168L94.711,27.8l.894,80.473-33.823-.712-1.068-31.33-9.968-.712.52-32.278.106-6.506.086-5.364L30.47,30.959l-14.971-.3-.657,13.048-.829,16.473L0,60.157v4.131H1.761L1.834,67.8H0v2.931H2.054l.073,3.516H0v2.856H2.64l.073,3.517H0v2.99H2.535l.073,3.516H0v2.931H2.828L2.9,93.579H0v2.857H3.414l.073,3.516H0v34.871ZM136.337,51.139l.291-11.44h2.811V50.946Zm6.269.1L142.9,39.8h2.811V51.043Zm6.27,0,.29-11.44h2.811V51.043ZM124.7,95.7h-1.2l-.439-3.516h1.82Zm-.617,6.374-.44-3.516h.913l-.177,3.516ZM125.2,85.738l-.177,3.516H123.2l-.44-3.516Zm-4.267,16.218h-3.736l-.439-3.516h4.1Zm-.586-6.373h-3.736l-.44-3.516h4.1Zm-.367-9.963.073,3.516h-3.736l-.439-3.516ZM108.4,27.521l-3.1.194.291-11.44H108.4ZM99.32,16.178h2.812V27.424l-3.1.195Zm0,33.591h2.812V61.016l-3.1.194Zm-.29-5.653.29-11.439h2.812V43.923Zm11.241,90.035-8.368-.309.178-12.072h8.19ZM105.59,49.866H108.4V61.112l-3.1.194Zm-.291-5.652.291-11.44H108.4V44.02Zm1.86,54.3.072,3.516H103.5l-.44-3.516Zm-4.25-2.856-.439-3.517h4.1l.073,3.517Zm3.371-9.963.072,3.516h-3.735l-.44-3.516ZM113.9,98.439l.073,3.516h-3.736l-.439-3.516Zm-.512-2.856h-3.736l-.44-3.516h4.1Zm-.293-6.447h-3.736l-.439-3.516h4.1Zm-24.545,32.48h8.191V134l-8.369-.309Zm-13.532-.154h8.191v12.381l-8.369-.31Zm-13.533-.155h8.191v12.382l-8.369-.31Zm-8-38.8h2.811V93.754l-3.1.195Zm-.119,14.363h2.812v11.245l-3.1.194ZM33.526,133.223l-13.354.309,1.424-20.583H34.237ZM25.841,67.869V79.116l-3.1.194.29-11.44Zm-2.52-3,.29-11.44h2.811V64.671Zm1.938,17.451V93.56l-3.1.194.29-11.439Zm-2.93,14.362h2.811v11.246l-3.1.194Zm10.944-57.6V50.322l-3.1.195.29-11.44ZM29.008,79.406l.29-11.44H32.11V79.212Zm2.521,3.006V93.657l-3.1.194.291-11.439ZM29.59,64.961l.29-11.44h2.811V64.768ZM28.6,96.775H31.41V108.02l-3.1.194ZM37.68,108.02l-3.1.194.29-11.439H37.68ZM37.8,93.657l-3.1.194.291-11.439H37.8Zm.582-14.445-3.1.194.291-11.44H38.38Zm.582-14.445-3.1.194.29-11.44h2.812ZM36.441,50.516l.29-11.44h2.811V50.322Zm7.508,57.6-3.1.194.291-11.439h2.811Zm.118-14.363-3.1.195.29-11.44h2.811Zm.582-14.445-3.1.195.291-11.44h2.811Zm.582-14.445-3.1.194.291-11.44H45.23ZM49.9,108.02l-3.1.194.29-11.439H49.9Zm.119-14.363-3.1.194.291-11.439h2.811ZM24.193,38.98H27V50.225l-3.1.195ZM9.6,80.744H5.862l-.44-3.516h4.1ZM8.646,64.407l.073,3.516H4.983l-.44-3.516Zm-3.81,6.447h4.1l.073,3.516H5.276Zm4.582,12.88.073,3.516H5.756l-.439-3.516ZM5.61,90.181h4.1L9.785,93.7H6.049ZM6.2,96.555h4.1l.073,3.516H6.635Z" transform="translate(0 -0.267)" fill="#ffd4e0"/>
    <path id="Trazado_1270459" data-name="Trazado 1270459" d="M27.546,50.835V39.589H24.734l-.291,11.44Z" transform="translate(-0.541 -0.877)" fill="#efb9ca"/>
    <path id="Trazado_1270460" data-name="Trazado 1270460" d="M30.855,51.128l3.1-.194V39.688H31.145Z" transform="translate(-0.683 -0.879)" fill="#efb9ca"/>
    <path id="Trazado_1270461" data-name="Trazado 1270461" d="M40.368,39.688H37.557l-.291,11.44,3.1-.194Z" transform="translate(-0.825 -0.879)" fill="#efb9ca"/>
    <path id="Trazado_1270462" data-name="Trazado 1270462" d="M26.951,54.362H24.139L23.848,65.8l3.1-.194Z" transform="translate(-0.528 -1.204)" fill="#efb9ca"/>
    <path id="Trazado_1270463" data-name="Trazado 1270463" d="M33.362,54.461H30.551L30.259,65.9l3.1-.194Z" transform="translate(-0.67 -1.206)" fill="#efb9ca"/>
    <path id="Trazado_1270464" data-name="Trazado 1270464" d="M36.671,65.9l3.1-.194V54.461H36.961Z" transform="translate(-0.812 -1.206)" fill="#efb9ca"/>
    <path id="Trazado_1270465" data-name="Trazado 1270465" d="M43.082,66l3.1-.194V54.56H43.374Z" transform="translate(-0.954 -1.208)" fill="#efb9ca"/>
    <path id="Trazado_1270466" data-name="Trazado 1270466" d="M23.254,80.574l3.1-.194V69.134H23.545Z" transform="translate(-0.515 -1.531)" fill="#efb9ca"/>
    <path id="Trazado_1270467" data-name="Trazado 1270467" d="M32.767,69.233H29.956l-.291,11.44,3.1-.194Z" transform="translate(-0.657 -1.534)" fill="#efb9ca"/>
    <path id="Trazado_1270468" data-name="Trazado 1270468" d="M36.076,80.673l3.1-.194V69.233H36.367Z" transform="translate(-0.799 -1.533)" fill="#efb9ca"/>
    <path id="Trazado_1270469" data-name="Trazado 1270469" d="M42.487,80.772l3.1-.194V69.332H42.778Z" transform="translate(-0.941 -1.536)" fill="#efb9ca"/>
    <path id="Trazado_1270470" data-name="Trazado 1270470" d="M22.659,95.346l3.1-.194V83.906H22.949Z" transform="translate(-0.502 -1.859)" fill="#efb9ca"/>
    <path id="Trazado_1270471" data-name="Trazado 1270471" d="M29.07,95.445l3.1-.194V84.005H29.361Z" transform="translate(-0.644 -1.861)" fill="#efb9ca"/>
    <path id="Trazado_1270472" data-name="Trazado 1270472" d="M35.481,95.445l3.1-.194V84.005H35.772Z" transform="translate(-0.786 -1.861)" fill="#efb9ca"/>
    <path id="Trazado_1270473" data-name="Trazado 1270473" d="M41.893,95.544,45,95.35V84.1H42.183Z" transform="translate(-0.928 -1.863)" fill="#efb9ca"/>
    <path id="Trazado_1270474" data-name="Trazado 1270474" d="M47.984,95.445l3.1-.194V84.005H48.275Z" transform="translate(-1.063 -1.861)" fill="#efb9ca"/>
    <path id="Trazado_1270475" data-name="Trazado 1270475" d="M57.5,84.1H54.686l-.291,11.44,3.1-.194Z" transform="translate(-1.205 -1.863)" fill="#efb9ca"/>
    <path id="Trazado_1270476" data-name="Trazado 1270476" d="M104.375,27.517V16.271h-2.811l-.291,11.44Z" transform="translate(-2.243 -0.36)" fill="#efb9ca"/>
    <path id="Trazado_1270477" data-name="Trazado 1270477" d="M107.975,16.371l-.29,11.44,3.1-.194V16.371Z" transform="translate(-2.385 -0.363)" fill="#efb9ca"/>
    <path id="Trazado_1270478" data-name="Trazado 1270478" d="M104.375,33.144h-2.811l-.291,11.44,3.1-.194Z" transform="translate(-2.243 -0.734)" fill="#efb9ca"/>
    <path id="Trazado_1270479" data-name="Trazado 1270479" d="M110.787,33.243h-2.811l-.291,11.44,3.1-.194Z" transform="translate(-2.385 -0.736)" fill="#efb9ca"/>
    <path id="Trazado_1270480" data-name="Trazado 1270480" d="M104.375,61.87V50.623h-2.811l-.291,11.44Z" transform="translate(-2.243 -1.121)" fill="#efb9ca"/>
    <path id="Trazado_1270481" data-name="Trazado 1270481" d="M110.787,61.969V50.723h-2.811l-.291,11.44Z" transform="translate(-2.385 -1.123)" fill="#efb9ca"/>
    <path id="Trazado_1270482" data-name="Trazado 1270482" d="M25.64,109.84V98.594H22.828l-.291,11.44Z" transform="translate(-0.499 -2.184)" fill="#efb9ca"/>
    <path id="Trazado_1270483" data-name="Trazado 1270483" d="M32.051,98.693H29.24l-.291,11.44,3.1-.194Z" transform="translate(-0.641 -2.186)" fill="#efb9ca"/>
    <path id="Trazado_1270484" data-name="Trazado 1270484" d="M35.36,110.133l3.1-.194V98.693H35.65Z" transform="translate(-0.783 -2.186)" fill="#efb9ca"/>
    <path id="Trazado_1270485" data-name="Trazado 1270485" d="M41.771,110.232l3.1-.194V98.792H42.062Z" transform="translate(-0.925 -2.188)" fill="#efb9ca"/>
    <path id="Trazado_1270486" data-name="Trazado 1270486" d="M47.863,110.133l3.1-.194V98.693H48.153Z" transform="translate(-1.06 -2.186)" fill="#efb9ca"/>
    <path id="Trazado_1270487" data-name="Trazado 1270487" d="M57.376,98.792H54.565l-.291,11.44,3.1-.194Z" transform="translate(-1.202 -2.188)" fill="#efb9ca"/>
    <path id="Trazado_1270488" data-name="Trazado 1270488" d="M104.931,90.877h3.736l-.073-3.516h-4.1Z" transform="translate(-2.314 -1.935)" fill="#efb9ca"/>
    <path id="Trazado_1270489" data-name="Trazado 1270489" d="M111.823,90.8h3.736l-.073-3.516h-4.1Z" transform="translate(-2.467 -1.933)" fill="#efb9ca"/>
    <path id="Trazado_1270490" data-name="Trazado 1270490" d="M122.677,90.8l-.073-3.516h-4.1l.439,3.516Z" transform="translate(-2.625 -1.933)" fill="#efb9ca"/>
    <path id="Trazado_1270491" data-name="Trazado 1270491" d="M104.791,93.953l.439,3.516h3.736l-.073-3.516Z" transform="translate(-2.321 -2.081)" fill="#efb9ca"/>
    <path id="Trazado_1270492" data-name="Trazado 1270492" d="M112.123,97.395h3.736l-.073-3.516h-4.1Z" transform="translate(-2.474 -2.079)" fill="#efb9ca"/>
    <path id="Trazado_1270493" data-name="Trazado 1270493" d="M119.24,97.395h3.736l-.073-3.516h-4.1Z" transform="translate(-2.631 -2.079)" fill="#efb9ca"/>
    <path id="Trazado_1270494" data-name="Trazado 1270494" d="M109.566,103.987l-.073-3.516h-4.1l.439,3.516Z" transform="translate(-2.334 -2.225)" fill="#efb9ca"/>
    <path id="Trazado_1270495" data-name="Trazado 1270495" d="M112.722,103.912h3.736l-.073-3.516h-4.1Z" transform="translate(-2.487 -2.224)" fill="#efb9ca"/>
    <path id="Trazado_1270496" data-name="Trazado 1270496" d="M119.839,103.912h3.736L123.5,100.4h-4.1Z" transform="translate(-2.645 -2.224)" fill="#efb9ca"/>
    <path id="Trazado_1270497" data-name="Trazado 1270497" d="M127.8,90.923l.177-3.516h-2.438l.44,3.516Z" transform="translate(-2.781 -1.936)" fill="#efb9ca"/>
    <path id="Trazado_1270498" data-name="Trazado 1270498" d="M126.28,97.516h1.2L127.66,94h-1.82Z" transform="translate(-2.787 -2.082)" fill="#efb9ca"/>
    <path id="Trazado_1270499" data-name="Trazado 1270499" d="M126.44,100.517l.44,3.516h.3l.177-3.516Z" transform="translate(-2.801 -2.226)" fill="#efb9ca"/>
    <path id="Trazado_1270500" data-name="Trazado 1270500" d="M1.761,65.471H0v3.516H1.835Z" transform="translate(0 -1.45)" fill="#efb9ca"/>
    <path id="Trazado_1270501" data-name="Trazado 1270501" d="M2.054,72.064H0V75.58H2.128Z" transform="translate(0 -1.596)" fill="#efb9ca"/>
    <path id="Trazado_1270502" data-name="Trazado 1270502" d="M2.64,78.582H0V82.1H2.714Z" transform="translate(0 -1.741)" fill="#efb9ca"/>
    <path id="Trazado_1270503" data-name="Trazado 1270503" d="M8.822,69.109l-.073-3.516h-4.1l.439,3.516Z" transform="translate(-0.103 -1.453)" fill="#efb9ca"/>
    <path id="Trazado_1270504" data-name="Trazado 1270504" d="M9.048,72.186h-4.1L5.385,75.7H9.122Z" transform="translate(-0.11 -1.599)" fill="#efb9ca"/>
    <path id="Trazado_1270505" data-name="Trazado 1270505" d="M5.985,82.22H9.721L9.648,78.7h-4.1Z" transform="translate(-0.123 -1.743)" fill="#efb9ca"/>
    <path id="Trazado_1270506" data-name="Trazado 1270506" d="M2.534,85.236H0v3.516H2.608Z" transform="translate(0 -1.888)" fill="#efb9ca"/>
    <path id="Trazado_1270507" data-name="Trazado 1270507" d="M2.827,91.829H0v3.516H2.9Z" transform="translate(0 -2.034)" fill="#efb9ca"/>
    <path id="Trazado_1270508" data-name="Trazado 1270508" d="M3.414,98.347H0v3.516H3.487Z" transform="translate(0 -2.178)" fill="#efb9ca"/>
    <path id="Trazado_1270509" data-name="Trazado 1270509" d="M9.613,88.874l-.073-3.516h-4.1l.439,3.516Z" transform="translate(-0.12 -1.891)" fill="#efb9ca"/>
    <path id="Trazado_1270510" data-name="Trazado 1270510" d="M9.839,91.951h-4.1l.44,3.516H9.912Z" transform="translate(-0.127 -2.037)" fill="#efb9ca"/>
    <path id="Trazado_1270511" data-name="Trazado 1270511" d="M10.438,98.469h-4.1l.439,3.516h3.736Z" transform="translate(-0.14 -2.181)" fill="#efb9ca"/>
    <path id="Trazado_1270512" data-name="Trazado 1270512" d="M20.628,135.818l13.355-.31.713-20.273H22.052Z" transform="translate(-0.457 -2.552)" fill="#efb9ca"/>
    <path id="Trazado_1270513" data-name="Trazado 1270513" d="M46.585,135.685l7.612-.176.712-20.274H42.266l-1.359,19.649a9.21,9.21,0,0,1,5.678.8" transform="translate(-0.906 -2.552)" fill="#efb9ca"/>
    <path id="Trazado_1270514" data-name="Trazado 1270514" d="M71.061,123.781H62.87l-.178,12.072,8.369.309Z" transform="translate(-1.389 -2.742)" fill="#efb9ca"/>
    <path id="Trazado_1270515" data-name="Trazado 1270515" d="M84.9,123.939H76.709l-.178,12.072,8.369.309Z" transform="translate(-1.695 -2.745)" fill="#efb9ca"/>
    <path id="Trazado_1270516" data-name="Trazado 1270516" d="M98.74,124.1H90.549l-.178,12.072,8.369.309Z" transform="translate(-2.002 -2.749)" fill="#efb9ca"/>
    <path id="Trazado_1270517" data-name="Trazado 1270517" d="M104.211,136.327l8.369.309V124.255h-8.191Z" transform="translate(-2.308 -2.752)" fill="#efb9ca"/>
    <path id="Trazado_1270518" data-name="Trazado 1270518" d="M125.924,125.8h-7.695l-.149,11.546h7.262Z" transform="translate(-2.615 -2.786)" fill="#efb9ca"/>
    <path id="Trazado_1270519" data-name="Trazado 1270519" d="M298.609,96.493v-.245l-.224,0Z" transform="translate(-6.609 -2.132)" fill="#ffd4e0"/>
    <path id="Trazado_1270520" data-name="Trazado 1270520" d="M288.6,11.842l-1.348,71.217a9.036,9.036,0,0,1,2.9,2.137l3.749,4.192.43-10.314,4.03.045v-2.8l-4.3-.093.623-14.955,3.674.042v-3.5l-4.236-.092.623-14.955,3.613.041V40l-3.88-.084.624-14.955,3.256.037V22.184l-3.524-.076.624-14.955,2.9.032V.66l-9.55-.111Z" transform="translate(-6.363 -0.012)" fill="#ffd4e0"/>
    <path id="Trazado_1270521" data-name="Trazado 1270521" d="M255.97,55.826l7.923.089-.267,15.044-4.249-.091-.018,2.8,4.177.047-.16,9.006h.039l3.038.02.376-9.025,7.923.089-.159,8.987,5.4.034.5-45.976-30.262-2.848L249.4,61.453l6.332.04Zm11.216.089,7.923.089-.267,15.044-8.279-.178Z" transform="translate(-5.524 -0.753)" fill="#ffd4e0"/>
    <path id="Trazado_1270522" data-name="Trazado 1270522" d="M216.444,50.505h2.811V60.8l3.2.021.259-10.214h2.811V60.835l4.864.031-1.236-48.09-17.493.109.532,47.865,3.992.025Zm6.269-33.494h2.811V28.256l-3.1.194Zm0,16.5h2.811V44.756l-3.1.194Zm-6.269-16.6h2.811V28.16l-3.1.194Zm0,16.5h2.811V44.659l-3.1.194Z" transform="translate(-4.688 -0.283)" fill="#ffd4e0"/>
    <path id="Trazado_1270523" data-name="Trazado 1270523" d="M142.527,40.326h-2.811l-.291,11.44,3.1-.194Z" transform="translate(-3.088 -0.893)" fill="#efb9ca"/>
    <path id="Trazado_1270524" data-name="Trazado 1270524" d="M148.939,40.425h-2.811l-.291,11.44,3.1-.194Z" transform="translate(-3.23 -0.895)" fill="#efb9ca"/>
    <path id="Trazado_1270525" data-name="Trazado 1270525" d="M155.35,40.425h-2.811l-.291,11.44,3.1-.194Z" transform="translate(-3.372 -0.895)" fill="#efb9ca"/>
    <path id="Trazado_1270526" data-name="Trazado 1270526" d="M141.936,61.251V55.1h-2.811l-.156,6.135Z" transform="translate(-3.078 -1.22)" fill="#efb9ca"/>
    <path id="Trazado_1270527" data-name="Trazado 1270527" d="M148.347,55.2h-2.811l-.155,6.077,2.966.019Z" transform="translate(-3.22 -1.223)" fill="#efb9ca"/>
    <path id="Trazado_1270528" data-name="Trazado 1270528" d="M154.758,61.333V55.2h-2.811l-.155,6.117Z" transform="translate(-3.362 -1.223)" fill="#efb9ca"/>
    <path id="Trazado_1270529" data-name="Trazado 1270529" d="M161.169,61.375V55.3h-2.811l-.154,6.061Z" transform="translate(-3.504 -1.225)" fill="#efb9ca"/>
    <path id="Trazado_1270530" data-name="Trazado 1270530" d="M219.357,17.008h-2.811l-.291,11.44,3.1-.194Z" transform="translate(-4.79 -0.377)" fill="#efb9ca"/>
    <path id="Trazado_1270531" data-name="Trazado 1270531" d="M225.768,17.107h-2.811l-.291,11.44,3.1-.195Z" transform="translate(-4.932 -0.379)" fill="#efb9ca"/>
    <path id="Trazado_1270532" data-name="Trazado 1270532" d="M219.357,33.88h-2.811l-.291,11.44,3.1-.194Z" transform="translate(-4.79 -0.75)" fill="#efb9ca"/>
    <path id="Trazado_1270533" data-name="Trazado 1270533" d="M225.768,33.98h-2.811l-.291,11.44,3.1-.194Z" transform="translate(-4.932 -0.753)" fill="#efb9ca"/>
    <path id="Trazado_1270534" data-name="Trazado 1270534" d="M216.546,51.36l-.261,10.271,3.072.02V51.36Z" transform="translate(-4.791 -1.138)" fill="#efb9ca"/>
    <path id="Trazado_1270535" data-name="Trazado 1270535" d="M222.957,51.459l-.26,10.214,3.071.02V51.459Z" transform="translate(-4.933 -1.14)" fill="#efb9ca"/>
    <path id="Trazado_1270536" data-name="Trazado 1270536" d="M275.5,56.5l-7.923-.089-.623,14.955,8.278.178Z" transform="translate(-5.913 -1.249)" fill="#efb9ca"/>
    <path id="Trazado_1270537" data-name="Trazado 1270537" d="M264.036,56.409l-7.923-.089-.237,5.668,3.7.023-.059,9.351,4.248.091Z" transform="translate(-5.668 -1.247)" fill="#efb9ca"/>
    <path id="Trazado_1270538" data-name="Trazado 1270538" d="M267.216,74.618l-.376,9.025,8.139.052.159-8.987Z" transform="translate(-5.91 -1.653)" fill="#efb9ca"/>
    <path id="Trazado_1270539" data-name="Trazado 1270539" d="M259.584,74.57l-.063,9.883a10.155,10.155,0,0,1,4.08-.83l.16-9.006Z" transform="translate(-5.748 -1.652)" fill="#efb9ca"/>
    <path id="Trazado_1270540" data-name="Trazado 1270540" d="M295.011,22.257l3.523.075v-15l-2.9-.032Z" transform="translate(-6.534 -0.162)" fill="#efb9ca"/>
    <path id="Trazado_1270541" data-name="Trazado 1270541" d="M294.647,40.465l3.879.083v-15l-3.256-.036Z" transform="translate(-6.526 -0.565)" fill="#efb9ca"/>
    <path id="Trazado_1270542" data-name="Trazado 1270542" d="M294.283,58.672l4.236.091V43.757l-3.613-.04Z" transform="translate(-6.518 -0.968)" fill="#efb9ca"/>
    <path id="Trazado_1270543" data-name="Trazado 1270543" d="M294.22,77.6l4.3.092V62.686l-3.674-.041Z" transform="translate(-6.517 -1.388)" fill="#efb9ca"/>
    <path id="Trazado_1270544" data-name="Trazado 1270544" d="M294.054,91.166l4.235,4.736.224,0V80.9l-4.03-.046Z" transform="translate(-6.513 -1.791)" fill="#efb9ca"/>
    <path id="Trazado_1270545" data-name="Trazado 1270545" d="M38.238,283.309a51.012,51.012,0,0,1,15.8-8.946,52.555,52.555,0,0,1,26.978-2.485l2.053-3.211a1.79,1.79,0,0,1-.639-1.214,3.654,3.654,0,0,1,.375-1.638l-53.413-1.779.363.408c.493.554.163,1.4-.732,1.874l-1.087.577a2.213,2.213,0,0,1-2.529-.144L22.8,263.818l-7.154-.239a9.755,9.755,0,0,1-2.547,2.238,14.011,14.011,0,0,1-7.535,1.957A25.208,25.208,0,0,1,0,267.1v30.743H27.98c.222-.694.477-1.389.771-2.083a34.075,34.075,0,0,1,9.487-12.446" transform="translate(0 -5.838)" fill="#b28797"/>
    <path id="Trazado_1270546" data-name="Trazado 1270546" d="M0,265.581v.165l.319.073c-.11-.076-.216-.156-.319-.239" transform="translate(0 -5.883)" fill="#b28797"/>
    <path id="Trazado_1270547" data-name="Trazado 1270547" d="M207.866,166.419a133.833,133.833,0,0,1,17.546,1.945c-.644-6.5-4.184-14.183-6.781-20.569q-.835,1.81-1.939,3.766-.78-.082-1.51-.187c-.46,1.246-.926,2.488-1.432,3.717a127.464,127.464,0,0,1-5.884,11.328" transform="translate(-4.604 -3.274)" fill="#b28797"/>
    <path id="Trazado_1270548" data-name="Trazado 1270548" d="M227.721,206.205c-.382.147-.8.3-1.239.427l1.135.077c.033-.172.068-.34.1-.5" transform="translate(-5.017 -4.567)" fill="#b28797"/>
    <path id="Trazado_1270549" data-name="Trazado 1270549" d="M73.217,277.478A49,49,0,0,0,56.86,280.39c-10.3,3.677-18.353,10.3-21.611,17.756h29.94L78.22,277.778a41.714,41.714,0,0,0-5-.3" transform="translate(-0.781 -6.146)" fill="#b28797"/>
    <path id="Trazado_1270550" data-name="Trazado 1270550" d="M223.47,261.533c-.715,4.823,3.523,5.834,5.761,7.166l.01.016a57.173,57.173,0,0,1,1.75-15.1,16.656,16.656,0,0,0-4.689,2.848,8.336,8.336,0,0,0-2.832,5.073" transform="translate(-4.948 -5.617)" fill="#b28797"/>
    <path id="Trazado_1270551" data-name="Trazado 1270551" d="M97.877,288.9c-2.327-5.044-7.673-8.752-15.053-10.441-.18-.041-.362-.076-.543-.115-4.442,6.909-9.671,14.959-12.994,19.818H98.673a13.941,13.941,0,0,0-.8-9.261" transform="translate(-1.535 -6.165)" fill="#b28797"/>
    <path id="Trazado_1270552" data-name="Trazado 1270552" d="M219.308,205.729l.555.037.249-.053.021.071,1.9.128a1.271,1.271,0,0,1-.093-.16c1.069-.248,3.606-1.915,5.556-3.49a6.017,6.017,0,0,1,2.57-1.1c.277-3.1.653-5.994,1.189-9.021-5.587-1.786-11.554-3.912-17.489-5.751,2.193,7,4.2,14.282,5.538,19.342" transform="translate(-4.735 -4.128)" fill="#b28797"/>
    <path id="Trazado_1270553" data-name="Trazado 1270553" d="M164.369,202.025l7.22.487c-4.632-5.488-10.411-12.757-12.551-17.228-.745-1.236-1.428-2.53-2.051-3.837a81.017,81.017,0,0,1-6.959,7.051,26.837,26.837,0,0,1,.9,3.3c-4.112,3.018-8,5.794-11.205,8.051,6.188.81,12.344,1.622,17.157,2.27q.331.83.579,1.638c1.624-.045,3.353-.065,5.119-.04l.006-.118a1.674,1.674,0,0,1,1.784-1.577" transform="translate(-3.095 -4.019)" fill="#b28797"/>
    <path id="Trazado_1270554" data-name="Trazado 1270554" d="M22.581,260.116l1.087-.577a2.213,2.213,0,0,1,2.528.144l.576.647,58.318,1.545c.72-1.081,1.515-2.174,2.249-3.145l-67.77-14.694-6.339,9.189a8.823,8.823,0,0,1,3.882,4.45,5.167,5.167,0,0,1,.2,2.4l5.1.135c.054-.034.11-.066.168-.1" transform="translate(-0.293 -5.405)" fill="#b28797"/>
    <path id="Trazado_1270555" data-name="Trazado 1270555" d="M3.3,243.432a25.11,25.11,0,0,1-1.016,2.9c-.317.753-.676,1.5-1.071,2.241,1.654.455,3.214.924,4.66,1.417.877.3,1.7.6,2.467.909l5.229-7.425Z" transform="translate(-0.027 -5.392)" fill="#b28797"/>
    <path id="Trazado_1270556" data-name="Trazado 1270556" d="M.962,256.821a12.212,12.212,0,0,1,3.684-2.054,13.678,13.678,0,0,1,1.331-.4l1.535-2.18q-.989-.387-2.1-.766c-1.514-.515-3.16-1.007-4.911-1.482q-.243.409-.5.814v.136L1.209,255.9a1.088,1.088,0,0,1-.246.916" transform="translate(0 -5.536)" fill="#b28797"/>
    <path id="Trazado_1270557" data-name="Trazado 1270557" d="M.428,257.463A2.513,2.513,0,0,1,0,257.68v.217c.136-.148.28-.291.428-.434" transform="translate(0 -5.703)" fill="#b28797"/>
    <path id="Trazado_1270558" data-name="Trazado 1270558" d="M292,278.415a11.908,11.908,0,0,1-2.44-1.64,13.764,13.764,0,0,1-1.718-1.784,82.336,82.336,0,0,0-13.342.729c-.612,1.656-1.485,2.97-2.729,3.262-3.091.728-28.212.1-38.782-.207a8.966,8.966,0,0,1-8.022-6.048c-.024-.117-.047-.237-.07-.356-.86-.2-1.882-.451-3.1-.775-6.05-1.612-10.886-10.228-8.064-15.817,5.789-11.467,15.6-10.745,15.6-10.745s1.271-2.08,22.915-1.464c20.622.587,20.511,1.576,20.456,1.668,4.523.291,9.6,1.509,12.872,5.022,5.933,6.366,3.773,13.818,6.426,18.728V214.31a4.27,4.27,0,0,0-1.72-1.088c-.434-.083-.773-.615-1.038-1.359l-2.8,1.011a14.5,14.5,0,0,1,.233,1.63c-1.023.626-18.992,9.2-34.721,12.806,0,.03-.01.063-.014.093-.166.012-.335.02-.506.023-1.858.415-3.679.752-5.437,1a3.708,3.708,0,0,1-.441.065c.146-.02.294-.044.441-.065-.2.013-3.162.371-3.174.37-2.627.17-4.525-1.877-5.8-4.089a3.531,3.531,0,0,1-1.656.96.826.826,0,0,1-.22.016c-3.511-.193-7.319-2.205-10.1-4.344l-.324,3.073a1.673,1.673,0,0,1-1.757,1.5l-12.336-.682a1.849,1.849,0,0,1-1.676,1.077,92.349,92.349,0,0,1-9.227-.683,1.853,1.853,0,0,1-1.475-1.079l-14.948-.827a1.844,1.844,0,0,1-1.578.9,91.773,91.773,0,0,1-9.228-.683,1.852,1.852,0,0,1-1.374-.886l-11.663-.645a1.673,1.673,0,0,1-1.578-1.763l.16-2.9c-.169-.141-.331-.284-.483-.431l-.157,0c-1.526.371-3.189.709-4.859,1.011a19.174,19.174,0,0,1-2.642,3.7l-39.827-4.331a4.938,4.938,0,0,1-2.928,1.061A81.54,81.54,0,0,1,88.8,216.448l-.091.066s-.029-.04-.076-.108a87.2,87.2,0,0,1-33.661-16.838c-2.1,3.34-3.907,6.133-4.566,6.923q-.857-.433-1.7-.867a38.517,38.517,0,0,1-2.928,5.246c5.669,3.7,12.254,10.459,15.428,12.809q.644.478,1.305.933c.132-.311.223-.484.223-.484l1.518.563a4.329,4.329,0,0,1,.928-.825,19.207,19.207,0,0,0,4.521-3.741c1.087,1.056-.379,3.264-1.529,4.671,1.63.171,3.685.595,4.485.767,0,0,10.768-.237,9.3,1.649a1.28,1.28,0,0,1-1.039.474l-7.349-.183c.039.176.076.361.11.552.022,0,9.513-.171,8.788,1.794a.8.8,0,0,1-.756.5l-7.88-.054c-.01.162-.024.324-.044.485,2.423-.066,8.178-.061,7.456,1.535a.928.928,0,0,1-.838.527l-7.32.066q-.06.1-.126.2c2.4-.085,6.779-.066,5.5,1.295a1.782,1.782,0,0,1-1.366.543l-6.4-.36c-3.562.028-5.6-1.006-6.742-2.328-.436-.138-1.124-.33-2.206-.582-.042-.172-.077-.344-.109-.516-11.773-3.671-23.507-8.082-27.256-13.565-3.127-2.9-1.283-11.184,1.438-18.923-.657-.37-1.023-.58-1.023-.58,1.256-5.814,3.411-13.973,4.994-18.574.02-.137.041-.276.066-.419.745-4.221,4.255-9.533,6.227-12.473-.274-.655-.561-1.305-.84-1.917q-.582-.1-1.148-.235c-4.8-1.181-6.346-3.233-6.916-4.8a5.259,5.259,0,0,1-2.027-.319,11.575,11.575,0,0,1-3.789,2.9c-3.519,1.327-9-.288-8.539-2.941.311-1.787,4.988-4.593,8.012-6.237-.313-.23-10.772-8.056,1.277-14.763q.681-.378,1.331-.7H0v85.589a20.623,20.623,0,0,1,2.308,3.83,19.643,19.643,0,0,1,1.546,11.463l11.675-.173,4.078-5.792A13.533,13.533,0,0,1,13.843,230c-2.562-1.922-.567-5.634,3.58-6.509.135-.028.267-.053.394-.073,2.3-.359,22.822,5.225,24.733,7.079s-3.542,4.145-4.708,3.524c-.971-.517-6.756-1.154-12.392-1.287L21.7,238.16l67.959,14.907c.027-.039.054-.079.077-.119l.6-1.029a2.149,2.149,0,0,1,.736-.717.423.423,0,0,1,.043-.19l1.169-2.466a2.954,2.954,0,0,1,2.993-1.331l6.609,1.1,1.788-3.258a3.694,3.694,0,0,1-2.323-1.679c-.719-1.291-.436-3.109.776-4.986.048-.075.092-.175.069-.226a.716.716,0,0,0-.514-.256c-1.027-.174-1.714-.291-2.185-.377a3.7,3.7,0,0,1-1.9.394c-2.051-.145-5.233-.393-8.256-.728-1.555-.171-2.175-1.417-1.191-2.491a4.277,4.277,0,0,1,1.677-1.063c.469-.136,6.347.386,9.345.665,1.094.1,1.773.742,1.7,1.525l1.128.194a2.482,2.482,0,0,1,1.941,1.368,2.123,2.123,0,0,1-.213,2.029c-.622.963-1.136,2.264-.713,3.024.388.7,1.656,1.063,3.569,1.026a11.766,11.766,0,0,0,9.518-5.17,6.169,6.169,0,0,1,4.459-2.361l.121-.011a4.089,4.089,0,0,1,1.11-.689c.457-.166,6.5-.077,9.584-.021,1.319.024,2.166.81,1.892,1.777-.007.024-.014.05-.022.075a3.115,3.115,0,0,1-2.963,1.786c-2.1.006-5.37-.009-8.487-.118a2.057,2.057,0,0,1-1.713-.8,4.124,4.124,0,0,0-2.421,1.456,13.673,13.673,0,0,1-10.238,5.94l-2.009,4.083a1.117,1.117,0,0,1-.013,1.073l-.506,1.007a2.838,2.838,0,0,1-2.271,1.325,39.791,39.791,0,0,1-6.077.147,1.573,1.573,0,0,1-.111.211c-1.989,3.1-6.566,9.863-8.272,12.375a2.752,2.752,0,0,1-1.918,1.054c-.608.952-1.295,2.029-2.043,3.2,8.456,2.3,14.687,7.022,17.64,13.422a19.672,19.672,0,0,1,1.486,11.8H292ZM185.3,256.9c-3.015,2.262-12.868,3.377-16.064,2.743s-2.317-2.311-3.9-2.624-1.438,1.522-3.413,1.3-9.6-2.494-9.287-4.073a5.4,5.4,0,0,1,1.829-2.649,5.239,5.239,0,0,1-.493-1.168,8.276,8.276,0,0,1-.326-2.468c.027-2.461,1.291-8.987,2.836-9.649,1.931-.828.841,2.122,2.831,3.7s4.6-.3,6.891-1.659c.849-.506,1.548.1,2.389,1.18.294.378.607.816.95,1.284a5.786,5.786,0,0,1,.619-.069c.81-.043.93,1.013.373,1.37q.286.355.6.711a6.325,6.325,0,0,1,.75-.141c.78-.1.909.894.407,1.311.188.169.382.335.586.5a3.692,3.692,0,0,1,.87-.176.706.706,0,0,1,.575,1.153,10.336,10.336,0,0,0,1.2.584c5.839,2.369,6.1,1.076,9.58,2.17a1.657,1.657,0,0,1,.9,2.706c.652.892,1.285,2.471-.716,3.972" transform="translate(0 -3.048)" fill="#b28797"/>
    <path id="Trazado_1270559" data-name="Trazado 1270559" d="M295.417,148.456a13.164,13.164,0,0,1-26.328-.167,13.3,13.3,0,0,1,.112-1.614h-4.958s0-.053,0-.149c-1.818-.015-3.547-.028-5.163-.043,3.789,15.07,7.426,32.664,7.426,32.664q-.374.114-.744.225a58.871,58.871,0,0,1,.282,6.625q-.013.717-.049,1.4c-.392,7.91-2.709,16.981-4.828,25.047a278.917,278.917,0,0,1,28.2-6.864s.39.692.893,1.788a20.9,20.9,0,0,1,3.853-.785c-.022-.343-.029-.55-.029-.55s1.692-.824,3.661-1.7V146.7l-2.431-.007a13.242,13.242,0,0,1,.11,1.761" transform="translate(-5.739 -3.245)" fill="#b28797"/>
    <path id="Trazado_1270560" data-name="Trazado 1270560" d="M282.174,269.573a39.171,39.171,0,0,1-.329,3.928c.712-.106,1.381-.224,2-.358a40.216,40.216,0,0,1,7.714-.825c-1.1-4.247-.973-8.924-4.457-13.932a8.924,8.924,0,0,0-5.129-3.1,91.867,91.867,0,0,1,.2,14.292" transform="translate(-6.243 -5.654)" fill="#b28797"/>
    <path id="Trazado_1270561" data-name="Trazado 1270561" d="M237.964,210.2q.625-.131,1.242-.282c-.311-4.417-.621-9.4-.875-13.646-.934,2.091-1.871,4.1-2.794,5.935,1.776,1.258,3.371,3.613,2.427,7.993" transform="translate(-5.217 -4.347)" fill="#b28797"/>
    <path id="Trazado_1270562" data-name="Trazado 1270562" d="M197.174,187.065c-3.626,4.668-7.574,9.893-11.126,13.93a6.347,6.347,0,0,1,1.161,2.018c.483.069.929.137,1.324.2a1.842,1.842,0,0,1,1.069.569l14.312.965a143.19,143.19,0,0,1-6.739-17.681" transform="translate(-4.121 -4.143)" fill="#b28797"/>
    <path id="Trazado_1270563" data-name="Trazado 1270563" d="M51.418,143.271c-.167.047-.381.122-.634.22A30.137,30.137,0,0,1,53.21,148.2a1.621,1.621,0,0,1,.361.066.305.305,0,0,1-.091.6c.638,1.6,1.193,3.271,1.671,4.926l.074-.038a14.577,14.577,0,0,1,1.722,3.753,29.829,29.829,0,0,1,3.384-2.757,7.564,7.564,0,0,1,9.592,1.724c6.106,6.714,11.859,12.929,20.361,16.535.109.047.219.093.328.138,8.4,3.512,17.406,5.233,26.383,6.519.9.129,3.991-.017,4.609.548a4.045,4.045,0,0,1,1.037,2.024c6.081-4.592,13.621-10.2,13.621-10.2a25.187,25.187,0,0,1,2.543,2.02,72.9,72.9,0,0,1,11.038-9.586c.143-.1.4-.275.758-.5a28.188,28.188,0,0,1,3.678-2.018,6.22,6.22,0,0,1,1.49-.467c2.036-.638,4.168-.809,5.663.358,2.649,2.069,12.216,21.964,17.763,33.813a105.758,105.758,0,0,1,4.822-10.8c2.293-4.5,5.84-15.721,9.959-21.874,1.206-2.913,3.4-7.659,4.482-10.4q1.05-2.65,2.243-5.259l-.014-.011s.134-.575.391-1.525l-18.725-.119c.018.153.024.238.024.238H176.3c.009.211.014.423.012.638a13.164,13.164,0,0,1-26.327-.167c0-.158.008-.314.015-.47h-4.479s0-.17.013-.472l-13.823-.088.05-7.741h-83.1a11.131,11.131,0,0,1,2.759,5.666" transform="translate(-1.078 -3.048)" fill="#b28797"/>
    <path id="Trazado_1270564" data-name="Trazado 1270564" d="M177.5,203.1a16.964,16.964,0,0,1-1.867.114l1.751.117c.038-.078.077-.155.115-.232" transform="translate(-3.89 -4.499)" fill="#b26b5e"/>
    <path id="Trazado_1270565" data-name="Trazado 1270565" d="M157.014,181.007c.622,1.307,1.3,2.6,2.05,3.837,2.139,4.471,7.919,11.74,12.551,17.228l1.9.128c-1.069-.162-1.931-.567-2.1-1.418,1.1.027,3.972-.947,6.255-1.981a5.993,5.993,0,0,1,2.764-.422c.265-.743.534-1.471.807-2.188-5.546-11.85-15.114-31.745-17.763-33.814-1.5-1.167-3.627-1-5.663-.358a6.265,6.265,0,0,0-1.49.467,28.188,28.188,0,0,0-3.678,2.018c-.354.224-.615.4-.758.5a72.955,72.955,0,0,0-11.038,9.586,32.626,32.626,0,0,1,9.206,13.471,81.3,81.3,0,0,0,6.96-7.051" transform="translate(-3.12 -3.578)" fill="#b26b5e"/>
    <path id="Trazado_1270566" data-name="Trazado 1270566" d="M211.665,89.375q.059-.307.11-.621t.095-.621c-.111-.01-.234-.018-.365-.022s-.268-.007-.41-.007q-.182,0-.449.015t-.559.055a5.344,5.344,0,0,0-.584.113,2.387,2.387,0,0,0-.522.19,1.232,1.232,0,0,0-.376.285.59.59,0,0,0-.04.728.882.882,0,0,0,.288.266,1.288,1.288,0,0,0,.427.157,1.468,1.468,0,0,0,.515,0,9.455,9.455,0,0,0,1.034-.252q.486-.15.836-.288" transform="translate(-4.617 -1.951)" fill="#fff"/>
    <path id="Trazado_1270567" data-name="Trazado 1270567" d="M210.312,109.483a2.705,2.705,0,0,1-1.335.908L208.9,112.5l3.49-.328a1.4,1.4,0,0,1,.117-.3,27.088,27.088,0,0,1-1.334-2.954,2.617,2.617,0,0,1-.47-.107,2.729,2.729,0,0,1-.387.669" transform="translate(-4.627 -2.41)" fill="#fff"/>
    <path id="Trazado_1270568" data-name="Trazado 1270568" d="M182.429,89.665a1.923,1.923,0,0,0,.57.53,1.3,1.3,0,0,0,.676.194,1.5,1.5,0,0,0,1.366-.8,5.2,5.2,0,0,0,.489-2.484,4.738,4.738,0,0,0-.153-1.377,2.384,2.384,0,0,0-.414-.833,1.314,1.314,0,0,0-.551-.413,1.953,1.953,0,0,0-.555-.124,1.476,1.476,0,0,0-.417.051,2.375,2.375,0,0,0-.467.179,2.621,2.621,0,0,0-.471.307,2.731,2.731,0,0,0-.427.435q-.081.679-.132,1.337t-.051,1.249a3.106,3.106,0,0,0,.146.961,2.8,2.8,0,0,0,.391.785" transform="translate(-4.029 -1.869)" fill="#fff"/>
    <path id="Trazado_1270569" data-name="Trazado 1270569" d="M189.543,107.591a3.389,3.389,0,0,0-.97-.643,5.366,5.366,0,0,0-1.279-.385,7.3,7.3,0,0,0-1.469-.11,5.935,5.935,0,0,0-1.456.186,2.791,2.791,0,0,0-.97.463,1.8,1.8,0,0,0-.553.7,2.44,2.44,0,0,0-.2.894,1.176,1.176,0,0,0,.259.839,2.1,2.1,0,0,0,.775.571,4.442,4.442,0,0,0,1.12.327,7.971,7.971,0,0,0,1.3.1,5.775,5.775,0,0,0,1.506-.254,5.218,5.218,0,0,0,.643-.241,4.532,4.532,0,0,0,.662-.367,4.093,4.093,0,0,0,.621-.512,3.887,3.887,0,0,0,.54-.685,1.92,1.92,0,0,0-.535-.884" transform="translate(-4.046 -2.358)" fill="#fff"/>
    <path id="Trazado_1270570" data-name="Trazado 1270570" d="M242.077,85.6a1.636,1.636,0,0,0-.238-.438,1.456,1.456,0,0,0-.314-.3,1.836,1.836,0,0,0-.347-.194,2.225,2.225,0,0,0-.92-.154,1.667,1.667,0,0,0-.782.274,1.5,1.5,0,0,0-.464.533,2.264,2.264,0,0,0-.223.705,5.261,5.261,0,0,0-.059.789l3.47-.613a2.265,2.265,0,0,0-.124-.6" transform="translate(-5.288 -1.872)" fill="#fff"/>
    <path id="Trazado_1270571" data-name="Trazado 1270571" d="M225.419,121.366l.244-.109-.018-.067c-.073.059-.15.117-.227.176" transform="translate(-4.993 -2.684)" fill="#fff"/>
    <path id="Trazado_1270572" data-name="Trazado 1270572" d="M158.444,86.889l-2.06-3.835-1.768,3.835Z" transform="translate(-3.425 -1.84)" fill="#fff"/>
    <path id="Trazado_1270573" data-name="Trazado 1270573" d="M222.819,87.825c.02-.2.036-.37.051-.518s.024-.285.029-.406.008-.253.008-.4a3.523,3.523,0,0,0-.052-.617,1.515,1.515,0,0,0-.179-.508.976.976,0,0,0-.335-.347,1.072,1.072,0,0,0-.515-.143,2.472,2.472,0,0,0-.614.176,5.383,5.383,0,0,0-.683.362,5.31,5.31,0,0,0-.859.676l-.1,1.449a2.7,2.7,0,0,1,2.778,1.391,2.687,2.687,0,0,1,.389-.379v-.01q.051-.434.08-.73" transform="translate(-4.863 -1.88)" fill="#fff"/>
    <path id="Trazado_1270574" data-name="Trazado 1270574" d="M207.007,137.051H182.273a22.179,22.179,0,0,1,3.04,8.605l18.726.119a70.215,70.215,0,0,1,2.968-8.724" transform="translate(-4.037 -3.036)" fill="#fff"/>
    <path id="Trazado_1270575" data-name="Trazado 1270575" d="M133.6,145.332l13.823.088a20.2,20.2,0,0,1,2.341-8.37H133.649l0,.542Z" transform="translate(-2.959 -3.036)" fill="#fff"/>
    <path id="Trazado_1270576" data-name="Trazado 1270576" d="M298.328,137.051q.144.2.28.4v-.4Z" transform="translate(-6.608 -3.036)" fill="#fff"/>
    <path id="Trazado_1270577" data-name="Trazado 1270577" d="M290.5,90.734l-3.75-4.192a9.036,9.036,0,0,0-2.9-2.137,10.193,10.193,0,0,0-4.263-.957l-2.158-.014-5.4-.034-8.139-.052-3.039-.02h-.039a10.171,10.171,0,0,0-4.08.829l.063-9.882.018-2.8.06-9.35-3.7-.023-6.332-.041-18.177-.115-4.864-.031-3.071-.02-3.2-.02-3.072-.02-3.992-.026L166.4,61.545l-5.769-.036-2.966-.02-3.3-.021-2.967-.019-3.3-.022-2.967-.019-3.3-.022-2.967-.019-4.729-.03-.341,53.45a17.5,17.5,0,0,1,2.454.042c-.255.161.338,8.593.338,8.593h-2.848l-.008,1.265H214.7c1.158-.721,2.634-1.6,4.322-2.5-2.49-2.749-14.47-28.606-13.746-29.52a2.715,2.715,0,0,1,3.1-.847,2.714,2.714,0,0,1,.091-1.3,5.581,5.581,0,0,1-2.188.061,3.152,3.152,0,0,1-.895-.282,1.929,1.929,0,0,1-.669-.533,1.309,1.309,0,0,1-.263-.836,1.7,1.7,0,0,1,.242-.921,2.244,2.244,0,0,1,.636-.661,3.536,3.536,0,0,1,.895-.442,7.994,7.994,0,0,1,1.015-.267,8.265,8.265,0,0,1,1.005-.131q.488-.034.861-.033c.263,0,.5.007.709.019s.4.03.562.055a6.24,6.24,0,0,0,.088-1.015,2.064,2.064,0,0,0-.092-.637,1.019,1.019,0,0,0-.314-.474,1.46,1.46,0,0,0-.592-.285,3.215,3.215,0,0,0-.917-.073,1.754,1.754,0,0,0-.672.2,1.833,1.833,0,0,0-.267.183,1.635,1.635,0,0,0-.255.263,1.734,1.734,0,0,0-.215.362,2.084,2.084,0,0,0-.147.471l-2.36.116a2.431,2.431,0,0,1,.256-.895,2.646,2.646,0,0,1,.5-.68,3.207,3.207,0,0,1,.654-.493,4.963,4.963,0,0,1,.724-.343,6.969,6.969,0,0,1,1.921-.387,5.5,5.5,0,0,1,1.611.179,3.4,3.4,0,0,1,1.092.518,2.548,2.548,0,0,1,.672.734,3.283,3.283,0,0,1,.35.815,3.413,3.413,0,0,1,.124.768q.015.361.008.595a6.908,6.908,0,0,1-.1.716q-.065.373-.194.936c-.049.215-.109.457-.178.721a2.583,2.583,0,0,1,.388.2c.042-.065.087-.129.136-.191a2.711,2.711,0,0,1,2.893-.914l-.072-3.261-1.556.044V83.4l4.1-.526-.1,1.4a5.034,5.034,0,0,1,1.056-.647,8.331,8.331,0,0,1,.939-.354,5.409,5.409,0,0,1,.935-.183,3.465,3.465,0,0,1,1.231.194,2.081,2.081,0,0,1,.825.549,2.166,2.166,0,0,1,.464.851,3.927,3.927,0,0,1,.146,1.1c0,.171,0,.322-.007.453s-.014.259-.026.383-.026.254-.043.387-.038.294-.063.479l-.012.088a2.7,2.7,0,0,1,1.715,1.549,2.683,2.683,0,0,1,.614-.15,3.5,3.5,0,0,1-.4-.987,3.773,3.773,0,0,1-.08-1.187,4.514,4.514,0,0,1,.471-1.772,3.866,3.866,0,0,1,.979-1.22,3.917,3.917,0,0,1,1.315-.705,4.929,4.929,0,0,1,1.472-.226,4.228,4.228,0,0,1,.709.095,5.92,5.92,0,0,1,.708.219,4.028,4.028,0,0,1,.8.409l.255-1.242,1.776.343-1.228,3.273-1.242-.146.212-1.067a2.654,2.654,0,0,0-.515-.325,3.629,3.629,0,0,0-.434-.172,1.95,1.95,0,0,0-.41-.08,2.731,2.731,0,0,0-1.078.2,2.227,2.227,0,0,0-.781.544,2.267,2.267,0,0,0-.478.826,3.26,3.26,0,0,0-.161,1.048,4.387,4.387,0,0,0,.143,1.147,2.464,2.464,0,0,0,.45.909,2.1,2.1,0,0,0,.777.6,2.7,2.7,0,0,0,1.128.216,2.014,2.014,0,0,0,.8-.234,2.623,2.623,0,0,0,.336-.223,2.443,2.443,0,0,0,.343-.33,3.023,3.023,0,0,0,.322-.453,3.192,3.192,0,0,0,.27-.6l1.227,1.337a4.1,4.1,0,0,1-.716.727,4.533,4.533,0,0,1-.771.49,4.369,4.369,0,0,1-.771.3,5.485,5.485,0,0,1-.709.154,5.277,5.277,0,0,1-.592.055c-.175,0-.314.008-.417.008a4.985,4.985,0,0,1-.815-.067,2.72,2.72,0,0,1,0,1.647,2.7,2.7,0,0,1,1.5.58c.978.775.66,15.46-.724,16.674.536,2.134,1.237,4.762,2.079,7.559.006.022.014.044.02.066a20.206,20.206,0,0,1,18.123,6.422,4.924,4.924,0,0,1,.607.917h44.81V112.545l-33.044.191a1.358,1.358,0,0,1-1.366-1.351l-.112-21.922a1.358,1.358,0,0,1,1.381-1.365l21.021.348a1.362,1.362,0,0,1,1,.468c1.416,1.636,6.394,7.38,11.117,12.789V95.72l-.224-.25ZM187.86,83.069l3.609.154q-.088.811-.154,1.406c-.044.4-.081.742-.113,1.035s-.058.54-.08.745-.04.385-.055.544-.024.3-.029.424-.007.254-.007.39a3.588,3.588,0,0,0,.051.621,1.535,1.535,0,0,0,.179.511.937.937,0,0,0,.336.343.986.986,0,0,0,.515.124,2.064,2.064,0,0,0,.773-.211,3.161,3.161,0,0,0,.72-.5,3.667,3.667,0,0,0,.734-.986l.227-3.083-1.652.059.154-1.571,5,.183v1.176l-1.658.08.088,4.771,1.57.131V90.7h-3.952l.095-1.2a5.093,5.093,0,0,1-1.084.673,6.521,6.521,0,0,1-.946.343,4.172,4.172,0,0,1-.936.146,3.21,3.21,0,0,1-1.154-.179,1.787,1.787,0,0,1-.734-.5,1.942,1.942,0,0,1-.391-.782,4.139,4.139,0,0,1-.116-1.019c0-.2,0-.375.008-.526s.013-.3.025-.434.026-.282.043-.427.039-.315.066-.5.056-.41.087-.661.069-.552.113-.9l-1.556.095Zm-10.2-3.608,4.185.394q-.094.468-.2,1.023c-.063.317-.133.684-.208,1.1s-.147.861-.215,1.334a4.81,4.81,0,0,1,1.041-.453,3.79,3.79,0,0,1,1.1-.161,4.611,4.611,0,0,1,1.476.231,3.2,3.2,0,0,1,1.194.708,3.294,3.294,0,0,1,.8,1.213,4.8,4.8,0,0,1,.288,1.75,4.51,4.51,0,0,1-.2,1.41,3.935,3.935,0,0,1-.555,1.1,3.831,3.831,0,0,1-.811.818,4.751,4.751,0,0,1-.968.555,5.043,5.043,0,0,1-1.034.314,5.463,5.463,0,0,1-1,.1,4.137,4.137,0,0,1-1.406-.245,3.475,3.475,0,0,1-1.22-.748,3.783,3.783,0,0,1-.869-1.271,4.823,4.823,0,0,1-.354-1.82q0-.422.019-.905c.012-.322.027-.647.047-.979s.042-.661.066-.99.052-.644.081-.947q.087-1.052.211-2.118l-1.556.072Zm-10.637,3.412-.073.942a5.24,5.24,0,0,1,.859-.394c.27-.092.51-.165.72-.219a6.858,6.858,0,0,1,.68-.117,3.239,3.239,0,0,1,1.337.242,2.086,2.086,0,0,1,.848.672,5.078,5.078,0,0,1,.949-.511,6.274,6.274,0,0,1,.817-.27,4.921,4.921,0,0,1,.789-.132,3.467,3.467,0,0,1,1.242.2,2.1,2.1,0,0,1,.829.552,2.176,2.176,0,0,1,.464.855,3.965,3.965,0,0,1,.146,1.107c0,.165,0,.313-.007.442s-.014.255-.025.379-.027.255-.044.391-.038.3-.063.482-.054.4-.087.65-.073.548-.117.9l1.57-.087-.226,1.752-3.755-.153q.087-.855.154-1.469c.043-.409.081-.759.112-1.048s.059-.533.08-.73.039-.371.052-.519.021-.284.025-.4.007-.253.007-.4a2.408,2.408,0,0,0-.076-.617,1.647,1.647,0,0,0-.226-.508,1.105,1.105,0,0,0-.38-.347,1.213,1.213,0,0,0-.537-.143,1.8,1.8,0,0,0-.351.095,3.667,3.667,0,0,0-.4.176,4.832,4.832,0,0,0-.537.314,4.257,4.257,0,0,1,.08.825c0,.171,0,.322-.008.453s-.014.259-.025.383-.026.254-.044.387-.037.294-.062.479-.053.4-.084.653-.067.552-.106.9l1.556-.087-.212,1.752-3.755-.153q.088-.855.154-1.469c.044-.409.081-.759.113-1.048s.058-.533.08-.73.039-.371.051-.519.021-.284.025-.4.008-.253.008-.4a2.365,2.365,0,0,0-.077-.617,1.565,1.565,0,0,0-.23-.508,1.132,1.132,0,0,0-.383-.347,1.213,1.213,0,0,0-.537-.143,1.928,1.928,0,0,0-.41.1,4.622,4.622,0,0,0-.457.194,4.108,4.108,0,0,0-.595.362l-.3,4.178,1.644-.08-.131,1.577-5.019-.036V89.338l1.513-.059-.1-4.6-1.556.044V83.4Zm-17.8,5.662,1.9.015,3.521-5.991-3.368.139V80.33h6.224l3.185,8.189,2.273-.095v2.308l-6.283-.2-.044-1.856,2.528-.1-.629-1.169h-4.829l-.541,1.169,2.389.015-.1,2.3-6.268-.526ZM138.251,66.821a2.188,2.188,0,0,1,2.188-2.188h2.108a2.188,2.188,0,0,1,2.188,2.188V68.6a2.188,2.188,0,0,1-2.188,2.188H140.44a2.188,2.188,0,0,1-2.188-2.188Zm65.623,23.911-5.451-.167-.072-1.315,1.84-.124-.015-7.686-2.111-.072V80.044l4.6-.146-.724,9.095,2.17-.146Zm42.46-23.911a2.188,2.188,0,0,1,2.188-2.188h2.108a2.188,2.188,0,0,1,2.188,2.188V68.6a2.188,2.188,0,0,1-2.188,2.188h-2.108a2.188,2.188,0,0,1-2.188-2.188Zm-9.922,23.736a3.76,3.76,0,0,1-1.242-.789,3.588,3.588,0,0,1-.8-1.165,4.166,4.166,0,0,1-.332-1.421,4.581,4.581,0,0,1,.383-1.962,3.556,3.556,0,0,1,1.045-1.326,4.317,4.317,0,0,1,1.545-.749,7.2,7.2,0,0,1,1.877-.238,5.984,5.984,0,0,1,.756.051,3.745,3.745,0,0,1,.764.183,3.11,3.11,0,0,1,.712.362,2.616,2.616,0,0,1,.614.592,3.481,3.481,0,0,1,.464.865,4.882,4.882,0,0,1,.263,1.191l-6,1.074a5.449,5.449,0,0,0,.208.987,3.06,3.06,0,0,0,.406.851,1.927,1.927,0,0,0,.632.585,1.674,1.674,0,0,0,.895.2,2.363,2.363,0,0,0,.993-.335,2.02,2.02,0,0,0,.351-.288,1.724,1.724,0,0,0,.292-.413,2.038,2.038,0,0,0,.183-.563,2.816,2.816,0,0,0,.022-.737l2.2.526a3.83,3.83,0,0,1-.772,1.253,4.53,4.53,0,0,1-1.114.876,5.169,5.169,0,0,1-1.315.515,5.77,5.77,0,0,1-1.366.168,4.46,4.46,0,0,1-1.665-.292" transform="translate(-2.962 -1.359)" fill="#fff"/>
    <path id="Trazado_1270578" data-name="Trazado 1270578" d="M296.128,146.7l2.431.008v-.028h-2.434l0,.021" transform="translate(-6.559 -3.249)" fill="#fff"/>
    <path id="Trazado_1270579" data-name="Trazado 1270579" d="M259.024,146.274c1.616.015,3.345.029,5.163.043a17.189,17.189,0,0,1,2.9-9.266h-10.51c.8,2.82,1.626,5.962,2.446,9.223" transform="translate(-5.683 -3.036)" fill="#fff"/>
    <path id="Trazado_1270580" data-name="Trazado 1270580" d="M149.734,136.809c2.228-4.052,6.561-8.009,15-8.193,8.938-.2,13.8,3.946,16.437,8.193H205.9c1.57-3.7,3.644-7.336,6.116-8.846l-.019-.082s1-.714,2.675-1.755H132.423v10.683h17.311Z" transform="translate(-2.933 -2.794)" fill="#ef4d70"/>
    <path id="Trazado_1270581" data-name="Trazado 1270581" d="M252.79,126.126a63.955,63.955,0,0,1,3.705,10.683H267c2.366-3.416,6.655-6.529,14.43-6.862,8.337-.357,13.134,3.065,15.886,6.862h.28V126.126Z" transform="translate(-5.599 -2.794)" fill="#ef4d70"/>
    <path id="Trazado_1270582" data-name="Trazado 1270582" d="M297.576,136.895c-2.752-3.8-7.549-7.218-15.886-6.862-7.775.332-12.064,3.446-14.429,6.862a17.194,17.194,0,0,0-2.9,9.267c0,.1,0,.149,0,.149h4.958a13.161,13.161,0,0,1,26.1,0h2.434v-9.019q-.136-.2-.28-.4" transform="translate(-5.855 -2.88)" fill="#efb6c8"/>
    <path id="Trazado_1270583" data-name="Trazado 1270583" d="M181.508,136.865c-2.636-4.248-7.5-8.39-16.437-8.193-8.437.185-12.771,4.141-15,8.193a20.192,20.192,0,0,0-2.342,8.37c-.015.3-.013.473-.013.473H152.2a13.162,13.162,0,0,1,26.3,0h6.075s-.007-.085-.024-.239a22.214,22.214,0,0,0-3.04-8.605" transform="translate(-3.272 -2.85)" fill="#efb6c8"/>
    <path id="Trazado_1270584" data-name="Trazado 1270584" d="M282.4,161.282a13.147,13.147,0,0,0,13.138-14.842l0-.02A13.163,13.163,0,1,0,282.4,161.282m.134-21.02a7.856,7.856,0,1,1-7.906,7.806,7.856,7.856,0,0,1,7.906-7.806" transform="translate(-5.965 -2.989)" fill="#4b3c4f"/>
    <path id="Trazado_1270585" data-name="Trazado 1270585" d="M274.744,148.187a7.856,7.856,0,1,0,7.906-7.806,7.856,7.856,0,0,0-7.906,7.806" transform="translate(-6.086 -3.109)" fill="#d9d6e3"/>
    <path id="Trazado_1270586" data-name="Trazado 1270586" d="M165.531,133.2a13.163,13.163,0,0,0-13.233,12.61c-.006.156-.014.312-.015.469a13.164,13.164,0,0,0,26.328.168c0-.214,0-.426-.012-.638a13.165,13.165,0,0,0-13.068-12.61m7.772,13.214a7.856,7.856,0,1,1-7.806-7.906,7.856,7.856,0,0,1,7.806,7.906" transform="translate(-3.373 -2.95)" fill="#4b3c4f"/>
    <path id="Trazado_1270587" data-name="Trazado 1270587" d="M165.617,138.626a7.856,7.856,0,1,0,7.806,7.906,7.856,7.856,0,0,0-7.806-7.906" transform="translate(-3.493 -3.071)" fill="#d9d6e3"/>
    <path id="Trazado_1270588" data-name="Trazado 1270588" d="M286.715,89.52a1.356,1.356,0,0,0-1-.468L264.69,88.7a1.358,1.358,0,0,0-1.381,1.365l.113,21.922a1.359,1.359,0,0,0,1.366,1.351l33.044-.191V102.308c-4.722-5.408-9.7-11.152-11.117-12.788" transform="translate(-5.832 -1.965)" fill="#c7c7ef"/>
    <path id="Trazado_1270589" data-name="Trazado 1270589" d="M155.789,91.324l.1-2.3-2.389-.015.54-1.169h4.83l.628,1.169-2.528.1.044,1.856,6.283.2V88.855l-2.272.095-3.186-8.189h-6.224v2.367l3.368-.139-3.521,5.99-1.9-.015-.044,1.833ZM156.271,83l2.06,3.835H154.5Z" transform="translate(-3.312 -1.789)" fill="#ef4d70"/>
    <path id="Trazado_1270590" data-name="Trazado 1270590" d="M163.581,85.215l1.556-.044.1,4.595-1.513.059v1.33l5.019.036.131-1.577-1.644.08.3-4.179a4.134,4.134,0,0,1,.6-.361,4.227,4.227,0,0,1,.457-.194,1.906,1.906,0,0,1,.409-.1,1.213,1.213,0,0,1,.537.143,1.123,1.123,0,0,1,.383.347,1.588,1.588,0,0,1,.231.508,2.409,2.409,0,0,1,.076.617c0,.142,0,.273-.007.394s-.014.257-.026.406-.028.322-.051.519-.049.44-.08.73-.069.639-.113,1.048-.095.9-.154,1.468l3.755.154.212-1.753-1.556.088c.039-.351.073-.651.106-.9s.06-.468.084-.653.045-.345.062-.479.032-.263.044-.387.021-.252.025-.383.008-.283.008-.453a4.257,4.257,0,0,0-.08-.825,5.015,5.015,0,0,1,.537-.315,3.835,3.835,0,0,1,.406-.175,1.707,1.707,0,0,1,.35-.095,1.213,1.213,0,0,1,.537.143,1.105,1.105,0,0,1,.38.347,1.624,1.624,0,0,1,.226.508,2.365,2.365,0,0,1,.077.617c0,.142,0,.273-.008.394s-.013.257-.025.406-.029.322-.051.519-.049.44-.08.73-.069.639-.113,1.048-.095.9-.154,1.468l3.755.154.227-1.753-1.571.088q.066-.527.117-.9c.034-.248.063-.465.087-.65s.046-.345.063-.482.031-.267.044-.391.021-.25.025-.379.007-.277.007-.442a3.925,3.925,0,0,0-.146-1.107,2.18,2.18,0,0,0-.464-.855,2.108,2.108,0,0,0-.829-.552,3.45,3.45,0,0,0-1.242-.2,4.921,4.921,0,0,0-.789.132,6.332,6.332,0,0,0-.818.27,5.078,5.078,0,0,0-.949.511,2.08,2.08,0,0,0-.848-.672,3.236,3.236,0,0,0-1.337-.242,6.858,6.858,0,0,0-.68.117q-.314.079-.72.219a5.159,5.159,0,0,0-.859.394l.073-.943-4.1.526Z" transform="translate(-3.623 -1.846)" fill="#ef4d70"/>
    <path id="Trazado_1270591" data-name="Trazado 1270591" d="M179.89,83.4c-.028.3-.056.617-.08.946s-.046.659-.066.991-.035.657-.048.979-.018.623-.018.905a4.8,4.8,0,0,0,.354,1.819,3.773,3.773,0,0,0,.869,1.271,3.477,3.477,0,0,0,1.22.749,4.132,4.132,0,0,0,1.406.244,5.361,5.361,0,0,0,1-.1,4.992,4.992,0,0,0,1.035-.314,4.745,4.745,0,0,0,.967-.555,3.786,3.786,0,0,0,.812-.817,3.913,3.913,0,0,0,.554-1.1,4.48,4.48,0,0,0,.205-1.41,4.774,4.774,0,0,0-.289-1.749,3.284,3.284,0,0,0-.8-1.213,3.2,3.2,0,0,0-1.194-.709,4.615,4.615,0,0,0-1.476-.23,3.834,3.834,0,0,0-1.1.16,4.851,4.851,0,0,0-1.04.453q.1-.708.215-1.333t.208-1.1q.11-.556.2-1.023l-4.186-.4-.1,1.483,1.556-.073q-.125,1.066-.212,2.119m1.98,3.17q.051-.657.131-1.337a2.862,2.862,0,0,1,.427-.435,2.6,2.6,0,0,1,.471-.306,2.412,2.412,0,0,1,.468-.18,1.474,1.474,0,0,1,.416-.051,1.939,1.939,0,0,1,.555.124,1.322,1.322,0,0,1,.551.413,2.366,2.366,0,0,1,.413.833,4.706,4.706,0,0,1,.154,1.377,5.216,5.216,0,0,1-.489,2.484,1.5,1.5,0,0,1-1.366.8,1.3,1.3,0,0,1-.676-.194,1.923,1.923,0,0,1-.57-.53,2.8,2.8,0,0,1-.391-.785,3.078,3.078,0,0,1-.146-.961q0-.591.051-1.249" transform="translate(-3.955 -1.769)" fill="#ef4d70"/>
    <path id="Trazado_1270592" data-name="Trazado 1270592" d="M190.3,86.122q-.047.377-.088.661c-.026.19-.048.358-.066.5s-.031.288-.044.427-.021.284-.025.434-.007.327-.007.526a4.14,4.14,0,0,0,.116,1.019,1.941,1.941,0,0,0,.391.782,1.787,1.787,0,0,0,.734.5,3.206,3.206,0,0,0,1.154.179,4.155,4.155,0,0,0,.935-.146,6.53,6.53,0,0,0,.947-.343A5.093,5.093,0,0,0,195.43,90l-.095,1.2h3.952V89.9l-1.57-.131L197.629,85l1.658-.08V83.744l-5-.183-.154,1.571,1.651-.059-.226,3.083a3.667,3.667,0,0,1-.734.986,3.183,3.183,0,0,1-.72.5,2.063,2.063,0,0,1-.774.211.988.988,0,0,1-.515-.124.942.942,0,0,1-.335-.343,1.506,1.506,0,0,1-.179-.511,3.588,3.588,0,0,1-.051-.621c0-.136,0-.266.007-.39s.015-.266.029-.424.032-.339.055-.544.049-.453.08-.745.069-.638.113-1.034.095-.866.154-1.407l-3.609-.154-.226,1.753,1.556-.095c-.044.351-.082.651-.113.9" transform="translate(-4.183 -1.851)" fill="#ef4d70"/>
    <path id="Trazado_1270593" data-name="Trazado 1270593" d="M204.119,80.319l-4.595.146v1.323l2.111.072.015,7.686-1.841.124.073,1.315,5.45.167.234-1.884-2.17.146Z" transform="translate(-4.419 -1.779)" fill="#ef4d70"/>
    <path id="Trazado_1270594" data-name="Trazado 1270594" d="M213.681,89.341c.068-.264.128-.506.177-.721.086-.375.151-.686.194-.935a6.921,6.921,0,0,0,.1-.717q.007-.233-.007-.595a3.535,3.535,0,0,0-.124-.768,3.341,3.341,0,0,0-.351-.815,2.548,2.548,0,0,0-.672-.734,3.387,3.387,0,0,0-1.092-.518,5.5,5.5,0,0,0-1.611-.179,7.005,7.005,0,0,0-1.921.387,5.116,5.116,0,0,0-.724.343,3.28,3.28,0,0,0-.654.493,2.686,2.686,0,0,0-.5.68,2.431,2.431,0,0,0-.256.895l2.36-.116a2.084,2.084,0,0,1,.147-.471,1.76,1.76,0,0,1,.215-.362,1.6,1.6,0,0,1,.256-.263,1.88,1.88,0,0,1,.266-.183,1.754,1.754,0,0,1,.672-.2,3.215,3.215,0,0,1,.917.073,1.46,1.46,0,0,1,.592.285,1.017,1.017,0,0,1,.314.475,2.053,2.053,0,0,1,.092.636,6.24,6.24,0,0,1-.088,1.015c-.165-.024-.353-.042-.562-.055s-.446-.019-.709-.019-.536.012-.861.033a8.068,8.068,0,0,0-1,.132,7.8,7.8,0,0,0-1.016.266,3.536,3.536,0,0,0-.895.442,2.244,2.244,0,0,0-.636.661,1.7,1.7,0,0,0-.242.921,1.309,1.309,0,0,0,.263.836,1.918,1.918,0,0,0,.669.533,3.152,3.152,0,0,0,.895.282,5.586,5.586,0,0,0,2.189-.061,2.685,2.685,0,0,1,.452-.85,2.712,2.712,0,0,1,3.154-.823m-4.454.466a1.31,1.31,0,0,1-.427-.157.882.882,0,0,1-.288-.266.587.587,0,0,1-.106-.332.581.581,0,0,1,.146-.4,1.232,1.232,0,0,1,.376-.285,2.424,2.424,0,0,1,.522-.19,5.316,5.316,0,0,1,.585-.113c.195-.027.38-.045.558-.055s.328-.015.45-.015c.141,0,.277,0,.409.007s.253.013.365.022q-.044.307-.095.621t-.11.621q-.351.139-.836.288a9.455,9.455,0,0,1-1.034.252,1.491,1.491,0,0,1-.515,0" transform="translate(-4.564 -1.846)" fill="#ef4d70"/>
    <path id="Trazado_1270595" data-name="Trazado 1270595" d="M217.753,88.516a2.7,2.7,0,0,1,1.732-1l.1-1.45a5.365,5.365,0,0,1,.859-.676,5.513,5.513,0,0,1,.683-.362,2.509,2.509,0,0,1,.614-.175,1.071,1.071,0,0,1,.515.142.984.984,0,0,1,.335.347,1.542,1.542,0,0,1,.179.508,3.515,3.515,0,0,1,.052.617c0,.141,0,.273-.008.394s-.015.257-.029.406-.031.322-.051.518-.046.441-.08.73v.01a2.711,2.711,0,0,1,2.473-.472l.012-.089q.037-.277.062-.478t.044-.387c.013-.124.021-.252.025-.383s.008-.283.008-.453a3.881,3.881,0,0,0-.147-1.1,2.163,2.163,0,0,0-.464-.852,2.09,2.09,0,0,0-.825-.548,3.465,3.465,0,0,0-1.231-.194,5.317,5.317,0,0,0-.935.183,7.968,7.968,0,0,0-.939.354,5,5,0,0,0-1.056.646l.1-1.4-4.1.526v1.33l1.556-.044.072,3.26a2.786,2.786,0,0,1,.393.152c.017-.022.03-.046.048-.067" transform="translate(-4.777 -1.846)" fill="#ef4d70"/>
    <path id="Trazado_1270596" data-name="Trazado 1270596" d="M229.716,90.011a2.7,2.7,0,0,1,.895,1.291,4.985,4.985,0,0,0,.815.067c.1,0,.242,0,.417-.008a5.293,5.293,0,0,0,.593-.055,5.642,5.642,0,0,0,.708-.154,4.437,4.437,0,0,0,.772-.3,4.612,4.612,0,0,0,.771-.49,4.067,4.067,0,0,0,.715-.727L234.173,88.3a3.352,3.352,0,0,1-.27.6,3.229,3.229,0,0,1-.323.453,2.437,2.437,0,0,1-.679.552,1.992,1.992,0,0,1-.8.234,2.691,2.691,0,0,1-1.127-.215,2.111,2.111,0,0,1-.779-.6,2.463,2.463,0,0,1-.449-.909,4.377,4.377,0,0,1-.142-1.147,3.269,3.269,0,0,1,.16-1.048,2.285,2.285,0,0,1,.478-.825,2.231,2.231,0,0,1,.782-.544,2.722,2.722,0,0,1,1.077-.2,1.958,1.958,0,0,1,.411.08,3.672,3.672,0,0,1,.434.171,2.706,2.706,0,0,1,.514.326l-.211,1.067,1.242.146,1.226-3.273-1.775-.343-.256,1.242a3.912,3.912,0,0,0-.795-.409,5.978,5.978,0,0,0-.708-.219,4.127,4.127,0,0,0-.71-.095,4.938,4.938,0,0,0-1.472.226A3.821,3.821,0,0,0,227.7,85.5a4.514,4.514,0,0,0-.47,1.771,3.744,3.744,0,0,0,.08,1.187,3.5,3.5,0,0,0,.394.987,2.707,2.707,0,0,1,2.008.567" transform="translate(-5.033 -1.835)" fill="#ef4d70"/>
    <path id="Trazado_1270597" data-name="Trazado 1270597" d="M241.717,91.171a5.235,5.235,0,0,0,1.315-.515,4.534,4.534,0,0,0,1.114-.877,3.827,3.827,0,0,0,.771-1.253l-2.2-.526a2.782,2.782,0,0,1-.022.738,2,2,0,0,1-.183.562,1.7,1.7,0,0,1-.292.413,1.971,1.971,0,0,1-.35.288,2.355,2.355,0,0,1-.993.336,1.675,1.675,0,0,1-.9-.2,1.934,1.934,0,0,1-.632-.584,3.106,3.106,0,0,1-.4-.852,5.419,5.419,0,0,1-.208-.986l6-1.074a4.827,4.827,0,0,0-.263-1.191,3.408,3.408,0,0,0-.464-.866,2.616,2.616,0,0,0-.614-.592,3.107,3.107,0,0,0-.712-.361,3.73,3.73,0,0,0-.764-.183,5.8,5.8,0,0,0-.756-.051,7.251,7.251,0,0,0-1.877.237,4.341,4.341,0,0,0-1.545.749,3.559,3.559,0,0,0-1.044,1.326,4.569,4.569,0,0,0-.384,1.962,4.188,4.188,0,0,0,.332,1.421,3.607,3.607,0,0,0,.8,1.166,3.774,3.774,0,0,0,1.242.788,4.442,4.442,0,0,0,1.666.292,5.819,5.819,0,0,0,1.366-.167m-3.039-4.384a5.261,5.261,0,0,1,.059-.789,2.264,2.264,0,0,1,.223-.705,1.5,1.5,0,0,1,.464-.533,1.663,1.663,0,0,1,.781-.274,2.227,2.227,0,0,1,.921.154,1.812,1.812,0,0,1,.347.194,1.456,1.456,0,0,1,.314.3,1.636,1.636,0,0,1,.238.438,2.306,2.306,0,0,1,.124.6Z" transform="translate(-5.234 -1.847)" fill="#ef4d70"/>
    <path id="Trazado_1270598" data-name="Trazado 1270598" d="M203.564,106.862l.137.879.508-.095a3.791,3.791,0,0,1-.644-.784" transform="translate(-4.509 -2.367)" fill="#ef4d70"/>
    <path id="Trazado_1270599" data-name="Trazado 1270599" d="M251.074,70.86h2.107a2.189,2.189,0,0,0,2.189-2.188V66.9a2.189,2.189,0,0,0-2.189-2.188h-2.107a2.189,2.189,0,0,0-2.189,2.188v1.776a2.189,2.189,0,0,0,2.189,2.188" transform="translate(-5.513 -1.433)" fill="#ffcf57"/>
    <path id="Trazado_1270600" data-name="Trazado 1270600" d="M140.542,70.86h2.108a2.188,2.188,0,0,0,2.188-2.188V66.9a2.188,2.188,0,0,0-2.188-2.188h-2.108a2.188,2.188,0,0,0-2.188,2.188v1.776a2.188,2.188,0,0,0,2.188,2.188" transform="translate(-3.065 -1.433)" fill="#ffcf57"/>
    <path id="Trazado_1270601" data-name="Trazado 1270601" d="M136.519,124.636s-.594-8.432-.339-8.593a17.474,17.474,0,0,0-2.453-.042c-1.266.014-2.548.042-2.548.042v8.593h5.341Z" transform="translate(-2.906 -2.569)" fill="#ffcf57"/>
    <path id="Trazado_1270602" data-name="Trazado 1270602" d="M294.9,207.9a.652.652,0,0,1,.3.045c2.954,2.694,1.142,5.223,1.142,5.223l-.571.206c.264.743.6,1.276,1.038,1.358a4.289,4.289,0,0,1,1.721,1.088v-10.17c-1.97.875-3.662,1.7-3.662,1.7s.008.206.029.55" transform="translate(-6.531 -4.555)" fill="#efb9ca"/>
    <path id="Trazado_1270603" data-name="Trazado 1270603" d="M295.117,207.991a.67.67,0,0,0-.3-.045,20.9,20.9,0,0,0-3.853.785,26.67,26.67,0,0,1,1.925,5.7l2.8-1.01.57-.205s1.813-2.53-1.141-5.224" transform="translate(-6.445 -4.606)" fill="#fad4c8"/>
    <path id="Trazado_1270604" data-name="Trazado 1270604" d="M213.408,185.954c5.935,1.838,11.9,3.965,17.489,5.751.283-1.6.609-3.237.993-4.967.442-2,.806-5.131,1.245-8.609a20.926,20.926,0,0,1-7.88-8.426c-.018-.3-.044-.608-.074-.916a133.833,133.833,0,0,0-17.546-1.945q-.239.436-.464.855a41.715,41.715,0,0,1-1.846,6.28,33.311,33.311,0,0,1-4.459,8.288c-1.094,1.35-2.249,2.822-3.439,4.354a143.25,143.25,0,0,0,6.739,17.681l.862.058a1.85,1.85,0,0,1,1.607-.861,77,77,0,0,1,9.38.96,1.849,1.849,0,0,1,1.2.722l1.735.117c-1.341-5.06-3.344-12.342-5.538-19.342" transform="translate(-4.373 -3.696)" fill="#74b3ba"/>
    <path id="Trazado_1270605" data-name="Trazado 1270605" d="M288.9,206.326a278.917,278.917,0,0,0-28.2,6.864c2.119-8.065,4.436-17.137,4.828-25.047q.037-.684.049-1.4a58.88,58.88,0,0,0-.282-6.625c-8.659,2.567-15.538,2.9-20.956,2.048-1.876,4.233-3.909,9.175-5.952,13.746.254,4.246.564,9.229.875,13.647,3.778-.928,7.236-2.451,9.014-4.885.018-.024.035-.051.051-.077l2.516-4.275a.851.851,0,0,1,1.455-.022,2.889,2.889,0,0,1,.111,3.333.908.908,0,0,0-.149.61,10.276,10.276,0,0,1-4.116,9.469c-1.327,1.081-2.859,9.072-5.847,11.94,1.272,2.213,3.169,4.26,5.8,4.089.012,0,2.972-.357,3.175-.37,1.757-.248,3.579-.587,5.437-1,.17,0,.339-.012.506-.024,0-.03.01-.063.014-.093,15.73-3.6,33.7-12.18,34.721-12.806a14.721,14.721,0,0,0-.233-1.63,26.651,26.651,0,0,0-1.925-5.7c-.5-1.1-.893-1.788-.893-1.788m-44.524-19.28a5.532,5.532,0,0,0-.053-.572l.263-.281q-.1.411-.21.853m-.09-.778v.027c-.085.016-.188.031-.3.048Z" transform="translate(-5.28 -3.99)" fill="#74b3ba"/>
    <path id="Trazado_1270606" data-name="Trazado 1270606" d="M251.558,230.483c-.147.021-.3.045-.442.065a3.493,3.493,0,0,0,.442-.065" transform="translate(-5.562 -5.105)" fill="#4b3c4f"/>
    <path id="Trazado_1270607" data-name="Trazado 1270607" d="M244.415,186.407l-.3.075c.115-.017.218-.032.3-.048v-.027" transform="translate(-5.407 -4.129)" fill="#4b3c4f"/>
    <path id="Trazado_1270608" data-name="Trazado 1270608" d="M244.459,186.612a5.531,5.531,0,0,1,.053.572c.071-.293.141-.579.211-.853Z" transform="translate(-5.415 -4.127)" fill="#4b3c4f"/>
    <path id="Trazado_1270609" data-name="Trazado 1270609" d="M220,206.2l.27.018-.02-.07Z" transform="translate(-4.873 -4.566)" fill="#614b68"/>
    <path id="Trazado_1270610" data-name="Trazado 1270610" d="M196.865,186.19c1.189-1.531,2.344-3,3.439-4.354a33.326,33.326,0,0,0,4.459-8.288,41.645,41.645,0,0,0,1.846-6.28q.226-.42.464-.855a127.316,127.316,0,0,0,5.884-11.327c.506-1.229.972-2.472,1.432-3.717-7.263-1.037-10.719-3.643-10.954-3.825q-1.2,2.6-2.243,5.26c-1.086,2.741-3.276,7.486-4.481,10.4-4.121,6.155-7.666,17.379-9.959,21.875a105.678,105.678,0,0,0-4.822,10.8q-.411,1.077-.808,2.188a6.017,6.017,0,0,0-2.763.422c-2.283,1.035-5.159,2.009-6.255,1.981.17.852,1.031,1.256,2.1,1.418l1.347.091a16.98,16.98,0,0,0,1.867-.114c-.039.076-.077.154-.116.232l.03,0a1.853,1.853,0,0,1,1.512-.724,70.406,70.406,0,0,1,8.056.762,6.347,6.347,0,0,0-1.161-2.018c3.552-4.038,7.5-9.262,11.126-13.93" transform="translate(-3.812 -3.268)" fill="#fad4c8"/>
    <path id="Trazado_1270611" data-name="Trazado 1270611" d="M213.589,127.708l.019.082c-2.472,1.511-4.545,5.145-6.116,8.847a70.215,70.215,0,0,0-2.968,8.724c-.257.95-.392,1.525-.392,1.525l.014.011c.235.182,3.69,2.789,10.954,3.824q.729.1,1.51.187,1.109-1.957,1.939-3.766c2.6,6.386,6.137,14.066,6.781,20.569.03.308.057.614.074.916a20.926,20.926,0,0,0,7.88,8.426c.641-5.085,1.445-10.915,2.894-15.068.434-3.122,1.36-8.266,1.723-11.192q.351-2.829.849-5.654l-.016-.007s-.53-21.1,6.9-22.258c6.166,1.338,10,8.761,6.19,23.013q-.776.117-1.508.2c-.132,1.321-.271,2.641-.451,3.957-.554,4.05-2.077,9.292-3.081,13.388a41.656,41.656,0,0,1-.208,6.542,33.3,33.3,0,0,1-2.231,9.143c-.248.545-.5,1.106-.753,1.679,5.418.852,12.3.52,20.956-2.048.246-.073.495-.148.744-.225,0,0-3.637-17.594-7.425-32.664-.82-3.261-1.648-6.4-2.446-9.223a63.955,63.955,0,0,0-3.705-10.683,4.911,4.911,0,0,0-.607-.916,20.208,20.208,0,0,0-18.122-6.422,3.519,3.519,0,0,1,.243,1.786c-1.653,7.449-8.2,5.427-7.847,2.9a5.586,5.586,0,0,0-.186-2.1l-.244.109a23.174,23.174,0,0,1-4.114,2.42l-.248-.273c-1.687.905-3.164,1.783-4.321,2.5-1.672,1.04-2.675,1.754-2.675,1.754m16.34,14.1-9.23,1.154-1.154-6.076,9.614-1.231Z" transform="translate(-4.521 -2.621)" fill="#88c6d1"/>
    <path id="Trazado_1270612" data-name="Trazado 1270612" d="M230.715,111.426a8.248,8.248,0,0,1-1.472,5.318,16.468,16.468,0,0,1-3.593,4.217l.018.067a5.586,5.586,0,0,1,.186,2.1c-.349,2.531,6.195,4.552,7.847-2.9a3.509,3.509,0,0,0-.243-1.786c-.007-.022-.014-.044-.02-.066-.842-2.8-1.543-5.425-2.08-7.56a3.357,3.357,0,0,1-.655.456c0,.05.008.1.011.148" transform="translate(-4.998 -2.455)" fill="#f2beb3"/>
    <path id="Trazado_1270613" data-name="Trazado 1270613" d="M225.1,120.927c.078-.059.154-.117.228-.176a16.462,16.462,0,0,0,3.592-4.217,8.242,8.242,0,0,0,1.472-5.318c0-.048-.007-.1-.011-.148a3.364,3.364,0,0,0,.656-.456,6.492,6.492,0,0,0,1.732-5.345,2.884,2.884,0,0,0-1.234-2.333c-1.477-.737-2.492,1.92-2.98,3.644a2.709,2.709,0,0,1-4.3-2.366,2.709,2.709,0,0,1-3.329-2.835,2.73,2.73,0,0,1-.433-.06,2.7,2.7,0,0,1-3.2,1.865,2.709,2.709,0,0,1-3.028,3.257,2.7,2.7,0,0,1-3.047,2.315,27.278,27.278,0,0,0,1.334,2.954,2.654,2.654,0,0,1,1.456-1.055c.382-.153.547.465.17.615-.451.179-1.1.434-1.153,1a.323.323,0,0,1-.074.183,59.844,59.844,0,0,0,7.79,10.622l.248.273a23.16,23.16,0,0,0,4.113-2.42m-.91-4.842a.319.319,0,0,1,.169.615,7.707,7.707,0,0,0-3.8,2.285c-.278.3-.728-.149-.451-.451a8.31,8.31,0,0,1,4.08-2.45m-4.4-4.376a.556.556,0,1,1,.773-.146.557.557,0,0,1-.773.146m11.41-6.72a3.11,3.11,0,0,0-1.347,2.84c.029.41-.609.407-.639,0a3.756,3.756,0,0,1,1.664-3.391c.34-.232.659.321.322.551m-13.1,3.538a3.939,3.939,0,0,1,3.688-.777c.381.143.215.76-.17.615a3.369,3.369,0,0,0-3.2.713c-.336.239-.655-.315-.323-.551m-2.83,5.8a.556.556,0,1,1-.145-.772.556.556,0,0,1,.145.772m2.021,3.461a.7.7,0,0,1-.34-.425,2.789,2.789,0,0,1-.086-.909,11.856,11.856,0,0,0-1.143-5.243.815.815,0,0,1-.09-.374c.051-.644.771-.164.96.077a1.8,1.8,0,0,1,.178.274c.816,1.612,1.641,3.22,2.444,4.838a1.307,1.307,0,0,1,.169.5c.035.658-1.006,1.064-1.5,1.249a.77.77,0,0,1-.595.014" transform="translate(-4.678 -2.244)" fill="#fad4c8"/>
    <path id="Trazado_1270614" data-name="Trazado 1270614" d="M219.5,116.729a1.322,1.322,0,0,0-.168-.5c-.8-1.618-1.627-3.226-2.444-4.838a1.766,1.766,0,0,0-.179-.273c-.189-.243-.909-.723-.96-.077a.827.827,0,0,0,.09.373,11.857,11.857,0,0,1,1.144,5.243,2.761,2.761,0,0,0,.086.909.694.694,0,0,0,.339.425.77.77,0,0,0,.595-.014c.491-.185,1.532-.591,1.5-1.249" transform="translate(-4.779 -2.452)" fill="#f2beb3"/>
    <path id="Trazado_1270615" data-name="Trazado 1270615" d="M220.76,111.775a.556.556,0,1,0-.773.145.556.556,0,0,0,.773-.145" transform="translate(-4.867 -2.457)" fill="#4b3c4f"/>
    <path id="Trazado_1270616" data-name="Trazado 1270616" d="M215.206,113.826a.556.556,0,1,0,.145.772.556.556,0,0,0-.145-.772" transform="translate(-4.748 -2.519)" fill="#4b3c4f"/>
    <path id="Trazado_1270617" data-name="Trazado 1270617" d="M218.588,109.218a3.37,3.37,0,0,1,3.2-.714c.384.145.551-.471.169-.615a3.937,3.937,0,0,0-3.687.778c-.332.235-.015.788.322.551" transform="translate(-4.831 -2.385)" fill="#dda678"/>
    <path id="Trazado_1270618" data-name="Trazado 1270618" d="M214.206,111.479c.377-.15.212-.767-.169-.615a2.653,2.653,0,0,0-1.457,1.055,1.4,1.4,0,0,0-.116.3,1.464,1.464,0,0,0-.048.262.274.274,0,0,0,.322.3.353.353,0,0,0,.242-.119.326.326,0,0,0,.074-.184c.052-.565.7-.821,1.153-1" transform="translate(-4.705 -2.455)" fill="#dda678"/>
    <path id="Trazado_1270619" data-name="Trazado 1270619" d="M220.313,118.867c-.277.3.173.755.451.451a7.706,7.706,0,0,1,3.8-2.285.319.319,0,0,0-.17-.615,8.314,8.314,0,0,0-4.08,2.45" transform="translate(-4.878 -2.578)" fill="#efb9a8"/>
    <path id="Trazado_1270620" data-name="Trazado 1270620" d="M208.845,109.92a2.7,2.7,0,0,0,1.723-1.576,2.7,2.7,0,0,0,3.515-2.209,2.709,2.709,0,0,0,3.029-3.257,2.707,2.707,0,0,0,3.2-1.865,2.715,2.715,0,0,0,.433.06,2.709,2.709,0,0,0,3.329,2.835,2.709,2.709,0,0,0,4.3,2.367c.489-1.726,1.5-4.382,2.98-3.644a2.88,2.88,0,0,1,1.234,2.332,2.7,2.7,0,0,0,.6-3.848c.051-.054.1-.109.147-.167a2.7,2.7,0,0,0-.951-4.128,2.708,2.708,0,0,0-2.31-3.766,2.709,2.709,0,0,0-2.907-3.5,2.788,2.788,0,0,0-.614.15,2.707,2.707,0,0,0-4.576-.7,2.717,2.717,0,0,0-4.511-.394l-.048.067a2.667,2.667,0,0,0-.393-.151,2.709,2.709,0,0,0-2.893.914c-.049.062-.093.126-.136.191a2.709,2.709,0,0,0-4.084,2.772,2.71,2.71,0,0,0-3.289,3.941,2.71,2.71,0,0,0-2.007,4.815c.022.017.044.031.066.047a3.848,3.848,0,0,0-.492,6.014c.077.071.156.142.241.208a3.844,3.844,0,0,0,1,.572,2.709,2.709,0,0,0,3.415,1.921" transform="translate(-4.496 -1.94)" fill="#4b3c4f"/>
    <path id="Trazado_1270621" data-name="Trazado 1270621" d="M231.293,104.507a3.755,3.755,0,0,0-1.664,3.39c.029.408.668.411.639,0a3.112,3.112,0,0,1,1.347-2.84c.337-.23.019-.782-.322-.551" transform="translate(-5.086 -2.314)" fill="#efb9a8"/>
    <path id="Trazado_1270622" data-name="Trazado 1270622" d="M229.508,136.044l-9.615,1.23,1.154,6.077,9.231-1.154Z" transform="translate(-4.871 -3.013)" fill="#fff"/>
    <path id="Trazado_1270623" data-name="Trazado 1270623" d="M173.735,258.877a68.083,68.083,0,0,1-10.93-1.752c-2.869-.807-4.185-1.762-4.878-2.943a5.394,5.394,0,0,0-1.829,2.649c-.313,1.578,7.311,3.849,9.287,4.072s1.833-1.612,3.412-1.3.7,1.99,3.9,2.624,13.05-.48,16.065-2.742c2-1.5,1.367-3.08.715-3.973-1.313,2.067-6.1,4.339-15.737,3.366" transform="translate(-3.457 -5.63)" fill="#4b3d51"/>
    <path id="Trazado_1270624" data-name="Trazado 1270624" d="M162.828,256.82a67.864,67.864,0,0,0,10.93,1.752c9.64.974,14.422-1.3,15.737-3.365a1.656,1.656,0,0,0-.9-2.7c-3.484-1.1-3.741.2-9.58-2.171a10.572,10.572,0,0,1-1.2-.583.737.737,0,0,1-.575.331,1.764,1.764,0,0,0-1.545,1.257c-.306.9-1.74.512-1.432-.394a3.315,3.315,0,0,1,2.106-2.171c-.2-.161-.4-.328-.586-.5a.772.772,0,0,1-.407.174,4.07,4.07,0,0,0-2.922,1.848.743.743,0,0,1-1.283-.749,5.482,5.482,0,0,1,3.455-2.444q-.315-.355-.6-.711a.752.752,0,0,1-.373.115c-1.8.095-3.18,1.334-4.453,2.477-.71.638-1.763-.41-1.05-1.05a9.926,9.926,0,0,1,4.884-2.843c-.342-.468-.654-.906-.95-1.284-.841-1.081-1.54-1.685-2.389-1.18-2.289,1.362-4.9,3.24-6.891,1.659s-.9-4.525-2.831-3.7c-1.544.662-2.807,7.188-2.836,9.649a8.276,8.276,0,0,0,.326,2.468,5.223,5.223,0,0,0,.494,1.168c.692,1.182,2.009,2.137,4.878,2.943" transform="translate(-3.48 -5.326)" fill="#ffcf57"/>
    <path id="Trazado_1270625" data-name="Trazado 1270625" d="M169.436,249.09c1.273-1.144,2.657-2.382,4.454-2.477a.752.752,0,0,0,.372-.115c.557-.357.437-1.413-.372-1.37a5.776,5.776,0,0,0-.62.069,9.926,9.926,0,0,0-4.884,2.843c-.713.64.34,1.688,1.05,1.05" transform="translate(-3.724 -5.43)" fill="#fff"/>
    <path id="Trazado_1270626" data-name="Trazado 1270626" d="M171.48,249.7a.743.743,0,0,0,1.281.75,4.074,4.074,0,0,1,2.923-1.849.779.779,0,0,0,.407-.173c.5-.419.374-1.41-.407-1.312a6.575,6.575,0,0,0-.75.141,5.478,5.478,0,0,0-3.454,2.444" transform="translate(-3.796 -5.473)" fill="#fff"/>
    <path id="Trazado_1270627" data-name="Trazado 1270627" d="M174.641,251.127c-.308.907,1.126,1.3,1.433.4a1.764,1.764,0,0,1,1.544-1.258.736.736,0,0,0,.576-.331.707.707,0,0,0-.576-1.153,3.644,3.644,0,0,0-.87.176,3.315,3.315,0,0,0-2.106,2.171" transform="translate(-3.867 -5.51)" fill="#fff"/>
    <path id="Trazado_1270628" data-name="Trazado 1270628" d="M25.924,266.757a2.211,2.211,0,0,0,2.529.144l1.087-.577c.9-.475,1.226-1.319.732-1.874l-.363-.407-6.6-.22Z" transform="translate(-0.516 -5.844)" fill="#4b3d51"/>
    <path id="Trazado_1270629" data-name="Trazado 1270629" d="M23.877,259.883l-1.087.577c-.059.031-.114.064-.168.1l4.359.115-.575-.646a2.213,2.213,0,0,0-2.529-.144" transform="translate(-0.501 -5.749)" fill="#4b3d51"/>
    <path id="Trazado_1270630" data-name="Trazado 1270630" d="M126.117,238.869a.954.954,0,0,1-.867,1.034l-1.792.156a4.639,4.639,0,0,0-.643.1,2.06,2.06,0,0,0,1.713.8c3.116.109,6.384.123,8.487.118a3.114,3.114,0,0,0,2.963-1.787c.008-.025.015-.05.022-.075.274-.967-.573-1.752-1.891-1.777-3.085-.057-9.127-.146-9.585.022a4.073,4.073,0,0,0-1.109.689l1.67-.147a.954.954,0,0,1,1.034.867" transform="translate(-2.72 -5.258)" fill="#4e3a50"/>
    <path id="Trazado_1270631" data-name="Trazado 1270631" d="M13.621,243.278,8.393,250.7a26.825,26.825,0,0,1,4.618,2.315l6.339-9.189,67.77,14.694c-.734.971-1.529,2.064-2.249,3.145l-58.318-1.546-4.359-.115-5.1-.135a6.556,6.556,0,0,1-1.381,3.068l7.156.238,6.6.22,53.413,1.778a3.64,3.64,0,0,0-.374,1.638,1.787,1.787,0,0,0,.638,1.215,4.609,4.609,0,0,0,2.812.768,3.018,3.018,0,0,0,.375-.021,2.752,2.752,0,0,0,1.919-1.055c1.705-2.512,6.283-9.271,8.271-12.375a1.516,1.516,0,0,0,.111-.211,5.184,5.184,0,0,1-.718-.119c-1.861-.481-4.746-.834-4.762-1.661a2.151,2.151,0,0,0-.736.718l-.6,1.028c-.023.04-.049.08-.077.119L21.779,240.31l3.745-5.429c-1.132-.026-2.259-.032-3.339-.014a13.12,13.12,0,0,1-2.5-.195L15.6,240.465l-11.675.173a22.453,22.453,0,0,1-.576,2.6Z" transform="translate(-0.074 -5.198)" fill="#ef4d70"/>
    <path id="Trazado_1270632" data-name="Trazado 1270632" d="M12.107,254.411a26.886,26.886,0,0,0-4.46-2.174l-1.534,2.18a11.913,11.913,0,0,1,5.994-.006" transform="translate(-0.135 -5.587)" fill="#ef4d70"/>
    <path id="Trazado_1270633" data-name="Trazado 1270633" d="M8.981,264.235c3.092-1.1,4.841-3.64,3.907-5.666S8.69,255.8,5.6,256.9s-4.84,3.641-3.907,5.666,4.2,2.773,7.291,1.669" transform="translate(-0.032 -5.679)" fill="#4b3d51"/>
    <path id="Trazado_1270634" data-name="Trazado 1270634" d="M13.1,265.487a9.786,9.786,0,0,0,2.547-2.238,6.584,6.584,0,0,0,1.38-3.069,5.193,5.193,0,0,0-.2-2.4,8.825,8.825,0,0,0-3.883-4.45,26.81,26.81,0,0,0-4.617-2.315c-.77-.308-1.589-.611-2.467-.909-1.446-.493-3.007-.962-4.659-1.417Q.863,249.3.5,249.909c1.75.476,3.4.967,4.911,1.482q1.11.378,2.1.766a26.886,26.886,0,0,1,4.46,2.174,11.913,11.913,0,0,0-5.994.006,13.442,13.442,0,0,0-1.331.4,12.213,12.213,0,0,0-3.684,2.054,2.082,2.082,0,0,1-.535.475c-.149.143-.292.286-.427.434v7.505c.1.082.208.162.318.239L0,265.372v1.393a25.193,25.193,0,0,0,5.559.679,14.013,14.013,0,0,0,7.535-1.957M5.566,256.73c3.091-1.1,6.355-.356,7.291,1.669s-.816,4.562-3.907,5.666-6.357.356-7.291-1.669.815-4.563,3.907-5.666" transform="translate(0 -5.508)" fill="#968eb6"/>
    <path id="Trazado_1270635" data-name="Trazado 1270635" d="M22.4,234.661c1.081-.02,2.207-.013,3.339.014,5.637.133,11.422.77,12.393,1.287,1.167.621,6.619-1.671,4.708-3.524S20.4,225,18.106,225.359c-.128.021-.259.044-.394.072-4.147.875-6.142,4.586-3.581,6.51a13.551,13.551,0,0,0,5.762,2.526,13.14,13.14,0,0,0,2.5.195" transform="translate(-0.288 -4.991)" fill="#4b3d51"/>
    <path id="Trazado_1270636" data-name="Trazado 1270636" d="M1.191,248.164c.4-.741.754-1.489,1.071-2.241a25.175,25.175,0,0,0,1.016-2.9,22.822,22.822,0,0,0,.576-2.6,19.643,19.643,0,0,0-1.546-11.463A20.656,20.656,0,0,0,0,225.132V250.2q.258-.406.5-.815.362-.609.688-1.223" transform="translate(0 -4.987)" fill="#4b3d51"/>
    <path id="Trazado_1270637" data-name="Trazado 1270637" d="M103.685,286.237c-2.953-6.4-9.184-11.126-17.64-13.422-1.056,1.652-2.232,3.486-3.469,5.409.181.038.363.074.543.115,7.381,1.69,12.727,5.4,15.053,10.441a13.935,13.935,0,0,1,.8,9.261h6.205a19.674,19.674,0,0,0-1.487-11.806" transform="translate(-1.829 -6.043)" fill="#4b3d51"/>
    <path id="Trazado_1270638" data-name="Trazado 1270638" d="M56.713,280.253a49,49,0,0,1,16.357-2.912,41.686,41.686,0,0,1,5,.3l3.579-5.592a52.557,52.557,0,0,0-26.978,2.485,51.021,51.021,0,0,0-15.8,8.946,34.1,34.1,0,0,0-9.488,12.447q-.437,1.04-.771,2.082H35.1c3.258-7.456,11.309-14.079,21.611-17.756" transform="translate(-0.634 -6.009)" fill="#4b3d51"/>
    <path id="Trazado_1270639" data-name="Trazado 1270639" d="M85.675,272.726c.747-1.169,1.435-2.244,2.042-3.2a2.813,2.813,0,0,1-.375.021,4.605,4.605,0,0,1-2.812-.768l-2.054,3.211L78.9,277.586,65.867,297.953h3.345c3.323-4.859,8.551-12.911,12.994-19.818,1.237-1.923,2.412-3.758,3.469-5.409" transform="translate(-1.459 -5.953)" fill="#968eb6"/>
    <path id="Trazado_1270640" data-name="Trazado 1270640" d="M97.9,255.087a5.041,5.041,0,0,0,.718.119,39.781,39.781,0,0,0,6.077-.146,2.839,2.839,0,0,0,2.271-1.325l.507-1.008a1.117,1.117,0,0,0,.012-1.073l2.01-4.084a13.675,13.675,0,0,0,10.238-5.94,4.117,4.117,0,0,1,2.421-1.455,4.6,4.6,0,0,1,.642-.1l1.793-.156a.954.954,0,0,0-.166-1.9l-1.671.147-.122.011a6.158,6.158,0,0,0-4.458,2.361,11.772,11.772,0,0,1-9.518,5.17c-1.914.036-3.181-.33-3.569-1.026-.423-.761.09-2.061.712-3.024a2.119,2.119,0,0,0,.214-2.028,2.485,2.485,0,0,0-1.941-1.369c-.443-.074-.815-.139-1.128-.193a1.419,1.419,0,0,1-.1.414l-.032.074a2.593,2.593,0,0,1-1.241,1.209c.471.086,1.159.2,2.185.377a.716.716,0,0,1,.515.255c.022.052-.022.151-.07.226-1.212,1.877-1.5,3.7-.776,4.987a3.7,3.7,0,0,0,2.323,1.678l-1.788,3.258-6.609-1.1a2.954,2.954,0,0,0-2.993,1.331l-1.17,2.466a.42.42,0,0,0-.043.19c.017.826,2.9,1.179,4.762,1.66" transform="translate(-2.063 -5.272)" fill="#968eb6"/>
    <path id="Trazado_1270641" data-name="Trazado 1270641" d="M102.732,238.5c.011-.024.022-.05.031-.075a1.384,1.384,0,0,0,.1-.414c.073-.783-.605-1.424-1.7-1.525-3-.279-8.876-.8-9.345-.665a4.277,4.277,0,0,0-1.677,1.063c-.984,1.074-.364,2.319,1.191,2.492,3.023.333,6.206.582,8.256.727a3.692,3.692,0,0,0,1.9-.394,2.59,2.59,0,0,0,1.242-1.208" transform="translate(-1.986 -5.223)" fill="#4e3a50"/>
    <path id="Trazado_1270642" data-name="Trazado 1270642" d="M.962,256.843a1.088,1.088,0,0,0,.246-.916L0,250.909v6.626a2.54,2.54,0,0,0,.427-.217,2.065,2.065,0,0,0,.535-.475" transform="translate(0 -5.558)" fill="#4b3d51"/>
    <path id="Trazado_1270643" data-name="Trazado 1270643" d="M32.159,156.109c.116-.785.863-.981,1.786-.9a30.284,30.284,0,0,1-2.194-2.392c2.361-1.273,14.753-7.93,18.474-9.376.252-.1.467-.173.634-.22a11.125,11.125,0,0,0-2.759-5.666,7.642,7.642,0,0,0-1.9-1.425,9.206,9.206,0,0,0-5.679-.8,21.419,21.419,0,0,0-6.557,2.225c-.434.218-.876.452-1.331.705-12.049,6.706-1.589,14.532-1.277,14.763-3.024,1.643-7.7,4.449-8.011,6.236-.462,2.654,5.018,4.269,8.538,2.942a11.569,11.569,0,0,0,3.789-2.9c-1.872-.639-3.672-2.089-3.509-3.191m11.43-11.219s-1.558-4.269,1.558-4.962a3.738,3.738,0,0,1,4.269,2.308Z" transform="translate(-0.516 -2.995)" fill="#ffcf57"/>
    <path id="Trazado_1270644" data-name="Trazado 1270644" d="M189.682,204.161a1.849,1.849,0,0,1,.473,1.559c-.031.192-.066.4-.1.614,4.736.565,9.463,1.195,13.824,1.814a13.811,13.811,0,0,1,.877-2.783,1.805,1.805,0,0,1,.1-.181l-.862-.058Z" transform="translate(-4.201 -4.522)" fill="#efb9ca"/>
    <path id="Trazado_1270645" data-name="Trazado 1270645" d="M175.351,203.2,174,203.106l-1.9-.128-7.22-.487a1.674,1.674,0,0,0-1.784,1.577l-.007.118c1.526.021,3.08.074,4.619.171l.026.015c2.662.107,5.6.305,8.7.57a9.777,9.777,0,0,1,.492-1.307,1.831,1.831,0,0,1,.195-.318l-.029,0Z" transform="translate(-3.613 -4.485)" fill="#efb9ca"/>
    <path id="Trazado_1270646" data-name="Trazado 1270646" d="M224.292,211.352c.61.053,1.431.089,2.4.1l.075-.215c.088-.827.319-2.826.652-4.527l-1.134-.076c-1.644.5-3.484.752-4.165-.281l-1.9-.128-.27-.019-.555-.037-1.735-.117a1.847,1.847,0,0,1,.345,1.406c-.12.738-.27,1.666-.434,2.719,3.318.541,5.714.966,6.725,1.179" transform="translate(-4.819 -4.564)" fill="#efb9ca"/>
    <path id="Trazado_1270647" data-name="Trazado 1270647" d="M189.018,213.066l13.959.941a53.159,53.159,0,0,1,.888-5.81c-4.361-.619-9.088-1.249-13.825-1.814-.273,1.692-.65,4.1-1.022,6.684" transform="translate(-4.187 -4.571)" fill="#d08d83"/>
    <path id="Trazado_1270648" data-name="Trazado 1270648" d="M247.968,214.157a10.278,10.278,0,0,0,4.116-9.469.9.9,0,0,1,.149-.61,2.89,2.89,0,0,0-.111-3.333.852.852,0,0,0-1.456.022l-2.516,4.276c-.016.026-.032.053-.05.077-1.779,2.433-5.235,3.956-9.015,4.884q-.616.151-1.242.282a17.054,17.054,0,0,1-.529,1.894l-1.86,6.921a2,2,0,0,1-1.054,1.261c-1.894.882-.378-3.777.552-6.294-.084.023-.168.045-.253.065l-2.635,7.75a1.037,1.037,0,0,1-.854.706c-1.947.206.063-5.906.983-8.456q-.268-.053-.53-.123L230.7,217a1.706,1.706,0,0,1,.01.419l-.558,5.307c2.778,2.139,6.587,4.151,10.1,4.344a.832.832,0,0,0,.22-.016,3.525,3.525,0,0,0,1.655-.96c2.986-2.868,4.519-10.858,5.847-11.94" transform="translate(-5.098 -4.438)" fill="#d08d83"/>
    <path id="Trazado_1270649" data-name="Trazado 1270649" d="M229.284,213.343c-.191-.1-.375-.207-.547-.31l-.831,2.744.59.04c.418-1.416.785-2.466.788-2.474" transform="translate(-5.048 -4.719)" fill="#d08d83"/>
    <path id="Trazado_1270650" data-name="Trazado 1270650" d="M226.675,211.541c-.969-.007-1.789-.043-2.4-.1-1.011-.213-3.407-.639-6.725-1.179-.219,1.4-.465,3.025-.708,4.72l8.566.578c.512-1.81,1.069-3.452,1.266-4.023" transform="translate(-4.803 -4.657)" fill="#d08d83"/>
    <path id="Trazado_1270651" data-name="Trazado 1270651" d="M35.122,218.978c3.749,5.483,15.481,9.894,27.256,13.566A12.046,12.046,0,0,1,63.255,226q-.662-.455-1.306-.933c-3.172-2.35-9.758-9.1-15.428-12.808a38.428,38.428,0,0,0,2.929-5.247c-5.68-2.922-10.784-5.765-12.89-6.953-2.72,7.739-4.566,16.018-1.437,18.922" transform="translate(-0.742 -4.431)" fill="#d08d83"/>
    <path id="Trazado_1270652" data-name="Trazado 1270652" d="M90.717,218.3l.091-.066-.167-.041.076.107" transform="translate(-2.008 -4.833)" fill="#4b3c4f"/>
    <path id="Trazado_1270653" data-name="Trazado 1270653" d="M161.851,212.933a1.674,1.674,0,0,1,1.784-1.577l11.4.769a41.693,41.693,0,0,1,1.258-7.144c-3.1-.264-6.042-.463-8.7-.569-.009,0-.017-.011-.025-.015-1.539-.1-3.093-.151-4.619-.171-1.766-.023-3.494,0-5.118.041A19.458,19.458,0,0,1,156,219.786c1.671-.3,3.333-.641,4.86-1.011l.157,0c.152.148.314.291.483.431Z" transform="translate(-3.455 -4.523)" fill="#d08d83"/>
    <path id="Trazado_1270654" data-name="Trazado 1270654" d="M156.86,203.57c-.166-.539-.358-1.085-.579-1.638-4.814-.648-10.97-1.46-17.158-2.27,3.205-2.258,7.094-5.033,11.206-8.052a27,27,0,0,0-.9-3.3,32.638,32.638,0,0,0-9.207-13.472,25.183,25.183,0,0,0-2.542-2.019s-7.54,5.609-13.622,10.2c1.92,7.625-4.293,30.266-11.483,35.437l39.828,4.331a19.149,19.149,0,0,0,2.641-3.7,19.457,19.457,0,0,0,1.818-15.52" transform="translate(-2.493 -3.828)" fill="#4b3c4f"/>
    <path id="Trazado_1270655" data-name="Trazado 1270655" d="M122.351,182.6a4.038,4.038,0,0,0-1.037-2.025c-.616-.563-3.709-.419-4.607-.547-8.978-1.287-17.982-3.008-26.384-6.519l-.328-.138c-8.5-3.607-14.255-9.822-20.36-16.536a7.565,7.565,0,0,0-9.593-1.723,29.733,29.733,0,0,0-3.383,2.757,12.534,12.534,0,0,1,.549,3.451c.014,1.223-.985,2.221-2.527,2.912a6.119,6.119,0,0,1-1.443,7.126c-.066.059-.132.114-.2.168a3.231,3.231,0,0,1-5.092-1.636c-.266-.882-.653-1.9-1.075-2.9-1.972,2.94-5.483,8.252-6.228,12.474-.024.142-.046.282-.066.419-1.584,4.6-3.739,12.759-4.995,18.574,0,0,.366.209,1.023.58,2.106,1.188,7.21,4.032,12.889,6.953q.843.433,1.7.867c.659-.79,2.467-3.583,4.566-6.923a87.213,87.213,0,0,0,33.661,16.838l.168.041a81.486,81.486,0,0,0,18.351,2.288,4.928,4.928,0,0,0,2.927-1.06c7.19-5.172,13.4-27.812,11.483-35.437m-50.987-19.73s9.345,5.018,8.653,9.172-10.557.173-13.671-2.077Z" transform="translate(-0.788 -3.413)" fill="#ef4d70"/>
    <path id="Trazado_1270656" data-name="Trazado 1270656" d="M53.274,171.76c.066-.054.133-.111.2-.168a6.119,6.119,0,0,0,1.443-7.127,16.1,16.1,0,0,1-8.649.839c.279.611.566,1.261.84,1.917.421,1.007.809,2.021,1.076,2.9a3.231,3.231,0,0,0,5.092,1.636" transform="translate(-1.025 -3.643)" fill="#b26b5e"/>
    <path id="Trazado_1270657" data-name="Trazado 1270657" d="M54.734,164.236c1.542-.691,2.54-1.689,2.527-2.911a12.51,12.51,0,0,0-.55-3.452,14.559,14.559,0,0,0-1.721-3.752l-.074.037c-.1.051-.3.151-.58.284.014.02.028.038.041.058a.673.673,0,0,1,.115.509.7.7,0,0,1-.369.421c-.434.241-1.368.742-1.841.308a1,1,0,0,1-.207-.292c-.407.166-.837.335-1.28.5a50.017,50.017,0,0,1-9.751,1.91,4.707,4.707,0,0,0-1.1.188,1.91,1.91,0,0,1-1.919,2c.569,1.569,2.114,3.621,6.915,4.8.376.093.761.17,1.148.235a16.1,16.1,0,0,0,8.65-.839m-7.528-5.9a6.842,6.842,0,0,1,3.77-.4c.387.065.222.653-.162.59a6.258,6.258,0,0,0-3.445.4c-.364.149-.521-.443-.162-.59" transform="translate(-0.842 -3.414)" fill="#4b3d51"/>
    <path id="Trazado_1270658" data-name="Trazado 1270658" d="M54.009,153.766a11.886,11.886,0,0,1-3.26-4.078.818.818,0,0,0-.227-.3c-.515-.363-.588.456-.519.742a1.7,1.7,0,0,0,.1.3c.723,1.589,1.437,3.182,2.173,4.767.022.046.044.093.067.139a1.013,1.013,0,0,0,.207.292c.474.433,1.407-.068,1.842-.309a.7.7,0,0,0,.368-.421.674.674,0,0,0-.115-.509c-.013-.019-.027-.038-.041-.057a3,3,0,0,0-.593-.569" transform="translate(-1.107 -3.307)" fill="#b26b5e"/>
    <path id="Trazado_1270659" data-name="Trazado 1270659" d="M48.627,153.009a.553.553,0,0,0-.495-.584.513.513,0,0,0-.575.469.555.555,0,0,0,.495.584.514.514,0,0,0,.575-.469" transform="translate(-1.053 -3.376)" fill="#4b3d51"/>
    <path id="Trazado_1270660" data-name="Trazado 1270660" d="M53.434,151.316a.514.514,0,0,0,.575-.469.554.554,0,0,0-.495-.584.514.514,0,0,0-.575.469.554.554,0,0,0,.495.584" transform="translate(-1.173 -3.328)" fill="#4b3d51"/>
    <path id="Trazado_1270661" data-name="Trazado 1270661" d="M45.29,152.708A1.665,1.665,0,0,1,46.3,151.3a8.313,8.313,0,0,1,1.66-.811c.367-.122.21-.705-.16-.582a8.111,8.111,0,0,0-2.256,1.171,1.97,1.97,0,0,0-.861,1.628c-.022.388.582.387.6,0" transform="translate(-0.99 -3.32)" fill="#844f4f"/>
    <path id="Trazado_1270662" data-name="Trazado 1270662" d="M53.64,148.51a1.693,1.693,0,0,0-.361-.066,3.888,3.888,0,0,0-1.336.219.3.3,0,0,0,.16.582,2.408,2.408,0,0,1,1.376-.153.3.3,0,0,0,.069.014.305.305,0,0,0,.091-.6" transform="translate(-1.146 -3.288)" fill="#844f4f"/>
    <path id="Trazado_1270663" data-name="Trazado 1270663" d="M39.8,157.807a4.768,4.768,0,0,1,1.106-.187,50.08,50.08,0,0,0,9.75-1.91c.443-.161.874-.331,1.28-.5-.023-.046-.046-.093-.067-.139-.734-1.584-1.449-3.177-2.172-4.767a1.68,1.68,0,0,1-.1-.3c-.068-.287,0-1.106.52-.743a.826.826,0,0,1,.226.3,11.879,11.879,0,0,0,3.26,4.078,3.031,3.031,0,0,1,.594.569c.279-.133.479-.233.58-.284C54.3,152.27,53.747,150.6,53.11,149a.31.31,0,0,1-.069-.014,2.4,2.4,0,0,0-1.375.153.3.3,0,0,1-.16-.582,3.856,3.856,0,0,1,1.336-.218,30.139,30.139,0,0,0-2.426-4.714c-3.721,1.445-16.114,8.1-18.474,9.376a30.084,30.084,0,0,0,2.194,2.392c-.922-.076-1.67.119-1.786.9-.163,1.1,1.636,2.551,3.509,3.191a5.219,5.219,0,0,0,2.027.319,1.91,1.91,0,0,0,1.919-2m13.244-7.691a.553.553,0,0,1,.495.584.512.512,0,0,1-.574.469.554.554,0,0,1-.495-.584.512.512,0,0,1,.574-.469M47.211,152.7a.512.512,0,0,1,.574-.469.553.553,0,0,1,.495.584.512.512,0,0,1-.574.469.554.554,0,0,1-.495-.584m-1.946-1.758a8.12,8.12,0,0,1,2.256-1.17c.37-.124.527.459.16.582a8.361,8.361,0,0,0-1.66.81,1.666,1.666,0,0,0-1.013,1.407c-.022.387-.625.388-.6,0a1.974,1.974,0,0,1,.861-1.628m-11.152,6.283c-.374.127-.533-.463-.162-.59a3.73,3.73,0,0,1,3.6.7c.305.249-.13.68-.432.432a3.1,3.1,0,0,0-3-.539" transform="translate(-0.707 -3.181)" fill="#d08d83"/>
    <path id="Trazado_1270664" data-name="Trazado 1270664" d="M37.159,158.053c.3.247.736-.183.432-.432a3.73,3.73,0,0,0-3.6-.7c-.37.126-.211.717.163.59a3.1,3.1,0,0,1,3,.539" transform="translate(-0.748 -3.472)" fill="#ebb6a5"/>
    <path id="Trazado_1270665" data-name="Trazado 1270665" d="M47.572,159.01a6.263,6.263,0,0,1,3.444-.4c.385.064.551-.525.163-.59a6.842,6.842,0,0,0-3.77.4c-.359.147-.2.738.162.59" transform="translate(-1.046 -3.498)" fill="#ebb6a5"/>
    <path id="Trazado_1270666" data-name="Trazado 1270666" d="M63.029,233.029c.031.172.066.343.109.516,1.082.251,1.77.443,2.206.581,1.147,1.323,3.18,2.357,6.742,2.328l6.4.36a1.781,1.781,0,0,0,1.366-.542c1.28-1.361-3.1-1.38-5.5-1.295.044-.066.086-.131.126-.2l7.32-.066a.929.929,0,0,0,.839-.528c.722-1.595-5.033-1.6-7.456-1.534.02-.161.034-.324.043-.485l7.88.054a.8.8,0,0,0,.756-.5c.724-1.965-8.766-1.8-8.789-1.794-.033-.192-.07-.376-.11-.552l7.349.182a1.279,1.279,0,0,0,1.039-.473c1.471-1.885-9.3-1.649-9.3-1.649-.8-.173-2.856-.6-4.485-.768,1.15-1.406,2.617-3.614,1.528-4.67a19.166,19.166,0,0,1-4.521,3.74,4.352,4.352,0,0,0-.928.825L64.128,226s-.09.174-.222.484a12.048,12.048,0,0,0-.877,6.548" transform="translate(-1.393 -4.917)" fill="#4b3c4f"/>
    <path id="Trazado_1270667" data-name="Trazado 1270667" d="M202.942,214.159l-13.959-.941c-.577,4.013-1.135,8.452-1.258,11.3a1.842,1.842,0,0,1-.264.872l14.948.826a1.844,1.844,0,0,1-.164-.813c.066-2.394.244-6.965.7-11.245" transform="translate(-4.152 -4.723)" fill="#efb9ca"/>
    <path id="Trazado_1270668" data-name="Trazado 1270668" d="M175.153,212.285l-11.4-.769a1.672,1.672,0,0,0-1.783,1.577l-.347,6.278-.16,2.9a1.675,1.675,0,0,0,1.579,1.763l11.662.644a1.843,1.843,0,0,1-.265-1c.067-2.421.248-7.067.713-11.388" transform="translate(-3.576 -4.685)" fill="#efb9ca"/>
    <path id="Trazado_1270669" data-name="Trazado 1270669" d="M230.381,217.749a1.706,1.706,0,0,0-.01-.419l-1.74,5.394a.892.892,0,0,1-.8.626c-1.585.055-.49-4.519.385-7.487l-.59-.039-1.551,5.123a1.426,1.426,0,0,1-.867.938c-1.463.524-.716-3.092.166-6.212l-8.566-.578c-.569,3.975-1.117,8.343-1.238,11.158a1.833,1.833,0,0,1-.167.69l12.337.683a1.674,1.674,0,0,0,1.756-1.5l.324-3.073Z" transform="translate(-4.771 -4.764)" fill="#efb9ca"/>
    <path id="Trazado_1270670" data-name="Trazado 1270670" d="M188.7,212.982c.372-2.585.749-4.992,1.022-6.684.035-.215.069-.422.1-.614a1.854,1.854,0,0,0-1.541-2.128c-.4-.062-.841-.129-1.324-.2a70.406,70.406,0,0,0-8.056-.762,1.853,1.853,0,0,0-1.512.724,1.773,1.773,0,0,0-.195.318,9.76,9.76,0,0,0-.492,1.306,41.6,41.6,0,0,0-1.258,7.144c-.464,4.321-.645,8.967-.712,11.388a1.852,1.852,0,0,0,1.639,1.89,92.024,92.024,0,0,0,9.227.684,1.852,1.852,0,0,0,1.842-1.768c.123-2.848.683-7.287,1.258-11.3" transform="translate(-3.87 -4.487)" fill="#fff"/>
    <path id="Trazado_1270671" data-name="Trazado 1270671" d="M216.527,214.855c.243-1.7.489-3.319.708-4.72.164-1.053.314-1.982.434-2.719a1.856,1.856,0,0,0-1.541-2.129,77,77,0,0,0-9.38-.96,1.85,1.85,0,0,0-1.607.86,1.806,1.806,0,0,0-.1.181,13.748,13.748,0,0,0-.877,2.783,53.159,53.159,0,0,0-.888,5.81c-.453,4.281-.631,8.852-.7,11.245a1.853,1.853,0,0,0,1.639,1.891,91.757,91.757,0,0,0,9.227.683,1.846,1.846,0,0,0,1.842-1.767c.122-2.815.669-7.183,1.238-11.158" transform="translate(-4.487 -4.526)" fill="#fff"/>
    <path id="Trazado_1270672" data-name="Trazado 1270672" d="M45.6,140.034c-3.115.692-1.558,4.962-1.558,4.962l5.827-2.654a3.737,3.737,0,0,0-4.269-2.308" transform="translate(-0.967 -3.099)" fill="#d08d83"/>
    <path id="Trazado_1270673" data-name="Trazado 1270673" d="M80.713,172.245c.692-4.153-8.653-9.172-8.653-9.172l-5.018,7.1c3.114,2.25,12.979,6.23,13.671,2.077" transform="translate(-1.485 -3.612)" fill="#d33962"/>
    <path id="Trazado_1270674" data-name="Trazado 1270674" d="M251.1,146.19q.732-.082,1.508-.2c3.813-14.252-.023-21.675-6.19-23.013-7.427,1.161-6.9,22.258-6.9,22.258l.015.007c.273.117,4.273,1.771,11.564.948" transform="translate(-5.305 -2.724)" fill="#74b3ba"/>
    <path id="Trazado_1270675" data-name="Trazado 1270675" d="M246.97,170.581a41.656,41.656,0,0,0,.208-6.542c1-4.1,2.527-9.337,3.081-13.388.18-1.316.319-2.636.451-3.957-7.29.823-11.291-.83-11.563-.948q-.5,2.821-.849,5.654c-.363,2.927-1.289,8.07-1.723,11.192-1.449,4.153-2.253,9.983-2.894,15.068-.439,3.478-.8,6.607-1.246,8.609-.382,1.731-.709,3.368-.992,4.967-.537,3.026-.912,5.916-1.19,9.021a6.013,6.013,0,0,0-2.569,1.1c-1.95,1.575-4.487,3.242-5.556,3.49a1.341,1.341,0,0,0,.092.16c.681,1.033,2.521.779,4.165.281.435-.132.857-.281,1.239-.427-.035.164-.07.332-.1.5-.333,1.7-.564,3.7-.653,4.526l-.075.215c-.2.572-.754,2.214-1.265,4.023-.883,3.121-1.63,6.737-.166,6.213a1.43,1.43,0,0,0,.867-.938l1.551-5.123.83-2.745c.173.1.356.207.547.31,0,.008-.37,1.058-.787,2.474-.876,2.969-1.971,7.542-.386,7.487a.891.891,0,0,0,.8-.626l1.74-5.394.965-2.993q.263.07.53.123c-.919,2.55-2.93,8.663-.983,8.456a1.04,1.04,0,0,0,.855-.706l2.634-7.75c.085-.02.169-.041.253-.065-.93,2.517-2.446,7.176-.552,6.294a1.993,1.993,0,0,0,1.054-1.261l1.86-6.921a17.281,17.281,0,0,0,.53-1.894c.944-4.38-.651-6.735-2.428-7.993.924-1.832,1.86-3.844,2.795-5.935,2.043-4.57,4.077-9.513,5.952-13.747q.381-.86.753-1.679a33.3,33.3,0,0,0,2.231-9.143" transform="translate(-4.92 -3.228)" fill="#fad4c8"/>
    <path id="Trazado_1270676" data-name="Trazado 1270676" d="M278.878,247.677l-.006.007c1.709.6,2.6,3.726,3.036,7.429a8.924,8.924,0,0,1,5.129,3.1c3.484,5.009,3.357,9.686,4.457,13.932a40.208,40.208,0,0,0-7.714.825c-.62.134-1.29.252-2,.358a23.468,23.468,0,0,1-1.1,4.826,82.336,82.336,0,0,1,13.342-.729,13.83,13.83,0,0,0,1.718,1.784,11.908,11.908,0,0,0,2.44,1.64v-9.426c-2.654-4.91-.494-12.362-6.425-18.728-3.275-3.513-8.351-4.731-12.873-5.022" transform="translate(-6.177 -5.486)" fill="#4b3c4f"/>
    <path id="Trazado_1270677" data-name="Trazado 1270677" d="M229.106,268.562c-2.237-1.332-6.476-2.343-5.76-7.166a8.332,8.332,0,0,1,2.831-5.074,16.681,16.681,0,0,1,4.69-2.848c.927-3.429,2.112-5.8,3.288-6.008,0,0-9.808-.722-15.6,10.745-2.821,5.589,2.015,14.206,8.064,15.818,1.216.324,2.239.578,3.1.774a37.259,37.259,0,0,1-.6-6.226Z" transform="translate(-4.823 -5.481)" fill="#4b3c4f"/>
    <path id="Trazado_1270678" data-name="Trazado 1270678" d="M281.011,269.4a91.732,91.732,0,0,0-.2-14.292c-.439-3.7-1.326-6.83-3.035-7.429,0,0,1.348,7.953-1.579,8.184-.451.036-1.708.046-3.516.035l-.008.508a1.226,1.226,0,0,1-1.248,1.208l-.934-.016a1.227,1.227,0,0,1-1.206-1.208l-.008-.528c-7.676-.108-19.808-.417-27.27-.767l-.01.617a1.226,1.226,0,0,1-1.248,1.208l-.934-.016a1.226,1.226,0,0,1-1.2-1.208l-.013-.787a14.893,14.893,0,0,1-3.148-.356c-.847-.693-1.039-7.086-1.039-7.086-1.175.208-2.361,2.579-3.288,6.008a57.168,57.168,0,0,0-1.75,15.1,37.385,37.385,0,0,0,.6,6.227c.023.119.046.239.07.356a8.966,8.966,0,0,0,8.021,6.048c10.571.3,35.692.934,38.783.207,1.244-.293,2.116-1.606,2.729-3.262a23.468,23.468,0,0,0,1.1-4.826,39.347,39.347,0,0,0,.328-3.928m-39.581-5.849c.983,0,29.2.191,29.2.191s1.88,11.064-.774,12.463c-2.3,1.21-19.709,1.2-25.956.114a4.17,4.17,0,0,1-3.318-3.045c-.727-2.774-.187-6.691.852-9.723" transform="translate(-5.08 -5.481)" fill="#74b3ba"/>
    <path id="Trazado_1270679" data-name="Trazado 1270679" d="M240.823,273.639a4.173,4.173,0,0,0,3.318,3.045c6.247,1.09,23.658,1.1,25.957-.115,2.654-1.4.773-12.462.773-12.462s-28.214-.186-29.2-.191c-1.037,3.031-1.578,6.949-.852,9.723" transform="translate(-5.327 -5.846)" fill="#88c6d1"/>
    <path id="Trazado_1270680" data-name="Trazado 1270680" d="M235.565,254.518a14.946,14.946,0,0,0,3.148.356l-.009-.609a1.227,1.227,0,0,1,1.267-1.245l.976.033a1.226,1.226,0,0,1,1.185,1.244l-.012.762c7.463.35,19.6.66,27.271.767l-.013-.868a1.226,1.226,0,0,1,1.266-1.244l.976.033a1.226,1.226,0,0,1,1.186,1.244l-.014.871c1.808.012,3.067,0,3.517-.034,2.927-.231,1.578-8.184,1.578-8.184l.006-.007c.057-.092.167-1.082-20.456-1.668-21.644-.617-22.914,1.463-22.914,1.463s.193,6.393,1.039,7.086" transform="translate(-5.195 -5.446)" fill="#88c6d1"/>
    <path id="Trazado_1270681" data-name="Trazado 1270681" d="M241.042,253.215l-.976-.032a1.226,1.226,0,0,0-1.267,1.244l.009.61.012.786a1.227,1.227,0,0,0,1.206,1.208l.934.016a1.226,1.226,0,0,0,1.248-1.208l.009-.617.012-.762a1.226,1.226,0,0,0-1.185-1.245" transform="translate(-5.289 -5.608)" fill="#6e587a"/>
    <path id="Trazado_1270682" data-name="Trazado 1270682" d="M272.412,253.924l-.976-.032a1.226,1.226,0,0,0-1.267,1.244l.013.868.008.528a1.227,1.227,0,0,0,1.206,1.208l.934.016a1.226,1.226,0,0,0,1.248-1.208l.008-.508.013-.872a1.226,1.226,0,0,0-1.185-1.244" transform="translate(-5.984 -5.624)" fill="#6e587a"/>
  </g>
</svg>
