<svg xmlns="http://www.w3.org/2000/svg" xmlns:xlink="http://www.w3.org/1999/xlink" width="69" height="69" viewBox="0 0 69 69">
  <defs>
    <clipPath id="clip-path">
      <rect id="Rectángulo_459515" data-name="Rectángulo 459515" width="42" height="42.083" fill="#fff"/>
    </clipPath>
  </defs>
  <g id="Grupo_1208486" data-name="Grupo 1208486" transform="translate(-305.059 -11337.925)">
    <circle id="Elipse_13679" data-name="Elipse 13679" cx="34.5" cy="34.5" r="34.5" transform="translate(305.059 11337.925)" fill="#6a2874"/>
    <g id="Grupo_1209317" data-name="Grupo 1209317" transform="translate(319.059 11350.925)">
      <g id="Grupo_1209316" data-name="Grupo 1209316" clip-path="url(#clip-path)">
        <path id="Trazado_1269479" data-name="Trazado 1269479" d="M130.771,108.193h-3.124v-3.485h-2.4v7.871l-5.108,3.142-5.106-3.142v-7.871h-2.4v3.485H109.5v-3.425c0-1.7,1.561-3.007,2.923-3.686.414-.207,3.157-1.412,3.386-1.412a14.773,14.773,0,0,1,1.627.767,8.243,8.243,0,0,0,6.086-.273c.391-.167.692-.575,1.122-.456,1.742.9,4.23,1.34,5.386,3.037a7.685,7.685,0,0,1,.741,1.783Z" transform="translate(-96.342 -87.693)" fill="#fff"/>
        <path id="Trazado_1269480" data-name="Trazado 1269480" d="M162.172,9.163C156.987,14.5,149.062,5.992,155,1.213c5.127-4.125,11.766,3.22,7.169,7.951" transform="translate(-134.515 -0.001)" fill="#fff"/>
        <path id="Trazado_1269481" data-name="Trazado 1269481" d="M1.545,261.507c5.185-5.336,13.11,3.172,7.169,7.95-5.127,4.125-11.766-3.22-7.169-7.95" transform="translate(0 -228.586)" fill="#fff"/>
        <path id="Trazado_1269482" data-name="Trazado 1269482" d="M106.935,286.089c-.668-.112-2.368-1.284-2.465-1.993-.048-.351.543-1.774.6-2.4a17.156,17.156,0,0,0,.007-1.806c-.02-.829-.464-.986.367-1.666a4.68,4.68,0,0,1,3.625-.763l5.017,3.1H109.4v2.4h14.18v3.124Z" transform="translate(-91.913 -244.078)" fill="#fff"/>
        <path id="Trazado_1269483" data-name="Trazado 1269483" d="M112.625,191.6v3.365l8.212,4.947c1.752,1.278.541,3.719-1.685,2.646-2.66-1.282-5.369-3.554-8.026-4.952a4.983,4.983,0,0,1-1.625-3.061V191.6Z" transform="translate(-96.342 -168.573)" fill="#fff"/>
        <path id="Trazado_1269484" data-name="Trazado 1269484" d="M226.669,191.6v3.185a5.48,5.48,0,0,1-.581,1.582c-1.045,1.866-4.238,3.035-5.969,4.247-.276.033-.136-.051-.18-.181a6.26,6.26,0,0,0-1.443-2.4l5.048-3.127v-3.3Z" transform="translate(-192.24 -168.573)" fill="#fff"/>
        <path id="Trazado_1269485" data-name="Trazado 1269485" d="M312.548,277.6v8.652h-2.524a3.993,3.993,0,0,0-2.524-5.288V277.6Z" transform="translate(-270.548 -244.238)" fill="#fff"/>
        <path id="Trazado_1269486" data-name="Trazado 1269486" d="M212.5,280.722l4.867-3.124h3.966l.18.18v2.764l-.18.18Z" transform="translate(-186.965 -244.238)" fill="#fff"/>
        <path id="Trazado_1269487" data-name="Trazado 1269487" d="M284.5,326.721V323.6h1.742c.572,0,1.35.924,1.375,1.512s-.656,1.612-1.255,1.612Z" transform="translate(-250.312 -284.71)" fill="#fff"/>
      </g>
    </g>
  </g>
</svg>
