<svg xmlns="http://www.w3.org/2000/svg" xmlns:xlink="http://www.w3.org/1999/xlink" width="187.711" height="121.729" viewBox="0 0 187.711 121.729">
  <defs>
    <clipPath id="clip-path">
      <rect id="Rectángulo_459565" data-name="Rectángulo 459565" width="119.659" height="106.233" fill="none"/>
    </clipPath>
  </defs>
  <g id="Grupo_1209850" data-name="Grupo 1209850" transform="translate(-289.711 -5508.234)">
    <g id="Grupo_1208707" data-name="Grupo 1208707" transform="translate(0.434 -3359.805)">
      <g id="Grupo_1204518" data-name="Grupo 1204518" transform="translate(289.277 8868.039)">
        <rect id="Rectángulo_455283" data-name="Rectángulo 455283" width="187.711" height="121.729" rx="19" fill="#e9c3ff"/>
      </g>
    </g>
    <g id="Grupo_1209403" data-name="Grupo 1209403" transform="translate(323.711 5516.234)">
      <g id="Grupo_1209402" data-name="Grupo 1209402" clip-path="url(#clip-path)">
        <path id="Trazado_1270041" data-name="Trazado 1270041" d="M81,96.672a7.017,7.017,0,0,1-9.832,8.253c-.75-.345-1.735-1.519-1.973-1.562-.261-.046-2.4,1.689-3.276,1.92-5.05,1.33-10.884.108-15.965.147-14.185.108-30.613,1.475-44.605.38-2.6-.2-4.536-.7-5.347-3.427L.011,62.542A11.11,11.11,0,0,1,8.6,53.933c1.019-.259,2.775.357,3.18-1.031.783-2.684-1.218-1.453-2.817-2.908C7.192,48.382,7.4,42.368,7.68,40.025a6.93,6.93,0,0,1,7.685-6.18c.629-4.274-2.163-14.861,3.764-16.067,1.41-.287,6.543.21,7.067-.128.659-.425.178-3.717,4.084-4.164a71,71,0,0,1,11.85.083c3.108.564,2.828,3.542,3.456,4.088a19.3,19.3,0,0,0,3.789.006c.647-.557,2.074-11.808,4.3-14.478A9.653,9.653,0,0,1,57.234.778C60.161-.261,74.813-.248,77.77.746a8.392,8.392,0,0,1,4.905,4.923c.661,1.755,2.453,11.593,2.921,12a20.357,20.357,0,0,0,3.779-.013c.465-.3.4-3.525,3.466-4.081a71,71,0,0,1,11.85-.083,4.1,4.1,0,0,1,3.533,2.434,14.331,14.331,0,0,1,.543,1.736c1.392,1.22,10.188-2.7,10.855,4.415V92.3c.377,1.781-2.162,4.374-3.7,4.374ZM82.4,17.7c.406-.415-2.09-10.284-2.55-11.316A5.4,5.4,0,0,0,76.8,3.473c-2.11-.548-15.17-.483-17.744-.173A5.131,5.131,0,0,0,54.923,6.89a66.067,66.067,0,0,0-2.366,10.281c0,1.06,2.36.367,3.136.491,1.226-3.471.826-10.65,5.467-11.2A84.274,84.274,0,0,1,73.47,6.449c2.695.258,3.444,1.484,4.2,3.871.345,1.087,1.318,7.1,1.586,7.363.178.175,2.563-.089,3.146.015m-6.319,0c.055-1.356-1.221-7.814-2.1-8.253-.618-.309-12.351-.318-13,0-1.2.592-1.714,6.808-2.452,8.253Zm-33.778-.97c-.388-.388-1.288-.4-1.832-.449-1.462-.123-9.488-.187-10.361.2-1.615.712-1.6,7,0,7.706.757.334,10.78.347,11.567,0,1.528-.675,1.392-6.69.627-7.455m51.227-.36c-1.951.559-1.848,7.106-.242,7.815.767.338,10.893.333,11.575.009,1.533-.728,1.558-6.982,0-7.723a80.376,80.376,0,0,0-11.334-.1M26.244,20.857H18.873c.114.345-.351.761-.351.877V33.844H39.055c.931,0,3.3,1.988,3.875,2.793a16.837,16.837,0,0,1,.863,2.121H116.8V21.735c0-1.493-6.879-.673-8.075-.879.318,2.181-.339,5.106-2.6,5.995-1.5.588-10.295.529-12.324.338-3.673-.345-4.735-2.913-4.374-6.331H45.549c.315,2.18-.341,5.1-2.606,5.993-1.6.628-9.81.491-11.974.34-3.95-.276-4.909-2.637-4.724-6.333M20.979,36.652H16.767V48.235h4.212Zm7.02,0H23.787V48.235H28Zm7.371,0H30.807V48.235H35.37ZM13.608,37a3.434,3.434,0,0,0-2.734,2.356,44.171,44.171,0,0,0-.091,7.665c.218,1.8,1.343,1.124,2.825,1.212Zm24.569,0V48.235c2.354.156,2.961.132,3.175-2.265.252-2.82.655-8.693-3.175-8.967m21.411,4.563H44.145v6.493a7.86,7.86,0,0,1-1.418,2.092c-1.416,1.153-3.922.288-2.619,3,.38.791,3.228.9,4.389,1.226s2.022,1,3.155,1.23c.953-5.043,6.087-6.16,10.535-5.615-.352-3.073.446-5.6,1.4-8.426M83.456,53.5c-1.409.907-2.617-.466-4.067-.671-1.837-.259-6.41.836-6.8-1.269-.462-2.468.7-5.166-.765-7.659-1.982-3.378-8.78-2.967-10.212.563C60.51,47.17,63,52.415,59.419,52.8c-3.425.366-7.573-1.174-9.038,3.251-.826,2.5.174,2.446.856,4.222.44,1.148.364,2.69,1.545,3.368,2.027,1.164,7.117-.623,8.231,1.245.871,1.461-.034,5.186.495,7.227.888,3.431,6.336,3.988,8.943,2.254,3.858-2.566,1.107-8.445,2.466-9.819,1.023-1.035,5.412-.25,7.124-.6,1.8-.365,2.551-2.46,4.468-2.377,0,.174.546.623.623.959.847,3.691-7.11,5.166-9.751,4.655-.108,1.521.174,3.214-.029,4.709-.189,1.387-1,2.142-1.373,3.366H116.8V42.092a3.522,3.522,0,0,0-.526-.526H73.979c.258,1.179,1.2,2.141,1.381,3.357.23,1.543-.252,3.2.176,4.738.527.757,7.444-.466,8.22,2.344.2.724-.319,1.334-.3,1.495M37.125,51.394H15.012c-.319,0,.178,4.432-3.057,5.192-2.577.6-3.675-.037-6.183,1.889-1.01.775-3.045,3.519-3.045,4.677v6.142H7.817c1.214,0,2.791,2.883,2.953,4.067a75.828,75.828,0,0,1-.053,12.872c-.7,4.139-4.652,3.947-7.989,3.77v11.758a5.859,5.859,0,0,0,.877.877H44.847a7.358,7.358,0,0,1,.827-9c1.483-1.464,3.931-1.21,3.386-3.635-3.629.112-7.3.521-7.741-4.019a87.941,87.941,0,0,1,.04-13.333c.594-3.849,4.72-3.471,7.7-3.357V62.8c0-2.3-4.571-6.142-6.844-6.142H30.28c-.922,0-.923-2.808,0-2.808h6.844Zm21.06,15.444H52.217v8.424h7.722c-1.743-2.459-1.877-5.507-1.755-8.424M2.728,87.195C4,87,7.1,87.836,7.571,86.247c.356-1.208.26-10.525.091-12.235-.3-3-2.624-1.636-4.934-1.91ZM49.059,72.1c-2.311.274-4.637-1.094-4.934,1.91-.378,3.827.272,8.343.078,12.247.462,1.373,3.7.849,4.856.935ZM116.8,78.069H52.217V91.758h7.02c-2.437-7.295,5.04-13.338,11.235-8.251l8.654,9.949,36.967-.124a3.133,3.133,0,0,0,.707-.7ZM64.4,84.814c-2.239.512-3.243,3.629-2.272,5.634.877,1.81,2,1.049,3.449,1.464.859.246,2.353,1.351,2.89,1.214.431-.11,3.564-2.836,3.368-3.579a34.531,34.531,0,0,0-4.043-4.413,5.282,5.282,0,0,0-3.392-.319m10.226,7.7c-1.036-.486-4.479,2.875-4.494,3.254-.027.674.612,1.731.674,2.535s-.486,1.5-.174,2.219c1.191,2.739,5.5,2.91,7.156.138,2.1-3.518-1.592-5.435-3.161-8.145m-18.9,2.055H49.585a7.871,7.871,0,0,0-2.092,1.418,4.388,4.388,0,0,0-.2,5.082,8.538,8.538,0,0,0,2.289,1.572h6.142Zm2.808,8.073h6.493c1.666,0,2.812-3.2,2.642-4.744-.141-1.288-1.869-3.328-2.993-3.328H58.535Z" transform="translate(0 0)" fill="#060707"/>
        <path id="Trazado_1270042" data-name="Trazado 1270042" d="M42.168,146.425v2.457H35.324c-.923,0-.922,2.808,0,2.808H47.258c2.273,0,6.844,3.838,6.844,6.142v6.493c-2.979-.114-7.106-.492-7.7,3.357a87.9,87.9,0,0,0-.04,13.333c.439,4.54,4.112,4.13,7.741,4.019.545,2.425-1.9,2.171-3.386,3.635a7.357,7.357,0,0,0-.827,9H8.648a5.859,5.859,0,0,1-.877-.877V185.034c3.337.177,7.293.37,7.989-3.77a75.824,75.824,0,0,0,.053-12.871c-.161-1.184-1.739-4.068-2.953-4.068H7.771v-6.142c0-1.158,2.035-3.9,3.045-4.677,2.509-1.926,3.606-1.285,6.183-1.889,3.235-.759,2.737-5.192,3.057-5.192Zm-15.2,2.529a1.407,1.407,0,0,0-.246,2.562c.92.449,3.789.489,4.314-.627,1.067-2.268-2.722-2.333-4.068-1.935m8.9,20.622a21.07,21.07,0,0,0-.18-2.1c-1.348-4.41-8.435-4.256-9.586.269-.13.513.007,1.723-.095,1.834a28.542,28.542,0,0,0-3.042.643c-3.376,1.623-3.113,7.88.264,9.011.816.273,2.024.045,2.469.339.513.34.008,4.145,3.228,5.2,2.5.816,5.75.087,6.657-2.63.256-.767.179-2.091.316-2.317.284-.469,3.617.1,4.941-2.607,1.131-2.314.545-5.8-1.93-6.993a28.542,28.542,0,0,0-3.042-.643" transform="translate(-5.043 -95.031)" fill="#b3d7f9"/>
        <path id="Trazado_1270043" data-name="Trazado 1270043" d="M60.493,59.342c-.186,3.7.774,6.056,4.724,6.333,2.164.151,10.373.288,11.974-.34,2.266-.889,2.921-3.812,2.606-5.993h43.874c-.361,3.419.7,5.986,4.374,6.331,2.029.191,10.824.25,12.324-.338,2.266-.889,2.923-3.814,2.6-5.995,1.2.206,8.075-.614,8.075.879V77.242H78.042a16.837,16.837,0,0,0-.863-2.121c-.572-.805-2.944-2.793-3.875-2.793H52.771V60.219c0-.116.465-.533.351-.877Z" transform="translate(-34.249 -38.484)" fill="#b3d7f9"/>
        <path id="Trazado_1270044" data-name="Trazado 1270044" d="M220.248,130.359c-.019-.16.5-.771.3-1.495-.776-2.81-7.693-1.587-8.22-2.344-.428-1.537.054-3.2-.176-4.738-.181-1.217-1.123-2.179-1.381-3.357h42.295a3.522,3.522,0,0,1,.526.526V152.12H210.771c.373-1.224,1.184-1.978,1.373-3.366.2-1.5-.079-3.188.029-4.709,2.641.511,10.6-.964,9.751-4.655-.077-.336-.624-.784-.623-.959,0-.227.934-1.789.7-2.457,2.094-.14,1.536-3.438-.7-3.159.3-1.419-1.028-2.246-1.053-2.457" transform="translate(-136.792 -76.859)" fill="#d9e8fa"/>
        <path id="Trazado_1270045" data-name="Trazado 1270045" d="M213.354,222.425v14.566a3.134,3.134,0,0,1-.707.7l-36.967.124-8.654-9.949c-6.195-5.087-13.672.956-11.235,8.251h-7.02V222.425Z" transform="translate(-96.554 -144.356)" fill="#b3d7f9"/>
        <path id="Trazado_1270046" data-name="Trazado 1270046" d="M176.037,130.382c.025.211,1.349,1.038,1.053,2.457-.047.225-.538.595-.622.958-.241,1.038.115,2.281,1.324,2.2.232.668-.7,2.229-.7,2.457-1.917-.083-2.67,2.011-4.468,2.377-1.712.348-6.1-.437-7.124.6-1.359,1.374,1.392,7.253-2.466,9.819-2.607,1.734-8.055,1.178-8.943-2.254-.528-2.041.377-5.766-.495-7.227-1.114-1.868-6.2-.081-8.231-1.245-1.182-.679-1.1-2.22-1.545-3.368-.682-1.776-1.682-1.726-.856-4.222,1.465-4.425,5.612-2.885,9.038-3.251,3.577-.382,1.092-5.628,2.189-8.334,1.432-3.53,8.23-3.941,10.212-.563,1.463,2.493.3,5.191.765,7.659.394,2.1,4.967,1.01,6.8,1.269,1.45.2,2.659,1.578,4.067.671" transform="translate(-92.581 -76.882)" fill="#8d1939"/>
        <path id="Trazado_1270047" data-name="Trazado 1270047" d="M133.075,118.425c-.956,2.829-1.755,5.353-1.4,8.426-4.448-.545-9.582.572-10.535,5.615-1.133-.232-2-.906-3.155-1.23s-4.009-.434-4.389-1.226c-1.3-2.712,1.2-1.847,2.619-3a7.86,7.86,0,0,0,1.418-2.092v-6.493Z" transform="translate(-73.487 -76.859)" fill="#d9e8fa"/>
        <path id="Trazado_1270048" data-name="Trazado 1270048" d="M179.585,23.365c-.582-.1-2.968.16-3.146-.015-.268-.264-1.241-6.276-1.586-7.363-.758-2.387-1.507-3.613-4.2-3.871a84.322,84.322,0,0,0-12.311.009c-4.641.554-4.241,7.733-5.467,11.2-.776-.124-3.139.569-3.136-.492a66.024,66.024,0,0,1,2.366-10.28,5.13,5.13,0,0,1,4.131-3.591c2.573-.31,15.634-.375,17.743.173a5.4,5.4,0,0,1,3.057,2.909c.459,1.032,2.956,10.9,2.549,11.316" transform="translate(-97.18 -5.666)" fill="#ff9ebf"/>
        <path id="Trazado_1270050" data-name="Trazado 1270050" d="M95.761,46.657c.765.765.9,6.78-.627,7.455-.787.347-10.81.334-11.567,0-1.6-.7-1.615-6.994,0-7.706.873-.385,8.9-.321,10.361-.2.544.046,1.444.061,1.832.449" transform="translate(-53.455 -29.928)" fill="#ff9ebf"/>
        <path id="Trazado_1270051" data-name="Trazado 1270051" d="M263.792,46.354a80.433,80.433,0,0,1,11.334.1c1.558.742,1.533,7,0,7.724-.683.324-10.808.33-11.576-.009-1.606-.709-1.709-7.256.242-7.815" transform="translate(-170.258 -29.984)" fill="#ff9ebf"/>
        <path id="Trazado_1270052" data-name="Trazado 1270052" d="M7.771,220.37V205.278c2.311.274,4.637-1.094,4.934,1.91.169,1.709.265,11.026-.091,12.235-.469,1.589-3.569.758-4.843.948" transform="translate(-5.043 -133.175)" fill="#ff9ebf"/>
        <path id="Trazado_1270053" data-name="Trazado 1270053" d="M130.424,205.278V220.37c-1.157-.087-4.394.437-4.856-.935.194-3.9-.456-8.421-.078-12.247.3-3,2.624-1.636,4.934-1.91" transform="translate(-81.366 -133.175)" fill="#ff9ebf"/>
        <path id="Trazado_1270054" data-name="Trazado 1270054" d="M166.771,277.5v-8.073h6.142c1.124,0,2.852,2.04,2.993,3.328.17,1.549-.976,4.744-2.642,4.744Z" transform="translate(-108.236 -174.859)" fill="#fff"/>
        <path id="Trazado_1270055" data-name="Trazado 1270055" d="M141.855,269.425V277.5h-6.142a8.538,8.538,0,0,1-2.289-1.572,4.388,4.388,0,0,1,.2-5.082,7.871,7.871,0,0,1,2.092-1.418Z" transform="translate(-86.128 -174.859)" fill="#8d1939"/>
        <path id="Trazado_1270056" data-name="Trazado 1270056" d="M204.3,263.48c1.569,2.71,5.256,4.627,3.161,8.145-1.651,2.772-5.965,2.6-7.156-.138-.312-.718.236-1.411.174-2.219s-.7-1.861-.674-2.535c.015-.378,3.458-3.74,4.494-3.254" transform="translate(-129.675 -170.97)" fill="#8d1939"/>
        <path id="Trazado_1270057" data-name="Trazado 1270057" d="M178.595,241.384a5.285,5.285,0,0,1,3.393.319,34.56,34.56,0,0,1,4.043,4.414c.195.743-2.938,3.469-3.369,3.579-.537.137-2.031-.968-2.89-1.214-1.448-.415-2.571.346-3.448-1.464-.972-2,.032-5.122,2.271-5.634" transform="translate(-114.195 -156.57)" fill="#fff"/>
        <path id="Trazado_1270058" data-name="Trazado 1270058" d="M154.738,190.425c-.122,2.917.012,5.965,1.755,8.424h-7.722v-8.424Z" transform="translate(-96.554 -123.587)" fill="#d9e8fa"/>
        <rect id="Rectángulo_459562" data-name="Rectángulo 459562" width="4.563" height="11.583" transform="translate(30.807 36.652)" fill="#8d1939"/>
        <rect id="Rectángulo_459563" data-name="Rectángulo 459563" width="4.212" height="11.583" transform="translate(16.767 36.652)" fill="#8d1939"/>
        <rect id="Rectángulo_459564" data-name="Rectángulo 459564" width="4.212" height="11.583" transform="translate(23.787 36.652)" fill="#8d1939"/>
        <path id="Trazado_1270059" data-name="Trazado 1270059" d="M108.771,105.425c3.831.273,3.428,6.147,3.175,8.967-.214,2.4-.822,2.421-3.175,2.265Z" transform="translate(-70.593 -68.422)" fill="#8d1939"/>
        <path id="Trazado_1270060" data-name="Trazado 1270060" d="M33.323,105.425v11.232c-1.482-.088-2.607.585-2.825-1.212a44.171,44.171,0,0,1,.091-7.665,3.434,3.434,0,0,1,2.734-2.355" transform="translate(-19.715 -68.422)" fill="#8d1939"/>
        <path id="Trazado_1270061" data-name="Trazado 1270061" d="M59.515,202.542a28.436,28.436,0,0,1,3.042.643c2.476,1.19,3.061,4.679,1.93,6.993-1.324,2.708-4.657,2.138-4.941,2.607-.137.226-.06,1.549-.316,2.317-.907,2.717-4.156,3.446-6.657,2.63-3.22-1.051-2.715-4.856-3.228-5.2-.445-.295-1.653-.066-2.469-.339-3.377-1.132-3.64-7.388-.264-9.011a28.455,28.455,0,0,1,3.041-.643c.1-.111-.035-1.321.1-1.835,1.15-4.525,8.237-4.678,9.586-.269a21.042,21.042,0,0,1,.18,2.1m-5.375-2.379c-2.784.57-1.057,3.546-1.833,4.855-1.015,1.713-5.479-.934-5.121,2.984.256,2.8,3.461.838,4.8,1.893,1.228.968-.75,5.522,2.749,5.3,3.122-.2,1.294-3.878,2.273-5.12,1.149-1.457,5.32,1.122,4.976-2.778-.248-2.809-3.637-.766-4.951-2.093-.972-.982.843-5.8-2.893-5.035" transform="translate(-28.692 -127.998)" fill="#060707"/>
        <path id="Trazado_1270062" data-name="Trazado 1270062" d="M60.689,153.282c1.345-.4,5.135-.333,4.068,1.935-.525,1.116-3.394,1.076-4.314.627a1.407,1.407,0,0,1,.246-2.562" transform="translate(-38.761 -99.359)" fill="#060707"/>
        <path id="Trazado_1270063" data-name="Trazado 1270063" d="M239.489,159.394c2.238-.279,2.8,3.019.7,3.159-1.21.081-1.565-1.163-1.324-2.2.084-.364.575-.733.622-.958" transform="translate(-154.98 -103.437)" fill="#060707"/>
        <path id="Trazado_1270064" data-name="Trazado 1270064" d="M59.609,205.452c3.736-.766,1.921,4.054,2.893,5.035,1.314,1.327,4.7-.716,4.951,2.093.344,3.9-3.827,1.321-4.976,2.778-.979,1.241.849,4.918-2.273,5.12-3.5.227-1.52-4.328-2.749-5.3-1.339-1.055-4.545.905-4.8-1.893-.358-3.918,4.106-1.271,5.121-2.984.776-1.309-.951-4.285,1.833-4.855" transform="translate(-34.16 -133.287)" fill="#8d1939"/>
      </g>
    </g>
  </g>
</svg>
