<svg xmlns="http://www.w3.org/2000/svg" xmlns:xlink="http://www.w3.org/1999/xlink" width="150" height="150.001" viewBox="0 0 150 150.001">
  <defs>
    <clipPath id="clip-path">
      <rect id="Rectángulo_459135" data-name="Rectángulo 459135" width="87.064" height="61.711" fill="#fff"/>
    </clipPath>
  </defs>
  <g id="Grupo_1207903" data-name="Grupo 1207903" transform="translate(-308.711 -5910)">
    <g id="Grupo_1207900" data-name="Grupo 1207900" transform="translate(-167.789 -38.844)">
      <path id="Trazado_1267157" data-name="Trazado 1267157" d="M143.529,77.953A65.576,65.576,0,1,1,77.953,12.377a65.577,65.577,0,0,1,65.576,65.576" transform="translate(473.548 5945.891)" fill="#633c0b"/>
      <path id="Trazado_1267158" data-name="Trazado 1267158" d="M75.5,150.5A75.02,75.02,0,0,1,46.306,6.4a75.019,75.019,0,0,1,58.388,138.211A74.532,74.532,0,0,1,75.5,150.5Zm0-145.086A70.086,70.086,0,1,0,145.586,75.5,70.166,70.166,0,0,0,75.5,5.414Z" transform="translate(476 5948.344)" fill="#633c0b"/>
    </g>
    <g id="Grupo_1207901" data-name="Grupo 1207901" transform="translate(339.711 5941)">
      <g id="Grupo_1099618" data-name="Grupo 1099618" transform="translate(0 0)">
        <rect id="Rectángulo_401104" data-name="Rectángulo 401104" width="87.065" height="88.114" transform="translate(0)" fill="none"/>
      </g>
      <g id="Grupo_1208974" data-name="Grupo 1208974" transform="translate(0 13)">
        <g id="Grupo_1208973" data-name="Grupo 1208973" clip-path="url(#clip-path)">
          <path id="Trazado_1268207" data-name="Trazado 1268207" d="M33.052,6.7a1.433,1.433,0,0,0-2.691-.2c-.368,1.9.452,12.409-.356,13.214-.564.562-2.112.437-2.175-.57V4.2c.181-1.407-1.866-2.223-2.515-1.2-.678,1.069-.013,12.94-.219,15.408-.184,2.2-2.249,2.023-2.493.729-.237-3.727.289-7.77,0-11.456-.068-.867-.261-2.06-1.379-2.1-2.5-.08-.669,4.9-1.678,5.9a1.326,1.326,0,0,1-2.175-.57,29.94,29.94,0,0,1,.006-4.96c.356-2.131,3.264-3.445,5.214-2.626a3.91,3.91,0,0,1,7.735-.005,3.906,3.906,0,0,1,5.217,3.491,4.837,4.837,0,0,1,1.837-.235c.911.09,1.716.887,2.064.94.454.069,2.825-1.77,4.063-.7A3.885,3.885,0,0,1,48.6,3.307c.372-.092.661-1.488,1.024-1.951C51.557-1.11,56.362-.019,56.461,3.34a4.015,4.015,0,0,1,4.87,1.726A12.354,12.354,0,0,1,61.937,6.7V17.781l2.485-2.62c.357-3.756-.454-8.3-.005-11.957.165-1.343,1.145-1.736,2.376-1.859,1.1-.111,5.295-.189,5.971.5a1.422,1.422,0,0,1-.741,2.236h-5.1V9.563H78.87V4.085c-2.448.574-3.481-2.36-.855-2.723,2.175-.3,3.4.377,3.6,2.589.334,3.575-.281,7.717-.122,11.352,1.788,2.12,4.553,4.054,5.568,6.609L86.97,59.124c-.618,1.8-2,2.107-3.734,2.243-7.358.577-15.08-.3-22.42-.279-10.684.025-23.36,1.185-33.874.278-1.1-.095-2.935-.389-2.178-1.935.122-.25.737-.813.942-.813H58.949V32.472H16.867V58.618c1.574.158,4.35-.724,4.44,1.561-.233,1.57-3.815,1.269-5.036,1.152C4.516,60.2-4.117,49.523,2.046,38.2c2.828-5.2,8.116-7.618,13.824-8.216l-5.561-9.752c-.787-3.391,3.039-4.074,5.56-3.317.531.16.917.651,1.495.62-.632-2.59,2.2-3.23,2.5-.627.129,1.119.264,5.246-.754,5.741-1.475.717-2.026-1.418-2.744-2.243-1.1-1.259-1.837-1.227-3.479-1.125l6.1,10.706h19.3v-19.8c0-1.2-2.739-1.2-2.739,0V19.4c0,.813-2.49.813-2.49,0Zm25.9,23.282.126-23.657a1.267,1.267,0,0,0-2.362.379c-.265,3.612.333,7.654,0,11.21-.094,1.022-.3,2.311-1.615,2.115A1.931,1.931,0,0,1,53.969,18.9V3.214c0-.574-2.279-1.447-2.68.806-.769,4.324.527,10.448-.048,14.893-.219,1.692-2.09,1.38-2.5-.018-.387-3.711.491-8.368.006-11.958a1.358,1.358,0,0,0-2.425-.782c-.856,1.178-.019,10.473-.315,12.758a1.236,1.236,0,0,1-2.441.189c-.381-2.038.429-8.032-.184-9.291-.44-.9-2.616-.732-2.616.624V29.982ZM78.87,12.3H66.917v1.743H78.87ZM84.6,27.492V22.138c0-.361-4.778-4.939-5.091-5.118-1.576-.9-10.287.156-12.662-.184a62.127,62.127,0,0,0-5.169,5.04c-.322.561-.386,8.013-.128,8.372a16.6,16.6,0,0,1,11.347,6.706V28.862c0-.309,1.3-1.37,1.619-1.37Zm0,2.739H75.384V48.16H84.6V45.421H80.986c-.556,0-1.47-2.1-1.119-2.741-3.225.823-3.127-3.686-2.633-5.742.416-1.727,2.352-1.216,2.613-1.5.136-.145-.15-1.584.665-2.2.99-.748,2.906-.472,4.086-.521ZM14.128,32.969C-1.03,34.93-.92,56.1,14.125,58.369L14.1,56.4C1.694,54.557,1.409,36.948,13.89,34.849Zm47.314,25.4A12.875,12.875,0,0,0,69.9,37.335c-1.679-2.031-5.389-4.365-8.085-4.374-.735,0-.293,1.3-.342,1.719,12.588,2.164,12.723,19.811-.021,21.707ZM84.6,35.46H82.6c.3,2-.9,2.829-2.743,2.882l0,1.852c2.152-.27,3.01.586,2.739,2.739H84.6ZM14.128,37.452c-9.294,1.532-9.182,14.658,0,16.435ZM61.439,53.887c9.248-1.812,9.4-14.918,0-16.435ZM84.6,50.65H74.761a19.033,19.033,0,0,1-6.35,7.968H84.223l.374-.374Z" transform="translate(0 0)" fill="#fff"/>
          <path id="Trazado_1268208" data-name="Trazado 1268208" d="M75.749,158.415l35.066-.063c2.525-.134,2.687,2.47.245,2.754l-34.378,0c-2.066.091-3.154-1.831-.933-2.7" transform="translate(-55.966 -118.917)" fill="#fff"/>
          <path id="Trazado_1268209" data-name="Trazado 1268209" d="M75,197.684c.277-.277.91-.286,1.3-.319l36.135.24a1.238,1.238,0,0,1,0,2.03l-36.386.243A1.355,1.355,0,0,1,75,197.684" transform="translate(-56.084 -148.22)" fill="#fff"/>
          <path id="Trazado_1268210" data-name="Trazado 1268210" d="M262,82.941c4.122.307,9.383-.607,13.369-.029,2.265.328,1.77,2.492-.219,2.72a84.189,84.189,0,0,1-12.681-.029c-.763-.111-1.421-.324-1.6-1.154A1.4,1.4,0,0,1,262,82.941" transform="translate(-195.898 -62.119)" fill="#fff"/>
        </g>
      </g>
    </g>
  </g>
</svg>
