<svg xmlns="http://www.w3.org/2000/svg" xmlns:xlink="http://www.w3.org/1999/xlink" width="162.25" height="162.25" viewBox="0 0 162.25 162.25">
  <defs>
    <clipPath id="clip-path">
      <rect id="Rectángulo_459582" data-name="Rectángulo 459582" width="84" height="83.981" fill="#6a2874"/>
    </clipPath>
  </defs>
  <g id="Grupo_1208711" data-name="Grupo 1208711" transform="translate(-305.146 -10012.459)">
    <g id="Grupo_1177470" data-name="Grupo 1177470" transform="translate(305.146 10012.421)">
      <circle id="Elipse_13609" data-name="Elipse 13609" cx="81.125" cy="81.125" r="81.125" transform="translate(0 0.038)" fill="#f6e1fe"/>
      <g id="Grupo_1207827" data-name="Grupo 1207827" transform="translate(35.635 35.96)">
        <g id="Grupo_1099618" data-name="Grupo 1099618" transform="translate(0.188 0.078)">
          <rect id="Rectángulo_401104" data-name="Rectángulo 401104" width="90" height="90" transform="translate(0)" fill="none"/>
        </g>
        <g id="Grupo_1209437" data-name="Grupo 1209437" transform="translate(3.188 3.078)">
          <g id="Grupo_1209436" data-name="Grupo 1209436" clip-path="url(#clip-path)">
            <path id="Trazado_1270177" data-name="Trazado 1270177" d="M60.121,75.374v3.96a16.752,16.752,0,0,1-1,2.12,5.809,5.809,0,0,1-4.63,2.331c-8.265.618-17.318-.461-25.665-.037a5.793,5.793,0,0,1-3.947-2.294,16.752,16.752,0,0,1-1-2.12v-3.96L6.827,75.265C-2.059,73,.3,63.616.249,56.664l16.328-19.2L8.5,9.73a1.43,1.43,0,0,1,.244-.737,56.447,56.447,0,0,1,4.928-7.31A6.1,6.1,0,0,1,17.748,0L66.934.037c4.238.5,6.02,6.173,8.417,9.1l.076,1.249L67.385,37.3,83.751,56.664c-.023,7.046,2.295,16.494-6.767,18.652ZM71.4,8.411C70.386,7.044,68.65,3.175,66.947,2.9L16.5,3.072C14.777,4.456,13.809,6.6,12.6,8.411Zm.72,2.64H11.878l7.431,25.091,3.369.109a19.544,19.544,0,1,1,38.644,0l3.369-.109ZM39.91,16.881C27.051,18.2,20.782,34.051,28.924,44.047,37.44,54.5,54.768,51.069,58.132,37.984a16.745,16.745,0,0,0-18.222-21.1M4.678,55.933H79.321L64.991,39.182l-4.367-.026C55.2,57.671,28.784,57.5,23.252,39.117l-4.547.242Zm3.84,2.64H3v9.96a12.194,12.194,0,0,0,1.695,2.625,8.637,8.637,0,0,0,3.946,1.575H23.519l.36-.36v-3.96c-2.269.485-4.239-1.362-1.693-2.773,3.487.048,7.513-.43,10.945-.119,1.444.131,2.111.656,1.683,2.193-.27.97-1.758.657-2.534.7v3.96l.36.36H51.36l.36-.36v-3.96c-2.94.793-3.928-2.612-.852-2.892,3.432-.312,7.458.167,10.945.119,2.546,1.411.576,3.258-1.693,2.773v3.96l.36.36H75.361a7.9,7.9,0,0,0,3.946-1.574A12.292,12.292,0,0,0,81,68.533v-9.96h-5.52c.66,6.054-4.429,6.088-9.011,5.771-3.636-.251-5.266-2.07-4.909-5.771H22.439c.357,3.7-1.273,5.52-4.909,5.771-4.582.317-9.671.282-9.011-5.771m11.041,0h-8.04c-.69,0-.316,2.344.6,2.756a32.627,32.627,0,0,0,6.711,0c1-.443.705-1.857.726-2.755m44.882,0c.02.9-.276,2.312.726,2.755a32.627,32.627,0,0,0,6.711,0c.92-.412,1.294-2.756.6-2.756ZM29.4,68.413l-2.487.034-.394.566c.565,3.065-1.736,11.479,2.749,11.892,8.073.744,17.27-.589,25.464,0a2.837,2.837,0,0,0,2.641-2.639c.175-1,.279-9.233,0-9.628L54.6,68.413v5.88c0,.291-.835,1.261-1.308,1.092-7.138-.567-15.337.712-22.346,0-.588-.06-1.546-.41-1.546-1.094Z" transform="translate(0)" fill="#6a2874"/>
            <path id="Trazado_1270178" data-name="Trazado 1270178" d="M129.233,93.63c-.655-6.325,1.748-7.484,7.57-6.97,3.965.35,3.89,3.815,3.709,6.971,2.43-.115,6.027-.288,6.8,2.683a18.851,18.851,0,0,1,0,5.912c-.257.988-1.815,2.684-2.836,2.684h-3.96v3.96a4.982,4.982,0,0,1-1.692,2.389c-1.323.86-6.017.885-7.431.253-.761-.34-2.158-1.846-2.158-2.642v-3.96h-3.96c-.8,0-2.3-1.4-2.642-2.158-.535-1.2-.529-5.145-.194-6.438.29-1.117,1.942-2.684,3.076-2.684Zm15.361,3.12c-.236.078-.521-.24-.6-.24h-5.28c-1.959,0-.527-5.647-1.3-6.624-.377-.478-4.263-.491-4.825-.218-1.249.608.507,6.842-1.559,6.842h-5.28c-.079,0-.364.318-.6.24v4.92l.36.36h5.52a2.344,2.344,0,0,1,1.08,1.08v5.52a.776.776,0,0,0,.6.36,25.462,25.462,0,0,0,4.092.012c.349-.041.617-.03.828-.372v-5.52a2.344,2.344,0,0,1,1.08-1.08h5.52l.36-.36Z" transform="translate(-92.873 -65.779)" fill="#6a2874"/>
          </g>
        </g>
      </g>
    </g>
    <ellipse id="Elipse_13678" data-name="Elipse 13678" cx="19.243" cy="19.243" rx="19.243" ry="19.243" transform="translate(305.965 10136.186)" fill="#da9dfe"/>
    <g id="Grupo_1207826" data-name="Grupo 1207826" transform="translate(305.146 10138.641)">
      <path id="Trazado_998481" data-name="Trazado 998481" d="M0,13.854q4.835.419,9.664.868l-.27.112,1.389-2.491a.373.373,0,0,1,.426-.131.271.271,0,0,1,.2.185l0,.01,1.186,5.359L11.7,17.7l1.915-4.337,1.934-4.332,1.94-4.33L19.452.377A.822.822,0,0,1,20.394.03.578.578,0,0,1,20.9.6V.609l-.77,7.01-.812,7.007-.823,7.006-.854,7L16.044,28.4c1.235-2.953,2.506-5.9,3.765-8.845l1.893-4.42,1.917-4.414,0-.011a.7.7,0,0,1,.8-.305.505.505,0,0,1,.439.47l-.29,5.628-.314,5.627-.826-.118,2.776-5.324,0-.009a.291.291,0,0,1,.3-.125l5.25.671,5.247.689-5.291-.467-5.287-.485.3-.133-2.494,5.4a.472.472,0,0,1-.54.2.338.338,0,0,1-.286-.3v-.012l.079-5.631.1-5.631L24.836,11,23.051,15.45l-1.809,4.44c-1.209,2.959-2.407,5.921-3.64,8.874a.892.892,0,0,1-1.022.4c-.373-.087-.6-.356-.57-.635v0l.812-7.007.842-7,.854-7,.9-7,1.444.232-2.048,4.3-2.069,4.3-2.074,4.3-2.093,4.29-.005.011a.513.513,0,0,1-.588.2.382.382,0,0,1-.3-.278l-.924-5.388.624.063L9.86,14.986l0,.007a.273.273,0,0,1-.265.1q-4.8-.609-9.59-1.244" transform="translate(0 4.51) rotate(-7)" fill="#fff"/>
    </g>
  </g>
</svg>
