<svg xmlns="http://www.w3.org/2000/svg" xmlns:xlink="http://www.w3.org/1999/xlink" width="162.25" height="162.25" viewBox="0 0 162.25 162.25">
  <defs>
    <clipPath id="clip-path">
      <rect id="Rectángulo_459122" data-name="Rectángulo 459122" width="85.5" height="85.502" fill="#6a2874"/>
    </clipPath>
  </defs>
  <g id="Grupo_1207830" data-name="Grupo 1207830" transform="translate(-305.146 -10012.459)">
    <g id="Grupo_1177470" data-name="Grupo 1177470" transform="translate(305.146 10012.421)">
      <circle id="Elipse_13609" data-name="Elipse 13609" cx="81.125" cy="81.125" r="81.125" transform="translate(0 0.038)" fill="#f6e1fe"/>
      <g id="Grupo_1207827" data-name="Grupo 1207827" transform="translate(35.635 35.96)">
        <g id="Grupo_1099618" data-name="Grupo 1099618" transform="translate(0.365 0.078)">
          <rect id="Rectángulo_401104" data-name="Rectángulo 401104" width="90" height="90" transform="translate(0)" fill="none"/>
        </g>
        <g id="Grupo_1208955" data-name="Grupo 1208955" transform="translate(2.365 2.078)">
          <g id="Grupo_1208954" data-name="Grupo 1208954" clip-path="url(#clip-path)">
            <path id="Trazado_1268065" data-name="Trazado 1268065" d="M62.529,28.037c-.242-4.012.321-8.384.009-12.353-.2-2.58-1.316-4.595-3.862-5.427-17.325-.513-34.856-.513-52.181,0a5.512,5.512,0,0,0-3.85,4.949c-.124,1.249.276,3.91-.043,4.846-.277.815-2.1.995-2.345-.252a21.3,21.3,0,0,1,.314-6.912C2.977,4.975,13.716,8.177,19.841,7.47l.367-.366C20.168,3.16,23.1.45,26.953.161c2.732-.205,11.006-.331,13.32.389a6.755,6.755,0,0,1,4.655,6.956c5.682.672,15.448-2.2,18.871,3.739a13.915,13.915,0,0,1,1.174,2.981V28.037c2.127-.191,4.347.042,4.65,2.561a28.435,28.435,0,0,1-.057,4.843c-.255.888-1.366,1.021-2.149.908a2.821,2.821,0,0,0,.051.8c.341,1.438,4.652,3.976,5.682,5.562a9.418,9.418,0,0,1,.867,2.8V53.7a3.823,3.823,0,0,1,3.183.85,80.434,80.434,0,0,1,7.574,7.581,3.344,3.344,0,0,1,0,4.159A107.023,107.023,0,0,1,75,76.072c-1.737,1.319-3.181-.063-1.709-1.953,2.357-3.026,6.565-6.058,9.193-9.015a4.06,4.06,0,0,0,.529-.814l-7.641-7.914-.692-.2-17,17.008,7.789,8.027c1.156.533,2.522-2.779,4.218-2.288.4.117,1,.773.88,1.246-1.64,2.419-4.049,5.073-7.063,2.751a92.555,92.555,0,0,1-7.78-7.864c-1.093-1.861-.325-3.267.941-4.728l-3.3-.495c-.061,8.233-7.038,14.08-14.732,15.341-1.144.187-6.415.96-6.415-.793V72.768A12.574,12.574,0,0,1,23.928,71.4,11.287,11.287,0,0,1,19.02,57.613H7.9A8.1,8.1,0,0,1,.189,50.167c-.607-7.707.481-16.185,0-23.975.208-1.526,2.273-1.9,2.456.009.723,7.535-.835,16.481.026,23.931a5.3,5.3,0,0,0,4.5,4.793c4.042.437,8.824-.321,12.949-.007.761-.058.931-.962,1.352-1.337,5.345-4.747,12.3-4.484,17.109.854V49.18a9.514,9.514,0,0,1,.729-1.226c2.027-2.344,8.755-2.259,11.49-1.1a6.549,6.549,0,0,1,2.443-5.748c.625-.6,5.167-3.788,4.161-4.762-.7.094-1.928-.146-2.154-.9a28.939,28.939,0,0,1,.009-5.274c.149-.737,1.324-2.134,2.022-2.134ZM42.485,7.5A4.5,4.5,0,0,0,38.83,2.727c-2.326-.44-8.852-.312-11.388-.122-2.895.217-5,1.79-4.756,4.9ZM67.173,33.9c-.142-.719.368-3.136-.4-3.388l-8.9.073L57.64,33.9ZM64.24,62.746H57.763c-.53,0-1.719-1.46-1.819-2.092a73.819,73.819,0,0,1-.019-10.991,2.653,2.653,0,0,1,2.35-2.295,50.487,50.487,0,0,1,8.044-.022c.82.093,2.567.989,2.567,1.833V58.1l2.439-2.572-.1-11.129c-1.95-2.693-6.5-4.182-6.245-8.055l-4.906.107c-.337,4.121-4.76,5.188-6.571,8.34l0,21.239c.37,2.375,3.936,1.869,5.68,1.8ZM50.551,49.306a13.013,13.013,0,0,0-8.375-.182c-.253.1-.867.118-.666.543,2.061,1.451,5.576,1.444,7.886.557.229-.088,1.567-.487,1.156-.917m15.889.485h-7.7l-.367.367V60.3H66.44ZM50.062,52.726a17.841,17.841,0,0,1-8.8-.245l-.244,9.531c4.065-1.3,7.7-5.283,9.041-9.286M32.219,70.079V66.413A5.5,5.5,0,0,1,25,58.584c3.167-5.2,11.681-1.524,9.907,4.405l3.179-.118c.851-.5.231-3.048-.017-3.9A8.861,8.861,0,0,0,22.692,56.03c-5.423,6.835,1.268,16.358,9.527,14.049m2.689,12.955c6.04-.172,12.835-3,15.1-8.981a17.692,17.692,0,0,0,.792-2.63V57.369c-3.982,5.141-9.132,8.48-15.888,8.311Zm-5.93-24.387c-3.036.527-3.145,5.316-.044,5.793,4.949.761,4.744-6.609.044-5.793" transform="translate(0 -0.001)" fill="#6a2874"/>
            <path id="Trazado_1268066" data-name="Trazado 1268066" d="M85.892,79.291a2.985,2.985,0,0,1,.489-.733c.435-.263,9.052-.241,10.148-.122.49.053,1.34.246,1.34.856v6.478h6.478c.61,0,.8.851.856,1.34a85.084,85.084,0,0,1-.127,9.9,4.225,4.225,0,0,1-.729.738H97.87v6.478c0,.469-1.12.825-1.574.87a65.07,65.07,0,0,1-9.3-.02,2.4,2.4,0,0,1-1.105-.85V97.746H79.415a4.225,4.225,0,0,1-.729-.738,85.082,85.082,0,0,1-.127-9.9c.053-.49.246-1.34.856-1.34h6.478c.268-1.87-.362-4.744,0-6.478m9.533,1.589H88.337V87.6a4.081,4.081,0,0,1-.611.611H81v6.722l.367.367h6.355a4.081,4.081,0,0,1,.611.611v6.355l.367.367h6.355l.367-.367V95.913a4.081,4.081,0,0,1,.611-.611h6.355l.367-.367V88.213H96.037a4.081,4.081,0,0,1-.611-.611Z" transform="translate(-59.295 -59.2)" fill="#6a2874"/>
            <path id="Trazado_1268067" data-name="Trazado 1268067" d="M264.923,306.79a1.268,1.268,0,0,1,2.163,1.04c-.135,2.4-3.652.443-2.163-1.04" transform="translate(-199.89 -231.519)" fill="#6a2874"/>
            <path id="Trazado_1268068" data-name="Trazado 1268068" d="M268.04,276.627c1.776-.542,2.05,2.016.877,2.363a1.26,1.26,0,0,1-.877-2.363" transform="translate(-201.917 -208.952)" fill="#6a2874"/>
            <path id="Trazado_1268069" data-name="Trazado 1268069" d="M252.04,292.627c1.776-.542,2.05,2.016.877,2.363a1.261,1.261,0,0,1-.877-2.363" transform="translate(-189.828 -221.042)" fill="#6a2874"/>
            <path id="Trazado_1268070" data-name="Trazado 1268070" d="M300.305,244.633c2.17-.641,2.215,3,.062,2.3a1.259,1.259,0,0,1-.062-2.3" transform="translate(-226.359 -184.778)" fill="#6a2874"/>
            <path id="Trazado_1268071" data-name="Trazado 1268071" d="M313.97,258.58c.247-.154,1.607-.1,1.813.193.491.705.117,2.195-.993,2.194-1.454,0-1.256-2.116-.82-2.387" transform="translate(-236.984 -195.31)" fill="#6a2874"/>
            <path id="Trazado_1268072" data-name="Trazado 1268072" d="M297.4,274.549c1.532-1.718,3.512,2,1.021,2.14-1.066.059-1.529-1.57-1.021-2.14" transform="translate(-224.551 -207.098)" fill="#6a2874"/>
            <path id="Trazado_1268073" data-name="Trazado 1268073" d="M282.043,290.64a1.225,1.225,0,1,1,.623,2.366,1.225,1.225,0,0,1-.623-2.366" transform="translate(-212.498 -219.544)" fill="#6a2874"/>
            <path id="Trazado_1268074" data-name="Trazado 1268074" d="M284.348,260.643c2.107-.623,2.107,2.984,0,2.361a1.342,1.342,0,0,1,0-2.361" transform="translate(-214.312 -196.878)" fill="#6a2874"/>
          </g>
        </g>
      </g>
    </g>
    <ellipse id="Elipse_13678" data-name="Elipse 13678" cx="19.243" cy="19.243" rx="19.243" ry="19.243" transform="translate(305.965 10136.186)" fill="#da9dfe"/>
    <g id="Grupo_1207826" data-name="Grupo 1207826" transform="translate(305.146 10138.641)">
      <path id="Trazado_998481" data-name="Trazado 998481" d="M0,13.854q4.835.419,9.664.868l-.27.112,1.389-2.491a.373.373,0,0,1,.426-.131.271.271,0,0,1,.2.185l0,.01,1.186,5.359L11.7,17.7l1.915-4.337,1.934-4.332,1.94-4.33L19.452.377A.822.822,0,0,1,20.394.03.578.578,0,0,1,20.9.6V.609l-.77,7.01-.812,7.007-.823,7.006-.854,7L16.044,28.4c1.235-2.953,2.506-5.9,3.765-8.845l1.893-4.42,1.917-4.414,0-.011a.7.7,0,0,1,.8-.305.505.505,0,0,1,.439.47l-.29,5.628-.314,5.627-.826-.118,2.776-5.324,0-.009a.291.291,0,0,1,.3-.125l5.25.671,5.247.689-5.291-.467-5.287-.485.3-.133-2.494,5.4a.472.472,0,0,1-.54.2.338.338,0,0,1-.286-.3v-.012l.079-5.631.1-5.631L24.836,11,23.051,15.45l-1.809,4.44c-1.209,2.959-2.407,5.921-3.64,8.874a.892.892,0,0,1-1.022.4c-.373-.087-.6-.356-.57-.635v0l.812-7.007.842-7,.854-7,.9-7,1.444.232-2.048,4.3-2.069,4.3-2.074,4.3-2.093,4.29-.005.011a.513.513,0,0,1-.588.2.382.382,0,0,1-.3-.278l-.924-5.388.624.063L9.86,14.986l0,.007a.273.273,0,0,1-.265.1q-4.8-.609-9.59-1.244" transform="translate(0 4.51) rotate(-7)" fill="#fff"/>
    </g>
  </g>
</svg>
