<svg xmlns="http://www.w3.org/2000/svg" xmlns:xlink="http://www.w3.org/1999/xlink" width="96" height="96" viewBox="0 0 96 96">
  <defs>
    <clipPath id="clip-path">
      <rect id="Rectángulo_455595" data-name="Rectángulo 455595" width="96" height="96" fill="none"/>
    </clipPath>
    <clipPath id="clip-path-2">
      <rect id="Rectángulo_459125" data-name="Rectángulo 459125" width="56.241" height="56.137" fill="#fff"/>
    </clipPath>
  </defs>
  <g id="Grupo_1207883" data-name="Grupo 1207883" transform="translate(-735.746 -9118)">
    <g id="Grupo_1180407" data-name="Grupo 1180407" transform="translate(735.746 9117.971)">
      <g id="Grupo_1179172" data-name="Grupo 1179172" transform="translate(0 0.03)" clip-path="url(#clip-path)">
        <path id="Trazado_998483" data-name="Trazado 998483" d="M92.261,52.319A39.942,39.942,0,1,1,52.319,12.377,39.942,39.942,0,0,1,92.261,52.319" transform="translate(-4.304 -4.333)" fill="#8d1939"/>
        <path id="Trazado_998485" data-name="Trazado 998485" d="M90.566,46.284A44.283,44.283,0,1,1,46.284,2,44.283,44.283,0,0,1,90.566,46.284Z" transform="translate(1.731 1.702)" fill="none" stroke="#8d1939" stroke-miterlimit="10" stroke-width="4"/>
      </g>
    </g>
    <g id="Grupo_1180408" data-name="Grupo 1180408" transform="translate(755.746 9137)">
      <g id="Grupo_1099618" data-name="Grupo 1099618" transform="translate(-0.289 0.358)">
        <rect id="Rectángulo_401104" data-name="Rectángulo 401104" width="56.349" height="57.028" transform="translate(0)" fill="none"/>
      </g>
      <g id="Grupo_1208962" data-name="Grupo 1208962" transform="translate(-0.289 0.358)">
        <g id="Grupo_1208961" data-name="Grupo 1208961" clip-path="url(#clip-path-2)">
          <path id="Trazado_1268176" data-name="Trazado 1268176" d="M25.571.087a28.141,28.141,0,0,1,29.2,36.924C47.7,58.547,18.8,62.995,5.391,44.7-7.431,27.2,3.94,1.734,25.571.087m0,1.716C7.127,3.255-3.888,23.807,4.586,40.185c8.984,17.364,33.484,19.326,44.9,3.38C62.8,24.988,48.266.017,25.571,1.8" transform="translate(0 0.001)" fill="#fff"/>
          <path id="Trazado_1268177" data-name="Trazado 1268177" d="M48.268,26.258C67.235,25.031,79.827,45.83,69.887,62.117,61.046,76.6,39.933,77.137,30.322,63.147c-10.38-15.108-.232-35.713,17.947-36.889M59.627,58.292l6.238,6.161A21.769,21.769,0,0,0,35.107,33.695l.062.232,6.046,5.967a7.34,7.34,0,0,1,6.861-.161c.405.211,1.333,1.083,1.656,1.024a10.18,10.18,0,0,1,15.852,9.851,9.953,9.953,0,0,1-5.956,7.685m-7.891.342c.807,9.22-11.858,11.185-13.724,2.142.348-5.08-.469-10.784-.009-15.789a8.637,8.637,0,0,1,1.705-3.914L33.984,35.29c-.518-.389-1.369.959-1.706,1.4-9.173,11.951-3.243,29.748,11.091,34,6.634,1.967,15.283.666,20.455-4.169.239-.223.7-.513.592-.908l-6.505-6.56a12.64,12.64,0,0,1-6.175-.417m-1.716-9.951V44.994a6.825,6.825,0,0,0-.749-1.824,5.381,5.381,0,0,0-6.8-2.034Zm4.632-7.892c-.662-.254-3.863.934-3.905,1.456,1.492,2.514.827,5.425,1.024,8.2l2.881,2.866Zm1.716,0V55.116l1.969,1.915c8.363-3,6.918-15.448-1.969-16.24M50.019,51.942l-.163-.781-8.844-8.823a7.493,7.493,0,0,0-1.287,2.485v7.12Zm1.716,1.2v3.6l2.917.687a3.456,3.456,0,0,0-.162-1.64,19.051,19.051,0,0,0-2.755-2.65m-1.716.515H39.726v7.291a15.578,15.578,0,0,0,.747,1.655,5.252,5.252,0,0,0,8.955-.359,10.95,10.95,0,0,0,.591-1.639Z" transform="translate(-21.668 -21.711)" fill="#fff"/>
          <path id="Trazado_1268178" data-name="Trazado 1268178" d="M112.487,217.114a1.07,1.07,0,0,1,1,.133c.373.747.26,1.712.951,2.307.674.58,2.376.347,2.374,1.386,0,1.715-2.927.527-3.68-.252-.611-.633-1.859-3.21-.645-3.575" transform="translate(-92.765 -179.815)" fill="#fff"/>
        </g>
      </g>
    </g>
  </g>
</svg>
