<svg xmlns="http://www.w3.org/2000/svg" xmlns:xlink="http://www.w3.org/1999/xlink" width="162.25" height="162.25" viewBox="0 0 162.25 162.25">
  <defs>
    <clipPath id="clip-path">
      <rect id="Rectángulo_459581" data-name="Rectángulo 459581" width="82.037" height="82.054" fill="#6a2874"/>
    </clipPath>
  </defs>
  <g id="Grupo_1208710" data-name="Grupo 1208710" transform="translate(-305.146 -10012.459)">
    <g id="Grupo_1177470" data-name="Grupo 1177470" transform="translate(305.146 10012.421)">
      <circle id="Elipse_13609" data-name="Elipse 13609" cx="81.125" cy="81.125" r="81.125" transform="translate(0 0.038)" fill="#f6e1fe"/>
      <g id="Grupo_1207827" data-name="Grupo 1207827" transform="translate(35.635 35.96)">
        <g id="Grupo_1099618" data-name="Grupo 1099618" transform="translate(0.188 0.078)">
          <rect id="Rectángulo_401104" data-name="Rectángulo 401104" width="90" height="90" transform="translate(0)" fill="none"/>
        </g>
        <g id="Grupo_1209435" data-name="Grupo 1209435" transform="translate(4.188 4.078)">
          <g id="Grupo_1209434" data-name="Grupo 1209434" clip-path="url(#clip-path)">
            <path id="Trazado_1270174" data-name="Trazado 1270174" d="M76.631,9.646V35.5c2.7-.285,5.113,1.013,5.4,3.881l0,39.013a4.291,4.291,0,0,1-3.869,3.652H4.112A4.308,4.308,0,0,1,.028,78.609L0,39.605c.1-2.92,2.682-4.446,5.414-4.1V9.646C2.539,9.363,2.5,6.493,2.884,4.179,3.24,2.053,5.4.45,7.432.03L73.938,0a5.6,5.6,0,0,1,5.174,3.992c.473,2.3.432,5.4-2.482,5.655m0-2.82c.163-1.751-.28-3.635-2.222-4.006L7.07,2.958c-1.538.736-1.772,2.3-1.656,3.867Zm-2.82,2.82H8.234V35.5H10.82V31.152c0-2.6,4.143-5.171,5.536-7.156l.11-3.843c-1.734-.869-1.636-3.73-1.394-5.432.236-1.664,1.589-2.361,3.142-2.5,1.685-.149,7.316-.2,8.716.236,2.1.661,1.96,3.709,1.752,5.531-.183,1.6-1.155,1.7-1.362,2.4a10.16,10.16,0,0,0,.053,3.141c.458,1.921,5.54,4.752,5.54,7.388V35.5h5.406V26.216c-.581-.656-1.622-.243-2.453-.367A4.1,4.1,0,0,1,32.908,22.7a46.379,46.379,0,0,1,.021-7.277c.285-1.845,2.387-3.014,4.1-3.185,2.614-.261,6.169-.216,8.02,1.862a7.3,7.3,0,0,1,4.426-1.873c3.007-.238,7.448-.229,7.883,3.651a37.272,37.272,0,0,1-.159,7.364c-.617,2.136-2.814,2.92-4.858,2.663l-.389.316V35.5h9.637V21.868c0-.136-1.946-.023-1.309-1.894.445-1.308,2.782-.853,3.9-.926a18.179,18.179,0,0,0-.039-2.431c-.2-.588-1.4-.4-1.139-1.908s4.528-1.413,5.147-.456c1.068,1.65-1.11,2.157-1.16,2.364l.009,2.431c1.232-.031,4.375-.334,4.106,1.669-.162,1.209-1.284,1.056-1.284,1.15V35.5h4ZM25.862,15.052H17.871v2.82h7.991Zm17.863,8.226V17.05c0-.671-1.343-1.8-2.052-1.944-.9-.183-5.1-.21-5.7.306a1.622,1.622,0,0,0-.482,1.163c-.11.951-.116,5.486.264,6.091a2.313,2.313,0,0,0,.8.612Zm2.82,0h7.169a1.739,1.739,0,0,0,.777-.633c.477-.833.5-6.568-.193-7.237-.517-.5-4.632-.475-5.5-.341-.65.1-2.248,1.209-2.248,1.748Zm-21.859-2.82c-1.79.2-4.072-.432-5.641.353v3.761c0,1.127-2.678,3.134-3.291,4.113H27.978c-.613-.979-3.291-2.986-3.291-4.113Zm42.307,1.41h-2.82V35.5h2.82Zm-23.269,4H41.14V35.5h2.585Zm5.406,0c-.84.106-1.966-.316-2.585.353V35.5h2.585ZM30.093,31.5H13.64v4H30.093Zm48.832,7.107L3.22,38.537,2.945,78.749l.518.422L78.747,79.1l.483-1.163c-.779-12.352.99-25.887,0-38.1a2.279,2.279,0,0,0-.3-1.227" transform="translate(0 0.001)" fill="#6a2874"/>
            <path id="Trazado_1270175" data-name="Trazado 1270175" d="M107.855,179.284c7.934.47,17.052-.84,24.85-.058,2.277.228,3.919,1.53,4.125,3.866.723,8.157-.564,17.364,0,25.634a4.3,4.3,0,0,1-3.874,3.412c-8.047-.551-17,.7-24.933,0a4.189,4.189,0,0,1-3.88-3.641c.663-8.16-.846-17.629.011-25.632a4.121,4.121,0,0,1,3.7-3.581m-.01,2.811c-.962.187-1.049,1.113-1.118,1.938-.622,7.45.491,15.745,0,23.287l.575,1.775h26.367l.575-1.775c-.487-7.545.617-15.832,0-23.287-.1-1.245-.321-2.033-1.761-2Z" transform="translate(-79.463 -136.905)" fill="#6a2874"/>
            <path id="Trazado_1270176" data-name="Trazado 1270176" d="M142.738,210.626h5.523c1.691,0,1.431,5.089,1.3,6.234-.34,2.921-4.842,1.766-6.822,1.991.161,5.741.681,7.448-5.769,6.829-3.8-.364-2.1-4.187-2.455-6.829-1.989-.224-6.481.927-6.822-1.991-.134-1.144-.393-6.234,1.3-6.234h5.523v-5.288a2.922,2.922,0,0,1,.706-1.174c.639-.491,5.275-.5,6.177-.3a2.429,2.429,0,0,1,1.343,1.477Zm-2.82-4.231h-2.585v5.053c0,.452-1.1,1.763-1.528,1.763h-5.288v2.82H135.8c.428,0,1.528,1.311,1.528,1.763v5.053h2.585v-5.053c0-.451,1.1-1.763,1.528-1.763h5.288v-2.82h-5.288c-.428,0-1.528-1.311-1.528-1.763Z" transform="translate(-97.602 -155.852)" fill="#6a2874"/>
          </g>
        </g>
      </g>
    </g>
    <ellipse id="Elipse_13678" data-name="Elipse 13678" cx="19.243" cy="19.243" rx="19.243" ry="19.243" transform="translate(305.965 10136.186)" fill="#da9dfe"/>
    <g id="Grupo_1207826" data-name="Grupo 1207826" transform="translate(305.146 10138.641)">
      <path id="Trazado_998481" data-name="Trazado 998481" d="M0,13.854q4.835.419,9.664.868l-.27.112,1.389-2.491a.373.373,0,0,1,.426-.131.271.271,0,0,1,.2.185l0,.01,1.186,5.359L11.7,17.7l1.915-4.337,1.934-4.332,1.94-4.33L19.452.377A.822.822,0,0,1,20.394.03.578.578,0,0,1,20.9.6V.609l-.77,7.01-.812,7.007-.823,7.006-.854,7L16.044,28.4c1.235-2.953,2.506-5.9,3.765-8.845l1.893-4.42,1.917-4.414,0-.011a.7.7,0,0,1,.8-.305.505.505,0,0,1,.439.47l-.29,5.628-.314,5.627-.826-.118,2.776-5.324,0-.009a.291.291,0,0,1,.3-.125l5.25.671,5.247.689-5.291-.467-5.287-.485.3-.133-2.494,5.4a.472.472,0,0,1-.54.2.338.338,0,0,1-.286-.3v-.012l.079-5.631.1-5.631L24.836,11,23.051,15.45l-1.809,4.44c-1.209,2.959-2.407,5.921-3.64,8.874a.892.892,0,0,1-1.022.4c-.373-.087-.6-.356-.57-.635v0l.812-7.007.842-7,.854-7,.9-7,1.444.232-2.048,4.3-2.069,4.3-2.074,4.3-2.093,4.29-.005.011a.513.513,0,0,1-.588.2.382.382,0,0,1-.3-.278l-.924-5.388.624.063L9.86,14.986l0,.007a.273.273,0,0,1-.265.1q-4.8-.609-9.59-1.244" transform="translate(0 4.51) rotate(-7)" fill="#fff"/>
    </g>
  </g>
</svg>
