<svg xmlns="http://www.w3.org/2000/svg" xmlns:xlink="http://www.w3.org/1999/xlink" width="96" height="96" viewBox="0 0 96 96">
  <defs>
    <clipPath id="clip-path">
      <rect id="Rectángulo_455595" data-name="Rectángulo 455595" width="96" height="96" fill="none"/>
    </clipPath>
    <clipPath id="clip-path-2">
      <rect id="Rectángulo_459124" data-name="Rectángulo 459124" width="55.443" height="55.358" fill="#fff"/>
    </clipPath>
  </defs>
  <g id="Grupo_1207879" data-name="Grupo 1207879" transform="translate(-735.746 -9118)">
    <g id="Grupo_1180407" data-name="Grupo 1180407" transform="translate(735.746 9117.971)">
      <g id="Grupo_1179172" data-name="Grupo 1179172" transform="translate(0 0.03)" clip-path="url(#clip-path)">
        <path id="Trazado_998483" data-name="Trazado 998483" d="M92.261,52.319A39.942,39.942,0,1,1,52.319,12.377,39.942,39.942,0,0,1,92.261,52.319" transform="translate(-4.304 -4.333)" fill="#8d1939"/>
        <path id="Trazado_998485" data-name="Trazado 998485" d="M90.566,46.284A44.283,44.283,0,1,1,46.284,2,44.283,44.283,0,0,1,90.566,46.284Z" transform="translate(1.731 1.702)" fill="none" stroke="#8d1939" stroke-miterlimit="10" stroke-width="4"/>
      </g>
    </g>
    <g id="Grupo_1180408" data-name="Grupo 1180408" transform="translate(755.746 9137)">
      <g id="Grupo_1099618" data-name="Grupo 1099618" transform="translate(0.965 0.358)">
        <rect id="Rectángulo_401104" data-name="Rectángulo 401104" width="56.349" height="57.028" transform="translate(0)" fill="none"/>
      </g>
      <g id="Grupo_1208960" data-name="Grupo 1208960" transform="translate(0.964 0.358)">
        <g id="Grupo_1208959" data-name="Grupo 1208959" clip-path="url(#clip-path-2)">
          <path id="Trazado_1268173" data-name="Trazado 1268173" d="M25.86.06c22.156-1.428,37,22.491,25.705,41.731C41.16,59.509,15.516,59.942,4.407,42.682-6.986,24.982,4.97,1.407,25.86.06m.317,1.269A26.442,26.442,0,0,0,6.247,43.062c12.1,17.059,38.667,13.636,46.1-5.881C59.159,19.311,45.274.125,26.177,1.33" transform="translate(0 0)" fill="#fff"/>
          <path id="Trazado_1268174" data-name="Trazado 1268174" d="M43.811,21.081c19.537-1.312,32.548,20.174,22.374,36.971-9.414,15.543-32.264,15.528-41.668,0A24.409,24.409,0,0,1,43.811,21.081m1.617,12.8c4.376-9.2,17.419-5.608,16.66,4.68-.36,4.884-3.83,9.659-6.814,13.33l7.684,7.7c.135.151.218.186.405.082a23.923,23.923,0,0,0,2.4-3.633C76.453,35.514,53.232,13.7,33.481,25.666c-.4.24-2.538,1.6-2.479,1.932l2.129,2.119A8.494,8.494,0,0,1,43.68,31.432ZM29.8,28.495,28.527,29.92,60.98,62.214l1.2-1.354Zm4.363,2.061,14.7,14.9c.319.056.608-.686,1.093-.778,2.293-.435,5.946.293,8.415.006.714-.083,1.261-1.8,1.5-2.466,1.531-4.238,1.475-8.956-2.912-11.374-4.693-2.586-8.074-.1-10.547,3.786-.311.489-.411,1.335-1.062,1.335s-.752-.846-1.062-1.335c-2.579-4.054-5.14-5.81-10.124-4.076m-6.727.481a20.87,20.87,0,0,0-3.748,6.575A23.04,23.04,0,0,0,53.01,67.091,20.907,20.907,0,0,0,59.7,63.3l-7.552-7.667L45.9,61.882l-.671.222c-.746-.235-1.057-1-1.539-1.487-3.593-3.654-7.357-7.2-10.353-11.385C30.163,44.8,26.855,38.542,29.679,33.17Zm4.7,13.923,5.568.066,2.73,2.82,1.17-2.74L30.517,34.2c-1.443,3.652-.149,7.487,1.617,10.756m25.831.985H50.428c-.053,0-.433.463-.552.555l4.6,4.522ZM37.1,46.262H32.9c3.464,5.309,8,9.809,12.455,14.277l5.789-5.947-8.33-8.329c-.311-.056-.194.048-.27.2-.313.625-1.057,3.3-1.791,3.3Z" transform="translate(-17.634 -17.688)" fill="#fff"/>
          <path id="Trazado_1268175" data-name="Trazado 1268175" d="M192.223,99.49c1.465-.18,3.751.005,3.659,1.981-.084,1.823-2.278,1.976-3.659,1.827v2.3c0,.49-1.192,1.156-1.678,1.178-.545.025-1.972-.657-1.972-1.178v-2.3c-1.7.241-3.893-.271-3.454-2.423.33-1.618,2.179-1.424,3.454-1.384-.223-1.631.088-3.874,2.261-3.458.382.073,1.388.859,1.388,1.157Zm-1.269.873a19.547,19.547,0,0,1,0-2.7c0-.051-.362-.419-.527-.372l-.584.372v2.7c0,.763-2.781.08-3.335.631-.925,1.824,3.335.49,3.335,1.432v2.7c0,.324,1.111.324,1.111,0v-2.7c0-.769,2.925-.094,3.45-.594l.169-.383c-.239-1.4-3.346-.111-3.619-1.085" transform="translate(-155.7 -80.753)" fill="#fff"/>
        </g>
      </g>
    </g>
  </g>
</svg>
