<svg xmlns="http://www.w3.org/2000/svg" xmlns:xlink="http://www.w3.org/1999/xlink" width="150" height="150.001" viewBox="0 0 150 150.001">
  <defs>
    <clipPath id="clip-path">
      <rect id="Rectángulo_459134" data-name="Rectángulo 459134" width="84.116" height="84.09" fill="#fff"/>
    </clipPath>
  </defs>
  <g id="Grupo_1207902" data-name="Grupo 1207902" transform="translate(-308.711 -5910)">
    <g id="Grupo_1207900" data-name="Grupo 1207900" transform="translate(-167.789 -38.844)">
      <path id="Trazado_1267157" data-name="Trazado 1267157" d="M143.529,77.953A65.576,65.576,0,1,1,77.953,12.377a65.577,65.577,0,0,1,65.576,65.576" transform="translate(473.548 5945.891)" fill="#8d1939"/>
      <path id="Trazado_1267158" data-name="Trazado 1267158" d="M75.5,150.5A75.02,75.02,0,0,1,46.306,6.4a75.019,75.019,0,0,1,58.388,138.211A74.532,74.532,0,0,1,75.5,150.5Zm0-145.086A70.086,70.086,0,1,0,145.586,75.5,70.166,70.166,0,0,0,75.5,5.414Z" transform="translate(476 5948.344)" fill="#8d1939"/>
    </g>
    <g id="Grupo_1207901" data-name="Grupo 1207901" transform="translate(339.711 5941)">
      <g id="Grupo_1099618" data-name="Grupo 1099618" transform="translate(0 0)">
        <rect id="Rectángulo_401104" data-name="Rectángulo 401104" width="87.065" height="88.114" transform="translate(0)" fill="none"/>
      </g>
      <g id="Grupo_1208972" data-name="Grupo 1208972" transform="translate(1 2)">
        <g id="Grupo_1208971" data-name="Grupo 1208971" clip-path="url(#clip-path)">
          <path id="Trazado_1268201" data-name="Trazado 1268201" d="M35.972,5.49a13.991,13.991,0,0,1,2.567.2c1.006.259,1.472,1.156,2.1,1.275,6.164,1.173,16.8-3.261,18.186,6.378l.024,24.3,3.915,2.346L83.307,73.152a7.569,7.569,0,0,1-4.455,10.575c-13.706.719-27.582.113-41.349.309a7.649,7.649,0,0,1-5.822-4.1c-7.85-.39-16.255.56-24.04.008-3.572-.253-5.988-1.521-7.28-5C-.362,54.556.265,34.026.043,13.588,1.311,4.28,9.887,8.049,15.579,6.968c.7-.134.98-1.01,1.851-1.28A14.4,14.4,0,0,1,20.249,5.5c2.514-7.4,13.023-7.259,15.723-.007m1.889,2.929c-1.051-.134-2.827.3-3.709-.264-.642-.413-.714-1.618-1.064-2.307a5.659,5.659,0,0,0-9.636-.639c-.541.805-.9,2.731-1.54,3.036-.921.439-2.532.043-3.558.175v5.539H37.861Zm-22.4,1.445H5.952c-1.061,0-3.157,2.278-3.011,3.492l.184,60.986c.245.969,2.139,2.713,3.067,2.713H30.877l.241-2.89H7.638c-.973,0-2.246-1.979-2.057-3l.175-56.439a3.209,3.209,0,0,1,2.364-2.212h7.345ZM53.274,39c.714-.29,2.765-.907,2.893-1.562l.005-23.131c.194-1.544-1.707-4.447-3.259-4.447H40.751v2.649h9.994c.736,0,2.529,1.482,2.529,2.288Zm-2.89-23.6H40.39a5.146,5.146,0,0,1-2.637,1.457c-6.156.593-13.26-.467-19.519-.013-.872.372-2.264-1.445-2.409-1.445H8.48V71.515H32.443L50.384,42.737ZM56.34,40.746a5.221,5.221,0,0,0-2.689,1.887C48.16,53.061,40,63.132,34.689,73.521c-1.629,3.188-1.3,6.019,2.2,7.514H78.086c3.58-1.607,3.828-4.427,2.114-7.666C74.667,62.913,66.853,52.813,61.08,42.4a4.568,4.568,0,0,0-4.74-1.65" transform="translate(0 0)" fill="#fff"/>
          <path id="Trazado_1268202" data-name="Trazado 1268202" d="M54.041,162.881c-.684-.741-2.107-1.553-1.211-2.739,1.6-2.117,3.161,1.382,3.723.953l4.612-9.478a1.422,1.422,0,0,1,2.512,1.293l-5.9,11.69c-1.687,1.195-2.741-.645-3.733-1.719" transform="translate(-39.889 -114.626)" fill="#fff"/>
          <path id="Trazado_1268203" data-name="Trazado 1268203" d="M55.114,99.923c-1.078-.938-3.295-2.545-2.074-4.021,1.316-1.591,3.139,1.621,3.621,1.272l4.475-9.135c.921-1.735,3.154-.89,2.649.949l-5.8,11.55c-1.332,1.291-1.994.143-2.867-.616" transform="translate(-39.995 -66.119)" fill="#fff"/>
          <path id="Trazado_1268204" data-name="Trazado 1268204" d="M54.418,227.361c-.569-.518-2.081-1.835-2.015-2.588a2.617,2.617,0,0,1,.921-1.246c1.426-.658,2.595,1.97,3.122,1.568l4.612-9.478a1.422,1.422,0,0,1,2.512,1.293l-5.9,11.69c-1.527,1.149-2.338-.41-3.249-1.239" transform="translate(-39.782 -163.214)" fill="#fff"/>
          <path id="Trazado_1268205" data-name="Trazado 1268205" d="M223.766,191.992a4.3,4.3,0,0,1,5.127,3.668,91.924,91.924,0,0,1-.064,13.916c-.749,4.458-7.852,4.435-8.372-.423a90.536,90.536,0,0,1,.059-13.911,4.475,4.475,0,0,1,3.25-3.25m-.418,3.433v13.968c0,.806,2.649.806,2.649,0V195.666c0-1.083-2.394-1.154-2.649-.241" transform="translate(-167.185 -145.704)" fill="#fff"/>
          <path id="Trazado_1268206" data-name="Trazado 1268206" d="M224.494,290.982a4.218,4.218,0,1,1-3.289,4.614,4.274,4.274,0,0,1,3.289-4.614m.232,2.88c-1.006.3-.839,2.061.078,2.475,2.225,1.006,2.956-3.387-.078-2.475" transform="translate(-167.913 -220.853)" fill="#fff"/>
          <rect id="Rectángulo_459131" data-name="Rectángulo 459131" width="22.406" height="3.71" transform="translate(24.691 25.188)" fill="#fff"/>
          <rect id="Rectángulo_459132" data-name="Rectángulo 459132" width="22.406" height="3.71" transform="translate(24.691 41.457)" fill="#fff"/>
          <rect id="Rectángulo_459133" data-name="Rectángulo 459133" width="11.845" height="3.71" transform="translate(24.691 55.443)" fill="#fff"/>
        </g>
      </g>
    </g>
  </g>
</svg>
