<svg xmlns="http://www.w3.org/2000/svg" xmlns:xlink="http://www.w3.org/1999/xlink" width="292" height="258.52" viewBox="0 0 292 258.52">
  <defs>
    <clipPath id="clip-path">
      <rect id="Rectángulo_459561" data-name="Rectángulo 459561" width="258.087" height="258.003" fill="none"/>
    </clipPath>
  </defs>
  <g id="Grupo_1208701" data-name="Grupo 1208701" transform="translate(-185.422 -6737.777)">
    <g id="Grupo_1209401" data-name="Grupo 1209401">
      <path id="Trazado_1266782" data-name="Trazado 1266782" d="M0,0H292V258.52H0Z" transform="translate(185.422 6737.777)" fill="none"/>
      <g id="Grupo_1209400" data-name="Grupo 1209400" transform="translate(202.422 6737.777)">
        <g id="Grupo_1209399" data-name="Grupo 1209399" clip-path="url(#clip-path)">
          <path id="Trazado_1269982" data-name="Trazado 1269982" d="M130.844,258a122.547,122.547,0,0,1-61.8-16.636c-2.959-1.2-6.413-2.62-9.977-4.207l-.47-.21c-11.875-5.318-28.968-14.159-40.253-29.489C9.576,195.546,5.315,181.984,1.858,168.976a7.962,7.962,0,0,1,.494-10.763c.053-.055.107-.106.162-.158a7.985,7.985,0,0,1,7.078-1.983,123.912,123.912,0,0,1-.032-42.135C8.3,104.606,12.066,96.368,14.82,91.79a7.485,7.485,0,0,1-3.855-3.571L6.711,79.736a17.417,17.417,0,0,1-.877-13.427c.159-.448.305-.832.475-1.211a16.913,16.913,0,0,1,4.744-6.31c10.876-9.01,26.7-13.784,38.064-16.2.151-.032.3-.063.455-.09A123.331,123.331,0,0,1,119.83,12.344q1.076-1.03,2.211-2A7.773,7.773,0,0,1,123.2,9.076,7.636,7.636,0,0,1,125.3,7.764C132.01,2.812,138.934,0,144.488,0a12.566,12.566,0,0,1,8.507,3,12.509,12.509,0,0,1,2.7,2.488,13.294,13.294,0,0,1,2.829,9.494,120.6,120.6,0,0,1,11.835,3.349l1.36.467c.467.164.946.334,1.411.516a122.975,122.975,0,0,1,65.8,56.736c.226.4.489.878.744,1.356s.5.956.738,1.435a121.327,121.327,0,0,1,13.355,49.843c.065,1.265.11,2.552.137,3.843q.287.155.563.335c.059.039.118.078.176.119a8,8,0,0,1,2.307,10.677c-1.218,14.614-3.177,29.978-10.291,44.4-4.44,9-10.925,17.342-19.778,25.414-.086,1.978-.239,3.872-.459,5.725-1.193,10.028-4.395,17.489-9.787,22.811a29.782,29.782,0,0,1-21.156,8.258,34.727,34.727,0,0,1-8.286-1.012,38.7,38.7,0,0,1-5.977-2.013c-2.5,1.125-5.045,2.169-7.608,3.121a7.506,7.506,0,0,1-1.448.743c-.487.187-.973.356-1.466.523-.185.074-.361.133-.522.184-.061.023-.122.043-.183.062-.69.236-1.394.468-2.106.689q-.581.2-1.161.362c-.478.147-.873.267-1.268.372-.8.245-1.618.461-2.433.665a7.571,7.571,0,0,1-1.7.222A122.744,122.744,0,0,1,130.844,258" transform="translate(0)" fill="#fff"/>
          <path id="Trazado_1269983" data-name="Trazado 1269983" d="M244.564,132.408a113.343,113.343,0,0,1-.762,13.248c-.087.885-.2,1.758-.323,2.632-.312,2.259-.687,4.491-1.124,6.711a114.235,114.235,0,0,1-10.041,29.252c-1.384,2.756-2.881,5.451-4.466,8.07a116.944,116.944,0,0,1-10.228,14.271c-.362.436-.724.86-1.086,1.284l-.261.3c-.138.163-.288.324-.437.487s-.274.311-.424.474c-.162.187-.336.374-.511.561-.923,1.048-1.884,2.071-2.869,3.082a115.545,115.545,0,0,1-29.677,22.166c-.486.263-.973.512-1.472.762s-1,.5-1.5.724a113.245,113.245,0,0,1-10.8,4.591c-.586.225-1.173.424-1.771.624a1.105,1.105,0,0,1-.286.1.994.994,0,0,1-.2.075c-.836.286-1.672.561-2.52.823q-.6.2-1.2.374c-.487.15-.961.3-1.447.424-.013,0-.013,0-.025.012-.873.263-1.771.5-2.656.724a115.588,115.588,0,1,1,7.6-221.281c.424.15.848.288,1.272.437s.848.3,1.259.461a115.769,115.769,0,0,1,61.873,53.315c.236.424.474.848.7,1.272s.449.86.661,1.284a114.524,114.524,0,0,1,12.574,46.867q.15,2.919.15,5.875" transform="translate(2.516 3.161)" fill="#4ebcf7"/>
          <path id="Trazado_1269984" data-name="Trazado 1269984" d="M223.736,118.074c-.04.491-.071.981-.113,1.461-1.217,15.244-2.924,29.9-9.7,43.645-7.493,15.192-20.824,26.683-34.852,36.222-.153.1-.3.2-.449.307-11.828,8.005-23.821,14.557-35.158,22.839-.481.183-.961.347-1.452.511a.968.968,0,0,1-.235.082c.389-.388.766-.788,1.135-1.187a2.265,2.265,0,0,0,.215-.234c1.758-1.871,3.415-3.834,4.968-5.858.47-.593.92-1.2,1.37-1.8,16.244-21.97,23.463-49.818,40.924-70.837a91.268,91.268,0,0,1,32.818-24.9c.173-.093.358-.164.531-.246" transform="translate(26.662 22.205)" fill="#ffa255"/>
          <path id="Trazado_1269985" data-name="Trazado 1269985" d="M224.836,118.373l-.859,1.257q-9.247,13.526-18.78,27.011c-9.386,13.28-18.945,26.469-28.585,39.432-7.013,9.437-13.454,17.84-21.254,25.129-1.809,1.7-3.721,3.354-5.572,4.959-2.116,1.83-4.263,3.69-6.307,5.653a.2.2,0,0,0-.071.062.562.562,0,0,0-.072.082c-.47.429-.93.879-1.37,1.339-.684.235-1.37.46-2.065.675a92.618,92.618,0,0,1,7.279-6.9c.419-.379.848-.747,1.268-1.114.225-.184.44-.379.664-.573,1.84-1.6,3.752-3.252,5.552-4.928,7.728-7.228,14.149-15.6,21.131-25C185.8,172,195.729,158.3,205.462,144.483q9.187-12.988,18.1-26.07c.144-.2.286-.418.43-.623a.521.521,0,0,1,.715-.133.511.511,0,0,1,.133.715" transform="translate(26.31 22.11)" fill="#3d2929"/>
          <path id="Trazado_1269986" data-name="Trazado 1269986" d="M174.194,145.264c-.235,13.751-2.474,27.552-7.617,40.3-4.509,11.175-11.154,21.94-18.708,31.9-1.237,1.616-2.495,3.23-3.772,4.806a.506.506,0,0,0-.072.082.583.583,0,0,1-.071.091c-.3.368-.593.737-.9,1.1a.877.877,0,0,1-.235.082.744.744,0,0,1-.164.062c-.684.235-1.37.46-2.065.675-.327.112-.655.214-.981.307-.4.122-.788.245-1.186.347-.726.226-1.463.419-2.2.6.859-5.53.633-11.317.44-16.941-.388-11.307-.522-22.665,1.022-33.869s4.815-22.308,10.827-31.886c6.154-9.815,14.9-17.656,23.759-25.17.7-.583,1.381-1.165,2.076-1.758.2-.164.409-.337.613-.512-1.881,10.356-.571,19.261-.766,29.781" transform="translate(25.619 21.718)" fill="#e7d8dd"/>
          <path id="Trazado_1269987" data-name="Trazado 1269987" d="M174.143,116.75c-2.576,2.484-4.2,5.827-5.643,9.027-9.058,20.1-14.446,41.916-19.67,63.017-2.791,11.317-5.685,23-9.109,34.32-.153.5-.3.992-.461,1.483-.4.122-.786.246-1.186.348.235-.7.46-1.411.675-2.127,3.414-11.287,6.3-22.972,9.089-34.268,5.235-21.143,10.632-43.01,19.731-63.191a35.3,35.3,0,0,1,4.355-7.678,16.567,16.567,0,0,1,1.5-1.667.5.5,0,0,1,.573-.091.418.418,0,0,1,.153.1.516.516,0,0,1-.011.726" transform="translate(25.966 21.791)" fill="#3d2929"/>
          <path id="Trazado_1269988" data-name="Trazado 1269988" d="M7.491,138.48c.116.436.222.874.336,1.3,3.549,13.564,7.447,26.522,15.774,37.836,9.207,12.509,23.089,20.738,37.284,27.094.154.068.3.137.455.2,11.964,5.324,23.843,9.312,35.408,14.964.463.089.924.159,1.394.228a.83.83,0,0,0,.225.037c-.412-.289-.819-.588-1.214-.889a2,2,0,0,1-.232-.177c-1.888-1.407-3.7-2.912-5.427-4.49-.52-.46-1.023-.931-1.525-1.4-18.2-17.22-29.188-41.2-48.33-57.364a82.984,82.984,0,0,0-16.073-10.649A82.908,82.908,0,0,0,8.01,138.615c-.171-.055-.349-.089-.519-.135" transform="translate(1.409 26.043)" fill="#ad8b96"/>
          <path id="Trazado_1269989" data-name="Trazado 1269989" d="M6.973,138.863l.978,1q10.521,10.723,21.295,21.363c10.606,10.479,21.355,20.847,32.142,31,7.847,7.391,15.012,13.941,23.225,19.267,1.907,1.24,3.9,2.428,5.826,3.58,2.205,1.312,4.442,2.647,6.6,4.089a.186.186,0,0,1,.075.044.468.468,0,0,1,.077.063c.494.311.981.644,1.452.988.656.1,1.31.195,1.973.277a85.193,85.193,0,0,0-7.681-5.059c-.438-.274-.886-.537-1.323-.8-.233-.131-.457-.271-.691-.41-1.918-1.144-3.91-2.332-5.8-3.556-8.138-5.282-15.28-11.808-23.094-19.167C50.829,181,39.664,170.22,28.658,159.318Q18.278,149.071,8.132,138.694c-.162-.162-.326-.333-.487-.494a.479.479,0,0,0-.668,0,.47.47,0,0,0,0,.668" transform="translate(1.286 25.964)" fill="#3d2929"/>
          <path id="Trazado_1269990" data-name="Trazado 1269990" d="M50.407,156.16c2.421,12.375,6.661,24.473,13.353,35.154A129.363,129.363,0,0,0,85.776,217.1c1.376,1.259,2.772,2.515,4.177,3.73a.479.479,0,0,1,.078.063.465.465,0,0,0,.078.071c.327.284.653.569.99.852a.846.846,0,0,0,.225.037.729.729,0,0,0,.159.029c.655.1,1.309.195,1.971.277.314.049.626.089.937.119.379.048.748.1,1.125.124.691.087,1.386.144,2.08.191-1.664-4.854-2.392-10.114-3.12-15.221-1.467-10.268-3.172-20.543-6.368-30.41s-7.933-19.362-14.9-27.043c-7.133-7.87-16.282-13.543-25.491-18.9-.722-.415-1.435-.83-2.158-1.253-.21-.115-.424-.239-.636-.362,3.363,9.046,3.613,17.293,5.481,26.759" transform="translate(8.449 24.335)" fill="#ffa255"/>
          <path id="Trazado_1269991" data-name="Trazado 1269991" d="M45.5,130.49c2.725,1.828,4.73,4.585,6.545,7.241,11.408,16.687,19.779,35.515,27.887,53.722,4.338,9.768,8.828,19.85,13.739,29.516.22.428.428.847.655,1.264.379.046.75.1,1.126.124-.324-.59-.643-1.2-.952-1.812-4.9-9.639-9.377-19.724-13.713-29.472C72.661,172.83,64.274,153.958,52.816,137.2a32.408,32.408,0,0,0-5.166-6.23,15.193,15.193,0,0,0-1.625-1.263.46.46,0,0,0-.531.008.375.375,0,0,0-.122.118.472.472,0,0,0,.126.653" transform="translate(8.518 24.378)" fill="#3d2929"/>
          <path id="Trazado_1269992" data-name="Trazado 1269992" d="M36.425,111.081a6.007,6.007,0,0,1-1.447.114c-4.22-.233-8.381-5.042-9.741-11.606,0-.03-.017-.068-.019-.1-1.448-7.157,1.016-13.707,5.524-14.833.068-.017.145-.033.222-.051,4.344-.9,9,3.512,10.826,10.031.137.479.263.959.362,1.461,1.512,7.308-1.055,14.016-5.728,14.981" transform="translate(4.664 15.889)" fill="#ad8b96"/>
          <path id="Trazado_1269993" data-name="Trazado 1269993" d="M35.24,111.168l-.211.05c-4.673.966-9.685-4.172-11.188-11.492a.764.764,0,0,1-.026-.154c-1.447-7.246,1.11-13.863,5.743-14.826A6.007,6.007,0,0,1,31,84.632c4.042.221,8.048,4.661,9.573,10.805.067.27.121.53.178.8,1.48,7.194-.977,13.811-5.516,14.932" transform="translate(4.402 15.915)" fill="#faeddc"/>
          <path id="Trazado_1269994" data-name="Trazado 1269994" d="M40.577,95.437a28.734,28.734,0,0,1-4.311,1.629,52.6,52.6,0,0,1-10.786,2.4c-.557.053-1.1.088-1.664.1-1.447-7.246,1.108-13.862,5.742-14.825A6.007,6.007,0,0,1,31,84.633c4.042.221,8.048,4.661,9.573,10.8" transform="translate(4.403 15.915)" fill="#ff988c"/>
          <path id="Trazado_1269995" data-name="Trazado 1269995" d="M42.251,107.6a5.978,5.978,0,0,1,.039-1.451c.675-4.172,5.9-7.8,12.567-8.466.029,0,.069-.008.1-.008,7.27-.687,13.524,2.453,14.17,7.056.01.069.018.147.027.226.441,4.415-4.44,8.578-11.114,9.71-.491.086-.981.16-1.491.206-7.428.735-13.828-2.523-14.3-7.272" transform="translate(7.941 18.35)" fill="#ad8b96"/>
          <path id="Trazado_1269996" data-name="Trazado 1269996" d="M42.289,106.408c-.01-.069-.019-.147-.027-.216-.469-4.747,5.169-9.191,12.605-9.916a.875.875,0,0,1,.157-.01c7.359-.676,13.67,2.563,14.139,7.272a6.038,6.038,0,0,1-.039,1.451c-.645,4-5.482,7.513-11.753,8.383-.274.037-.539.064-.814.093-7.309.715-13.632-2.425-14.267-7.057" transform="translate(7.943 18.087)" fill="#faeddc"/>
          <path id="Trazado_1269997" data-name="Trazado 1269997" d="M55.357,113.373a29.015,29.015,0,0,1-1.167-4.459,52.544,52.544,0,0,1-1.25-10.98c0-.558.027-1.107.07-1.666,7.358-.676,13.67,2.561,14.138,7.271a5.977,5.977,0,0,1-.038,1.451c-.645,4-5.483,7.513-11.753,8.383" transform="translate(9.956 18.087)" fill="#b0d8e4"/>
          <path id="Trazado_1269998" data-name="Trazado 1269998" d="M49.442,97.31a5.957,5.957,0,0,1-1.322-.6c-3.586-2.238-4.911-8.458-2.938-14.865.012-.027.018-.067.03-.094,2.182-6.969,7.5-11.518,11.992-10.331.068.018.144.04.22.062,4.24,1.3,6.19,7.416,4.648,14.008-.112.485-.233.967-.387,1.454C59.485,94.078,54,98.717,49.442,97.31" transform="translate(8.325 13.396)" fill="#ad8b96"/>
          <path id="Trazado_1269999" data-name="Trazado 1269999" d="M48.363,96.815l-.21-.058c-4.559-1.407-6.471-8.326-4.26-15.463a.908.908,0,0,1,.053-.147C46.171,74.1,51.6,69.536,56.125,70.928a6.012,6.012,0,0,1,1.322.6c3.435,2.142,4.8,7.965,3.177,14.082-.071.269-.149.523-.229.788-2.171,7.015-7.514,11.629-12.031,10.42" transform="translate(8.081 13.292)" fill="#faeddc"/>
          <path id="Trazado_1270000" data-name="Trazado 1270000" d="M60.471,85.608a28.867,28.867,0,0,1-4.562-.652,52.511,52.511,0,0,1-10.607-3.1c-.514-.22-1.012-.454-1.51-.71,2.226-7.045,7.656-11.611,12.179-10.219a5.957,5.957,0,0,1,1.322.6c3.436,2.142,4.8,7.964,3.178,14.082" transform="translate(8.236 13.292)" fill="#ffa255"/>
          <path id="Trazado_1270001" data-name="Trazado 1270001" d="M19.384,68.884l2.123,14.65S12.166,95,16.2,106.89s21.446,36.1,29.3,35.247,42.89-9.98,50.11-30.576c0,0-4.035-22.294-11.253-33.547S61.85,64.425,61.85,64.425L52.72,54.233Z" transform="translate(2.856 10.199)" fill="none" stroke="#fff" stroke-miterlimit="10" stroke-width="1.05"/>
          <path id="Trazado_1270002" data-name="Trazado 1270002" d="M54.447,71.351a9.508,9.508,0,0,0,2.881,3.986,14,14,0,0,0,3.246,2.425,5.291,5.291,0,0,0,2.647.621,3.111,3.111,0,0,0,2.358-1.231c.833-1.2.491-2.85-.144-4.161a11.355,11.355,0,0,0-6.683-5.738c-1.035-.336-2.336-.743-3.3-.032-1.18.87-1.395,2.835-1.006,4.13" transform="translate(10.206 12.568)" fill="#faeddc"/>
          <path id="Trazado_1270003" data-name="Trazado 1270003" d="M64.35,80.226a10.027,10.027,0,0,0,.721,4.529c1.007,2.9,2.52,5.783,5.084,7.467,1.64,1.078,3.963,1.523,5.49.291a4.081,4.081,0,0,0,1.379-2.95,8.719,8.719,0,0,0-.568-3.285,16.1,16.1,0,0,0-5.246-7.627c-.975-.748-2.779-2.064-4.081-1.978-1.586.1-2.6,2.2-2.779,3.553" transform="translate(12.092 14.418)" fill="#faeddc"/>
          <path id="Trazado_1270004" data-name="Trazado 1270004" d="M37.552,125.472l.215.143a9.087,9.087,0,0,0,3.777,1.408c3.142.29-.876-3.985-1.375-4.559a51.034,51.034,0,0,0-9.145-8.682,1.955,1.955,0,0,0-1.391-.436c-.974.166-.8,1.175-.545,1.839a22.921,22.921,0,0,0,8.464,10.287" transform="translate(5.433 21.313)" fill="#faeddc"/>
          <path id="Trazado_1270005" data-name="Trazado 1270005" d="M63.076,54.567a17.327,17.327,0,0,1-1.683,2.869c-.138.175-.263.361-.412.561a35.431,35.431,0,0,1-3.9,4.4c-.15.15-.312.3-.474.449a46.029,46.029,0,0,1-5.863,4.6c-.163.125-.337.238-.512.349a60.491,60.491,0,0,1-6.56,3.681c-.038.012-.075.037-.113.05-.187.087-.361.175-.549.261a63.052,63.052,0,0,1-7.122,2.856c-.2.075-.4.138-.6.2a60.135,60.135,0,0,1-7.21,1.846c-.213.05-.424.088-.624.125a51.041,51.041,0,0,1-6.948.786c-.225.012-.45.012-.662.012a28.21,28.21,0,0,1-3.6-.087L11.981,69.05a9.824,9.824,0,0,1-.5-7.61,6.7,6.7,0,0,1,.249-.636,9.338,9.338,0,0,1,2.658-3.568c10.1-8.37,25.6-12.686,34.865-14.657a9.662,9.662,0,0,1,3.967-.013,6.113,6.113,0,0,1,.687.175,9.727,9.727,0,0,1,6.237,5.364Z" transform="translate(2.058 7.968)" fill="#e7d8dd"/>
          <path id="Trazado_1270006" data-name="Trazado 1270006" d="M53.82,42.71c-.4.436-.823.873-1.261,1.3a5.039,5.039,0,0,1-.448.437,47.3,47.3,0,0,1-3.93,3.442c-.162.138-.324.263-.486.387a53.971,53.971,0,0,1-5.339,3.668c-.175.112-.349.211-.537.324-.075.05-.162.087-.236.137a60.094,60.094,0,0,1-5.564,2.882c-.188.087-.374.175-.574.249a62.441,62.441,0,0,1-6.262,2.407,5.519,5.519,0,0,1-.6.188A74.743,74.743,0,0,1,16.622,60.9a45.378,45.378,0,0,1-5.226.511,6.7,6.7,0,0,1,.249-.636,45.8,45.8,0,0,0,4.889-.5,71.881,71.881,0,0,0,18.687-5.327c.2-.087.387-.175.574-.261a58.036,58.036,0,0,0,5.476-2.832,53.817,53.817,0,0,0,11.864-9.318,6.158,6.158,0,0,1,.686.175" transform="translate(2.143 7.999)" fill="#faeddc"/>
          <path id="Trazado_1270007" data-name="Trazado 1270007" d="M19.864,74.716c-.225.012-.449.012-.662.012a103.174,103.174,0,0,1-4.789-16.465c-.038-.138-.063-.263-.088-.4l.612-.125c.025.15.062.3.1.449a103.9,103.9,0,0,0,4.827,16.528" transform="translate(2.694 10.858)" fill="#faeddc"/>
          <path id="Trazado_1270008" data-name="Trazado 1270008" d="M26.36,73.995c-.214.051-.425.089-.625.126a88.8,88.8,0,0,1-5.587-16.828c-.037-.138-.075-.288-.1-.425l.6-.138c.037.138.062.289.1.425a88.553,88.553,0,0,0,5.615,16.84" transform="translate(3.77 10.669)" fill="#faeddc"/>
          <path id="Trazado_1270009" data-name="Trazado 1270009" d="M33.088,72.229c-.2.076-.4.138-.6.2a69.307,69.307,0,0,1-6.612-16.691c-.025-.112-.062-.236-.087-.349l.6-.15a3.064,3.064,0,0,0,.087.312,68.039,68.039,0,0,0,6.612,16.677" transform="translate(4.85 10.388)" fill="#faeddc"/>
          <path id="Trazado_1270010" data-name="Trazado 1270010" d="M39.7,69.578c-.188.088-.362.175-.549.263a121.539,121.539,0,0,1-7.472-16.23c-.075-.2-.15-.386-.225-.586,0-.013-.013-.025-.013-.038l.587-.225.225.6A121.235,121.235,0,0,0,39.7,69.578" transform="translate(5.913 9.922)" fill="#faeddc"/>
          <path id="Trazado_1270011" data-name="Trazado 1270011" d="M45.87,65.988c-.163.125-.337.238-.512.349a112.741,112.741,0,0,0-8.32-15.505c-.075-.113-.137-.225-.211-.337l.524-.336c.075.112.15.236.225.349a113.736,113.736,0,0,1,8.3,15.48" transform="translate(6.926 9.433)" fill="#faeddc"/>
          <path id="Trazado_1270012" data-name="Trazado 1270012" d="M51.29,61.586c-.15.15-.311.3-.474.449A67.872,67.872,0,0,0,42,47.489c-.1-.137-.2-.261-.3-.386l.486-.4c.1.137.213.261.3.4A68.467,68.467,0,0,1,51.29,61.586" transform="translate(7.842 8.783)" fill="#faeddc"/>
          <path id="Trazado_1270013" data-name="Trazado 1270013" d="M54.916,57.231c-.137.175-.261.361-.411.561-2.184-4.827-4.778-9.842-8.782-13.521a3.006,3.006,0,0,0-.349-.337l.411-.474c.125.113.263.238.387.374,3.992,3.681,6.587,8.608,8.744,13.4" transform="translate(8.533 8.173)" fill="#faeddc"/>
          <path id="Trazado_1270014" data-name="Trazado 1270014" d="M115.567,114.015s8.034-30.4,18.282-31.539,10.727,33.952,13,47.617,4.941,34.685,3.009,48.36-6.266,50.62-6.266,50.62l-31.68,5.347Z" transform="translate(21.047 15.505)" fill="#ff988c"/>
          <path id="Trazado_1270015" data-name="Trazado 1270015" d="M174.489,228.762a27.132,27.132,0,0,1-6.5-.8c-6.8-1.673-13.376-5.829-19.552-12.351C135.668,202.13,129.4,183.9,125.794,171.368c-8.016-27.878-11.6-58.877-10.64-92.135a1.335,1.335,0,0,1,1.334-1.3h.038a1.335,1.335,0,0,1,1.3,1.375c-.946,32.983,2.6,63.707,10.539,91.32,3.527,12.267,9.648,30.086,22.018,43.148,5.819,6.143,11.96,10.045,18.251,11.593,7.391,1.818,15.192.009,19.881-4.613,3.689-3.639,5.924-9.128,6.834-16.779,2.15-18.072-3.189-36.151-8.354-53.635-2.273-7.7-4.623-15.655-6.329-23.558-1.029-4.772,0-16.19,1.219-21.114a1.337,1.337,0,0,1,2.595.643c-1.106,4.471-2.124,15.625-1.2,19.907,1.685,7.807,4.02,15.717,6.28,23.367,5.241,17.742,10.659,36.089,8.444,54.707-.984,8.276-3.474,14.284-7.611,18.366a22.528,22.528,0,0,1-15.9,6.1" transform="translate(21.628 14.657)" fill="#3d2929"/>
          <path id="Trazado_1270016" data-name="Trazado 1270016" d="M152.954,59.087a33.431,33.431,0,1,1-40.222-24.851,33.431,33.431,0,0,1,40.222,24.851" transform="translate(16.358 6.269)" fill="#ad8b96"/>
          <path id="Trazado_1270017" data-name="Trazado 1270017" d="M145.253,59.574a26.625,26.625,0,1,1-32.033-19.791,26.625,26.625,0,0,1,32.033,19.791" transform="translate(17.435 7.346)" fill="#e7d8dd"/>
          <path id="Trazado_1270018" data-name="Trazado 1270018" d="M128.309,55.809c1.193.947,2.807,1.7,4.2,1.093a3.177,3.177,0,0,0,1.738-2.351,5.857,5.857,0,0,0-.333-2.989c-.813-2.338-6.225-10.258-9.421-7.777-1.623,1.258-.931,4.414-.4,6a13,13,0,0,0,4.212,6.023" transform="translate(23.223 8.145)" fill="#faeddc"/>
          <path id="Trazado_1270019" data-name="Trazado 1270019" d="M132.882,61.672a2.742,2.742,0,0,0,3.322.09c2.236-1.832.465-6.019-2.373-5.785-2.963.245-2.892,4.174-.949,5.694" transform="translate(24.73 10.525)" fill="#faeddc"/>
          <path id="Trazado_1270020" data-name="Trazado 1270020" d="M151.01,230.81c-.873.261-1.771.5-2.656.724a115.966,115.966,0,0,1-67.174-2.47c-.437-11.9-1.41-27.83-3.606-33.594-3.48-9.105-16.878-28.391-6.462-42.762.013-.012.025-.025.025-.037a23.281,23.281,0,0,1,2.059-2.433.125.125,0,0,1-.013-.05A16.058,16.058,0,0,1,75.1,139.411a2.868,2.868,0,0,0,.163-.263,17.1,17.1,0,0,1,5.027-5.2c.075-.05.163-.113.238-.163v-.012a.039.039,0,0,1-.013-.025A21.009,21.009,0,0,1,86.294,118.3a26.921,26.921,0,0,1,5.912-4.8s-8.545-16.916,2.807-25.2a22.842,22.842,0,0,1,9.742-3.829c7.51-1.259,15.855.274,20.57,3.63a10.591,10.591,0,0,1,2.458,2.358,6.39,6.39,0,0,1,1.322,4.153c-.188,4.241-1.76,6.761-3.493,8.246a9.027,9.027,0,0,1-4.915,2.158s2.083.474,5.09,1.472c.125.038.249.087.374.138,4.291,1.446,10.266,3.929,14.694,7.583,5.078,4.155,8.133,9.855,4.329,17.277,0,0,5.14,2.071,3.169,8.621a15.362,15.362,0,0,1-1.048,2.57c-.038.075-.075.162-.125.249-3.019,5.787-6.9,6.012-9.194,5.488a7.528,7.528,0,0,1-.785-.223,7.117,7.117,0,0,1-1.161-.512,6.861,6.861,0,0,1,1.148,2.819c.274,1.933-.361,4.491-4.441,6.537-.236.112-.486.225-.735.336-2.844,1.261-3.979,1.76-4.216,1.871.336-.137,2.645-1.148,2.645-1.148l20.071,70.928Z" transform="translate(12.641 15.804)" fill="#ff988c"/>
          <path id="Trazado_1270021" data-name="Trazado 1270021" d="M78.513,131.019a.333.333,0,0,1-.32-.236c-.032-.108-3.075-10.82,11.818-20.663,15.022-9.929,17.64-10.131,23.645-9.262a66.24,66.24,0,0,1,16.943,5.3c3.739,1.632,8.859,3.87,11.418,8a10.12,10.12,0,0,1,1.348,7.871,7.788,7.788,0,0,1-3.949,4.942.334.334,0,1,1-.317-.588,7.138,7.138,0,0,0,3.621-4.527,9.457,9.457,0,0,0-1.271-7.347c-2.45-3.95-7.46-6.139-11.118-7.737-6.6-2.886-11.933-4.556-16.771-5.254-5.821-.84-8.362-.636-23.181,9.159-14.453,9.551-11.578,19.807-11.546,19.911a.335.335,0,0,1-.321.43" transform="translate(14.653 18.906)" fill="#3d2929"/>
          <path id="Trazado_1270022" data-name="Trazado 1270022" d="M72.363,144.46a.334.334,0,0,1-.316-.226c-.034-.1-3.327-10.234,9.432-18.184.561-.368,13.968-9.1,21.424-9.456,6.7-.322,13.97,1.259,20.382,2.655l1.521.329c1.247.27,2.52.507,3.8.747,5.327.993,10.835,2.021,15.232,5.476,3.251,2.553,4.7,5.854,3.884,8.828-1.219,4.429-6.067,6.553-10.652,8.048a.334.334,0,1,1-.207-.634c4.415-1.44,9.08-3.467,10.216-7.591,1.1-4.011-2.518-7.234-3.653-8.126-4.268-3.354-9.695-4.366-14.943-5.345-1.287-.24-2.566-.479-3.82-.75l-1.522-.33c-6.683-1.454-13.595-2.958-20.209-2.64-7.274.35-20.959,9.261-21.1,9.35-12.3,7.664-9.292,17.013-9.158,17.406a.335.335,0,0,1-.21.424.331.331,0,0,1-.107.018" transform="translate(13.473 21.919)" fill="#3d2929"/>
          <path id="Trazado_1270023" data-name="Trazado 1270023" d="M67.943,163.541a.335.335,0,0,1-.322-.244c-.044-.156-4.25-15.6,6.76-22.792s15.351-8.01,24.974-8.542c1.508-.081,36.944-1.933,38.357,7.6a5.356,5.356,0,0,1-1.163,4.11c-4.094,5.434-17.448,8.281-22.249,8.92-4.768.634-12.761.942-13.727.978l-9.145,6.157a.334.334,0,1,1-.373-.554l9.224-6.21a.336.336,0,0,1,.176-.057c.087,0,8.733-.308,13.757-.977,4.405-.586,17.867-3.434,21.8-8.659a4.722,4.722,0,0,0,1.037-3.611c-1.06-7.153-25.1-7.731-37.66-7.036-9.683.536-13.729,1.308-24.645,8.435-10.6,6.925-6.525,21.9-6.482,22.05a.334.334,0,0,1-.232.412.339.339,0,0,1-.09.013" transform="translate(12.562 24.78)" fill="#3d2929"/>
          <path id="Trazado_1270024" data-name="Trazado 1270024" d="M93.431,158.864a.344.344,0,0,1-.162-.042.336.336,0,0,1-.131-.455,32.989,32.989,0,0,0,3.28-8.5.327.327,0,0,1,.4-.249.335.335,0,0,1,.249.4,33.635,33.635,0,0,1-3.347,8.673.334.334,0,0,1-.292.172" transform="translate(17.508 28.135)" fill="#3d2929"/>
          <path id="Trazado_1270025" data-name="Trazado 1270025" d="M115.724,185.526a.337.337,0,0,1-.3-.178,84.955,84.955,0,0,1-9.685-36.068.334.334,0,0,1,.321-.347h.013a.333.333,0,0,1,.334.32,84.266,84.266,0,0,0,9.609,35.783.336.336,0,0,1-.3.491" transform="translate(19.886 28.008)" fill="#3d2929"/>
          <path id="Trazado_1270026" data-name="Trazado 1270026" d="M202.458,70.121c-2.907,3.555-6.075,6.936-9.181,10.266q-2.413,2.564-4.777,5.164a101,101,0,0,0-6.625,8.07,54.782,54.782,0,0,0-7.683,13.972,32.277,32.277,0,0,0-1.909,10.4c-.012.848.025,1.683.088,2.52a1.33,1.33,0,0,1-1.223,1.434h-.1a1.311,1.311,0,0,1-1.036-.486H170c-.013-.013-.025-.025-.025-.038a1.265,1.265,0,0,1-.263-.7c-.062-.873-.1-1.733-.1-2.582a33.379,33.379,0,0,1,.911-7.51c1.634-6.936,5.239-13.235,9.193-18.624,2.257-3.069,4.628-5.85,6.8-8.258q2.377-2.6,4.815-5.2c3.331-3.568,6.711-7.172,9.767-10.99.238.424.475.848.7,1.272s.45.86.662,1.284" transform="translate(31.898 12.706)" fill="#3d2929"/>
          <path id="Trazado_1270027" data-name="Trazado 1270027" d="M178.3,126.579a22.446,22.446,0,0,1,.2,2.756,1.348,1.348,0,0,1-1.322,1.36h-.012a1.332,1.332,0,0,1-1.148-.649c-.013-.013-.025-.025-.025-.038a1.209,1.209,0,0,1-.175-.636,23.344,23.344,0,0,0-.188-2.645c-.835-6.873-4.416-13.4-7.921-18.973-1.148-1.833-2.345-3.668-3.556-5.477-1.5-2.269-3.031-4.515-4.541-6.71a219.474,219.474,0,0,1-13.247-21.044c-.737-1.385-1.41-2.757-2.059-4.117v-.013A68.794,68.794,0,0,1,137.974,49.3a46.84,46.84,0,0,1,.236-13.5,52.3,52.3,0,0,1,4.5-13.872c.424.15.848.288,1.272.437s.848.3,1.261.461a50.149,50.149,0,0,0-4.4,13.423A48.885,48.885,0,0,0,142.314,57.5c.288,1.048.612,2.108.973,3.169a81.265,81.265,0,0,0,5.452,12.611,215.836,215.836,0,0,0,13.085,20.782c1.559,2.283,3.144,4.6,4.69,6.949,1.184,1.758,2.345,3.543,3.468,5.326a66.153,66.153,0,0,1,6.562,12.886c.124.324.236.649.336.986a30.913,30.913,0,0,1,1.422,6.374" transform="translate(25.877 4.125)" fill="#3d2929"/>
          <path id="Trazado_1270028" data-name="Trazado 1270028" d="M174.985,128.626h0a2.261,2.261,0,0,0,1.651-2.489c-.656-4.79-1.92-17.177,1.457-23.554a98.633,98.633,0,0,1,5.658-9.446,3.237,3.237,0,0,0-5.251-3.782c-1.972,2.622-5.056,7.246-6.18,11.788l-6.57-11.028a3.237,3.237,0,0,0-4.734-.924l-.935.707a3.238,3.238,0,0,0-.676,4.468c3.8,5.32,12.049,18.352,12.727,32.169a2.264,2.264,0,0,0,2.855,2.091" transform="translate(29.864 16.564)" fill="#ad8b96"/>
          <path id="Trazado_1270029" data-name="Trazado 1270029" d="M139.754,134.368l9.624,2.307-9.455,2.617-2.306,9.624L135,139.462l-9.624-2.306,9.455-2.618,2.306-9.624Z" transform="translate(23.578 23.491)" fill="#faeddc"/>
          <path id="Trazado_1270030" data-name="Trazado 1270030" d="M173.711,74.674l9.624,2.306L173.881,79.6l-2.306,9.624-2.618-9.455-9.624-2.306,9.455-2.618,2.306-9.624Z" transform="translate(29.964 12.265)" fill="#faeddc"/>
          <path id="Trazado_1270031" data-name="Trazado 1270031" d="M131.735,9.457c3.41,4.221-.7,13.195-9.179,20.044S104.44,38.482,101.03,34.26s.7-13.2,9.179-20.045,18.117-8.979,21.526-4.758" transform="translate(18.774 1.371)" fill="#e7d8dd"/>
          <path id="Trazado_1270032" data-name="Trazado 1270032" d="M130.417,8.314C133.2,11.758,128.581,20.1,120.1,26.952s-17.608,9.609-20.391,6.165,1.836-11.789,10.315-18.638,17.608-9.609,20.391-6.165" transform="translate(18.599 1.285)" fill="#faeddc"/>
          <line id="Línea_3800" data-name="Línea 3800" x2="11.114" y2="12.703" transform="translate(129.021 15.65)" fill="none" stroke="#e7d8dd" stroke-linecap="round" stroke-linejoin="round" stroke-width="0.668"/>
          <path id="Trazado_1270033" data-name="Trazado 1270033" d="M182.966,60.132c-2.567,4.78-12.433,4.474-22.035-.683s-15.3-13.215-12.737-17.994,12.433-4.474,22.035.683,15.3,13.215,12.737,17.994" transform="translate(27.754 7.158)" fill="#e7d8dd"/>
          <path id="Trazado_1270034" data-name="Trazado 1270034" d="M183.4,58.41c-2.1,3.9-11.578,2.882-21.181-2.276s-15.687-12.5-13.591-16.4,11.578-2.882,21.18,2.275,15.688,12.5,13.593,16.4" transform="translate(27.873 7.026)" fill="#faeddc"/>
          <line id="Línea_3801" data-name="Línea 3801" x1="7.397" y2="15.172" transform="translate(190.542 49.355)" fill="none" stroke="#e7d8dd" stroke-linecap="round" stroke-linejoin="round" stroke-width="0.668"/>
          <path id="Trazado_1270035" data-name="Trazado 1270035" d="M77.818,39.191,87.442,41.5l-9.455,2.618L75.682,53.74l-2.618-9.455-9.624-2.306,9.455-2.618L75.2,29.736Z" transform="translate(11.93 5.592)" fill="#faeddc"/>
          <line id="Línea_3802" data-name="Línea 3802" y2="17.508" transform="translate(173.525 97.507)" fill="none" stroke="#faeddc" stroke-linecap="round" stroke-linejoin="round" stroke-width="0.883"/>
          <line id="Línea_3803" data-name="Línea 3803" x1="12.381" y2="12.381" transform="translate(167.334 100.071)" fill="none" stroke="#faeddc" stroke-linecap="round" stroke-linejoin="round" stroke-width="0.883"/>
          <line id="Línea_3804" data-name="Línea 3804" x1="17.508" transform="translate(164.771 106.261)" fill="none" stroke="#faeddc" stroke-linecap="round" stroke-linejoin="round" stroke-width="0.883"/>
          <line id="Línea_3805" data-name="Línea 3805" x1="12.381" y1="12.381" transform="translate(167.334 100.071)" fill="none" stroke="#faeddc" stroke-linecap="round" stroke-linejoin="round" stroke-width="0.883"/>
          <line id="Línea_3806" data-name="Línea 3806" y2="16.399" transform="translate(234.12 114.754)" fill="none" stroke="#faeddc" stroke-linecap="round" stroke-linejoin="round" stroke-width="0.827"/>
          <line id="Línea_3807" data-name="Línea 3807" x1="11.595" y2="11.595" transform="translate(228.322 117.156)" fill="none" stroke="#faeddc" stroke-linecap="round" stroke-linejoin="round" stroke-width="0.827"/>
          <line id="Línea_3808" data-name="Línea 3808" x1="16.399" transform="translate(225.92 122.953)" fill="none" stroke="#faeddc" stroke-linecap="round" stroke-linejoin="round" stroke-width="0.827"/>
          <line id="Línea_3809" data-name="Línea 3809" x1="11.595" y1="11.595" transform="translate(228.322 117.156)" fill="none" stroke="#faeddc" stroke-linecap="round" stroke-linejoin="round" stroke-width="0.827"/>
          <line id="Línea_3810" data-name="Línea 3810" y2="16.399" transform="translate(43.025 157.22)" fill="none" stroke="#faeddc" stroke-linecap="round" stroke-linejoin="round" stroke-width="0.827"/>
          <line id="Línea_3811" data-name="Línea 3811" x1="11.595" y2="11.595" transform="translate(37.227 159.621)" fill="none" stroke="#faeddc" stroke-linecap="round" stroke-linejoin="round" stroke-width="0.827"/>
          <line id="Línea_3812" data-name="Línea 3812" x1="16.399" transform="translate(34.825 165.419)" fill="none" stroke="#faeddc" stroke-linecap="round" stroke-linejoin="round" stroke-width="0.827"/>
          <line id="Línea_3813" data-name="Línea 3813" x1="11.595" y1="11.595" transform="translate(37.227 159.621)" fill="none" stroke="#faeddc" stroke-linecap="round" stroke-linejoin="round" stroke-width="0.827"/>
          <path id="Trazado_1270036" data-name="Trazado 1270036" d="M85.275,68.343a4.459,4.459,0,1,1-4.459-4.459,4.458,4.458,0,0,1,4.459,4.459" transform="translate(14.36 12.014)" fill="#ff988c"/>
          <path id="Trazado_1270037" data-name="Trazado 1270037" d="M197.153,88.36a4.459,4.459,0,1,1-4.459-4.459,4.458,4.458,0,0,1,4.459,4.459" transform="translate(35.4 15.778)" fill="#ff988c"/>
          <path id="Trazado_1270038" data-name="Trazado 1270038" d="M138.355,29.561a4.459,4.459,0,1,1-4.46-4.459,4.459,4.459,0,0,1,4.46,4.459" transform="translate(24.342 4.721)" fill="#ffa255"/>
          <path id="Trazado_1270039" data-name="Trazado 1270039" d="M157.835,116.061a4.459,4.459,0,1,1-4.459-4.459,4.458,4.458,0,0,1,4.459,4.459" transform="translate(28.005 20.988)" fill="#b0d8e4"/>
          <path id="Trazado_1270040" data-name="Trazado 1270040" d="M70.978,130.358a4.459,4.459,0,1,1-4.459-4.459,4.458,4.458,0,0,1,4.459,4.459" transform="translate(11.671 23.677)" fill="#b0d8e4"/>
        </g>
      </g>
    </g>
  </g>
</svg>
