<svg xmlns="http://www.w3.org/2000/svg" xmlns:xlink="http://www.w3.org/1999/xlink" width="96" height="96" viewBox="0 0 96 96">
  <defs>
    <clipPath id="clip-path">
      <rect id="Rectángulo_455595" data-name="Rectángulo 455595" width="96" height="96" fill="none"/>
    </clipPath>
    <clipPath id="clip-path-2">
      <rect id="Rectángulo_459130" data-name="Rectángulo 459130" width="44.773" height="57.028" fill="#fff"/>
    </clipPath>
  </defs>
  <g id="Grupo_1207886" data-name="Grupo 1207886" transform="translate(-735.746 -9118)">
    <g id="Grupo_1180407" data-name="Grupo 1180407" transform="translate(735.746 9117.971)">
      <g id="Grupo_1179172" data-name="Grupo 1179172" transform="translate(0 0.03)" clip-path="url(#clip-path)">
        <path id="Trazado_998483" data-name="Trazado 998483" d="M92.261,52.319A39.942,39.942,0,1,1,52.319,12.377,39.942,39.942,0,0,1,92.261,52.319" transform="translate(-4.304 -4.333)" fill="#8d1939"/>
        <path id="Trazado_998485" data-name="Trazado 998485" d="M90.566,46.284A44.283,44.283,0,1,1,46.284,2,44.283,44.283,0,0,1,90.566,46.284Z" transform="translate(1.731 1.702)" fill="none" stroke="#8d1939" stroke-miterlimit="10" stroke-width="4"/>
      </g>
    </g>
    <g id="Grupo_1180408" data-name="Grupo 1180408" transform="translate(755.746 9137)">
      <g id="Grupo_1099618" data-name="Grupo 1099618" transform="translate(-0.035 0.358)">
        <rect id="Rectángulo_401104" data-name="Rectángulo 401104" width="56.349" height="57.028" transform="translate(0)" fill="none"/>
      </g>
      <g id="Grupo_1208970" data-name="Grupo 1208970" transform="translate(5.965 0.359)">
        <g id="Grupo_1208969" data-name="Grupo 1208969" clip-path="url(#clip-path-2)">
          <path id="Trazado_1268194" data-name="Trazado 1268194" d="M1.783,56.533c-.789.77-1.51.4-1.632-.648C-.089,53.831-.075,45.743.428,43.94c1.253-4.488,6.312-4.621,9.988-5.974.429-2.361,3.2-2.61,4.892-3.775l-.086-2.661a12.78,12.78,0,0,1-5.148-8.452A3.082,3.082,0,0,1,6.661,18.9c.3-.851,1.344-1.326,1.443-1.652.3-.982-.057-4.051.024-5.351A8.268,8.268,0,0,1,9.412,7.507C8.824,6.816,7.928,5.933,8.037,4.98c.213-.7,2.2-1.053,2.907-1.34,5.3-2.14,9.7-4.532,15.766-3.306,1.426.288,2.541,1.252,3.533,1.516a11.9,11.9,0,0,1,2.921.662c5.235,2.55,2.992,9.953,3.472,14.607.067.351,1.187.961,1.475,1.782A3.1,3.1,0,0,1,34.7,23.079a12.776,12.776,0,0,1-5.147,8.452l-.086,2.661c1.693,1.165,4.463,1.414,4.892,3.775,3.676,1.353,8.734,1.486,9.988,5.974.5,1.8.517,9.891.278,11.945-.122,1.05-.843,1.417-1.632.648V45.621a5.653,5.653,0,0,0-1.3-3.093c-.98-1-6.138-2.668-7.648-2.947-.959-.177-1.1.644-1.6,1.319,1.215,1.28,2.291,1.97,1.8,3.958L28.471,56.511a.849.849,0,0,1-1.535-.713l5.806-11.81c-.006-.844-2.23-2-2.292-2.939-.051-.776,2.177-2.891,2.108-3.227L29.148,35.93,23.29,56.052c-.171.8-.968,1.3-1.552.559L18.953,47a.849.849,0,0,1,1.541-.217l1.972,6.087,3.1-10.585c-.119-.108-2.66.5-3.175.5s-3.057-.61-3.175-.5c.581.881.354,2.84-.981,2.037-.6-.359-2.014-7.348-2.683-8.386l-3.332,1.888c-.069.336,2.159,2.451,2.108,3.227-.066,1.008-2.378,2.048-2.279,3.09.475,1.648,6.063,11.362,5.839,12.195a1.267,1.267,0,0,1-.583.583c-1.24.332-1.376-1.9-2.16-2.418-.141.8.437,2.176-.608,2.407-2.816-.126-5.993.291-8.766.044a1.439,1.439,0,0,1-.889-.251c-.5-.518-.489-6.007,0-6.517.539-.539,4.053-.059,4.237-.242-.355-2.393,1.982-2.388,1.628,0h2.28c-.648-1.827-2.851-4.49-2.591-6.419.154-1.148,1.231-1.8,1.9-2.618l-1.053-1.366a56.666,56.666,0,0,0-5.783,1.655c-1.974.725-3.712,2.094-3.712,4.432Zm33.063-39.5V7.02c0-.947-1.8-2.791-2.69-3.174L32,4.986c-1.209.939-1.36-.318-1.951-.984-2.639-2.973-8.314-2.486-11.815-1.545C15.45,3.2,12.9,4.945,10.09,5.637c3.633,5.037,10.723,4.477,16.126,3.339.9-.19,2.31-.783,3.055-.868s1.323.716,1.737,1.284a12.137,12.137,0,0,1,2.025,5.3c.207,1.487-.479,2.5,1.813,2.341m-24.92-6.6c-.268,2,.2,4.539,0,6.6,2.619.379,1.635-2.133,1.794-3.826.137-1.455,1.506-1.491,1.636-.174a19.375,19.375,0,0,1-.133,4.12c-.824,2.08-3.211,1.091-4.423,1.767a1.347,1.347,0,0,0,.56,2.523c.909.032.683-.651,1.168-.8,1.382-.428,1.1,1.583,1.234,2.292A10.742,10.742,0,0,0,33.035,22.8c.126-.709-.154-2.576,1.209-2.154.524.162.25.951,1.295.755a1.377,1.377,0,0,0-.134-2.724c-1.178-.163-2.118.257-3.2-.66-1-.845-.642-1.492-.778-2.526a10.269,10.269,0,0,0-2.108-5.54c-6.154,1.628-13.139,2.782-18.654-1.221-.213.048-.7,1.457-.736,1.711M27.842,32.673a16.6,16.6,0,0,1-6.115,1.147,21.627,21.627,0,0,1-4.8-1.147c-.173,2.592,1.117,4.974,1.665,7.453a8.608,8.608,0,0,0,7.58,0c.548-2.479,1.838-4.862,1.665-7.453M9.112,51.566H6.343v3.746H13.51V51.566H10.741c-.07,0-.014,1.019-.87.943-.75-.067-.71-.9-.759-.943" transform="translate(0 0)" fill="#fff"/>
          <path id="Trazado_1268195" data-name="Trazado 1268195" d="M212.878,297.915l1.793.08c1.113,1.512-.558,1.685-1.793,1.547.433,2.973-2.093,3.019-1.627,0-1.272.083-3,.139-1.957-1.548l1.885-.232c.356-.51-.439-1.891.682-2.1,1.172-.22,1.062,1.5,1.017,2.255" transform="translate(-174.938 -247.489)" fill="#fff"/>
          <path id="Trazado_1268196" data-name="Trazado 1268196" d="M116.349,148.565c.809-.244,1.451.6,2.285.744a4.2,4.2,0,0,0,1.924-.116c.542-.16,2.62-1.538,2.359.227-.274,1.851-5.826,2.114-6.854.344-.256-.441-.243-1.04.286-1.2" transform="translate(-97.023 -124.331)" fill="#fff"/>
          <path id="Trazado_1268197" data-name="Trazado 1268197" d="M94.643,93.137c.811-.233,3.383-.313,2.79,1.16-.194.563-2.289.545-2.79.4a.812.812,0,0,1,0-1.56" transform="translate(-78.737 -77.858)" fill="#fff"/>
          <path id="Trazado_1268198" data-name="Trazado 1268198" d="M160.218,93.283c.585-.172,2.606-.185,2.9.46.694,1.523-2.946,1.341-3.259.813-.227-.383-.116-1.133.36-1.273" transform="translate(-133.727 -78.005)" fill="#fff"/>
          <path id="Trazado_1268199" data-name="Trazado 1268199" d="M99.9,110.156l.781-.134c1.026.275.941,2.932-.5,2.469-.781-.251-.544-1.705-.279-2.334" transform="translate(-83.415 -92.102)" fill="#fff"/>
          <path id="Trazado_1268200" data-name="Trazado 1268200" d="M166.146,110.156c.265.629.5,2.083-.279,2.334-1.443.464-1.528-2.194-.5-2.469Z" transform="translate(-137.855 -92.102)" fill="#fff"/>
        </g>
      </g>
    </g>
  </g>
</svg>
