<svg xmlns="http://www.w3.org/2000/svg" xmlns:xlink="http://www.w3.org/1999/xlink" width="395.52" height="400.333" viewBox="0 0 395.52 400.333">
  <defs>
    <clipPath id="clip-path">
      <rect id="Rectángulo_459123" data-name="Rectángulo 459123" width="181.341" height="366.222" fill="none"/>
    </clipPath>
  </defs>
  <g id="Grupo_1208958" data-name="Grupo 1208958" transform="translate(-914.711 -4332)">
    <g id="Grupo_1207092" data-name="Grupo 1207092" transform="translate(914.48 4331.667)">
      <g id="Grupo_1206741" data-name="Grupo 1206741" transform="translate(0 0)">
        <g id="Grupo_1204235" data-name="Grupo 1204235" transform="translate(0.23 0.333)">
          <rect id="Rectángulo_402012" data-name="Rectángulo 402012" width="395.52" height="400.333" fill="#fbf1ff"/>
        </g>
        <circle id="Elipse_13687" data-name="Elipse 13687" cx="162" cy="162" r="162" transform="translate(36.23 38.334)" fill="#e9c3ff"/>
        <g id="Grupo_1208957" data-name="Grupo 1208957" transform="translate(107.353 16.639)">
          <g id="Grupo_1208956" data-name="Grupo 1208956" transform="translate(0 0)" clip-path="url(#clip-path)">
            <path id="Trazado_1268075" data-name="Trazado 1268075" d="M21.9,107.51c.384.1.769.184,1.157.261H61.528A6.305,6.305,0,0,0,60.1,103.04a12.657,12.657,0,0,0-4.813-3.206c-3.237-1.48-6.481-2.86-9.752-4.105-1.526-.584-2.86-1.564-4.451-2.03a33.173,33.173,0,0,1-4.744-1.476c-.242-.111-.384-.2-.384-.269a17.53,17.53,0,0,0-4.025-1.042c-3.479-.327-6.838,1.6-9.268,4.436-2.36,2.756-1.83,6.546-2.087,10.237a2.307,2.307,0,0,0,.1,1.115,1.644,1.644,0,0,0,1.219.811" transform="translate(58.467 258.451)" fill="#231c20"/>
            <path id="Trazado_1268076" data-name="Trazado 1268076" d="M.634,95.867c.277.284.565.557.857.823l32.935,19.877a6.3,6.3,0,0,0,1.222-4.786,12.616,12.616,0,0,0-2.464-5.228c-2-2.945-4.067-5.8-6.227-8.561-1-1.288-1.638-2.814-2.76-4.036a32.723,32.723,0,0,1-3.3-3.717c-.146-.219-.219-.369-.188-.423A17.471,17.471,0,0,0,17.8,86.842c-2.81-2.076-6.681-2.168-10.229-.992C4.132,86.991,2.626,90.509.5,93.534a2.378,2.378,0,0,0-.488,1.011,1.658,1.658,0,0,0,.627,1.322" transform="translate(0 242.002)" fill="#231c20"/>
            <path id="Trazado_1268077" data-name="Trazado 1268077" d="M67.706,91.462Q66.437,87.38,65.3,83.255c-2.741-10.025-2.08-20.45-1.292-30.7.254-3.329.507-6.8-.753-9.891-2.714-6.639-11.232-8.807-18.351-7.946-7.05.857-17.513,4.582-22.376,10.021-6.477,7.25-5.885,21.161-4.071,29.9,2.326,11.2,7.607,21.519,12.013,32.074C34.182,115.622,36.546,125,40,133.973c3.51,9.118,6.689,18.713,6.566,28.592a87.784,87.784,0,0,1-1.73,14.177c-1.957,11.021-4.152,21.892-6.55,32.82-.873,3.975-1.745,7.949-2.737,11.893-3.133,12.47-7.488,24.775-8.207,37.614-.027.45,3.963-.2,4.282-.234,2.672-.319,5.343-.65,8.011-1.007,5.2-.692,10.39-1.472,15.549-2.429a1.88,1.88,0,0,0,1.811-1.6c1.388-3.936,3.7-7.823.988-11.724a2.9,2.9,0,0,1-.638-1.245,1.893,1.893,0,0,1,1.192-1.738c.669-.342,1.426-.484,2.072-.861,1.318-.773,1.914-2.333,2.418-3.775q1.609-4.636,3.221-9.264l13.423-38.6c2.049-5.885,4.882-11.82,5.728-17.986a64.661,64.661,0,0,0-.442-17.859c-2.879-20.377-11.175-39.739-17.248-59.29" transform="translate(49.025 98.225)" fill="#395795"/>
            <path id="Trazado_1268078" data-name="Trazado 1268078" d="M23.845,46.388a60.549,60.549,0,0,0,20.173,6.346A55.24,55.24,0,0,0,59,52.992l.031-.438c.254-3.329.507-6.8-.753-9.891-2.71-6.639-11.232-8.81-18.351-7.946-6.419.78-15.668,3.936-20.942,8.6a39.6,39.6,0,0,0,4.859,3.068" transform="translate(53.996 98.224)" fill="#231c20"/>
            <path id="Trazado_1268079" data-name="Trazado 1268079" d="M88.22,97.972c-.015-2.848,0-5.7.085-8.549.234-8.2,1.972-16.529.619-24.705-.315-1.9-1.269-3.794-1.48-5.67-.2-1.73.288-3.69.234-5.458A29.312,29.312,0,0,0,84.9,41.68c-2.595-5.328-7.319-9.752-13.05-11.259s-12.382.254-16.083,4.882a24.3,24.3,0,0,0-3.279,6.07A89.305,89.305,0,0,0,46,67.551c-1.038,11.39,1.015,22.8,2.156,34.185.965,9.6.5,19.262,1.188,28.849.7,9.745.957,19.847-2.037,29.264a87.208,87.208,0,0,1-5.778,13.058c-5.078,9.979-10.34,19.739-15.814,29.5-1.991,3.548-3.982,7.1-6.077,10.586-6.343,10.54-13.573,20.627-18.517,31.947-1.9,4.344,21.968,6.181,24.871,6.362a9.041,9.041,0,0,0,3.567-.258c1.73-.619,3.121-3.217,4.094-4.728,1.368-2.133,2.26-4.547,1.445-7.069a2.873,2.873,0,0,1-.25-1.376,1.9,1.9,0,0,1,1.649-1.319c.738-.131,1.5-.046,2.233-.219,1.484-.354,2.51-1.676,3.41-2.91l5.778-7.923q12.034-16.514,24.071-33.024c3.671-5.036,8.107-9.887,10.713-15.545a64.692,64.692,0,0,0,4.774-17.213c3.171-20.335.869-41.269.746-61.742" transform="translate(2.879 85.022)" fill="#395795"/>
            <path id="Trazado_1268080" data-name="Trazado 1268080" d="M40.47,87.781a.917.917,0,0,0-.8,0A56.336,56.336,0,0,1,23.4,93.447c-.161.031-.484.123-.392.354.088.211.515.231.692.2A58.1,58.1,0,0,0,40.47,88.185c.208-.108.192-.292,0-.4" transform="translate(65.386 249.392)" fill="#231c20"/>
            <path id="Trazado_1268081" data-name="Trazado 1268081" d="M80.713,21.98a24.643,24.643,0,0,1-6.147,11.69c-3.759,4.105-8.449,7.223-12.924,10.54-2.929,2.172-5.547,4.951-8.48,6.988-.142.1-.284.2-.427.3-.273.185-.542.361-.811.538-2.287,1.5-4.663,2.825-6.919,4.374-.181.123-.357.246-.534.373-.48.342-.953.692-1.422,1.061-2.964,2.345-5.731,4.924-8.661,7.311q-1.1.894-2.233,1.749-3.223,2.451-6.673,4.574c-1.768,1.092-3.717,2.149-5.789,2a7.153,7.153,0,0,1-4.743-2.687c-1.688-2-2.522-4.521-3.9-6.7a20.381,20.381,0,0,1-2.891-6.931,5.034,5.034,0,0,1-.042-2.391c.65-2.233,3.4-4.217,4.978-5.778q3.275-3.241,6.642-6.373c2.91-2.718,5.981-5.262,9-7.853,1.184-1.011,2.364-2.033,3.521-3.071.165-.15.334-.3.5-.454.35-.319.7-.638,1.042-.957q.848-.784,1.7-1.561l.73-.65A147.808,147.808,0,0,1,48.846,18.029c4.659-3.31,9.6-6.393,15.1-7.93,4.059-1.138,8.776-1.28,12.124,1.28,2.921,2.23,5.393,7,4.64,10.6" transform="translate(22.714 26.501)" fill="#ffa87d"/>
            <path id="Trazado_1268082" data-name="Trazado 1268082" d="M65.36,21.98a24.643,24.643,0,0,1-6.147,11.69c-3.759,4.105-8.449,7.223-12.924,10.54-2.929,2.172-5.547,4.951-8.48,6.988-.142.1-.284.2-.427.3-.273.185-.542.361-.811.538-2.287,1.5-4.663,2.825-6.919,4.374-.181.123-.357.25-.534.373-.569-.861-1.142-1.726-1.726-2.575-3.225-4.694-6.6-9.295-9.956-13.9q-2.024-2.773-4.052-5.551c1.184-1.011,2.364-2.033,3.521-3.071.165-.15.334-.3.5-.454.35-.319.7-.638,1.042-.957q.848-.784,1.7-1.561l.73-.65A147.81,147.81,0,0,1,33.493,18.029c4.659-3.31,9.6-6.393,15.1-7.93,4.059-1.138,8.776-1.28,12.124,1.28,2.921,2.23,5.393,7,4.64,10.6" transform="translate(38.067 26.501)" fill="#395795"/>
            <path id="Trazado_1268083" data-name="Trazado 1268083" d="M32.372,37.627c-.269.185-.538.361-.807.538l-3.513-4.982q-6.452-9.174-12.9-18.34c.242-.215.484-.434.73-.65.4.565.8,1.134,1.2,1.7q7.651,10.869,15.3,21.738" transform="translate(43.078 40.368)" fill="#65bfd7"/>
            <path id="Trazado_1268084" data-name="Trazado 1268084" d="M43.9,67.624q.525-.738,1.019-1.5c6.915-10.694,9.06-23.675,13.031-35.776.915-2.779,1.984-5.608,4-7.726,2.856-3.01,7.238-4.136,11.386-4.067s8.2,1.18,12.266,2.007a89.831,89.831,0,0,0,18,1.8c2.983,0,5.574-.234,5.785-3.9a8.194,8.194,0,0,0-1.322-4.563,17.464,17.464,0,0,0-7.826-6.581,47.33,47.33,0,0,0-9.925-2.968C76.415,1.358,62.184-.78,48.015.393a12.541,12.541,0,0,0-4.459.961c-2.879,1.384-4.355,4.5-5.87,7.131a82.967,82.967,0,0,0-4.8,9.941,210.274,210.274,0,0,0-6.9,20.75c-.9,3.06-1.8,6.123-2.564,9.218A109.494,109.494,0,0,0,20.7,64.434c-.185,1.949-.292,4.025.627,5.754,2.5,4.709,11.547,5.635,15.818,3.56a18.731,18.731,0,0,0,6.75-6.123" transform="translate(58.525 0.188)" fill="#ffa87d"/>
            <path id="Trazado_1268085" data-name="Trazado 1268085" d="M57.41,10.883c-2.975-1.269-6-2.437-9.091-3.406-1.822-.573-3.667-1.1-5.5-1.634a42.587,42.587,0,0,0-6.177-1.434,12.7,12.7,0,0,0-2.779-.115l-.042,0q-.479,1.1-.934,2.2a212.218,212.218,0,0,0-6.9,20.746c-.9,3.06-1.8,6.123-2.564,9.222A110.53,110.53,0,0,0,20.7,52.509c-.185,1.949-.292,4.021.627,5.751,2.5,4.709,11.547,5.639,15.818,3.56A18.7,18.7,0,0,0,43.9,55.7q.53-.732,1.019-1.5c6.919-10.694,9.056-23.671,13.035-35.776a24.866,24.866,0,0,1,2.714-6.112c-1.08-.484-2.164-.965-3.256-1.43" transform="translate(58.525 12.116)" fill="#dd475d"/>
            <path id="Trazado_1268086" data-name="Trazado 1268086" d="M131.965,55.035a36.315,36.315,0,0,1-4.609,5.239,132.155,132.155,0,0,0-9.456,10.7c-2.61,3.3-5.443,6.412-8.326,9.468-2.756,2.925-5,6.562-7.488,9.76-5.312,6.812-10.809,13.477-16.564,19.923-1.207,1.345-2.418,2.683-3.648,4.013-3.829,4.144-7.815,9.318-13.45,10.929-5.243,1.507-11.071.469-16.11-.9a85.542,85.542,0,0,1-31.548-16.214c-1.9-1.553-3.809-3.287-4.667-5.585-1.288-3.444.05-7.257,1.4-10.679Q31.723,55.625,48.935,20.842c2.672-5.4,4.909-10.033,10.713-12.37,5.543-2.233,11.843-2.11,17.617-.942a60.928,60.928,0,0,1,14.711,5.286c3.044,1.48,6.035,3.11,9.091,4.728,6.627,3.513,12.558,6.65,18.317,11.321q.946.761,1.88,1.58a49.346,49.346,0,0,1,10.363,12.412,14.27,14.27,0,0,1,2.241,5.6,10.29,10.29,0,0,1-1.9,6.581" transform="translate(44.302 19.074)" fill="#395795"/>
            <path id="Trazado_1268087" data-name="Trazado 1268087" d="M63.635,24.345c-.254.454-.515.9-.8,1.345a31.379,31.379,0,0,1-2.118,2.945,59.991,59.991,0,0,1-11.463,10.24c-1.376,1.011-3.044,1.791-4.5,2.76a89.944,89.944,0,0,1-8.891,5.27,21.787,21.787,0,0,1-.653-7.092c.092-2.629.407-5.247.546-7.876.154-2.933.127-5.881.146-8.818.023-3.179.027-6.354.05-9.529A52.56,52.56,0,0,1,36.223,8.3c3.044,1.48,6.039,3.106,9.095,4.728,6.627,3.51,12.555,6.65,18.317,11.321" transform="translate(100.051 23.594)" fill="#ffa87d"/>
            <path id="Trazado_1268088" data-name="Trazado 1268088" d="M58.091,20.649c-.627-.511-5.57,5.593-6.173,6.058-3.852,2.964-8.5,1.518-11.4-2.08a16.544,16.544,0,0,1-3.26-9.918,7.121,7.121,0,0,1,.584-3.525,2.52,2.52,0,0,1,1.407-1.192,5.053,5.053,0,0,1,1.411-.3c6.266,3.325,11.916,6.423,17.433,10.955" transform="translate(105.937 27.57)" fill="#e06f63"/>
            <path id="Trazado_1268089" data-name="Trazado 1268089" d="M72.291,28.271c-2.195,4.29-3.944,9.283-6.677,13.246a41.753,41.753,0,0,1-7.865,8.7c-6.842,5.624-14.288-.227-18.413-6.181-2.4-3.463-3.1-8.3-2.587-12.412.173-1.4.5-2.768.623-4.171a69.426,69.426,0,0,0-.227-7.311c-.119-6.154,3.706-12.228,8.211-16.195A16.11,16.11,0,0,1,50.542.721C52.21.129,54.063.5,55.793.817A33.671,33.671,0,0,1,67,5.492a24.413,24.413,0,0,1,5.851,4.6C74,11.4,73.987,13.2,74.494,14.767c.173.534.523.988.665,1.534a8.32,8.32,0,0,1,.062,2.491,24.368,24.368,0,0,1-2.929,9.479" transform="translate(104.064 1.159)" fill="#ffa87d"/>
            <path id="Trazado_1268090" data-name="Trazado 1268090" d="M37.168,24.9c.919.769,2.1-.277,2.879-.9a19.442,19.442,0,0,0,2.479-2.291c1.318-1.511,1.949-2.595,3.963-3.121a14.692,14.692,0,0,1,6.058.035c2.518.411,5.089.988,7.592.488.861-.169,1.907-.411,2.491.246.569.646.258,1.753.807,2.418.619.746,1.826.427,2.679-.038A15.484,15.484,0,0,0,72.7,14.754a29.216,29.216,0,0,1,2.272,6.281c.2.838.519,4.432,1.634,4.5.969.054,1.98-3.221,2.064-4.048a18.272,18.272,0,0,0-.523-5.774A22.234,22.234,0,0,0,73.1,5.862C68.778,1.023,61.766.139,55.566.012A19.809,19.809,0,0,0,47.72,1.065a15.618,15.618,0,0,0-7.373,6.881,35.137,35.137,0,0,0-3.725,9.675c-.484,2.149-1.472,5.593.546,7.281" transform="translate(102.242 0)" fill="#932409"/>
            <path id="Trazado_1268091" data-name="Trazado 1268091" d="M41.687,5.156a3.012,3.012,0,0,0-3.194.292,5.817,5.817,0,0,0-1.887,3.1c-.98,3.387-.208,7.088,2.783,9.222a2.448,2.448,0,0,0,1.1.5c2.552.315,3.021-5.159,3.352-6.865a7.217,7.217,0,0,0-.146-4.14,4.108,4.108,0,0,0-2.007-2.11" transform="translate(102.963 13.741)" fill="#ffa87d"/>
            <path id="Trazado_1268092" data-name="Trazado 1268092" d="M47.943,7.469a7.32,7.32,0,0,1,3.41,3.206c.231.431,1.057,1.607.165,1.534-.846-.069-1.638-.892-2.287-1.353a14.128,14.128,0,0,0-4.582-1.918c-.65-.177-1.307-.292-1.134-1a1.6,1.6,0,0,1,1-1.23,4.748,4.748,0,0,1,2.018.269,7.671,7.671,0,0,1,1.411.492" transform="translate(123.676 18.955)" fill="#932409"/>
            <path id="Trazado_1268093" data-name="Trazado 1268093" d="M45.459,5.52c-2.652-.35-4.966-.185-6.3.523a.641.641,0,0,0-.2.123.176.176,0,0,0-.023.223.277.277,0,0,0,.142.081C41.8,7.254,44.5,7.707,47.119,8.9c.742.338,2.195.715,2.51-.461a1.52,1.52,0,0,0-.715-1.449A7.279,7.279,0,0,0,45.459,5.52" transform="translate(110.623 15.196)" fill="#932409"/>
            <path id="Trazado_1268094" data-name="Trazado 1268094" d="M44.276,8.984c.357-.642.919-1.361,1.741-1.242a1.071,1.071,0,0,1,.873.684,1.151,1.151,0,0,1,.065.319c.019.081.035.161.046.238a2.1,2.1,0,0,1-.377,1.488,1.507,1.507,0,0,1-.876.865,1.453,1.453,0,0,1-1.457-.492,1.611,1.611,0,0,1-.015-1.86" transform="translate(125.098 21.983)" fill="#231c20"/>
            <path id="Trazado_1268095" data-name="Trazado 1268095" d="M40.126,7.721c.327-.688.865-1.476,1.722-1.4a1.31,1.31,0,0,1,1.169,1.049,2.25,2.25,0,0,1-.054.861,2.4,2.4,0,0,1-1.149,1.834,1.19,1.19,0,0,1-1.272-.185,1.662,1.662,0,0,1-.415-2.156" transform="translate(113.473 17.954)" fill="#231c20"/>
            <path id="Trazado_1268096" data-name="Trazado 1268096" d="M46.716,17.866c.015-.35.027-.7.038-1.053.081-2.968-.065-6.085.861-8.945.1-.327-.734-.707-.826-.419a27.536,27.536,0,0,0-.865,7.953c-.012.677-.027,1.357-.054,2.033a1.879,1.879,0,0,1-.192,1.019,1.816,1.816,0,0,1-.7.488,4.136,4.136,0,0,1-3.375.15c-.123-.054-.427-.177-.519,0s.188.369.308.419a5.241,5.241,0,0,0,3.61.238,2.828,2.828,0,0,0,1.5-.88,1.954,1.954,0,0,0,.211-1" transform="translate(116.811 20.894)" fill="#e06f63"/>
            <path id="Trazado_1268097" data-name="Trazado 1268097" d="M35.636,14.932c-.158,2-.354,4-.423,6.012a21.888,21.888,0,0,0,.65,7.088,90,90,0,0,0,8.9-5.27c1.026-.684,2.041-1.38,3.06-2.08-4.4-.988-8.357-3.333-12.182-5.751" transform="translate(100.05 42.467)" fill="#fff"/>
            <path id="Trazado_1268098" data-name="Trazado 1268098" d="M47.443,13.713c-2.533.081-4.644-1.334-6.435-2.629a1.234,1.234,0,0,0-.938-.1c-.2.05-.484.219-.246.392,2.145,1.553,4.617,3.01,7.619,2.914.211-.008.677-.046.684-.284s-.5-.292-.684-.288" transform="translate(113.002 31.1)" fill="#e06f63"/>
            <path id="Trazado_1268099" data-name="Trazado 1268099" d="M49.216,2.321c-.073-.411-1.188-.361-1.122,0a10.784,10.784,0,0,1-1.845,8.142,9.961,9.961,0,0,1-.888,1.072c-.3.315-.765.884-1.234.869-.169,0-.561.054-.561.288s.4.281.561.284a3.625,3.625,0,0,0,2.695-1.707,10.752,10.752,0,0,0,1.657-2.7,11.029,11.029,0,0,0,.738-6.25" transform="translate(123.899 5.775)" fill="#701807"/>
            <path id="Trazado_1268100" data-name="Trazado 1268100" d="M50,3.043c-1.672,2.864-4.275,5.478-7.738,5.8-.169.015-.484.131-.392.35s.507.219.688.2c3.782-.346,6.685-3.041,8.526-6.193.2-.354-.888-.488-1.084-.154" transform="translate(119.021 8.109)" fill="#701807"/>
            <path id="Trazado_1268101" data-name="Trazado 1268101" d="M46.066.569a.909.909,0,0,0-.792,0A18.329,18.329,0,0,0,37.34,8.645c-.188.381.911.5,1.08.15A17.754,17.754,0,0,1,46.066.973c.208-.108.192-.292,0-.4" transform="translate(106.134 1.361)" fill="#701807"/>
            <path id="Trazado_1268102" data-name="Trazado 1268102" d="M40.5,2.629a.621.621,0,0,0-.334-.131.744.744,0,0,0-.692.2,9.912,9.912,0,0,0-1.638,2.837c-.085.227.219.331.392.354a1.015,1.015,0,0,0,.431-.031c.088-.027.223-.073.261-.169a9.932,9.932,0,0,1,1.638-2.841c.054-.065-.008-.173-.058-.219" transform="translate(107.564 7.074)" fill="#701807"/>
            <path id="Trazado_1268103" data-name="Trazado 1268103" d="M47.525,4.713c-.027-.088-.188-.15-.258-.173a1.1,1.1,0,0,0-.434-.027c-.181.027-.465.119-.392.35a7.185,7.185,0,0,1,.227,3.425c-.015.088.108.173.165.2a.928.928,0,0,0,.4.085c.2-.008.519-.05.561-.288a7.469,7.469,0,0,0-.265-3.575" transform="translate(132.044 12.808)" fill="#701807"/>
            <path id="Trazado_1268104" data-name="Trazado 1268104" d="M42.692,73.272c5.474,6.508,13.673,4.04,17.686-2.675,2.356-3.944,3.141-8.6,3.74-13.158a216.592,216.592,0,0,0,1.768-22.918c.054-2.272.381-5.332-1.541-6.85-1.664-1.315-4.6-1.972-6.662-2.168a15.292,15.292,0,0,0-11.332,3.644c-3.329,2.891-5.243,7.138-6.108,11.459a60.414,60.414,0,0,0-.688,13.181q.1,4.78.2,9.564a20.472,20.472,0,0,0,.627,5.566,12.118,12.118,0,0,0,2.306,4.355" transform="translate(112.336 72.35)" fill="#ffa87d"/>
            <path id="Trazado_1268105" data-name="Trazado 1268105" d="M51.574,68.457c3.018-1.43,6.012-2.921,9.033-4.359,8.307-3.944,17.087-8.311,21.8-16.206a10.978,10.978,0,0,0,1.822-5.778,8.391,8.391,0,0,0-2.3-5.347c-4.048-4.382-8.941-3-13.765-1.292-5.3,1.868-9.668,5.662-13.742,9.406a82.12,82.12,0,0,1-6.9,6.108c-2.81,2.045-5.977,3.725-8.933,5.562a25.441,25.441,0,0,0-3.248,2.268A10.409,10.409,0,0,0,31.6,66.07c-.231,5.828,4.628,8.553,9.7,6.742,3.51-1.257,6.912-2.764,10.275-4.355" transform="translate(89.85 96.236)" fill="#ffa87d"/>
            <path id="Trazado_1268106" data-name="Trazado 1268106" d="M52.571,56.151a29.846,29.846,0,0,0,2.852-3.9,9.751,9.751,0,0,0,1.292-4.974,7.386,7.386,0,0,0-3.6-5.947,12.5,12.5,0,0,0-6.3-1.3,15.313,15.313,0,0,0-7.373,1.426,17.4,17.4,0,0,0-5.028,4.817c-1.4,1.734-2.625,3.794-4.405,5.2a10.5,10.5,0,0,0-2.625,2.279c-.627.984-.5,2.587.592,2.994a2.434,2.434,0,0,0,1.488-.046c2.66-.73,4.824-2.645,6.692-4.674C36.925,51.2,38,50.247,39.04,50.7a1.76,1.76,0,0,1,.923,1.741,4.116,4.116,0,0,1-.761,1.93,23.332,23.332,0,0,1-5.666,5.666c-2,1.538-4.6,2.714-3.867,5.724a3.351,3.351,0,0,0-2.426,1.9,1.832,1.832,0,0,0,1.326,2.437,1.22,1.22,0,0,0-.811,1.388,1.852,1.852,0,0,0,1.1,1.292,4.208,4.208,0,0,0,1.734.281,1.756,1.756,0,0,0,.065,1.407,1.241,1.241,0,0,0,1.2.657c3.191-.415,5.974-.857,8.7-2.741a25.935,25.935,0,0,0,6.193-6.466,49.91,49.91,0,0,0,4.424-7.561,12.2,12.2,0,0,1,1.4-2.21" transform="translate(76.807 113.865)" fill="#ffa87d"/>
            <path id="Trazado_1268107" data-name="Trazado 1268107" d="M72.26,58.064c-.046.984-.246,6.135-.473,11.34-.012.2-.019.384-.027.577-.177,4.009-.369,7.961-.523,9.975H39.348c0-.615-.019-1.226-.038-1.837-.065-2.183-.2-4.359-.327-6.535l-.035-.573c-.2-3.233-.4-6.458-.407-9.687-.012-4.986-.815-10.64.534-15.518A147.887,147.887,0,0,1,46.125,25.9,23.62,23.62,0,0,1,50.2,19c4.255-4.544,12.462-5.032,16.591-.369,3.525,3.99,4.282,10.5,4.805,15.584a158.911,158.911,0,0,1,.665,23.852" transform="translate(108.904 43.664)" fill="#395795"/>
            <path id="Trazado_1268108" data-name="Trazado 1268108" d="M56.937,35.669a20.8,20.8,0,0,0-13.731-.5,19.908,19.908,0,0,0-3.613,1.53c-.2.111-.192.292,0,.4a.9.9,0,0,0,.8,0,18.818,18.818,0,0,1,15.757-1.03.949.949,0,0,0,.792,0c.177-.1.231-.311,0-.4" transform="translate(112.18 97.376)" fill="#e06f63"/>
            <path id="Trazado_1268109" data-name="Trazado 1268109" d="M38.646,45.105c-2.929,2.895-6.4,5.612-10.54,6.389-.161.031-.484.123-.392.354.088.211.515.231.692.2,4.413-.826,8.08-3.563,11.209-6.654.365-.357-.711-.542-.969-.288" transform="translate(78.773 127.945)" fill="#e06f63"/>
            <path id="Trazado_1268110" data-name="Trazado 1268110" d="M41.163,46.065a21.7,21.7,0,0,1-13.3,7.369c-.165.023-.484.127-.392.354s.511.223.688.2a22.738,22.738,0,0,0,13.977-7.634c.342-.4-.734-.565-.969-.288" transform="translate(78.07 130.621)" fill="#e06f63"/>
            <path id="Trazado_1268111" data-name="Trazado 1268111" d="M41.133,46.887a.747.747,0,0,0-.692.2,17.87,17.87,0,0,1-12.074,6.381c-.169.012-.484.131-.392.35s.507.215.688.2A19.005,19.005,0,0,0,41.525,47.24c.161-.2-.281-.338-.392-.354" transform="translate(79.515 133.309)" fill="#e06f63"/>
            <path id="Trazado_1268112" data-name="Trazado 1268112" d="M71.3,29.415c-.012.192-.015.381-.027.573-1.019.046-2.037.1-3.06.142q-14.859.692-29.714,1.465c-.015-.192-.027-.384-.035-.573q3.362-.173,6.731-.342,13.048-.657,26.1-1.265" transform="translate(109.389 83.657)" fill="#65bfd7"/>
            <path id="Trazado_1268113" data-name="Trazado 1268113" d="M59.456,20.124Q51.4,31.7,43.342,43.269q-2.289,3.287-4.574,6.577c-.223.319.857.473,1.08.15Q47.9,38.423,55.962,26.851l4.578-6.573c.223-.323-.861-.473-1.084-.154" transform="translate(110.169 56.73)" fill="#231c20"/>
            <path id="Trazado_1268114" data-name="Trazado 1268114" d="M55.333,13.551a44.971,44.971,0,0,1-3.986,15.28c-.53,1.149-1.115,2.276-1.741,3.379-1.737-1.4-3.471-2.8-5.22-4.175-1.63-1.28-3.64-2.426-5.743-1.6-.227.088-.173.3,0,.4a.958.958,0,0,0,.8,0,2.908,2.908,0,0,1,2.418.419A16.948,16.948,0,0,1,44.259,29q2.526,2.024,5.051,4.044c.238.192.85.234,1.026-.069a45.375,45.375,0,0,0,5.532-14.88,45.113,45.113,0,0,0,.588-4.54c.031-.381-1.092-.411-1.122,0" transform="translate(109.471 37.694)" fill="#231c20"/>
            <path id="Trazado_1268115" data-name="Trazado 1268115" d="M53.065,24.132a54.924,54.924,0,0,0-12.036,6.393c-.219.154.058.342.2.392a.9.9,0,0,0,.769-.1A53.186,53.186,0,0,1,53.63,24.628c.684-.261-.165-.65-.565-.5" transform="translate(116.456 68.532)" fill="#231c20"/>
            <path id="Trazado_1268116" data-name="Trazado 1268116" d="M37.484,20.694a1.178,1.178,0,0,0-1.284-.75,1.518,1.518,0,0,0-.481.115,1.431,1.431,0,0,0-.469.223,1.862,1.862,0,0,0-.192.161l0,0a2.9,2.9,0,0,0-.88.965,2.385,2.385,0,0,0-.342,1.207,1.016,1.016,0,0,0,.7.976,1.762,1.762,0,0,0,1.7-.4,4.849,4.849,0,0,0,.923-1.13,1.745,1.745,0,0,0,.331-1.368" transform="translate(96.215 56.71)" fill="#231c20"/>
            <path id="Trazado_1268117" data-name="Trazado 1268117" d="M34.731,26.118a1.178,1.178,0,0,0-1.284-.75,2.438,2.438,0,0,0-.949.338c-.065.05-.131.1-.192.161l0,0a2.864,2.864,0,0,0-.88.965,2.385,2.385,0,0,0-.342,1.207,1.013,1.013,0,0,0,.7.976,1.762,1.762,0,0,0,1.7-.4,4.849,4.849,0,0,0,.923-1.13,1.745,1.745,0,0,0,.331-1.368" transform="translate(88.385 72.136)" fill="#231c20"/>
            <path id="Trazado_1268118" data-name="Trazado 1268118" d="M31.066,91.991q.582-.807,1.169-1.611c2.326-3.175-.431-4.717-3.106-6.166-.907-.488-1.872-.68-2.775-1.107a23.677,23.677,0,0,0-3.294-1.757,4.537,4.537,0,0,0-4.163.6A6.683,6.683,0,0,0,17.631,83.5Q12.748,90.92,7.86,98.337a48.882,48.882,0,0,1-4.505,6.035c-1.276,1.407-1.276,2.921.311,4.044a26.456,26.456,0,0,0,6.443,3.617c1.872.684,3.9,2.1,5.985,1.591,2.272-.554,3.763-4.805,4.947-6.708Q25.8,99.294,31.066,91.991" transform="translate(6.92 230.672)" fill="#ffa87d"/>
            <path id="Trazado_1268119" data-name="Trazado 1268119" d="M33,116.2a1.761,1.761,0,0,1-.192.05L.889,93.96c.131-.246.265-.488.4-.73a18.362,18.362,0,0,1,1.03-1.568,14.265,14.265,0,0,1,5.428-4.513,1.919,1.919,0,0,1,1.534-.2c.546.234.792.853,1.038,1.392a8.707,8.707,0,0,0,5.12,4.717,9.247,9.247,0,0,0,4.386-.015,6.619,6.619,0,0,1,1.9-.277,2.62,2.62,0,0,1,1.784.926c1.33,1.465,1.811,3.759,2.683,5.512a45.136,45.136,0,0,0,3.444,5.789c1.092,1.557,2.279,3.052,3.206,4.7a10.652,10.652,0,0,1,1.5,4.336A2.05,2.05,0,0,1,33,116.2" transform="translate(2.528 247.011)" fill="#dd475d"/>
            <path id="Trazado_1268120" data-name="Trazado 1268120" d="M12.946,100.634c.092-.45-.3-.884-.534-1.242a48.6,48.6,0,0,1-3.49-6.312q-.853-1.851-1.541-3.759a.721.721,0,0,0-.465-.431c-.123-.038-.4-.031-.323.177A49.265,49.265,0,0,0,9.763,96.1c.607,1.111,1.265,2.195,1.957,3.256.138.211.411.492.438.75.035.311-.331.469-.561.569-.388.169-2.145.523-2.149,1.076-.008.853,1.434.2,1.7.046a5.908,5.908,0,0,1,.765-.381c.384-.154.938-.315,1.034-.78" transform="translate(18.709 252.754)" fill="#993741"/>
            <path id="Trazado_1268121" data-name="Trazado 1268121" d="M9.455,89.725a.864.864,0,0,0-.277-.223.54.54,0,0,0-.288-.065c-.68.131-1.365.258-2.045.384-.2.038-.158.238-.054.365a.8.8,0,0,0,.273.223.514.514,0,0,0,.288.065c.684-.127,1.365-.258,2.049-.384.2-.038.154-.238.054-.365" transform="translate(19.071 254.349)" fill="#fff"/>
            <path id="Trazado_1268122" data-name="Trazado 1268122" d="M9.579,90.284A.708.708,0,0,0,9.017,90a13.842,13.842,0,0,0-1.864.392c-.069.023-.131.042-.142.127a.34.34,0,0,0,.088.238.816.816,0,0,0,.277.223.483.483,0,0,0,.288.065,13.788,13.788,0,0,1,1.861-.392c.2-.027.154-.242.054-.365" transform="translate(19.932 255.939)" fill="#fff"/>
            <path id="Trazado_1268123" data-name="Trazado 1268123" d="M9.781,91.086a.366.366,0,0,0-.088-.238.781.781,0,0,0-.277-.223.484.484,0,0,0-.288-.065c-.53.154-1.061.311-1.591.465-.073.019-.131.042-.142.127a.354.354,0,0,0,.088.238.781.781,0,0,0,.277.223.514.514,0,0,0,.288.065c.53-.154,1.061-.311,1.591-.465.069-.023.131-.042.142-.127" transform="translate(21.021 257.535)" fill="#fff"/>
            <path id="Trazado_1268124" data-name="Trazado 1268124" d="M10.332,91.438a.721.721,0,0,0-.565-.288,7.017,7.017,0,0,0-1.98.53.149.149,0,0,0-.069.177.514.514,0,0,0,.161.25c.138.123.369.261.557.181.146-.061.3-.119.446-.173.077-.027.154-.05.231-.073l.038-.012.046-.015.115-.031a6.777,6.777,0,0,1,.965-.181c.2-.023.15-.246.054-.365" transform="translate(21.935 259.224)" fill="#fff"/>
            <path id="Trazado_1268125" data-name="Trazado 1268125" d="M32.51,111.677,1.423,90.635A1.228,1.228,0,0,1,2.8,88.6l31.086,21.042a1.228,1.228,0,0,1-1.376,2.033" transform="translate(2.517 251.382)" fill="#fff"/>
            <path id="Trazado_1268126" data-name="Trazado 1268126" d="M24.519,109.549c.815,3.36,1.822,6.719,2.437,9.779q2,9.918,4,19.839c1.926,9.556,4.155,18.117,3.717,27.838-.446,9.921-4.209,18.328-8.607,27.108q-5.824,11.624-11.232,23.445c-3.3,7.208-7.55,13.877-10.759,21.161-.546,1.234-1.065,2.683-.434,3.871a4.586,4.586,0,0,0,1.937,1.645q5.812,3.292,11.624,6.592a3.448,3.448,0,0,0,1.242.5,3.32,3.32,0,0,0,1.58-.354C39,243.082,49.755,221.794,57.455,203.95,66.208,183.673,70.99,161.528,69.9,139.4c-.407-8.288-1.626-16.514-2.041-24.8-.2-3.99-.642-8.572.111-12.52.727-3.813,3.01-7.692,4.636-11.263,1.422-3.125,2.46-6.831,4.44-9.533,1.688-2.295,1.864-4.686,2.952-7.265,2.791-6.623,2.983-12.651.661-19.777a34.553,34.553,0,0,0-11.39-16.495,35.009,35.009,0,0,0-24.736-6.954C31.788,32.054,25.019,45.839,21.756,57A57.883,57.883,0,0,0,19.73,70.144c-.711,13.235,1.7,26.67,4.79,39.4" transform="translate(9.527 87.08)" fill="#ffd540"/>
            <path id="Trazado_1268127" data-name="Trazado 1268127" d="M45.619,118.843a387.949,387.949,0,0,0,8.807-38.751c.7-4.225,2.237-11.336-2.18-13.888-3.767-2.176-8.883-1.342-12.693.227C27.8,71.25,25.284,82.352,23.981,93.842q-3.281,28.847-6.554,57.687c-.611,5.366-1.219,10.744-1.38,16.141-.065,2.16.031,4.551,1.515,6.12s3.856,1.791,5.993,1.641c2.276-.161,5.551-1.088,6.823-3.171,1.784-2.921,2.287-7.407,3.2-10.69q.882-3.183,1.761-6.362c3.34-12.062,6.961-24.179,10.283-36.364" transform="translate(45.596 184.534)" fill="#ffa87d"/>
            <path id="Trazado_1268128" data-name="Trazado 1268128" d="M24,103.693c4.371,9.718,7.669,19.866,11.482,29.806,3.606,9.406,9.445,18.447,6.769,29.03-.615,2.437-1.684,4.786-1.837,7.292-.523,8.368,26.823,3.06,29.976,2.191a15.025,15.025,0,0,0,4.1-1.568c6.289-3.944,2.449-17.54,1.964-23.668-.75-9.525-1.73-19.036-3.094-28.5-2.36-16.433-5.178-32.8-8.588-49.057-1.257-5.981-2.526-12.009-4.943-17.625A31.321,31.321,0,0,0,52.463,40.74,24.651,24.651,0,0,0,36.784,34.4,25.379,25.379,0,0,0,20.8,39.471c-7.669,5.8-11.444,15.76-11.39,25.378,0,12.493,6.739,23.018,12.178,33.777q1.257,2.491,2.41,5.066" transform="translate(26.762 97.81)" fill="#ffd540"/>
            <path id="Trazado_1268129" data-name="Trazado 1268129" d="M54.439,105.161c-.042.054-.085.1-.131.15l-38.924-.569c-.031-.277-.058-.554-.077-.83a17.038,17.038,0,0,1-.023-1.88,14.213,14.213,0,0,1,1.96-6.777A1.915,1.915,0,0,1,18.4,94.229a2.466,2.466,0,0,1,1.641.569,8.709,8.709,0,0,0,6.881,1.034,9.191,9.191,0,0,0,3.625-2.472,6.688,6.688,0,0,1,1.418-1.3,2.627,2.627,0,0,1,2-.231c1.922.465,3.61,2.1,5.312,3.06a44.516,44.516,0,0,0,6.1,2.864c1.776.68,3.6,1.249,5.293,2.095a10.694,10.694,0,0,1,3.671,2.752,2.044,2.044,0,0,1,.1,2.556" transform="translate(43.422 260.907)" fill="#dd475d"/>
            <path id="Trazado_1268130" data-name="Trazado 1268130" d="M31.931,98.4c-.177-.423-.742-.565-1.138-.73A48.053,48.053,0,0,1,24.366,94.4q-1.747-1.055-3.387-2.253a.721.721,0,0,0-.627-.092c-.123.035-.346.2-.169.323a49.091,49.091,0,0,0,6.569,4.048q1.689.865,3.444,1.6a2.153,2.153,0,0,1,.784.377c.2.238-.012.573-.146.784-.227.357-1.484,1.634-1.176,2.095.473.711,1.3-.634,1.43-.911a6.2,6.2,0,0,1,.423-.746c.231-.342.6-.788.419-1.226" transform="translate(57.215 261.704)" fill="#993741"/>
            <path id="Trazado_1268131" data-name="Trazado 1268131" d="M22.761,92.154a.923.923,0,0,0-.354-.031.507.507,0,0,0-.273.108c-.5.488-.988.98-1.48,1.468-.142.138,0,.284.158.331a.793.793,0,0,0,.354.031.49.49,0,0,0,.273-.108q.744-.732,1.48-1.465c.142-.142,0-.284-.158-.334" transform="translate(58.574 261.983)" fill="#fff"/>
            <path id="Trazado_1268132" data-name="Trazado 1268132" d="M23.174,92.476a.705.705,0,0,0-.627.077,13.879,13.879,0,0,0-1.322,1.368c-.05.058-.085.111-.05.185a.356.356,0,0,0,.211.15.829.829,0,0,0,.35.027.471.471,0,0,0,.277-.1,13.082,13.082,0,0,1,1.322-1.368c.15-.138-.012-.288-.161-.334" transform="translate(60.183 262.895)" fill="#fff"/>
            <path id="Trazado_1268133" data-name="Trazado 1268133" d="M23.76,92.913a.337.337,0,0,0-.208-.146.788.788,0,0,0-.354-.031.479.479,0,0,0-.273.108c-.354.427-.707.85-1.061,1.276-.046.058-.081.112-.046.185a.337.337,0,0,0,.208.146.784.784,0,0,0,.354.031.479.479,0,0,0,.273-.108q.53-.634,1.057-1.276c.05-.058.088-.108.05-.185" transform="translate(62.012 263.719)" fill="#fff"/>
            <path id="Trazado_1268134" data-name="Trazado 1268134" d="M24.4,93.028a.719.719,0,0,0-.627.077,7.065,7.065,0,0,0-1.345,1.549.153.153,0,0,0,.042.185.516.516,0,0,0,.273.119.6.6,0,0,0,.565-.161c.088-.135.177-.269.273-.4.046-.065.1-.127.146-.188l.027-.031.031-.038.077-.092a6.96,6.96,0,0,1,.7-.688c.154-.131-.015-.292-.161-.334" transform="translate(63.73 264.469)" fill="#fff"/>
            <path id="Trazado_1268135" data-name="Trazado 1268135" d="M54.01,97.087H16.473a1.228,1.228,0,1,1,0-2.456H54.01a1.228,1.228,0,0,1,0,2.456" transform="translate(43.351 269.131)" fill="#fff"/>
            <path id="Trazado_1268136" data-name="Trazado 1268136" d="M47.818,77.659q-1.067,4.244-2.21,8.48c-.042.161-.085.319-.127.477-.2.746-.4,1.491-.6,2.233s-.4,1.457-.6,2.183c-.046.165-.092.331-.135.5q-1.528,5.53-3.114,11.051c-.046.165-.1.327-.138.492q-.894,3.108-1.78,6.212c-.05.165-.1.327-.142.492q-1.32,4.6-2.622,9.183c-.046.169-.1.334-.138.5q-.761,2.681-1.5,5.355c-.038.131-.077.265-.111.4l-.027.092-.684,2.483c-1.614.085-3.229.158-4.843.1a40.284,40.284,0,0,1-10.033-2.076c-.9-.269-1.8-.534-2.714-.773q.138-1.28.284-2.56c.019-.181.038-.357.061-.538.012-.138.027-.273.046-.407.073-.642.142-1.28.215-1.922l.058-.488q.784-6.954,1.58-13.908c.023-.188.042-.377.065-.565.069-.63.142-1.261.211-1.891.019-.154.038-.308.054-.461q.675-5.922,1.345-11.836c.019-.165.035-.334.054-.5q.559-4.907,1.119-9.81l.069-.623c.154-1.365.311-2.733.465-4.1a109.983,109.983,0,0,0,11.128.953,125.816,125.816,0,0,1,14.373,1.2c.131.019.265.042.4.069" transform="translate(46.337 214.532)" fill="#fff"/>
            <path id="Trazado_1268137" data-name="Trazado 1268137" d="M39.45,82.13a79.153,79.153,0,0,1-13.835-3.817Q23.4,77.477,21.245,76.5l-.069.623A79.2,79.2,0,0,0,31.032,80.7,107.625,107.625,0,0,0,45.27,83.584c.046-.161.085-.319.127-.477q-2.981-.438-5.947-.976M23.017,87.27c-.988-.1-1.972-.215-2.956-.342l-.058.5a155.557,155.557,0,0,0,23.929,1.065c.046-.161.088-.331.135-.492a155.191,155.191,0,0,1-21.05-.73m-1.88,12.162q-1.24-.069-2.479-.169c-.015.154-.035.308-.05.461,3.006.215,6.016.354,9.045.354,4.344,0,8.684-.023,13.027-.042l.138-.488q-2.272.006-4.544.015c-5.039.015-10.1.154-15.138-.131m1.691,3.529c-1.5-.388-2.983-.826-4.436-1.342-.023.188-.042.373-.065.565a85.023,85.023,0,0,0,9.752,2.522q5.316,1.13,10.679,2.034c.046-.161.092-.327.142-.488-.838-.138-1.676-.288-2.514-.438-4.54-.819-9.091-1.691-13.558-2.852m-2.672,13.22c-1.142-.019-2.276-.05-3.41-.088l-.058.484c6.435.227,12.877.108,19.308-.154.042-.161.092-.331.138-.5-5.324.223-10.652.342-15.98.254m-3.729,2.729c-.023.181-.042.357-.062.534a88.217,88.217,0,0,0,17.99,2.825l.027-.092c.035-.131.073-.265.111-.4a85.832,85.832,0,0,1-14.2-1.914q-1.943-.432-3.867-.957" transform="translate(46.548 217.564)" fill="#65bfd7"/>
            <path id="Trazado_1268138" data-name="Trazado 1268138" d="M72.01,118.21c-.138-.161-.48-.135-.657-.088-4.344,1.149-8.726,2.26-13.254,2.03-4.205-.215-8.326-1.265-12.539-1.342a18.9,18.9,0,0,0-5.535.657.165.165,0,0,0,0-.062Q38.191,112.2,36,105.094q-2.2-7.138-4.759-14.169T25.779,77.014Q22.861,70.094,19.6,63.325q-3.246-6.729-6.827-13.3-.444-.813-.892-1.618c-.158-.288-1.1-.185-.926.131q3.6,6.5,6.877,13.185,3.287,6.712,6.239,13.581Q27,82.139,29.6,89.111t4.832,14.065q2.266,7.167,4.171,14.438l.4,1.568a.361.361,0,0,0-.277.165,31.75,31.75,0,0,0-2.253,7.784,12.436,12.436,0,0,0-.1,4.167,8.391,8.391,0,0,0,1.484,3.44c.2.265,1.126.138.926-.131a8.16,8.16,0,0,1-1.472-3.448,12.768,12.768,0,0,1,.119-4.028,31.087,31.087,0,0,1,1.891-6.854c3.959-1.507,8.218-.953,12.3-.373,2.1.3,4.2.611,6.32.73a28.205,28.205,0,0,0,3.467-.035q-3.367,2.531-6.731,5.055c-2.014,1.515-4.121,3.01-5.5,5.163-.185.288.75.411.93.131,1.376-2.149,3.521-3.633,5.528-5.139l7.046-5.293.031-.031c.577-.065,1.153-.146,1.726-.238,2.5-.411,4.947-1.057,7.388-1.7.169-.042.308-.181.173-.334" transform="translate(31.086 137.198)" fill="#b2752b"/>
            <path id="Trazado_1268139" data-name="Trazado 1268139" d="M34.833,55.123a59.678,59.678,0,0,0-16.422-9.891q-2.52-1.009-5.124-1.787c-.181-.054-.523-.073-.661.088s0,.284.173.334a58.9,58.9,0,0,1,16.994,8.242c1.449,1.023,2.856,2.114,4.209,3.26a.737.737,0,0,0,.657.088c.138-.042.346-.188.173-.334" transform="translate(35.751 123.447)" fill="#b2752b"/>
            <path id="Trazado_1268140" data-name="Trazado 1268140" d="M32.279,83.4a.809.809,0,0,0-.68,0c-6.366,2.944-12.947,5.916-19.989,6.689a28.187,28.187,0,0,1-5.889.046c-.165-.015-.519-.019-.6.173s.2.288.338.3c7.311.73,14.43-1.484,21.084-4.3,1.93-.815,3.829-1.684,5.731-2.564.181-.085.154-.254,0-.346" transform="translate(14.537 236.967)" fill="#b2752b"/>
            <path id="Trazado_1268141" data-name="Trazado 1268141" d="M17.009,80.978a.809.809,0,0,0-.68,0,25.928,25.928,0,0,0-5.7,3.267c-.181.135.042.292.169.334a.759.759,0,0,0,.661-.088,25.22,25.22,0,0,1,5.555-3.167c.192-.077.154-.258,0-.346" transform="translate(30.022 230.087)" fill="#b2752b"/>
            <path id="Trazado_1268142" data-name="Trazado 1268142" d="M22.9,64.86a.8.8,0,0,0-.68,0,32.614,32.614,0,0,0-10.394,7.692c-.3.331.623.477.83.246A32.129,32.129,0,0,1,22.9,65.206c.185-.085.158-.254,0-.346" transform="translate(33.45 184.244)" fill="#b2752b"/>
            <path id="Trazado_1268143" data-name="Trazado 1268143" d="M28.355,101.774c.565.384,1.138.765,1.711,1.142,8.234,5.382,26.428,15.791,34.15,4.89,5.259-7.423,8.753-16.475,12.508-24.728,1.422-3.125,2.46-6.831,4.444-9.529,1.684-2.295,1.861-4.69,2.948-7.269a20.046,20.046,0,0,1,1.745-2.971c4.62-7.123,6.912-16.068,4.732-24.271-1.3-4.882-4.059-9.226-6.777-13.481a42.953,42.953,0,0,0-6.1-8.072c-2.045-1.964-4.951-2.164-7.688-2.664-6.358-1.161-13.231-.973-19,2.226s-9.345,8.714-12.67,14.2c-1.507,2.491-3.529,4.344-5,6.869-1.96,3.36-3.813,6.785-5.662,10.21C23.658,55.815,19.453,63.1,15.478,70.641c-2.456,4.663-4.947,9.425-5.816,14.626-.819,4.913,3.94,6.262,7.365,8.564,3.829,2.572,7.511,5.351,11.328,7.942" transform="translate(27.214 40.29)" fill="#dd475d"/>
            <path id="Trazado_1268144" data-name="Trazado 1268144" d="M62.141,7.249a5.414,5.414,0,0,0-.542-.607,7.429,7.429,0,0,0-2.96-1.6,15.625,15.625,0,0,0-7.7-.427c-3.094.615-5.132,2.871-7.065,5.212a136.714,136.714,0,0,0-8.48,11.84,63.22,63.22,0,0,0-5.854,10.652,13.882,13.882,0,0,0-1.484,4.609,34.854,34.854,0,0,0,.634,6.619,11.818,11.818,0,0,0,.984,3.656,9.9,9.9,0,0,0,4.021,3.871c2.683,1.557,5.954,2.472,8.9,1.491,2.353-.784,4.159-2.649,5.816-4.49,5.877-6.523,10.84-13.285,13.9-21.607,1.864-5.082,3.521-11.709,1.165-16.879-.077-.169-.154-.334-.238-.5a10.587,10.587,0,0,0-1.084-1.837" transform="translate(79.733 12.283)" fill="#ffa87d"/>
            <path id="Trazado_1268145" data-name="Trazado 1268145" d="M87.382,5.874A19.644,19.644,0,0,0,77.288,3.2c-5.962.015-11.651,2.4-16.548,5.67-4.336,2.895-5.774,8.6-10.275,11.494-1.384.892-2.291,2.1-3.683,2.937-1.284.776-2.752,1.192-3.879,2.233-1.722,1.591-2.195,4.105-3.444,6.093-1.745,2.775-4.863,4.317-7.4,6.389a20.682,20.682,0,0,0-5.9,7.8,29.644,29.644,0,0,1-1.772,3.952A29.77,29.77,0,0,1,21.323,53.4c-1.8,2.068-3.229,4.79-2.645,7.469.365,1.68,1.488,3.148,1.7,4.855.265,2.183-1.007,4.217-1.941,6.208s-1.484,4.578-.031,6.231c.63.715,1.538,1.126,2.23,1.78a2.025,2.025,0,0,1,.565,2.545c4.3-2.256,8.93-4.578,13.762-4.075,2.575.269,5.22,1.33,7.661.469,2.879-1.015,4.255-4.267,6.646-6.166,2.21-1.753,5.155-2.253,7.592-3.675a13.912,13.912,0,0,0,5.4-6.208c1.3-2.8,1.907-5.981,3.859-8.376.807-.988,1.814-1.8,2.691-2.729C72.756,47.531,72.517,42,74.485,37a5.053,5.053,0,0,1,5.366-3.091,2.055,2.055,0,0,1,1.784,1.357c3.271-2.941,7.5-4.874,10.294-8.2,4.505-5.366,3.2-14.311-1.737-19.051a15.782,15.782,0,0,0-2.81-2.141" transform="translate(49.795 9.107)" fill="#231c20"/>
            <path id="Trazado_1268146" data-name="Trazado 1268146" d="M69.082,17.555l.023-.419a47.312,47.312,0,0,0-.173-7.669A2.508,2.508,0,0,0,68.7,8.5c-.65-1.184-3.191-.042-4.213.058a69.958,69.958,0,0,1-8.08.215c-2.748-.046-5.5-.023-8.245-.254A64.81,64.81,0,0,1,38.38,6.9q-2.364-.582-4.686-1.307a2.138,2.138,0,0,0-2.937.988,14.729,14.729,0,0,1-1.9,2.268,12.522,12.522,0,0,0-1.676,1.764c-1,1.434-.565,2.249.638,3.225a22.489,22.489,0,0,0,3.471,2.276,38.078,38.078,0,0,0,7.826,3.025,64.565,64.565,0,0,0,8.741,1.8c1.891.25,3.794.4,5.7.507,1.811.1,3.64.238,5.455.215,1.426-.015,2.848-.138,4.271-.211,1.307-.069,3.563.369,4.69-.477.884-.665,1.042-2.256,1.115-3.41" transform="translate(75.722 15.277)" fill="#fff"/>
            <path id="Trazado_1268147" data-name="Trazado 1268147" d="M63.684,12.171c-.135-.158-.484-.138-.657-.088a48.042,48.042,0,0,1-18.148,1.5,48.391,48.391,0,0,1-5.139-.85,1.961,1.961,0,0,0-.25-.035,45.817,45.817,0,0,1-5.374-2.549,22.872,22.872,0,0,1-5.439-4.167c-.211-.223-1.138-.073-.83.25a29.317,29.317,0,0,0,10.344,6.539,119.983,119.983,0,0,0,12.874,4.432Q54.9,18.3,58.8,19.16c.185.042.515.077.657-.088s0-.3-.173-.334a130.547,130.547,0,0,1-13.3-3.679c-1.3-.438-2.6-.884-3.9-1.357a49.833,49.833,0,0,0,16.187-.023,49.81,49.81,0,0,0,5.239-1.172c.169-.046.308-.177.173-.334" transform="translate(79.02 16.724)" fill="#65bfd7"/>
            <path id="Trazado_1268148" data-name="Trazado 1268148" d="M42.786,10.764c-2.256,3.1-2.921,6.942-3.906,10.563a23.781,23.781,0,0,1-2,5.309,14.723,14.723,0,0,1-8.957,7.046c-.165.046-.3.181-.169.338s.48.135.657.085a15.507,15.507,0,0,0,8.83-6.4c2.149-3.279,2.725-7.231,3.8-10.929a18.71,18.71,0,0,1,2.672-5.885c.2-.265-.73-.4-.926-.131" transform="translate(78.784 30.195)" fill="#395795"/>
            <path id="Trazado_1268149" data-name="Trazado 1268149" d="M35.6,14.111c-1.511,3.848-5.178,6.043-8.707,7.8-.181.092-.161.254,0,.35a.809.809,0,0,0,.68,0c3.613-1.8,7.407-4.078,8.953-8.019.138-.35-.807-.431-.926-.131" transform="translate(76.13 39.606)" fill="#395795"/>
            <path id="Trazado_1268150" data-name="Trazado 1268150" d="M41.959,11c-2.595,4.609-7.008,7.7-11.182,10.756C26.563,24.831,22.22,28.2,20.082,33.119a12.736,12.736,0,0,0-.88,8.211c.085.35,1.03.288.961,0-1.3-5.1,1.3-10.214,4.782-13.812,3.706-3.821,8.391-6.462,12.4-9.918a24.609,24.609,0,0,0,5.539-6.473c.173-.308-.761-.419-.923-.131" transform="translate(53.661 30.8)" fill="#395795"/>
            <path id="Trazado_1268151" data-name="Trazado 1268151" d="M21.314,17.217a11.514,11.514,0,0,0-1.061,7.761c.077.354,1.026.3.961,0a11.315,11.315,0,0,1,1.026-7.63c.169-.319-.773-.423-.926-.131" transform="translate(56.869 48.477)" fill="#395795"/>
            <path id="Trazado_1268152" data-name="Trazado 1268152" d="M31,19.929a9.481,9.481,0,0,1-7.93,7.842c-.142.019-.415.111-.334.3s.438.192.592.173a10.112,10.112,0,0,0,8.634-8.315c.05-.311-.907-.354-.961,0" transform="translate(64.608 55.968)" fill="#395795"/>
            <path id="Trazado_1268153" data-name="Trazado 1268153" d="M35.877,4.049a.8.8,0,0,0-.68,0c-2.606,1.269-5.6,3.437-5.251,6.727.038.35,1,.323.961,0-.327-3.141,2.483-5.166,4.97-6.381.185-.088.161-.25,0-.346" transform="translate(85.087 11.297)" fill="#395795"/>
            <path id="Trazado_1268154" data-name="Trazado 1268154" d="M31.9,5.148a4.581,4.581,0,0,0-1.2,3.375c.012.2.327.242.48.242.127,0,.5-.042.481-.242A4.259,4.259,0,0,1,32.73,5.394c.3-.327-.619-.477-.83-.246" transform="translate(87.295 14.326)" fill="#395795"/>
            <path id="Trazado_1268155" data-name="Trazado 1268155" d="M36.687,4.956c-.115-.3-1.065-.227-.926.131a10.6,10.6,0,0,1,.688,3.364c.008.2.334.242.48.242s.492-.042.484-.242a11.115,11.115,0,0,0-.727-3.494" transform="translate(101.663 13.568)" fill="#395795"/>
            <path id="Trazado_1268156" data-name="Trazado 1268156" d="M41.7,9.835a69.4,69.4,0,0,1-6.32,13.05c-.211.342.876.481,1.084.15a69.718,69.718,0,0,0,6.32-13.047c.15-.419-.957-.5-1.084-.154" transform="translate(100.555 27.349)" fill="#e06f63"/>
            <path id="Trazado_1268157" data-name="Trazado 1268157" d="M34.96,53.072a22.626,22.626,0,0,1-1.384-2.356c-.7-1.434-1.607-2.983-1.634-4.574,2.687.657,4.259,3.217,6.631,4.444a4.96,4.96,0,0,0,3.252.623c.554-.131,2.168-.734,2.072-1.442a1.041,1.041,0,0,0-.323-.546l-4.659-5.166a44.861,44.861,0,0,0-3.475-3.575,22.331,22.331,0,0,0-8.322-4.632,9.725,9.725,0,0,0-8.941,1.28,9.808,9.808,0,0,0-4.351,7.784c-.023,3.344,2,6.789,3.579,9.656a19.188,19.188,0,0,0,6.785,7.6c4.667,2.729,10.594,2.341,15.714.607a2.952,2.952,0,0,0,1.219-.653c.85-.876-.115-1.976-.665-2.706-.969-1.28-2.183-2.345-3.271-3.521a23.164,23.164,0,0,1-2.226-2.821" transform="translate(39.321 100.404)" fill="#ffa87d"/>
            <path id="Trazado_1268158" data-name="Trazado 1268158" d="M39.892,67.992a140.361,140.361,0,0,1-5.024-16.256Q33.519,46.2,32.619,40.565c-.469-2.948-.361-5.843-1.392-8.7A19.135,19.135,0,0,0,19.285,20.168c-6.55-2.06-10.525,4.155-11.44,9.979C6.83,36.613,8.9,43.136,11.2,49.264c5.1,13.627,9.795,27.342,18.866,38.94,4.663,5.958,12.5,11.121,16.541,1.5,1.43-3.406.054-6.681-1.538-9.645a99.993,99.993,0,0,1-5.174-12.062" transform="translate(21.558 56.212)" fill="#ffa87d"/>
            <path id="Trazado_1268159" data-name="Trazado 1268159" d="M28.977,56.943a4.226,4.226,0,0,0-.238-1.584c-.215-1.088-.415-2.183-.592-3.279q-.542-3.287-.861-6.608-.386-3.979-.454-7.98c-.008-.4-1.13-.4-1.122,0a100.737,100.737,0,0,0,2.122,18.9l-.234-.108c-.488-.246-.973-.5-1.445-.784a23.534,23.534,0,0,1-2.679-1.83,24.134,24.134,0,0,1-4.544-4.7.732.732,0,0,0-.692-.2c-.115.019-.542.15-.392.354a24.942,24.942,0,0,0,4.248,4.5,25.3,25.3,0,0,0,2.479,1.8c.446.281.9.55,1.361.8a7.472,7.472,0,0,0,2.291,1.061c.473.065.684-.088.753-.346" transform="translate(50.66 105.781)" fill="#e06f63"/>
            <path id="Trazado_1268160" data-name="Trazado 1268160" d="M26.12,48.083c-3.513-1.426-6.043-4.382-8.434-7.2-.231-.273-1.311-.115-.969.288,2.437,2.879,5.028,5.866,8.611,7.319a.935.935,0,0,0,.792,0c.181-.1.231-.311,0-.4" transform="translate(47.355 115.872)" fill="#e06f63"/>
            <path id="Trazado_1268161" data-name="Trazado 1268161" d="M20.619,45.141a16.058,16.058,0,0,1-3.733-3.606.744.744,0,0,0-.688-.2c-.115.019-.542.15-.392.354a16.515,16.515,0,0,0,3.844,3.74.9.9,0,0,0,.769.1c.142-.046.423-.238.2-.392" transform="translate(44.864 117.53)" fill="#e06f63"/>
            <path id="Trazado_1268162" data-name="Trazado 1268162" d="M18.512,25.916a8.826,8.826,0,0,0-5.547-3.706c-.188-.038-.6-.008-.688.2-.108.231.242.323.392.354a7.767,7.767,0,0,1,4.759,3.306.732.732,0,0,0,.692.2c.127-.019.53-.146.392-.354" transform="translate(34.858 63.127)" fill="#e06f63"/>
            <path id="Trazado_1268163" data-name="Trazado 1268163" d="M50,37.5c-1.115,5.239-1.634,10.721-2.837,15.868C45.8,59.219,43.457,64.931,41.992,70.8c-1.238,4.6-.561,11.382-4.136,14.934-2.549,2.537-6.789,2.868-10.025,1.307A11.013,11.013,0,0,1,25.14,85.2a15.035,15.035,0,0,1-3.959-6.285c-2.133-6.358-.892-13.527,0-20.012q.2-1.436.434-2.86.421-2.531.965-5.039a116.525,116.525,0,0,1,3.583-12.858c1.2-3.54,4.74-6.931,7.653-9.16A16.128,16.128,0,0,1,43.638,25.4a7.47,7.47,0,0,1,4.928,1.657,7.125,7.125,0,0,1,2.107,4.963A21.171,21.171,0,0,1,50,37.5" transform="translate(56.887 72.231)" fill="#ffa87d"/>
            <path id="Trazado_1268164" data-name="Trazado 1268164" d="M60.837,29.074c-.407-3.071-1.607-8.83-5.532-9.241a7.31,7.31,0,0,0-3.633.784,48.554,48.554,0,0,0-8.026,4.8q-3.967,2.733-7.938,5.474c-1.791,1.234-4.171,2.387-5.532,4.071-1.33,1.653-2.141,4.255-2.991,6.193-.815,1.864-8.461,20.354-6.154,21.323A75.455,75.455,0,0,0,32.545,65.93l9.837,2.387c1.2.292,4.1,2.18,5.259,1.768,1.557-.554,2.568-5.239,3.137-6.685Q53.7,55.94,56.37,48.378c2.214-6.262,5.359-12.6,4.467-19.3" transform="translate(58.588 56.333)" fill="#dd475d"/>
            <path id="Trazado_1268165" data-name="Trazado 1268165" d="M43.983,107.709c-.65,2.741-7.238,5.412-9.306,3.4a7.665,7.665,0,0,1-1.518-2.449,119.542,119.542,0,0,1-7.819-26.2c-1.584-8.049-2.748-16.21-4.194-24.244-1.515-8.438-2.929-19.877,7.384-22.9,2.921-.857,8.207-.211,10.444,2.11,2.829,2.933,2.11,9.5,1.987,13.166q-.219,6.66-.161,13.323.081,8.776.642,17.54.265,4.065.634,8.13.456,5.086,1.084,10.148c.288,2.356,1.38,5.616.823,7.972" transform="translate(57.138 99.414)" fill="#ffa87d"/>
            <path id="Trazado_1268166" data-name="Trazado 1268166" d="M23.815,62.364A14.82,14.82,0,0,0,27.732,67.6c1.465,1.292,3.3,2.306,4.5,3.875,2.041,2.672,1.076,6.627,2.837,9.2,2.664,3.89,3.782-3.867,3.794-5.42a45.281,45.281,0,0,0-3.533-17.333c-1.2-2.829-3.079-6.016-6.147-6.185a5.617,5.617,0,0,0-4.828,2.829,8.174,8.174,0,0,0-.538,7.8" transform="translate(65.627 147.119)" fill="#ffa87d"/>
            <path id="Trazado_1268167" data-name="Trazado 1268167" d="M22.924,44.1a12.227,12.227,0,0,1-1.345-6.081c.015-.334-.946-.346-.961,0a12.572,12.572,0,0,0,1.376,6.212c.15.292,1.092.192.93-.131" transform="translate(58.611 107.389)" fill="#e06f63"/>
            <path id="Trazado_1268168" data-name="Trazado 1268168" d="M24.2,52.682l-1.134,2.625c-.15.342.8.431.926.131l1.134-2.625c.15-.342-.8-.431-.926-.131" transform="translate(65.554 149.309)" fill="#e06f63"/>
            <path id="Trazado_1268169" data-name="Trazado 1268169" d="M27.373,56.652c-.085-.3-1.034-.246-.926.131A32.52,32.52,0,0,1,27.576,68.2c-.023.327.934.354.965,0a32.9,32.9,0,0,0-1.169-11.547" transform="translate(75.189 160.573)" fill="#e06f63"/>
            <path id="Trazado_1268170" data-name="Trazado 1268170" d="M30.053,23.815A206.522,206.522,0,0,0,22.4,45.849Q21.5,48.98,20.7,52.141c-.069.288.876.354.965,0a205.374,205.374,0,0,1,6.919-22.126q1.147-3.05,2.391-6.07c.146-.346-.8-.431-.926-.131" transform="translate(58.874 67.208)" fill="#993741"/>
            <path id="Trazado_1268171" data-name="Trazado 1268171" d="M31.681,50.062l-7.046.246a2.566,2.566,0,1,1-.181-5.128l7.046-.246a2.566,2.566,0,1,1,.181,5.128" transform="translate(62.504 127.789)" fill="#fff"/>
            <path id="Trazado_1268172" data-name="Trazado 1268172" d="M30.64,35.18l-.311,1.914a1.6,1.6,0,0,1-1.83,1.318L20.423,37.1q.421-2.531.969-5.043l7.93,1.292a1.593,1.593,0,0,1,1.318,1.83" transform="translate(58.083 91.176)" fill="#fff"/>
          </g>
        </g>
      </g>
    </g>
  </g>
</svg>
