<svg xmlns="http://www.w3.org/2000/svg" xmlns:xlink="http://www.w3.org/1999/xlink" width="85" height="85" viewBox="0 0 85 85">
  <defs>
    <clipPath id="clip-path">
      <rect id="Rectángulo_459147" data-name="Rectángulo 459147" width="65" height="70.694" fill="#8d1939"/>
    </clipPath>
  </defs>
  <g id="Grupo_1208097" data-name="Grupo 1208097" transform="translate(-705.629 -410)">
    <path id="Sustracción_110" data-name="Sustracción 110" d="M15975.961,19829.512h85v85h-85Z" transform="translate(-15270.332 -19419.512)" fill="#ffe19a"/>
    <g id="Grupo_1208992" data-name="Grupo 1208992" transform="translate(715.629 417)">
      <g id="Grupo_1208991" data-name="Grupo 1208991" clip-path="url(#clip-path)">
        <path id="Trazado_1268317" data-name="Trazado 1268317" d="M.081,50.547c.52-4.914,4.6-7.118,9.085-7.62.121-1.494-.277-2.789.077-4.275.912-3.834,5.552-5.4,8.254-7.788a20.319,20.319,0,0,1,4.423-16c-.314-1.228-1.022-2.186-1.33-3.458C18.947,4.622,22.868-.441,29.944.031,33.011.236,35.1,1.823,37.9,2.6c3.362.935,6.9,1.171,10.273,2.281a22.753,22.753,0,0,1,9.408,5.775l-1.34,1.3a25.635,25.635,0,0,0-10.358-5.6c-2.992-.8-6.229-1.037-9.2-1.939-1.565-.475-2.806-1.3-4.307-1.768C26.751.917,21.764,3.2,22.357,9.643c.472,5.132,6.782,9.98,11.138,11.964l1.435-3.128,2,.585c-1.046,2.662-2.485,4.817-2.639,7.784a7.838,7.838,0,0,0,4.38,7.782c1.353.581.876.009,1.6-.586,6.574-5.4,12.519,4.057,6.915,9.445-1.281,1.232-2.4.687-1.814,3.072.25,1.016,1.949,3.412,3.014,3.477.7.044,4.823-2.482,5.621-3.07,10.186-7.5,11.955-23.764,3.588-33.273l1.8-1.312a53.577,53.577,0,0,1,3.219,5.188c4.808,10.13,2.2,23.341-6.558,30.439a66.2,66.2,0,0,1-5.917,3.743l2.633,6.132c5.738,1.576,9.961,6.7,9.466,12.808H20.328l10.221-8.508c.183-2.887-.5-5.816-.7-8.7l-4.215.646c-.172,1.808-1,3.616-2.909,4.076a25.535,25.535,0,0,1-8.373-.259c-3.469-1.172-4.488-4.092-4.551-7.5a3.27,3.27,0,0,0-2.427.5V70.694H.081V60.165H2.308v8.5H5.345V50.345a7.583,7.583,0,0,1,.7-1.123c1.077-1.123,4.259-.861,5.78-1.206.164,2.624-.337,5.976,2.246,7.575,1.407.871,5.9.944,7.556.709.9-.128,1.878-.768,1.74-1.8H20.43a12.777,12.777,0,0,1-1.911-.924c-2.967-2.082-1.947-6.737-2.483-9.868-1.236-1.545-3.937-3.037-2.192-5.311,1.128-1.471,5.1-2.571,3.747-4.956-2.1,1.64-6.037,3.219-6.374,6.176-.193,1.687.407,3.312.115,4.975-2.7.851-5.83.555-7.8,2.928a8.641,8.641,0,0,0-1.22,2.222v8.4H.081c.187-2.428-.252-5.21,0-7.593m37.862-14.07c-4.253-1.848-5.948-5.7-5.665-10.224.042-.663.551-2.036.31-2.532a40,40,0,0,1-9.421-7.291,26.125,26.125,0,0,0-3.028,5.986c-.785,2.622-1.239,7.063-.047,9.538,1.615,3.351,4.355,6.245,5.1,9.989ZM23.366,46.6V42.853a18.29,18.29,0,0,0-1.038-3.012c-.649-1.359-1.8-2.794-2.506-4.172-.716,1.812-2.793,2.51-3.954,3.734-1.228,1.3,1.836,2.074,2.192,3.288.754,3.928-1.255,11.18,5.305,9.577V49.13c.534-.576,1.5-.212,2.227-.3v3.037a8.01,8.01,0,0,0,1.088-.025A54.892,54.892,0,0,0,34.967,50.4c1.718-.668,2.042-2.567,2.169-4.211l2.039.538c-.12,4.453-3.2,6.2-7.3,6.348l1.016,9.98L26.2,68.467H60.014c-1.241-9.629-14.068-11.851-19.74-4.491l-1.516-.984c2.168-3.878,7.22-5.743,11.536-5.46l-2.046-4.938C45.5,51,43.2,48.763,43.12,45.371l-1.734-.393.6-1.94a4.567,4.567,0,0,0,5.254-3.847c.8-5.709-5.423-6.012-7-1.284l-14.32,6.08c-.677.3-.133,2.423-.323,2.613Z" transform="translate(0 0)" fill="#8d1939"/>
        <path id="Trazado_1268318" data-name="Trazado 1268318" d="M108.625,121.282c.785,1.45,2.527,1.9,4.054,2.226l.026,2a7.555,7.555,0,0,1-4.551-1.626c-.295-.23-1.782-1.553-1.4-1.826Z" transform="translate(-85.088 -96.725)" fill="#8d1939"/>
        <path id="Trazado_1268319" data-name="Trazado 1268319" d="M114.9,155.756l-.527,2.038c-.657-.153-3.758-.473-3.915-.953l.191-1.692Z" transform="translate(-88.096 -123.734)" fill="#8d1939"/>
      </g>
    </g>
  </g>
</svg>
