<svg xmlns="http://www.w3.org/2000/svg" xmlns:xlink="http://www.w3.org/1999/xlink" width="187.711" height="127.653" viewBox="0 0 187.711 127.653">
  <defs>
    <clipPath id="clip-path">
      <rect id="Rectángulo_459317" data-name="Rectángulo 459317" width="90.128" height="102.051" fill="none"/>
    </clipPath>
  </defs>
  <g id="Grupo_1209820" data-name="Grupo 1209820" transform="translate(-185.711 -9648)">
    <g id="Grupo_1205327" data-name="Grupo 1205327" transform="translate(-103.566 779.961)">
      <g id="Grupo_1204518" data-name="Grupo 1204518" transform="translate(289.277 8868.039)">
        <rect id="Rectángulo_455283" data-name="Rectángulo 455283" width="187.711" height="127.653" rx="19" fill="#e9c3ff"/>
      </g>
    </g>
    <g id="Grupo_1209067" data-name="Grupo 1209067" transform="translate(234.711 9661)">
      <g id="Grupo_1209066" data-name="Grupo 1209066" clip-path="url(#clip-path)">
        <path id="Trazado_1268613" data-name="Trazado 1268613" d="M126.364,5.21c-.01.622,0,1.25,0,1.871l33.193-.009a2.387,2.387,0,0,1,1.983,1.133l.345,54.962c.62-.015,1.251.022,1.871,0v3.428c-.622-.01-1.25,0-1.871,0l0,25.241H111.1l0-20.255c-.621.006-1.249-.008-1.871,0V68.152a30.511,30.511,0,0,0,6.922-1.023c2.28-.617,6.137-2.844,7.871-3.035,1.565-.172,4.479.447,6.194.675,3.765.5,7.525,1.256,11.28,1.841,1.676-.222,1.854-1.43,1.621-2.9-.774-4.887-4.568-12.167-4.9-16.623-.106-1.42,1.259-5.026,1.511-6.857a32.735,32.735,0,0,0-14.946-31.72c-2.119-1.319-4.313-2.182-6.517-3.3,2.567.252,5.49-.185,8.1,0m31.315,5.3c-1.318-.376-4.236.276-5.764,0,.092.559-.127,3.3,0,3.429.142.142,2.977-.145,3.119,0,.262.262-.523,3.048.509,3.385.627.205,2.953.239,3.185-.467.323-.985.279-5.966-1.047-6.344M122.543,71.653c-4.84,1.034-5.255,6.21-4.9,10.36.337,3.927,2.291,6.366,6.372,6.715,8.16.7,17.3-.545,25.562-.01a6.456,6.456,0,0,0,5.76-6.08c.473-4.72.1-10.547-5.748-11.071-8.571-.767-18.351.537-27.047.087" transform="translate(-75.192 -3.554)" fill="#ffe19a"/>
        <path id="Trazado_1268614" data-name="Trazado 1268614" d="M11.161,28.074c.591.255,1.125.757,1.846.6C19.78,12.426,40.169,6.122,55.069,15.792,66.825,23.423,71.18,37.8,66.322,50.944L70.985,66.71,55.25,64.5C35.62,76.758,9.432,62.148,10.541,38.827c.069-1.438,1.2-5.936.954-6.825-.054-.189-.993-.413-1.269-.5Zm29.913-13.4H37.646v8.413h3.428ZM25.381,20.307c-.577.605-2.257,1.717-2.035,2.563.135.514,4.44,4.707,5.046,4.548.329-.086,2.129-1.9,2.066-2.261-.06-.346-4.73-4.91-5.076-4.85m28.043,0a39.854,39.854,0,0,0-4.85,4.85c-.064.365,1.737,2.175,2.066,2.261.606.159,4.91-4.033,5.045-4.548.181-.688-1.816-2.641-2.261-2.563m-.129,30.759c-.352-.61.04-9.488-.109-11.267-1.5-17.859-25.9-17.267-27.375-.658-.187,2.106.421,10.878-.294,11.858-.253.347-1.105.688-1.579,1.226-1.588,1.805-3.013,7.958.46,8.261l30.784-.075c1.688-.1,1.351-4.681,1.089-5.936-.477-2.291-2.586-2.733-2.976-3.409" transform="translate(-7.04 -7.723)" fill="#faeeec"/>
        <path id="Trazado_1268615" data-name="Trazado 1268615" d="M43.07,1.656c2.2,1.115,4.4,1.98,6.517,3.3a32.737,32.737,0,0,1,14.946,31.72c-.252,1.831-1.617,5.437-1.511,6.857.332,4.456,4.126,11.736,4.9,16.623.233,1.472.055,2.679-1.621,2.9-3.755-.584-7.515-1.339-11.28-1.84-1.716-.229-4.629-.848-6.194-.675-1.733.191-5.591,2.417-7.871,3.035A30.546,30.546,0,0,1,34.034,64.6c-19.266.79-35.263-15-33.959-34.427.067-1,.817-5.937,1.208-6.524.295-.443,1.481,0,1.9.132.276.087,1.216.31,1.269.5.251.889-.885,5.388-.954,6.825C2.393,54.425,28.581,69.036,48.21,56.78l15.735,2.207L59.282,43.221c4.859-13.14.5-27.521-11.253-35.151C33.13-1.6,12.741,4.7,5.967,20.954c-.72.154-1.255-.348-1.846-.6-.284-.122-1.124-.2-1.218-.339-.491-.7,1.718-4.274,2.212-5.055A32.7,32.7,0,0,1,35.432.1c2.606.2,5.226,1.317,7.638,1.554" transform="translate(0 0)" fill="#040505"/>
        <path id="Trazado_1268616" data-name="Trazado 1268616" d="M160.278,202.306c.519.008,1.042-.01,1.56,0l.006,34.128a5.759,5.759,0,0,1-5.148,4.823c-16.264-.248-32.672.5-48.855-.379a5.842,5.842,0,0,1-3.665-4.748l.014-28.839c.518-.008,1.041.01,1.56,0,.622-.01,1.25,0,1.871,0l0,20.255h50.79l0-25.241c.621.006,1.249-.008,1.871,0m-1.87,28.666h-50.79v5.141c0,.713,1.784,2.01,2.634,1.729l45.826-.008c.577.216,2.33-1.116,2.33-1.409Z" transform="translate(-71.716 -139.266)" fill="#040505"/>
        <path id="Trazado_1268617" data-name="Trazado 1268617" d="M164.218,1.844c.008-.519-.01-1.042,0-1.56l33.51-.011a5.8,5.8,0,0,1,5.293,4.054l.153,55.292c-.054.341-1.17.165-1.564.18-.621.024-1.251-.013-1.871,0L199.392,4.84a2.388,2.388,0,0,0-1.983-1.133l-33.193.009c.006-.621-.008-1.249,0-1.871" transform="translate(-113.046 -0.189)" fill="#040505"/>
        <path id="Trazado_1268618" data-name="Trazado 1268618" d="M140.926,217.814c8.7.451,18.476-.853,27.047-.087,5.851.524,6.222,6.351,5.748,11.071a6.456,6.456,0,0,1-5.76,6.081c-8.266-.535-17.4.709-25.563.01-4.081-.349-6.035-2.788-6.372-6.715-.356-4.15.059-9.326,4.9-10.36m.615,3.419a2.9,2.9,0,0,0-1.715,1.4,39.211,39.211,0,0,0-.07,6.485c.174,1.492.8,1.815,2.17,2.192,7.94-.445,17.68,1.069,25.419.146a4.009,4.009,0,0,0,2-.8c1.434-1.322,1.838-8.888-1.139-9.42Z" transform="translate(-93.576 -149.715)" fill="#040505"/>
        <path id="Trazado_1268619" data-name="Trazado 1268619" d="M251.9,22.049c1.326.378,1.37,5.36,1.047,6.344-.232.707-2.558.672-3.185.467-1.032-.338-.247-3.124-.509-3.385-.142-.142-2.977.145-3.119,0-.125-.125.093-2.87,0-3.429,1.528.276,4.446-.376,5.764,0" transform="translate(-169.413 -15.096)" fill="#040505"/>
        <path id="Trazado_1268620" data-name="Trazado 1268620" d="M79.867,84.925c.39.676,2.5,1.118,2.976,3.409.261,1.255.6,5.835-1.089,5.936l-30.784.075c-3.472-.3-2.048-6.456-.46-8.261.473-.538,1.326-.879,1.579-1.226.715-.98.107-9.752.294-11.858,1.476-16.609,25.876-17.2,27.375.658.149,1.779-.243,10.657.109,11.267m-3.5-.868V73.619c0-8.031-9.992-12.606-16.358-7.945C58.3,66.93,55.8,70.552,55.8,72.684V84.057Zm3.116,6.855c.182-1.942-.351-3.115-2.366-3.4-6.559-.925-15.029.643-21.8-.043-1.948-.048-3.051,1.6-2.945,3.442Z" transform="translate(-33.611 -41.582)" fill="#040505"/>
        <rect id="Rectángulo_459315" data-name="Rectángulo 459315" width="3.428" height="8.413" transform="translate(30.606 6.953)" fill="#040505"/>
        <path id="Trazado_1268621" data-name="Trazado 1268621" d="M54.323,40.385c.346-.06,5.016,4.5,5.076,4.85.064.365-1.737,2.175-2.065,2.261-.606.16-4.911-4.034-5.046-4.547-.222-.846,1.458-1.958,2.035-2.563" transform="translate(-35.982 -27.801)" fill="#040505"/>
        <path id="Trazado_1268622" data-name="Trazado 1268622" d="M138.144,40.381c.445-.078,2.442,1.876,2.261,2.563-.136.515-4.439,4.707-5.045,4.547-.329-.086-2.129-1.9-2.066-2.261a39.857,39.857,0,0,1,4.85-4.85" transform="translate(-91.76 -27.797)" fill="#040505"/>
        <path id="Trazado_1268623" data-name="Trazado 1268623" d="M166.016,294.314v5.453c0,.293-1.753,1.625-2.33,1.409l-45.826.008c-.849.281-2.634-1.015-2.634-1.729v-5.141Z" transform="translate(-79.322 -202.608)" fill="#eabb5d"/>
        <path id="Trazado_1268624" data-name="Trazado 1268624" d="M149.775,229.524h26.666c2.977.532,2.572,8.1,1.139,9.42a4.009,4.009,0,0,1-2,.8c-7.739.923-17.479-.591-25.419-.146-1.374-.377-2-.7-2.17-2.192a39.21,39.21,0,0,1,.07-6.485,2.9,2.9,0,0,1,1.715-1.4" transform="translate(-101.81 -158.006)" fill="#eabb5d"/>
        <path id="Trazado_1268625" data-name="Trazado 1268625" d="M91.791,91.568H71.226V80.195c0-2.132,2.491-5.753,4.207-7.01C81.8,68.524,91.791,73.1,91.791,81.13ZM86.5,76.3H83.065v3.431H86.5Z" transform="translate(-49.033 -49.093)" fill="#ff9ebf"/>
        <path id="Trazado_1268626" data-name="Trazado 1268626" d="M87.319,150.14H60.211c-.106-1.841,1-3.49,2.945-3.442,6.768.686,15.238-.881,21.8.043,2.015.284,2.548,1.457,2.366,3.4" transform="translate(-41.445 -100.811)" fill="#ff9ebf"/>
        <rect id="Rectángulo_459316" data-name="Rectángulo 459316" width="3.431" height="3.431" transform="translate(34.032 27.205)" fill="#040505"/>
      </g>
    </g>
  </g>
</svg>
