<svg xmlns="http://www.w3.org/2000/svg" xmlns:xlink="http://www.w3.org/1999/xlink" width="69" height="69" viewBox="0 0 69 69">
  <defs>
    <clipPath id="clip-path">
      <rect id="Rectángulo_459156" data-name="Rectángulo 459156" width="37.044" height="41.302" fill="#fff"/>
    </clipPath>
  </defs>
  <g id="Grupo_1208199" data-name="Grupo 1208199" transform="translate(-616.566 -749.381)">
    <circle id="Elipse_13676" data-name="Elipse 13676" cx="34.5" cy="34.5" r="34.5" transform="translate(616.566 749.381)" fill="#6a2874"/>
    <g id="Grupo_1209002" data-name="Grupo 1209002" transform="translate(632.567 762.381)">
      <g id="Grupo_1209001" data-name="Grupo 1209001" clip-path="url(#clip-path)">
        <path id="Trazado_1268337" data-name="Trazado 1268337" d="M34.954,17.39a2.643,2.643,0,0,0-2.863.451c-1.293,1.235-.585,4.257-.806,5.952-.464,3.55-2.428,7.774-3.021,11.4a1.387,1.387,0,0,1-2.468.513c-.622-.973-.113-3.081-.733-4.466a3.605,3.605,0,0,0-4.993-1.512c-1.128.644-3.4,3.721-4.213,3.974-1.3.4-2.113-.438-1.726-1.726a50.106,50.106,0,0,1,2.69-5.367c4.206-8.371,8.5-16.753,13-24.954A5.512,5.512,0,0,1,33.085.121C34.832-.054,40.493-.1,42,.4a5.113,5.113,0,0,1,2.88,2.578,60.277,60.277,0,0,1,2.75,8.427,1.428,1.428,0,0,1,.058.525l-.778.132A2.435,2.435,0,0,0,43.4,9.982a2.473,2.473,0,0,0-4.941,0,2.521,2.521,0,0,0-2.857.456,7.943,7.943,0,0,0-.651,1.039ZM35.6,2.963a7.323,7.323,0,0,0-3.382.713c-2.06,1.052-2.411,2.583-3.051,4.616-1.963,6.23-3.475,12.614-5.465,18.839l-.054.52,1.1.271.3-.223L31.2,6.687a4.3,4.3,0,0,1,4.4-2.293Z" transform="translate(-12.21 -0.001)" fill="#fff"/>
        <path id="Trazado_1268338" data-name="Trazado 1268338" d="M166.717,83.516h1.43V72.534c0-.318.638-.709.977-.724.309-.013,1.1.345,1.1.594V83.516h1.43V74.743a1.979,1.979,0,0,1,.6-.7c.875-.464,1.512.232,1.608,1.088.423,3.747-.316,8.258,0,12.087.071.891-1.43,1.994-1.43,2.729v4.874H161.779V92.548c0-2.451-2.8-4.7-3.876-6.651-.572-1.034-.534-4.18-.418-5.442.09-.981,1.041-1.693,1.834-.912a1.969,1.969,0,0,1,.382.658v4.744H161V72.794a1.2,1.2,0,0,1,1.815-.775,3.9,3.9,0,0,1,.394.646V82.736h1.43V70.325a3.524,3.524,0,0,1,.522-.517c.536-.228,1.557.072,1.557.647Z" transform="translate(-136.956 -60.668)" fill="#fff"/>
        <rect id="Rectángulo_459152" data-name="Rectángulo 459152" width="13.516" height="5.718" transform="translate(23.393 35.584)" fill="#fff"/>
        <path id="Trazado_1268339" data-name="Trazado 1268339" d="M147.018,209.735c-1.124-.141-1.571.306-1.43,1.43-.909.044-1.5.053-2.058-.737a24.933,24.933,0,0,1-1.393-2.77,1.253,1.253,0,0,1-.03-.55c.154-1.586,1.139-3.666,1.4-5.3l3.052,4.158a8.43,8.43,0,0,1,.456,3.769" transform="translate(-123.623 -175.579)" fill="#fff"/>
        <rect id="Rectángulo_459153" data-name="Rectángulo 459153" width="9.227" height="1.43" transform="translate(0 6.472)" fill="#fff"/>
        <rect id="Rectángulo_459154" data-name="Rectángulo 459154" width="4.939" height="1.43" transform="translate(11.307 1.534)" fill="#fff"/>
        <rect id="Rectángulo_459155" data-name="Rectángulo 459155" width="4.809" height="1.43" transform="translate(6.368 11.541)" fill="#fff"/>
      </g>
    </g>
  </g>
</svg>
