<svg xmlns="http://www.w3.org/2000/svg" xmlns:xlink="http://www.w3.org/1999/xlink" width="397" height="315.073" viewBox="0 0 397 315.073">
  <defs>
    <clipPath id="clip-path">
      <rect id="Rectángulo_459139" data-name="Rectángulo 459139" width="336" height="252.278" fill="none"/>
    </clipPath>
    <clipPath id="clip-path-2">
      <rect id="Rectángulo_459138" data-name="Rectángulo 459138" width="336" height="252.279" fill="none"/>
    </clipPath>
    <clipPath id="clip-path-3">
      <rect id="Rectángulo_459137" data-name="Rectángulo 459137" width="0.507" height="18.63" fill="none"/>
    </clipPath>
  </defs>
  <g id="Grupo_1208185" data-name="Grupo 1208185" transform="translate(-185.422 -6737.594)">
    <g id="Grupo_1208984" data-name="Grupo 1208984">
      <path id="Trazado_1266782" data-name="Trazado 1266782" d="M0,0H397V315.073H0Z" transform="translate(185.422 6737.594)" fill="#fff5d4"/>
      <g id="Grupo_1208983" data-name="Grupo 1208983" transform="translate(216.422 6769.594)">
        <g id="Grupo_1208982" data-name="Grupo 1208982" clip-path="url(#clip-path)">
          <g id="Grupo_1208981" data-name="Grupo 1208981" transform="translate(0 -0.001)">
            <g id="Grupo_1208980" data-name="Grupo 1208980" clip-path="url(#clip-path-2)">
              <path id="Trazado_1268217" data-name="Trazado 1268217" d="M234.062,52.219c-4.4,4.429-10.118,7.766-14.112,12.455-4.246,4.987-5.725,2.153-11.3-.074a13.722,13.722,0,0,0-5.259-.72c-10.94.112-21.616,3.475-31.62,7.906-16.449,7.283-31.434,17.447-46.315,27.555-8.548,5.8-17.1,11.607-25.432,17.709C79.215,132.277,59,149.719,34.213,156.823c-4.363,1.252-9.805,3.281-9.981,7.817C24,170.6,33.849,176.11,38.452,178.065c9.449,4.017,20.781-.079,28.128-7.252,2.848-2.777,5.284-6,8.451-8.41,3.592-2.729,7.924-4.266,12.134-5.883,11.361-4.36,22.741-9.866,30.638-19.127.639-.748,1.385-1.588,2.37-1.606,1.469-.028,2.271,1.723,2.39,3.184.415,5.03-2.584,9.67-5.794,13.565A86.216,86.216,0,0,1,76.29,179.779c-2.958.927-6.132,1.792-8.232,4.073s-2.367,6.534.311,8.095c1.624.947,3.668.593,5.511.96,4.124.822,6.628,5.025,10.332,7.02,3.767,2.031,8.474,1.548,12.409-.14s7.288-4.452,10.7-7.031c12.921-9.764,27.71-17.617,37.676-30.38,2.848-3.648,5.1-7.7,8.525-10.788a51.551,51.551,0,0,1,10.9-7.6c6.669-3.464,13.822-5.613,20.814-8.278s13.28-7.059,19.437-11.243a69.616,69.616,0,0,0,10.63-8.278,47.209,47.209,0,0,0,6.542-8.573c1.815-2.955,4.012-6.234,5.221-9.457,1.247-3.329,2.128-6.532,4-9.617a34.162,34.162,0,0,1,6.692-7.978,2.933,2.933,0,0,1,2.586-1,1.948,1.948,0,0,1,1.245,1.634,4.266,4.266,0,0,1-.367,2.115c-1.672,4.269-5.794,7.11-10.047,8.823-.921.372-2.013.389-1.968,1.38a1.631,1.631,0,0,0,1.591,1.329,12.23,12.23,0,0,0,2.243-.255,1.43,1.43,0,0,1,1.275.354c.367.451.163,1.115-.066,1.647q-.725,1.672-1.576,3.281c-.183.354-.489.781-.349,1.2.1.3.547.715.9.608.265-.079.5-.593.654-.812a24.982,24.982,0,0,0,1.382-2.334,13.475,13.475,0,0,1,3.111-4.322,1.8,1.8,0,0,1,.713-.392.746.746,0,0,1,.746.221,1.007,1.007,0,0,1,.168.57,9.234,9.234,0,0,1-.148,1.907,16.067,16.067,0,0,1-1.94,6.539c-.293.453-1.125,1.41-.351,1.828a.947.947,0,0,0,.914-.069,2.132,2.132,0,0,0,.647-.692c1.061-1.644,1.237-3.694,1.94-5.519a9.993,9.993,0,0,1,1.614-2.767,1.5,1.5,0,0,1,.825-.6c.6-.1,1.095.476,1.326,1.039a6.7,6.7,0,0,1-.084,4.549c-.471,1.476-1.189,2.866-1.634,4.348a.693.693,0,0,0-.043.267.474.474,0,0,0,.461.382,1.041,1.041,0,0,0,.606-.211,4.119,4.119,0,0,0,1.385-1.764,30.933,30.933,0,0,0,1.324-5,5.668,5.668,0,0,1,.927-2.067,2.566,2.566,0,0,1,1.942-1.046,1.307,1.307,0,0,1,.832.265,1.834,1.834,0,0,1,.5,1.163,19.062,19.062,0,0,1-.59,8.616,2.391,2.391,0,0,0,1.733-.647,7.154,7.154,0,0,0,2.4-4.465,30.454,30.454,0,0,1,.456-3.826,12.8,12.8,0,0,1,2.446-4.931c7.82-9.067,19.9-12.9,29.685-19.211,4.228-2.726,8.011-4.9,10.116-9.762a14.105,14.105,0,0,0,1.245-5.923,15.663,15.663,0,0,0-1.759-6.412c-3.062-6.244-8.731-10.969-15.09-13.786s-13.379-3.851-20.331-4.024a9.043,9.043,0,0,0-5.223.985,11.426,11.426,0,0,0-2.4,2.5,27.529,27.529,0,0,1-11.259,8.163c-1.823.708-3.307,1.237-4.281,2.953a24.179,24.179,0,0,1-4.142,4.834" transform="translate(37.445 50.655)" fill="#ffe19a"/>
              <path id="Trazado_1268218" data-name="Trazado 1268218" d="M54.805,55.545c-1.5,1.067-2.943,2.517-4.668,3.187-1.545.6-3.131.927-4.658,1.66a51.953,51.953,0,0,1-10.633,4.042A30.936,30.936,0,0,1,19.634,64.1,33.492,33.492,0,0,0,13,62.473,17.382,17.382,0,0,0,6.36,63.606c-2.9.98-6.02,3.467-5.025,6.929A10.607,10.607,0,0,0,7.8,77.212c4.775,1.7,10.144-.214,15.1.848,5.078,1.087,9.464,4.814,13.165,8.288A54.958,54.958,0,0,1,46.039,98.91a33.8,33.8,0,0,0,2.657,4.261,16.251,16.251,0,0,0,10.157,5.559,31.043,31.043,0,0,0,11.753-.687,57.779,57.779,0,0,0,15.912-6.163c4.964-2.823,8.785-6.957,14.934-4.653a47.319,47.319,0,0,1,6.84,3.755,39.623,39.623,0,0,0,18.727,5.282c4.961.125,9.808.053,12.5-4.844a16.4,16.4,0,0,0,1.756-7.558c.209-9.238-4.142-18.083-10-25.231A58.932,58.932,0,0,0,111.14,52.783a62.659,62.659,0,0,0-36.217-5.531,47.608,47.608,0,0,0-20.117,8.293" transform="translate(1.771 71.955)" fill="#ffe19a"/>
              <path id="Trazado_1268219" data-name="Trazado 1268219" d="M61.9,73.267c3.655,1.67,7.583,2.764,11.047,4.8a9.089,9.089,0,0,1,2.54,2.031c1.428,1.759,1.677,4.172,1.777,6.435a15.053,15.053,0,0,1-.221,4.032,5.754,5.754,0,0,1-2.054,3.391,7.255,7.255,0,0,1-5.333.876A20.324,20.324,0,0,1,57.1,87.889c-1.263-1.5-2.367-3.23-4.091-4.154a9.443,9.443,0,0,0-3.177-.9c-2.082-.29-4.2-.356-6.254-.787a10,10,0,0,1-5.506-2.843,8.683,8.683,0,0,1-2.021-5.116,10.085,10.085,0,0,1,3.839-8.907c2.349-1.693,5.394-2.1,8.288-2.016a5.852,5.852,0,0,1,5.246,3.019,16.317,16.317,0,0,0,4.875,5.1,25.578,25.578,0,0,0,3.6,1.985" transform="translate(55.659 97.61)" fill="#379799"/>
              <path id="Trazado_1268220" data-name="Trazado 1268220" d="M61.9,71.939c3.655,1.672,7.583,2.767,11.047,4.8a9.089,9.089,0,0,1,2.54,2.031c1.428,1.759,1.677,4.172,1.777,6.435a15.053,15.053,0,0,1-.221,4.032,5.746,5.746,0,0,1-2.054,3.391,7.255,7.255,0,0,1-5.333.876A20.324,20.324,0,0,1,57.1,86.561c-1.263-1.5-2.367-3.23-4.091-4.154a9.443,9.443,0,0,0-3.177-.9c-2.082-.29-4.2-.356-6.254-.787a10,10,0,0,1-5.506-2.843,8.682,8.682,0,0,1-2.021-5.114,10.089,10.089,0,0,1,3.839-8.909c2.349-1.693,5.394-2.1,8.288-2.016A5.859,5.859,0,0,1,53.42,64.86a16.309,16.309,0,0,0,4.875,5.094,25.581,25.581,0,0,0,3.6,1.985" transform="translate(55.659 95.557)" fill="#0e1b47"/>
              <path id="Trazado_1268221" data-name="Trazado 1268221" d="M72.716,53.431c-.364,4.422-2.589,8.438-4.62,12.384A175.64,175.64,0,0,0,54.72,100.332a4.1,4.1,0,0,1-.779,1.744,3.438,3.438,0,0,1-1.446.837c-5.048,1.767-10.709-.1-15.166-3.052a.826.826,0,0,1-.387-.415.861.861,0,0,1,.109-.57c5.468-12.229,1.344-26.9,5.791-39.531A30.958,30.958,0,0,1,63.614,40.072c6.97-1.881,9.528,8.179,9.1,13.359" transform="translate(57.066 61.575)" fill="#633c0b"/>
              <path id="Trazado_1268222" data-name="Trazado 1268222" d="M30.2,84.682a36.539,36.539,0,0,1-9.316,2.212c1.728,1.3,3.088,3.034,4.745,4.427,3.319,2.792,7.629,4.065,11.409,6.2a28.082,28.082,0,0,1,7.239,5.862,9.191,9.191,0,0,0,2.978,2.645,1.454,1.454,0,0,0,1.018.12,1.7,1.7,0,0,0,.619-.458,12.226,12.226,0,0,0,2.22-2.927c.55-1.072.855-2.25,1.382-3.329,1.209-2.484,3.482-4.274,5.809-5.766a39.472,39.472,0,0,1-.326-6.7,12.28,12.28,0,0,0-1.565-6.448,6.715,6.715,0,0,0-7.718-2.574c-3.951,1.395-7.843,2.966-11.783,4.388q-3.345,1.207-6.71,2.352" transform="translate(32.273 119.902)" fill="#ffb78c"/>
              <path id="Trazado_1268223" data-name="Trazado 1268223" d="M28.7,80.979c-.02.051-.038.1-.053.148a5.173,5.173,0,0,0-.127,3.08c.369,1.3,1.6,1.975,2.66,2.655a14.4,14.4,0,0,1,3.406,2.708c1.135,1.349,1.774,3.07,2.96,4.376A3.751,3.751,0,0,0,39.45,95.17a2.012,2.012,0,0,0,2.059-.7,3.988,3.988,0,0,0,.435-1.046c.677-2,2.22-3.755,2.22-5.86a4.769,4.769,0,0,0-3.317-4.335,15.194,15.194,0,0,0-3.243-.44,5.46,5.46,0,0,1-3.06-1.041,10.67,10.67,0,0,1-1.39-1.68A2.511,2.511,0,0,0,30.536,78.9,3.246,3.246,0,0,0,28.7,80.979" transform="translate(43.8 121.828)" fill="#ff8c8c"/>
              <path id="Trazado_1268224" data-name="Trazado 1268224" d="M17.162,85.308a11,11,0,0,0,.815,4.116c1.084,2.892,3.691,4.521,6.524,5.463,5.857,1.945,12.272,2.456,17.587,5.592,1.935,1.14,3.676,2.607,5.715,3.551s4.539,1.283,6.463.127a5.5,5.5,0,0,0,2.5-4.849,7.38,7.38,0,0,0-2.405-5.027A14.671,14.671,0,0,0,50,91.654a42.183,42.183,0,0,0-7.8-2.492C38.46,88.355,34.492,88.014,31.238,86c-1.851-1.143-3.358-2.767-5.109-4.06-1.487-1.1-3.859-2.6-5.781-1.848a5.249,5.249,0,0,0-2.927,3.569,6.385,6.385,0,0,0-.26,1.644" transform="translate(26.519 123.474)" fill="#ffe5cc"/>
              <path id="Trazado_1268225" data-name="Trazado 1268225" d="M174.844,47.342a17.222,17.222,0,0,0-8.9-2.92c-2.859-.219-5.643-.491-8.392.323a76.683,76.683,0,0,0-17.882,8.186c-5.763,3.5-30.8,19.972-33.5,22.286q-7.194,6.163-14.39,12.328c-4.633,3.974-29.467,22.492-33.718,25.379-3.07,2.085-24.378,15.337-27.44,17.747a17.7,17.7,0,0,1,6.051,1.835,11.422,11.422,0,0,1,4.633,5.9,26.456,26.456,0,0,1,1.4,7.489c-.028-.392,2-1.784,2.337-2.059q1.336-1.1,2.752-2.1a46.784,46.784,0,0,1,5.776-3.48c4.035-2.052,8.616-2.953,13.089-3.65,2.978-.463,6.03-.72,8.851-1.787a27,27,0,0,0,8.853-6.16,58.357,58.357,0,0,0,6.053-6.97c1.963-2.573,5.419-4.406,8.14-6.04a191.357,191.357,0,0,1,18.386-9.714c5.1-2.349,10.253-4.615,15.225-7.237,4.814-2.535,9.222-5.786,13.847-8.7q13.421-8.457,26.343-17.681a25.36,25.36,0,0,0,4.778-4.058c4.61-5.44,3.487-14.733-2.286-18.918" transform="translate(47.321 68.306)" fill="#8e5b1a"/>
              <path id="Trazado_1268226" data-name="Trazado 1268226" d="M130.292,82.581c-4.383,2.22-8.881,4.231-13.361,6.275a198.737,198.737,0,0,0-18.384,9.714c-2.721,1.642-6.178,3.475-8.128,6.043a59.322,59.322,0,0,1-6.063,6.972,26.84,26.84,0,0,1-8.846,6.158c-2.818,1.064-5.87,1.334-8.861,1.8-4.462.695-9.057,1.583-13.091,3.65a47.653,47.653,0,0,0-5.776,3.475c-.927.657-1.853,1.372-2.741,2.105-.328.27-2.337,1.642-2.337,2.026a26.621,26.621,0,0,0-1.408-7.471,11.392,11.392,0,0,0-4.615-5.89,17.813,17.813,0,0,0-6.063-1.833c3.07-2.416,24.368-15.66,27.438-17.747,4.248-2.894,29.08-21.413,33.715-25.371q7.209-6.17,14.4-12.341c.929-.792,4.424-3.2,8.884-6.193a24.753,24.753,0,0,1,11.8,12.122,41.215,41.215,0,0,1,3.436,16.51" transform="translate(47.32 83.379)" fill="#ffb78c"/>
              <path id="Trazado_1268227" data-name="Trazado 1268227" d="M56.287,64.28c.107-.01.209-.013.305-.013a4.911,4.911,0,0,1,3.9,2.146,7.326,7.326,0,0,1,1.054,3.3,6.419,6.419,0,0,1-.753,4.327,5.068,5.068,0,0,1-5.206,1.828C54.12,75.554,51,74.072,50.664,72.4a1.8,1.8,0,0,1,.143-1.484,1.471,1.471,0,0,1,1.209-.435,8.283,8.283,0,0,0,1.326.051,1.992,1.992,0,0,0,1.553-2.507c-.214-.624-.746-1.125-.827-1.779-.153-1.207,1.181-1.873,2.22-1.97" transform="translate(78.164 99.325)" fill="#ff8c8c"/>
              <path id="Trazado_1268228" data-name="Trazado 1268228" d="M40.394,75.788a10.48,10.48,0,0,1,3.734-2.306,4.6,4.6,0,0,1,1.711-.321,8.571,8.571,0,0,1,2.68.86,9.479,9.479,0,0,0,4.238.606,2.993,2.993,0,0,1,1.769.148,1.693,1.693,0,0,1,.723,1.662,3.841,3.841,0,0,1-.779,1.731c-1.629,2.276-4.434,3.946-7.178,3.4A6.329,6.329,0,0,0,44.38,81.2c-1.069.311-1.721,1.453-2.777,1.823a2.127,2.127,0,0,1-2.685-2.785c.216-.573.914-.944.939-1.565.02-.433-.407-.794-.415-1.242a2.448,2.448,0,0,1,.952-1.644" transform="translate(59.934 113.066)" fill="#ff8c8c"/>
              <path id="Trazado_1268229" data-name="Trazado 1268229" d="M76.026,89.619c-5.221,3.973-10.289,8.148-15.6,12a158.143,158.143,0,0,1-29.8,16.986c9.4-7.54,20.058-13.313,30.024-20.081,5.162-3.508,10.141-7.285,15-11.2S85.269,79.343,90,75.26c2.367-2.044,24.844-18.681,30.528-21.787q1.493-.817,3-1.616a31.31,31.31,0,0,0-1.973,2.456,11.71,11.71,0,0,1-1.54,1.935c-1.135,1.14-2.439,2.08-3.64,3.146-3.024,2.683-6.16,5.236-9.357,7.71-6.463,5-13.183,9.647-19.842,14.377-3.75,2.663-7.484,5.351-11.144,8.138" transform="translate(47.326 80.145)" fill="#633c0b"/>
              <path id="Trazado_1268230" data-name="Trazado 1268230" d="M95.651,80.991c-3.7,3.48-7.667,6.964-10.783,10.895-3.195,4.032-8.016,7.132-12.157,10.213a162.714,162.714,0,0,1-22.006,13.57,42.245,42.245,0,0,0-10.1,7.39c-.619.611-5.941,7.219-5.722,7.257a10.508,10.508,0,0,1,7.629,5.743c.066-3.877,2.5-7.344,5.363-9.958A17.164,17.164,0,0,1,58.8,121.5c4.7-.458,9.652-1.268,13.924-3.36C80,114.582,84.71,107.421,90.832,102.121c4.658-4.03,10.134-6.975,15.561-9.887,5.022-2.7,10.118-5.419,15.67-6.695a5.062,5.062,0,0,0,1.843-.675,3.959,3.959,0,0,0,1.2-1.731,20,20,0,0,0,.69-12.091c-.563-2.54-1.833-4.956-2.2-7.489a25.939,25.939,0,0,1,.165-8.52q-13.578,11.928-26.572,24.5c-.5.486-1.018.975-1.535,1.459" transform="translate(53.904 85.057)" fill="#633c0b"/>
              <path id="Trazado_1268231" data-name="Trazado 1268231" d="M117.176,23.15a7.145,7.145,0,0,0-4.231-2.108,12.386,12.386,0,0,0-5,.565,19.792,19.792,0,0,0-11.025,8.479,44.444,44.444,0,0,1-2.9,3.981,23.032,23.032,0,0,1-4.574,4.177c-.417.29-.84.573-1.25.871a11.384,11.384,0,0,0-2.2,2.013,14.149,14.149,0,0,0-2.344,4.35,21.013,21.013,0,0,0-.675,9.9c.163,1.033.313,3.139,1.433,3.523a5.635,5.635,0,0,0,3.322-.27,45.033,45.033,0,0,0,6.114-2.584c7.654-3.76,15.051-8.319,20.86-14.565a19.259,19.259,0,0,0,4.124-6.094,12.855,12.855,0,0,0,.463-8.891,9.439,9.439,0,0,0-2.113-3.35" transform="translate(127.779 32.419)" fill="#ffb78c"/>
              <path id="Trazado_1268232" data-name="Trazado 1268232" d="M97.576,24a26.435,26.435,0,0,0-3.065,2.963q-4.074,4.353-8,8.838a6.736,6.736,0,0,0-.939,1.273,1.872,1.872,0,0,0-.308.9c.036.537.6.267.886.089.471-.293.893-.669,1.341-.993a7.052,7.052,0,0,1,2.976-1.112,10.765,10.765,0,0,1,3.777.094,9.2,9.2,0,0,1,1.1.3,9.78,9.78,0,0,1,4.961,4.091,15.424,15.424,0,0,1,2.115,6.152,32.929,32.929,0,0,1,5.87-17.992,14.407,14.407,0,0,0,2.316-3.8,5.552,5.552,0,0,1,.977-1.835c.153-.191,1.095-1.334,1.367-1.24a16.548,16.548,0,0,0-14.517,1.665c-.3.193-.585.4-.86.606" transform="translate(131.768 32.101)" fill="#da9dfe"/>
              <path id="Trazado_1268233" data-name="Trazado 1268233" d="M58.423,91.982a47.406,47.406,0,0,1-19.341.41c-1.293-.272-2.808-.565-3.8.311-1.184,1.044-.743,3.029.178,4.312,1.568,2.187,4.075,3.449,6.239,5.045,4.019,2.963,7.13,7.3,11.77,9.136,2.484.985,5.18,1.158,7.754,1.8a5.77,5.77,0,0,1,3.047,1.415,17.605,17.605,0,0,1,1.168,1.876,3.858,3.858,0,0,0,1.711,1.194,5.236,5.236,0,0,0,4.8-.165c2.831-1.649,4.289-4.887,5.5-7.782a15.461,15.461,0,0,1,2.327-3.788,14.24,14.24,0,0,1,1.973-2.021c.188-.16,2.133-1.453,2.118-1.525q-.962-4.834-1.927-9.665a12.857,12.857,0,0,0-1.179-3.8,4.56,4.56,0,0,0-3.06-2.413c-1.2-.117-2.594.672-3.686,1.056-3.3,1.158-6.618,2.281-9.991,3.228-1.851.519-3.722.985-5.605,1.377" transform="translate(53.424 133.391)" fill="#ffb78c"/>
              <path id="Trazado_1268234" data-name="Trazado 1268234" d="M52.571,96.563a8.924,8.924,0,0,1,2.945,3.065,6.136,6.136,0,0,0,3.23,2.688,1.956,1.956,0,0,0,1.652-.242,2.386,2.386,0,0,0,.669-.983,8.575,8.575,0,0,0-5.7-11.666A14.76,14.76,0,0,0,51.11,89.1c-2.136.074-6.88.01-7.56,2.724-.692,2.764,2.525,4.024,4.648,4.126,1.461.069,3.021-.059,4.373.616" transform="translate(67.158 137.669)" fill="#ff8c8c"/>
              <path id="Trazado_1268235" data-name="Trazado 1268235" d="M33.924,95.236c1.375,4.966,6.023,8.9,10.017,11.826,2.711,1.98,5.7,2.22,8.93,2.871a24.637,24.637,0,0,1,5.615,1.856c3.106,1.461,6,3.6,9.393,4.088,1.336.193,2.543.461,3.818-.191,1.833-.937,1.237-3.65.216-5a9.451,9.451,0,0,0-5.134-3.075c-2-.54-4.078-.692-6.114-1.049a25.146,25.146,0,0,1-14.873-8.118c-2.019-2.385-3.645-5.175-5.534-7.672a7.222,7.222,0,0,0-3.663-2.64,2.518,2.518,0,0,0-2.39,1.227,5.207,5.207,0,0,0-.68,2.721,10.946,10.946,0,0,0,.4,3.151" transform="translate(51.808 136.18)" fill="#ffe5cc"/>
              <path id="Trazado_1268236" data-name="Trazado 1268236" d="M179.945,70.5a38.457,38.457,0,0,0-11.989-17.342,31.358,31.358,0,0,0-16.406-7.033c-1.466-.153-2.894.015-4.353-.043-.285-.01-2.93-.888-2.467-1.191A29.064,29.064,0,0,0,133.3,59.573a19.319,19.319,0,0,1-1.229,3.174,14.541,14.541,0,0,1-2.026,2.629C119.65,76.934,108.506,87.79,98.07,99.283c-2.456,2.7-44.124,50.113-49.561,53.511.12-.076,1.054.524,1.2.6.412.224.812.466,1.2.72a19.18,19.18,0,0,1,2.227,1.688,20.394,20.394,0,0,1,5.689,8.27,18.926,18.926,0,0,1,.664,2.194c.089.364.163.728.229,1.095a1.842,1.842,0,0,1-.283,1.186.121.121,0,0,0-.013.1.115.115,0,0,0,.056.041c.473.2.868-.389,1.161-.667.428-.407.863-.807,1.3-1.2.881-.792,1.779-1.56,2.691-2.316,1.825-1.507,3.7-2.95,5.592-4.376l.624-.471c2.571-1.929,5.16-3.841,7.878-5.557,3.785-2.388,7.8-4.391,11.534-6.863a54.4,54.4,0,0,0,9.026-7.084,24.943,24.943,0,0,0,3.564-4.564c1.092-1.825,2.362-3.513,3.457-5.343,2.833-4.742,5.694-10.523,10.61-13.478,5.353-3.22,11.992-4.928,18-6.45,4.612-1.166,9.294-2.118,13.781-3.7A51.981,51.981,0,0,0,180,75.137a5.677,5.677,0,0,0-.051-4.64" transform="translate(74.97 69.372)" fill="#633c0b"/>
              <path id="Trazado_1268237" data-name="Trazado 1268237" d="M120.678,21a5.022,5.022,0,0,0-3.393,1.072,7.426,7.426,0,0,0-2,3.039c-1.433,3.716-1.708,7.563-2.685,11.376a72.791,72.791,0,0,1-3.867,11.193A74.531,74.531,0,0,1,91.206,72.32c-.2,0-.8.733-.97.881q-.592.527-1.191,1.046c-1.759,1.517-8.448,6.038-9.777,7.089-.843.669,1.242.687,1.548.756,1.2.267,2.349.725,3.525,1.087C88.73,84.523,93.08,86,97.323,87.756a83.625,83.625,0,0,1,12.234,6.183,53.563,53.563,0,0,1,17.185,16.525,40.576,40.576,0,0,1,2.11,3.76,11.762,11.762,0,0,1,.9,1.96,6.4,6.4,0,0,1-.087,2.291.644.644,0,0,0,.005.242.439.439,0,0,0,.519.267c.682-.143,1.532-1.4,1.937-1.9.784-.977,13.371-16.62,16.518-20.532q3.631-4.517,7.267-9.034c2.1-2.6,9.8-12.776,11.564-15.3a138.7,138.7,0,0,1,11.434-14.3q1.607-1.756,3.274-3.457a44.054,44.054,0,0,0,4.587-5.114,6.594,6.594,0,0,0,.109-7.891,14.707,14.707,0,0,0-4.928-4.129,82.7,82.7,0,0,0-10.062-4.689q-11.027-4.54-22.115-8.942a17.854,17.854,0,0,0-3.79-1.191,23.846,23.846,0,0,0-5.5.13,55.236,55.236,0,0,1-14.329-1.089,23.9,23.9,0,0,0-5.48-.545" transform="translate(122.2 32.428)" fill="#6a2874"/>
              <path id="Trazado_1268238" data-name="Trazado 1268238" d="M107.06,26.463a6.034,6.034,0,0,1,.743,1.624c.407,1.512-.654,3.07-1.647,4.157a13.653,13.653,0,0,1-3.505,2.607c-1.214.675-1.3,2-.705,3.243a5.878,5.878,0,0,0,1.823,2.062,14.174,14.174,0,0,0,3.788,1.963,39.5,39.5,0,0,0,6.583,1.54,57.2,57.2,0,0,0,8.207,1.023,15.739,15.739,0,0,0,6.208-.914c.983-.392,2.133-1.161,1.728-2.344a6.465,6.465,0,0,1-.27-3.444c.451-2.716,1.772-5.19,2.719-7.748,1.005-2.721,1.657-5.707,3.625-7.845-4.208-.647-8.533.313-12.75-.272a17.6,17.6,0,0,1-6.16-2.059c-1.512-.843-2.9-1.909-4.467-2.635a11.863,11.863,0,0,0-4.7-1.156,7.551,7.551,0,0,0-1.245.074,8.725,8.725,0,0,1-1.168.318c-.293-.005-1.362-.639-1.176-1.067a9.264,9.264,0,0,0,.695,8.512c.522.815,1.163,1.553,1.675,2.362" transform="translate(156.999 24.093)" fill="#ffb78c"/>
              <path id="Trazado_1268239" data-name="Trazado 1268239" d="M107.513,21.188a59.059,59.059,0,0,0-3.431,5.59,24.066,24.066,0,0,0-1.578,8.006c-.074.944.015,2.156.911,2.461a2.351,2.351,0,0,0,1.135-.018,13.513,13.513,0,0,1,10.892,3.07,18.931,18.931,0,0,0,2.782,2.314,6.72,6.72,0,0,0,4.966.54,11.414,11.414,0,0,0,4.452-2.449,2.138,2.138,0,0,1,.731-.473,2.289,2.289,0,0,1,1.087.051c4.243.82,8.726-1.25,11.462-4.6a19.307,19.307,0,0,0,3.915-12.1,18.179,18.179,0,0,0-.99-6.42c-1.84-5-6.628-8.588-11.829-9.772a21.448,21.448,0,0,0-6.45-.433,24.806,24.806,0,0,0-3.294.479c-.644.14-1.642.843-1.929-.206a2.221,2.221,0,0,1,.173-1.293,19.545,19.545,0,0,0-7.769,5.87c-2.24,2.818-3.414,6.305-5.236,9.383" transform="translate(158.387 9.173)" fill="#ffe5cc"/>
              <path id="Trazado_1268240" data-name="Trazado 1268240" d="M115.126,16.85a3.137,3.137,0,1,1-3.139-3.139,3.138,3.138,0,0,1,3.139,3.139" transform="translate(168.228 21.191)" fill="#ff8c8c"/>
              <path id="Trazado_1268241" data-name="Trazado 1268241" d="M114.034,11.18a5.573,5.573,0,0,1,2.276,1.056,4.413,4.413,0,0,1,.738.817c.181.27.262.949.509,1.13a14.9,14.9,0,0,0-7.751-2.416,2.1,2.1,0,0,1-.7-.132.675.675,0,0,1-.428-.529c-.053-.667.906-.453,1.28-.453a16.069,16.069,0,0,1,4.075.527" transform="translate(167.958 16.414)" fill="#0e1b47"/>
              <path id="Trazado_1268242" data-name="Trazado 1268242" d="M107.476,10.122a3.868,3.868,0,0,0-2.622,1.708,9.2,9.2,0,0,1,4.544-.275c.535.1,1.324.367,1.81-.01a.642.642,0,0,0,0-1.008,3.108,3.108,0,0,0-1.667-.453,6.607,6.607,0,0,0-2.064.038" transform="translate(162.051 15.489)" fill="#0e1b47"/>
              <path id="Trazado_1268243" data-name="Trazado 1268243" d="M113.582,13.764a1.964,1.964,0,0,0-.489.934,1.438,1.438,0,0,0,.563,1.181c.341.3.756.5,1.123.769a4.944,4.944,0,0,1,1.835,3.049,9.512,9.512,0,0,1-.084,3.617,15.667,15.667,0,0,0-.354,2.276c-.023.636-.01,1.991.952,1.7.639-.191,1.27-.641,1.894-.9a5.436,5.436,0,0,1,3.355-.626,2.75,2.75,0,0,1,1.968,1.784c.486,1.471-.55,2.777-1.428,3.851a11.66,11.66,0,0,1-3.07,2.472,26.667,26.667,0,0,1-2.467,1.321c-.476.221-1.665.448-1.848,1.011-.272.83.863.96,1.39.9a14.556,14.556,0,0,0,10.851-6.659,19.562,19.562,0,0,0,2.276-7.117c.326-2.474.359-5.552-.662-7.873a12.029,12.029,0,0,0-4.579-5.206,7.13,7.13,0,0,0-3.48-1.329,8.473,8.473,0,0,0-3.462.812,4.663,4.663,0,0,0-2.22,1.4c-.644.911-1.377,1.759-2.064,2.637" transform="translate(174.776 13.771)" fill="#0e1b47"/>
              <path id="Trazado_1268244" data-name="Trazado 1268244" d="M122.264,13.9c.084,1.347.517,2.82,1.751,3.36,3,1.313,6.529.843,9.591,2.011a7.034,7.034,0,0,1,2.9,1.812,9.508,9.508,0,0,1,2.075,4.343,10.627,10.627,0,0,1,.2,2.408c-.023.395,0,.789-.048,1.181-.048.423-.061.83-.137,1.247a10.574,10.574,0,0,0,1.153-3.482,16.79,16.79,0,0,0,.341-3.974,19.948,19.948,0,0,0-3.716-11.081,18.074,18.074,0,0,0-7.244-5.745A24.693,24.693,0,0,0,119.24,4.6a20.469,20.469,0,0,0-9.314,2.451c-.8.448-2.489,1.464-2.388,2.584.109,1.176,1.871.993,2.675.962a30.36,30.36,0,0,0,4.17-.6c2.209-.4,4.582-.682,6.626.247a2.278,2.278,0,0,1,.949.7,3.238,3.238,0,0,1,.3,2.064,8.3,8.3,0,0,0,.008.9" transform="translate(166.193 7.071)" fill="#172d75"/>
              <path id="Trazado_1268245" data-name="Trazado 1268245" d="M160.989,29.346a1.984,1.984,0,0,0-1.6-2.006,1.965,1.965,0,0,0-.227-1.84,3.894,3.894,0,0,0-1.466-1.232,12.8,12.8,0,0,0-5.43-1.252,33.207,33.207,0,0,0-9.93.988,21.64,21.64,0,0,1-4.89.98.552.552,0,0,1-.407-.1.529.529,0,0,1-.122-.4,7.452,7.452,0,0,1,.624-2.38,3.312,3.312,0,0,0,.1-2.411,1.406,1.406,0,0,0-2.029-.664,2.363,2.363,0,0,0-.583,1.128,11.425,11.425,0,0,1-2.678,4.228c-.484.5-1,.972-1.471,1.487a29.938,29.938,0,0,0-3.6,5.86c-.069.125-.155.221-.229.336a1.639,1.639,0,0,0-.252.163,70.758,70.758,0,0,1-33.771,13.3c-2.607.3-5.9.305-7.631,2.53a15.3,15.3,0,0,0-3.07,7.27c-.372,2.708-.155,6.6,1.532,8.894,1.461,1.985,4.383,2.013,6.575,1.675,7.978-1.232,14.98-5.86,21.489-10.635,4.686-3.436,9.309-7.036,14.463-9.759a32.861,32.861,0,0,1,7.883-3.2,69.012,69.012,0,0,1,9.6-1.466,30.821,30.821,0,0,1,3.263-.272,17.97,17.97,0,0,0,6.124-.937,6.91,6.91,0,0,0,2.309-1.311,4.826,4.826,0,0,0,.807-.911c.117-.173.4-1.041.529-1.1a6.744,6.744,0,0,0,2.484-1.7,2.5,2.5,0,0,0,.349-2.82,3.431,3.431,0,0,0,1.252-2.428" transform="translate(127.002 29.051)" fill="#ffe5cc"/>
              <path id="Trazado_1268246" data-name="Trazado 1268246" d="M99.575,30.184a5.911,5.911,0,0,0-.6.468,2.418,2.418,0,0,0-.68.883c-.451,1.123.766,2.357,1.721,2.724a4.364,4.364,0,0,0,3.729-.311c1.27-.751,2.131-2.136,3.508-2.665.929-.354,1.983-.272,2.9-.662a4.075,4.075,0,0,0,2.209-3.378,3.542,3.542,0,0,0-1.138-3.23,4.162,4.162,0,0,0-2.958-.555,2.534,2.534,0,0,0-2.041,1.028c-.481.876-.16,1.9-.364,2.826a2.3,2.3,0,0,1-1.578,1.677,7.208,7.208,0,0,1-1.609.137,6.1,6.1,0,0,0-3.1,1.056" transform="translate(151.767 36.186)" fill="#ff8c8c"/>
              <path id="Trazado_1268247" data-name="Trazado 1268247" d="M89.865,39.89a7.4,7.4,0,0,0,6.058-.557,7.62,7.62,0,0,0,4.182-5.114,3.393,3.393,0,0,0-.229-2.2,3.472,3.472,0,0,0-1.924-1.507,8.172,8.172,0,0,0-4.773-.12,9.066,9.066,0,0,0-4.528,2.66c-1.049,1.189-2.125,3.378-1.12,4.857a5.186,5.186,0,0,0,2.334,1.98" transform="translate(134.658 46.515)" fill="#ff8c8c"/>
              <path id="Trazado_1268248" data-name="Trazado 1268248" d="M154.67,65.975a97.892,97.892,0,0,1-1.942-9.64,32.667,32.667,0,0,1-.685-5.738c.051-1.41.415-2.785.463-4.226.148-4.256.211-8.739-1.459-12.74a10.424,10.424,0,0,0-3.836-5.01c-1.583-.942-3.322-.188-4.831.565-7.481,3.722-8.879,12.9-8.471,20.506a61.235,61.235,0,0,0,3.1,15.207q.825,2.589,1.764,5.139a1.974,1.974,0,0,1,.1,1.67,2,2,0,0,1-.766.624c-2.619,1.512-10.7,11.977-13.687,13.926-1.405.916-3.021,1.52-4.5,2.383-1.728,1.011-3.569,1.812-5.318,2.782a18.1,18.1,0,0,0-3.554,2.477c-1.772,1.644-3.161,3.872-5.427,4.709-.588.216-1.3.4-1.517.99-.272.723.445,1.446,1.163,1.733a4.386,4.386,0,0,0,3.877-.331,8.254,8.254,0,0,1,1.764-1.077,5.842,5.842,0,0,1-.957,2.713,16.169,16.169,0,0,0-1.54,4.523,2.388,2.388,0,0,0,.064,1.446,1.759,1.759,0,0,0,2.408.509,5.082,5.082,0,0,0,1.739-2.1q.787-1.4,1.571-2.808A3.991,3.991,0,0,1,115.9,102.3q-.855,2.971-1.711,5.944a5.42,5.42,0,0,0-.242,3.286,1.517,1.517,0,0,0,.718.891,1.739,1.739,0,0,0,1.683-.344,7.26,7.26,0,0,0,2.449-3.925,41.243,41.243,0,0,1,1.334-4.513c.461.29.369.977.219,1.5l-1.336,4.679a5.159,5.159,0,0,0-.277,1.588,1.743,1.743,0,0,0,.69,1.4,1.72,1.72,0,0,0,1.9-.163,4.294,4.294,0,0,0,1.2-1.614,19.129,19.129,0,0,0,1.713-5.119,1.9,1.9,0,0,1,.27-.8.609.609,0,0,1,.748-.224.815.815,0,0,1,.321.58,14.684,14.684,0,0,1-.221,4.577,4.1,4.1,0,0,0,.056,1.624A1.6,1.6,0,0,0,126.5,112.8a1.564,1.564,0,0,0,1.273-.323,4.23,4.23,0,0,0,1.247-2.3,26.6,26.6,0,0,0,1.133-5.417c.117-1.588-.028-3.187.028-4.78.171-4.974,3.533-7.064,7.552-9.133a79.09,79.09,0,0,0,9.378-5.2c4.238-2.968,8.792-8.189,8.787-13.69a17.7,17.7,0,0,0-.845-4.539q-.195-.722-.379-1.443" transform="translate(160.8 43.558)" fill="#ffe5cc"/>
              <path id="Trazado_1268249" data-name="Trazado 1268249" d="M113.2,53.047a5.859,5.859,0,0,0-2.141,1.453,2.22,2.22,0,0,0-.354,2.428,2.984,2.984,0,0,0,2.268,1.171,5.392,5.392,0,0,0,2.9-.216,5.325,5.325,0,0,0,1.705-1.3,4.291,4.291,0,0,0,1.209-2.008,2.6,2.6,0,0,0-.738-2.347c-1.672-1.6-3.266.079-4.852.815" transform="translate(170.745 79.694)" fill="#ff8c8c"/>
              <path id="Trazado_1268250" data-name="Trazado 1268250" d="M119.275,49.574a7.791,7.791,0,0,0-2.235,2.207,3.224,3.224,0,0,0,.573,4.414,4.168,4.168,0,0,0,2.454,1.064,3.742,3.742,0,0,0,3.727-2.624c.237-.827.176-1.726.461-2.54a11.651,11.651,0,0,1,1.932-2.757c.662-.914,1.067-2.235.379-3.128a2.356,2.356,0,0,0-1.115-.736,3.51,3.51,0,0,0-4.592,2.265,3.906,3.906,0,0,1-1.583,1.835" transform="translate(179.962 69.968)" fill="#ff8c8c"/>
              <path id="Trazado_1268251" data-name="Trazado 1268251" d="M121.01,31.316a14.025,14.025,0,0,0-1.275,1.382,19.326,19.326,0,0,0-3.727,7.173,30.9,30.9,0,0,0-.473,8.433,66,66,0,0,0,.972,9.416,37.716,37.716,0,0,0,.845,3.752,1.934,1.934,0,0,0,.27.631,1.7,1.7,0,0,0,.415.359,7.775,7.775,0,0,0,3.671,1.008,21.3,21.3,0,0,0,10.913-1.828,34.651,34.651,0,0,0,4.4-2.7c.616-.423.461-2.064.43-2.757-.153-3.391-.468-6.87-.944-10.269a70.6,70.6,0,0,0-1.917-10.251,15.02,15.02,0,0,0-2.446-4.814,7.911,7.911,0,0,0-2.9-2.431c-3.042-1.382-6.132.916-8.227,2.894" transform="translate(178.441 43.276)" fill="#da9dfe"/>
              <path id="Trazado_1268252" data-name="Trazado 1268252" d="M61.983,29.7c.934,2.441,1.868,4.89,3.027,7.232a62.852,62.852,0,0,0,6.936,10.661,5.733,5.733,0,0,1,1.405,2.645,4.538,4.538,0,0,1-.211,1.795,12.068,12.068,0,0,1-10.671,8.5,3.306,3.306,0,0,1-1.553-.2,3.838,3.838,0,0,1-1.344-1.27l-2.283-3c-1.779-2.337-3.559-4.674-5.211-7.1a150.757,150.757,0,0,1-9.793-17.35,3.687,3.687,0,0,1-.435-1.2,3.494,3.494,0,0,1,.117-1.123,17.33,17.33,0,0,1,4.371-8.568,10.372,10.372,0,0,1,8.848-3.111,5.065,5.065,0,0,1,2.072.789,8.3,8.3,0,0,1,2.609,4.475,53.49,53.49,0,0,0,2.115,6.83" transform="translate(64.663 27.019)" fill="#ffb78c"/>
              <path id="Trazado_1268253" data-name="Trazado 1268253" d="M44.122,21.869a14.526,14.526,0,0,1,4.74-5.521,10.473,10.473,0,0,1,4.821-1.759,3.085,3.085,0,0,1,2.123.211,5.112,5.112,0,0,1,1.461,1.616,57.315,57.315,0,0,1,4,7.8q2.627,5.834,5.251,11.671a2.7,2.7,0,0,1,.308,1.046,2.357,2.357,0,0,1-.15.769,11.916,11.916,0,0,1-5.684,6.511A20.35,20.35,0,0,1,52.5,46.469a5.319,5.319,0,0,1-3.22-.519c-1.489-.944-2.225-3.161-2.943-4.679q-.794-1.672-1.563-3.355-1.543-3.364-3-6.766a16.673,16.673,0,0,1-1.405-4.48c.028.214,1.217-.173,1.326-.242a2.956,2.956,0,0,0,.924-1.235c.565-1.077.962-2.232,1.5-3.324" transform="translate(62.399 22.418)" fill="#80a5e2"/>
              <path id="Trazado_1268254" data-name="Trazado 1268254" d="M103.467,99.767a7.237,7.237,0,0,0-1.749-2.408C96.5,92,91.157,86.469,85.084,82.063a9.4,9.4,0,0,1-2.408-2.253c-.654-.962-.965-2.128-1.565-3.139a2.375,2.375,0,0,0-.193-.26L73.983,56.588c-1.952-5.577-3.9-11.159-6.1-16.645A26.9,26.9,0,0,0,65.224,34.6c-1.532-2.22-2.833-4.541-5.567-5.419a9.3,9.3,0,0,0-6.534.053A7.957,7.957,0,0,0,49.2,33.355a9.542,9.542,0,0,0-1.026,5.338,12.33,12.33,0,0,0,1.843,4.765C56.974,55.776,65.679,67.067,72.239,79.6c.379.728.753,1.461,1.095,2.207a10.531,10.531,0,0,1-.178,3.505,11.61,11.61,0,0,1-1.642,2.53c-1.558,2.281-1.848,5.211-3.207,7.614-.624,1.1-1.492,2.166-1.509,3.431a1.464,1.464,0,0,0,.354,1.069,1.64,1.64,0,0,0,1.759.143c2.568-1.039,3.449-4.33,5.755-5.86a6.766,6.766,0,0,1,6.257-.255,18.819,18.819,0,0,1,5.264,3.79,23.037,23.037,0,0,0,5.152,3.961,7.231,7.231,0,0,0,6.285.339,1.806,1.806,0,0,1,.812-.275,1.864,1.864,0,0,1,1.018.547c1.016.794,2.607,1.089,3.548.206a2.618,2.618,0,0,0,.466-2.79" transform="translate(74.379 44.22)" fill="#ffb78c"/>
              <path id="Trazado_1268255" data-name="Trazado 1268255" d="M4.061,46.6a6.821,6.821,0,0,0-1.9,5.048c.061,1.593.6,3.167.448,4.755C2.4,58.59.9,60.438.3,62.556a9.466,9.466,0,0,0,.216,5.409,16.911,16.911,0,0,0,2.6,4.808A14.128,14.128,0,0,0,8.65,77.546c1.443.621,3.3.8,4.442-.28a.7.7,0,0,0,.262-.445A.843.843,0,0,0,13.1,76.3,24.473,24.473,0,0,1,7.848,57.592c.193-1.382,1.362-10.783,4.409-8.759A4.942,4.942,0,0,0,9.1,45.389a4.947,4.947,0,0,0-4.6.815,5.411,5.411,0,0,0-.44.395" transform="translate(-0.001 69.767)" fill="#379799"/>
              <path id="Trazado_1268256" data-name="Trazado 1268256" d="M15.168,74.65c-1.881,5.206-7.382,2.464-10.185-.288C2.235,71.662-.738,66.217,1.4,62.409a19.447,19.447,0,0,0,1.68-2.678c.486-1.341.074-2.815-.176-4.218-.448-2.523-.522-5.18.764-7.466a5.037,5.037,0,0,1,5.781-2.355c2.212.629,4.276,3.167,5.358,5.071a8.669,8.669,0,0,1,1.354,5.231,19.723,19.723,0,0,1-1.586,6,7.9,7.9,0,0,0-.547,5.493c.512,1.947,1.568,3.6,1.443,5.717a5.264,5.264,0,0,1-.3,1.448" transform="translate(1.034 70.316)" fill="#0e1b47"/>
              <path id="Trazado_1268257" data-name="Trazado 1268257" d="M42.569,100.157a78.526,78.526,0,0,1-20.1-16.823A231.035,231.035,0,0,1,6.55,62.367a22.143,22.143,0,0,1-1.418-2.609,7.911,7.911,0,0,1-1.14-2.708,5.212,5.212,0,0,1,.247-1.973,10.237,10.237,0,0,1,2-3.935,6.207,6.207,0,0,1,3.778-2.164,2.212,2.212,0,0,1,1.041.064,2.707,2.707,0,0,1,.611.339c4.849,3.256,9.548,6.733,14.242,10.2l5.17,3.823A111.7,111.7,0,0,1,49.035,80.394c3.021,3.508,5.893,7.29,7.313,11.7a12,12,0,0,1,.458,6.611c-.659,2.556-2.495,4.788-5.234,4.391a25.035,25.035,0,0,1-9-2.937" transform="translate(6.139 75.646)" fill="#8e5b1a"/>
              <path id="Trazado_1268258" data-name="Trazado 1268258" d="M67.264,41.893a83.191,83.191,0,0,1,8.912,7.527,33.5,33.5,0,0,1,6.761,8.634c1.352,2.68,2.927,7.265,1.573,10.223-1.2,2.627-4.157,4.111-6.845,4.6-6.158,1.11-12.455-.784-18.244-3.164-9.347-3.844-18.1-8.986-26.809-14.11a5.34,5.34,0,0,1-1.553-1.194,4.945,4.945,0,0,1-.7-1.428,23.714,23.714,0,0,1-1.334-11.745,15.09,15.09,0,0,1,5.984-9.971,10.8,10.8,0,0,1,11.287-1.12,103.9,103.9,0,0,1,20.97,11.75" transform="translate(44.46 44.909)" fill="#8e5b1a"/>
              <path id="Trazado_1268259" data-name="Trazado 1268259" d="M56.6,113.194a24.562,24.562,0,0,1-.664,9.179,10.411,10.411,0,0,1-5.847,6.771c-3.1,1.171-6.687.27-9.406-1.616a24.8,24.8,0,0,1-6.473-7.44,148.318,148.318,0,0,1-9.747-19.142c-5.615-12.674-10.854-25.567-14.41-38.966-1.9-7.173-3.564-15.494-1.494-22.813a15.4,15.4,0,0,1,4.376-7.328A11.287,11.287,0,0,0,14.7,40.477,14.416,14.416,0,0,0,20.919,45.7c3.442,1.466,7.3,1.53,10.948,2.352,3.762.845,7.308,2.805,8.84,6.516,1.8,4.371,2.81,9.232,4.312,13.73,3.141,9.4,6.524,18.748,8.871,28.39A101.259,101.259,0,0,1,56.6,113.194" transform="translate(11.75 49.206)" fill="#633c0b"/>
              <path id="Trazado_1268260" data-name="Trazado 1268260" d="M91.547,57.646c-1.66,4.6-4.243,8.721-9.276,9.933a14.972,14.972,0,0,0-3.024.815,9.117,9.117,0,0,0-2.311,1.815L55.012,91.636a9.675,9.675,0,0,1-1.751,1.459,8.98,8.98,0,0,1-1.929.787C45.736,95.64,39.815,96.73,34,95.953a30.543,30.543,0,0,1-16.1-7.708,37.27,37.27,0,0,1-6.012-6.9c-1.431-2.113-3.635-5.058-3.528-7.726.079-1.945,1.784-4.226,2.7-5.939a114.479,114.479,0,0,1,7.336-11.1q5.682-8.179,11.585-16.2A88.581,88.581,0,0,1,43.812,24.919c5.547-4.717,11.8-7.776,18.48-10.574C68.63,11.69,75.1,9.114,81.923,8.3c3.052-.367,7.8-.153,8.772,3.355a63.161,63.161,0,0,0,4.241,11.1c1.993,4.032,3.813,8.438,2.406,12.957-1.4,4.5-2.286,9.059-3.462,13.629-.664,2.581-1.329,5.531-2.332,8.306" transform="translate(12.92 12.628)" fill="#9fc0f8"/>
              <path id="Trazado_1268261" data-name="Trazado 1268261" d="M57.982,61.33a.226.226,0,0,0-.135.186l.015.86.031.013a.3.3,0,0,0,.107.094.725.725,0,0,0,.659,0,.314.314,0,0,0,.107-.1h.028l-.015-.868a.245.245,0,0,0-.137-.188.733.733,0,0,0-.659,0" transform="translate(89.402 94.664)" fill="#828282"/>
              <path id="Trazado_1268262" data-name="Trazado 1268262" d="M58.257,61.532l-.013.527-.081,3.678L58,62.051l-.023-.5a.808.808,0,0,1,.283-.018" transform="translate(89.598 95.09)" fill="#6b6b6b"/>
              <path id="Trazado_1268263" data-name="Trazado 1268263" d="M57.988,61.668a.733.733,0,0,1,.659,0c.183.107.183.277,0,.382a.725.725,0,0,1-.659,0,.2.2,0,0,1,0-.379" transform="translate(89.411 95.186)" fill="#828282"/>
              <path id="Trazado_1268264" data-name="Trazado 1268264" d="M57.92,60.661a.422.422,0,0,0-.247.341l.025,1.581.056.023a.609.609,0,0,0,.2.176,1.353,1.353,0,0,0,1.212,0,.564.564,0,0,0,.2-.186h.048l-.025-1.588a.431.431,0,0,0-.252-.346,1.337,1.337,0,0,0-1.212,0" transform="translate(89.133 93.53)" fill="#6b6b6b"/>
              <path id="Trazado_1268265" data-name="Trazado 1268265" d="M57.931,61.281a1.332,1.332,0,0,1,1.209,0c.336.193.339.507.005.7a1.332,1.332,0,0,1-1.209,0c-.336-.2-.339-.507-.005-.7" transform="translate(89.148 94.488)" fill="#6b6b6b"/>
              <path id="Trazado_1268266" data-name="Trazado 1268266" d="M57.872,52.842a.619.619,0,0,0-.364.5l.071,19.707.081.038a.88.88,0,0,0,.29.255,1.968,1.968,0,0,0,1.777.005.835.835,0,0,0,.3-.272h.071l-.071-19.72a.643.643,0,0,0-.372-.509,1.966,1.966,0,0,0-1.779,0" transform="translate(88.878 81.341)" fill="#828282"/>
              <path id="Trazado_1268267" data-name="Trazado 1268267" d="M58.356,58.677l0,.328a1.564,1.564,0,0,0-.456.168.617.617,0,0,0-.367.5l-.005-.331a.619.619,0,0,1,.364-.5,1.484,1.484,0,0,1,.461-.168" transform="translate(88.914 90.686)" fill="#2e6194"/>
              <path id="Trazado_1268268" data-name="Trazado 1268268" d="M58.348,57.912l0,.328a1.559,1.559,0,0,0-.451.168.617.617,0,0,0-.367.5l-.005-.331a.619.619,0,0,1,.364-.5,1.592,1.592,0,0,1,.456-.168" transform="translate(88.909 89.503)" fill="#2e6194"/>
              <path id="Trazado_1268269" data-name="Trazado 1268269" d="M58.34,57.147l0,.331a1.52,1.52,0,0,0-.445.163.62.62,0,0,0-.364.5l-.008-.328a.63.63,0,0,1,.364-.5,1.555,1.555,0,0,1,.451-.165" transform="translate(88.904 88.321)" fill="#2e6194"/>
              <path id="Trazado_1268270" data-name="Trazado 1268270" d="M58.33,56.381l0,.328a1.565,1.565,0,0,0-.44.165.614.614,0,0,0-.364.5l-.005-.331a.619.619,0,0,1,.364-.5,1.48,1.48,0,0,1,.443-.165" transform="translate(88.901 87.137)" fill="#2e6194"/>
              <path id="Trazado_1268271" data-name="Trazado 1268271" d="M58.322,55.616l0,.328a1.557,1.557,0,0,0-.435.163.62.62,0,0,0-.364.5l-.005-.331a.622.622,0,0,1,.364-.5,1.5,1.5,0,0,1,.438-.163" transform="translate(88.897 85.955)" fill="#2e6194"/>
              <path id="Trazado_1268272" data-name="Trazado 1268272" d="M58.314,54.85l0,.331a1.448,1.448,0,0,0-.43.16.619.619,0,0,0-.364.5l-.005-.331a.619.619,0,0,1,.364-.5,1.541,1.541,0,0,1,.433-.163" transform="translate(88.892 84.771)" fill="#2e6194"/>
              <path id="Trazado_1268273" data-name="Trazado 1268273" d="M58.3,54.085l0,.328a1.582,1.582,0,0,0-.423.16.62.62,0,0,0-.364.5l-.008-.331a.628.628,0,0,1,.364-.5,1.584,1.584,0,0,1,.428-.16" transform="translate(88.886 83.589)" fill="#2e6194"/>
              <path id="Trazado_1268274" data-name="Trazado 1268274" d="M58.3,53.319l0,.331a1.6,1.6,0,0,0-.417.158.62.62,0,0,0-.364.5l-.008-.331a.633.633,0,0,1,.364-.5,1.581,1.581,0,0,1,.423-.16" transform="translate(88.881 82.405)" fill="#2e6194"/>
              <g id="Grupo_1208979" data-name="Grupo 1208979" transform="translate(146.546 134.848)" style="mix-blend-mode: screen;isolation: isolate">
                <g id="Grupo_1208978" data-name="Grupo 1208978">
                  <g id="Grupo_1208977" data-name="Grupo 1208977" clip-path="url(#clip-path-3)">
                    <path id="Trazado_1268275" data-name="Trazado 1268275" d="M58.067,52.975l.013,18.282a1.544,1.544,0,0,0-.216.1.824.824,0,0,0-.28.249l-.013-18.343a.913.913,0,0,1,.214-.165,1.577,1.577,0,0,1,.283-.122" transform="translate(-57.57 -52.974)" fill="#a6a6a6"/>
                  </g>
                </g>
              </g>
              <path id="Trazado_1268276" data-name="Trazado 1268276" d="M57.9,52.871a1.111,1.111,0,0,1,1.005,0,.306.306,0,0,1,.005.58,1.116,1.116,0,0,1-1.008,0,.306.306,0,0,1,0-.58" transform="translate(89.162 81.529)" fill="#919191"/>
              <path id="Trazado_1268277" data-name="Trazado 1268277" d="M57.9,52.873a.356.356,0,0,0-.206.283l.084,19.834.048.02a.484.484,0,0,0,.163.145,1.119,1.119,0,0,0,1.005,0A.5.5,0,0,0,59.162,73H59.2l-.084-19.84a.356.356,0,0,0-.211-.288,1.1,1.1,0,0,0-1.005,0" transform="translate(89.164 81.53)" fill="#e6e6e6"/>
              <path id="Trazado_1268278" data-name="Trazado 1268278" d="M57.933,60.663a1.111,1.111,0,0,1,1.005,0,.306.306,0,0,1,0,.58,1.111,1.111,0,0,1-1.005,0,.306.306,0,0,1,0-.58" transform="translate(89.215 93.571)" fill="#919191"/>
              <path id="Trazado_1268279" data-name="Trazado 1268279" d="M57.953,60.37a1.111,1.111,0,0,1,1.005,0,.306.306,0,0,1,0,.58,1.111,1.111,0,0,1-1.005,0,.306.306,0,0,1,0-.58" transform="translate(89.246 93.119)" fill="#919191"/>
              <path id="Trazado_1268280" data-name="Trazado 1268280" d="M59.677,60.463a.638.638,0,0,1,.372.509l.005.321a.63.63,0,0,0-.372-.5,1.96,1.96,0,0,0-1.777,0,.614.614,0,0,0-.364.5l-.008-.331a.63.63,0,0,1,.364-.5,1.966,1.966,0,0,1,1.779,0" transform="translate(88.918 93.115)" fill="#828282"/>
              <path id="Trazado_1268281" data-name="Trazado 1268281" d="M57.9,60.583a1.973,1.973,0,0,1,1.779,0,.543.543,0,0,1,.005,1.028,1.966,1.966,0,0,1-1.779-.005.542.542,0,0,1-.005-1.026" transform="translate(88.921 93.306)" fill="#828282"/>
              <path id="Trazado_1268282" data-name="Trazado 1268282" d="M61.831,52.212a1.893,1.893,0,0,0-1.7-.071L57.2,53.833a.5.5,0,0,0-.293.443l0,.7.321.005.028-.211c.023.013.043.028.069.041a1.879,1.879,0,0,0,1.7.071l2.846-1.644.377.257v-.69c.02-.2-.117-.425-.412-.6" transform="translate(87.951 80.323)" fill="#919191"/>
              <path id="Trazado_1268283" data-name="Trazado 1268283" d="M61.952,53.477,59.019,55.17a1.879,1.879,0,0,1-1.7-.071c-.5-.29-.557-.728-.122-.98l2.93-1.69a1.884,1.884,0,0,1,1.7.069c.5.29.557.728.122.98" transform="translate(87.95 80.765)" fill="#919191"/>
              <path id="Trazado_1268284" data-name="Trazado 1268284" d="M61.952,53.19l-2.932,1.693a1.879,1.879,0,0,1-1.7-.071c-.5-.29-.557-.728-.122-.98l2.93-1.693a1.893,1.893,0,0,1,1.7.071c.5.29.557.728.122.98" transform="translate(87.95 80.32)" fill="#e6e6e6"/>
              <path id="Trazado_1268285" data-name="Trazado 1268285" d="M57.543,53.847a.938.938,0,0,0,.321.285,2.2,2.2,0,0,0,1.991.005.911.911,0,0,0,.328-.3h.079l-.01-1.387a.7.7,0,0,0-.415-.57,2.2,2.2,0,0,0-1.988-.005.7.7,0,0,0-.41.563l.01,1.372Z" transform="translate(88.771 79.805)" fill="#ababab"/>
              <path id="Trazado_1268286" data-name="Trazado 1268286" d="M57.852,52.412a2.2,2.2,0,0,1,1.991,0,.608.608,0,0,1,.005,1.151,2.2,2.2,0,0,1-1.991-.005.606.606,0,0,1-.005-1.148" transform="translate(88.778 80.637)" fill="#ababab"/>
              <path id="Trazado_1268287" data-name="Trazado 1268287" d="M59.3,53.044a.4.4,0,0,1-.234.321,1.254,1.254,0,0,1-1.138,0,.405.405,0,0,1-.237-.331v-.8a2.309,2.309,0,0,0,1.606-.023V52.3Z" transform="translate(89.164 80.686)" fill="#6b6b6b"/>
              <path id="Trazado_1268288" data-name="Trazado 1268288" d="M57.852,51.867a2.2,2.2,0,0,1,1.991,0,.608.608,0,0,1,.005,1.151,2.2,2.2,0,0,1-1.991-.005.606.606,0,0,1-.005-1.148" transform="translate(88.778 79.795)" fill="#e6e6e6"/>
              <path id="Trazado_1268289" data-name="Trazado 1268289" d="M57.668,51.589a.672.672,0,0,0,.242.214,1.661,1.661,0,0,0,1.5.005.71.71,0,0,0,.249-.229h.061l-.005-.428a.536.536,0,0,0-.313-.43,1.653,1.653,0,0,0-1.5,0,.524.524,0,0,0-.308.423l0,.415Z" transform="translate(89.011 78.109)" fill="#828282"/>
              <path id="Trazado_1268290" data-name="Trazado 1268290" d="M59.307,54.383a2.309,2.309,0,0,1-1.606.023L57.7,53.051l-.008-1.8a.4.4,0,0,1,.234-.321,1.262,1.262,0,0,1,1.138,0,.4.4,0,0,1,.234.326l.005,1.812v.033Z" transform="translate(89.156 78.511)" fill="#828282"/>
              <path id="Trazado_1268291" data-name="Trazado 1268291" d="M57.9,50.88a1.661,1.661,0,0,1,1.5,0c.415.242.417.629.005.868a1.661,1.661,0,0,1-1.5,0c-.417-.242-.42-.629-.005-.868" transform="translate(89.013 78.36)" fill="#828282"/>
              <path id="Trazado_1268292" data-name="Trazado 1268292" d="M57.9,50.716a1.661,1.661,0,0,1,1.5,0,.459.459,0,0,1,.005.868,1.661,1.661,0,0,1-1.5,0c-.417-.242-.42-.629-.005-.868" transform="translate(89.013 78.107)" fill="#e6e6e6"/>
              <path id="Trazado_1268293" data-name="Trazado 1268293" d="M59.754,59.332v0Z" transform="translate(92.349 91.662)" fill="#4d4d4d"/>
              <path id="Trazado_1268294" data-name="Trazado 1268294" d="M115.314,95.642a4.193,4.193,0,0,0-1.774-1.14c-.641-.313-1.3-.848-1.283-1.56a.656.656,0,0,1,.122-.389.849.849,0,0,1,.305-.209c.585-.262,1.242-.354,1.807-.659a1.444,1.444,0,0,0,.843-1.56c-.224-.692-1.089-.883-1.807-1.008a16.332,16.332,0,0,1-7.415-3.365,10.886,10.886,0,0,0-3.126-2.146,8.17,8.17,0,0,0-2.082-.323l-5.865-.4a21.232,21.232,0,0,1-4.355-.817c-2.469-.728-19.089-5.374-24.7-7.6A94.011,94.011,0,0,1,56.7,70.21a50.945,50.945,0,0,0-6.5-3.172,20.342,20.342,0,0,0-3.006-.815c-.687-3.1-1.326-6.2-1.894-9.316-1.14-6.262-1.68-12.6-2.708-18.865a16.017,16.017,0,0,0-7.654-11,11.779,11.779,0,0,0-7.181-1.711,6.89,6.89,0,0,0-5.7,4.287,10.289,10.289,0,0,0-.354,3.63c.275,8.357,2.248,16.558,4.394,24.638a99.053,99.053,0,0,0,2.981,9.752A54.523,54.523,0,0,0,32.911,75.7a9.1,9.1,0,0,0,4.284,3.65A116.17,116.17,0,0,0,48.66,83.821a125.96,125.96,0,0,0,13.478,3.706c4.811,1.051,19.445,3.1,21.9,3.34a8.749,8.749,0,0,1,3.23.588,12.933,12.933,0,0,1,4.187,3.375,47.283,47.283,0,0,0,2.968,3.765,6.357,6.357,0,0,0,4.172,2.125c1.456.046,2.848-.629,4.3-.682.517-.02,1.033.041,1.553.048A7.937,7.937,0,0,0,108.591,99a1.191,1.191,0,0,1,.44-.191,1.212,1.212,0,0,1,.489.081,7.615,7.615,0,0,0,2.991.28,3.95,3.95,0,0,0,2.454-1.039,2.05,2.05,0,0,0,.349-2.487" transform="translate(33.514 39.048)" fill="#ffe5cc"/>
              <path id="Trazado_1268295" data-name="Trazado 1268295" d="M37.232,20.12a19.749,19.749,0,0,1,4.742,7.158c1.8,4.394,2.4,8.762,2.907,13.43q.263,2.421.341,4.864c.031,1.021.461,3.676-.244,4.343-.781.738-2.856,1.033-3.882,1.28a25.668,25.668,0,0,1-4.032.639,26.343,26.343,0,0,1-8.123-.619,25.671,25.671,0,0,1-3.887-1.242c-.514-.209-3.411-1.227-3.5-1.772A70.952,70.952,0,0,1,21,31.038a25.969,25.969,0,0,1,1.688-7.853c1.191-2.81,3.274-6.012,6.491-6.659,3.065-.621,5.911,1.632,8.056,3.594" transform="translate(32.019 25.379)" fill="#80a5e2"/>
              <path id="Trazado_1268296" data-name="Trazado 1268296" d="M49.549,39.312c-.02.059-.043.115-.064.171-1.018,2.657-2.619,4.129-5.519,4.037a9.716,9.716,0,0,1-6.631-3.192,17.763,17.763,0,0,1-3.976-8.756A34.335,34.335,0,0,1,33.237,19a11.939,11.939,0,0,1,2.642-6.224,3.174,3.174,0,0,1,1.438-.962,4.008,4.008,0,0,1,1.395-.033c2.724.262,5.776.509,7.888-1.232-.641,4.142-1.245,8.576.545,12.369,1.349,2.859,3.793,5.127,3.821,8.489.013,1.283-.377,2.6-.468,3.867a15.154,15.154,0,0,1-.949,4.04" transform="translate(50.563 16.303)" fill="#ffb78c"/>
              <path id="Trazado_1268297" data-name="Trazado 1268297" d="M37.216,30.926A22.969,22.969,0,0,1,41.922,8.7C44.511,5.868,47.767,4.5,51.4,3.595a24.826,24.826,0,0,1,6.746-.621c5.526.173,11.233,1.749,15.23,5.572,4.2,4.022,6,10.113,5.725,15.922A28.169,28.169,0,0,1,72.873,40.5c-.888,1.138-2.006,1.372-3.388,1.637a1.187,1.187,0,0,0-.705.311,1.223,1.223,0,0,0-.229.626l-.672,4.047c-.135.815-.4,1.787-1.2,2.006-.812.224-1.537-.5-2.258-.937-1.629-1-3.747-.591-5.511.143S55.457,50.1,53.558,50.3c-2.769.3-5.445-1.247-7.387-3.246s-3.35-4.444-5.083-6.623c-.853-1.074-1.84-2.222-1.817-3.592.015-1.036.624-2.016.514-3.047a4.3,4.3,0,0,1-2.568-2.869" transform="translate(55.848 4.572)" fill="#ffe5cc"/>
              <path id="Trazado_1268298" data-name="Trazado 1268298" d="M44.531,21.975a.882.882,0,0,1-.563-.168.86.86,0,0,1-.227-.443,2.455,2.455,0,0,1,.6-2.3c.822-.815,2.8-.863,2.889.593a2.369,2.369,0,0,1-2.7,2.314" transform="translate(67.491 28.594)" fill="#ff8c8c"/>
              <path id="Trazado_1268299" data-name="Trazado 1268299" d="M48.891,18.651a13.058,13.058,0,0,1-2.243-.672,10.265,10.265,0,0,1-.983-.433,4.26,4.26,0,0,1-.985-.461,10.926,10.926,0,0,0,3.976,2.8,9.954,9.954,0,0,0,4.7.344c.438-.069,1.425-.438.807-1.016a1.321,1.321,0,0,0-.825-.265,41.812,41.812,0,0,1-4.452-.3" transform="translate(69.054 26.407)" fill="#0e1b47"/>
              <path id="Trazado_1268300" data-name="Trazado 1268300" d="M86.887,40.112a21.043,21.043,0,0,1-7.754-1.759A4.337,4.337,0,0,1,76.7,36.576c-1.214,3.009-4.6,4.523-7.787,5.127s-6.544.613-9.5,1.947c.563-.255,1.133-1.963,1.352-2.51a11.576,11.576,0,0,0,.748-2.907,8.656,8.656,0,0,0-1.532-5.941,3.1,3.1,0,0,0-3.187-1.268c-1.619.489-1.67,2.278-1.484,3.676.723,5.391,1.5,10.956.079,16.2a9.488,9.488,0,0,1-7.731,7.232c-3.574.507-7.341-.975-10.159-3.1a29.632,29.632,0,0,1-10.745-16.1,23.187,23.187,0,0,1-.468-10.192c1.181-6.058,5.654-11.529,11.76-12.987a35.333,35.333,0,0,1,6.17-.662c.262-.015.522-.02.781-.025a5.821,5.821,0,0,0,4.083-1.176,25.732,25.732,0,0,0,2.747-2.828,34.829,34.829,0,0,1,7.537-6.934c6.056-3.9,14.364-5.361,21.2-2.971a23.781,23.781,0,0,1,11.348,8.988c5.549,7.72,7,20.125.764,27.871-1.41,1.756-3.584,2.092-5.791,2.095" transform="translate(40.054 0.001)" fill="#0e1b47"/>
            </g>
          </g>
        </g>
      </g>
    </g>
  </g>
</svg>
