<svg xmlns="http://www.w3.org/2000/svg" xmlns:xlink="http://www.w3.org/1999/xlink" width="96" height="96" viewBox="0 0 96 96">
  <defs>
    <clipPath id="clip-path">
      <rect id="Rectángulo_455595" data-name="Rectángulo 455595" width="96" height="96" fill="none"/>
    </clipPath>
    <clipPath id="clip-path-2">
      <rect id="Rectángulo_459325" data-name="Rectángulo 459325" width="56.349" height="56.3" fill="#fff"/>
    </clipPath>
  </defs>
  <g id="Grupo_1208255" data-name="Grupo 1208255" transform="translate(-735.746 -9118)">
    <g id="Grupo_1180407" data-name="Grupo 1180407" transform="translate(735.746 9117.971)">
      <g id="Grupo_1179172" data-name="Grupo 1179172" transform="translate(0 0.03)" clip-path="url(#clip-path)">
        <path id="Trazado_998483" data-name="Trazado 998483" d="M92.562,52.469A40.092,40.092,0,1,1,52.469,12.377,40.093,40.093,0,0,1,92.562,52.469" transform="translate(-4.455 -4.484)" fill="#8d1939"/>
        <path id="Trazado_998485" data-name="Trazado 998485" d="M90.9,46.451A44.45,44.45,0,1,1,46.451,2,44.45,44.45,0,0,1,90.9,46.451Z" transform="translate(1.564 1.535)" fill="none" stroke="#8d1939" stroke-miterlimit="10" stroke-width="4"/>
      </g>
    </g>
    <g id="Grupo_1180408" data-name="Grupo 1180408" transform="translate(755.746 9137)">
      <g id="Grupo_1099618" data-name="Grupo 1099618" transform="translate(-0.035 -0.441)">
        <rect id="Rectángulo_401104" data-name="Rectángulo 401104" width="56.349" height="57.028" transform="translate(0)" fill="none"/>
      </g>
      <g id="Grupo_1209077" data-name="Grupo 1209077" transform="translate(-0.035 0.559)">
        <g id="Grupo_1209076" data-name="Grupo 1209076" clip-path="url(#clip-path-2)">
          <path id="Trazado_1268644" data-name="Trazado 1268644" d="M9.337,56.3C3.128,55.752-.687,50.447.1,44.4A15.627,15.627,0,0,1,13.518,31.024c.36-.048,1.6.088,1.746-.117a1.654,1.654,0,0,0,.067-1.238c-.651-1.046-4.092-.556-5.307-.683a6.1,6.1,0,0,1-5.175-7.963c.289-.971,1.436-2.524,1.567-3.26C7.071,14.055,5.707,11.8,7.669,7.7,13.074-3.593,29.855-2.131,33.1,9.9c.776,2.879-.012,5.543.49,8,.15.733,1.077,1.968,1.375,2.786A6.1,6.1,0,0,1,29.8,29c-1.226.11-3.019-.212-4.123.037-.108.024-1.877.962-1.95,1.045a.884.884,0,0,0-.166.75A16.873,16.873,0,0,1,34.629,34.67c2.178,1.883,5.247,6.647,5.247,9.565V56.3ZM31.721,15.86V11.783A16.107,16.107,0,0,0,30.252,7.76c-4.34-7.773-15.809-8-20.36-.333a14.32,14.32,0,0,0-1.636,4.355V15.86L9.9,15.344c.04-1.9.793-3.926,2.68-4.647l-.665-1.325,1.445-.648.3.143c.722,1.555,2.441,3,4.244,2.75l-1.5-2.245,1.564-.655c.957,1.347,1.773,2.443,3.463,2.864.15.037,1.162.34.963-.13-.356-.281-1.438-1.571-1.321-1.977l1.557-.784a5.445,5.445,0,0,0,2.315,2.539c.155.078,1.131.469,1.2.469H29.89v3.661Zm-3.66-2.331a6.455,6.455,0,0,1-5.244-1.663l-.082,1.664A6.475,6.475,0,0,1,19.017,12.5c-.208-.12-.407-.419-.529-.471-.5-.214-.128,1.379-.247,1.5a6.269,6.269,0,0,1-2.752-.495c-1.282-.53-1.515-1.558-2.891-.238a3.272,3.272,0,0,0-.846,1.983c-.238,2.35-.174,7.258.749,9.4a7.275,7.275,0,0,0,3.242,3.5c.232-1.381.088-3.417.8-4.61a2.837,2.837,0,0,1,5.2,1.029c.085.69-.163,3.212.032,3.547a9.77,9.77,0,0,0,1.041.81,7.14,7.14,0,0,0,2.33-1.279c4.293-3.518,2.583-8.793,2.917-13.644M9.92,17.191a1.836,1.836,0,0,0,0,3.661Zm19.97,3.661a1.831,1.831,0,1,0,0-3.661ZM9.837,27.176c.734.1,1.654-.075,2.413,0a8.846,8.846,0,0,1-2.01-4.48,4.361,4.361,0,0,1-2.826-1.088c-.3-.249-.363-.99-.694-.377-1.216,2.25.615,5.592,3.117,5.945m17.89,0H30.14a9.851,9.851,0,0,0,.981-.351,4.3,4.3,0,0,0,2.013-5.808,13.755,13.755,0,0,1-1.569,1.26,4.407,4.407,0,0,1-1.829.418,9.933,9.933,0,0,1-2.009,4.481M16.743,33.5h3.744a4.478,4.478,0,0,0,1.17-1.493A2.7,2.7,0,0,0,19.9,28.563c-.129-1.5.8-6.975-1.954-4.263Zm-1,20.969H30.889V40.823h1.831V54.469h5.325V44.4a17.026,17.026,0,0,0-.663-2.5A13.939,13.939,0,0,0,23.509,32.7l-1.769,2.39c.329,6.181-.167,12.22-4.026,17.276Zm4.161-12.232c.211-2.189-.156-4.684,0-6.906H16.577A22.307,22.307,0,0,1,8.838,51.313L7.6,50.2,8.876,48.73l-2.451-4.91,1.672-.6,1.992,4.088c3.727-3.888,4.461-9.315,4.99-14.477A13.443,13.443,0,0,0,2.21,43.182c-2.417,10.374,9.291,15.366,14.6,7.279a21.029,21.029,0,0,0,3.093-8.224" transform="translate(0 0)" fill="#fff"/>
          <path id="Trazado_1268645" data-name="Trazado 1268645" d="M224.789,45.749a4.306,4.306,0,0,1-4.858-2.547,41.945,41.945,0,0,1-1.465-6.856c-.26-2.818,1.191-4.834,4.07-5.08a86.258,86.258,0,0,1,11.82.008,4.415,4.415,0,0,1,4.077,4.242,52.019,52.019,0,0,1-1.581,7.57,4.427,4.427,0,0,1-2.866,2.625c-.742.139-1.958-.137-2.537.126-.632.287-2.286,2.489-3.083,3.075a2.226,2.226,0,0,1-3.39-.6c-.38-.741-.111-1.743-.187-2.559m1.83,1.831a1.02,1.02,0,0,0,.757-.158c.853-.5,2.467-2.9,3.24-3.251.575-.262,2.087-.01,3.028-.3a2.31,2.31,0,0,0,1.687-1.974,49.78,49.78,0,0,0,1.264-6.239,2.548,2.548,0,0,0-2.564-2.564c-3.652-.327-7.785.258-11.49.006-1.729.315-2.348,1.2-2.251,2.92a37.558,37.558,0,0,0,1.216,6.105,2.24,2.24,0,0,0,1.332,1.663c.125.052.98.3,1.035.3h2.746Z" transform="translate(-182.084 -25.896)" fill="#fff"/>
          <rect id="Rectángulo_459322" data-name="Rectángulo 459322" width="5.492" height="1.831" transform="translate(23.566 40.823)" fill="#fff"/>
          <path id="Trazado_1268646" data-name="Trazado 1268646" d="M85.29,98.168c.3-.176,1.369.049,1.8-.035a2.751,2.751,0,0,1-5.494.085,4.713,4.713,0,0,1,1.723-.058c.369.127.3.824,1.026.822s.756-.7.949-.813" transform="translate(-68.013 -81.773)" fill="#fff"/>
          <path id="Trazado_1268647" data-name="Trazado 1268647" d="M127.413,98.156c.145.094,0,.884.925.8.708-.061.725-.691,1.037-.8a4.756,4.756,0,0,1,1.723.059c-.6,3.414-5.183,3.446-5.495-.085.387.08,1.58-.127,1.809.022" transform="translate(-104.701 -81.774)" fill="#fff"/>
          <rect id="Rectángulo_459323" data-name="Rectángulo 459323" width="10.817" height="1.831" transform="translate(40.874 9.036)" fill="#fff"/>
          <rect id="Rectángulo_459324" data-name="Rectángulo 459324" width="10.817" height="1.831" transform="translate(40.874 12.698)" fill="#fff"/>
        </g>
      </g>
    </g>
  </g>
</svg>
