<svg xmlns="http://www.w3.org/2000/svg" xmlns:xlink="http://www.w3.org/1999/xlink" width="150" height="150" viewBox="0 0 150 150">
  <defs>
    <clipPath id="clip-path">
      <rect id="Rectángulo_459327" data-name="Rectángulo 459327" width="75.324" height="82.081" fill="#6a2874"/>
    </clipPath>
  </defs>
  <g id="Grupo_1208258" data-name="Grupo 1208258" transform="translate(-561.711 -8567.084)">
    <g id="Grupo_1207828" data-name="Grupo 1207828" transform="translate(561.711 8567.084)">
      <g id="Grupo_1177470" data-name="Grupo 1177470" transform="translate(0 0)">
        <circle id="Elipse_13609" data-name="Elipse 13609" cx="75" cy="75" r="75" fill="#f6e1fe"/>
        <g id="Grupo_1207827" data-name="Grupo 1207827" transform="translate(32.621 32.621)">
          <g id="Grupo_1099618" data-name="Grupo 1099618" transform="translate(-0.91 0.009)">
            <rect id="Rectángulo_401104" data-name="Rectángulo 401104" width="84.532" height="84.532" transform="translate(0)" fill="none"/>
          </g>
          <g id="Grupo_1209081" data-name="Grupo 1209081" transform="translate(4.09 1.008)">
            <g id="Grupo_1209080" data-name="Grupo 1209080" clip-path="url(#clip-path)">
              <path id="Trazado_1268653" data-name="Trazado 1268653" d="M54.991,82.081a6.351,6.351,0,0,1-3.308-5.764c-.315-.656.881-3,.488-3.288-.946-.694-3.7-.193-5.005-.414a10.657,10.657,0,0,1-3.119-1.586c-3.163-.379-7.524.516-10.536-.062-1.557-.3-.589-2.3-.045-2.3h9.058c-2.1-5.1-.7-11.785,3.651-15.287.865-.7,3.433-2.123,4.465-2.123h4.117a10.647,10.647,0,0,0-3.548-4.1,17.3,17.3,0,0,0-5.616-2.721L40.924,55.428c-.639,1.115-1.11,1.038-2.159.651-2.809-1.034-5.686-3.111-8.594-4.094-2.83,1.126-5.612,2.92-8.428,4.022-.876.343-1.491.712-2.092-.343L14.77,44.541a16.363,16.363,0,0,0-11.7,12.084A46.319,46.319,0,0,0,2.516,67.86c.04.343.029.6.365.811H11.7V65.26a2.39,2.39,0,0,1,.872-1.028c2.382-.158,1.587,2.858,1.716,4.439H26.877c.65,0,1.447,2.032-.241,2.347l-25.592-.04A1.68,1.68,0,0,1,.17,69.5a71.7,71.7,0,0,1,.008-9.884A19.239,19.239,0,0,1,20.409,41.382L20.359,35.9c-5.943-5.213-8.109-13.235-7.477-20.983,1.657-20.3,35.4-20.528,34.824,3.3-.161,6.6-2.511,13.454-7.729,17.679l-.045,5.486a19.933,19.933,0,0,1,18.037,9.841c2.669.134,5.278-.338,7.737.984.867-.653,1.355-1.429,2.5-1.726,3-.776,6.616-.068,7.016,3.486.112,1,.124,6.485-.174,7.121a.8.8,0,0,1-.454.489c-.589.146-1.472.1-1.678-.6-.521-1.775.61-6.339-.511-7.723-.683-.843-3.655-.862-4.259-.01L67.98,73.209c.374,1.3,4.891,1.544,4.891-.656V65.5c0-.611,2.023-1.2,2.339.719.217,1.315.136,6.984-.339,8.1-.975,2.293-3.974,2.359-6.117,2.118a3.178,3.178,0,0,1-2.95-2.35c-4.5.861-6.161,5.206-9.165,8Zm-9.88-66.343c-.536-11.8-14.05-16.6-23.526-11.054-.142.2,1.065,1.624,1.289,1.881,5.371,6.174,14.2,9.11,22.237,9.173m-29.878,0a11.5,11.5,0,0,0,8.846-4.456c.08-.313-1.949-1.9-2.381-2.362-.339-.361-1.947-2.588-2.114-2.587a14.022,14.022,0,0,0-4.351,9.405m29.878,2.588A39.029,39.029,0,0,1,26.2,12.7a15.661,15.661,0,0,1-10.836,5.6c-.415,10.273,7.055,20.782,18.4,17.973,7.66-1.9,11.542-10.64,11.345-17.947m-7.53,19.057a15.9,15.9,0,0,1-14.586,0V42.2l7.175,6.7,7.411-6.931ZM21.466,43.969H17.349l3.888,9.416c.41.05,6.691-2.811,6.694-3.182Zm21.762,0H39.111L32.41,50.2,39.087,53.4Zm22.09,27.738-.1-16.675c-.769-1.11-2.255-1.327-3.515-1.425a70.986,70.986,0,0,0-10.34.028c-6.038.75-8.846,8.806-6.672,13.926,2.075,4.886,7.1,1.212,9.457,3.953,1.492,1.737-.228,3.385-.079,5.244.055.684.784,2.742,1.506,2.751.516.007,2.3-2.733,2.822-3.312,1.839-2.047,4.1-4.035,6.919-4.49" transform="translate(0 0)" fill="#6a2874"/>
              <path id="Trazado_1268654" data-name="Trazado 1268654" d="M118.321,119.079c1.269-.132,4.079.587,3.231,2.3-.534,1.078-1.737.258-2.587.22-1.162-.052-2.805,1.126-3.145-.631-.244-1.263,1.515-1.785,2.5-1.887" transform="translate(-88.555 -91.052)" fill="#6a2874"/>
              <path id="Trazado_1268655" data-name="Trazado 1268655" d="M143.032,89.306c.355.018.759.4,1.407.4.88,0,1.922-.968,2.539.27,1.222,2.451-5.36,2.9-5.247.551a1.3,1.3,0,0,1,1.3-1.219" transform="translate(-108.387 -68.295)" fill="#6a2874"/>
              <path id="Trazado_1268656" data-name="Trazado 1268656" d="M92.955,91.519a1.357,1.357,0,0,1,.619-2.179c.405-.087,1.117.391,1.781.37.724-.024,2.032-.938,2.44.388.677,2.2-3.865,2.459-4.84,1.421" transform="translate(-70.837 -68.313)" fill="#6a2874"/>
            </g>
          </g>
        </g>
      </g>
      <ellipse id="Elipse_13678" data-name="Elipse 13678" cx="18.074" cy="18.074" rx="18.074" ry="18.074" transform="translate(0.769 113.817)" fill="#da9dfe"/>
      <g id="Grupo_1207826" data-name="Grupo 1207826" transform="translate(0 116.123)">
        <path id="Trazado_998481" data-name="Trazado 998481" d="M0,13.012q4.541.393,9.077.815l-.253.1,1.3-2.34a.35.35,0,0,1,.4-.123.254.254,0,0,1,.184.174l0,.009,1.114,5.034-.836-.059,1.8-4.073,1.816-4.068,1.822-4.067L18.27.354a.772.772,0,0,1,.885-.326.543.543,0,0,1,.472.536V.572L18.9,7.156l-.762,6.581-.773,6.58-.8,6.579-1.5-.222c1.16-2.774,2.354-5.539,3.536-8.307l1.778-4.152,1.8-4.146,0-.01a.657.657,0,0,1,.753-.287.475.475,0,0,1,.413.442L23.082,15.5l-.295,5.285-.776-.111,2.607-5,0-.008a.274.274,0,0,1,.277-.117l4.931.63,4.928.647-4.969-.438-4.966-.456.281-.125L22.763,20.88a.443.443,0,0,1-.508.185.318.318,0,0,1-.269-.285v-.011l.074-5.289.1-5.289,1.17.145-1.676,4.175-1.7,4.17c-1.136,2.779-2.26,5.561-3.418,8.335a.838.838,0,0,1-.96.376c-.35-.082-.566-.334-.536-.6v0l.762-6.581.791-6.579.8-6.579L18.234.48,19.59.7,17.666,4.738,15.723,8.774l-1.948,4.035-1.966,4.029-.005.01a.482.482,0,0,1-.552.192.359.359,0,0,1-.279-.261L10.1,11.718l.586.059-1.431,2.3,0,.007a.257.257,0,0,1-.249.1Q4.5,13.609,0,13.012" transform="translate(0 4.236) rotate(-7)" fill="#fff"/>
      </g>
    </g>
    <path id="Trazado_1267128" data-name="Trazado 1267128" d="M77.377,52.427V64.859a.84.84,0,0,1-.841.84h-10a.841.841,0,0,0-.841.841v10a.841.841,0,0,1-.841.841H52.427a.841.841,0,0,1-.841-.841v-10a.841.841,0,0,0-.84-.841H40.713a.841.841,0,0,1-.841-.84V52.427a.841.841,0,0,1,.841-.841H50.745a.84.84,0,0,0,.84-.84V40.714a.841.841,0,0,1,.841-.841H64.858a.841.841,0,0,1,.841.841V50.746a.841.841,0,0,0,.841.84h10a.841.841,0,0,1,.841.841" transform="translate(630.197 8531.593)" fill="#8d1939"/>
  </g>
</svg>
