<svg xmlns="http://www.w3.org/2000/svg" xmlns:xlink="http://www.w3.org/1999/xlink" width="69" height="69" viewBox="0 0 69 69">
  <defs>
    <clipPath id="clip-path">
      <rect id="Rectángulo_459344" data-name="Rectángulo 459344" width="40" height="42" fill="#fff"/>
    </clipPath>
  </defs>
  <g id="Grupo_1208266" data-name="Grupo 1208266" transform="translate(-616.422 -748.833)">
    <circle id="Elipse_13676" data-name="Elipse 13676" cx="34.5" cy="34.5" r="34.5" transform="translate(616.422 748.833)" fill="#6a2874"/>
    <g id="Grupo_1209097" data-name="Grupo 1209097" transform="translate(631.421 762.833)">
      <g id="Grupo_1209096" data-name="Grupo 1209096" clip-path="url(#clip-path)">
        <path id="Trazado_1268779" data-name="Trazado 1268779" d="M20,17.546v4.836c0,.383-1.053.989-1.466.564L11.7,17.572c-3.047-.277-6.6.281-9.582-.026A2.028,2.028,0,0,1,.068,15.423c-.089-4.49-.089-8.388,0-13.166C.091.926.517.13,2.116,0l23.54.066a1.857,1.857,0,0,1,1.407,1.811,133.744,133.744,0,0,1,0,13.8,2.683,2.683,0,0,1-.563,1.292,4.657,4.657,0,0,1-1.2.578ZM5.4,4.935a1.281,1.281,0,0,0,.286,2.521c4.34-.077,4.465-.077,8.3.022,1.586.041,1.641-2.05.288-2.568ZM5.83,10.1c-1.838.281-1.842,2.6.108,2.677,5.472.222,9.994-.007,15.262,0,2.072-.214,1.9-2.618-.141-2.709Z" transform="translate(0 -0.001)" fill="#fff"/>
        <path id="Trazado_1268780" data-name="Trazado 1268780" d="M137,236.729a53.964,53.964,0,0,1,7.784-.018c5.452.553,6.581,5.563,6.879,9.654.041.566.188,1.451-.506,1.644l-20.1.058c-.751.007-.983-.367-.967-1,.047-1.844.558-5.345,1.529-6.931A7.915,7.915,0,0,1,137,236.729" transform="translate(-111.704 -206.068)" fill="#fff"/>
        <path id="Trazado_1268781" data-name="Trazado 1268781" d="M175.613,146.426c8-1.056,8.032,9.865.481,9.223-5.884-.5-5.888-8.509-.481-9.223" transform="translate(-147.365 -127.478)" fill="#fff"/>
      </g>
    </g>
  </g>
</svg>
