<svg xmlns="http://www.w3.org/2000/svg" xmlns:xlink="http://www.w3.org/1999/xlink" width="69" height="69" viewBox="0 0 69 69">
  <defs>
    <clipPath id="clip-path">
      <rect id="Rectángulo_459343" data-name="Rectángulo 459343" width="42" height="38" fill="#fff"/>
    </clipPath>
  </defs>
  <g id="Grupo_1209821" data-name="Grupo 1209821" transform="translate(-273.711 -11631)">
    <circle id="Elipse_13681" data-name="Elipse 13681" cx="34.5" cy="34.5" r="34.5" transform="translate(273.711 11631)" fill="#6a2874"/>
    <g id="Grupo_1209095" data-name="Grupo 1209095" transform="translate(287.711 11647)">
      <g id="Grupo_1209094" data-name="Grupo 1209094" clip-path="url(#clip-path)">
        <path id="Trazado_1268775" data-name="Trazado 1268775" d="M27.667,11.478a.794.794,0,0,1-.861.09c-.688-.322-.1-1.748-.047-2.324a5.286,5.286,0,0,0-1.369-4.424c-.119-.125-.892-.83-1-.722a9.7,9.7,0,0,1,1.685,7.308c-.118.8-.885,3.094-.735,3.643.186.683,2.044,1.745,2.3,3.006.327,1.6-1.286,1.9-1.391,2.285s.771,1.335-.4,1.869c.86.788.009,1.157-.11,1.779-.083.431.1.688.082.986-.057,1.157-.742,2.546-1.887,2.694-1.566.2-3.378-1.417-4.374.572-.807,1.611-1.085,4.44-1.733,6.213-.04,1.477,1.625,2.1,1.386,3-.125.47-.573.559-.962.546-1.543-.051-3.287-.657-4.874-.613a24.131,24.131,0,0,1-1.652-2.547,11.852,11.852,0,0,1-1.2-5.224c-.021-2.128,1.053-6.486.047-8.2-.58-.986-1.1-.687-1.815-1.058-1.173-.611-1.511-3.96-.164-4.054,1.283-.089,1.692,1.748,3.378,1.253.81-.238,2.654-2.423,3.7-3.061,1.746-1.07,2.779-.708,4.438-1.227,1.529-.479,3.034-2.767,3.6-4.333.378-1.048.993-3.928.543-4.893a20.3,20.3,0,0,0-2.961-2.708c-.06-.027-.217-.038-.2.07,2.832,2.387,1.96,7.736-.659,9.9-.989.816-1.515.485-2.545.691A8.6,8.6,0,0,0,14.3,13.581c-.571.415-2.376,2.327-2.7,2.425-.432.13-1.227-.738-1.718-.965-4.126-1.9-4.837,5.352-1.491,6.877.25.114.717.063.9.252.677.722-.057,4.572-.108,5.707a17.4,17.4,0,0,0,.606,6.183c.361,1.079,1.04,1.979,1.381,3.061-2.836-.509-5.989-.489-8.373-2.5S.387,30.079.2,27.009C-.568,14.61.274.918,14.281.025a22.9,22.9,0,0,1,8.689,1.64c3.689,1.277,5.933,4.125,5.089,8.572a3.865,3.865,0,0,1-.391,1.241" transform="translate(0 0)" fill="#fff"/>
        <path id="Trazado_1268776" data-name="Trazado 1268776" d="M280.131,85.124c.787-.269,1.515.955,1.946,1.586a15.387,15.387,0,0,1,0,17.142c-.318.466-1.07,1.592-1.575,1.628a.78.78,0,0,1-.833-.793c.024-.279,1.7-2.436,2.012-3.016a13.8,13.8,0,0,0-.422-13.479c-.377-.6-2.413-2.629-1.128-3.068" transform="translate(-242.685 -72.708)" fill="#fff"/>
        <path id="Trazado_1268777" data-name="Trazado 1268777" d="M256.238,109.057c.623-.213,1,.3,1.36.776a10.17,10.17,0,0,1,0,11.778c-.377.492-.906,1.159-1.527.668-.807-.637.562-1.843.924-2.5a8.387,8.387,0,0,0-.157-8.387c-.3-.506-1.776-1.938-.6-2.34" transform="translate(-221.966 -93.149)" fill="#fff"/>
        <path id="Trazado_1268778" data-name="Trazado 1268778" d="M235.473,136.621c-.607-.671.57-1.739.768-2.5a3.98,3.98,0,0,0-.115-2.507c-.261-.658-1.413-1.581-.495-2.238,1.028-.735,2.08,2.02,2.175,2.863a5.765,5.765,0,0,1-.38,2.9c-.253.635-1.21,2.313-1.953,1.49" transform="translate(-204.17 -110.446)" fill="#fff"/>
      </g>
    </g>
  </g>
</svg>
