<svg xmlns="http://www.w3.org/2000/svg" xmlns:xlink="http://www.w3.org/1999/xlink" width="69" height="69" viewBox="0 0 69 69">
  <defs>
    <clipPath id="clip-path">
      <rect id="Rectángulo_459346" data-name="Rectángulo 459346" width="41.036" height="42" fill="#fff"/>
    </clipPath>
  </defs>
  <g id="Grupo_1208268" data-name="Grupo 1208268" transform="translate(-616.711 -749)">
    <circle id="Elipse_13676" data-name="Elipse 13676" cx="34.5" cy="34.5" r="34.5" transform="translate(616.711 749)" fill="#6a2874"/>
    <g id="Grupo_1209101" data-name="Grupo 1209101" transform="translate(630.91 762.723)">
      <g id="Grupo_1209100" data-name="Grupo 1209100" clip-path="url(#clip-path)">
        <path id="Trazado_1268792" data-name="Trazado 1268792" d="M7.045,202.65a50.218,50.218,0,0,1,7.934-.02c5.557.618,6.708,6.214,7.012,10.783.042.633.192,1.62-.516,1.836l-20.489.065c-.766.008-1-.41-.986-1.119.048-2.06.569-5.97,1.558-7.742a8.033,8.033,0,0,1,5.486-3.8" transform="translate(0 -173.314)" fill="#fff"/>
        <path id="Trazado_1268793" data-name="Trazado 1268793" d="M48.267,125.67c8.156-1.179,8.187,11.019.49,10.3-6-.559-6-9.5-.49-10.3" transform="translate(-37.828 -107.498)" fill="#fff"/>
        <path id="Trazado_1268794" data-name="Trazado 1268794" d="M139.689,0a11.266,11.266,0,0,0-9.118,17.886,3.329,3.329,0,1,0,5.132,3.923A11.269,11.269,0,1,0,139.689,0M145.5,15.188c-.063.109-1.118,1.252-1.3,1.436-.589.6-1.031,1.093-1.93.626-.45-.234-2.688-2.716-2.9-2.716-.627.557-1.169,1.253-1.8,1.8-.678.589-1.372,1.445-2.3.855a23.945,23.945,0,0,1-2.138-2.183c-.415-1.37,2.122-2.841,2.849-3.86-.724-1.073-3.286-2.227-2.848-3.714A10.142,10.142,0,0,1,135.4,5.088c1.532-.493,2.852,2.015,3.97,2.814,1.122-.8,2.583-3.531,4.159-2.716a19.027,19.027,0,0,1,1.884,1.861c.892,1.419-1.113,2.65-2.022,3.511a8.48,8.48,0,0,1-.634.588c.712,1.029,3.548,2.643,2.742,4.042" transform="translate(-109.921 0.001)" fill="#fff"/>
        <path id="Trazado_1268795" data-name="Trazado 1268795" d="M178.392,51.018a.938.938,0,0,1-.138-.722c.1-.559,3.024-2.956,3.024-3.176L180.056,45.9c-.225,0-2.567,2.914-3.321,3.028-.559.084-1.276-.854-1.709-1.241-.647-.579-1.293-1.148-1.885-1.786l-1.222,1.222,3.137,3.336c.054.577-2.689,2.82-3.137,3.435l1.222,1.222c.71-.522,2.763-3.18,3.545-3.1.719.074,3.137,3.1,3.369,3.1l1.225-1.363c-.053-.192-2.566-2.176-2.888-2.732" transform="translate(-147.153 -39.286)" fill="#fff"/>
      </g>
    </g>
  </g>
</svg>
