<svg xmlns="http://www.w3.org/2000/svg" xmlns:xlink="http://www.w3.org/1999/xlink" width="69" height="69" viewBox="0 0 69 69">
  <defs>
    <clipPath id="clip-path">
      <rect id="Rectángulo_459345" data-name="Rectángulo 459345" width="38.288" height="42" fill="#fff"/>
    </clipPath>
  </defs>
  <g id="Grupo_1208267" data-name="Grupo 1208267" transform="translate(-616.422 -748.833)">
    <circle id="Elipse_13676" data-name="Elipse 13676" cx="34.5" cy="34.5" r="34.5" transform="translate(616.422 748.833)" fill="#6a2874"/>
    <g id="Grupo_1209099" data-name="Grupo 1209099" transform="translate(632.422 762.833)">
      <g id="Grupo_1209098" data-name="Grupo 1209098" clip-path="url(#clip-path)">
        <path id="Trazado_1268782" data-name="Trazado 1268782" d="M23.4,88.153c-2.325.261-4.435-.552-4.8-2.858.152-3.591-.251-7.379-.02-10.947.444-6.861,6.67-11.114,13.779-11.5a100.177,100.177,0,0,1,11.113,0c1.552.126,2.287,1.265,1.6,2.571-.232.444-1.781,2.014-1.489,2.376.1.13,2.894.52,3.444.681,7.363,2.155,4.092,11.783,4.734,17.071-.561,2.2-2.451,2.775-4.713,2.638-2.6,11.949-21.163,11.956-23.65-.037m4.644,5.23c6.974,5.865,17.244,1.235,17.713-7.227.085-1.537.222-6.364-.26-7.6-.753-1.926-2.884-1.343-4.5-1.629-2.193-.387-3.559-2.435-5.887-2.407-2.069.025-3.541,2.039-5.628,2.407-.842.149-1.892.035-2.7.16a2.688,2.688,0,0,0-2.056,2.2,52.514,52.514,0,0,0,0,7.709,9.467,9.467,0,0,0,3.326,6.385m-4.757-6.57V79.892a2.749,2.749,0,0,0-2.855.619c-.57.738-.495,3.351-.416,4.321.154,1.9,1.456,2.119,3.271,1.981m23.771,0h1.894c.407,0,1.252-.887,1.341-1.292a25.4,25.4,0,0,0,0-4.4c-.264-1.2-1.989-1.512-3.1-1.412v6.8c0,.037-.179.171-.131.3" transform="translate(-16.088 -55.15)" fill="#fff"/>
        <path id="Trazado_1268783" data-name="Trazado 1268783" d="M3.095,29.067c-.036.042-.136.046-.2.052l-.005.169c.424.565,2.361,1.781,2.162,2.476-.169.588-.771.568-1.245.291A31.079,31.079,0,0,1,1.267,29.7c-.617-.976.912-1.228.844-1.842C1.637,27.4-1,25.661.411,25.078a.748.748,0,0,1,.773.128,32.237,32.237,0,0,1,2.6,2.416c.379.657-.252.934-.69,1.445" transform="translate(-0.001 -22.005)" fill="#fff"/>
        <path id="Trazado_1268784" data-name="Trazado 1268784" d="M259.226,26.3l-1.914,1.68c-.063.57,1.438.923.847,1.841a30.632,30.632,0,0,1-2.544,2.353c-.49.286-1.193.263-1.267-.372-.076-.654,1.756-1.84,2.184-2.4l0-.169c-.517-.379-1.278-.817-.888-1.5a25.876,25.876,0,0,1,2.85-2.553.684.684,0,0,1,.738,1.112" transform="translate(-221.126 -22.12)" fill="#fff"/>
        <path id="Trazado_1268785" data-name="Trazado 1268785" d="M46.614.022a.877.877,0,0,1,.754.223c.248.161,2.534,2.255,2.611,2.41.344.686-.558,1.182-.976,1.622.406.523,2.3,1.785,2.2,2.38-.107.634-.76.686-1.279.383a29.2,29.2,0,0,1-2.592-2.434.79.79,0,0,1-.1-.329c0-.6.991-.972.991-1.324-.294-.72-2.316-1.728-2.071-2.5a.941.941,0,0,1,.463-.43" transform="translate(-40.105 0)" fill="#fff"/>
        <path id="Trazado_1268786" data-name="Trazado 1268786" d="M212.5.09a.683.683,0,0,1,.8.859c-.139.428-2.072,1.691-2.072,2.072.19.506.991.746.991,1.324a.792.792,0,0,1-.1.329,29.2,29.2,0,0,1-2.592,2.434c-.519.3-1.172.252-1.279-.382-.1-.6,1.791-1.858,2.2-2.38-.418-.441-1.32-.937-.976-1.623.076-.151,2.28-2.17,2.543-2.352A1.27,1.27,0,0,1,212.5.09" transform="translate(-181.041 -0.069)" fill="#fff"/>
        <path id="Trazado_1268787" data-name="Trazado 1268787" d="M125.364,275.033c.765-.206,1.589,1.186,2.209,1.535.468.075,1.7-2.2,2.667-1.381.849.719-1.154,1.87-1.572,2.413.442.633,2.427,1.579,1.5,2.35-.829.691-1.811-1.044-2.484-1.445-.57.39-1.832,2.178-2.61,1.441-.807-.765,1.091-1.788,1.49-2.362-.252-.547-2.794-2.122-1.2-2.55" transform="translate(-108.537 -241.904)" fill="#fff"/>
        <path id="Trazado_1268788" data-name="Trazado 1268788" d="M88.318,198.037a.712.712,0,0,1-.007-.9,1.3,1.3,0,0,1,1.019-.1c.271.075,3.319,1.712,3.644,1.939.921.644.405,1.473-.65,1.2Z" transform="translate(-76.64 -173.269)" fill="#fff"/>
        <path id="Trazado_1268789" data-name="Trazado 1268789" d="M164.325,199.06l4.005-2.144c.834-.33,1.435.426.858,1.031l-3.954,2.133c-.849.241-1.348-.322-.909-1.02" transform="translate(-142.721 -173.141)" fill="#fff"/>
        <path id="Trazado_1268790" data-name="Trazado 1268790" d="M95.7,227.9c2.006-.422,2.085,2.067.484,2.133-1.446.059-1.685-1.88-.484-2.133" transform="translate(-82.528 -200.421)" fill="#fff"/>
        <path id="Trazado_1268791" data-name="Trazado 1268791" d="M181.81,227.857c1.259,1.271-1.334,2.7-1.979,1.284-.593-1.3,1.147-2.124,1.979-1.284" transform="translate(-156.238 -200.128)" fill="#fff"/>
      </g>
    </g>
  </g>
</svg>
